<?xml version="1.0" standalone="no"?>
<!DOCTYPE svg PUBLIC "-//W3C//DTD SVG 1.1//EN"
"http://www.w3.org/Graphics/SVG/1.1/DTD/svg11.dtd">
<svg width="210.52" height="155.528" viewBox="0 0 4385.83 3240.16" version="1.1"
xmlns="http://www.w3.org/2000/svg"
xmlns:xlink="http://www.w3.org/1999/xlink">
<polyline points="3044.31,636.538 3050.1,641.379 3057.37,645.615 3060.96,646.253 3114.62,646.253 3118.28,645.599 3122.71,643.345 3126.22,639.837 3128.47,635.411 3129.13,631.749 3129.13,509.193 3128.47,505.529 3126.22,501.105 3122.71,497.597 3118.29,495.343 3114.62,494.689 3062.2,494.663 3057.3,495.343 3052.27,497.585 3045.53,501.571" style="stroke:rgb(255,0,0);stroke-width:39.370079;fill:none;stroke-opacity:0.5;stroke-linecap:round;stroke-linejoin:round;;fill:none"/>
<polyline points="3044.31,636.538 3050.1,641.379 3057.37,645.615 3060.96,646.253 3114.62,646.253 3118.28,645.599 3122.71,643.345 3126.22,639.837 3128.47,635.411 3129.13,631.749 3129.13,509.193 3128.47,505.529 3126.22,501.105 3122.71,497.597 3118.29,495.343 3114.62,494.689 3062.2,494.663 3057.3,495.343 3052.27,497.585 3045.53,501.571" style="stroke:rgb(0,0,0);stroke-width:1px;fill:none;stroke-opacity:1;stroke-linecap:round;stroke-linejoin:round;;fill:none"/>
<polyline points="3044.34,636.625 3046.58,638.653 3044.34,636.626" style="stroke:rgb(255,0,0);stroke-width:39.370079;fill:none;stroke-opacity:0.5;stroke-linecap:round;stroke-linejoin:round;;fill:none"/>
<polyline points="3044.34,636.625 3046.58,638.653 3044.34,636.626" style="stroke:rgb(0,0,0);stroke-width:1px;fill:none;stroke-opacity:1;stroke-linecap:round;stroke-linejoin:round;;fill:none"/>
</svg>
