<?xml version="1.0" standalone="no"?>
<!DOCTYPE svg PUBLIC "-//W3C//DTD SVG 1.1//EN"
"http://www.w3.org/Graphics/SVG/1.1/DTD/svg11.dtd">
<svg width="210.52" height="155.528" viewBox="0 0 4385.83 3240.16" version="1.1"
xmlns="http://www.w3.org/2000/svg"
xmlns:xlink="http://www.w3.org/1999/xlink">
<polyline points="257.469,2366.29 257.433,2366.44 257.515,2366.26" style="stroke:rgb(255,0,0);stroke-width:39.370079;fill:none;stroke-opacity:0.5;stroke-linecap:round;stroke-linejoin:round;;fill:none"/>
<polyline points="257.469,2366.29 257.433,2366.44 257.515,2366.26" style="stroke:rgb(0,0,0);stroke-width:1px;fill:none;stroke-opacity:1;stroke-linecap:round;stroke-linejoin:round;;fill:none"/>
<polyline points="276.854,2354.78 285.211,2353.33 297.835,2352.53 340.239,2352.51 348.545,2351.87 356.035,2350.51" style="stroke:rgb(255,0,0);stroke-width:39.370079;fill:none;stroke-opacity:0.5;stroke-linecap:round;stroke-linejoin:round;;fill:none"/>
<polyline points="276.854,2354.78 285.211,2353.33 297.835,2352.53 340.239,2352.51 348.545,2351.87 356.035,2350.51" style="stroke:rgb(0,0,0);stroke-width:1px;fill:none;stroke-opacity:1;stroke-linecap:round;stroke-linejoin:round;;fill:none"/>
<polyline points="356.035,2350.51 348.545,2351.87 338.365,2352.56 295.465,2352.62 285.211,2353.33 276.854,2354.78" style="stroke:rgb(255,0,0);stroke-width:39.370079;fill:none;stroke-opacity:0.5;stroke-linecap:round;stroke-linejoin:round;;fill:none"/>
<polyline points="356.035,2350.51 348.545,2351.87 338.365,2352.56 295.465,2352.62 285.211,2353.33 276.854,2354.78" style="stroke:rgb(0,0,0);stroke-width:1px;fill:none;stroke-opacity:1;stroke-linecap:round;stroke-linejoin:round;;fill:none"/>
<polyline points="372.23,2353.16 391.405,2366.94 399.595,2375.12 405.209,2383.21 409.659,2392.98 412.831,2406.8 412.727,2418.39 411.645,2425.04 408.617,2434.84 406.047,2440.45 399.699,2450.15 394.087,2455.92 391.473,2458.33 381.823,2464.77 371.107,2469.21 359.735,2471.48 293.017,2471.48 281.627,2469.26 272.561,2465.56 261.251,2458.37 253.045,2450.16 247.655,2442.19 242.153,2429.78 239.885,2418.4 240.089,2405.65 242.149,2395.41 246.669,2384.72 252.343,2375.9 257.312,2366.41" style="stroke:rgb(255,0,0);stroke-width:39.370079;fill:none;stroke-opacity:0.5;stroke-linecap:round;stroke-linejoin:round;;fill:none"/>
<polyline points="372.23,2353.16 391.405,2366.94 399.595,2375.12 405.209,2383.21 409.659,2392.98 412.831,2406.8 412.727,2418.39 411.645,2425.04 408.617,2434.84 406.047,2440.45 399.699,2450.15 394.087,2455.92 391.473,2458.33 381.823,2464.77 371.107,2469.21 359.735,2471.48 293.017,2471.48 281.627,2469.26 272.561,2465.56 261.251,2458.37 253.045,2450.16 247.655,2442.19 242.153,2429.78 239.885,2418.4 240.089,2405.65 242.149,2395.41 246.669,2384.72 252.343,2375.9 257.312,2366.41" style="stroke:rgb(0,0,0);stroke-width:1px;fill:none;stroke-opacity:1;stroke-linecap:round;stroke-linejoin:round;;fill:none"/>
</svg>
