<?xml version="1.0" standalone="no"?>
<!DOCTYPE svg PUBLIC "-//W3C//DTD SVG 1.1//EN"
"http://www.w3.org/Graphics/SVG/1.1/DTD/svg11.dtd">
<svg width="210.52" height="155.528" viewBox="0 0 4385.83 3240.16" version="1.1"
xmlns="http://www.w3.org/2000/svg"
xmlns:xlink="http://www.w3.org/1999/xlink">
<g fill-rule="evenodd"><path d="M 159.649,1058.99 L 161.189,1053.71 L 165.341,1050.1 L 169.413,1049.21 L 1832.68,1049.21 L 1832.68,1012.52 L 1834.23,1007.24 L 1837.56,1004.07 L 1841.13,1002.01 L 1848.46,994.669 L 1853.65,985.683 L 1856.34,975.661 L 1856.34,169.251 L 1857.89,163.973 L 1862.04,160.369 L 1866.1,159.487 L 4145.75,159.487 L 4151.02,161.037 L 4154.63,165.195 L 4155.51,169.251 L 4155.51,1271.87 L 4153.96,1277.15 L 4149.8,1280.75 L 4144.36,1281.54 L 4129.25,1278.02 L 4121.97,1277.52 L 4103.02,1278.02 L 4085.97,1282.03 L 4069.95,1289.11 L 4055.49,1299.01 L 4043.11,1311.4 L 4033.2,1325.85 L 4025.64,1343.94 L 4022.93,1348.72 L 4018.05,1351.27 L 4012.57,1350.79 L 4008.23,1347.42 L 3999.08,1325.85 L 3989.17,1311.4 L 3976.79,1299.01 L 3962.33,1289.11 L 3946.31,1282.03 L 3929.25,1278.02 L 3921.97,1277.52 L 3903.02,1278.02 L 3885.97,1282.03 L 3869.95,1289.11 L 3855.49,1299.01 L 3843.11,1311.4 L 3833.2,1325.85 L 3826.13,1341.88 L 3823.38,1353.57 L 3820.78,1358.24 L 3779.13,1399.88 L 3779.13,1470.19 L 3820.78,1511.84 L 3823.38,1516.51 L 3826.13,1528.2 L 3833.2,1544.22 L 3843.11,1558.68 L 3852.4,1567.98 L 3855.04,1572.8 L 3854.65,1578.29 L 3851.35,1582.7 L 3846.2,1584.62 L 3821.58,1584.64 L 3816.3,1583.09 L 3812.7,1578.94 L 3811.92,1573.49 L 3817.37,1559 L 3813.46,1557.04 L 3811.41,1556.9 L 3807.91,1554.65 L 3779.13,1525.87 L 3778.83,1548.35 L 3776.48,1554.02 L 3772.13,1558.37 L 3766.46,1560.72 L 3668.9,1561.02 L 3665.83,1560.72 L 3660.15,1558.37 L 3655.8,1554.02 L 3653.45,1548.35 L 3653.15,1545.28 L 3653.15,1525.87 L 3624.36,1554.65 L 3615.34,1559.44 L 3616.41,1563.62 L 3619.41,1570.67 L 3620.29,1576.1 L 3618.09,1581.14 L 3613.52,1584.2 L 3610.6,1584.64 L 3586.78,1584.64 L 3581.5,1583.09 L 3577.9,1578.94 L 3577.12,1573.49 L 3579.4,1568.49 L 3589.17,1558.68 L 3599.08,1544.22 L 3606.15,1528.2 L 3608.9,1516.51 L 3611.5,1511.84 L 3653.15,1470.19 L 3653.15,1399.89 L 3611.5,1358.24 L 3608.9,1353.57 L 3606.15,1341.88 L 3599.07,1325.85 L 3589.17,1311.4 L 3576.79,1299.01 L 3566.09,1291.69 L 3562.62,1287.42 L 3561.85,1283.63 L 3561.85,1105.19 L 3558.63,1093.16 L 3552.4,1082.38 L 3450.93,980.911 L 3448.29,976.083 L 3448.07,974.007 L 3447.84,928.537 L 3444.23,916.109 L 3437.64,904.971 L 3428.49,895.819 L 3417.35,889.231 L 3404.92,885.621 L 3313.97,885.621 L 3301.54,889.231 L 3290.4,895.821 L 3281.05,905.235 L 3276.59,908.457 L 3273.33,909.015 L 3226.45,909.015 L 3214.42,912.237 L 3203.64,918.463 L 3174.69,947.415 L 3169.86,950.051 L 3154.68,950.275 L 3149.4,948.725 L 3145.8,944.567 L 3143.75,927.653 L 3139.21,918.751 L 3132.15,911.689 L 3123.25,907.153 L 3115.87,905.983 L 3059.72,905.983 L 3052.34,907.153 L 3042.75,912.037 L 3038.35,913.467 L 3032.99,912.221 L 3023.25,907.153 L 3015.87,905.983 L 2959.72,905.983 L 2952.34,907.153 L 2949.27,908.713 L 2943.87,909.729 L 2938.77,907.661 L 2935.6,903.163 L 2935.08,893.381 L 2931.85,881.355 L 2925.63,870.573 L 2885.33,830.273 L 2874.55,824.049 L 2862.52,820.825 L 2637.47,820.825 L 2625.45,824.049 L 2614.67,830.273 L 2599.41,845.525 L 2595.26,847.989 L 2582.49,848.385 L 2577.21,846.835 L 2575.58,845.525 L 2502.9,772.841 L 2500.26,768.011 L 2500.04,765.937 L 2499.81,703.733 L 2496.2,691.307 L 2489.61,680.167 L 2480.46,671.017 L 2469.32,664.429 L 2456.89,660.819 L 2453.99,660.589 L 2391.53,660.819 L 2379.1,664.429 L 2367.96,671.017 L 2358.81,680.167 L 2352.22,691.307 L 2348.61,703.735 L 2348.38,706.637 L 2348.38,815.409 L 2348.61,818.311 L 2352.22,830.739 L 2358.81,841.879 L 2367.96,851.029 L 2379.1,857.617 L 2391.53,861.227 L 2453.73,861.455 L 2459.01,863.005 L 2514.64,918.459 L 2516.56,923.613 L 2515.39,928.989 L 2495.63,949.313 L 2489.4,960.095 L 2486.18,972.121 L 2486.18,1004.08 L 2484.63,1009.36 L 2480.47,1012.96 L 2475.03,1013.74 L 2471.45,1012.48 L 2463.41,1007.73 L 2450.99,1004.12 L 2388.79,1003.9 L 2383.51,1002.35 L 2330.8,949.959 L 2320.02,943.733 L 2307.99,940.511 L 2250.94,940.511 L 2245.66,938.961 L 2242.06,934.803 L 2241.18,930.747 L 2241.18,861.901 L 2242.73,856.623 L 2245.97,853.497 L 2250.15,851.029 L 2259.3,841.879 L 2265.88,830.739 L 2269.49,818.311 L 2269.72,706.637 L 2269.49,703.735 L 2265.88,691.307 L 2259.3,680.167 L 2250.14,671.017 L 2239.01,664.429 L 2226.58,660.819 L 2223.67,660.589 L 2161.21,660.819 L 2148.79,664.429 L 2137.65,671.017 L 2128.5,680.167 L 2121.91,691.307 L 2118.3,703.735 L 2118.07,706.637 L 2118.3,818.311 L 2121.91,830.739 L 2128.5,841.879 L 2137.65,851.029 L 2141.82,853.497 L 2145.57,857.517 L 2146.61,861.901 L 2146.61,964.165 L 2145.06,969.443 L 1974.02,1140.8 L 1969.19,1143.44 L 1133.54,1143.66 L 1121.51,1146.88 L 1110.73,1153.11 L 1101.93,1161.91 L 1095.7,1172.69 L 1092.48,1184.72 L 1092.48,1272.83 L 1090.93,1278.11 L 1086.77,1281.71 L 1069.95,1289.11 L 1055.49,1299.01 L 1043.11,1311.4 L 1033.2,1325.85 L 1025.64,1343.94 L 1022.93,1348.72 L 1018.05,1351.27 L 1012.57,1350.79 L 1008.23,1347.42 L 999.077,1325.85 L 989.175,1311.4 L 976.789,1299.01 L 962.335,1289.11 L 946.309,1282.03 L 929.255,1278.02 L 921.975,1277.52 L 903.025,1278.02 L 885.971,1282.03 L 869.947,1289.11 L 855.493,1299.01 L 843.107,1311.4 L 833.205,1325.85 L 826.129,1341.88 L 823.379,1353.57 L 820.779,1358.24 L 779.134,1399.88 L 779.134,1470.19 L 820.779,1511.84 L 823.379,1516.51 L 826.129,1528.2 L 833.205,1544.22 L 843.107,1558.68 L 855.493,1571.06 L 869.947,1580.96 L 885.973,1588.04 L 903.025,1592.05 L 910.307,1592.56 L 929.257,1592.05 L 946.309,1588.04 L 962.335,1580.96 L 976.789,1571.06 L 989.175,1558.68 L 999.077,1544.22 L 1006.64,1526.14 L 1009.35,1521.36 L 1014.23,1518.8 L 1019.71,1519.29 L 1024.05,1522.66 L 1033.2,1544.22 L 1043.11,1558.68 L 1055.49,1571.06 L 1069.95,1580.96 L 1085.97,1588.04 L 1103.02,1592.05 L 1110.31,1592.56 L 1129.26,1592.05 L 1146.31,1588.04 L 1162.33,1580.96 L 1176.79,1571.06 L 1189.17,1558.68 L 1199.08,1544.22 L 1206.64,1526.14 L 1209.35,1521.36 L 1214.23,1518.8 L 1219.71,1519.29 L 1224.05,1522.66 L 1233.2,1544.22 L 1243.11,1558.68 L 1255.49,1571.06 L 1269.95,1580.96 L 1285.97,1588.04 L 1303.02,1592.05 L 1310.31,1592.56 L 1329.26,1592.05 L 1346.31,1588.04 L 1362.33,1580.96 L 1376.79,1571.06 L 1389.17,1558.68 L 1399.08,1544.22 L 1406.64,1526.14 L 1409.35,1521.36 L 1414.23,1518.8 L 1419.71,1519.29 L 1424.05,1522.66 L 1433.2,1544.22 L 1443.11,1558.68 L 1455.49,1571.06 L 1469.95,1580.96 L 1485.97,1588.04 L 1503.02,1592.05 L 1510.31,1592.56 L 1529.26,1592.05 L 1546.31,1588.04 L 1562.33,1580.96 L 1576.79,1571.06 L 1589.17,1558.68 L 1599.08,1544.22 L 1606.15,1528.2 L 1608.9,1516.51 L 1611.5,1511.84 L 1653.15,1470.19 L 1653.15,1399.89 L 1611.5,1358.24 L 1608.9,1353.57 L 1606.15,1341.88 L 1599.07,1325.85 L 1589.17,1311.4 L 1576.79,1299.01 L 1562.33,1289.11 L 1546.31,1282.03 L 1529.25,1278.02 L 1521.97,1277.52 L 1503.02,1278.02 L 1485.97,1282.03 L 1469.95,1289.11 L 1455.49,1299.01 L 1443.11,1311.4 L 1433.2,1325.85 L 1425.64,1343.94 L 1422.93,1348.72 L 1418.05,1351.27 L 1412.57,1350.79 L 1408.23,1347.42 L 1399.08,1325.85 L 1389.17,1311.4 L 1376.79,1299.01 L 1362.33,1289.11 L 1346.31,1282.03 L 1329.25,1278.02 L 1321.97,1277.52 L 1303.02,1278.02 L 1285.97,1282.03 L 1269.95,1289.11 L 1255.49,1299.01 L 1243.11,1311.4 L 1233.2,1325.85 L 1225.64,1343.94 L 1222.93,1348.72 L 1218.05,1351.27 L 1212.57,1350.79 L 1208.23,1347.42 L 1199.08,1325.85 L 1188.92,1311.03 L 1187.12,1306.49 L 1187.05,1247.99 L 1188.6,1242.71 L 1192.75,1239.11 L 1196.81,1238.23 L 1996.97,1238.23 L 2009,1235 L 2019.78,1228.78 L 2210.62,1037.94 L 2215.45,1035.3 L 2217.53,1035.08 L 2278.14,1035.08 L 2283.42,1036.63 L 2285.04,1037.94 L 2339.62,1092.51 L 2342.26,1097.34 L 2342.71,1161.62 L 2346.32,1174.04 L 2352.91,1185.18 L 2362.06,1194.33 L 2373.2,1200.92 L 2385.62,1204.53 L 2450.99,1204.53 L 2463.42,1200.92 L 2472.36,1195.7 L 2477.81,1194.91 L 2482,1196.57 L 2485.78,1201.83 L 2486.18,1228.66 L 2489.4,1240.69 L 2495.63,1251.47 L 2506.14,1261.98 L 2508.77,1266.81 L 2508.38,1272.3 L 2505.08,1276.7 L 2501.47,1278.39 L 2485.97,1282.03 L 2469.95,1289.11 L 2455.49,1299.01 L 2443.11,1311.4 L 2433.2,1325.85 L 2425.64,1343.94 L 2422.93,1348.72 L 2418.05,1351.27 L 2412.57,1350.79 L 2408.23,1347.42 L 2399.08,1325.85 L 2389.17,1311.4 L 2376.79,1299.01 L 2362.33,1289.11 L 2346.31,1282.03 L 2329.25,1278.02 L 2321.97,1277.52 L 2303.02,1278.02 L 2285.97,1282.03 L 2269.95,1289.11 L 2255.49,1299.01 L 2243.11,1311.4 L 2233.2,1325.85 L 2225.64,1343.94 L 2222.93,1348.72 L 2218.05,1351.27 L 2212.57,1350.79 L 2208.23,1347.42 L 2199.08,1325.85 L 2189.17,1311.4 L 2176.79,1299.01 L 2162.33,1289.11 L 2146.31,1282.03 L 2129.25,1278.02 L 2121.97,1277.52 L 2103.02,1278.02 L 2085.97,1282.03 L 2069.95,1289.11 L 2055.49,1299.01 L 2043.11,1311.4 L 2033.2,1325.85 L 2025.64,1343.94 L 2022.93,1348.72 L 2018.05,1351.27 L 2012.57,1350.79 L 2008.23,1347.42 L 1999.08,1325.85 L 1989.17,1311.4 L 1976.79,1299.01 L 1962.33,1289.11 L 1946.31,1282.03 L 1929.25,1278.02 L 1921.97,1277.52 L 1903.02,1278.02 L 1885.97,1282.03 L 1869.95,1289.11 L 1855.49,1299.01 L 1843.11,1311.4 L 1833.2,1325.85 L 1826.13,1341.88 L 1823.38,1353.57 L 1820.78,1358.24 L 1779.13,1399.88 L 1779.13,1470.19 L 1820.78,1511.84 L 1823.38,1516.51 L 1826.13,1528.2 L 1833.2,1544.22 L 1843.11,1558.68 L 1855.49,1571.06 L 1869.95,1580.96 L 1885.97,1588.04 L 1903.02,1592.05 L 1910.31,1592.56 L 1929.26,1592.05 L 1946.31,1588.04 L 1962.33,1580.96 L 1976.79,1571.06 L 1989.17,1558.68 L 1999.08,1544.22 L 2006.64,1526.14 L 2009.35,1521.36 L 2014.23,1518.8 L 2019.71,1519.29 L 2024.05,1522.66 L 2033.2,1544.22 L 2043.11,1558.68 L 2055.49,1571.06 L 2069.95,1580.96 L 2085.97,1588.04 L 2103.02,1592.05 L 2110.31,1592.56 L 2129.26,1592.05 L 2146.31,1588.04 L 2162.33,1580.96 L 2176.79,1571.06 L 2189.17,1558.68 L 2199.08,1544.22 L 2206.64,1526.14 L 2209.35,1521.36 L 2214.23,1518.8 L 2219.71,1519.29 L 2224.05,1522.66 L 2233.2,1544.22 L 2243.11,1558.68 L 2255.49,1571.06 L 2269.95,1580.96 L 2285.97,1588.04 L 2303.02,1592.05 L 2310.31,1592.56 L 2329.26,1592.05 L 2346.31,1588.04 L 2362.33,1580.96 L 2376.79,1571.06 L 2389.17,1558.68 L 2399.08,1544.22 L 2406.64,1526.14 L 2409.35,1521.36 L 2414.23,1518.8 L 2419.71,1519.29 L 2424.05,1522.66 L 2433.2,1544.22 L 2443.11,1558.68 L 2455.49,1571.06 L 2469.95,1580.96 L 2485.97,1588.04 L 2503.02,1592.05 L 2510.31,1592.56 L 2529.26,1592.05 L 2546.31,1588.04 L 2562.33,1580.96 L 2576.79,1571.06 L 2589.17,1558.68 L 2599.08,1544.22 L 2606.15,1528.2 L 2608.9,1516.51 L 2611.5,1511.84 L 2653.15,1470.19 L 2653.15,1399.89 L 2611.5,1358.24 L 2608.9,1353.57 L 2606.15,1341.88 L 2599.08,1325.85 L 2589.17,1311.4 L 2576.79,1299.01 L 2571.54,1295.42 L 2568.06,1291.15 L 2567.44,1285.69 L 2569.87,1280.75 L 2574.58,1277.92 L 2577.06,1277.6 L 2641.78,1277.6 L 2647.06,1279.15 L 2650.67,1283.3 L 2651.45,1288.75 L 2649.16,1293.75 L 2639.09,1303.77 L 2634.15,1309.8 L 2627.98,1319.04 L 2657.87,1348.93 L 2660.59,1342.35 L 2667.45,1332.09 L 2676.18,1323.36 L 2686.45,1316.49 L 2697.86,1311.77 L 2709.97,1309.36 L 2722.32,1309.36 L 2734.43,1311.77 L 2745.84,1316.49 L 2756.1,1323.36 L 2764.83,1332.09 L 2771.7,1342.35 L 2776.42,1353.76 L 2778.83,1365.87 L 2779.13,1470.19 L 2820.78,1511.84 L 2823.38,1516.51 L 2826.13,1528.2 L 2833.2,1544.22 L 2843.11,1558.68 L 2855.49,1571.06 L 2869.95,1580.96 L 2885.97,1588.04 L 2903.02,1592.05 L 2910.31,1592.56 L 2929.26,1592.05 L 2946.31,1588.04 L 2962.33,1580.96 L 2976.79,1571.06 L 2989.17,1558.68 L 2999.08,1544.22 L 3006.64,1526.14 L 3009.35,1521.36 L 3014.23,1518.8 L 3019.71,1519.29 L 3024.05,1522.66 L 3033.2,1544.22 L 3043.11,1558.68 L 3055.49,1571.06 L 3069.95,1580.96 L 3085.97,1588.04 L 3103.02,1592.05 L 3110.31,1592.56 L 3129.26,1592.05 L 3146.31,1588.04 L 3162.33,1580.96 L 3176.79,1571.06 L 3189.17,1558.68 L 3199.08,1544.22 L 3206.64,1526.14 L 3209.35,1521.36 L 3214.23,1518.8 L 3219.71,1519.29 L 3224.05,1522.66 L 3233.2,1544.22 L 3243.11,1558.68 L 3255.49,1571.06 L 3269.95,1580.96 L 3285.97,1588.04 L 3303.02,1592.05 L 3310.31,1592.56 L 3329.26,1592.05 L 3346.31,1588.04 L 3362.33,1580.96 L 3376.79,1571.06 L 3389.17,1558.68 L 3399.08,1544.22 L 3406.64,1526.14 L 3409.35,1521.36 L 3414.23,1518.8 L 3419.71,1519.29 L 3424.05,1522.66 L 3433.2,1544.22 L 3443.11,1558.68 L 3455.49,1571.06 L 3469.95,1580.96 L 3480.4,1585.58 L 3484.6,1589.13 L 3486.22,1594.39 L 3486.22,2801.55 L 3484.67,2806.83 L 3480.51,2810.43 L 3469.95,2815.09 L 3455.49,2825 L 3443.11,2837.38 L 3433.2,2851.84 L 3425.64,2869.92 L 3422.93,2874.7 L 3418.05,2877.26 L 3412.57,2876.77 L 3408.23,2873.4 L 3399.08,2851.84 L 3389.17,2837.38 L 3376.79,2824.99 L 3362.33,2815.09 L 3346.31,2808.02 L 3329.25,2804.01 L 3321.97,2803.5 L 3303.02,2804.01 L 3285.97,2808.02 L 3269.95,2815.09 L 3255.49,2825 L 3243.11,2837.38 L 3233.2,2851.84 L 3225.64,2869.92 L 3222.93,2874.7 L 3218.05,2877.26 L 3212.57,2876.77 L 3208.23,2873.4 L 3199.08,2851.84 L 3189.17,2837.38 L 3176.79,2824.99 L 3162.33,2815.09 L 3146.31,2808.02 L 3129.25,2804.01 L 3121.97,2803.5 L 3103.02,2804.01 L 3085.97,2808.02 L 3069.95,2815.09 L 3055.49,2825 L 3043.11,2837.38 L 3033.2,2851.84 L 3025.64,2869.92 L 3022.93,2874.7 L 3018.05,2877.26 L 3012.57,2876.77 L 3008.23,2873.4 L 2999.08,2851.84 L 2989.17,2837.38 L 2976.79,2824.99 L 2962.33,2815.09 L 2946.31,2808.02 L 2929.25,2804.01 L 2921.97,2803.5 L 2903.02,2804.01 L 2885.97,2808.02 L 2869.95,2815.09 L 2855.49,2825 L 2843.11,2837.38 L 2833.2,2851.84 L 2826.13,2867.86 L 2823.38,2879.55 L 2820.78,2884.22 L 2779.13,2925.87 L 2779.13,2996.18 L 2820.78,3037.82 L 2823.38,3042.49 L 2826.13,3054.18 L 2831.77,3066.96 L 2832.48,3072.41 L 2830.22,3077.3 L 2825.59,3080.27 L 2822.84,3080.67 L 2811.99,3080.67 L 2806.71,3079.12 L 2774.42,3047.14 L 2771.7,3053.71 L 2764.83,3063.98 L 2756.1,3072.71 L 2745.84,3079.57 L 2734.43,3084.29 L 2722.32,3086.7 L 2709.97,3086.7 L 2697.86,3084.29 L 2686.45,3079.57 L 2676.18,3072.71 L 2667.45,3063.98 L 2660.59,3053.71 L 2657.87,3047.14 L 2627.19,3077.81 L 2623.04,3080.27 L 2609.44,3080.67 L 2604.16,3079.12 L 2600.56,3074.96 L 2599.78,3069.51 L 2600.51,3066.96 L 2606.15,3054.18 L 2608.9,3042.49 L 2611.5,3037.82 L 2653.15,2996.18 L 2653.15,2925.87 L 2611.5,2884.22 L 2608.9,2879.55 L 2606.15,2867.86 L 2599.08,2851.84 L 2589.17,2837.38 L 2576.79,2824.99 L 2562.33,2815.09 L 2546.31,2808.02 L 2529.25,2804.01 L 2521.97,2803.5 L 2503.02,2804.01 L 2485.97,2808.02 L 2469.95,2815.09 L 2455.49,2825 L 2443.11,2837.38 L 2433.2,2851.84 L 2425.64,2869.92 L 2422.93,2874.7 L 2418.05,2877.26 L 2412.57,2876.77 L 2408.23,2873.4 L 2399.08,2851.84 L 2389.17,2837.38 L 2376.79,2824.99 L 2362.33,2815.09 L 2346.31,2808.02 L 2329.25,2804.01 L 2321.97,2803.5 L 2303.02,2804.01 L 2285.97,2808.02 L 2269.95,2815.09 L 2255.49,2825 L 2243.11,2837.38 L 2233.2,2851.84 L 2225.64,2869.92 L 2222.93,2874.7 L 2218.05,2877.26 L 2212.57,2876.77 L 2208.23,2873.4 L 2199.08,2851.84 L 2189.17,2837.38 L 2176.79,2824.99 L 2162.33,2815.09 L 2146.31,2808.02 L 2129.25,2804.01 L 2121.97,2803.5 L 2103.02,2804.01 L 2085.97,2808.02 L 2069.95,2815.09 L 2055.49,2825 L 2043.11,2837.38 L 2033.2,2851.84 L 2025.64,2869.92 L 2022.93,2874.7 L 2018.05,2877.26 L 2012.57,2876.77 L 2008.23,2873.4 L 1999.08,2851.84 L 1989.17,2837.38 L 1976.79,2824.99 L 1962.33,2815.09 L 1946.31,2808.02 L 1929.25,2804.01 L 1921.97,2803.5 L 1903.02,2804.01 L 1885.97,2808.02 L 1869.95,2815.09 L 1855.49,2825 L 1843.11,2837.38 L 1833.2,2851.84 L 1826.13,2867.86 L 1823.38,2879.55 L 1820.78,2884.22 L 1779.13,2925.87 L 1779.13,2996.18 L 1820.78,3037.82 L 1823.38,3042.49 L 1826.13,3054.18 L 1831.77,3066.96 L 1832.48,3072.41 L 1830.22,3077.3 L 1825.59,3080.27 L 1822.84,3080.67 L 1811.99,3080.67 L 1806.71,3079.12 L 1774.42,3047.14 L 1771.7,3053.71 L 1764.83,3063.98 L 1756.1,3072.71 L 1745.84,3079.57 L 1734.43,3084.29 L 1722.32,3086.7 L 1709.97,3086.7 L 1697.86,3084.29 L 1686.45,3079.57 L 1676.18,3072.71 L 1667.45,3063.98 L 1660.59,3053.71 L 1657.87,3047.14 L 1627.19,3077.81 L 1623.04,3080.27 L 1609.44,3080.67 L 1604.16,3079.12 L 1600.56,3074.96 L 1599.78,3069.51 L 1600.51,3066.96 L 1606.15,3054.18 L 1608.9,3042.49 L 1611.5,3037.82 L 1653.15,2996.18 L 1653.15,2925.87 L 1611.5,2884.22 L 1608.9,2879.55 L 1606.15,2867.86 L 1599.08,2851.84 L 1589.17,2837.38 L 1576.79,2824.99 L 1562.33,2815.09 L 1546.31,2808.02 L 1529.25,2804.01 L 1521.97,2803.5 L 1503.02,2804.01 L 1485.97,2808.02 L 1469.95,2815.09 L 1455.49,2825 L 1443.11,2837.38 L 1433.2,2851.84 L 1425.64,2869.92 L 1422.93,2874.7 L 1418.05,2877.26 L 1412.57,2876.77 L 1408.23,2873.4 L 1399.08,2851.84 L 1389.17,2837.38 L 1376.79,2824.99 L 1362.33,2815.09 L 1346.31,2808.02 L 1329.25,2804.01 L 1321.97,2803.5 L 1303.02,2804.01 L 1285.97,2808.02 L 1269.95,2815.09 L 1255.49,2825 L 1243.11,2837.38 L 1233.2,2851.84 L 1225.64,2869.92 L 1222.93,2874.7 L 1218.05,2877.26 L 1212.57,2876.77 L 1208.23,2873.4 L 1199.08,2851.84 L 1189.17,2837.38 L 1176.79,2824.99 L 1162.33,2815.09 L 1146.31,2808.02 L 1129.25,2804.01 L 1121.97,2803.5 L 1103.02,2804.01 L 1085.97,2808.02 L 1069.95,2815.09 L 1055.49,2825 L 1043.11,2837.38 L 1033.2,2851.84 L 1025.64,2869.92 L 1022.93,2874.7 L 1018.05,2877.26 L 1012.57,2876.77 L 1008.23,2873.4 L 999.077,2851.84 L 989.175,2837.38 L 976.789,2824.99 L 962.335,2815.09 L 946.309,2808.02 L 929.255,2804.01 L 921.975,2803.5 L 903.025,2804.01 L 885.971,2808.02 L 869.947,2815.09 L 855.493,2825 L 843.107,2837.38 L 833.205,2851.84 L 826.129,2867.86 L 823.379,2879.55 L 820.779,2884.22 L 779.134,2925.87 L 779.134,2996.18 L 820.779,3037.82 L 823.379,3042.49 L 826.129,3054.18 L 831.771,3066.96 L 832.485,3072.41 L 830.219,3077.3 L 825.591,3080.27 L 822.839,3080.67 L 811.993,3080.67 L 806.713,3079.12 L 774.417,3047.14 L 771.696,3053.71 L 764.834,3063.98 L 756.102,3072.71 L 745.836,3079.57 L 734.426,3084.29 L 722.316,3086.7 L 709.968,3086.7 L 697.858,3084.29 L 686.448,3079.57 L 676.182,3072.71 L 667.45,3063.98 L 660.588,3053.71 L 657.866,3047.14 L 627.193,3077.81 L 623.041,3080.27 L 609.443,3080.67 L 604.163,3079.12 L 600.561,3074.96 L 599.777,3069.51 L 600.511,3066.96 L 606.151,3054.18 L 608.903,3042.49 L 611.503,3037.82 L 653.15,2996.18 L 653.15,2925.87 L 611.503,2884.22 L 608.903,2879.55 L 606.153,2867.86 L 599.077,2851.84 L 589.175,2837.38 L 576.789,2824.99 L 562.335,2815.09 L 546.309,2808.02 L 529.255,2804.01 L 521.975,2803.5 L 503.025,2804.01 L 485.971,2808.02 L 469.947,2815.09 L 455.493,2825 L 443.107,2837.38 L 433.205,2851.84 L 425.797,2869.27 L 423.081,2874.06 L 418.207,2876.61 L 412.727,2876.13 L 408.379,2872.76 L 401.463,2855.97 L 398.511,2850.45 L 391.619,2840.14 L 387.647,2835.3 L 378.873,2826.52 L 374.033,2822.55 L 363.717,2815.66 L 358.197,2812.71 L 346.735,2807.96 L 340.743,2806.14 L 328.573,2803.72 L 322.345,2803.11 L 309.937,2803.11 L 303.709,2803.72 L 291.539,2806.14 L 285.547,2807.96 L 274.085,2812.71 L 268.563,2815.66 L 258.247,2822.55 L 253.409,2826.52 L 244.635,2835.3 L 240.663,2840.14 L 233.769,2850.45 L 230.819,2855.97 L 226.071,2867.44 L 224.253,2873.43 L 221.833,2885.6 L 221.219,2891.83 L 221.219,3070.9 L 219.669,3076.18 L 215.511,3079.79 L 211.455,3080.67 L 173.099,3080.67 L 167.819,3079.12 L 164.217,3074.96 L 163.333,3070.21 L 159.649,1058.99M 212.165,2316.66 L 212.669,2322.22 L 216.655,2335.01 L 223.585,2346.47 L 237.719,2360.57 L 238.651,2365.99 L 237.071,2370.29 L 232.493,2377.15 L 226.851,2390.77 L 223.975,2405.22 L 223.975,2419.97 L 226.851,2434.43 L 232.493,2448.05 L 240.683,2460.31 L 251.109,2470.73 L 263.367,2478.92 L 276.987,2484.56 L 291.447,2487.44 L 361.307,2487.44 L 375.767,2484.56 L 389.387,2478.92 L 401.645,2470.73 L 412.071,2460.31 L 420.261,2448.05 L 425.903,2434.43 L 428.779,2419.97 L 428.779,2405.23 L 425.903,2390.77 L 420.261,2377.14 L 412.069,2364.89 L 401.645,2354.46 L 391.917,2347.96 L 388.389,2343.74 L 387.703,2338.28 L 392.841,2322.22 L 393.345,2316.66 L 393.345,2236.88 L 392.841,2231.32 L 388.855,2218.53 L 377.153,2200.11 L 377.545,2194.62 L 381.927,2188.99 L 388.855,2177.53 L 392.841,2164.74 L 393.345,2159.18 L 393.345,2079.4 L 392.841,2073.84 L 387.581,2055.95 L 389.275,2050.71 L 391.917,2048.1 L 401.645,2041.6 L 412.071,2031.17 L 420.261,2018.91 L 425.903,2005.29 L 428.779,1990.83 L 428.779,1976.09 L 425.903,1961.63 L 420.261,1948.01 L 412.069,1935.75 L 401.645,1925.33 L 389.387,1917.14 L 375.767,1911.5 L 361.307,1908.62 L 291.447,1908.62 L 276.987,1911.5 L 263.367,1917.14 L 251.109,1925.33 L 240.683,1935.75 L 232.493,1948.01 L 226.851,1961.63 L 223.975,1976.09 L 223.975,1990.83 L 226.851,2005.29 L 232.493,2018.91 L 237.071,2025.76 L 238.715,2031.02 L 237.259,2036.32 L 223.585,2049.59 L 216.655,2061.05 L 212.669,2073.84 L 212.165,2079.4 L 212.165,2159.18 L 212.669,2164.74 L 216.655,2177.53 L 228.357,2195.95 L 227.965,2201.44 L 223.585,2207.07 L 216.655,2218.53 L 212.669,2231.32 L 212.165,2236.88 L 212.165,2316.66M 221.613,1503.86 L 222.119,1511.14 L 226.129,1528.2 L 233.205,1544.22 L 243.107,1558.68 L 255.493,1571.06 L 269.947,1580.96 L 285.973,1588.04 L 303.025,1592.05 L 310.307,1592.56 L 329.257,1592.05 L 346.309,1588.04 L 362.335,1580.96 L 376.789,1571.06 L 389.175,1558.68 L 399.077,1544.22 L 406.637,1526.14 L 409.353,1521.36 L 414.227,1518.8 L 419.707,1519.29 L 424.055,1522.66 L 433.205,1544.22 L 443.107,1558.68 L 455.493,1571.06 L 469.947,1580.96 L 485.973,1588.04 L 503.025,1592.05 L 510.307,1592.56 L 529.257,1592.05 L 546.309,1588.04 L 562.335,1580.96 L 576.789,1571.06 L 589.175,1558.68 L 599.077,1544.22 L 606.153,1528.2 L 608.903,1516.51 L 611.503,1511.84 L 653.15,1470.19 L 653.15,1399.89 L 611.503,1358.24 L 608.903,1353.57 L 606.153,1341.88 L 599.075,1325.85 L 589.175,1311.4 L 576.789,1299.01 L 562.335,1289.11 L 546.309,1282.03 L 529.255,1278.02 L 521.975,1277.52 L 503.025,1278.02 L 485.971,1282.03 L 469.947,1289.11 L 455.493,1299.01 L 443.107,1311.4 L 433.205,1325.85 L 425.645,1343.94 L 422.927,1348.72 L 418.055,1351.27 L 412.575,1350.79 L 408.227,1347.42 L 399.077,1325.85 L 389.175,1311.4 L 376.789,1299.01 L 362.335,1289.11 L 346.309,1282.03 L 329.255,1278.02 L 321.975,1277.52 L 303.025,1278.02 L 285.971,1282.03 L 269.947,1289.11 L 255.493,1299.01 L 243.107,1311.4 L 233.205,1325.85 L 226.129,1341.88 L 222.119,1358.93 L 221.613,1366.21 L 221.613,1503.86M 472.007,2237.92 L 472.513,2243.48 L 476.497,2256.27 L 483.427,2267.73 L 492.897,2277.2 L 504.361,2284.13 L 517.149,2288.12 L 522.707,2288.62 L 602.489,2288.62 L 608.047,2288.12 L 620.835,2284.13 L 632.297,2277.2 L 641.769,2267.73 L 648.699,2256.27 L 652.683,2243.48 L 653.189,2237.92 L 653.189,2158.14 L 652.683,2152.58 L 648.699,2139.79 L 641.769,2128.33 L 632.297,2118.86 L 620.835,2111.93 L 608.047,2107.94 L 602.489,2107.44 L 522.707,2107.44 L 517.149,2107.94 L 504.361,2111.93 L 492.897,2118.86 L 483.427,2128.33 L 476.497,2139.79 L 472.513,2152.58 L 472.007,2158.14 L 472.007,2237.92M 476.337,2396.15 L 479.139,2410.23 L 484.631,2423.49 L 492.607,2435.43 L 502.757,2445.58 L 514.693,2453.55 L 527.955,2459.05 L 542.035,2461.85 L 587.885,2461.85 L 601.965,2459.05 L 615.227,2453.55 L 627.163,2445.58 L 637.313,2435.43 L 645.287,2423.49 L 650.781,2410.23 L 653.581,2396.15 L 653.581,2381.8 L 650.781,2367.72 L 646.965,2358.5 L 645.287,2354.46 L 637.313,2342.52 L 627.161,2332.37 L 615.227,2324.39 L 601.963,2318.9 L 587.885,2316.1 L 542.035,2316.1 L 527.955,2318.9 L 514.693,2324.39 L 502.757,2332.37 L 492.607,2342.52 L 484.631,2354.46 L 479.139,2367.72 L 476.337,2381.8 L 476.337,2396.15M 476.337,2014.26 L 479.139,2028.34 L 484.631,2041.6 L 492.607,2053.54 L 502.757,2063.69 L 514.693,2071.66 L 527.955,2077.16 L 542.035,2079.96 L 587.885,2079.96 L 601.965,2077.16 L 615.227,2071.66 L 627.163,2063.69 L 637.313,2053.54 L 645.287,2041.6 L 650.781,2028.34 L 653.581,2014.26 L 653.581,1999.91 L 650.781,1985.83 L 648.317,1979.88 L 645.287,1972.57 L 637.313,1960.63 L 627.161,1950.48 L 615.227,1942.5 L 601.963,1937.01 L 587.885,1934.21 L 542.035,1934.21 L 527.955,1937.01 L 514.693,1942.5 L 502.757,1950.48 L 492.607,1960.63 L 484.631,1972.57 L 479.139,1985.83 L 476.337,1999.91 L 476.337,2014.26M 614.909,2837.06 L 618.823,2839.02 L 620.873,2839.16 L 624.365,2841.41 L 653.15,2870.19 L 653.454,2847.72 L 655.804,2842.04 L 660.15,2837.69 L 665.826,2835.34 L 766.458,2835.34 L 772.134,2837.69 L 776.48,2842.04 L 778.83,2847.72 L 779.134,2870.19 L 807.915,2841.41 L 816.939,2836.62 L 815.869,2832.44 L 811.635,2822.81 L 804.853,2813.75 L 797.255,2806.47 L 787.521,2800.7 L 777.719,2796.88 L 766.517,2795.27 L 665.765,2795.27 L 661.513,2795.5 L 650.547,2798.3 L 640.919,2802.54 L 631.859,2809.32 L 624.585,2816.91 L 618.809,2826.65 L 614.909,2837.06M 615.343,1559.44 L 616.411,1563.62 L 620.647,1573.25 L 627.429,1582.31 L 635.027,1589.59 L 644.759,1595.36 L 650.545,1597.76 L 654.561,1599.17 L 665.765,1600.79 L 766.517,1600.79 L 770.767,1600.56 L 781.733,1597.76 L 791.363,1593.52 L 800.423,1586.74 L 804.853,1582.31 L 807.697,1579.14 L 813.473,1569.41 L 817.287,1559.61 L 817.373,1559 L 813.457,1557.04 L 811.407,1556.9 L 807.915,1554.65 L 779.134,1525.87 L 778.83,1548.35 L 776.48,1554.02 L 772.134,1558.37 L 766.458,1560.72 L 665.826,1560.72 L 660.15,1558.37 L 655.804,1554.02 L 653.454,1548.35 L 653.15,1525.87 L 624.365,1554.65 L 615.343,1559.44M 627.977,1319.04 L 657.867,1348.93 L 660.588,1342.35 L 667.45,1332.09 L 676.182,1323.36 L 686.448,1316.49 L 697.858,1311.77 L 709.968,1309.36 L 722.316,1309.36 L 734.426,1311.77 L 745.836,1316.49 L 756.102,1323.36 L 764.834,1332.09 L 771.696,1342.35 L 774.416,1348.92 L 804.305,1319.04 L 798.133,1309.8 L 793.187,1303.77 L 784.413,1295 L 778.387,1290.05 L 768.071,1283.16 L 761.195,1279.49 L 749.733,1274.74 L 742.271,1272.47 L 730.101,1270.05 L 722.345,1269.29 L 709.937,1269.29 L 702.181,1270.05 L 690.009,1272.47 L 682.549,1274.74 L 671.085,1279.49 L 664.211,1283.16 L 653.893,1290.05 L 647.869,1295 L 639.095,1303.77 L 634.149,1309.8 L 627.977,1319.04M 865.707,2434.77 L 866.213,2440.33 L 870.197,2453.12 L 877.127,2464.58 L 886.599,2474.05 L 898.061,2480.98 L 910.849,2484.97 L 916.407,2485.47 L 996.189,2485.47 L 1001.75,2484.97 L 1014.53,2480.98 L 1026,2474.05 L 1035.47,2464.58 L 1042.4,2453.12 L 1045.4,2443.48 L 1048.45,2438.9 L 1053.49,2436.7 L 1058.92,2437.57 L 1063.02,2441.24 L 1067.05,2453.12 L 1073.98,2464.58 L 1083.45,2474.05 L 1094.91,2480.98 L 1107.7,2484.97 L 1113.26,2485.47 L 1193.04,2485.47 L 1198.6,2484.97 L 1211.38,2480.98 L 1222.85,2474.05 L 1232.32,2464.58 L 1239.25,2453.12 L 1242.25,2443.48 L 1245.3,2438.9 L 1250.34,2436.7 L 1255.77,2437.57 L 1259.87,2441.24 L 1263.9,2453.12 L 1270.83,2464.58 L 1280.3,2474.05 L 1291.76,2480.98 L 1304.55,2484.97 L 1310.11,2485.47 L 1389.89,2485.47 L 1395.45,2484.97 L 1408.23,2480.98 L 1419.7,2474.05 L 1429.17,2464.58 L 1436.1,2453.12 L 1440.08,2440.33 L 1440.59,2434.77 L 1440.59,2354.99 L 1440.08,2349.43 L 1436.1,2336.64 L 1429.17,2325.18 L 1419.7,2315.71 L 1408.23,2308.78 L 1395.45,2304.79 L 1389.89,2304.29 L 1310.11,2304.29 L 1304.55,2304.79 L 1291.76,2308.78 L 1280.3,2315.71 L 1270.83,2325.18 L 1263.9,2336.64 L 1260.89,2346.28 L 1257.84,2350.86 L 1252.8,2353.06 L 1247.37,2352.19 L 1243.27,2348.52 L 1239.25,2336.64 L 1232.32,2325.18 L 1222.85,2315.71 L 1211.38,2308.78 L 1198.6,2304.79 L 1193.04,2304.29 L 1113.26,2304.29 L 1107.7,2304.79 L 1094.91,2308.78 L 1083.45,2315.71 L 1073.98,2325.18 L 1067.05,2336.64 L 1064.04,2346.28 L 1060.99,2350.86 L 1055.95,2353.06 L 1050.52,2352.19 L 1046.42,2348.52 L 1042.4,2336.64 L 1035.47,2325.18 L 1026,2315.71 L 1014.53,2308.78 L 1001.75,2304.79 L 996.189,2304.29 L 916.407,2304.29 L 910.851,2304.79 L 898.061,2308.78 L 886.599,2315.71 L 877.127,2325.18 L 870.197,2336.64 L 866.213,2349.43 L 865.707,2354.99 L 865.707,2434.77M 1614.91,2837.06 L 1618.82,2839.02 L 1620.87,2839.16 L 1624.36,2841.41 L 1653.15,2870.19 L 1653.45,2847.72 L 1655.8,2842.04 L 1660.15,2837.69 L 1665.83,2835.34 L 1766.46,2835.34 L 1772.13,2837.69 L 1776.48,2842.04 L 1778.83,2847.72 L 1779.13,2870.19 L 1807.91,2841.41 L 1816.94,2836.62 L 1815.87,2832.44 L 1811.63,2822.81 L 1804.85,2813.75 L 1797.25,2806.47 L 1787.52,2800.7 L 1777.72,2796.88 L 1766.52,2795.27 L 1665.76,2795.27 L 1661.51,2795.5 L 1650.55,2798.3 L 1640.92,2802.54 L 1631.86,2809.32 L 1624.58,2816.91 L 1618.81,2826.65 L 1614.91,2837.06M 1615.34,1559.44 L 1616.41,1563.62 L 1620.65,1573.25 L 1627.43,1582.31 L 1635.03,1589.59 L 1644.76,1595.36 L 1650.54,1597.76 L 1654.56,1599.17 L 1665.76,1600.79 L 1766.52,1600.79 L 1770.77,1600.56 L 1781.73,1597.76 L 1791.36,1593.52 L 1800.42,1586.74 L 1804.85,1582.31 L 1807.7,1579.14 L 1813.47,1569.41 L 1817.29,1559.61 L 1817.37,1559 L 1813.46,1557.04 L 1811.41,1556.9 L 1807.91,1554.65 L 1779.13,1525.87 L 1778.83,1548.35 L 1776.48,1554.02 L 1772.13,1558.37 L 1766.46,1560.72 L 1665.83,1560.72 L 1660.15,1558.37 L 1655.8,1554.02 L 1653.45,1548.35 L 1653.15,1525.87 L 1624.36,1554.65 L 1615.34,1559.44M 1627.98,1319.04 L 1657.87,1348.93 L 1660.59,1342.35 L 1667.45,1332.09 L 1676.18,1323.36 L 1686.45,1316.49 L 1697.86,1311.77 L 1709.97,1309.36 L 1722.32,1309.36 L 1734.43,1311.77 L 1745.84,1316.49 L 1756.1,1323.36 L 1764.83,1332.09 L 1771.7,1342.35 L 1774.42,1348.92 L 1804.3,1319.04 L 1798.13,1309.8 L 1793.19,1303.77 L 1784.41,1295 L 1778.39,1290.05 L 1768.07,1283.16 L 1761.19,1279.49 L 1749.73,1274.74 L 1742.27,1272.47 L 1730.1,1270.05 L 1722.34,1269.29 L 1709.94,1269.29 L 1702.18,1270.05 L 1690.01,1272.47 L 1682.55,1274.74 L 1671.08,1279.49 L 1664.21,1283.16 L 1653.89,1290.05 L 1647.87,1295 L 1639.09,1303.77 L 1634.15,1309.8 L 1627.98,1319.04M 2563.59,1960.02 L 2566.08,1975.77 L 2571.02,1990.95 L 2578.26,2005.17 L 2580.67,2008.49 L 2609.47,1979.69 L 2606.7,1973.24 L 2604.63,1966.34 L 2603.38,1959.24 L 2602.96,1952.04 L 2603.38,1944.84 L 2604.63,1937.74 L 2606.7,1930.83 L 2609.47,1924.39 L 2580.67,1895.59 L 2578.26,1898.91 L 2571.02,1913.12 L 2566.08,1928.3 L 2563.59,1944.06 L 2563.59,1960.02M 2571.42,2201.39 L 2572.64,2210.63 L 2577.4,2222.14 L 2584.98,2232.01 L 2594.86,2239.59 L 2606.36,2244.36 L 2615.61,2245.57 L 2714.31,2245.57 L 2723.55,2244.36 L 2735.06,2239.59 L 2744.93,2232.01 L 2752.51,2222.14 L 2757.28,2210.63 L 2758.49,2201.39 L 2758.49,2102.69 L 2757.28,2093.44 L 2752.51,2081.94 L 2744.93,2072.06 L 2735.06,2064.48 L 2723.55,2059.72 L 2717.66,2058.94 L 2712.63,2056.72 L 2709.6,2052.13 L 2709.54,2046.62 L 2712.46,2041.96 L 2721.41,2036.33 L 2692.61,2007.53 L 2685.79,2010.44 L 2678.87,2012.46 L 2671.76,2013.67 L 2664.56,2014.04 L 2657.36,2013.57 L 2650.27,2012.27 L 2637.31,2007.53 L 2608.51,2036.33 L 2615.41,2040.56 L 2619.41,2044.34 L 2620.74,2049.68 L 2618.96,2054.89 L 2614.65,2058.31 L 2606.36,2059.72 L 2594.86,2064.48 L 2584.98,2072.06 L 2577.4,2081.94 L 2572.64,2093.44 L 2571.42,2102.69 L 2571.42,2201.39M 2571.42,1759.4 L 2573.73,1773.94 L 2578.28,1787.94 L 2584.96,1801.06 L 2593.61,1812.97 L 2604.02,1823.38 L 2615.94,1832.04 L 2629.41,1838.87 L 2633.32,1841.73 L 2635.47,1846.8 L 2634.53,1852.22 L 2630.81,1856.28 L 2626.05,1858.09 L 2611.83,1865.34 L 2608.51,1867.75 L 2637.31,1896.55 L 2650.27,1891.8 L 2657.36,1890.51 L 2664.56,1890.04 L 2671.76,1890.41 L 2678.87,1891.62 L 2685.79,1893.64 L 2692.61,1896.55 L 2721.41,1867.75 L 2718.09,1865.34 L 2701.13,1857.2 L 2696.59,1854.1 L 2694.45,1849.03 L 2695.39,1843.61 L 2699.11,1839.56 L 2713.98,1832.04 L 2725.89,1823.38 L 2736.3,1812.97 L 2744.96,1801.06 L 2751.64,1787.94 L 2756.19,1773.94 L 2758.49,1759.4 L 2758.49,1744.68 L 2756.19,1730.13 L 2751.64,1716.13 L 2744.96,1703.01 L 2736.3,1691.1 L 2725.89,1680.69 L 2713.98,1672.04 L 2700.86,1665.36 L 2686.86,1660.81 L 2672.32,1658.5 L 2657.6,1658.5 L 2643.06,1660.81 L 2629.05,1665.36 L 2615.94,1672.04 L 2604.02,1680.69 L 2593.61,1691.1 L 2584.96,1703.01 L 2578.28,1716.13 L 2573.73,1730.13 L 2571.42,1744.68 L 2571.42,1759.4M 2614.91,2837.06 L 2618.82,2839.02 L 2620.87,2839.16 L 2624.36,2841.41 L 2653.15,2870.19 L 2653.45,2847.72 L 2655.8,2842.04 L 2660.15,2837.69 L 2665.83,2835.34 L 2766.46,2835.34 L 2772.13,2837.69 L 2776.48,2842.04 L 2778.83,2847.72 L 2779.13,2870.19 L 2807.91,2841.41 L 2816.94,2836.62 L 2815.87,2832.44 L 2811.63,2822.81 L 2804.85,2813.75 L 2797.25,2806.47 L 2787.52,2800.7 L 2777.72,2796.88 L 2766.52,2795.27 L 2665.76,2795.27 L 2661.51,2795.5 L 2650.55,2798.3 L 2640.92,2802.54 L 2631.86,2809.32 L 2624.58,2816.91 L 2618.81,2826.65 L 2614.91,2837.06M 2615.34,1559.44 L 2616.41,1563.62 L 2620.65,1573.25 L 2627.43,1582.31 L 2635.03,1589.59 L 2644.76,1595.36 L 2650.54,1597.76 L 2654.56,1599.17 L 2665.76,1600.79 L 2766.52,1600.79 L 2770.77,1600.56 L 2781.73,1597.76 L 2791.36,1593.52 L 2800.42,1586.74 L 2804.85,1582.31 L 2807.7,1579.14 L 2813.47,1569.41 L 2817.29,1559.61 L 2817.37,1559 L 2813.46,1557.04 L 2811.41,1556.9 L 2807.91,1554.65 L 2779.13,1525.87 L 2778.83,1548.35 L 2776.48,1554.02 L 2772.13,1558.37 L 2766.46,1560.72 L 2665.83,1560.72 L 2660.15,1558.37 L 2655.8,1554.02 L 2653.45,1548.35 L 2653.15,1525.87 L 2624.36,1554.65 L 2615.34,1559.44M 2720.45,1924.39 L 2723.22,1930.83 L 2725.29,1937.74 L 2726.54,1944.84 L 2726.96,1952.04 L 2726.54,1959.24 L 2725.29,1966.34 L 2723.22,1973.24 L 2720.45,1979.69 L 2749.25,2008.49 L 2751.66,2005.17 L 2758.9,1990.95 L 2763.83,1975.77 L 2766.33,1960.02 L 2766.33,1944.06 L 2763.83,1928.3 L 2758.9,1913.12 L 2751.66,1898.91 L 2749.25,1895.59 L 2720.45,1924.39M 2722.83,634.279 L 2723.34,638.965 L 2727.29,649.573 L 2734.08,658.637 L 2743.14,665.421 L 2753.75,669.377 L 2768.11,669.881 L 2768.11,630.512 L 2762.2,630.512 L 2762.2,590.157 L 2722.83,590.157 L 2722.83,634.279M 2722.83,550.787 L 2762.2,550.787 L 2762.2,510.433 L 2768.11,510.433 L 2768.11,471.063 L 2753.75,471.567 L 2743.14,475.523 L 2734.08,482.307 L 2727.29,491.371 L 2723.34,501.977 L 2722.83,506.665 L 2722.83,550.787M 2736.97,340.427 L 2739.39,355.733 L 2744.18,370.475 L 2751.22,384.283 L 2760.33,396.821 L 2771.29,407.781 L 2783.82,416.891 L 2797.63,423.927 L 2812.37,428.717 L 2827.68,431.141 L 2830.75,431.141 L 2836.02,432.691 L 2839.63,436.849 L 2840.51,440.905 L 2840.51,464.467 L 2838.96,469.747 L 2834.8,473.349 L 2829.36,474.133 L 2821.84,471.567 L 2807.48,471.063 L 2807.48,510.433 L 2813.39,510.433 L 2813.39,630.512 L 2807.48,630.512 L 2807.48,669.881 L 2821.84,669.377 L 2832.45,665.421 L 2839.25,660.331 L 2844.4,658.407 L 2849.53,659.447 L 2852.34,660.877 L 2859.72,662.047 L 2915.87,662.047 L 2923.25,660.877 L 2932.84,655.993 L 2937.24,654.563 L 2942.59,655.809 L 2952.34,660.877 L 2959.72,662.047 L 3015.87,662.047 L 3023.25,660.877 L 3032.84,655.993 L 3037.24,654.563 L 3042.59,655.809 L 3052.34,660.877 L 3059.72,662.047 L 3115.87,662.047 L 3123.25,660.877 L 3132.15,656.341 L 3139.21,649.279 L 3143.75,640.377 L 3144.92,632.993 L 3144.92,507.951 L 3143.75,500.565 L 3139.21,491.665 L 3132.15,484.601 L 3123.25,480.067 L 3115.87,478.897 L 3059.72,478.897 L 3052.34,480.067 L 3049.27,481.627 L 3043.87,482.643 L 3038.77,480.573 L 3035.6,476.077 L 3035.08,472.927 L 3035.08,440.905 L 3036.63,435.627 L 3040.78,432.023 L 3044.84,431.141 L 3104.84,431.141 L 3112.23,429.971 L 3121.13,425.437 L 3128.19,418.373 L 3132.73,409.473 L 3133.9,402.087 L 3133.9,263.265 L 3132.73,255.881 L 3128.19,246.979 L 3121.13,239.917 L 3112.23,235.381 L 3104.84,234.211 L 2966.02,234.211 L 2958.64,235.381 L 2949.73,239.917 L 2942.67,246.981 L 2938.14,255.881 L 2936.97,263.265 L 2936.97,274.861 L 2935.42,280.139 L 2931.26,283.741 L 2925.81,284.525 L 2920.81,282.239 L 2910.54,268.531 L 2899.58,257.571 L 2887.04,248.461 L 2873.23,241.425 L 2858.49,236.637 L 2843.18,234.211 L 2827.68,234.211 L 2812.37,236.637 L 2797.63,241.425 L 2783.82,248.461 L 2771.29,257.573 L 2760.33,268.531 L 2751.22,281.069 L 2744.18,294.879 L 2739.39,309.619 L 2736.97,324.927 L 2736.97,340.427M 3627.98,1319.04 L 3657.87,1348.93 L 3660.59,1342.35 L 3667.45,1332.09 L 3676.18,1323.36 L 3686.45,1316.49 L 3697.86,1311.77 L 3709.97,1309.36 L 3722.32,1309.36 L 3734.43,1311.77 L 3745.84,1316.49 L 3756.1,1323.36 L 3764.83,1332.09 L 3771.7,1342.35 L 3774.42,1348.92 L 3804.3,1319.04 L 3798.13,1309.8 L 3793.19,1303.77 L 3784.41,1295 L 3778.39,1290.05 L 3768.07,1283.16 L 3761.19,1279.49 L 3749.73,1274.74 L 3742.27,1272.47 L 3730.1,1270.05 L 3722.34,1269.29 L 3709.94,1269.29 L 3702.18,1270.05 L 3690.01,1272.47 L 3682.55,1274.74 L 3671.08,1279.49 L 3664.21,1283.16 L 3653.89,1290.05 L 3647.87,1295 L 3639.09,1303.77 L 3634.15,1309.8 L 3627.98,1319.04 z " style="fill-opacity:1.000000;fill:rgb(103,198,105);stroke:rgb(0,0,0);stroke-width:2"/></g>
<g fill-rule="evenodd"><path d="M 243.701,2312.2 L 243.786,2239.34 L 245.798,2231.61 L 250.269,2224.99 L 253.929,2221.88 L 258.144,2219.57 L 261.955,2218.33 L 266.721,2217.72 L 339.192,2217.74 L 346.247,2219.13 L 352.556,2222.59 L 356.053,2225.88 L 359.191,2230.53 L 360.944,2235 L 361.797,2240.54 L 361.757,2313.81 L 359.876,2321.57 L 355.518,2328.26 L 351.911,2331.43 L 347.736,2333.81 L 343.166,2335.3 L 338.39,2335.83 L 265.12,2335.72 L 257.41,2333.65 L 250.834,2329.12 L 247.752,2325.43 L 245.48,2321.2 L 244.112,2316.59 L 243.701,2312.2 z " style="fill-opacity:1.000000;fill:rgb(115,81,255);stroke:rgb(0,0,0);stroke-width:2"/></g>
<g fill-rule="evenodd"><path d="M 243.701,2154.72 L 243.786,2081.85 L 245.798,2074.13 L 250.269,2067.51 L 253.276,2064.87 L 257.41,2062.42 L 261.955,2060.85 L 266.721,2060.24 L 339.192,2060.26 L 346.247,2061.65 L 352.556,2065.11 L 356.053,2068.4 L 359.191,2073.04 L 360.944,2077.52 L 361.797,2083.06 L 361.757,2156.33 L 359.876,2164.09 L 355.518,2170.78 L 351.911,2173.95 L 347.736,2176.33 L 343.166,2177.82 L 338.39,2178.35 L 265.12,2178.24 L 257.41,2176.17 L 250.834,2171.64 L 247.752,2167.95 L 245.48,2163.72 L 244.112,2159.11 L 243.701,2154.72 z " style="fill-opacity:1.000000;fill:rgb(74,236,41);stroke:rgb(0,0,0);stroke-width:2"/></g>
<g fill-rule="evenodd"><path d="M 253.149,1498.03 L 253.169,1370.45 L 254.008,1361.68 L 256.307,1352.35 L 259.996,1343.49 L 264.992,1335.28 L 271.176,1327.93 L 279.05,1321.13 L 287.936,1315.72 L 296.828,1312.09 L 306.168,1309.85 L 316.141,1309.06 L 328.481,1310.28 L 339.971,1313.74 L 350.596,1319.31 L 360.543,1327.36 L 368.211,1336.59 L 374.301,1347.85 L 377.835,1359.32 L 379.135,1372.05 L 379.114,1499.63 L 378.276,1508.4 L 375.977,1517.73 L 372.287,1526.59 L 367.292,1534.8 L 361.108,1542.15 L 353.233,1548.95 L 344.347,1554.36 L 335.456,1557.99 L 326.115,1560.23 L 316.143,1561.02 L 303.803,1559.8 L 292.313,1556.34 L 281.688,1550.77 L 271.741,1542.72 L 264.073,1533.48 L 257.982,1522.23 L 254.449,1510.76 L 253.149,1498.03 z " style="fill-opacity:1.000000;fill:rgb(205,186,171);stroke:rgb(0,0,0);stroke-width:2"/></g>
<g fill-rule="evenodd"><path d="M 253.454,3074.33 L 253.454,2891.86 L 255.864,2879.75 L 260.588,2868.34 L 267.45,2858.07 L 276.182,2849.34 L 286.448,2842.48 L 297.858,2837.75 L 309.968,2835.34 L 322.316,2835.34 L 334.426,2837.75 L 345.836,2842.48 L 356.102,2849.34 L 364.834,2858.07 L 371.696,2868.34 L 376.42,2879.75 L 378.83,2891.86 L 379.134,2898.03 L 379.134,3071.26 L 378.83,3074.33 L 376.48,3080.01 L 372.134,3084.35 L 366.458,3086.7 L 265.826,3086.7 L 260.15,3084.35 L 255.804,3080.01 L 253.454,3074.33 z " style="fill-opacity:1.000000;fill:rgb(242,251,227);stroke:rgb(0,0,0);stroke-width:2"/></g>
<g fill-rule="evenodd"><path d="M 255.689,2408.69 L 257.368,2400.06 L 261.728,2390.24 L 268.72,2381.46 L 277.307,2375.01 L 287.689,2370.75 L 297.84,2369.3 L 353.937,2369.29 L 360.276,2369.76 L 366.479,2371.15 L 375.872,2375.26 L 384.386,2381.8 L 390.773,2389.82 L 395.244,2399.59 L 397.145,2409.66 L 396.538,2420.39 L 393.513,2430.18 L 387.97,2439.38 L 382.599,2445.06 L 375.872,2449.94 L 368.339,2453.44 L 360.276,2455.44 L 354.426,2455.9 L 297.84,2455.89 L 291.996,2455.36 L 286.277,2454.05 L 278.593,2450.89 L 271.654,2446.33 L 265.714,2440.52 L 260.756,2433.26 L 257.512,2425.61 L 255.736,2417 L 255.689,2408.69 z " style="fill-opacity:1.000000;fill:rgb(70,124,194);stroke:rgb(0,0,0);stroke-width:2"/></g>
<g fill-rule="evenodd"><path d="M 255.689,1979.55 L 257.368,1970.92 L 261.983,1960.69 L 268.72,1952.33 L 277.307,1945.88 L 287.689,1941.61 L 297.84,1940.17 L 353.937,1940.16 L 360.276,1940.62 L 366.479,1942.01 L 375.872,1946.12 L 384.386,1952.67 L 390.773,1960.69 L 395.244,1970.45 L 397.145,1980.53 L 396.538,1991.25 L 393.513,2001.05 L 387.97,2010.25 L 382.23,2016.25 L 375.449,2021.05 L 367.877,2024.47 L 360.276,2026.31 L 354.426,2026.77 L 297.84,2026.76 L 291.996,2026.23 L 286.277,2024.92 L 278.593,2021.76 L 271.654,2017.19 L 265.714,2011.39 L 260.756,2004.12 L 257.368,1996.01 L 255.736,1987.86 L 255.689,1979.55 z " style="fill-opacity:1.000000;fill:rgb(84,248,27);stroke:rgb(0,0,0);stroke-width:2"/></g>
<g fill-rule="evenodd"><path d="M 453.149,3024.02 L 453.169,2896.43 L 454.008,2887.66 L 456.307,2878.34 L 459.996,2869.47 L 464.992,2861.27 L 471.176,2853.92 L 479.05,2847.12 L 487.222,2842.07 L 496.828,2838.07 L 506.168,2835.83 L 516.141,2835.04 L 528.481,2836.26 L 539.971,2839.72 L 551.264,2845.74 L 560.543,2853.35 L 568.657,2863.24 L 574.301,2873.83 L 577.835,2885.3 L 579.135,2898.03 L 579.114,3025.62 L 578.276,3034.38 L 575.977,3043.71 L 572.287,3052.58 L 567.292,3060.78 L 561.108,3068.13 L 553.233,3074.93 L 545.061,3079.98 L 535.456,3083.97 L 526.115,3086.21 L 516.143,3087.01 L 503.803,3085.79 L 492.313,3082.33 L 481.02,3076.31 L 471.741,3068.7 L 463.626,3058.8 L 457.982,3048.21 L 454.449,3036.75 L 453.149,3024.02 z " style="fill-opacity:1.000000;fill:rgb(232,231,141);stroke:rgb(0,0,0);stroke-width:2"/></g>
<g fill-rule="evenodd"><path d="M 453.149,1498.03 L 453.169,1370.45 L 454.008,1361.68 L 456.307,1352.35 L 459.996,1343.49 L 464.992,1335.28 L 471.176,1327.93 L 479.05,1321.13 L 487.936,1315.72 L 496.828,1312.09 L 506.168,1309.85 L 516.141,1309.06 L 528.481,1310.28 L 539.971,1313.74 L 550.596,1319.31 L 560.543,1327.36 L 568.211,1336.59 L 574.301,1347.85 L 577.835,1359.32 L 579.135,1372.05 L 579.114,1499.63 L 578.276,1508.4 L 575.977,1517.73 L 572.287,1526.59 L 567.292,1534.8 L 561.108,1542.15 L 553.233,1548.95 L 544.347,1554.36 L 535.456,1557.99 L 526.115,1560.23 L 516.143,1561.02 L 503.803,1559.8 L 492.313,1556.34 L 481.688,1550.77 L 471.741,1542.72 L 464.073,1533.48 L 457.982,1522.23 L 454.449,1510.76 L 453.149,1498.03 z " style="fill-opacity:1.000000;fill:rgb(118,90,46);stroke:rgb(0,0,0);stroke-width:2"/></g>
<g fill-rule="evenodd"><path d="M 503.543,2233.46 L 503.628,2160.6 L 505.64,2152.87 L 510.111,2146.25 L 513.772,2143.14 L 517.987,2140.83 L 521.797,2139.59 L 526.564,2138.98 L 599.034,2139 L 606.09,2140.39 L 612.398,2143.85 L 615.896,2147.14 L 619.033,2151.78 L 620.787,2156.26 L 621.64,2161.8 L 621.599,2235.07 L 619.719,2242.83 L 615.361,2249.52 L 611.753,2252.69 L 607.578,2255.07 L 603.008,2256.56 L 598.232,2257.09 L 524.962,2256.98 L 517.253,2254.91 L 510.676,2250.38 L 507.594,2246.69 L 505.322,2242.46 L 503.954,2237.85 L 503.543,2233.46 z " style="fill-opacity:1.000000;fill:rgb(99,51,159);stroke:rgb(0,0,0);stroke-width:2"/></g>
<g fill-rule="evenodd"><path d="M 507.939,2391.29 L 508.28,2383.2 L 510.194,2375.32 L 513.607,2367.97 L 519.173,2360.58 L 525.766,2354.93 L 533.393,2350.78 L 542.288,2348.22 L 548.633,2347.64 L 584.183,2347.78 L 593.262,2349.59 L 601.712,2353.37 L 609.527,2359.34 L 616.016,2367.48 L 620.267,2376.98 L 621.982,2386.66 L 621.362,2396.47 L 618.201,2406.39 L 613.028,2414.75 L 605.566,2422.01 L 600.196,2425.43 L 594.362,2428 L 588.204,2429.63 L 581.868,2430.3 L 544.584,2430.06 L 536.108,2428.18 L 528.209,2424.58 L 521.667,2419.8 L 516.183,2413.83 L 511.968,2406.91 L 509.184,2399.3 L 507.939,2391.29 z " style="fill-opacity:1.000000;fill:rgb(201,154,102);stroke:rgb(0,0,0);stroke-width:2"/></g>
<g fill-rule="evenodd"><path d="M 507.939,2009.4 L 508.28,2001.31 L 510.194,1993.43 L 513.607,1986.08 L 518.778,1979.11 L 525.766,1973.04 L 533.393,1968.89 L 542.288,1966.33 L 548.633,1965.75 L 584.183,1965.89 L 593.262,1967.7 L 601.712,1971.48 L 609.527,1977.45 L 616.016,1985.59 L 620.267,1995.09 L 621.982,2004.77 L 621.253,2015.15 L 618.201,2024.5 L 613.028,2032.86 L 605.566,2040.12 L 600.196,2043.54 L 594.362,2046.11 L 588.204,2047.74 L 581.868,2048.41 L 544.584,2048.17 L 536.108,2046.29 L 528.209,2042.69 L 521.667,2037.91 L 516.183,2031.94 L 511.968,2025.02 L 509.184,2017.41 L 507.939,2009.4 z " style="fill-opacity:1.000000;fill:rgb(50,13,183);stroke:rgb(0,0,0);stroke-width:2"/></g>
<g fill-rule="evenodd"><path d="M 853.149,3024.02 L 853.169,2896.43 L 854.008,2887.66 L 856.307,2878.34 L 859.996,2869.47 L 864.992,2861.27 L 871.176,2853.92 L 879.05,2847.12 L 887.222,2842.07 L 896.828,2838.07 L 906.168,2835.83 L 916.141,2835.04 L 928.481,2836.26 L 939.971,2839.72 L 950.596,2845.3 L 960.543,2853.35 L 968.211,2862.58 L 974.301,2873.83 L 977.835,2885.3 L 979.135,2898.03 L 979.114,3025.62 L 978.276,3034.38 L 975.977,3043.71 L 972.287,3052.58 L 967.292,3060.78 L 961.108,3068.13 L 953.233,3074.93 L 945.061,3079.98 L 935.456,3083.97 L 926.115,3086.21 L 916.143,3087.01 L 903.803,3085.79 L 892.313,3082.33 L 881.688,3076.75 L 871.741,3068.7 L 864.073,3059.47 L 857.982,3048.21 L 854.449,3036.75 L 853.149,3024.02 z " style="fill-opacity:1.000000;fill:rgb(49,88,163);stroke:rgb(0,0,0);stroke-width:2"/></g>
<g fill-rule="evenodd"><path d="M 853.149,1498.03 L 853.169,1370.45 L 854.008,1361.68 L 856.307,1352.35 L 859.996,1343.49 L 864.992,1335.28 L 871.176,1327.93 L 879.05,1321.13 L 887.936,1315.72 L 896.828,1312.09 L 906.168,1309.85 L 916.141,1309.06 L 928.481,1310.28 L 939.971,1313.74 L 950.596,1319.31 L 960.543,1327.36 L 968.211,1336.59 L 974.301,1347.85 L 977.835,1359.32 L 979.135,1372.05 L 979.114,1499.63 L 978.276,1508.4 L 975.977,1517.73 L 972.287,1526.59 L 967.292,1534.8 L 961.108,1542.15 L 953.233,1548.95 L 944.347,1554.36 L 935.456,1557.99 L 926.115,1560.23 L 916.143,1561.02 L 903.803,1559.8 L 892.313,1556.34 L 881.688,1550.77 L 871.741,1542.72 L 864.073,1533.48 L 857.982,1522.23 L 854.449,1510.76 L 853.149,1498.03 z " style="fill-opacity:1.000000;fill:rgb(90,37,93);stroke:rgb(0,0,0);stroke-width:2"/></g>
<g fill-rule="evenodd"><path d="M 897.244,2430.31 L 897.329,2357.45 L 899.341,2349.72 L 903.812,2343.1 L 907.473,2339.99 L 910.954,2338.01 L 915.498,2336.44 L 920.264,2335.83 L 992.735,2335.85 L 999.791,2337.24 L 1006.1,2340.7 L 1009.6,2343.99 L 1012.73,2348.64 L 1014.69,2353.89 L 1015.34,2358.65 L 1015.3,2431.92 L 1013.42,2439.68 L 1009.06,2446.37 L 1005.45,2449.54 L 1001.28,2451.92 L 996.709,2453.41 L 991.933,2453.94 L 918.663,2453.83 L 910.954,2451.76 L 904.377,2447.23 L 901.295,2443.54 L 899.023,2439.31 L 897.655,2434.7 L 897.244,2430.31 z " style="fill-opacity:1.000000;fill:rgb(5,23,88);stroke:rgb(0,0,0);stroke-width:2"/></g>
<g fill-rule="evenodd"><path d="M 1053.15,3024.02 L 1053.17,2896.43 L 1054.01,2887.66 L 1056.31,2878.34 L 1060,2869.47 L 1064.99,2861.27 L 1071.18,2853.92 L 1079.05,2847.12 L 1087.22,2842.07 L 1096.83,2838.07 L 1106.17,2835.83 L 1116.14,2835.04 L 1128.48,2836.26 L 1139.97,2839.72 L 1150.6,2845.3 L 1160.54,2853.35 L 1168.21,2862.58 L 1174.3,2873.83 L 1177.83,2885.3 L 1179.13,2898.03 L 1179.11,3025.62 L 1178.28,3034.38 L 1175.98,3043.71 L 1172.29,3052.58 L 1167.29,3060.78 L 1161.11,3068.13 L 1153.23,3074.93 L 1145.06,3079.98 L 1135.46,3083.97 L 1126.12,3086.21 L 1116.14,3087.01 L 1103.8,3085.79 L 1092.31,3082.33 L 1081.69,3076.75 L 1071.74,3068.7 L 1064.07,3059.47 L 1057.98,3048.21 L 1054.45,3036.75 L 1053.15,3024.02 z " style="fill-opacity:1.000000;fill:rgb(233,94,212);stroke:rgb(0,0,0);stroke-width:2"/></g>
<g fill-rule="evenodd"><path d="M 1053.15,1371.25 L 1054.45,1359.32 L 1057.68,1348.59 L 1063.19,1337.93 L 1070.62,1328.51 L 1079.7,1320.67 L 1089.38,1315.02 L 1100.68,1310.98 L 1112.54,1309.16 L 1124.01,1309.55 L 1124.1,1189.35 L 1125.29,1184.73 L 1127.31,1181.31 L 1130.12,1178.49 L 1134.29,1176.18 L 1139.76,1175.2 L 1984.22,1175.2 L 2178.15,981.272 L 2178.15,829.921 L 2165.7,829.59 L 2161.85,828.461 L 2158.31,826.576 L 2155.23,824.013 L 2152.31,820.194 L 2150.4,815.782 L 2149.62,811.039 L 2149.75,709.408 L 2150.92,704.744 L 2153.65,699.854 L 2157.66,695.933 L 2162.6,693.298 L 2168.89,692.13 L 2222.1,692.457 L 2227.4,694.253 L 2232.56,698.034 L 2235.88,702.554 L 2237.93,708.613 L 2238.19,810.236 L 2237.6,815.007 L 2236.24,818.777 L 2234.14,822.193 L 2231.39,825.113 L 2228.11,827.416 L 2221.31,829.721 L 2209.64,829.921 L 2209.64,972.047 L 2301.77,972.047 L 2306.34,972.725 L 2309.87,974.287 L 2312.91,976.659 L 2378.66,1042.42 L 2381.43,1039.73 L 2384.8,1037.56 L 2391.7,1035.54 L 2444.12,1035.47 L 2450.35,1036.89 L 2455.19,1039.73 L 2459.03,1043.81 L 2461.56,1048.81 L 2462.6,1055.12 L 2462.45,1155.95 L 2460.65,1162.08 L 2456.4,1167.88 L 2451.09,1171.45 L 2444.92,1173.13 L 2391.7,1173.13 L 2384.8,1171.1 L 2379.09,1166.74 L 2375.33,1160.61 L 2374.03,1154.35 L 2374.02,1082.31 L 2295.25,1003.54 L 2200.42,1003.54 L 2001.88,1202.08 L 1998.17,1204.83 L 1993.82,1206.39 L 1155.51,1206.69 L 1155.51,1322.87 L 1164.85,1332.1 L 1171.92,1342.77 L 1176.9,1355.42 L 1179.01,1368.04 L 1179.13,1498.83 L 1178.4,1507.61 L 1176.68,1515.43 L 1173.34,1524.43 L 1169.1,1532.15 L 1163.82,1539.2 L 1157.61,1545.45 L 1150.6,1550.77 L 1142.18,1555.39 L 1133.92,1558.46 L 1124.53,1560.46 L 1115.74,1561.02 L 1106.96,1560.35 L 1098.36,1558.46 L 1089.38,1555.06 L 1081.69,1550.77 L 1074.67,1545.45 L 1068.46,1539.2 L 1062.76,1531.47 L 1058.95,1524.43 L 1056.06,1516.96 L 1054.14,1509.19 L 1053.23,1501.23 L 1053.15,1371.25 z " style="fill-opacity:1.000000;fill:rgb(171,178,205);stroke:rgb(0,0,0);stroke-width:2"/></g>
<g fill-rule="evenodd"><path d="M 1094.09,2430.31 L 1094.18,2357.45 L 1096.19,2349.72 L 1100.66,2343.1 L 1104.32,2339.99 L 1107.8,2338.01 L 1112.35,2336.44 L 1117.11,2335.83 L 1189.59,2335.85 L 1196.64,2337.24 L 1202.95,2340.7 L 1206.45,2343.99 L 1209.58,2348.64 L 1211.54,2353.89 L 1212.19,2358.65 L 1212.15,2431.92 L 1210.27,2439.68 L 1205.91,2446.37 L 1202.3,2449.54 L 1198.13,2451.92 L 1193.56,2453.41 L 1188.78,2453.94 L 1115.51,2453.83 L 1107.8,2451.76 L 1101.23,2447.23 L 1098.15,2443.54 L 1095.87,2439.31 L 1094.51,2434.7 L 1094.09,2430.31 z " style="fill-opacity:1.000000;fill:rgb(198,155,180);stroke:rgb(0,0,0);stroke-width:2"/></g>
<g fill-rule="evenodd"><path d="M 1253.15,3024.02 L 1253.17,2896.43 L 1254.01,2887.66 L 1256.31,2878.34 L 1260,2869.47 L 1264.99,2861.27 L 1271.18,2853.92 L 1279.05,2847.12 L 1287.22,2842.07 L 1296.83,2838.07 L 1306.17,2835.83 L 1316.14,2835.04 L 1328.48,2836.26 L 1339.97,2839.72 L 1350.6,2845.3 L 1360.54,2853.35 L 1368.21,2862.58 L 1374.3,2873.83 L 1377.83,2885.3 L 1379.13,2898.03 L 1379.11,3025.62 L 1378.28,3034.38 L 1375.98,3043.71 L 1372.29,3052.58 L 1367.29,3060.78 L 1361.11,3068.13 L 1353.23,3074.93 L 1345.06,3079.98 L 1335.46,3083.97 L 1326.12,3086.21 L 1316.14,3087.01 L 1303.8,3085.79 L 1292.31,3082.33 L 1281.69,3076.75 L 1271.74,3068.7 L 1264.07,3059.47 L 1257.98,3048.21 L 1254.45,3036.75 L 1253.15,3024.02 z " style="fill-opacity:1.000000;fill:rgb(84,17,14);stroke:rgb(0,0,0);stroke-width:2"/></g>
<g fill-rule="evenodd"><path d="M 1253.15,1498.03 L 1253.17,1370.45 L 1254.01,1361.68 L 1256.31,1352.35 L 1260,1343.49 L 1264.99,1335.28 L 1271.18,1327.93 L 1279.05,1321.13 L 1287.94,1315.72 L 1296.83,1312.09 L 1306.17,1309.85 L 1316.14,1309.06 L 1328.48,1310.28 L 1339.97,1313.74 L 1350.6,1319.31 L 1360.54,1327.36 L 1368.21,1336.59 L 1374.3,1347.85 L 1377.83,1359.32 L 1379.13,1372.05 L 1379.11,1499.63 L 1378.28,1508.4 L 1375.98,1517.73 L 1372.29,1526.59 L 1367.29,1534.8 L 1361.11,1542.15 L 1353.23,1548.95 L 1344.35,1554.36 L 1335.46,1557.99 L 1326.12,1560.23 L 1316.14,1561.02 L 1303.8,1559.8 L 1292.31,1556.34 L 1281.69,1550.77 L 1271.74,1542.72 L 1264.07,1533.48 L 1257.98,1522.23 L 1254.45,1510.76 L 1253.15,1498.03 z " style="fill-opacity:1.000000;fill:rgb(130,116,65);stroke:rgb(0,0,0);stroke-width:2"/></g>
<g fill-rule="evenodd"><path d="M 1290.94,2430.31 L 1291.03,2357.45 L 1293.04,2349.72 L 1297.51,2343.1 L 1301.17,2339.99 L 1304.65,2338.01 L 1309.2,2336.44 L 1313.97,2335.83 L 1386.44,2335.85 L 1393.49,2337.24 L 1399.8,2340.7 L 1403.3,2343.99 L 1406.43,2348.64 L 1408.39,2353.89 L 1409.04,2358.65 L 1409,2431.92 L 1407.12,2439.68 L 1402.76,2446.37 L 1399.15,2449.54 L 1394.98,2451.92 L 1390.41,2453.41 L 1385.63,2453.94 L 1312.36,2453.83 L 1304.65,2451.76 L 1298.08,2447.23 L 1295,2443.54 L 1292.72,2439.31 L 1291.36,2434.7 L 1290.94,2430.31 z " style="fill-opacity:1.000000;fill:rgb(33,61,220);stroke:rgb(0,0,0);stroke-width:2"/></g>
<g fill-rule="evenodd"><path d="M 1453.15,3024.02 L 1453.17,2896.43 L 1454.01,2887.66 L 1456.31,2878.34 L 1460,2869.47 L 1464.99,2861.27 L 1471.18,2853.92 L 1479.05,2847.12 L 1487.22,2842.07 L 1496.83,2838.07 L 1506.17,2835.83 L 1516.14,2835.04 L 1528.48,2836.26 L 1539.97,2839.72 L 1550.6,2845.3 L 1560.54,2853.35 L 1568.21,2862.58 L 1574.3,2873.83 L 1577.83,2885.3 L 1579.13,2898.03 L 1579.11,3025.62 L 1578.28,3034.38 L 1575.98,3043.71 L 1572.29,3052.58 L 1567.29,3060.78 L 1561.11,3068.13 L 1553.23,3074.93 L 1545.06,3079.98 L 1535.46,3083.97 L 1526.12,3086.21 L 1516.14,3087.01 L 1503.8,3085.79 L 1492.31,3082.33 L 1481.69,3076.75 L 1471.74,3068.7 L 1464.07,3059.47 L 1457.98,3048.21 L 1454.45,3036.75 L 1453.15,3024.02 z " style="fill-opacity:1.000000;fill:rgb(135,112,233);stroke:rgb(0,0,0);stroke-width:2"/></g>
<g fill-rule="evenodd"><path d="M 1453.15,1498.03 L 1453.17,1370.45 L 1454.01,1361.68 L 1456.31,1352.35 L 1460,1343.49 L 1464.99,1335.28 L 1471.18,1327.93 L 1479.05,1321.13 L 1487.94,1315.72 L 1496.83,1312.09 L 1506.17,1309.85 L 1516.14,1309.06 L 1528.48,1310.28 L 1539.97,1313.74 L 1550.6,1319.31 L 1560.54,1327.36 L 1568.21,1336.59 L 1574.3,1347.85 L 1577.83,1359.32 L 1579.13,1372.05 L 1579.11,1499.63 L 1578.28,1508.4 L 1575.98,1517.73 L 1572.29,1526.59 L 1567.29,1534.8 L 1561.11,1542.15 L 1553.23,1548.95 L 1544.35,1554.36 L 1535.46,1557.99 L 1526.12,1560.23 L 1516.14,1561.02 L 1503.8,1559.8 L 1492.31,1556.34 L 1481.69,1550.77 L 1471.74,1542.72 L 1464.07,1533.48 L 1457.98,1522.23 L 1454.45,1510.76 L 1453.15,1498.03 z " style="fill-opacity:1.000000;fill:rgb(62,161,65);stroke:rgb(0,0,0);stroke-width:2"/></g>
<g fill-rule="evenodd"><path d="M 1853.15,3024.02 L 1853.17,2896.43 L 1854.01,2887.66 L 1856.31,2878.34 L 1860,2869.47 L 1864.99,2861.27 L 1871.18,2853.92 L 1879.05,2847.12 L 1887.22,2842.07 L 1896.83,2838.07 L 1906.17,2835.83 L 1916.14,2835.04 L 1928.48,2836.26 L 1939.97,2839.72 L 1950.6,2845.3 L 1960.54,2853.35 L 1968.21,2862.58 L 1974.3,2873.83 L 1977.83,2885.3 L 1979.13,2898.03 L 1979.11,3025.62 L 1978.28,3034.38 L 1975.98,3043.71 L 1972.29,3052.58 L 1967.29,3060.78 L 1961.11,3068.13 L 1953.23,3074.93 L 1945.06,3079.98 L 1935.46,3083.97 L 1926.12,3086.21 L 1916.14,3087.01 L 1903.8,3085.79 L 1892.31,3082.33 L 1881.69,3076.75 L 1871.74,3068.7 L 1864.07,3059.47 L 1857.98,3048.21 L 1854.45,3036.75 L 1853.15,3024.02 z " style="fill-opacity:1.000000;fill:rgb(225,252,103);stroke:rgb(0,0,0);stroke-width:2"/></g>
<g fill-rule="evenodd"><path d="M 1853.15,1498.03 L 1853.17,1370.45 L 1854.01,1361.68 L 1856.31,1352.35 L 1860,1343.49 L 1864.99,1335.28 L 1871.18,1327.93 L 1879.05,1321.13 L 1887.94,1315.72 L 1896.83,1312.09 L 1906.17,1309.85 L 1916.14,1309.06 L 1928.48,1310.28 L 1939.97,1313.74 L 1950.6,1319.31 L 1960.54,1327.36 L 1968.21,1336.59 L 1974.3,1347.85 L 1977.83,1359.32 L 1979.13,1372.05 L 1979.11,1499.63 L 1978.28,1508.4 L 1975.98,1517.73 L 1972.29,1526.59 L 1967.29,1534.8 L 1961.11,1542.15 L 1953.23,1548.95 L 1944.35,1554.36 L 1935.46,1557.99 L 1926.12,1560.23 L 1916.14,1561.02 L 1903.8,1559.8 L 1892.31,1556.34 L 1881.69,1550.77 L 1871.74,1542.72 L 1864.07,1533.48 L 1857.98,1522.23 L 1854.45,1510.76 L 1853.15,1498.03 z " style="fill-opacity:1.000000;fill:rgb(62,1,126);stroke:rgb(0,0,0);stroke-width:2"/></g>
<g fill-rule="evenodd"><path d="M 2053.15,3024.02 L 2053.17,2896.43 L 2054.01,2887.66 L 2056.31,2878.34 L 2060,2869.47 L 2064.99,2861.27 L 2071.18,2853.92 L 2079.05,2847.12 L 2087.22,2842.07 L 2096.83,2838.07 L 2106.17,2835.83 L 2116.14,2835.04 L 2128.48,2836.26 L 2139.97,2839.72 L 2150.6,2845.3 L 2160.54,2853.35 L 2168.21,2862.58 L 2174.3,2873.83 L 2177.83,2885.3 L 2179.13,2898.03 L 2179.11,3025.62 L 2178.28,3034.38 L 2175.98,3043.71 L 2172.29,3052.58 L 2167.29,3060.78 L 2161.11,3068.13 L 2153.23,3074.93 L 2145.06,3079.98 L 2135.46,3083.97 L 2126.12,3086.21 L 2116.14,3087.01 L 2103.8,3085.79 L 2092.31,3082.33 L 2081.69,3076.75 L 2071.74,3068.7 L 2064.07,3059.47 L 2057.98,3048.21 L 2054.45,3036.75 L 2053.15,3024.02 z " style="fill-opacity:1.000000;fill:rgb(151,234,220);stroke:rgb(0,0,0);stroke-width:2"/></g>
<g fill-rule="evenodd"><path d="M 2053.15,1498.03 L 2053.17,1370.45 L 2054.01,1361.68 L 2056.31,1352.35 L 2060,1343.49 L 2064.99,1335.28 L 2071.18,1327.93 L 2079.05,1321.13 L 2087.94,1315.72 L 2096.83,1312.09 L 2106.17,1309.85 L 2116.14,1309.06 L 2128.48,1310.28 L 2139.97,1313.74 L 2150.6,1319.31 L 2160.54,1327.36 L 2168.21,1336.59 L 2174.3,1347.85 L 2177.83,1359.32 L 2179.13,1372.05 L 2179.11,1499.63 L 2178.28,1508.4 L 2175.98,1517.73 L 2172.29,1526.59 L 2167.29,1534.8 L 2161.11,1542.15 L 2153.23,1548.95 L 2144.35,1554.36 L 2135.46,1557.99 L 2126.12,1560.23 L 2116.14,1561.02 L 2103.8,1559.8 L 2092.31,1556.34 L 2081.69,1550.77 L 2071.74,1542.72 L 2064.07,1533.48 L 2057.98,1522.23 L 2054.45,1510.76 L 2053.15,1498.03 z " style="fill-opacity:1.000000;fill:rgb(107,150,143);stroke:rgb(0,0,0);stroke-width:2"/></g>
<g fill-rule="evenodd"><path d="M 2253.15,3024.02 L 2253.17,2896.43 L 2254.01,2887.66 L 2256.31,2878.34 L 2260,2869.47 L 2264.99,2861.27 L 2271.18,2853.92 L 2279.05,2847.12 L 2287.22,2842.07 L 2296.83,2838.07 L 2306.17,2835.83 L 2316.14,2835.04 L 2328.48,2836.26 L 2339.97,2839.72 L 2350.6,2845.3 L 2360.54,2853.35 L 2368.21,2862.58 L 2374.3,2873.83 L 2377.83,2885.3 L 2379.13,2898.03 L 2379.11,3025.62 L 2378.28,3034.38 L 2375.98,3043.71 L 2372.29,3052.58 L 2367.29,3060.78 L 2361.11,3068.13 L 2353.23,3074.93 L 2345.06,3079.98 L 2335.46,3083.97 L 2326.12,3086.21 L 2316.14,3087.01 L 2303.8,3085.79 L 2292.31,3082.33 L 2281.69,3076.75 L 2271.74,3068.7 L 2264.07,3059.47 L 2257.98,3048.21 L 2254.45,3036.75 L 2253.15,3024.02 z " style="fill-opacity:1.000000;fill:rgb(56,92,42);stroke:rgb(0,0,0);stroke-width:2"/></g>
<g fill-rule="evenodd"><path d="M 2253.15,1498.03 L 2253.17,1370.45 L 2254.01,1361.68 L 2256.31,1352.35 L 2260,1343.49 L 2264.99,1335.28 L 2271.18,1327.93 L 2279.05,1321.13 L 2287.94,1315.72 L 2296.83,1312.09 L 2306.17,1309.85 L 2316.14,1309.06 L 2328.48,1310.28 L 2339.97,1313.74 L 2350.6,1319.31 L 2360.54,1327.36 L 2368.21,1336.59 L 2374.3,1347.85 L 2377.83,1359.32 L 2379.13,1372.05 L 2379.11,1499.63 L 2378.28,1508.4 L 2375.98,1517.73 L 2372.29,1526.59 L 2367.29,1534.8 L 2361.11,1542.15 L 2353.23,1548.95 L 2344.35,1554.36 L 2335.46,1557.99 L 2326.12,1560.23 L 2316.14,1561.02 L 2303.8,1559.8 L 2292.31,1556.34 L 2281.69,1550.77 L 2271.74,1542.72 L 2264.07,1533.48 L 2257.98,1522.23 L 2254.45,1510.76 L 2253.15,1498.03 z " style="fill-opacity:1.000000;fill:rgb(236,176,59);stroke:rgb(0,0,0);stroke-width:2"/></g>
<g fill-rule="evenodd"><path d="M 2379.94,811.039 L 2379.94,711.008 L 2380.51,707.04 L 2382.23,702.554 L 2385,698.619 L 2388.63,695.471 L 2393.68,693.04 L 2398.4,692.163 L 2449.22,692.13 L 2456.26,693.586 L 2459.8,695.471 L 2462.88,698.034 L 2466.55,703.27 L 2468.44,710.207 L 2468.5,783.045 L 2565.38,879.921 L 2609.62,879.921 L 2633.71,855.936 L 2637.67,853.56 L 2642.16,852.437 L 2857.07,852.38 L 2862.33,853.559 L 2866.87,856.44 L 2900.89,890.856 L 2902.62,894.299 L 2903.52,898.832 L 2903.54,937.52 L 2913.39,937.52 L 2913.39,1057.6 L 2862.2,1057.6 L 2862.2,937.52 L 2872.05,937.52 L 2872.05,906.128 L 2849.78,883.857 L 2650.22,883.857 L 2549.21,984.868 L 2549.21,1214.57 L 2769.68,1214.57 L 2773.51,1215.04 L 2777.78,1216.81 L 2780.82,1219.18 L 2881.25,1319.6 L 2890.11,1314.69 L 2899.9,1311.18 L 2910.14,1309.34 L 2919.75,1309.16 L 2929.27,1310.44 L 2939.23,1313.44 L 2947.87,1317.63 L 2956.39,1323.59 L 2964.34,1331.49 L 2971.16,1341.36 L 2975.98,1352.35 L 2978.63,1364.06 L 2979.13,1372.05 L 2979.11,1499.63 L 2978.4,1507.61 L 2976.9,1514.66 L 2974.6,1521.49 L 2971.54,1528.01 L 2967.76,1534.14 L 2962.76,1540.4 L 2957.61,1545.45 L 2951.26,1550.32 L 2939.97,1556.34 L 2927.69,1559.96 L 2915.74,1561.02 L 2903.02,1559.64 L 2890.84,1555.72 L 2879.7,1549.41 L 2870.62,1541.57 L 2862.76,1531.47 L 2858.95,1524.43 L 2855.83,1516.2 L 2853.88,1507.61 L 2853.15,1498.83 L 2853.23,1368.84 L 2855.38,1355.42 L 2860.2,1343.1 L 2763.16,1246.06 L 2540.56,1246.04 L 2536.03,1245.14 L 2531.96,1242.96 L 2520.37,1231.19 L 2518.39,1227.01 L 2517.71,1222.44 L 2518.02,975.272 L 2519.23,971.611 L 2521.79,967.769 L 2578.12,911.417 L 2557.31,911.341 L 2553.55,910.496 L 2549.48,908.318 L 2463.85,822.938 L 2460.45,826.114 L 2457,828.142 L 2453.2,829.428 L 2448.82,829.921 L 2397.6,829.819 L 2390.71,827.794 L 2385,823.428 L 2381.23,817.303 L 2379.94,811.039 z " style="fill-opacity:1.000000;fill:rgb(251,50,175);stroke:rgb(0,0,0);stroke-width:2"/></g>
<g fill-rule="evenodd"><path d="M 2453.15,3024.02 L 2453.17,2896.43 L 2454.01,2887.66 L 2456.31,2878.34 L 2460,2869.47 L 2464.99,2861.27 L 2471.18,2853.92 L 2479.05,2847.12 L 2487.22,2842.07 L 2496.83,2838.07 L 2506.17,2835.83 L 2516.14,2835.04 L 2528.48,2836.26 L 2539.97,2839.72 L 2550.6,2845.3 L 2560.54,2853.35 L 2568.21,2862.58 L 2574.3,2873.83 L 2577.83,2885.3 L 2579.13,2898.03 L 2579.11,3025.62 L 2578.28,3034.38 L 2575.98,3043.71 L 2572.29,3052.58 L 2567.29,3060.78 L 2561.11,3068.13 L 2553.23,3074.93 L 2545.06,3079.98 L 2535.46,3083.97 L 2526.12,3086.21 L 2516.14,3087.01 L 2503.8,3085.79 L 2492.31,3082.33 L 2481.69,3076.75 L 2471.74,3068.7 L 2464.07,3059.47 L 2457.98,3048.21 L 2454.45,3036.75 L 2453.15,3024.02 z " style="fill-opacity:1.000000;fill:rgb(60,84,236);stroke:rgb(0,0,0);stroke-width:2"/></g>
<g fill-rule="evenodd"><path d="M 2453.15,1498.03 L 2453.17,1370.45 L 2454.01,1361.68 L 2456.31,1352.35 L 2460,1343.49 L 2464.99,1335.28 L 2471.18,1327.93 L 2479.05,1321.13 L 2487.94,1315.72 L 2496.83,1312.09 L 2506.17,1309.85 L 2516.14,1309.06 L 2528.48,1310.28 L 2539.97,1313.74 L 2550.6,1319.31 L 2560.54,1327.36 L 2568.21,1336.59 L 2574.3,1347.85 L 2577.83,1359.32 L 2579.13,1372.05 L 2579.11,1499.63 L 2578.28,1508.4 L 2575.98,1517.73 L 2572.29,1526.59 L 2567.29,1534.8 L 2561.11,1542.15 L 2553.23,1548.95 L 2544.35,1554.36 L 2535.46,1557.99 L 2526.12,1560.23 L 2516.14,1561.02 L 2503.8,1559.8 L 2492.31,1556.34 L 2481.69,1550.77 L 2471.74,1542.72 L 2464.07,1533.48 L 2457.98,1522.23 L 2454.45,1510.76 L 2453.15,1498.03 z " style="fill-opacity:1.000000;fill:rgb(24,219,92);stroke:rgb(0,0,0);stroke-width:2"/></g>
<g fill-rule="evenodd"><path d="M 2602.96,2198.29 L 2602.97,2105.39 L 2604.1,2099.9 L 2607.64,2094.58 L 2612.27,2091.42 L 2618.51,2090.04 L 2711.82,2090.05 L 2716.54,2090.97 L 2721.39,2093.77 L 2725.33,2098.8 L 2726.45,2101.81 L 2726.96,2105.79 L 2726.94,2199.1 L 2725.66,2204.55 L 2722.56,2209.21 L 2717.29,2212.82 L 2711.21,2214.04 L 2617.7,2214.01 L 2612.27,2212.66 L 2607.64,2209.5 L 2604.1,2204.18 L 2602.96,2198.29 z " style="fill-opacity:1.000000;fill:rgb(2,26,254);stroke:rgb(0,0,0);stroke-width:2"/></g>
<g fill-rule="evenodd"><path d="M 2602.96,1752.04 L 2604.12,1740.09 L 2607.57,1728.59 L 2613.16,1717.97 L 2620.7,1708.63 L 2629.89,1700.91 L 2640.4,1695.11 L 2651.83,1691.44 L 2664.56,1690.04 L 2676.52,1691.13 L 2688.04,1694.49 L 2699.36,1700.46 L 2708.66,1708.06 L 2716.32,1717.3 L 2722.05,1727.85 L 2725.64,1739.31 L 2726.96,1752.04 L 2725.8,1763.99 L 2722.36,1775.49 L 2716.76,1786.11 L 2709.22,1795.45 L 2700.03,1803.17 L 2689.52,1808.97 L 2678.09,1812.63 L 2665.36,1814.04 L 2653.41,1812.95 L 2641.88,1809.58 L 2630.56,1803.62 L 2621.26,1796.02 L 2613.61,1786.78 L 2607.87,1776.23 L 2604.28,1764.77 L 2602.96,1752.04 z " style="fill-opacity:1.000000;fill:rgb(67,251,250);stroke:rgb(0,0,0);stroke-width:2"/></g>
<g fill-rule="evenodd"><path d="M 2604.35,1154.35 L 2604.35,1054.32 L 2605.64,1048.05 L 2609.4,1041.93 L 2612.38,1039.24 L 2615.84,1037.21 L 2622.81,1035.47 L 2673.63,1035.44 L 2679.92,1036.61 L 2684.21,1038.78 L 2687.84,1041.93 L 2690.6,1045.86 L 2692.33,1050.35 L 2692.91,1055.12 L 2692.91,1088.58 L 2744.26,1088.58 L 2772.05,1060.8 L 2772.05,1057.6 L 2762.2,1057.6 L 2762.2,937.52 L 2813.39,937.52 L 2813.39,1057.6 L 2803.54,1057.6 L 2803.54,1060.8 L 2854.95,1112.2 L 2912.19,1112.22 L 2916.72,1113.13 L 2920.8,1115.3 L 3114.81,1309.07 L 3122.94,1309.42 L 3131.61,1310.98 L 3139.97,1313.74 L 3147.17,1317.23 L 3153.88,1321.61 L 3160.54,1327.36 L 3165.85,1333.36 L 3170.76,1340.67 L 3173.99,1347.11 L 3176.46,1353.88 L 3178.14,1360.89 L 3179.05,1368.84 L 3179.09,1500.43 L 3177.67,1511.55 L 3174.6,1521.49 L 3169.95,1530.79 L 3163.29,1539.8 L 3158.21,1544.92 L 3152.58,1549.41 L 3146.48,1553.24 L 3139.97,1556.34 L 3133.15,1558.68 L 3126.12,1560.23 L 3118.95,1560.96 L 3111.74,1560.87 L 3104.59,1559.96 L 3097.59,1558.23 L 3090.84,1555.72 L 3084.41,1552.45 L 3078.41,1548.47 L 3072.89,1543.83 L 3067.43,1537.97 L 3063.19,1532.15 L 3059.29,1525.16 L 3056.31,1517.73 L 3054.29,1509.98 L 3053.28,1502.03 L 3053.4,1366.45 L 3056.06,1353.12 L 3058.62,1346.38 L 3061.93,1339.97 L 3070.07,1329.09 L 3075.28,1324.11 L 3080.98,1319.78 L 2904.89,1143.7 L 2848.42,1143.7 L 2841.69,1142.19 L 2837.29,1139.09 L 2787.79,1089.59 L 2761.36,1116 L 2755.36,1119.4 L 2750.79,1120.08 L 2692.91,1120.08 L 2692.51,1157.53 L 2691.3,1161.35 L 2688.87,1165.5 L 2685.5,1168.93 L 2682.13,1171.1 L 2678.39,1172.54 L 2673.63,1173.22 L 2623.61,1173.22 L 2617.33,1172.06 L 2612.38,1169.42 L 2608.38,1165.5 L 2605.64,1160.61 L 2604.35,1154.35 z " style="fill-opacity:1.000000;fill:rgb(170,58,251);stroke:rgb(0,0,0);stroke-width:2"/></g>
<g fill-rule="evenodd"><path d="M 2768.77,338.677 L 2768.77,326.678 L 2770.92,314.872 L 2775.48,302.918 L 2782.24,292.053 L 2790.35,283.208 L 2799.91,275.953 L 2811.35,270.229 L 2824.47,266.652 L 2838.84,265.835 L 2852.27,267.901 L 2865.73,272.997 L 2877.16,280.35 L 2886.87,289.861 L 2894.47,301.138 L 2899.84,314.486 L 2902.19,327.875 L 2901.78,341.463 L 2898.64,354.688 L 2892.57,367.538 L 2900.89,376.29 L 2902.62,379.733 L 2903.47,383.495 L 2903.54,510.433 L 2913.39,510.433 L 2913.39,630.512 L 2862.2,630.512 L 2862.2,510.433 L 2872.05,510.433 L 2872.05,391.562 L 2870.29,389.809 L 2862.84,393.738 L 2855.35,396.574 L 2847.58,398.495 L 2838.84,399.52 L 2824.47,398.702 L 2810.61,394.832 L 2804.07,391.803 L 2797.24,387.636 L 2791.55,383.211 L 2785.83,377.61 L 2781.29,372.017 L 2776.98,365.271 L 2773.81,358.798 L 2771.13,351.254 L 2768.77,338.677 z " style="fill-opacity:1.000000;fill:rgb(41,209,230);stroke:rgb(0,0,0);stroke-width:2"/></g>
<g fill-rule="evenodd"><path d="M 2853.15,3024.02 L 2853.17,2896.43 L 2854.01,2887.66 L 2856.31,2878.34 L 2860,2869.47 L 2864.99,2861.27 L 2871.18,2853.92 L 2879.05,2847.12 L 2887.22,2842.07 L 2896.83,2838.07 L 2906.17,2835.83 L 2916.14,2835.04 L 2928.48,2836.26 L 2939.97,2839.72 L 2950.6,2845.3 L 2960.54,2853.35 L 2968.21,2862.58 L 2974.3,2873.83 L 2977.83,2885.3 L 2979.13,2898.03 L 2979.11,3025.62 L 2978.28,3034.38 L 2975.98,3043.71 L 2972.29,3052.58 L 2967.29,3060.78 L 2961.11,3068.13 L 2953.23,3074.93 L 2945.06,3079.98 L 2935.46,3083.97 L 2926.12,3086.21 L 2916.14,3087.01 L 2903.8,3085.79 L 2892.31,3082.33 L 2881.69,3076.75 L 2871.74,3068.7 L 2864.07,3059.47 L 2857.98,3048.21 L 2854.45,3036.75 L 2853.15,3024.02 z " style="fill-opacity:1.000000;fill:rgb(5,60,124);stroke:rgb(0,0,0);stroke-width:2"/></g>
<g fill-rule="evenodd"><path d="M 2962.2,1057.6 L 2962.2,937.52 L 3013.39,937.52 L 3013.39,1057.6 L 3003.54,1057.6 L 3003.54,1071.82 L 3130.54,1198.82 L 3226.38,1198.82 L 3230.2,1199.29 L 3234.47,1201.06 L 3237.51,1203.43 L 3326.24,1292.18 L 3328.46,1295.33 L 3330.01,1299.68 L 3330.31,1310.67 L 3342.18,1314.69 L 3352.58,1320.67 L 3361.66,1328.51 L 3369.1,1337.93 L 3373,1344.92 L 3375.98,1352.35 L 3377.99,1360.1 L 3379.01,1368.04 L 3379.01,1502.03 L 3376.9,1514.66 L 3371.92,1527.31 L 3364.85,1537.97 L 3355.15,1547.49 L 3348.56,1552.04 L 3341.45,1555.72 L 3333.92,1558.46 L 3326.12,1560.23 L 3318.15,1560.99 L 3310.94,1560.81 L 3303.02,1559.64 L 3295.31,1557.48 L 3288.66,1554.71 L 3281.69,1550.77 L 3275.28,1545.97 L 3269.53,1540.4 L 3264.53,1534.14 L 3260.36,1527.31 L 3257.1,1519.99 L 3254.79,1512.33 L 3253.56,1505.23 L 3253.15,1498.03 L 3253.15,1371.25 L 3254.62,1358.53 L 3256.83,1350.84 L 3260,1343.49 L 3264.07,1336.59 L 3269.53,1329.68 L 3275.89,1323.59 L 3283.04,1318.45 L 3290.84,1314.36 L 3298.82,1311.48 L 3298.82,1309.28 L 3219.85,1230.31 L 3123.24,1230.3 L 3118.71,1229.39 L 3115.27,1227.66 L 2976.13,1088.92 L 2973.56,1085.08 L 2972.22,1080.66 L 2972.05,1057.6 L 2962.2,1057.6 z " style="fill-opacity:1.000000;fill:rgb(148,117,216);stroke:rgb(0,0,0);stroke-width:2"/></g>
<g fill-rule="evenodd"><path d="M 2962.2,630.512 L 2962.2,510.433 L 2972.05,510.433 L 2972.05,399.606 L 2968.5,399.606 L 2968.5,265.748 L 3102.36,265.748 L 3102.36,399.606 L 3003.54,399.606 L 3003.54,510.433 L 3013.39,510.433 L 3013.39,630.512 L 2962.2,630.512 z " style="fill-opacity:1.000000;fill:rgb(190,97,137);stroke:rgb(0,0,0);stroke-width:2"/></g>
<g fill-rule="evenodd"><path d="M 3053.15,3024.02 L 3053.17,2896.43 L 3054.01,2887.66 L 3056.31,2878.34 L 3060,2869.47 L 3064.99,2861.27 L 3071.18,2853.92 L 3079.05,2847.12 L 3087.22,2842.07 L 3096.83,2838.07 L 3106.17,2835.83 L 3116.14,2835.04 L 3128.48,2836.26 L 3139.97,2839.72 L 3150.6,2845.3 L 3160.54,2853.35 L 3168.21,2862.58 L 3174.3,2873.83 L 3177.83,2885.3 L 3179.13,2898.03 L 3179.11,3025.62 L 3178.28,3034.38 L 3175.98,3043.71 L 3172.29,3052.58 L 3167.29,3060.78 L 3161.11,3068.13 L 3153.23,3074.93 L 3145.06,3079.98 L 3135.46,3083.97 L 3126.12,3086.21 L 3116.14,3087.01 L 3103.8,3085.79 L 3092.31,3082.33 L 3081.69,3076.75 L 3071.74,3068.7 L 3064.07,3059.47 L 3057.98,3048.21 L 3054.45,3036.75 L 3053.15,3024.02 z " style="fill-opacity:1.000000;fill:rgb(249,92,187);stroke:rgb(0,0,0);stroke-width:2"/></g>
<g fill-rule="evenodd"><path d="M 3062.2,1057.6 L 3062.2,937.52 L 3113.39,937.52 L 3113.39,981.811 L 3184.89,981.811 L 3221.54,945.163 L 3225.94,942.063 L 3232.68,940.551 L 3302.36,940.551 L 3302.77,932.626 L 3305.49,925.972 L 3310.41,920.736 L 3316.89,917.617 L 3322.05,916.929 L 3398.05,916.966 L 3402.01,917.617 L 3405.75,919.056 L 3409.74,921.737 L 3412.49,924.657 L 3415.5,930.302 L 3416.54,936.614 L 3416.47,977.589 L 3415.22,983.051 L 3412.86,987.437 L 3525.7,1100.28 L 3529.39,1106.11 L 3530.31,1111.42 L 3530.31,1310.67 L 3539.23,1313.44 L 3547.17,1317.23 L 3554.52,1322.09 L 3561.66,1328.51 L 3567.76,1335.93 L 3572.29,1343.49 L 3575.98,1352.35 L 3578.14,1360.89 L 3579.13,1371.25 L 3579.13,1498.03 L 3578.72,1505.23 L 3577.3,1513.11 L 3574.6,1521.49 L 3570.76,1529.41 L 3565.85,1536.72 L 3559.97,1543.28 L 3553.23,1548.95 L 3545.77,1553.62 L 3537.73,1557.21 L 3528.48,1559.8 L 3515.74,1561.02 L 3502.24,1559.47 L 3489.38,1555.06 L 3477.77,1547.99 L 3467.94,1538.59 L 3460.36,1527.31 L 3455.38,1514.66 L 3453.28,1502.03 L 3453.15,1371.25 L 3454.79,1357.75 L 3457.1,1350.08 L 3460.74,1342.07 L 3464.99,1335.28 L 3470.62,1328.51 L 3476.51,1323.08 L 3483.72,1318.04 L 3490.84,1314.36 L 3498.82,1311.48 L 3498.82,1117.94 L 3376.55,995.669 L 3321.65,995.665 L 3316.12,994.755 L 3309.77,991.375 L 3305.07,985.942 L 3302.77,979.972 L 3302.36,972.047 L 3239.2,972.047 L 3201.99,1009.23 L 3198.84,1011.45 L 3194.49,1013 L 3113.39,1013.31 L 3113.39,1057.6 L 3062.2,1057.6 z " style="fill-opacity:1.000000;fill:rgb(168,153,15);stroke:rgb(0,0,0);stroke-width:2"/></g>
<g fill-rule="evenodd"><path d="M 3062.2,630.512 L 3062.2,510.433 L 3113.39,510.433 L 3113.39,630.512 L 3062.2,630.512 z " style="fill-opacity:1.000000;fill:rgb(149,177,235);stroke:rgb(0,0,0);stroke-width:2"/></g>
<g fill-rule="evenodd"><path d="M 3079.48,1100.97 L 3079.87,1095.48 L 3083.17,1091.08 L 3088.32,1089.16 L 3115.87,1089.13 L 3123.25,1087.96 L 3132.15,1083.43 L 3139.21,1076.36 L 3143.75,1067.46 L 3144.92,1060.08 L 3144.92,1054.6 L 3146.47,1049.33 L 3150.63,1045.72 L 3154.68,1044.84 L 3197.64,1044.84 L 3209.67,1041.62 L 3220.45,1035.39 L 3249.4,1006.44 L 3254.23,1003.8 L 3256.31,1003.58 L 3273.33,1003.58 L 3277.63,1004.58 L 3280.91,1007.05 L 3290.4,1016.78 L 3294.32,1019.34 L 3297.16,1024.05 L 3297.01,1029.54 L 3293.91,1034.09 L 3285.17,1039.58 L 3275.41,1049.34 L 3268.16,1061.09 L 3263.82,1074.2 L 3262.99,1086.22 L 3302.36,1086.22 L 3303.67,1079.15 L 3307.44,1073.03 L 3313.15,1068.66 L 3320.04,1066.64 L 3397.25,1066.54 L 3402.01,1067.22 L 3405.75,1068.66 L 3409.74,1071.34 L 3412.49,1074.26 L 3414.92,1078.41 L 3416.27,1083.02 L 3416.54,1125.59 L 3415.95,1130.36 L 3414.59,1134.13 L 3411.99,1138.18 L 3408.49,1141.47 L 3404.29,1143.82 L 3398.05,1145.24 L 3379.13,1145.28 L 3379.13,1184.64 L 3400.78,1184.64 L 3408.87,1183.82 L 3421.98,1179.48 L 3433.73,1172.23 L 3443.49,1162.47 L 3449.21,1153.19 L 3453.3,1149.51 L 3458.73,1148.63 L 3463.77,1150.82 L 3466.83,1155.39 L 3467.28,1158.32 L 3467.28,1285.79 L 3465.73,1291.07 L 3463.04,1293.84 L 3455.49,1299.01 L 3443.11,1311.4 L 3433.2,1325.85 L 3425.64,1343.94 L 3422.93,1348.72 L 3418.05,1351.27 L 3412.57,1350.79 L 3408.23,1347.42 L 3399.08,1325.85 L 3389.17,1311.4 L 3376.79,1299.01 L 3362.28,1289.08 L 3359.3,1285.83 L 3352.4,1273.72 L 3255.41,1176.73 L 3244.63,1170.5 L 3232.6,1167.28 L 3147.64,1167.28 L 3142.36,1165.73 L 3082.12,1105.8 L 3079.48,1100.97M 3262.99,1125.59 L 3263.82,1137.61 L 3268.16,1150.72 L 3275.41,1162.47 L 3285.17,1172.23 L 3296.92,1179.48 L 3310.02,1183.82 L 3318.11,1184.64 L 3339.76,1184.64 L 3339.76,1145.28 L 3320.84,1145.24 L 3316.89,1144.59 L 3313.15,1143.15 L 3308.56,1139.93 L 3305.07,1135.55 L 3302.95,1130.36 L 3302.36,1125.59 L 3262.99,1125.59 z " style="fill-opacity:1.000000;fill:rgb(241,179,5);stroke:rgb(0,0,0);stroke-width:2"/></g>
<g fill-rule="evenodd"><path d="M 3253.15,3024.02 L 3253.17,2896.43 L 3254.01,2887.66 L 3256.31,2878.34 L 3260,2869.47 L 3264.99,2861.27 L 3271.18,2853.92 L 3279.05,2847.12 L 3287.22,2842.07 L 3296.83,2838.07 L 3306.17,2835.83 L 3316.14,2835.04 L 3328.48,2836.26 L 3339.97,2839.72 L 3350.6,2845.3 L 3360.54,2853.35 L 3368.21,2862.58 L 3374.3,2873.83 L 3377.83,2885.3 L 3379.13,2898.03 L 3379.11,3025.62 L 3378.28,3034.38 L 3375.98,3043.71 L 3372.29,3052.58 L 3367.29,3060.78 L 3361.11,3068.13 L 3353.23,3074.93 L 3345.06,3079.98 L 3335.46,3083.97 L 3326.12,3086.21 L 3316.14,3087.01 L 3303.8,3085.79 L 3292.31,3082.33 L 3281.69,3076.75 L 3271.74,3068.7 L 3264.07,3059.47 L 3257.98,3048.21 L 3254.45,3036.75 L 3253.15,3024.02 z " style="fill-opacity:1.000000;fill:rgb(239,247,0);stroke:rgb(0,0,0);stroke-width:2"/></g>
<g fill-rule="evenodd"><path d="M 3453.15,3024.02 L 3453.17,2896.43 L 3454.01,2887.66 L 3456.31,2878.34 L 3460,2869.47 L 3464.99,2861.27 L 3471.18,2853.92 L 3479.05,2847.12 L 3487.22,2842.07 L 3496.83,2838.07 L 3506.17,2835.83 L 3516.14,2835.04 L 3528.48,2836.26 L 3539.97,2839.72 L 3550.6,2845.3 L 3560.54,2853.35 L 3568.21,2862.58 L 3574.3,2873.83 L 3577.83,2885.3 L 3579.13,2898.03 L 3579.11,3025.62 L 3578.28,3034.38 L 3575.98,3043.71 L 3572.29,3052.58 L 3567.29,3060.78 L 3561.11,3068.13 L 3553.23,3074.93 L 3545.06,3079.98 L 3535.46,3083.97 L 3526.12,3086.21 L 3516.14,3087.01 L 3503.8,3085.79 L 3492.31,3082.33 L 3481.69,3076.75 L 3471.74,3068.7 L 3464.07,3059.47 L 3457.98,3048.21 L 3454.45,3036.75 L 3453.15,3024.02 z " style="fill-opacity:1.000000;fill:rgb(233,161,58);stroke:rgb(0,0,0);stroke-width:2"/></g>
<g fill-rule="evenodd"><path d="M 3599.78,3069.51 L 3606.15,3054.18 L 3608.9,3042.49 L 3611.5,3037.82 L 3653.15,2996.17 L 3653.15,2850.79 L 3653.45,2847.72 L 3655.8,2842.04 L 3660.15,2837.69 L 3665.83,2835.34 L 3668.9,2835.04 L 3763.39,2835.04 L 3766.46,2835.34 L 3772.13,2837.69 L 3776.48,2842.04 L 3778.83,2847.72 L 3779.13,2850.79 L 3779.13,2996.18 L 3820.78,3037.82 L 3823.38,3042.49 L 3826.13,3054.18 L 3831.77,3066.96 L 3832.48,3072.41 L 3830.22,3077.3 L 3825.59,3080.27 L 3822.84,3080.67 L 3811.99,3080.67 L 3806.71,3079.12 L 3774.42,3047.14 L 3771.7,3053.71 L 3764.83,3063.98 L 3756.1,3072.71 L 3745.84,3079.57 L 3734.43,3084.29 L 3722.32,3086.7 L 3709.97,3086.7 L 3697.86,3084.29 L 3686.45,3079.57 L 3676.18,3072.71 L 3667.45,3063.98 L 3660.59,3053.71 L 3657.87,3047.14 L 3627.19,3077.81 L 3623.04,3080.27 L 3620.29,3080.67 L 3609.44,3080.67 L 3604.16,3079.12 L 3600.56,3074.96 L 3599.78,3069.51 z " style="fill-opacity:1.000000;fill:rgb(229,202,11);stroke:rgb(0,0,0);stroke-width:2"/></g>
<g fill-rule="evenodd"><path d="M 3853.15,3024.02 L 3853.17,2896.43 L 3854.01,2887.66 L 3856.31,2878.34 L 3860,2869.47 L 3864.99,2861.27 L 3871.18,2853.92 L 3879.05,2847.12 L 3887.22,2842.07 L 3896.83,2838.07 L 3906.17,2835.83 L 3916.14,2835.04 L 3928.48,2836.26 L 3939.97,2839.72 L 3950.6,2845.3 L 3960.54,2853.35 L 3968.21,2862.58 L 3974.3,2873.83 L 3977.83,2885.3 L 3979.13,2898.03 L 3979.11,3025.62 L 3978.28,3034.38 L 3975.98,3043.71 L 3972.29,3052.58 L 3967.29,3060.78 L 3961.11,3068.13 L 3953.23,3074.93 L 3945.06,3079.98 L 3935.46,3083.97 L 3926.12,3086.21 L 3916.14,3087.01 L 3903.8,3085.79 L 3892.31,3082.33 L 3881.69,3076.75 L 3871.74,3068.7 L 3864.07,3059.47 L 3857.98,3048.21 L 3854.45,3036.75 L 3853.15,3024.02 z " style="fill-opacity:1.000000;fill:rgb(203,208,72);stroke:rgb(0,0,0);stroke-width:2"/></g>
<g fill-rule="evenodd"><path d="M 3853.15,1498.03 L 3853.17,1370.45 L 3854.01,1361.68 L 3856.31,1352.35 L 3860,1343.49 L 3864.99,1335.28 L 3871.18,1327.93 L 3879.05,1321.13 L 3887.94,1315.72 L 3896.83,1312.09 L 3906.17,1309.85 L 3916.14,1309.06 L 3928.48,1310.28 L 3939.97,1313.74 L 3950.6,1319.31 L 3960.54,1327.36 L 3968.21,1336.59 L 3974.3,1347.85 L 3977.83,1359.32 L 3979.13,1372.05 L 3979.11,1499.63 L 3978.28,1508.4 L 3975.98,1517.73 L 3972.29,1526.59 L 3967.29,1534.8 L 3961.11,1542.15 L 3953.23,1548.95 L 3944.35,1554.36 L 3935.46,1557.99 L 3926.12,1560.23 L 3916.14,1561.02 L 3903.8,1559.8 L 3892.31,1556.34 L 3881.69,1550.77 L 3871.74,1542.72 L 3864.07,1533.48 L 3857.98,1522.23 L 3854.45,1510.76 L 3853.15,1498.03 z " style="fill-opacity:1.000000;fill:rgb(71,100,189);stroke:rgb(0,0,0);stroke-width:2"/></g>
<g fill-rule="evenodd"><path d="M 4053.15,3024.02 L 4053.17,2896.43 L 4054.01,2887.66 L 4056.31,2878.34 L 4060,2869.47 L 4064.99,2861.27 L 4071.18,2853.92 L 4079.05,2847.12 L 4087.22,2842.07 L 4096.83,2838.07 L 4106.17,2835.83 L 4116.14,2835.04 L 4128.48,2836.26 L 4139.97,2839.72 L 4150.6,2845.3 L 4160.54,2853.35 L 4168.21,2862.58 L 4174.3,2873.83 L 4177.83,2885.3 L 4179.13,2898.03 L 4179.11,3025.62 L 4178.28,3034.38 L 4175.98,3043.71 L 4172.29,3052.58 L 4167.29,3060.78 L 4161.11,3068.13 L 4153.23,3074.93 L 4145.06,3079.98 L 4135.46,3083.97 L 4126.12,3086.21 L 4116.14,3087.01 L 4103.8,3085.79 L 4092.31,3082.33 L 4081.69,3076.75 L 4071.74,3068.7 L 4064.07,3059.47 L 4057.98,3048.21 L 4054.45,3036.75 L 4053.15,3024.02 z " style="fill-opacity:1.000000;fill:rgb(31,35,30);stroke:rgb(0,0,0);stroke-width:2"/></g>
<g fill-rule="evenodd"><path d="M 4053.15,1498.03 L 4053.17,1370.45 L 4054.01,1361.68 L 4056.31,1352.35 L 4060,1343.49 L 4064.99,1335.28 L 4071.18,1327.93 L 4079.05,1321.13 L 4087.94,1315.72 L 4096.83,1312.09 L 4106.17,1309.85 L 4116.14,1309.06 L 4128.48,1310.28 L 4139.97,1313.74 L 4150.6,1319.31 L 4160.54,1327.36 L 4168.21,1336.59 L 4174.3,1347.85 L 4177.83,1359.32 L 4179.13,1372.05 L 4179.11,1499.63 L 4178.28,1508.4 L 4175.98,1517.73 L 4172.29,1526.59 L 4167.29,1534.8 L 4161.11,1542.15 L 4153.23,1548.95 L 4144.35,1554.36 L 4135.46,1557.99 L 4126.12,1560.23 L 4116.14,1561.02 L 4103.8,1559.8 L 4092.31,1556.34 L 4081.69,1550.77 L 4071.74,1542.72 L 4064.07,1533.48 L 4057.98,1522.23 L 4054.45,1510.76 L 4053.15,1498.03 z " style="fill-opacity:1.000000;fill:rgb(168,28,123);stroke:rgb(0,0,0);stroke-width:2"/></g>
</svg>
