<?xml version="1.0" standalone="no"?>
<!DOCTYPE svg PUBLIC "-//W3C//DTD SVG 1.1//EN"
"http://www.w3.org/Graphics/SVG/1.1/DTD/svg11.dtd">
<svg width="190.945" height="138.958" viewBox="0 0 3978.03 2894.96" version="1.1"
xmlns="http://www.w3.org/2000/svg"
xmlns:xlink="http://www.w3.org/1999/xlink">
<g fill-rule="evenodd"><path d="M 2.4,2892.56 L 2.4,2593.34 L 175.628,2593.34 L 175.628,2892.56 L 2.4,2892.56 z " style="fill-opacity:1.000000;fill:rgb(103,198,105);stroke:rgb(0,0,0);stroke-width:2"/></g>
<g fill-rule="evenodd"><path d="M 2.4,1366.57 L 2.4,1067.36 L 175.628,1067.36 L 175.628,1366.57 L 2.4,1366.57 z " style="fill-opacity:1.000000;fill:rgb(115,81,255);stroke:rgb(0,0,0);stroke-width:2"/></g>
<g fill-rule="evenodd"><path d="M 16.5732,2094.13 L 16.6583,2021.26 L 17.3354,2017.31 L 18.6702,2013.54 L 20.6242,2010.04 L 23.1412,2006.92 L 26.8018,2003.81 L 31.0167,2001.5 L 34.8272,2000.26 L 39.5936,1999.65 L 112.064,1999.67 L 115.251,2000.02 L 119.12,2001.06 L 122.053,2002.36 L 125.428,2004.52 L 128.926,2007.81 L 130.854,2010.37 L 132.063,2012.45 L 133.817,2016.93 L 134.344,2019.27 L 134.67,2022.46 L 134.629,2095.74 L 134.019,2099.7 L 132.749,2103.5 L 130.854,2107.03 L 128.391,2110.19 L 124.783,2113.36 L 120.608,2115.74 L 116.038,2117.22 L 111.262,2117.75 L 37.9922,2117.65 L 34.0492,2116.94 L 30.2829,2115.57 L 26.8018,2113.59 L 23.7061,2111.05 L 20.6242,2107.36 L 18.3522,2103.13 L 16.9842,2098.52 L 16.5732,2094.13 z " style="fill-opacity:1.000000;fill:rgb(74,236,41);stroke:rgb(0,0,0);stroke-width:2"/></g>
<g fill-rule="evenodd"><path d="M 16.5732,1936.65 L 16.6583,1863.78 L 17.3354,1859.83 L 18.6702,1856.06 L 20.6242,1852.56 L 23.1412,1849.44 L 26.1488,1846.79 L 30.2829,1844.34 L 34.8272,1842.78 L 39.5936,1842.17 L 112.064,1842.19 L 115.251,1842.54 L 119.12,1843.58 L 122.053,1844.88 L 125.428,1847.04 L 128.926,1850.33 L 130.405,1852.23 L 132.063,1854.97 L 133.817,1859.45 L 134.344,1861.79 L 134.67,1864.98 L 134.629,1938.26 L 134.019,1942.22 L 132.749,1946.02 L 130.854,1949.55 L 128.391,1952.71 L 124.783,1955.88 L 120.608,1958.26 L 116.038,1959.74 L 111.262,1960.27 L 37.9922,1960.17 L 34.0492,1959.46 L 30.2829,1958.09 L 26.8018,1956.11 L 23.7061,1953.57 L 20.6242,1949.88 L 18.3522,1945.65 L 16.9842,1941.04 L 16.5732,1936.65 z " style="fill-opacity:1.000000;fill:rgb(205,186,171);stroke:rgb(0,0,0);stroke-width:2"/></g>
<g fill-rule="evenodd"><path d="M 28.387,2195.02 L 28.5611,2190.62 L 29.181,2186.26 L 30.2402,2181.98 L 32.1151,2176.94 L 34.6008,2172.17 L 37.6588,2167.74 L 41.5921,2163.39 L 45.685,2159.9 L 50.1792,2156.94 L 55.0055,2154.56 L 60.5614,2152.67 L 65.352,2151.69 L 70.7126,2151.23 L 126.809,2151.22 L 133.149,2151.69 L 139.352,2153.07 L 143.946,2154.75 L 148.745,2157.19 L 153.205,2160.19 L 157.259,2163.73 L 160.537,2167.36 L 163.645,2171.75 L 166.184,2176.5 L 168.116,2181.52 L 169.32,2186.26 L 170.017,2191.59 L 170.047,2196.97 L 169.411,2202.31 L 168.261,2207.07 L 166.386,2212.11 L 163.9,2216.88 L 160.842,2221.31 L 158.285,2224.27 L 155.471,2226.99 L 152.423,2229.45 L 148.745,2231.87 L 145.284,2233.69 L 141.212,2235.37 L 137.466,2236.5 L 133.149,2237.37 L 127.299,2237.83 L 70.7126,2237.82 L 64.8683,2237.29 L 59.1492,2235.98 L 55.4581,2234.68 L 51.4656,2232.82 L 47.6821,2230.57 L 44.5261,2228.25 L 41.5921,2225.66 L 38.5862,2222.45 L 35.9225,2218.94 L 33.6284,2215.18 L 31.9189,2211.66 L 30.3846,2207.54 L 29.2771,2203.27 L 28.608,2198.92 L 28.387,2195.02 z " style="fill-opacity:1.000000;fill:rgb(242,251,227);stroke:rgb(0,0,0);stroke-width:2"/></g>
<g fill-rule="evenodd"><path d="M 28.387,1765.88 L 28.5611,1761.48 L 29.181,1757.12 L 30.2402,1752.85 L 32.1151,1747.81 L 34.8558,1742.62 L 37.9637,1738.23 L 41.5921,1734.25 L 45.685,1730.76 L 50.1792,1727.81 L 55.0055,1725.43 L 60.5614,1723.54 L 65.352,1722.55 L 70.7126,1722.1 L 126.809,1722.09 L 133.149,1722.55 L 139.352,1723.94 L 144.394,1725.82 L 148.745,1728.05 L 153.205,1731.06 L 157.259,1734.6 L 160.842,1738.61 L 163.645,1742.62 L 166.184,1747.36 L 168.116,1752.38 L 169.32,1757.12 L 170.017,1762.46 L 170.047,1767.84 L 169.411,1773.18 L 168.261,1777.93 L 166.386,1782.98 L 163.9,1787.75 L 160.842,1792.17 L 158.285,1795.14 L 155.102,1798.18 L 152.027,1800.6 L 148.322,1802.98 L 144.394,1804.97 L 140.749,1806.39 L 136.991,1807.49 L 133.149,1808.23 L 127.299,1808.7 L 70.7126,1808.69 L 64.8683,1808.16 L 59.1492,1806.84 L 55.0055,1805.36 L 51.4656,1803.69 L 48.0909,1801.7 L 44.5261,1799.12 L 41.5921,1796.53 L 38.5862,1793.31 L 35.9225,1789.81 L 33.6284,1786.05 L 31.7278,1782.08 L 30.2402,1777.93 L 29.2771,1774.14 L 28.608,1769.79 L 28.387,1765.88 z " style="fill-opacity:1.000000;fill:rgb(70,124,194);stroke:rgb(0,0,0);stroke-width:2"/></g>
<g fill-rule="evenodd"><path d="M 202.4,2892.56 L 202.4,2593.34 L 375.628,2593.34 L 375.628,2892.56 L 202.4,2892.56 z " style="fill-opacity:1.000000;fill:rgb(84,248,27);stroke:rgb(0,0,0);stroke-width:2"/></g>
<g fill-rule="evenodd"><path d="M 202.4,1366.57 L 202.4,1067.36 L 375.628,1067.36 L 375.628,1366.57 L 202.4,1366.57 z " style="fill-opacity:1.000000;fill:rgb(232,231,141);stroke:rgb(0,0,0);stroke-width:2"/></g>
<g fill-rule="evenodd"><path d="M 276.416,2015.39 L 276.501,1942.52 L 277.178,1938.57 L 278.513,1934.8 L 280.467,1931.3 L 282.984,1928.18 L 286.644,1925.07 L 290.859,1922.76 L 294.67,1921.52 L 299.436,1920.91 L 371.906,1920.93 L 375.094,1921.28 L 378.962,1922.32 L 381.895,1923.62 L 385.271,1925.78 L 388.768,1929.07 L 390.697,1931.63 L 391.906,1933.71 L 393.659,1938.19 L 394.186,1940.53 L 394.512,1943.72 L 394.472,2017 L 393.862,2020.96 L 392.591,2024.76 L 390.697,2028.29 L 388.233,2031.45 L 384.626,2034.62 L 380.451,2037 L 375.881,2038.48 L 371.105,2039.01 L 297.835,2038.91 L 293.892,2038.2 L 290.125,2036.83 L 286.644,2034.85 L 283.549,2032.31 L 280.467,2028.62 L 278.195,2024.39 L 276.827,2019.78 L 276.416,2015.39 z " style="fill-opacity:1.000000;fill:rgb(118,90,46);stroke:rgb(0,0,0);stroke-width:2"/></g>
<g fill-rule="evenodd"><path d="M 280.783,2169.17 L 281.152,2165.13 L 281.916,2161.14 L 283.066,2157.25 L 284.592,2153.49 L 286.48,2149.9 L 289.055,2146.05 L 292.046,2142.5 L 295.415,2139.32 L 298.639,2136.86 L 302.598,2134.45 L 306.265,2132.71 L 310.641,2131.18 L 315.161,2130.15 L 321.505,2129.57 L 357.056,2129.71 L 361.646,2130.36 L 366.135,2131.52 L 370.466,2133.17 L 374.584,2135.3 L 378.439,2137.87 L 382.399,2141.27 L 385.901,2145.13 L 388.888,2149.4 L 391.314,2154.02 L 393.14,2158.9 L 394.234,2163.41 L 394.855,2168.59 L 394.855,2173.22 L 394.234,2178.4 L 392.967,2183.46 L 391.074,2188.32 L 388.888,2192.4 L 385.901,2196.68 L 382.399,2200.54 L 378.439,2203.93 L 373.068,2207.36 L 367.234,2209.92 L 361.076,2211.56 L 354.74,2212.23 L 322.085,2212.24 L 317.457,2211.98 L 312.886,2211.21 L 308.98,2210.11 L 305.201,2208.64 L 301.082,2206.51 L 297.693,2204.28 L 294.539,2201.73 L 291.651,2198.88 L 289.055,2195.76 L 286.778,2192.4 L 284.84,2188.84 L 283.262,2185.1 L 282.057,2181.23 L 281.237,2177.26 L 280.811,2173.22 L 280.783,2169.17 z " style="fill-opacity:1.000000;fill:rgb(99,51,159);stroke:rgb(0,0,0);stroke-width:2"/></g>
<g fill-rule="evenodd"><path d="M 280.783,1787.28 L 281.152,1783.24 L 281.916,1779.25 L 283.066,1775.36 L 284.592,1771.6 L 286.48,1768.01 L 288.71,1764.62 L 291.651,1761.04 L 294.974,1757.81 L 298.639,1754.97 L 302.598,1752.56 L 306.265,1750.82 L 310.641,1749.29 L 315.161,1748.26 L 321.505,1747.68 L 357.056,1747.82 L 361.646,1748.47 L 366.135,1749.63 L 370.466,1751.28 L 374.584,1753.41 L 378.439,1755.98 L 382.399,1759.38 L 385.901,1763.24 L 388.888,1767.51 L 391.314,1772.13 L 393.14,1777.01 L 394.234,1781.52 L 394.855,1786.7 L 394.818,1791.91 L 394.125,1797.08 L 392.967,1801.57 L 391.074,1806.43 L 388.888,1810.51 L 385.901,1814.79 L 382.399,1818.65 L 378.439,1822.04 L 373.068,1825.47 L 367.234,1828.03 L 361.076,1829.67 L 354.74,1830.34 L 322.085,1830.35 L 317.457,1830.09 L 313.452,1829.44 L 308.98,1828.22 L 305.201,1826.75 L 301.082,1824.62 L 297.693,1822.39 L 294.539,1819.84 L 291.651,1816.99 L 289.055,1813.87 L 286.778,1810.51 L 284.84,1806.95 L 283.262,1803.21 L 282.057,1799.34 L 281.237,1795.37 L 280.811,1791.33 L 280.783,1787.28 z " style="fill-opacity:1.000000;fill:rgb(201,154,102);stroke:rgb(0,0,0);stroke-width:2"/></g>
<g fill-rule="evenodd"><path d="M 402.4,2892.56 L 402.4,2593.34 L 575.628,2593.34 L 575.628,2892.56 L 402.4,2892.56 z " style="fill-opacity:1.000000;fill:rgb(50,13,183);stroke:rgb(0,0,0);stroke-width:2"/></g>
<g fill-rule="evenodd"><path d="M 402.4,1366.57 L 402.4,1067.36 L 575.628,1067.36 L 575.628,1366.57 L 402.4,1366.57 z " style="fill-opacity:1.000000;fill:rgb(49,88,163);stroke:rgb(0,0,0);stroke-width:2"/></g>
<g fill-rule="evenodd"><path d="M 602.4,2892.56 L 602.4,2593.34 L 775.628,2593.34 L 775.628,2892.56 L 602.4,2892.56 z " style="fill-opacity:1.000000;fill:rgb(90,37,93);stroke:rgb(0,0,0);stroke-width:2"/></g>
<g fill-rule="evenodd"><path d="M 602.4,1366.57 L 602.4,1067.36 L 775.628,1067.36 L 775.628,1366.57 L 602.4,1366.57 z " style="fill-opacity:1.000000;fill:rgb(5,23,88);stroke:rgb(0,0,0);stroke-width:2"/></g>
<g fill-rule="evenodd"><path d="M 670.117,2212.24 L 670.202,2139.37 L 670.879,2135.42 L 672.214,2131.65 L 674.167,2128.15 L 676.685,2125.03 L 680.345,2121.92 L 683.826,2119.93 L 688.371,2118.37 L 693.137,2117.76 L 765.607,2117.78 L 768.794,2118.13 L 772.663,2119.17 L 775.596,2120.47 L 778.972,2122.63 L 782.469,2125.92 L 783.948,2127.82 L 785.606,2130.56 L 786.877,2133.51 L 787.562,2135.81 L 788.213,2140.57 L 788.172,2213.85 L 787.562,2217.81 L 786.292,2221.61 L 784.398,2225.14 L 781.934,2228.3 L 778.327,2231.47 L 774.152,2233.85 L 769.581,2235.33 L 764.805,2235.86 L 691.536,2235.76 L 687.592,2235.05 L 683.826,2233.68 L 680.345,2231.7 L 677.249,2229.16 L 674.167,2225.47 L 671.896,2221.24 L 670.527,2216.63 L 670.117,2212.24 z " style="fill-opacity:1.000000;fill:rgb(233,94,212);stroke:rgb(0,0,0);stroke-width:2"/></g>
<g fill-rule="evenodd"><path d="M 802.4,2892.56 L 802.4,2593.34 L 975.628,2593.34 L 975.628,2892.56 L 802.4,2892.56 z " style="fill-opacity:1.000000;fill:rgb(171,178,205);stroke:rgb(0,0,0);stroke-width:2"/></g>
<g fill-rule="evenodd"><path d="M 802.4,1366.57 L 802.4,1067.36 L 975.628,1067.36 L 975.628,1366.57 L 802.4,1366.57 z " style="fill-opacity:1.000000;fill:rgb(198,155,180);stroke:rgb(0,0,0);stroke-width:2"/></g>
<g fill-rule="evenodd"><path d="M 866.967,2212.24 L 867.052,2139.37 L 867.729,2135.42 L 869.064,2131.65 L 871.018,2128.15 L 873.535,2125.03 L 877.196,2121.92 L 880.677,2119.93 L 885.221,2118.37 L 889.987,2117.76 L 962.458,2117.78 L 965.645,2118.13 L 969.513,2119.17 L 972.446,2120.47 L 975.822,2122.63 L 979.319,2125.92 L 980.799,2127.82 L 982.457,2130.56 L 983.728,2133.51 L 984.413,2135.81 L 985.064,2140.57 L 985.023,2213.85 L 984.413,2217.81 L 983.142,2221.61 L 981.248,2225.14 L 978.784,2228.3 L 975.177,2231.47 L 971.002,2233.85 L 966.432,2235.33 L 961.656,2235.86 L 888.386,2235.76 L 884.443,2235.05 L 880.677,2233.68 L 877.196,2231.7 L 874.1,2229.16 L 871.018,2225.47 L 868.746,2221.24 L 867.378,2216.63 L 866.967,2212.24 z " style="fill-opacity:1.000000;fill:rgb(84,17,14);stroke:rgb(0,0,0);stroke-width:2"/></g>
<g fill-rule="evenodd"><path d="M 1002.4,2892.56 L 1002.4,2593.34 L 1175.63,2593.34 L 1175.63,2892.56 L 1002.4,2892.56 z " style="fill-opacity:1.000000;fill:rgb(130,116,65);stroke:rgb(0,0,0);stroke-width:2"/></g>
<g fill-rule="evenodd"><path d="M 1002.4,1366.57 L 1002.4,1067.36 L 1175.63,1067.36 L 1175.63,1366.57 L 1002.4,1366.57 z " style="fill-opacity:1.000000;fill:rgb(33,61,220);stroke:rgb(0,0,0);stroke-width:2"/></g>
<g fill-rule="evenodd"><path d="M 1063.82,2212.24 L 1063.9,2139.37 L 1064.58,2135.42 L 1065.91,2131.65 L 1067.87,2128.15 L 1070.39,2125.03 L 1074.05,2121.92 L 1077.53,2119.93 L 1082.07,2118.37 L 1086.84,2117.76 L 1159.31,2117.78 L 1162.5,2118.13 L 1166.36,2119.17 L 1169.3,2120.47 L 1172.67,2122.63 L 1176.17,2125.92 L 1177.65,2127.82 L 1179.31,2130.56 L 1180.58,2133.51 L 1181.26,2135.81 L 1181.91,2140.57 L 1181.87,2213.85 L 1181.26,2217.81 L 1179.99,2221.61 L 1178.1,2225.14 L 1175.63,2228.3 L 1172.03,2231.47 L 1167.85,2233.85 L 1163.28,2235.33 L 1158.51,2235.86 L 1085.24,2235.76 L 1081.29,2235.05 L 1077.53,2233.68 L 1074.05,2231.7 L 1070.95,2229.16 L 1067.87,2225.47 L 1065.6,2221.24 L 1064.23,2216.63 L 1063.82,2212.24 z " style="fill-opacity:1.000000;fill:rgb(135,112,233);stroke:rgb(0,0,0);stroke-width:2"/></g>
<g fill-rule="evenodd"><path d="M 1202.4,2892.56 L 1202.4,2593.34 L 1375.63,2593.34 L 1375.63,2892.56 L 1202.4,2892.56 z " style="fill-opacity:1.000000;fill:rgb(62,161,65);stroke:rgb(0,0,0);stroke-width:2"/></g>
<g fill-rule="evenodd"><path d="M 1202.4,1366.57 L 1202.4,1067.36 L 1375.63,1067.36 L 1375.63,1366.57 L 1202.4,1366.57 z " style="fill-opacity:1.000000;fill:rgb(225,252,103);stroke:rgb(0,0,0);stroke-width:2"/></g>
<g fill-rule="evenodd"><path d="M 1402.4,2892.56 L 1402.4,2593.34 L 1575.63,2593.34 L 1575.63,2892.56 L 1402.4,2892.56 z " style="fill-opacity:1.000000;fill:rgb(62,1,126);stroke:rgb(0,0,0);stroke-width:2"/></g>
<g fill-rule="evenodd"><path d="M 1402.4,1366.57 L 1402.4,1067.36 L 1575.63,1067.36 L 1575.63,1366.57 L 1402.4,1366.57 z " style="fill-opacity:1.000000;fill:rgb(151,234,220);stroke:rgb(0,0,0);stroke-width:2"/></g>
<g fill-rule="evenodd"><path d="M 1602.4,2892.56 L 1602.4,2593.34 L 1775.63,2593.34 L 1775.63,2892.56 L 1602.4,2892.56 z " style="fill-opacity:1.000000;fill:rgb(107,150,143);stroke:rgb(0,0,0);stroke-width:2"/></g>
<g fill-rule="evenodd"><path d="M 1602.4,1366.57 L 1602.4,1067.36 L 1775.63,1067.36 L 1775.63,1366.57 L 1602.4,1366.57 z " style="fill-opacity:1.000000;fill:rgb(56,92,42);stroke:rgb(0,0,0);stroke-width:2"/></g>
<g fill-rule="evenodd"><path d="M 1694.15,1008.12 L 1694.28,955.705 L 1695.44,951.042 L 1697.71,946.8 L 1700.93,943.232 L 1704.92,940.551 L 1708.66,939.112 L 1713.42,938.428 L 1813.45,938.46 L 1817.4,939.112 L 1821.85,940.929 L 1825.73,943.77 L 1828.35,946.8 L 1829.61,948.851 L 1830.89,951.797 L 1831.52,954.121 L 1831.91,957.306 L 1831.86,1008.93 L 1831.52,1011.31 L 1830.62,1014.39 L 1828.35,1018.63 L 1825.13,1022.2 L 1821.14,1024.88 L 1817.4,1026.32 L 1812.64,1027 L 1712.61,1026.97 L 1707.89,1026.09 L 1703.51,1024.1 L 1699.76,1021.1 L 1698.18,1019.28 L 1696.44,1016.58 L 1694.93,1012.87 L 1694.15,1008.12 z " style="fill-opacity:1.000000;fill:rgb(236,176,59);stroke:rgb(0,0,0);stroke-width:2"/></g>
<g fill-rule="evenodd"><path d="M 1694.15,777.809 L 1694.28,725.39 L 1695.44,720.727 L 1697.71,716.485 L 1700.93,712.917 L 1704.92,710.236 L 1708.66,708.797 L 1713.42,708.113 L 1813.45,708.146 L 1817.4,708.797 L 1821.85,710.614 L 1825.73,713.455 L 1828.35,716.485 L 1829.61,718.536 L 1830.89,721.482 L 1831.52,723.806 L 1831.91,726.991 L 1831.86,778.611 L 1831.52,780.994 L 1830.62,784.073 L 1828.35,788.315 L 1825.13,791.883 L 1821.14,794.564 L 1817.4,796.003 L 1812.64,796.687 L 1712.61,796.654 L 1707.89,795.777 L 1703.51,793.78 L 1699.76,790.783 L 1698.18,788.963 L 1696.44,786.264 L 1694.93,782.552 L 1694.15,777.809 z " style="fill-opacity:1.000000;fill:rgb(251,50,175);stroke:rgb(0,0,0);stroke-width:2"/></g>
<g fill-rule="evenodd"><path d="M 1802.4,2892.56 L 1802.4,2593.34 L 1975.63,2593.34 L 1975.63,2892.56 L 1802.4,2892.56 z " style="fill-opacity:1.000000;fill:rgb(60,84,236);stroke:rgb(0,0,0);stroke-width:2"/></g>
<g fill-rule="evenodd"><path d="M 1802.4,1366.57 L 1802.4,1067.36 L 1975.63,1067.36 L 1975.63,1366.57 L 1802.4,1366.57 z " style="fill-opacity:1.000000;fill:rgb(24,219,92);stroke:rgb(0,0,0);stroke-width:2"/></g>
<g fill-rule="evenodd"><path d="M 1926.43,629.187 L 1926.48,528.355 L 1927.46,523.647 L 1929.54,519.317 L 1932.61,515.62 L 1935.12,513.619 L 1937.2,512.401 L 1940.94,510.962 L 1945.7,510.278 L 1997.32,510.376 L 2002,511.446 L 2006.29,513.619 L 2009.92,516.767 L 2012.69,520.702 L 2014.2,524.413 L 2014.98,529.156 L 2014.98,629.187 L 2014.41,633.155 L 2012.69,637.642 L 2009.92,641.576 L 2006.29,644.724 L 2004.21,645.942 L 2001.24,647.155 L 1996.52,648.032 L 1944.1,647.967 L 1939.41,646.897 L 1935.12,644.724 L 1931.49,641.576 L 1928.73,637.642 L 1927.21,633.93 L 1926.43,629.187 z " style="fill-opacity:1.000000;fill:rgb(2,26,254);stroke:rgb(0,0,0);stroke-width:2"/></g>
<g fill-rule="evenodd"><path d="M 1965.8,304.384 L 1965.93,261.808 L 1966.83,257.899 L 1968.91,253.568 L 1971.98,249.872 L 1975.86,247.031 L 1980.31,245.214 L 1985.07,244.53 L 2061.48,244.563 L 2065.43,245.214 L 2069.18,246.653 L 2073.16,249.334 L 2075.91,252.254 L 2077.25,254.253 L 2078.65,257.144 L 2079.37,259.44 L 2079.89,262.607 L 2079.89,305.186 L 2078.92,309.893 L 2076.83,314.224 L 2073.76,317.92 L 2069.88,320.761 L 2065.43,322.578 L 2060.68,323.262 L 1984.27,323.229 L 1979.54,322.352 L 1975.17,320.355 L 1971.41,317.358 L 1968.49,313.539 L 1966.58,309.127 L 1965.8,304.384 z " style="fill-opacity:1.000000;fill:rgb(67,251,250);stroke:rgb(0,0,0);stroke-width:2"/></g>
<g fill-rule="evenodd"><path d="M 1965.8,154.778 L 1965.93,112.201 L 1966.83,108.293 L 1968.91,103.962 L 1971.98,100.266 L 1975.86,97.4247 L 1980.31,95.6079 L 1985.07,94.9238 L 2061.48,94.9565 L 2065.43,95.6079 L 2069.18,97.047 L 2073.16,99.7278 L 2075.91,102.648 L 2077.25,104.647 L 2078.65,107.538 L 2079.37,109.834 L 2079.89,113 L 2079.89,155.579 L 2078.92,160.287 L 2076.83,164.617 L 2073.76,168.314 L 2069.88,171.155 L 2065.43,172.972 L 2060.68,173.656 L 1984.27,173.623 L 1979.54,172.745 L 1975.17,170.749 L 1971.41,167.752 L 1968.49,163.933 L 1966.58,159.521 L 1965.8,154.778 z " style="fill-opacity:1.000000;fill:rgb(170,58,251);stroke:rgb(0,0,0);stroke-width:2"/></g>
<g fill-rule="evenodd"><path d="M 2002.4,2892.56 L 2002.4,2593.34 L 2175.63,2593.34 L 2175.63,2892.56 L 2002.4,2892.56 z " style="fill-opacity:1.000000;fill:rgb(41,209,230);stroke:rgb(0,0,0);stroke-width:2"/></g>
<g fill-rule="evenodd"><path d="M 2002.4,1366.57 L 2002.4,1067.36 L 2175.63,1067.36 L 2175.63,1366.57 L 2002.4,1366.57 z " style="fill-opacity:1.000000;fill:rgb(5,60,124);stroke:rgb(0,0,0);stroke-width:2"/></g>
<g fill-rule="evenodd"><path d="M 2146.9,936.274 L 2146.95,835.441 L 2147.93,830.734 L 2150.01,826.403 L 2153.09,822.707 L 2155.6,820.706 L 2157.67,819.488 L 2161.41,818.049 L 2166.17,817.365 L 2217.79,817.463 L 2222.48,818.533 L 2226.76,820.706 L 2230.4,823.854 L 2233.16,827.788 L 2234.67,831.5 L 2235.45,836.243 L 2235.45,936.274 L 2234.88,940.242 L 2233.16,944.728 L 2230.4,948.663 L 2226.76,951.81 L 2224.69,953.029 L 2221.72,954.241 L 2216.99,955.119 L 2164.57,955.054 L 2159.88,953.984 L 2155.6,951.81 L 2151.96,948.663 L 2149.2,944.728 L 2147.69,941.017 L 2146.9,936.274 z " style="fill-opacity:1.000000;fill:rgb(148,117,216);stroke:rgb(0,0,0);stroke-width:2"/></g>
<g fill-rule="evenodd"><path d="M 2156.75,629.187 L 2156.8,528.355 L 2157.77,523.647 L 2159.86,519.317 L 2162.93,515.62 L 2165.44,513.619 L 2167.51,512.401 L 2171.26,510.962 L 2176.01,510.278 L 2227.63,510.376 L 2232.32,511.446 L 2236.61,513.619 L 2240.24,516.767 L 2243,520.702 L 2244.52,524.413 L 2245.3,529.156 L 2245.3,629.187 L 2244.73,633.155 L 2243,637.642 L 2240.24,641.576 L 2236.61,644.724 L 2234.53,645.942 L 2231.56,647.155 L 2226.83,648.032 L 2174.41,647.967 L 2169.73,646.897 L 2165.44,644.724 L 2161.8,641.576 L 2159.04,637.642 L 2157.53,633.93 L 2156.75,629.187 z " style="fill-opacity:1.000000;fill:rgb(190,97,137);stroke:rgb(0,0,0);stroke-width:2"/></g>
<g fill-rule="evenodd"><path d="M 2202.4,2892.56 L 2202.4,2593.34 L 2375.63,2593.34 L 2375.63,2892.56 L 2202.4,2892.56 z " style="fill-opacity:1.000000;fill:rgb(249,92,187);stroke:rgb(0,0,0);stroke-width:2"/></g>
<g fill-rule="evenodd"><path d="M 2202.4,1366.57 L 2202.4,1067.36 L 2375.63,1067.36 L 2375.63,1366.57 L 2202.4,1366.57 z " style="fill-opacity:1.000000;fill:rgb(168,153,15);stroke:rgb(0,0,0);stroke-width:2"/></g>
<g fill-rule="evenodd"><path d="M 2274.84,376.416 L 2274.84,309.487 L 2385.08,309.487 L 2385.08,376.416 L 2274.84,376.416 z " style="fill-opacity:1.000000;fill:rgb(149,177,235);stroke:rgb(0,0,0);stroke-width:2"/></g>
<g fill-rule="evenodd"><path d="M 2274.84,69.3291 L 2274.84,2.4 L 2385.08,2.4 L 2385.08,69.3291 L 2274.84,69.3291 z " style="fill-opacity:1.000000;fill:rgb(241,179,5);stroke:rgb(0,0,0);stroke-width:2"/></g>
<g fill-rule="evenodd"><path d="M 2375.83,1980.22 L 2375.84,1887.31 L 2376.25,1884.13 L 2376.97,1881.83 L 2378.47,1878.99 L 2380.52,1876.51 L 2382.36,1874.95 L 2385.14,1873.34 L 2388.19,1872.34 L 2391.38,1871.97 L 2484.69,1871.98 L 2487.08,1872.25 L 2489.41,1872.89 L 2492.3,1874.28 L 2494.26,1875.69 L 2496.49,1878.01 L 2498.2,1880.73 L 2499.32,1883.74 L 2499.83,1887.71 L 2499.81,1981.02 L 2499.32,1984.2 L 2498.54,1986.48 L 2497.41,1988.61 L 2495.43,1991.14 L 2492.98,1993.21 L 2490.16,1994.75 L 2487.08,1995.68 L 2484.09,1995.97 L 2390.58,1995.93 L 2388.19,1995.6 L 2385.14,1994.59 L 2383.02,1993.44 L 2380.52,1991.43 L 2378.47,1988.95 L 2376.97,1986.11 L 2376.08,1983.02 L 2375.83,1980.22 z " style="fill-opacity:1.000000;fill:rgb(239,247,0);stroke:rgb(0,0,0);stroke-width:2"/></g>
<g fill-rule="evenodd"><path d="M 2375.83,1733.97 L 2376.09,1728.36 L 2377,1722.02 L 2378.32,1716.57 L 2380.44,1710.52 L 2382.79,1705.43 L 2386.03,1699.9 L 2389.83,1694.73 L 2393.57,1690.55 L 2397.67,1686.73 L 2402.77,1682.84 L 2407.53,1679.88 L 2413.28,1677.04 L 2419.28,1674.81 L 2424.71,1673.37 L 2431.03,1672.34 L 2437.43,1671.97 L 2443.04,1672.19 L 2449.39,1673.05 L 2454.85,1674.35 L 2460.91,1676.42 L 2466.73,1679.11 L 2472.24,1682.39 L 2476.76,1685.71 L 2481.53,1689.98 L 2485.84,1694.73 L 2489.19,1699.23 L 2492.5,1704.72 L 2494.92,1709.78 L 2496.87,1715.04 L 2498.51,1721.23 L 2499.5,1727.57 L 2499.83,1733.97 L 2499.58,1739.57 L 2498.67,1745.92 L 2497.34,1751.36 L 2495.23,1757.42 L 2492.87,1762.51 L 2489.63,1768.04 L 2485.84,1773.2 L 2482.1,1777.38 L 2477.99,1781.2 L 2472.9,1785.1 L 2468.14,1788.06 L 2462.39,1790.9 L 2456.38,1793.13 L 2450.96,1794.56 L 2444.63,1795.59 L 2438.23,1795.97 L 2432.63,1795.75 L 2426.28,1794.88 L 2420.05,1793.36 L 2414.76,1791.51 L 2408.94,1788.82 L 2403.43,1785.55 L 2398.91,1782.23 L 2394.13,1777.95 L 2389.83,1773.2 L 2386.48,1768.7 L 2383.17,1763.22 L 2380.75,1758.16 L 2378.79,1752.9 L 2377.15,1746.7 L 2376.16,1740.37 L 2375.83,1733.97 z " style="fill-opacity:1.000000;fill:rgb(233,161,58);stroke:rgb(0,0,0);stroke-width:2"/></g>
<g fill-rule="evenodd"><path d="M 2375.83,1533.97 L 2376.09,1528.36 L 2377,1522.02 L 2378.32,1516.57 L 2380.44,1510.52 L 2382.79,1505.43 L 2386.03,1499.9 L 2389.83,1494.73 L 2393.57,1490.55 L 2397.67,1486.73 L 2402.77,1482.84 L 2407.53,1479.88 L 2413.28,1477.04 L 2418.52,1475.05 L 2424.71,1473.37 L 2431.03,1472.34 L 2437.43,1471.97 L 2443.04,1472.19 L 2449.39,1473.05 L 2454.85,1474.35 L 2460.91,1476.42 L 2466.73,1479.11 L 2472.24,1482.39 L 2476.76,1485.71 L 2481.53,1489.98 L 2485.84,1494.73 L 2489.19,1499.23 L 2492.5,1504.72 L 2494.92,1509.78 L 2496.87,1515.04 L 2498.51,1521.23 L 2499.5,1527.57 L 2499.83,1533.97 L 2499.58,1539.57 L 2498.67,1545.92 L 2497.34,1551.36 L 2495.23,1557.42 L 2492.87,1562.51 L 2489.63,1568.04 L 2485.84,1573.2 L 2482.1,1577.38 L 2477.99,1581.2 L 2472.9,1585.1 L 2468.14,1588.06 L 2462.39,1590.9 L 2457.14,1592.88 L 2450.96,1594.56 L 2444.63,1595.59 L 2438.23,1595.97 L 2432.63,1595.75 L 2426.28,1594.88 L 2420.82,1593.59 L 2414.76,1591.51 L 2408.94,1588.82 L 2403.43,1585.55 L 2398.91,1582.23 L 2394.13,1577.95 L 2389.83,1573.2 L 2386.48,1568.7 L 2383.17,1563.22 L 2380.75,1558.16 L 2378.79,1552.9 L 2377.15,1546.7 L 2376.16,1540.37 L 2375.83,1533.97 z " style="fill-opacity:1.000000;fill:rgb(229,202,11);stroke:rgb(0,0,0);stroke-width:2"/></g>
<g fill-rule="evenodd"><path d="M 2377.22,936.274 L 2377.27,835.441 L 2378.24,830.734 L 2380.33,826.403 L 2383.4,822.707 L 2385.91,820.706 L 2387.99,819.488 L 2391.73,818.049 L 2396.49,817.365 L 2448.11,817.463 L 2452.79,818.533 L 2457.08,820.706 L 2460.71,823.854 L 2463.47,827.788 L 2464.99,831.5 L 2465.77,836.243 L 2465.77,936.274 L 2465.2,940.242 L 2463.47,944.728 L 2460.71,948.663 L 2457.08,951.81 L 2455,953.029 L 2452.03,954.241 L 2447.3,955.119 L 2394.88,955.054 L 2390.2,953.984 L 2385.91,951.81 L 2382.28,948.663 L 2379.52,944.728 L 2378,941.017 L 2377.22,936.274 z " style="fill-opacity:1.000000;fill:rgb(203,208,72);stroke:rgb(0,0,0);stroke-width:2"/></g>
<g fill-rule="evenodd"><path d="M 2402.4,2892.56 L 2402.4,2593.34 L 2575.63,2593.34 L 2575.63,2892.56 L 2402.4,2892.56 z " style="fill-opacity:1.000000;fill:rgb(71,100,189);stroke:rgb(0,0,0);stroke-width:2"/></g>
<g fill-rule="evenodd"><path d="M 2402.4,1366.57 L 2402.4,1067.36 L 2575.63,1067.36 L 2575.63,1366.57 L 2402.4,1366.57 z " style="fill-opacity:1.000000;fill:rgb(31,35,30);stroke:rgb(0,0,0);stroke-width:2"/></g>
<g fill-rule="evenodd"><path d="M 2535.08,839.526 L 2535.08,719.447 L 2586.26,719.447 L 2586.26,839.526 L 2535.08,839.526 z " style="fill-opacity:1.000000;fill:rgb(168,28,123);stroke:rgb(0,0,0);stroke-width:2"/></g>
<g fill-rule="evenodd"><path d="M 2535.08,412.439 L 2535.08,292.361 L 2586.26,292.361 L 2586.26,412.439 L 2535.08,412.439 z " style="fill-opacity:1.000000;fill:rgb(100,197,20);stroke:rgb(0,0,0);stroke-width:2"/></g>
<g fill-rule="evenodd"><path d="M 2602.4,2892.56 L 2602.4,2593.34 L 2775.63,2593.34 L 2775.63,2892.56 L 2602.4,2892.56 z " style="fill-opacity:1.000000;fill:rgb(115,90,197);stroke:rgb(0,0,0);stroke-width:2"/></g>
<g fill-rule="evenodd"><path d="M 2602.4,1366.57 L 2602.4,1067.36 L 2775.63,1067.36 L 2775.63,1366.57 L 2602.4,1366.57 z " style="fill-opacity:1.000000;fill:rgb(94,75,121);stroke:rgb(0,0,0);stroke-width:2"/></g>
<g fill-rule="evenodd"><path d="M 2635.08,839.526 L 2635.08,719.447 L 2686.26,719.447 L 2686.26,839.526 L 2635.08,839.526 z " style="fill-opacity:1.000000;fill:rgb(99,59,112);stroke:rgb(0,0,0);stroke-width:2"/></g>
<g fill-rule="evenodd"><path d="M 2635.08,412.439 L 2635.08,292.361 L 2686.26,292.361 L 2686.26,412.439 L 2635.08,412.439 z " style="fill-opacity:1.000000;fill:rgb(100,36,17);stroke:rgb(0,0,0);stroke-width:2"/></g>
<g fill-rule="evenodd"><path d="M 2735.08,839.526 L 2735.08,719.447 L 2786.26,719.447 L 2786.26,839.526 L 2735.08,839.526 z " style="fill-opacity:1.000000;fill:rgb(158,9,220);stroke:rgb(0,0,0);stroke-width:2"/></g>
<g fill-rule="evenodd"><path d="M 2735.08,412.439 L 2735.08,292.361 L 2786.26,292.361 L 2786.26,412.439 L 2735.08,412.439 z " style="fill-opacity:1.000000;fill:rgb(170,212,172);stroke:rgb(0,0,0);stroke-width:2"/></g>
<g fill-rule="evenodd"><path d="M 2802.4,2892.56 L 2802.4,2593.34 L 2975.63,2593.34 L 2975.63,2892.56 L 2802.4,2892.56 z " style="fill-opacity:1.000000;fill:rgb(242,27,16);stroke:rgb(0,0,0);stroke-width:2"/></g>
<g fill-rule="evenodd"><path d="M 2802.4,1366.57 L 2802.4,1067.36 L 2975.63,1067.36 L 2975.63,1366.57 L 2802.4,1366.57 z " style="fill-opacity:1.000000;fill:rgb(175,59,51);stroke:rgb(0,0,0);stroke-width:2"/></g>
<g fill-rule="evenodd"><path d="M 2835.08,839.526 L 2835.08,719.447 L 2886.26,719.447 L 2886.26,839.526 L 2835.08,839.526 z " style="fill-opacity:1.000000;fill:rgb(205,227,80);stroke:rgb(0,0,0);stroke-width:2"/></g>
<g fill-rule="evenodd"><path d="M 2835.08,412.439 L 2835.08,292.361 L 2886.26,292.361 L 2886.26,412.439 L 2835.08,412.439 z " style="fill-opacity:1.000000;fill:rgb(72,71,21);stroke:rgb(0,0,0);stroke-width:2"/></g>
<g fill-rule="evenodd"><path d="M 3002.4,2892.56 L 3002.4,2593.34 L 3175.63,2593.34 L 3175.63,2892.56 L 3002.4,2892.56 z " style="fill-opacity:1.000000;fill:rgb(92,187,111);stroke:rgb(0,0,0);stroke-width:2"/></g>
<g fill-rule="evenodd"><path d="M 3002.4,1366.57 L 3002.4,1067.36 L 3175.63,1067.36 L 3175.63,1366.57 L 3002.4,1366.57 z " style="fill-opacity:1.000000;fill:rgb(34,25,186);stroke:rgb(0,0,0);stroke-width:2"/></g>
<g fill-rule="evenodd"><path d="M 3062.26,595.723 L 3062.39,541.335 L 3063.55,536.672 L 3065.82,532.429 L 3069.04,528.862 L 3073.03,526.181 L 3076.77,524.742 L 3081.53,524.058 L 3185.49,524.09 L 3190.22,524.968 L 3193.9,526.559 L 3197.18,528.862 L 3200.4,532.429 L 3201.66,534.481 L 3202.94,537.427 L 3203.57,539.751 L 3203.96,542.936 L 3203.91,596.524 L 3202.94,601.231 L 3201.66,604.177 L 3200.4,606.229 L 3197.18,609.797 L 3193.19,612.477 L 3189.45,613.917 L 3184.69,614.601 L 3080.72,614.568 L 3076,613.69 L 3073.75,612.826 L 3070.95,611.259 L 3067.32,608.111 L 3064.56,604.177 L 3063.04,600.466 L 3062.26,595.723 z " style="fill-opacity:1.000000;fill:rgb(155,125,245);stroke:rgb(0,0,0);stroke-width:2"/></g>
<g fill-rule="evenodd"><path d="M 3062.26,363.439 L 3062.39,309.052 L 3063.55,304.388 L 3065.82,300.146 L 3069.04,296.578 L 3073.03,293.897 L 3076.77,292.458 L 3081.53,291.774 L 3185.49,291.807 L 3190.22,292.685 L 3193.9,294.275 L 3197.18,296.578 L 3200.4,300.146 L 3201.66,302.198 L 3202.94,305.143 L 3203.57,307.467 L 3203.96,310.652 L 3203.91,364.241 L 3202.94,368.948 L 3201.66,371.894 L 3200.4,373.945 L 3197.18,377.513 L 3193.19,380.194 L 3189.45,381.633 L 3184.69,382.317 L 3080.72,382.284 L 3076,381.407 L 3073.75,380.542 L 3070.95,378.976 L 3067.32,375.828 L 3064.56,371.894 L 3063.04,368.182 L 3062.26,363.439 z " style="fill-opacity:1.000000;fill:rgb(11,225,26);stroke:rgb(0,0,0);stroke-width:2"/></g>
<g fill-rule="evenodd"><path d="M 3075.3,909.123 L 3075.3,866.544 L 3076.27,861.836 L 3078.36,857.505 L 3081.43,853.809 L 3085.31,850.968 L 3089.76,849.151 L 3094.52,848.467 L 3170.93,848.5 L 3175.65,849.377 L 3180.03,851.374 L 3183.78,854.371 L 3186.7,858.19 L 3188.61,862.602 L 3189.39,867.345 L 3189.26,909.922 L 3188.37,913.83 L 3186.28,918.161 L 3183.21,921.857 L 3179.33,924.698 L 3174.88,926.515 L 3170.12,927.199 L 3093.72,927.166 L 3089.76,926.515 L 3086.02,925.076 L 3082.03,922.395 L 3079.28,919.475 L 3077.94,917.476 L 3076.55,914.585 L 3075.82,912.289 L 3075.3,909.123 z " style="fill-opacity:1.000000;fill:rgb(28,127,35);stroke:rgb(0,0,0);stroke-width:2"/></g>
<g fill-rule="evenodd"><path d="M 3075.3,759.516 L 3075.3,716.937 L 3076.27,712.23 L 3078.36,707.899 L 3081.43,704.203 L 3085.31,701.362 L 3089.76,699.545 L 3094.52,698.861 L 3170.93,698.894 L 3175.65,699.771 L 3180.03,701.768 L 3183.78,704.765 L 3186.7,708.584 L 3188.61,712.996 L 3189.39,717.739 L 3189.26,760.315 L 3188.37,764.224 L 3186.28,768.554 L 3183.21,772.251 L 3179.33,775.092 L 3174.88,776.909 L 3170.12,777.593 L 3093.72,777.56 L 3089.76,776.909 L 3086.02,775.47 L 3082.03,772.789 L 3079.28,769.869 L 3077.94,767.87 L 3076.55,764.979 L 3075.82,762.683 L 3075.3,759.516 z " style="fill-opacity:1.000000;fill:rgb(248,41,248);stroke:rgb(0,0,0);stroke-width:2"/></g>
<g fill-rule="evenodd"><path d="M 3202.4,2892.56 L 3202.4,2593.34 L 3375.63,2593.34 L 3375.63,2892.56 L 3202.4,2892.56 z " style="fill-opacity:1.000000;fill:rgb(164,27,19);stroke:rgb(0,0,0);stroke-width:2"/></g>
<g fill-rule="evenodd"><path d="M 3202.4,1366.57 L 3202.4,1067.36 L 3375.63,1067.36 L 3375.63,1366.57 L 3202.4,1366.57 z " style="fill-opacity:1.000000;fill:rgb(181,202,78);stroke:rgb(0,0,0);stroke-width:2"/></g>
<g fill-rule="evenodd"><path d="M 3402.4,2892.56 L 3402.4,2593.34 L 3575.63,2593.34 L 3575.63,2892.56 L 3402.4,2892.56 z " style="fill-opacity:1.000000;fill:rgb(232,152,50);stroke:rgb(0,0,0);stroke-width:2"/></g>
<g fill-rule="evenodd"><path d="M 3402.4,1366.57 L 3402.4,1067.36 L 3575.63,1067.36 L 3575.63,1366.57 L 3402.4,1366.57 z " style="fill-opacity:1.000000;fill:rgb(56,224,121);stroke:rgb(0,0,0);stroke-width:2"/></g>
<g fill-rule="evenodd"><path d="M 3455.96,873.282 L 3456.01,819.693 L 3456.98,814.986 L 3458.26,812.04 L 3459.52,809.988 L 3462.74,806.421 L 3466.73,803.74 L 3470.47,802.301 L 3475.23,801.617 L 3579.19,801.649 L 3583.92,802.527 L 3586.17,803.391 L 3588.97,804.958 L 3592.6,808.106 L 3595.36,812.04 L 3596.88,815.752 L 3597.66,820.495 L 3597.53,874.882 L 3596.36,879.546 L 3594.1,883.788 L 3590.88,887.356 L 3586.89,890.036 L 3583.15,891.476 L 3578.39,892.16 L 3474.42,892.127 L 3469.7,891.249 L 3466.02,889.659 L 3462.74,887.356 L 3459.52,883.788 L 3458.26,881.736 L 3456.98,878.79 L 3456.35,876.467 L 3455.96,873.282 z " style="fill-opacity:1.000000;fill:rgb(77,61,52);stroke:rgb(0,0,0);stroke-width:2"/></g>
<g fill-rule="evenodd"><path d="M 3455.96,640.998 L 3456.01,587.41 L 3456.98,582.702 L 3458.26,579.757 L 3459.52,577.705 L 3462.74,574.137 L 3466.73,571.456 L 3470.47,570.017 L 3475.23,569.333 L 3579.19,569.366 L 3583.92,570.244 L 3586.17,571.108 L 3588.97,572.675 L 3592.6,575.822 L 3595.36,579.757 L 3596.88,583.468 L 3597.66,588.211 L 3597.53,642.599 L 3596.36,647.262 L 3594.1,651.504 L 3590.88,655.072 L 3586.89,657.753 L 3583.15,659.192 L 3578.39,659.876 L 3474.42,659.843 L 3469.7,658.966 L 3466.02,657.375 L 3462.74,655.072 L 3459.52,651.504 L 3458.26,649.453 L 3456.98,646.507 L 3456.35,644.183 L 3455.96,640.998 z " style="fill-opacity:1.000000;fill:rgb(188,95,78);stroke:rgb(0,0,0);stroke-width:2"/></g>
<g fill-rule="evenodd"><path d="M 3602.4,2892.56 L 3602.4,2593.34 L 3775.63,2593.34 L 3775.63,2892.56 L 3602.4,2892.56 z " style="fill-opacity:1.000000;fill:rgb(119,250,203);stroke:rgb(0,0,0);stroke-width:2"/></g>
<g fill-rule="evenodd"><path d="M 3602.4,1366.57 L 3602.4,1067.36 L 3775.63,1067.36 L 3775.63,1366.57 L 3602.4,1366.57 z " style="fill-opacity:1.000000;fill:rgb(108,5,172);stroke:rgb(0,0,0);stroke-width:2"/></g>
<g fill-rule="evenodd"><path d="M 3802.4,2892.56 L 3802.4,2593.34 L 3975.63,2593.34 L 3975.63,2892.56 L 3802.4,2892.56 z " style="fill-opacity:1.000000;fill:rgb(134,33,43);stroke:rgb(0,0,0);stroke-width:2"/></g>
<g fill-rule="evenodd"><path d="M 3802.4,1366.57 L 3802.4,1067.36 L 3975.63,1067.36 L 3975.63,1366.57 L 3802.4,1366.57 z " style="fill-opacity:1.000000;fill:rgb(170,26,85);stroke:rgb(0,0,0);stroke-width:2"/></g>
</svg>
