<?xml version="1.0" standalone="no"?>
<!DOCTYPE svg PUBLIC "-//W3C//DTD SVG 1.1//EN"
"http://www.w3.org/Graphics/SVG/1.1/DTD/svg11.dtd">
<svg width="210.52" height="155.528" viewBox="0 0 4385.83 3240.16" version="1.1"
xmlns="http://www.w3.org/2000/svg"
xmlns:xlink="http://www.w3.org/1999/xlink">
<g fill-rule="evenodd"><path d="M 159.649,1058.99 L 161.189,1053.71 L 165.341,1050.1 L 169.413,1049.21 L 1090.98,1049.21 L 1096.26,1050.76 L 1099.86,1054.92 L 1100.65,1060.36 L 1099.44,1063.86 L 1095.7,1070.33 L 1092.48,1082.36 L 1092.48,1272.83 L 1090.93,1278.11 L 1086.77,1281.71 L 1069.95,1289.11 L 1055.49,1299.01 L 1043.11,1311.4 L 1033.2,1325.85 L 1025.64,1343.94 L 1022.93,1348.72 L 1018.05,1351.27 L 1012.57,1350.79 L 1008.23,1347.42 L 999.077,1325.85 L 989.175,1311.4 L 976.789,1299.01 L 962.335,1289.11 L 946.309,1282.03 L 929.255,1278.02 L 921.975,1277.52 L 903.025,1278.02 L 885.971,1282.03 L 869.947,1289.11 L 855.493,1299.01 L 843.107,1311.4 L 833.205,1325.85 L 826.129,1341.88 L 823.379,1353.57 L 820.779,1358.24 L 779.134,1399.88 L 779.134,1470.19 L 820.779,1511.84 L 823.379,1516.51 L 826.129,1528.2 L 833.205,1544.22 L 843.107,1558.68 L 855.493,1571.06 L 869.947,1580.96 L 885.973,1588.04 L 903.025,1592.05 L 910.307,1592.56 L 929.257,1592.05 L 946.309,1588.04 L 962.335,1580.96 L 976.789,1571.06 L 989.175,1558.68 L 999.077,1544.22 L 1006.64,1526.14 L 1009.35,1521.36 L 1014.23,1518.8 L 1019.71,1519.29 L 1024.05,1522.66 L 1033.2,1544.22 L 1043.11,1558.68 L 1055.49,1571.06 L 1069.95,1580.96 L 1085.97,1588.04 L 1103.02,1592.05 L 1110.31,1592.56 L 1129.26,1592.05 L 1146.31,1588.04 L 1162.33,1580.96 L 1176.79,1571.06 L 1189.17,1558.68 L 1199.08,1544.22 L 1206.64,1526.14 L 1209.35,1521.36 L 1214.23,1518.8 L 1219.71,1519.29 L 1224.05,1522.66 L 1233.2,1544.22 L 1243.11,1558.68 L 1255.49,1571.06 L 1269.95,1580.96 L 1285.97,1588.04 L 1303.02,1592.05 L 1310.31,1592.56 L 1329.26,1592.05 L 1346.31,1588.04 L 1362.33,1580.96 L 1376.79,1571.06 L 1389.17,1558.68 L 1399.08,1544.22 L 1406.64,1526.14 L 1409.35,1521.36 L 1414.23,1518.8 L 1419.71,1519.29 L 1424.05,1522.66 L 1433.2,1544.22 L 1443.11,1558.68 L 1455.49,1571.06 L 1469.95,1580.96 L 1485.97,1588.04 L 1503.02,1592.05 L 1510.31,1592.56 L 1529.26,1592.05 L 1546.31,1588.04 L 1562.33,1580.96 L 1576.79,1571.06 L 1589.17,1558.68 L 1599.08,1544.22 L 1606.15,1528.2 L 1608.9,1516.51 L 1611.5,1511.84 L 1653.15,1470.19 L 1653.15,1399.89 L 1611.5,1358.24 L 1608.9,1353.57 L 1606.15,1341.88 L 1599.07,1325.85 L 1589.17,1311.4 L 1576.79,1299.01 L 1562.33,1289.11 L 1546.31,1282.03 L 1529.25,1278.02 L 1521.97,1277.52 L 1503.02,1278.02 L 1485.97,1282.03 L 1469.95,1289.11 L 1455.49,1299.01 L 1443.11,1311.4 L 1433.2,1325.85 L 1425.64,1343.94 L 1422.93,1348.72 L 1418.05,1351.27 L 1412.57,1350.79 L 1408.23,1347.42 L 1399.08,1325.85 L 1389.17,1311.4 L 1376.79,1299.01 L 1362.33,1289.11 L 1346.31,1282.03 L 1329.25,1278.02 L 1321.97,1277.52 L 1303.02,1278.02 L 1285.97,1282.03 L 1269.95,1289.11 L 1255.49,1299.01 L 1243.11,1311.4 L 1233.2,1325.85 L 1225.64,1343.94 L 1222.93,1348.72 L 1218.05,1351.27 L 1212.57,1350.79 L 1208.23,1347.42 L 1199.08,1325.85 L 1188.92,1311.03 L 1187.12,1306.49 L 1187.05,1145.63 L 1188.6,1140.35 L 1192.75,1136.75 L 1196.81,1135.86 L 1878.93,1135.86 L 1884.21,1137.41 L 1887.81,1141.57 L 1888.59,1147.02 L 1882.71,1164.16 L 1881.89,1172.24 L 1881.89,1181.1 L 1921.26,1181.1 L 1921.85,1171.41 L 1923.21,1167.64 L 1925.81,1163.6 L 1928.67,1160.79 L 1932.77,1158.27 L 1936.56,1156.99 L 1940.94,1156.5 L 2042.17,1156.7 L 2046.06,1157.67 L 2049.67,1159.41 L 2052.86,1161.84 L 2055.48,1164.87 L 2057.44,1168.37 L 2058.65,1172.19 L 2059.06,1181.1 L 2098.42,1181.1 L 2098.42,1172.24 L 2097.6,1164.16 L 2091.51,1145.27 L 2093.16,1140.02 L 2097.38,1136.5 L 2111.36,1132.64 L 2122.14,1126.42 L 2210.62,1037.94 L 2215.45,1035.3 L 2217.53,1035.08 L 2278.14,1035.08 L 2283.42,1036.63 L 2339.62,1092.51 L 2342.26,1097.34 L 2342.48,1099.42 L 2342.71,1161.62 L 2346.32,1174.04 L 2352.91,1185.18 L 2362.06,1194.33 L 2373.2,1200.92 L 2385.62,1204.53 L 2388.53,1204.76 L 2450.99,1204.53 L 2463.42,1200.92 L 2474.55,1194.34 L 2485.98,1182.8 L 2487.44,1181.9 L 2492.85,1180.91 L 2496.51,1182.05 L 2498.74,1183.72 L 2559.55,1244.53 L 2570.33,1250.75 L 2582.36,1253.97 L 2685.17,1253.97 L 2690.45,1255.52 L 2694.05,1259.68 L 2694.84,1265.13 L 2692.55,1270.13 L 2688.01,1273.08 L 2671.08,1279.49 L 2664.21,1283.16 L 2653.89,1290.05 L 2647.87,1295 L 2639.09,1303.77 L 2634.15,1309.8 L 2627.98,1319.04 L 2657.87,1348.93 L 2660.59,1342.35 L 2667.45,1332.09 L 2676.18,1323.36 L 2686.45,1316.49 L 2697.86,1311.77 L 2709.97,1309.36 L 2722.32,1309.36 L 2734.43,1311.77 L 2745.84,1316.49 L 2756.1,1323.36 L 2764.83,1332.09 L 2771.7,1342.35 L 2776.42,1353.76 L 2778.83,1365.87 L 2779.13,1470.19 L 2820.78,1511.84 L 2823.38,1516.51 L 2826.13,1528.2 L 2833.2,1544.22 L 2843.11,1558.68 L 2855.49,1571.06 L 2869.95,1580.96 L 2885.97,1588.04 L 2903.02,1592.05 L 2910.31,1592.56 L 2929.26,1592.05 L 2946.31,1588.04 L 2962.33,1580.96 L 2976.79,1571.06 L 2989.17,1558.68 L 2999.08,1544.22 L 3006.64,1526.14 L 3009.35,1521.36 L 3014.23,1518.8 L 3019.71,1519.29 L 3024.05,1522.66 L 3033.2,1544.22 L 3043.11,1558.68 L 3055.49,1571.06 L 3069.95,1580.96 L 3085.97,1588.04 L 3103.02,1592.05 L 3110.31,1592.56 L 3129.26,1592.05 L 3146.31,1588.04 L 3162.33,1580.96 L 3176.79,1571.06 L 3189.17,1558.68 L 3199.08,1544.22 L 3206.64,1526.14 L 3209.35,1521.36 L 3214.23,1518.8 L 3219.71,1519.29 L 3224.05,1522.66 L 3233.2,1544.22 L 3243.11,1558.68 L 3255.49,1571.06 L 3269.95,1580.96 L 3285.97,1588.04 L 3303.02,1592.05 L 3310.31,1592.56 L 3329.26,1592.05 L 3346.31,1588.04 L 3362.33,1580.96 L 3376.79,1571.06 L 3389.17,1558.68 L 3399.08,1544.22 L 3406.64,1526.14 L 3409.35,1521.36 L 3414.23,1518.8 L 3419.71,1519.29 L 3424.05,1522.66 L 3433.2,1544.22 L 3443.11,1558.68 L 3455.49,1571.06 L 3469.95,1580.96 L 3480.4,1585.58 L 3484.6,1589.13 L 3486.22,1594.39 L 3486.22,2801.55 L 3484.67,2806.83 L 3480.51,2810.43 L 3469.95,2815.09 L 3455.49,2825 L 3443.11,2837.38 L 3433.2,2851.84 L 3425.64,2869.92 L 3422.93,2874.7 L 3418.05,2877.26 L 3412.57,2876.77 L 3408.23,2873.4 L 3399.08,2851.84 L 3389.17,2837.38 L 3376.79,2824.99 L 3362.33,2815.09 L 3346.31,2808.02 L 3329.25,2804.01 L 3321.97,2803.5 L 3303.02,2804.01 L 3285.97,2808.02 L 3269.95,2815.09 L 3255.49,2825 L 3243.11,2837.38 L 3233.2,2851.84 L 3225.64,2869.92 L 3222.93,2874.7 L 3218.05,2877.26 L 3212.57,2876.77 L 3208.23,2873.4 L 3199.08,2851.84 L 3189.17,2837.38 L 3176.79,2824.99 L 3162.33,2815.09 L 3146.31,2808.02 L 3129.25,2804.01 L 3121.97,2803.5 L 3103.02,2804.01 L 3085.97,2808.02 L 3069.95,2815.09 L 3055.49,2825 L 3043.11,2837.38 L 3033.2,2851.84 L 3025.64,2869.92 L 3022.93,2874.7 L 3018.05,2877.26 L 3012.57,2876.77 L 3008.23,2873.4 L 2999.08,2851.84 L 2989.17,2837.38 L 2976.79,2824.99 L 2962.33,2815.09 L 2946.31,2808.02 L 2929.25,2804.01 L 2921.97,2803.5 L 2903.02,2804.01 L 2885.97,2808.02 L 2869.95,2815.09 L 2855.49,2825 L 2843.11,2837.38 L 2833.2,2851.84 L 2826.13,2867.86 L 2823.38,2879.55 L 2820.78,2884.22 L 2779.13,2925.87 L 2779.13,2996.18 L 2820.78,3037.82 L 2823.38,3042.49 L 2826.13,3054.18 L 2831.77,3066.96 L 2832.48,3072.41 L 2830.22,3077.3 L 2825.59,3080.27 L 2822.84,3080.67 L 2811.99,3080.67 L 2806.71,3079.12 L 2774.42,3047.14 L 2771.7,3053.71 L 2764.83,3063.98 L 2756.1,3072.71 L 2745.84,3079.57 L 2734.43,3084.29 L 2722.32,3086.7 L 2709.97,3086.7 L 2697.86,3084.29 L 2686.45,3079.57 L 2676.18,3072.71 L 2667.45,3063.98 L 2660.59,3053.71 L 2657.87,3047.14 L 2627.19,3077.81 L 2623.04,3080.27 L 2609.44,3080.67 L 2604.16,3079.12 L 2600.56,3074.96 L 2599.78,3069.51 L 2600.51,3066.96 L 2606.15,3054.18 L 2608.9,3042.49 L 2611.5,3037.82 L 2653.15,2996.18 L 2653.15,2925.87 L 2611.5,2884.22 L 2608.9,2879.55 L 2606.15,2867.86 L 2599.08,2851.84 L 2589.17,2837.38 L 2576.79,2824.99 L 2562.33,2815.09 L 2546.31,2808.02 L 2529.25,2804.01 L 2521.97,2803.5 L 2503.02,2804.01 L 2485.97,2808.02 L 2469.95,2815.09 L 2455.49,2825 L 2443.11,2837.38 L 2433.2,2851.84 L 2425.64,2869.92 L 2422.93,2874.7 L 2418.05,2877.26 L 2412.57,2876.77 L 2408.23,2873.4 L 2399.08,2851.84 L 2389.17,2837.38 L 2376.79,2824.99 L 2362.33,2815.09 L 2346.31,2808.02 L 2329.25,2804.01 L 2321.97,2803.5 L 2303.02,2804.01 L 2285.97,2808.02 L 2269.95,2815.09 L 2255.49,2825 L 2243.11,2837.38 L 2233.2,2851.84 L 2225.64,2869.92 L 2222.93,2874.7 L 2218.05,2877.26 L 2212.57,2876.77 L 2208.23,2873.4 L 2199.08,2851.84 L 2189.17,2837.38 L 2176.79,2824.99 L 2162.33,2815.09 L 2146.31,2808.02 L 2129.25,2804.01 L 2121.97,2803.5 L 2103.02,2804.01 L 2085.97,2808.02 L 2069.95,2815.09 L 2055.49,2825 L 2043.11,2837.38 L 2033.2,2851.84 L 2025.64,2869.92 L 2022.93,2874.7 L 2018.05,2877.26 L 2012.57,2876.77 L 2008.23,2873.4 L 1999.08,2851.84 L 1989.17,2837.38 L 1976.79,2824.99 L 1962.33,2815.09 L 1946.31,2808.02 L 1929.25,2804.01 L 1921.97,2803.5 L 1903.02,2804.01 L 1885.97,2808.02 L 1869.95,2815.09 L 1855.49,2825 L 1843.11,2837.38 L 1833.2,2851.84 L 1826.13,2867.86 L 1823.38,2879.55 L 1820.78,2884.22 L 1779.13,2925.87 L 1779.13,2996.18 L 1820.78,3037.82 L 1823.38,3042.49 L 1826.13,3054.18 L 1831.77,3066.96 L 1832.48,3072.41 L 1830.22,3077.3 L 1825.59,3080.27 L 1822.84,3080.67 L 1811.99,3080.67 L 1806.71,3079.12 L 1774.42,3047.14 L 1771.7,3053.71 L 1764.83,3063.98 L 1756.1,3072.71 L 1745.84,3079.57 L 1734.43,3084.29 L 1722.32,3086.7 L 1709.97,3086.7 L 1697.86,3084.29 L 1686.45,3079.57 L 1676.18,3072.71 L 1667.45,3063.98 L 1660.59,3053.71 L 1657.87,3047.14 L 1627.19,3077.81 L 1623.04,3080.27 L 1609.44,3080.67 L 1604.16,3079.12 L 1600.56,3074.96 L 1599.78,3069.51 L 1600.51,3066.96 L 1606.15,3054.18 L 1608.9,3042.49 L 1611.5,3037.82 L 1653.15,2996.18 L 1653.15,2925.87 L 1611.5,2884.22 L 1608.9,2879.55 L 1606.15,2867.86 L 1599.08,2851.84 L 1589.17,2837.38 L 1576.79,2824.99 L 1562.33,2815.09 L 1546.31,2808.02 L 1529.25,2804.01 L 1521.97,2803.5 L 1503.02,2804.01 L 1485.97,2808.02 L 1469.95,2815.09 L 1455.49,2825 L 1443.11,2837.38 L 1433.2,2851.84 L 1425.64,2869.92 L 1422.93,2874.7 L 1418.05,2877.26 L 1412.57,2876.77 L 1408.23,2873.4 L 1399.08,2851.84 L 1389.17,2837.38 L 1376.79,2824.99 L 1362.33,2815.09 L 1346.31,2808.02 L 1329.25,2804.01 L 1321.97,2803.5 L 1303.02,2804.01 L 1285.97,2808.02 L 1269.95,2815.09 L 1255.49,2825 L 1243.11,2837.38 L 1233.2,2851.84 L 1225.64,2869.92 L 1222.93,2874.7 L 1218.05,2877.26 L 1212.57,2876.77 L 1208.23,2873.4 L 1199.08,2851.84 L 1189.17,2837.38 L 1176.79,2824.99 L 1162.33,2815.09 L 1146.31,2808.02 L 1129.25,2804.01 L 1121.97,2803.5 L 1103.02,2804.01 L 1085.97,2808.02 L 1069.95,2815.09 L 1055.49,2825 L 1043.11,2837.38 L 1033.2,2851.84 L 1025.64,2869.92 L 1022.93,2874.7 L 1018.05,2877.26 L 1012.57,2876.77 L 1008.23,2873.4 L 999.077,2851.84 L 989.175,2837.38 L 976.789,2824.99 L 962.335,2815.09 L 946.309,2808.02 L 929.255,2804.01 L 921.975,2803.5 L 903.025,2804.01 L 885.971,2808.02 L 869.947,2815.09 L 855.493,2825 L 843.107,2837.38 L 833.205,2851.84 L 826.129,2867.86 L 823.379,2879.55 L 820.779,2884.22 L 779.134,2925.87 L 779.134,2996.18 L 820.779,3037.82 L 823.379,3042.49 L 826.129,3054.18 L 831.771,3066.96 L 832.485,3072.41 L 830.219,3077.3 L 825.591,3080.27 L 822.839,3080.67 L 811.993,3080.67 L 806.713,3079.12 L 774.417,3047.14 L 771.696,3053.71 L 764.834,3063.98 L 756.102,3072.71 L 745.836,3079.57 L 734.426,3084.29 L 722.316,3086.7 L 709.968,3086.7 L 697.858,3084.29 L 686.448,3079.57 L 676.182,3072.71 L 667.45,3063.98 L 660.588,3053.71 L 657.866,3047.14 L 627.193,3077.81 L 623.041,3080.27 L 609.443,3080.67 L 604.163,3079.12 L 600.561,3074.96 L 599.777,3069.51 L 600.511,3066.96 L 606.151,3054.18 L 608.903,3042.49 L 611.503,3037.82 L 653.15,2996.18 L 653.15,2925.87 L 611.503,2884.22 L 608.903,2879.55 L 606.153,2867.86 L 599.077,2851.84 L 589.175,2837.38 L 576.789,2824.99 L 562.335,2815.09 L 546.309,2808.02 L 529.255,2804.01 L 521.975,2803.5 L 503.025,2804.01 L 485.971,2808.02 L 469.947,2815.09 L 455.493,2825 L 443.107,2837.38 L 433.205,2851.84 L 425.797,2869.27 L 423.081,2874.06 L 418.207,2876.61 L 412.727,2876.13 L 408.379,2872.76 L 401.463,2855.97 L 398.511,2850.45 L 391.619,2840.14 L 387.647,2835.3 L 378.873,2826.52 L 374.033,2822.55 L 363.717,2815.66 L 358.197,2812.71 L 346.735,2807.96 L 340.743,2806.14 L 328.573,2803.72 L 322.345,2803.11 L 309.937,2803.11 L 303.709,2803.72 L 291.539,2806.14 L 285.547,2807.96 L 274.085,2812.71 L 268.563,2815.66 L 258.247,2822.55 L 253.409,2826.52 L 244.635,2835.3 L 240.663,2840.14 L 233.769,2850.45 L 230.819,2855.97 L 226.071,2867.44 L 224.253,2873.43 L 221.833,2885.6 L 221.219,2891.83 L 221.219,3070.9 L 219.669,3076.18 L 215.511,3079.79 L 211.455,3080.67 L 173.099,3080.67 L 167.819,3079.12 L 164.217,3074.96 L 163.335,3070.92 L 159.649,1058.99M 212.165,2316.66 L 212.669,2322.22 L 216.655,2335.01 L 223.585,2346.47 L 237.719,2360.57 L 238.651,2365.99 L 237.071,2370.29 L 232.493,2377.15 L 226.851,2390.77 L 223.975,2405.22 L 223.975,2419.97 L 226.851,2434.43 L 232.493,2448.05 L 240.683,2460.31 L 251.109,2470.73 L 263.367,2478.92 L 276.987,2484.56 L 291.447,2487.44 L 361.307,2487.44 L 375.767,2484.56 L 389.387,2478.92 L 401.645,2470.73 L 412.071,2460.31 L 420.261,2448.05 L 425.903,2434.43 L 428.779,2419.97 L 428.779,2405.23 L 425.903,2390.77 L 420.261,2377.14 L 412.069,2364.89 L 401.645,2354.46 L 391.917,2347.96 L 388.389,2343.74 L 387.703,2338.28 L 392.841,2322.22 L 393.345,2316.66 L 393.345,2236.88 L 392.841,2231.32 L 388.855,2218.53 L 377.153,2200.11 L 377.545,2194.62 L 381.927,2188.99 L 388.855,2177.53 L 392.841,2164.74 L 393.345,2159.18 L 393.345,2079.4 L 392.841,2073.84 L 387.581,2055.95 L 389.275,2050.71 L 391.917,2048.1 L 401.645,2041.6 L 412.071,2031.17 L 420.261,2018.91 L 425.903,2005.29 L 428.779,1990.83 L 428.779,1976.09 L 425.903,1961.63 L 420.261,1948.01 L 412.069,1935.75 L 401.645,1925.33 L 389.387,1917.14 L 375.767,1911.5 L 361.307,1908.62 L 291.447,1908.62 L 276.987,1911.5 L 263.367,1917.14 L 251.109,1925.33 L 240.683,1935.75 L 232.493,1948.01 L 226.851,1961.63 L 223.975,1976.09 L 223.975,1990.83 L 226.851,2005.29 L 232.493,2018.91 L 237.071,2025.76 L 238.715,2031.02 L 237.259,2036.32 L 223.585,2049.59 L 216.655,2061.05 L 212.669,2073.84 L 212.165,2079.4 L 212.165,2159.18 L 212.669,2164.74 L 216.655,2177.53 L 228.357,2195.95 L 227.965,2201.44 L 223.585,2207.07 L 216.655,2218.53 L 212.669,2231.32 L 212.165,2236.88 L 212.165,2316.66M 221.613,1503.86 L 222.119,1511.14 L 226.129,1528.2 L 233.205,1544.22 L 243.107,1558.68 L 255.493,1571.06 L 269.947,1580.96 L 285.973,1588.04 L 303.025,1592.05 L 310.307,1592.56 L 329.257,1592.05 L 346.309,1588.04 L 362.335,1580.96 L 376.789,1571.06 L 389.175,1558.68 L 399.077,1544.22 L 406.637,1526.14 L 409.353,1521.36 L 414.227,1518.8 L 419.707,1519.29 L 424.055,1522.66 L 433.205,1544.22 L 443.107,1558.68 L 455.493,1571.06 L 469.947,1580.96 L 485.973,1588.04 L 503.025,1592.05 L 510.307,1592.56 L 529.257,1592.05 L 546.309,1588.04 L 562.335,1580.96 L 576.789,1571.06 L 589.175,1558.68 L 599.077,1544.22 L 606.153,1528.2 L 608.903,1516.51 L 611.503,1511.84 L 653.15,1470.19 L 653.15,1399.89 L 611.503,1358.24 L 608.903,1353.57 L 606.153,1341.88 L 599.075,1325.85 L 589.175,1311.4 L 576.789,1299.01 L 562.335,1289.11 L 546.309,1282.03 L 529.255,1278.02 L 521.975,1277.52 L 503.025,1278.02 L 485.971,1282.03 L 469.947,1289.11 L 455.493,1299.01 L 443.107,1311.4 L 433.205,1325.85 L 425.645,1343.94 L 422.927,1348.72 L 418.055,1351.27 L 412.575,1350.79 L 408.227,1347.42 L 399.077,1325.85 L 389.175,1311.4 L 376.789,1299.01 L 362.335,1289.11 L 346.309,1282.03 L 329.255,1278.02 L 321.975,1277.52 L 303.025,1278.02 L 285.971,1282.03 L 269.947,1289.11 L 255.493,1299.01 L 243.107,1311.4 L 233.205,1325.85 L 226.129,1341.88 L 222.119,1358.93 L 221.613,1366.21 L 221.613,1503.86M 472.007,2237.92 L 472.513,2243.48 L 476.497,2256.27 L 483.427,2267.73 L 492.897,2277.2 L 504.361,2284.13 L 517.149,2288.12 L 522.707,2288.62 L 602.489,2288.62 L 608.047,2288.12 L 620.835,2284.13 L 632.297,2277.2 L 641.769,2267.73 L 648.699,2256.27 L 652.683,2243.48 L 653.189,2237.92 L 653.189,2158.14 L 652.683,2152.58 L 648.699,2139.79 L 641.769,2128.33 L 632.297,2118.86 L 620.835,2111.93 L 608.047,2107.94 L 602.489,2107.44 L 522.707,2107.44 L 517.149,2107.94 L 504.361,2111.93 L 492.897,2118.86 L 483.427,2128.33 L 476.497,2139.79 L 472.513,2152.58 L 472.007,2158.14 L 472.007,2237.92M 476.337,2396.15 L 479.139,2410.23 L 484.631,2423.49 L 492.607,2435.43 L 502.757,2445.58 L 514.693,2453.55 L 527.955,2459.05 L 542.035,2461.85 L 587.885,2461.85 L 601.965,2459.05 L 615.227,2453.55 L 627.163,2445.58 L 637.313,2435.43 L 645.287,2423.49 L 650.781,2410.23 L 653.581,2396.15 L 653.581,2381.8 L 650.781,2367.72 L 646.965,2358.5 L 645.287,2354.46 L 637.313,2342.52 L 627.161,2332.37 L 615.227,2324.39 L 601.963,2318.9 L 587.885,2316.1 L 542.035,2316.1 L 527.955,2318.9 L 514.693,2324.39 L 502.757,2332.37 L 492.607,2342.52 L 484.631,2354.46 L 479.139,2367.72 L 476.337,2381.8 L 476.337,2396.15M 476.337,2014.26 L 479.139,2028.34 L 484.631,2041.6 L 492.607,2053.54 L 502.757,2063.69 L 514.693,2071.66 L 527.955,2077.16 L 542.035,2079.96 L 587.885,2079.96 L 601.965,2077.16 L 615.227,2071.66 L 627.163,2063.69 L 637.313,2053.54 L 645.287,2041.6 L 650.781,2028.34 L 653.581,2014.26 L 653.581,1999.91 L 650.781,1985.83 L 648.317,1979.88 L 645.287,1972.57 L 637.313,1960.63 L 627.161,1950.48 L 615.227,1942.5 L 601.963,1937.01 L 587.885,1934.21 L 542.035,1934.21 L 527.955,1937.01 L 514.693,1942.5 L 502.757,1950.48 L 492.607,1960.63 L 484.631,1972.57 L 479.139,1985.83 L 476.337,1999.91 L 476.337,2014.26M 614.909,2837.06 L 618.823,2839.02 L 620.873,2839.16 L 624.365,2841.41 L 653.15,2870.19 L 653.454,2847.72 L 655.804,2842.04 L 660.15,2837.69 L 665.826,2835.34 L 766.458,2835.34 L 772.134,2837.69 L 776.48,2842.04 L 778.83,2847.72 L 779.134,2870.19 L 807.915,2841.41 L 816.939,2836.62 L 815.869,2832.44 L 811.635,2822.81 L 804.853,2813.75 L 797.255,2806.47 L 787.521,2800.7 L 777.719,2796.88 L 766.517,2795.27 L 665.765,2795.27 L 661.513,2795.5 L 650.547,2798.3 L 640.919,2802.54 L 631.859,2809.32 L 624.585,2816.91 L 618.809,2826.65 L 614.909,2837.06M 615.343,1559.44 L 616.411,1563.62 L 620.647,1573.25 L 627.429,1582.31 L 635.027,1589.59 L 644.759,1595.36 L 650.545,1597.76 L 654.561,1599.17 L 665.765,1600.79 L 766.517,1600.79 L 770.767,1600.56 L 781.733,1597.76 L 791.363,1593.52 L 800.423,1586.74 L 804.853,1582.31 L 807.697,1579.14 L 813.473,1569.41 L 817.287,1559.61 L 817.373,1559 L 813.457,1557.04 L 811.407,1556.9 L 807.915,1554.65 L 779.134,1525.87 L 778.83,1548.35 L 776.48,1554.02 L 772.134,1558.37 L 766.458,1560.72 L 665.826,1560.72 L 660.15,1558.37 L 655.804,1554.02 L 653.454,1548.35 L 653.15,1525.87 L 624.365,1554.65 L 615.343,1559.44M 627.977,1319.04 L 657.867,1348.93 L 660.588,1342.35 L 667.45,1332.09 L 676.182,1323.36 L 686.448,1316.49 L 697.858,1311.77 L 709.968,1309.36 L 722.316,1309.36 L 734.426,1311.77 L 745.836,1316.49 L 756.102,1323.36 L 764.834,1332.09 L 771.696,1342.35 L 774.416,1348.92 L 804.305,1319.04 L 798.133,1309.8 L 793.187,1303.77 L 784.413,1295 L 778.387,1290.05 L 768.071,1283.16 L 761.195,1279.49 L 749.733,1274.74 L 742.271,1272.47 L 730.101,1270.05 L 722.345,1269.29 L 709.937,1269.29 L 702.181,1270.05 L 690.009,1272.47 L 682.549,1274.74 L 671.085,1279.49 L 664.211,1283.16 L 653.893,1290.05 L 647.869,1295 L 639.095,1303.77 L 634.149,1309.8 L 627.977,1319.04M 865.707,2434.77 L 866.213,2440.33 L 870.197,2453.12 L 877.127,2464.58 L 886.599,2474.05 L 898.061,2480.98 L 910.849,2484.97 L 916.407,2485.47 L 996.189,2485.47 L 1001.75,2484.97 L 1014.53,2480.98 L 1026,2474.05 L 1035.47,2464.58 L 1042.4,2453.12 L 1045.4,2443.48 L 1048.45,2438.9 L 1053.49,2436.7 L 1058.92,2437.57 L 1063.02,2441.24 L 1067.05,2453.12 L 1073.98,2464.58 L 1083.45,2474.05 L 1094.91,2480.98 L 1107.7,2484.97 L 1113.26,2485.47 L 1193.04,2485.47 L 1198.6,2484.97 L 1211.38,2480.98 L 1222.85,2474.05 L 1232.32,2464.58 L 1239.25,2453.12 L 1242.25,2443.48 L 1245.3,2438.9 L 1250.34,2436.7 L 1255.77,2437.57 L 1259.87,2441.24 L 1263.9,2453.12 L 1270.83,2464.58 L 1280.3,2474.05 L 1291.76,2480.98 L 1304.55,2484.97 L 1310.11,2485.47 L 1389.89,2485.47 L 1395.45,2484.97 L 1408.23,2480.98 L 1419.7,2474.05 L 1429.17,2464.58 L 1436.1,2453.12 L 1440.08,2440.33 L 1440.59,2434.77 L 1440.59,2354.99 L 1440.08,2349.43 L 1436.1,2336.64 L 1429.17,2325.18 L 1419.7,2315.71 L 1408.23,2308.78 L 1395.45,2304.79 L 1389.89,2304.29 L 1310.11,2304.29 L 1304.55,2304.79 L 1291.76,2308.78 L 1280.3,2315.71 L 1270.83,2325.18 L 1263.9,2336.64 L 1260.89,2346.28 L 1257.84,2350.86 L 1252.8,2353.06 L 1247.37,2352.19 L 1243.27,2348.52 L 1239.25,2336.64 L 1232.32,2325.18 L 1222.85,2315.71 L 1211.38,2308.78 L 1198.6,2304.79 L 1193.04,2304.29 L 1113.26,2304.29 L 1107.7,2304.79 L 1094.91,2308.78 L 1083.45,2315.71 L 1073.98,2325.18 L 1067.05,2336.64 L 1064.04,2346.28 L 1060.99,2350.86 L 1055.95,2353.06 L 1050.52,2352.19 L 1046.42,2348.52 L 1042.4,2336.64 L 1035.47,2325.18 L 1026,2315.71 L 1014.53,2308.78 L 1001.75,2304.79 L 996.189,2304.29 L 916.407,2304.29 L 910.851,2304.79 L 898.061,2308.78 L 886.599,2315.71 L 877.127,2325.18 L 870.197,2336.64 L 866.213,2349.43 L 865.707,2354.99 L 865.707,2434.77M 1614.91,2837.06 L 1618.82,2839.02 L 1620.87,2839.16 L 1624.36,2841.41 L 1653.15,2870.19 L 1653.45,2847.72 L 1655.8,2842.04 L 1660.15,2837.69 L 1665.83,2835.34 L 1766.46,2835.34 L 1772.13,2837.69 L 1776.48,2842.04 L 1778.83,2847.72 L 1779.13,2870.19 L 1807.91,2841.41 L 1816.94,2836.62 L 1815.87,2832.44 L 1811.63,2822.81 L 1804.85,2813.75 L 1797.25,2806.47 L 1787.52,2800.7 L 1777.72,2796.88 L 1766.52,2795.27 L 1665.76,2795.27 L 1661.51,2795.5 L 1650.55,2798.3 L 1640.92,2802.54 L 1631.86,2809.32 L 1624.58,2816.91 L 1618.81,2826.65 L 1614.91,2837.06M 1615.34,1559.44 L 1616.41,1563.62 L 1620.65,1573.25 L 1627.43,1582.31 L 1635.03,1589.59 L 1644.76,1595.36 L 1650.54,1597.76 L 1654.56,1599.17 L 1665.76,1600.79 L 1766.52,1600.79 L 1770.77,1600.56 L 1781.73,1597.76 L 1791.36,1593.52 L 1800.42,1586.74 L 1804.85,1582.31 L 1807.7,1579.14 L 1813.47,1569.41 L 1817.29,1559.61 L 1817.37,1559 L 1813.46,1557.04 L 1811.41,1556.9 L 1807.91,1554.65 L 1779.13,1525.87 L 1778.83,1548.35 L 1776.48,1554.02 L 1772.13,1558.37 L 1766.46,1560.72 L 1665.83,1560.72 L 1660.15,1558.37 L 1655.8,1554.02 L 1653.45,1548.35 L 1653.15,1525.87 L 1624.36,1554.65 L 1615.34,1559.44M 1627.98,1319.04 L 1657.87,1348.93 L 1660.59,1342.35 L 1667.45,1332.09 L 1676.18,1323.36 L 1686.45,1316.49 L 1697.86,1311.77 L 1709.97,1309.36 L 1722.32,1309.36 L 1734.43,1311.77 L 1745.84,1316.49 L 1756.1,1323.36 L 1764.83,1332.09 L 1771.7,1342.35 L 1774.42,1348.92 L 1804.3,1319.04 L 1798.13,1309.8 L 1793.19,1303.77 L 1784.41,1295 L 1778.39,1290.05 L 1768.07,1283.16 L 1761.19,1279.49 L 1749.73,1274.74 L 1742.27,1272.47 L 1730.1,1270.05 L 1722.34,1269.29 L 1709.94,1269.29 L 1702.18,1270.05 L 1690.01,1272.47 L 1682.55,1274.74 L 1671.08,1279.49 L 1664.21,1283.16 L 1653.89,1290.05 L 1647.87,1295 L 1639.09,1303.77 L 1634.15,1309.8 L 1627.98,1319.04M 1779.13,1470.19 L 1820.78,1511.84 L 1823.38,1516.51 L 1826.13,1528.2 L 1833.2,1544.22 L 1843.11,1558.68 L 1855.49,1571.06 L 1869.95,1580.96 L 1885.97,1588.04 L 1903.02,1592.05 L 1910.31,1592.56 L 1929.26,1592.05 L 1946.31,1588.04 L 1962.33,1580.96 L 1976.79,1571.06 L 1989.17,1558.68 L 1999.08,1544.22 L 2006.64,1526.14 L 2009.35,1521.36 L 2014.23,1518.8 L 2019.71,1519.29 L 2024.05,1522.66 L 2033.2,1544.22 L 2043.11,1558.68 L 2055.49,1571.06 L 2069.95,1580.96 L 2085.97,1588.04 L 2103.02,1592.05 L 2110.31,1592.56 L 2129.26,1592.05 L 2146.31,1588.04 L 2162.33,1580.96 L 2176.79,1571.06 L 2189.17,1558.68 L 2199.08,1544.22 L 2206.64,1526.14 L 2209.35,1521.36 L 2214.23,1518.8 L 2219.71,1519.29 L 2224.05,1522.66 L 2233.2,1544.22 L 2243.11,1558.68 L 2255.49,1571.06 L 2269.95,1580.96 L 2285.97,1588.04 L 2303.02,1592.05 L 2310.31,1592.56 L 2329.26,1592.05 L 2346.31,1588.04 L 2362.33,1580.96 L 2376.79,1571.06 L 2389.17,1558.68 L 2399.08,1544.22 L 2406.64,1526.14 L 2409.35,1521.36 L 2414.23,1518.8 L 2419.71,1519.29 L 2424.05,1522.66 L 2433.2,1544.22 L 2443.11,1558.68 L 2455.49,1571.06 L 2469.95,1580.96 L 2485.97,1588.04 L 2503.02,1592.05 L 2510.31,1592.56 L 2529.26,1592.05 L 2546.31,1588.04 L 2562.33,1580.96 L 2576.79,1571.06 L 2589.17,1558.68 L 2599.08,1544.22 L 2606.15,1528.2 L 2608.9,1516.51 L 2611.5,1511.84 L 2653.15,1470.19 L 2653.15,1399.89 L 2611.5,1358.24 L 2608.9,1353.57 L 2606.15,1341.88 L 2599.08,1325.85 L 2589.17,1311.4 L 2576.79,1299.01 L 2562.33,1289.11 L 2546.31,1282.03 L 2529.25,1278.02 L 2521.97,1277.52 L 2503.02,1278.02 L 2485.97,1282.03 L 2469.95,1289.11 L 2455.49,1299.01 L 2443.11,1311.4 L 2433.2,1325.85 L 2425.64,1343.94 L 2422.93,1348.72 L 2418.05,1351.27 L 2412.57,1350.79 L 2408.23,1347.42 L 2399.08,1325.85 L 2389.17,1311.4 L 2376.79,1299.01 L 2362.33,1289.11 L 2346.31,1282.03 L 2329.25,1278.02 L 2321.97,1277.52 L 2303.02,1278.02 L 2285.97,1282.03 L 2269.95,1289.11 L 2255.49,1299.01 L 2243.11,1311.4 L 2233.2,1325.85 L 2225.64,1343.94 L 2222.93,1348.72 L 2218.05,1351.27 L 2212.57,1350.79 L 2208.23,1347.42 L 2199.08,1325.85 L 2189.17,1311.4 L 2176.79,1299.01 L 2162.33,1289.11 L 2146.31,1282.03 L 2129.25,1278.02 L 2110.31,1277.52 L 2103.02,1278.02 L 2093.58,1280.24 L 2088.09,1279.94 L 2083.63,1276.72 L 2081.62,1271.6 L 2082.7,1266.21 L 2086.01,1262.27 L 2093.25,1250.52 L 2097.6,1237.42 L 2098.42,1229.33 L 2098.42,1220.47 L 2059.06,1220.47 L 2058.79,1228.59 L 2057.11,1233.93 L 2053.43,1239.17 L 2048.27,1242.95 L 2044.53,1244.39 L 2040.57,1245.04 L 2009.84,1245.08 L 2009.84,1284.45 L 2045.8,1284.19 L 2051.21,1285.2 L 2055.21,1288.97 L 2056.55,1294.31 L 2054.78,1299.52 L 2043.11,1311.4 L 2033.2,1325.85 L 2025.64,1343.94 L 2022.93,1348.72 L 2018.05,1351.27 L 2012.57,1350.79 L 2008.23,1347.42 L 1999.08,1325.85 L 1989.17,1311.4 L 1976.79,1299.01 L 1974.1,1297.17 L 1970.62,1292.91 L 1969.99,1287.44 L 1970.47,1286.47 L 1970.47,1245.08 L 1939.74,1245.04 L 1935.79,1244.39 L 1932.04,1242.95 L 1926.88,1239.17 L 1923.21,1233.93 L 1921.52,1228.59 L 1921.26,1220.47 L 1881.89,1220.47 L 1881.89,1229.33 L 1882.71,1237.42 L 1887.06,1250.52 L 1898.96,1269.12 L 1898.57,1274.61 L 1895.27,1279.01 L 1891.65,1280.7 L 1885.97,1282.03 L 1869.95,1289.11 L 1855.49,1299.01 L 1843.11,1311.4 L 1833.2,1325.85 L 1826.13,1341.88 L 1823.38,1353.57 L 1820.78,1358.24 L 1779.13,1399.88 L 1779.13,1470.19M 2563.59,1960.02 L 2566.08,1975.77 L 2571.02,1990.95 L 2578.26,2005.17 L 2580.67,2008.49 L 2609.47,1979.69 L 2606.7,1973.24 L 2604.63,1966.34 L 2603.38,1959.24 L 2602.96,1952.04 L 2603.38,1944.84 L 2604.63,1937.74 L 2606.7,1930.83 L 2609.47,1924.39 L 2580.67,1895.59 L 2578.26,1898.91 L 2571.02,1913.12 L 2566.08,1928.3 L 2563.59,1944.06 L 2563.59,1960.02M 2571.42,2201.39 L 2572.64,2210.63 L 2577.4,2222.14 L 2584.98,2232.01 L 2594.86,2239.59 L 2606.36,2244.36 L 2615.61,2245.57 L 2714.31,2245.57 L 2723.55,2244.36 L 2735.06,2239.59 L 2744.93,2232.01 L 2752.51,2222.14 L 2757.28,2210.63 L 2758.49,2201.39 L 2758.49,2102.69 L 2757.28,2093.44 L 2752.51,2081.94 L 2744.93,2072.06 L 2735.06,2064.48 L 2723.55,2059.72 L 2717.66,2058.94 L 2712.63,2056.72 L 2709.6,2052.13 L 2709.54,2046.62 L 2712.46,2041.96 L 2721.41,2036.33 L 2692.61,2007.53 L 2685.79,2010.44 L 2678.87,2012.46 L 2671.76,2013.67 L 2664.56,2014.04 L 2657.36,2013.57 L 2650.27,2012.27 L 2637.31,2007.53 L 2608.51,2036.33 L 2615.41,2040.56 L 2619.41,2044.34 L 2620.74,2049.68 L 2618.96,2054.89 L 2614.65,2058.31 L 2606.36,2059.72 L 2594.86,2064.48 L 2584.98,2072.06 L 2577.4,2081.94 L 2572.64,2093.44 L 2571.42,2102.69 L 2571.42,2201.39M 2571.42,1759.4 L 2573.73,1773.94 L 2578.28,1787.94 L 2584.96,1801.06 L 2593.61,1812.97 L 2604.02,1823.38 L 2615.94,1832.04 L 2629.41,1838.87 L 2633.32,1841.73 L 2635.47,1846.8 L 2634.53,1852.22 L 2630.81,1856.28 L 2626.05,1858.09 L 2611.83,1865.34 L 2608.51,1867.75 L 2637.31,1896.55 L 2650.27,1891.8 L 2657.36,1890.51 L 2664.56,1890.04 L 2671.76,1890.41 L 2678.87,1891.62 L 2685.79,1893.64 L 2692.61,1896.55 L 2721.41,1867.75 L 2718.09,1865.34 L 2701.13,1857.2 L 2696.59,1854.1 L 2694.45,1849.03 L 2695.39,1843.61 L 2699.11,1839.56 L 2713.98,1832.04 L 2725.89,1823.38 L 2736.3,1812.97 L 2744.96,1801.06 L 2751.64,1787.94 L 2756.19,1773.94 L 2758.49,1759.4 L 2758.49,1744.68 L 2756.19,1730.13 L 2751.64,1716.13 L 2744.96,1703.01 L 2736.3,1691.1 L 2725.89,1680.69 L 2713.98,1672.04 L 2700.86,1665.36 L 2686.86,1660.81 L 2672.32,1658.5 L 2657.6,1658.5 L 2643.06,1660.81 L 2629.05,1665.36 L 2615.94,1672.04 L 2604.02,1680.69 L 2593.61,1691.1 L 2584.96,1703.01 L 2578.28,1716.13 L 2573.73,1730.13 L 2571.42,1744.68 L 2571.42,1759.4M 2614.91,2837.06 L 2618.82,2839.02 L 2620.87,2839.16 L 2624.36,2841.41 L 2653.15,2870.19 L 2653.45,2847.72 L 2655.8,2842.04 L 2660.15,2837.69 L 2665.83,2835.34 L 2766.46,2835.34 L 2772.13,2837.69 L 2776.48,2842.04 L 2778.83,2847.72 L 2779.13,2870.19 L 2807.91,2841.41 L 2816.94,2836.62 L 2815.87,2832.44 L 2811.63,2822.81 L 2804.85,2813.75 L 2797.25,2806.47 L 2787.52,2800.7 L 2777.72,2796.88 L 2766.52,2795.27 L 2665.76,2795.27 L 2661.51,2795.5 L 2650.55,2798.3 L 2640.92,2802.54 L 2631.86,2809.32 L 2624.58,2816.91 L 2618.81,2826.65 L 2614.91,2837.06M 2615.34,1559.44 L 2616.41,1563.62 L 2620.65,1573.25 L 2627.43,1582.31 L 2635.03,1589.59 L 2644.76,1595.36 L 2650.54,1597.76 L 2654.56,1599.17 L 2665.76,1600.79 L 2766.52,1600.79 L 2770.77,1600.56 L 2781.73,1597.76 L 2791.36,1593.52 L 2800.42,1586.74 L 2804.85,1582.31 L 2807.7,1579.14 L 2813.47,1569.41 L 2817.29,1559.61 L 2817.37,1559 L 2813.46,1557.04 L 2811.41,1556.9 L 2807.91,1554.65 L 2779.13,1525.87 L 2778.83,1548.35 L 2776.48,1554.02 L 2772.13,1558.37 L 2766.46,1560.72 L 2665.83,1560.72 L 2660.15,1558.37 L 2655.8,1554.02 L 2653.45,1548.35 L 2653.15,1525.87 L 2624.36,1554.65 L 2615.34,1559.44M 2720.45,1924.39 L 2723.22,1930.83 L 2725.29,1937.74 L 2726.54,1944.84 L 2726.96,1952.04 L 2726.54,1959.24 L 2725.29,1966.34 L 2723.22,1973.24 L 2720.45,1979.69 L 2749.25,2008.49 L 2751.66,2005.17 L 2758.9,1990.95 L 2763.83,1975.77 L 2766.33,1960.02 L 2766.33,1944.06 L 2763.83,1928.3 L 2758.9,1913.12 L 2751.66,1898.91 L 2749.25,1895.59 L 2720.45,1924.39 z " style="fill-opacity:1.000000;fill:rgb(103,198,105);stroke:rgb(0,0,0);stroke-width:2"/></g>
<g fill-rule="evenodd"><path d="M 243.701,2312.2 L 243.786,2239.34 L 245.798,2231.61 L 250.269,2224.99 L 253.929,2221.88 L 258.144,2219.57 L 261.955,2218.33 L 266.721,2217.72 L 339.192,2217.74 L 346.247,2219.13 L 352.556,2222.59 L 356.053,2225.88 L 359.191,2230.53 L 360.944,2235 L 361.797,2240.54 L 361.757,2313.81 L 359.876,2321.57 L 355.518,2328.26 L 351.911,2331.43 L 347.736,2333.81 L 343.166,2335.3 L 338.39,2335.83 L 265.12,2335.72 L 257.41,2333.65 L 250.834,2329.12 L 247.752,2325.43 L 245.48,2321.2 L 244.112,2316.59 L 243.701,2312.2 z " style="fill-opacity:1.000000;fill:rgb(115,81,255);stroke:rgb(0,0,0);stroke-width:2"/></g>
<g fill-rule="evenodd"><path d="M 243.701,2154.72 L 243.786,2081.85 L 245.798,2074.13 L 250.269,2067.51 L 253.276,2064.87 L 257.41,2062.42 L 261.955,2060.85 L 266.721,2060.24 L 339.192,2060.26 L 346.247,2061.65 L 352.556,2065.11 L 356.053,2068.4 L 359.191,2073.04 L 360.944,2077.52 L 361.797,2083.06 L 361.757,2156.33 L 359.876,2164.09 L 355.518,2170.78 L 351.911,2173.95 L 347.736,2176.33 L 343.166,2177.82 L 338.39,2178.35 L 265.12,2178.24 L 257.41,2176.17 L 250.834,2171.64 L 247.752,2167.95 L 245.48,2163.72 L 244.112,2159.11 L 243.701,2154.72 z " style="fill-opacity:1.000000;fill:rgb(74,236,41);stroke:rgb(0,0,0);stroke-width:2"/></g>
<g fill-rule="evenodd"><path d="M 253.149,1498.03 L 253.169,1370.45 L 254.008,1361.68 L 256.307,1352.35 L 259.996,1343.49 L 264.992,1335.28 L 271.176,1327.93 L 279.05,1321.13 L 287.936,1315.72 L 296.828,1312.09 L 306.168,1309.85 L 316.141,1309.06 L 328.481,1310.28 L 339.971,1313.74 L 350.596,1319.31 L 360.543,1327.36 L 368.211,1336.59 L 374.301,1347.85 L 377.835,1359.32 L 379.135,1372.05 L 379.114,1499.63 L 378.276,1508.4 L 375.977,1517.73 L 372.287,1526.59 L 367.292,1534.8 L 361.108,1542.15 L 353.233,1548.95 L 344.347,1554.36 L 335.456,1557.99 L 326.115,1560.23 L 316.143,1561.02 L 303.803,1559.8 L 292.313,1556.34 L 281.688,1550.77 L 271.741,1542.72 L 264.073,1533.48 L 257.982,1522.23 L 254.449,1510.76 L 253.149,1498.03 z " style="fill-opacity:1.000000;fill:rgb(205,186,171);stroke:rgb(0,0,0);stroke-width:2"/></g>
<g fill-rule="evenodd"><path d="M 253.454,3074.33 L 253.454,2891.86 L 255.864,2879.75 L 260.588,2868.34 L 267.45,2858.07 L 276.182,2849.34 L 286.448,2842.48 L 297.858,2837.75 L 309.968,2835.34 L 322.316,2835.34 L 334.426,2837.75 L 345.836,2842.48 L 356.102,2849.34 L 364.834,2858.07 L 371.696,2868.34 L 376.42,2879.75 L 378.83,2891.86 L 379.134,2898.03 L 379.134,3071.26 L 378.83,3074.33 L 376.48,3080.01 L 372.134,3084.35 L 366.458,3086.7 L 265.826,3086.7 L 260.15,3084.35 L 255.804,3080.01 L 253.454,3074.33 z " style="fill-opacity:1.000000;fill:rgb(242,251,227);stroke:rgb(0,0,0);stroke-width:2"/></g>
<g fill-rule="evenodd"><path d="M 255.689,2408.69 L 257.368,2400.06 L 261.728,2390.24 L 268.72,2381.46 L 277.307,2375.01 L 287.689,2370.75 L 297.84,2369.3 L 353.937,2369.29 L 360.276,2369.76 L 366.479,2371.15 L 375.872,2375.26 L 384.386,2381.8 L 390.773,2389.82 L 395.244,2399.59 L 397.145,2409.66 L 396.538,2420.39 L 393.513,2430.18 L 387.97,2439.38 L 382.599,2445.06 L 375.872,2449.94 L 368.339,2453.44 L 360.276,2455.44 L 354.426,2455.9 L 297.84,2455.89 L 291.996,2455.36 L 286.277,2454.05 L 278.593,2450.89 L 271.654,2446.33 L 265.714,2440.52 L 260.756,2433.26 L 257.512,2425.61 L 255.736,2417 L 255.689,2408.69 z " style="fill-opacity:1.000000;fill:rgb(70,124,194);stroke:rgb(0,0,0);stroke-width:2"/></g>
<g fill-rule="evenodd"><path d="M 255.689,1979.55 L 257.368,1970.92 L 261.983,1960.69 L 268.72,1952.33 L 277.307,1945.88 L 287.689,1941.61 L 297.84,1940.17 L 353.937,1940.16 L 360.276,1940.62 L 366.479,1942.01 L 375.872,1946.12 L 384.386,1952.67 L 390.773,1960.69 L 395.244,1970.45 L 397.145,1980.53 L 396.538,1991.25 L 393.513,2001.05 L 387.97,2010.25 L 382.23,2016.25 L 375.449,2021.05 L 367.877,2024.47 L 360.276,2026.31 L 354.426,2026.77 L 297.84,2026.76 L 291.996,2026.23 L 286.277,2024.92 L 278.593,2021.76 L 271.654,2017.19 L 265.714,2011.39 L 260.756,2004.12 L 257.368,1996.01 L 255.736,1987.86 L 255.689,1979.55 z " style="fill-opacity:1.000000;fill:rgb(84,248,27);stroke:rgb(0,0,0);stroke-width:2"/></g>
<g fill-rule="evenodd"><path d="M 453.149,3024.02 L 453.169,2896.43 L 454.008,2887.66 L 456.307,2878.34 L 459.996,2869.47 L 464.992,2861.27 L 471.176,2853.92 L 479.05,2847.12 L 487.222,2842.07 L 496.828,2838.07 L 506.168,2835.83 L 516.141,2835.04 L 528.481,2836.26 L 539.971,2839.72 L 551.264,2845.74 L 560.543,2853.35 L 568.657,2863.24 L 574.301,2873.83 L 577.835,2885.3 L 579.135,2898.03 L 579.114,3025.62 L 578.276,3034.38 L 575.977,3043.71 L 572.287,3052.58 L 567.292,3060.78 L 561.108,3068.13 L 553.233,3074.93 L 545.061,3079.98 L 535.456,3083.97 L 526.115,3086.21 L 516.143,3087.01 L 503.803,3085.79 L 492.313,3082.33 L 481.02,3076.31 L 471.741,3068.7 L 463.626,3058.8 L 457.982,3048.21 L 454.449,3036.75 L 453.149,3024.02 z " style="fill-opacity:1.000000;fill:rgb(232,231,141);stroke:rgb(0,0,0);stroke-width:2"/></g>
<g fill-rule="evenodd"><path d="M 453.149,1498.03 L 453.169,1370.45 L 454.008,1361.68 L 456.307,1352.35 L 459.996,1343.49 L 464.992,1335.28 L 471.176,1327.93 L 479.05,1321.13 L 487.936,1315.72 L 496.828,1312.09 L 506.168,1309.85 L 516.141,1309.06 L 528.481,1310.28 L 539.971,1313.74 L 550.596,1319.31 L 560.543,1327.36 L 568.211,1336.59 L 574.301,1347.85 L 577.835,1359.32 L 579.135,1372.05 L 579.114,1499.63 L 578.276,1508.4 L 575.977,1517.73 L 572.287,1526.59 L 567.292,1534.8 L 561.108,1542.15 L 553.233,1548.95 L 544.347,1554.36 L 535.456,1557.99 L 526.115,1560.23 L 516.143,1561.02 L 503.803,1559.8 L 492.313,1556.34 L 481.688,1550.77 L 471.741,1542.72 L 464.073,1533.48 L 457.982,1522.23 L 454.449,1510.76 L 453.149,1498.03 z " style="fill-opacity:1.000000;fill:rgb(118,90,46);stroke:rgb(0,0,0);stroke-width:2"/></g>
<g fill-rule="evenodd"><path d="M 503.543,2233.46 L 503.628,2160.6 L 505.64,2152.87 L 510.111,2146.25 L 513.772,2143.14 L 517.987,2140.83 L 521.797,2139.59 L 526.564,2138.98 L 599.034,2139 L 606.09,2140.39 L 612.398,2143.85 L 615.896,2147.14 L 619.033,2151.78 L 620.787,2156.26 L 621.64,2161.8 L 621.599,2235.07 L 619.719,2242.83 L 615.361,2249.52 L 611.753,2252.69 L 607.578,2255.07 L 603.008,2256.56 L 598.232,2257.09 L 524.962,2256.98 L 517.253,2254.91 L 510.676,2250.38 L 507.594,2246.69 L 505.322,2242.46 L 503.954,2237.85 L 503.543,2233.46 z " style="fill-opacity:1.000000;fill:rgb(99,51,159);stroke:rgb(0,0,0);stroke-width:2"/></g>
<g fill-rule="evenodd"><path d="M 507.939,2391.29 L 508.28,2383.2 L 510.194,2375.32 L 513.607,2367.97 L 519.173,2360.58 L 525.766,2354.93 L 533.393,2350.78 L 542.288,2348.22 L 548.633,2347.64 L 584.183,2347.78 L 593.262,2349.59 L 601.712,2353.37 L 609.527,2359.34 L 616.016,2367.48 L 620.267,2376.98 L 621.982,2386.66 L 621.362,2396.47 L 618.201,2406.39 L 613.028,2414.75 L 605.566,2422.01 L 600.196,2425.43 L 594.362,2428 L 588.204,2429.63 L 581.868,2430.3 L 544.584,2430.06 L 536.108,2428.18 L 528.209,2424.58 L 521.667,2419.8 L 516.183,2413.83 L 511.968,2406.91 L 509.184,2399.3 L 507.939,2391.29 z " style="fill-opacity:1.000000;fill:rgb(201,154,102);stroke:rgb(0,0,0);stroke-width:2"/></g>
<g fill-rule="evenodd"><path d="M 507.939,2009.4 L 508.28,2001.31 L 510.194,1993.43 L 513.607,1986.08 L 518.778,1979.11 L 525.766,1973.04 L 533.393,1968.89 L 542.288,1966.33 L 548.633,1965.75 L 584.183,1965.89 L 593.262,1967.7 L 601.712,1971.48 L 609.527,1977.45 L 616.016,1985.59 L 620.267,1995.09 L 621.982,2004.77 L 621.253,2015.15 L 618.201,2024.5 L 613.028,2032.86 L 605.566,2040.12 L 600.196,2043.54 L 594.362,2046.11 L 588.204,2047.74 L 581.868,2048.41 L 544.584,2048.17 L 536.108,2046.29 L 528.209,2042.69 L 521.667,2037.91 L 516.183,2031.94 L 511.968,2025.02 L 509.184,2017.41 L 507.939,2009.4 z " style="fill-opacity:1.000000;fill:rgb(50,13,183);stroke:rgb(0,0,0);stroke-width:2"/></g>
<g fill-rule="evenodd"><path d="M 853.149,3024.02 L 853.169,2896.43 L 854.008,2887.66 L 856.307,2878.34 L 859.996,2869.47 L 864.992,2861.27 L 871.176,2853.92 L 879.05,2847.12 L 887.222,2842.07 L 896.828,2838.07 L 906.168,2835.83 L 916.141,2835.04 L 928.481,2836.26 L 939.971,2839.72 L 950.596,2845.3 L 960.543,2853.35 L 968.211,2862.58 L 974.301,2873.83 L 977.835,2885.3 L 979.135,2898.03 L 979.114,3025.62 L 978.276,3034.38 L 975.977,3043.71 L 972.287,3052.58 L 967.292,3060.78 L 961.108,3068.13 L 953.233,3074.93 L 945.061,3079.98 L 935.456,3083.97 L 926.115,3086.21 L 916.143,3087.01 L 903.803,3085.79 L 892.313,3082.33 L 881.688,3076.75 L 871.741,3068.7 L 864.073,3059.47 L 857.982,3048.21 L 854.449,3036.75 L 853.149,3024.02 z " style="fill-opacity:1.000000;fill:rgb(49,88,163);stroke:rgb(0,0,0);stroke-width:2"/></g>
<g fill-rule="evenodd"><path d="M 853.149,1498.03 L 853.169,1370.45 L 854.008,1361.68 L 856.307,1352.35 L 859.996,1343.49 L 864.992,1335.28 L 871.176,1327.93 L 879.05,1321.13 L 887.936,1315.72 L 896.828,1312.09 L 906.168,1309.85 L 916.141,1309.06 L 928.481,1310.28 L 939.971,1313.74 L 950.596,1319.31 L 960.543,1327.36 L 968.211,1336.59 L 974.301,1347.85 L 977.835,1359.32 L 979.135,1372.05 L 979.114,1499.63 L 978.276,1508.4 L 975.977,1517.73 L 972.287,1526.59 L 967.292,1534.8 L 961.108,1542.15 L 953.233,1548.95 L 944.347,1554.36 L 935.456,1557.99 L 926.115,1560.23 L 916.143,1561.02 L 903.803,1559.8 L 892.313,1556.34 L 881.688,1550.77 L 871.741,1542.72 L 864.073,1533.48 L 857.982,1522.23 L 854.449,1510.76 L 853.149,1498.03 z " style="fill-opacity:1.000000;fill:rgb(90,37,93);stroke:rgb(0,0,0);stroke-width:2"/></g>
<g fill-rule="evenodd"><path d="M 897.244,2430.31 L 897.329,2357.45 L 899.341,2349.72 L 903.812,2343.1 L 907.473,2339.99 L 910.954,2338.01 L 915.498,2336.44 L 920.264,2335.83 L 992.735,2335.85 L 999.791,2337.24 L 1006.1,2340.7 L 1009.6,2343.99 L 1012.73,2348.64 L 1014.69,2353.89 L 1015.34,2358.65 L 1015.3,2431.92 L 1013.42,2439.68 L 1009.06,2446.37 L 1005.45,2449.54 L 1001.28,2451.92 L 996.709,2453.41 L 991.933,2453.94 L 918.663,2453.83 L 910.954,2451.76 L 904.377,2447.23 L 901.295,2443.54 L 899.023,2439.31 L 897.655,2434.7 L 897.244,2430.31 z " style="fill-opacity:1.000000;fill:rgb(5,23,88);stroke:rgb(0,0,0);stroke-width:2"/></g>
<g fill-rule="evenodd"><path d="M 1053.15,3024.02 L 1053.17,2896.43 L 1054.01,2887.66 L 1056.31,2878.34 L 1060,2869.47 L 1064.99,2861.27 L 1071.18,2853.92 L 1079.05,2847.12 L 1087.22,2842.07 L 1096.83,2838.07 L 1106.17,2835.83 L 1116.14,2835.04 L 1128.48,2836.26 L 1139.97,2839.72 L 1150.6,2845.3 L 1160.54,2853.35 L 1168.21,2862.58 L 1174.3,2873.83 L 1177.83,2885.3 L 1179.13,2898.03 L 1179.11,3025.62 L 1178.28,3034.38 L 1175.98,3043.71 L 1172.29,3052.58 L 1167.29,3060.78 L 1161.11,3068.13 L 1153.23,3074.93 L 1145.06,3079.98 L 1135.46,3083.97 L 1126.12,3086.21 L 1116.14,3087.01 L 1103.8,3085.79 L 1092.31,3082.33 L 1081.69,3076.75 L 1071.74,3068.7 L 1064.07,3059.47 L 1057.98,3048.21 L 1054.45,3036.75 L 1053.15,3024.02 z " style="fill-opacity:1.000000;fill:rgb(233,94,212);stroke:rgb(0,0,0);stroke-width:2"/></g>
<g fill-rule="evenodd"><path d="M 1053.15,1372.05 L 1053.88,1362.47 L 1056.83,1350.84 L 1061.93,1339.97 L 1069.53,1329.68 L 1078.41,1321.61 L 1088.66,1315.37 L 1099.9,1311.18 L 1111.74,1309.21 L 1124.01,1309.55 L 1124.03,1087.78 L 1124.74,1083.87 L 1126.84,1079.58 L 1130.12,1076.13 L 1134.29,1073.81 L 1139.76,1072.83 L 2086.59,1072.83 L 2178.15,981.272 L 2178.15,866.142 L 2168.85,865.648 L 2165.05,864.363 L 2160.95,861.847 L 2158.09,859.042 L 2155.86,855.714 L 2154.34,852.003 L 2153.56,847.26 L 2153.8,744.833 L 2155.86,738.774 L 2160.34,733.155 L 2165.79,729.807 L 2172.83,728.351 L 2222.44,728.346 L 2226.82,728.84 L 2232.05,730.851 L 2237.05,734.84 L 2240.18,739.49 L 2241.86,744.833 L 2242.13,846.457 L 2241.54,851.228 L 2240.18,854.998 L 2237.58,859.042 L 2234.71,861.847 L 2230.62,864.363 L 2224.45,866.039 L 2209.64,866.142 L 2209.64,972.047 L 2301.77,972.047 L 2306.34,972.725 L 2309.87,974.287 L 2312.91,976.659 L 2378.66,1042.42 L 2381.43,1039.73 L 2384.8,1037.56 L 2391.7,1035.54 L 2444.12,1035.47 L 2450.35,1036.89 L 2455.19,1039.73 L 2459.03,1043.81 L 2461.56,1048.81 L 2462.6,1055.12 L 2462.45,1155.95 L 2460.65,1162.08 L 2456.4,1167.88 L 2450.35,1171.77 L 2444.12,1173.19 L 2391.7,1173.13 L 2384.8,1171.1 L 2379.09,1166.74 L 2375.33,1160.61 L 2374.03,1154.35 L 2374.02,1082.31 L 2295.25,1003.54 L 2200.42,1003.54 L 2104.24,1099.72 L 2099.84,1102.82 L 2094.65,1104.25 L 1155.51,1104.33 L 1155.51,1322.87 L 1164.34,1331.49 L 1171.16,1341.36 L 1176.22,1353.12 L 1178.72,1364.85 L 1179.13,1498.83 L 1177.67,1511.55 L 1175.18,1519.99 L 1171.16,1528.71 L 1165.85,1536.72 L 1159.39,1543.83 L 1152.58,1549.41 L 1144.35,1554.36 L 1135.46,1557.99 L 1126.12,1560.23 L 1116.54,1561.02 L 1107.75,1560.46 L 1098.36,1558.46 L 1089.38,1555.06 L 1081.69,1550.77 L 1074.07,1544.92 L 1067.43,1537.97 L 1061.93,1530.1 L 1058.62,1523.7 L 1055.83,1516.2 L 1054.14,1509.19 L 1053.23,1501.23 L 1053.15,1372.05 z " style="fill-opacity:1.000000;fill:rgb(171,178,205);stroke:rgb(0,0,0);stroke-width:2"/></g>
<g fill-rule="evenodd"><path d="M 1094.09,2430.31 L 1094.18,2357.45 L 1096.19,2349.72 L 1100.66,2343.1 L 1104.32,2339.99 L 1107.8,2338.01 L 1112.35,2336.44 L 1117.11,2335.83 L 1189.59,2335.85 L 1196.64,2337.24 L 1202.95,2340.7 L 1206.45,2343.99 L 1209.58,2348.64 L 1211.54,2353.89 L 1212.19,2358.65 L 1212.15,2431.92 L 1210.27,2439.68 L 1205.91,2446.37 L 1202.3,2449.54 L 1198.13,2451.92 L 1193.56,2453.41 L 1188.78,2453.94 L 1115.51,2453.83 L 1107.8,2451.76 L 1101.23,2447.23 L 1098.15,2443.54 L 1095.87,2439.31 L 1094.51,2434.7 L 1094.09,2430.31 z " style="fill-opacity:1.000000;fill:rgb(198,155,180);stroke:rgb(0,0,0);stroke-width:2"/></g>
<g fill-rule="evenodd"><path d="M 1253.15,3024.02 L 1253.17,2896.43 L 1254.01,2887.66 L 1256.31,2878.34 L 1260,2869.47 L 1264.99,2861.27 L 1271.18,2853.92 L 1279.05,2847.12 L 1287.22,2842.07 L 1296.83,2838.07 L 1306.17,2835.83 L 1316.14,2835.04 L 1328.48,2836.26 L 1339.97,2839.72 L 1350.6,2845.3 L 1360.54,2853.35 L 1368.21,2862.58 L 1374.3,2873.83 L 1377.83,2885.3 L 1379.13,2898.03 L 1379.11,3025.62 L 1378.28,3034.38 L 1375.98,3043.71 L 1372.29,3052.58 L 1367.29,3060.78 L 1361.11,3068.13 L 1353.23,3074.93 L 1345.06,3079.98 L 1335.46,3083.97 L 1326.12,3086.21 L 1316.14,3087.01 L 1303.8,3085.79 L 1292.31,3082.33 L 1281.69,3076.75 L 1271.74,3068.7 L 1264.07,3059.47 L 1257.98,3048.21 L 1254.45,3036.75 L 1253.15,3024.02 z " style="fill-opacity:1.000000;fill:rgb(84,17,14);stroke:rgb(0,0,0);stroke-width:2"/></g>
<g fill-rule="evenodd"><path d="M 1253.15,1498.03 L 1253.17,1370.45 L 1254.01,1361.68 L 1256.31,1352.35 L 1260,1343.49 L 1264.99,1335.28 L 1271.18,1327.93 L 1279.05,1321.13 L 1287.94,1315.72 L 1296.83,1312.09 L 1306.17,1309.85 L 1316.14,1309.06 L 1328.48,1310.28 L 1339.97,1313.74 L 1350.6,1319.31 L 1360.54,1327.36 L 1368.21,1336.59 L 1374.3,1347.85 L 1377.83,1359.32 L 1379.13,1372.05 L 1379.11,1499.63 L 1378.28,1508.4 L 1375.98,1517.73 L 1372.29,1526.59 L 1367.29,1534.8 L 1361.11,1542.15 L 1353.23,1548.95 L 1344.35,1554.36 L 1335.46,1557.99 L 1326.12,1560.23 L 1316.14,1561.02 L 1303.8,1559.8 L 1292.31,1556.34 L 1281.69,1550.77 L 1271.74,1542.72 L 1264.07,1533.48 L 1257.98,1522.23 L 1254.45,1510.76 L 1253.15,1498.03 z " style="fill-opacity:1.000000;fill:rgb(130,116,65);stroke:rgb(0,0,0);stroke-width:2"/></g>
<g fill-rule="evenodd"><path d="M 1290.94,2430.31 L 1291.03,2357.45 L 1293.04,2349.72 L 1297.51,2343.1 L 1301.17,2339.99 L 1304.65,2338.01 L 1309.2,2336.44 L 1313.97,2335.83 L 1386.44,2335.85 L 1393.49,2337.24 L 1399.8,2340.7 L 1403.3,2343.99 L 1406.43,2348.64 L 1408.39,2353.89 L 1409.04,2358.65 L 1409,2431.92 L 1407.12,2439.68 L 1402.76,2446.37 L 1399.15,2449.54 L 1394.98,2451.92 L 1390.41,2453.41 L 1385.63,2453.94 L 1312.36,2453.83 L 1304.65,2451.76 L 1298.08,2447.23 L 1295,2443.54 L 1292.72,2439.31 L 1291.36,2434.7 L 1290.94,2430.31 z " style="fill-opacity:1.000000;fill:rgb(33,61,220);stroke:rgb(0,0,0);stroke-width:2"/></g>
<g fill-rule="evenodd"><path d="M 1453.15,3024.02 L 1453.17,2896.43 L 1454.01,2887.66 L 1456.31,2878.34 L 1460,2869.47 L 1464.99,2861.27 L 1471.18,2853.92 L 1479.05,2847.12 L 1487.22,2842.07 L 1496.83,2838.07 L 1506.17,2835.83 L 1516.14,2835.04 L 1528.48,2836.26 L 1539.97,2839.72 L 1550.6,2845.3 L 1560.54,2853.35 L 1568.21,2862.58 L 1574.3,2873.83 L 1577.83,2885.3 L 1579.13,2898.03 L 1579.11,3025.62 L 1578.28,3034.38 L 1575.98,3043.71 L 1572.29,3052.58 L 1567.29,3060.78 L 1561.11,3068.13 L 1553.23,3074.93 L 1545.06,3079.98 L 1535.46,3083.97 L 1526.12,3086.21 L 1516.14,3087.01 L 1503.8,3085.79 L 1492.31,3082.33 L 1481.69,3076.75 L 1471.74,3068.7 L 1464.07,3059.47 L 1457.98,3048.21 L 1454.45,3036.75 L 1453.15,3024.02 z " style="fill-opacity:1.000000;fill:rgb(135,112,233);stroke:rgb(0,0,0);stroke-width:2"/></g>
<g fill-rule="evenodd"><path d="M 1453.15,1498.03 L 1453.17,1370.45 L 1454.01,1361.68 L 1456.31,1352.35 L 1460,1343.49 L 1464.99,1335.28 L 1471.18,1327.93 L 1479.05,1321.13 L 1487.94,1315.72 L 1496.83,1312.09 L 1506.17,1309.85 L 1516.14,1309.06 L 1528.48,1310.28 L 1539.97,1313.74 L 1550.6,1319.31 L 1560.54,1327.36 L 1568.21,1336.59 L 1574.3,1347.85 L 1577.83,1359.32 L 1579.13,1372.05 L 1579.11,1499.63 L 1578.28,1508.4 L 1575.98,1517.73 L 1572.29,1526.59 L 1567.29,1534.8 L 1561.11,1542.15 L 1553.23,1548.95 L 1544.35,1554.36 L 1535.46,1557.99 L 1526.12,1560.23 L 1516.14,1561.02 L 1503.8,1559.8 L 1492.31,1556.34 L 1481.69,1550.77 L 1471.74,1542.72 L 1464.07,1533.48 L 1457.98,1522.23 L 1454.45,1510.76 L 1453.15,1498.03 z " style="fill-opacity:1.000000;fill:rgb(62,161,65);stroke:rgb(0,0,0);stroke-width:2"/></g>
<g fill-rule="evenodd"><path d="M 1832.68,1031.53 L 1832.68,1012.52 L 1834.23,1007.24 L 1837.56,1004.07 L 1841.13,1002.01 L 1848.46,994.669 L 1853.65,985.683 L 1856.34,975.661 L 1856.34,169.251 L 1857.89,163.973 L 1862.04,160.369 L 1866.1,159.487 L 4145.75,159.487 L 4151.02,161.037 L 4154.63,165.195 L 4155.51,169.251 L 4155.51,1271.87 L 4153.96,1277.15 L 4149.8,1280.75 L 4144.36,1281.54 L 4129.25,1278.02 L 4121.97,1277.52 L 4103.02,1278.02 L 4085.97,1282.03 L 4069.95,1289.11 L 4055.49,1299.01 L 4043.11,1311.4 L 4033.2,1325.85 L 4025.64,1343.94 L 4022.93,1348.72 L 4018.05,1351.27 L 4012.57,1350.79 L 4008.23,1347.42 L 3999.08,1325.85 L 3989.17,1311.4 L 3976.79,1299.01 L 3962.33,1289.11 L 3946.31,1282.03 L 3929.25,1278.02 L 3921.97,1277.52 L 3903.02,1278.02 L 3885.97,1282.03 L 3869.95,1289.11 L 3855.49,1299.01 L 3843.11,1311.4 L 3833.2,1325.85 L 3826.13,1341.88 L 3823.38,1353.57 L 3820.78,1358.24 L 3779.13,1399.88 L 3779.13,1470.19 L 3820.78,1511.84 L 3823.38,1516.51 L 3826.13,1528.2 L 3833.2,1544.22 L 3843.11,1558.68 L 3852.4,1567.98 L 3855.04,1572.8 L 3854.65,1578.29 L 3851.35,1582.7 L 3845.5,1584.64 L 3821.58,1584.64 L 3816.3,1583.09 L 3812.7,1578.94 L 3811.92,1573.49 L 3817.37,1559 L 3813.46,1557.04 L 3811.41,1556.9 L 3807.91,1554.65 L 3779.13,1525.87 L 3778.83,1548.35 L 3776.48,1554.02 L 3772.13,1558.37 L 3766.46,1560.72 L 3668.9,1561.02 L 3665.83,1560.72 L 3660.15,1558.37 L 3655.8,1554.02 L 3653.45,1548.35 L 3653.15,1545.28 L 3653.15,1525.87 L 3624.36,1554.65 L 3615.34,1559.44 L 3616.41,1563.62 L 3619.41,1570.67 L 3620.29,1576.1 L 3618.09,1581.14 L 3613.52,1584.2 L 3610.6,1584.64 L 3586.78,1584.64 L 3581.5,1583.09 L 3577.9,1578.94 L 3577.12,1573.49 L 3579.4,1568.49 L 3589.17,1558.68 L 3599.08,1544.22 L 3606.15,1528.2 L 3608.9,1516.51 L 3611.5,1511.84 L 3653.15,1470.19 L 3653.15,1399.89 L 3611.5,1358.24 L 3608.9,1353.57 L 3606.15,1341.88 L 3599.07,1325.85 L 3589.17,1311.4 L 3576.79,1299.01 L 3566.09,1291.69 L 3562.62,1287.42 L 3561.85,1283.63 L 3561.85,1105.19 L 3558.63,1093.16 L 3552.4,1082.38 L 3450.93,980.911 L 3448.29,976.083 L 3448.07,974.007 L 3447.84,928.537 L 3444.23,916.109 L 3437.64,904.971 L 3428.49,895.819 L 3417.35,889.231 L 3410.89,886.423 L 3407.91,881.795 L 3407.52,873.951 L 3409.07,868.673 L 3413.23,865.069 L 3419.49,863.983 L 3431.92,860.373 L 3443.06,853.785 L 3452.21,844.635 L 3458.8,833.495 L 3462.41,821.067 L 3462.64,818.165 L 3462.64,756.637 L 3462.41,753.735 L 3458.8,741.307 L 3452.21,730.167 L 3443.06,721.017 L 3431.92,714.429 L 3419.49,710.819 L 3303.88,710.589 L 3300.98,710.819 L 3288.55,714.429 L 3277.41,721.017 L 3268.26,730.167 L 3261.67,741.307 L 3258.06,753.735 L 3258.06,821.067 L 3261.67,833.495 L 3268.26,844.635 L 3277.41,853.785 L 3288.55,860.373 L 3300.98,863.983 L 3304.58,864.287 L 3309.58,866.573 L 3312.56,871.201 L 3312.95,876.559 L 3312.03,881.285 L 3309.17,885.983 L 3305.32,888.133 L 3301.54,889.231 L 3290.4,895.821 L 3281.05,905.235 L 3276.59,908.457 L 3273.33,909.015 L 3226.45,909.015 L 3214.42,912.237 L 3203.64,918.463 L 3174.69,947.415 L 3169.86,950.051 L 3154.68,950.275 L 3149.4,948.725 L 3145.8,944.567 L 3143.75,927.653 L 3139.21,918.751 L 3132.15,911.689 L 3123.25,907.153 L 3115.87,905.983 L 3059.72,905.983 L 3052.34,907.153 L 3042.75,912.037 L 3038.35,913.467 L 3032.99,912.221 L 3023.25,907.153 L 3015.87,905.983 L 2959.72,905.983 L 2952.34,907.153 L 2949.27,908.713 L 2943.87,909.729 L 2938.77,907.661 L 2935.6,903.163 L 2935.08,893.381 L 2931.85,881.355 L 2925.63,870.573 L 2885.33,830.273 L 2874.55,824.049 L 2862.52,820.825 L 2637.47,820.825 L 2625.45,824.049 L 2614.67,830.273 L 2599.41,845.525 L 2595.26,847.989 L 2582.49,848.385 L 2577.21,846.835 L 2506.83,776.777 L 2504.2,771.949 L 2503.75,739.955 L 2500.14,727.527 L 2493.55,716.387 L 2484.4,707.237 L 2473.26,700.649 L 2460.83,697.039 L 2457.93,696.811 L 2398.37,696.811 L 2395.46,697.039 L 2383.04,700.649 L 2371.9,707.237 L 2362.75,716.389 L 2356.16,727.527 L 2352.55,739.955 L 2352.32,851.629 L 2352.55,854.533 L 2356.16,866.959 L 2362.75,878.099 L 2371.9,887.249 L 2383.04,893.837 L 2395.46,897.447 L 2398.37,897.677 L 2457.93,897.677 L 2460.83,897.447 L 2473.26,893.837 L 2477.36,891.413 L 2482.69,890.059 L 2487.91,891.805 L 2489.23,892.913 L 2514.64,918.459 L 2516.56,923.613 L 2515.39,928.989 L 2495.63,949.313 L 2489.4,960.095 L 2486.18,972.121 L 2486.18,1004.08 L 2484.63,1009.36 L 2480.47,1012.96 L 2475.03,1013.74 L 2471.45,1012.48 L 2463.41,1007.73 L 2450.99,1004.12 L 2388.79,1003.9 L 2383.51,1002.35 L 2330.8,949.959 L 2320.02,943.733 L 2307.99,940.511 L 2250.94,940.511 L 2245.66,938.961 L 2242.06,934.803 L 2241.18,930.747 L 2241.18,900.449 L 2242.73,895.171 L 2245.97,892.045 L 2254.08,887.249 L 2263.23,878.099 L 2269.82,866.959 L 2273.43,854.533 L 2273.66,742.859 L 2273.43,739.955 L 2269.82,727.527 L 2263.23,716.387 L 2254.08,707.237 L 2242.94,700.649 L 2230.52,697.039 L 2227.61,696.811 L 2165.15,697.039 L 2152.72,700.649 L 2141.58,707.237 L 2132.43,716.389 L 2125.84,727.527 L 2122.23,739.955 L 2122.01,742.857 L 2122.23,854.533 L 2125.84,866.959 L 2132.43,878.099 L 2145.57,891.409 L 2146.61,895.793 L 2146.61,964.165 L 2145.06,969.443 L 2143.75,971.069 L 2115.09,999.731 L 2110.26,1002.37 L 2104.78,1001.97 L 2100.37,998.677 L 2098.45,993.523 L 2098.42,990.157 L 2059.06,990.157 L 2058.47,999.85 L 2057.11,1003.62 L 2055.01,1007.04 L 2052.26,1009.96 L 2048.98,1012.26 L 2045.3,1013.85 L 2040.57,1014.73 L 1938.14,1014.56 L 1934.25,1013.59 L 1930.64,1011.85 L 1927.46,1009.42 L 1924.83,1006.39 L 1922.88,1002.89 L 1921.67,999.067 L 1921.26,990.157 L 1881.89,990.157 L 1881.89,999.013 L 1882.71,1007.1 L 1887.06,1020.2 L 1890.88,1026.41 L 1892.33,1031.71 L 1890.69,1036.96 L 1886.46,1040.49 L 1882.57,1041.3 L 1842.44,1041.3 L 1837.16,1039.75 L 1833.56,1035.59 L 1832.68,1031.53M 1881.89,950.787 L 1921.26,950.787 L 1921.52,942.668 L 1923.21,937.325 L 1926.88,932.089 L 1932.04,928.308 L 1935.79,926.869 L 1939.74,926.218 L 1970.47,926.181 L 1970.47,886.811 L 1937.01,886.811 L 1928.92,887.637 L 1915.82,891.979 L 1904.07,899.227 L 1894.3,908.987 L 1887.06,920.737 L 1882.71,933.843 L 1881.89,941.929 L 1881.89,950.787M 1907.44,524.679 L 1909.86,539.985 L 1914.65,554.725 L 1918.59,562.447 L 1921.69,568.535 L 1930.8,581.073 L 1941.76,592.033 L 1954.3,601.143 L 1968.11,608.179 L 1982.85,612.969 L 1998.15,615.393 L 2013.65,615.393 L 2028.96,612.969 L 2043.7,608.179 L 2057.51,601.143 L 2070.05,592.033 L 2081.01,581.073 L 2083.18,578.079 L 2087.54,574.719 L 2091.08,574.055 L 2255.04,574.055 L 2260.74,572.873 L 2292.57,572.873 L 2295.48,572.645 L 2307.9,569.035 L 2319.04,562.447 L 2328.4,553.031 L 2332.86,549.809 L 2336.11,549.251 L 2460.67,549.251 L 2465.95,550.801 L 2469.55,554.959 L 2470.43,559.015 L 2470.43,596.969 L 2471.6,604.353 L 2476.14,613.255 L 2483.2,620.317 L 2492.1,624.853 L 2499.48,626.023 L 2614.68,626.023 L 2622.07,624.853 L 2630.97,620.319 L 2638.03,613.255 L 2642.57,604.353 L 2643.74,596.969 L 2643.74,525.077 L 2642.57,517.691 L 2638.03,508.791 L 2631.92,502.619 L 2629.88,498.447 L 2630.27,492.959 L 2632.52,489.467 L 2691.92,430.063 L 2696.75,427.427 L 2698.82,427.205 L 2816.92,427.205 L 2822.2,428.755 L 2823.82,430.063 L 2837.65,443.891 L 2840.29,448.719 L 2840.51,464.467 L 2838.96,469.747 L 2834.8,473.349 L 2829.36,474.133 L 2821.84,471.567 L 2807.48,471.063 L 2807.48,510.433 L 2813.39,510.433 L 2813.39,630.512 L 2807.48,630.512 L 2807.48,669.881 L 2821.84,669.377 L 2832.45,665.421 L 2839.25,660.331 L 2844.4,658.407 L 2849.53,659.447 L 2852.34,660.877 L 2859.72,662.047 L 2915.87,662.047 L 2923.25,660.877 L 2932.84,655.993 L 2937.24,654.563 L 2942.59,655.809 L 2952.34,660.877 L 2959.72,662.047 L 3015.87,662.047 L 3023.25,660.877 L 3032.84,655.993 L 3037.24,654.563 L 3042.59,655.809 L 3052.34,660.877 L 3059.72,662.047 L 3115.87,662.047 L 3123.25,660.877 L 3132.15,656.341 L 3139.21,649.279 L 3143.75,640.377 L 3144.92,632.993 L 3144.92,507.951 L 3143.75,500.565 L 3139.21,491.665 L 3135.3,485.559 L 3135.08,483.483 L 3135.08,400.353 L 3136.63,395.075 L 3140.78,391.473 L 3144.84,390.589 L 3515.79,390.589 L 3521.06,392.139 L 3524.67,396.297 L 3525.55,400.353 L 3525.55,657.799 L 3528.77,669.825 L 3535,680.607 L 3648.7,794.309 L 3651.34,799.137 L 3651.54,801.721 L 3651.76,866.343 L 3655.37,878.771 L 3661.96,889.909 L 3671.11,899.061 L 3682.25,905.649 L 3694.68,909.259 L 3697.58,909.487 L 3813.19,909.259 L 3825.62,905.649 L 3836.76,899.061 L 3845.91,889.909 L 3852.5,878.771 L 3856.11,866.343 L 3856.11,799.009 L 3852.5,786.583 L 3845.91,775.443 L 3836.76,766.291 L 3825.62,759.705 L 3813.19,756.093 L 3748.04,755.865 L 3742.76,754.315 L 3622.98,634.849 L 3620.34,630.019 L 3620.12,400.353 L 3621.67,395.075 L 3625.82,391.473 L 3629.88,390.589 L 3740.34,390.589 L 3745.62,392.139 L 3748.24,394.615 L 3757.57,407.451 L 3769.81,419.345 L 3773.17,423.701 L 3773.64,429.183 L 3771.08,434.049 L 3766.29,436.753 L 3757.29,437.511 L 3746.68,441.467 L 3737.62,448.253 L 3730.84,457.315 L 3726.88,467.923 L 3726.38,472.609 L 3726.38,523.621 L 3765.75,523.621 L 3765.75,476.378 L 3899.61,476.378 L 3899.61,523.621 L 3938.97,523.621 L 3938.97,472.609 L 3938.47,467.923 L 3934.51,457.315 L 3927.73,448.251 L 3918.67,441.467 L 3908.06,437.511 L 3901.28,437.007 L 3896,435.457 L 3892.39,431.299 L 3891.61,425.853 L 3893.9,420.849 L 3907.78,407.451 L 3916.89,394.913 L 3923.93,381.103 L 3928.72,366.363 L 3931.14,351.057 L 3931.14,335.557 L 3928.72,320.249 L 3923.93,305.509 L 3916.89,291.699 L 3907.78,279.161 L 3896.82,268.201 L 3884.28,259.091 L 3870.47,252.055 L 3855.73,247.267 L 3840.42,244.841 L 3824.93,244.841 L 3809.62,247.267 L 3794.88,252.055 L 3781.07,259.091 L 3768.53,268.201 L 3757.57,279.161 L 3748.24,291.999 L 3743.89,295.357 L 3740.34,296.023 L 3103.22,296.023 L 3091.19,299.245 L 3080.41,305.471 L 3051.74,334.135 L 3046.92,336.771 L 3041.43,336.379 L 3037.02,333.083 L 3035.1,327.927 L 3035.08,308.341 L 3031.85,296.315 L 3025.63,285.533 L 2956.2,216.101 L 2945.41,209.875 L 2933.39,206.653 L 2646.54,206.653 L 2641.26,205.103 L 2630.97,194.641 L 2622.07,190.105 L 2614.69,188.937 L 2499.48,188.937 L 2492.1,190.105 L 2483.2,194.641 L 2472.55,205.321 L 2467.63,206.653 L 2342.2,206.653 L 2330.17,209.875 L 2319.39,216.101 L 2258.86,276.627 L 2254.71,279.091 L 2251.96,279.487 L 2114.13,279.487 L 2108.85,277.937 L 2105.25,273.779 L 2104.37,269.723 L 2104.37,247.517 L 2103.2,240.133 L 2098.66,231.231 L 2091.6,224.169 L 2082.7,219.633 L 2075.32,218.463 L 1936.49,218.463 L 1929.11,219.633 L 1920.21,224.169 L 1913.14,231.233 L 1908.61,240.133 L 1907.44,247.517 L 1907.44,386.339 L 1908.61,393.725 L 1913.14,402.625 L 1920.21,409.687 L 1929.11,414.223 L 1936.49,415.393 L 1948.09,415.393 L 1953.37,416.943 L 1956.97,421.101 L 1957.75,426.547 L 1955.47,431.551 L 1941.76,441.825 L 1930.8,452.783 L 1921.69,465.321 L 1914.65,479.131 L 1909.86,493.871 L 1907.44,509.179 L 1907.44,524.679M 2009.84,926.181 L 2040.57,926.218 L 2044.53,926.869 L 2048.27,928.308 L 2053.43,932.089 L 2057.11,937.325 L 2058.79,942.668 L 2059.06,950.787 L 2098.42,950.787 L 2098.42,941.929 L 2097.6,933.841 L 2093.25,920.737 L 2086.01,908.987 L 2076.25,899.227 L 2064.5,891.979 L 2051.39,887.637 L 2043.3,886.811 L 2009.84,886.811 L 2009.84,926.181M 2722.83,634.279 L 2723.34,638.965 L 2727.29,649.573 L 2734.08,658.637 L 2743.14,665.421 L 2753.75,669.377 L 2768.11,669.881 L 2768.11,630.512 L 2762.2,630.512 L 2762.2,590.157 L 2722.83,590.157 L 2722.83,634.279M 2722.83,550.787 L 2762.2,550.787 L 2762.2,510.433 L 2768.11,510.433 L 2768.11,471.063 L 2753.75,471.567 L 2743.14,475.523 L 2734.08,482.307 L 2727.29,491.371 L 2723.34,501.977 L 2722.83,506.665 L 2722.83,550.787M 3250,584.643 L 3250.82,592.731 L 3255.17,605.835 L 3262.41,617.585 L 3272.18,627.347 L 3283.93,634.595 L 3297.03,638.937 L 3305.12,639.763 L 3340.55,639.763 L 3340.55,600.394 L 3307.85,600.357 L 3303.9,599.706 L 3300.15,598.266 L 3294.99,594.485 L 3291.32,589.25 L 3289.52,583.112 L 3289.37,574.803 L 3250,574.803 L 3250,584.643M 3250,535.433 L 3289.37,535.433 L 3289.52,527.124 L 3291.32,520.987 L 3294.99,515.751 L 3300.15,511.97 L 3303.9,510.531 L 3307.85,509.879 L 3340.55,509.843 L 3340.55,470.471 L 3305.12,470.471 L 3297.03,471.299 L 3283.93,475.641 L 3272.18,482.887 L 3262.41,492.649 L 3255.17,504.399 L 3250.82,517.503 L 3250,525.591 L 3250,535.433M 3379.92,639.763 L 3415.35,639.763 L 3423.44,638.937 L 3436.54,634.595 L 3448.29,627.347 L 3458.05,617.585 L 3465.3,605.835 L 3469.64,592.731 L 3470.47,584.643 L 3470.47,574.803 L 3431.1,574.803 L 3430.96,583.112 L 3429.15,589.25 L 3425.48,594.485 L 3420.32,598.266 L 3416.58,599.706 L 3412.62,600.357 L 3379.92,600.394 L 3379.92,639.763M 3379.92,509.843 L 3412.62,509.879 L 3416.58,510.531 L 3420.32,511.97 L 3425.48,515.751 L 3429.15,520.987 L 3430.96,527.124 L 3431.1,535.433 L 3470.47,535.433 L 3470.47,525.591 L 3469.64,517.503 L 3465.3,504.399 L 3458.05,492.649 L 3448.29,482.887 L 3436.54,475.641 L 3423.44,471.297 L 3415.35,470.471 L 3379.92,470.471 L 3379.92,509.843M 3627.98,1319.04 L 3657.87,1348.93 L 3660.59,1342.35 L 3667.45,1332.09 L 3676.18,1323.36 L 3686.45,1316.49 L 3697.86,1311.77 L 3709.97,1309.36 L 3722.32,1309.36 L 3734.43,1311.77 L 3745.84,1316.49 L 3756.1,1323.36 L 3764.83,1332.09 L 3771.7,1342.35 L 3774.42,1348.92 L 3804.3,1319.04 L 3798.13,1309.8 L 3793.19,1303.77 L 3784.41,1295 L 3778.39,1290.05 L 3768.07,1283.16 L 3761.19,1279.49 L 3749.73,1274.74 L 3742.27,1272.47 L 3730.1,1270.05 L 3722.34,1269.29 L 3709.94,1269.29 L 3702.18,1270.05 L 3690.01,1272.47 L 3682.55,1274.74 L 3671.08,1279.49 L 3664.21,1283.16 L 3653.89,1290.05 L 3647.87,1295 L 3639.09,1303.77 L 3634.15,1309.8 L 3627.98,1319.04M 3643.7,1045.27 L 3683.07,1045.27 L 3683.22,1036.97 L 3685.02,1030.83 L 3688.7,1025.59 L 3693.85,1021.81 L 3697.6,1020.37 L 3701.55,1019.72 L 3734.25,1019.69 L 3734.25,980.315 L 3698.82,980.315 L 3690.73,981.141 L 3677.63,985.483 L 3665.88,992.731 L 3656.12,1002.49 L 3648.87,1014.24 L 3644.53,1027.35 L 3643.7,1035.43 L 3643.7,1045.27M 3643.7,1094.49 L 3644.53,1102.57 L 3648.87,1115.68 L 3656.12,1127.43 L 3665.88,1137.19 L 3677.63,1144.44 L 3690.73,1148.78 L 3698.82,1149.6 L 3734.25,1149.6 L 3734.25,1110.24 L 3701.55,1110.2 L 3697.6,1109.55 L 3693.85,1108.11 L 3688.7,1104.33 L 3685.02,1099.09 L 3683.22,1092.95 L 3683.07,1084.64 L 3643.7,1084.64 L 3643.7,1094.49M 3726.38,614.003 L 3726.88,618.691 L 3730.84,629.297 L 3737.62,638.361 L 3746.68,645.145 L 3757.29,649.101 L 3761.98,649.605 L 3812.99,649.605 L 3812.99,610.236 L 3765.75,610.236 L 3765.75,562.991 L 3726.38,562.991 L 3726.38,614.003M 3773.62,1149.6 L 3809.05,1149.6 L 3817.14,1148.78 L 3830.24,1144.44 L 3841.99,1137.19 L 3851.76,1127.43 L 3859,1115.68 L 3863.35,1102.57 L 3864.17,1094.49 L 3864.17,1084.64 L 3824.8,1084.64 L 3824.66,1092.95 L 3822.85,1099.09 L 3819.18,1104.33 L 3814.02,1108.11 L 3810.28,1109.55 L 3806.32,1110.2 L 3773.62,1110.24 L 3773.62,1149.6M 3773.62,1019.69 L 3806.32,1019.72 L 3810.28,1020.37 L 3814.02,1021.81 L 3819.18,1025.59 L 3822.85,1030.83 L 3824.66,1036.97 L 3824.8,1045.27 L 3864.17,1045.27 L 3864.17,1035.43 L 3863.35,1027.34 L 3859,1014.24 L 3851.76,1002.49 L 3841.99,992.731 L 3830.24,985.483 L 3817.14,981.141 L 3809.05,980.315 L 3773.62,980.315 L 3773.62,1019.69M 3852.36,649.605 L 3903.37,649.605 L 3908.06,649.101 L 3918.67,645.145 L 3927.73,638.361 L 3934.51,629.297 L 3938.47,618.691 L 3938.97,614.003 L 3938.97,562.991 L 3899.61,562.991 L 3899.61,610.236 L 3852.36,610.236 L 3852.36,649.605 z " style="fill-opacity:1.000000;fill:rgb(225,252,103);stroke:rgb(0,0,0);stroke-width:2"/></g>
<g fill-rule="evenodd"><path d="M 1853.15,3024.02 L 1853.17,2896.43 L 1854.01,2887.66 L 1856.31,2878.34 L 1860,2869.47 L 1864.99,2861.27 L 1871.18,2853.92 L 1879.05,2847.12 L 1887.22,2842.07 L 1896.83,2838.07 L 1906.17,2835.83 L 1916.14,2835.04 L 1928.48,2836.26 L 1939.97,2839.72 L 1950.6,2845.3 L 1960.54,2853.35 L 1968.21,2862.58 L 1974.3,2873.83 L 1977.83,2885.3 L 1979.13,2898.03 L 1979.11,3025.62 L 1978.28,3034.38 L 1975.98,3043.71 L 1972.29,3052.58 L 1967.29,3060.78 L 1961.11,3068.13 L 1953.23,3074.93 L 1945.06,3079.98 L 1935.46,3083.97 L 1926.12,3086.21 L 1916.14,3087.01 L 1903.8,3085.79 L 1892.31,3082.33 L 1881.69,3076.75 L 1871.74,3068.7 L 1864.07,3059.47 L 1857.98,3048.21 L 1854.45,3036.75 L 1853.15,3024.02 z " style="fill-opacity:1.000000;fill:rgb(62,1,126);stroke:rgb(0,0,0);stroke-width:2"/></g>
<g fill-rule="evenodd"><path d="M 1853.15,1498.03 L 1853.17,1370.45 L 1854.01,1361.68 L 1856.31,1352.35 L 1860,1343.49 L 1864.99,1335.28 L 1871.18,1327.93 L 1879.05,1321.13 L 1887.94,1315.72 L 1896.83,1312.09 L 1906.17,1309.85 L 1916.14,1309.06 L 1928.48,1310.28 L 1939.97,1313.74 L 1950.6,1319.31 L 1960.54,1327.36 L 1968.21,1336.59 L 1974.3,1347.85 L 1977.83,1359.32 L 1979.13,1372.05 L 1979.11,1499.63 L 1978.28,1508.4 L 1975.98,1517.73 L 1972.29,1526.59 L 1967.29,1534.8 L 1961.11,1542.15 L 1953.23,1548.95 L 1944.35,1554.36 L 1935.46,1557.99 L 1926.12,1560.23 L 1916.14,1561.02 L 1903.8,1559.8 L 1892.31,1556.34 L 1881.69,1550.77 L 1871.74,1542.72 L 1864.07,1533.48 L 1857.98,1522.23 L 1854.45,1510.76 L 1853.15,1498.03 z " style="fill-opacity:1.000000;fill:rgb(151,234,220);stroke:rgb(0,0,0);stroke-width:2"/></g>
<g fill-rule="evenodd"><path d="M 1938.98,383.858 L 1938.98,250 L 2072.83,250 L 2072.83,311.023 L 2248.03,311.023 L 2251.86,311.495 L 2255.65,312.992 L 2267.1,312.992 L 2337.29,242.801 L 2342.4,239.387 L 2348.42,238.189 L 2501.97,238.189 L 2501.97,220.472 L 2612.2,220.472 L 2612.2,238.189 L 2927.16,238.189 L 2932.47,239.109 L 2938.3,242.801 L 2998.93,303.431 L 3001.68,307.143 L 3003.24,311.494 L 3003.54,510.433 L 3013.39,510.433 L 3013.39,630.512 L 2962.2,630.512 L 2962.2,510.433 L 2972.05,510.433 L 2972.05,321.09 L 2920.64,269.685 L 2612.2,269.685 L 2612.2,287.402 L 2501.97,287.402 L 2501.97,269.685 L 2354.95,269.685 L 2303.41,321.224 L 2305.77,325.61 L 2307.02,331.073 L 2307.07,372.85 L 2306.5,376.818 L 2305.14,380.588 L 2303.04,384.004 L 2300.29,386.924 L 2294.84,390.272 L 2288.61,391.695 L 2212.2,391.728 L 2206.67,390.818 L 2200.96,387.925 L 2196.96,384.004 L 2194.23,379.114 L 2192.93,372.85 L 2192.91,342.519 L 2072.83,342.519 L 2072.83,383.858 L 1938.98,383.858 z " style="fill-opacity:1.000000;fill:rgb(107,150,143);stroke:rgb(0,0,0);stroke-width:2"/></g>
<g fill-rule="evenodd"><path d="M 1939.18,522.13 L 1939.5,508.541 L 1942.07,496.819 L 1946.69,485.744 L 1953.21,475.671 L 1962.02,466.395 L 1971.75,459.371 L 1983.33,453.923 L 1994.94,450.904 L 2007.71,450.024 L 2019.62,451.421 L 2031.1,454.924 L 2041.77,460.419 L 2051.87,468.277 L 2059.82,477.266 L 2066.03,487.529 L 2070.32,498.738 L 2072.57,511.023 L 2192.91,511.023 L 2192.91,482.283 L 2193.5,477.513 L 2194.86,473.742 L 2196.96,470.327 L 2199.71,467.407 L 2203.7,464.726 L 2207.44,463.287 L 2212.2,462.603 L 2287.8,462.603 L 2292.56,463.287 L 2296.3,464.726 L 2299.67,466.893 L 2302.54,469.699 L 2304.77,473.026 L 2306.29,476.738 L 2307.02,480.679 L 2307.09,486.219 L 2498.03,486.219 L 2501.86,486.691 L 2505.45,488.078 L 2508.61,490.298 L 2541.34,523.003 L 2541.41,496.487 L 2542.54,492.004 L 2544.91,488.04 L 2664.06,368.785 L 2667.77,366.032 L 2671.37,364.645 L 2675.2,364.173 L 2842.86,364.343 L 2847.28,365.685 L 2851.69,368.785 L 2899.46,416.589 L 2901.68,419.741 L 2903.07,423.338 L 2903.54,427.165 L 2903.54,510.433 L 2913.39,510.433 L 2913.39,630.512 L 2862.2,630.512 L 2862.2,510.433 L 2872.05,510.433 L 2872.05,433.688 L 2834.03,395.669 L 2681.72,395.669 L 2572.83,504.554 L 2572.83,527.559 L 2612.2,527.559 L 2612.2,594.488 L 2501.97,594.488 L 2501.97,528.176 L 2491.51,517.715 L 2307.09,517.715 L 2306.5,526.424 L 2305.14,530.195 L 2303.04,533.61 L 2300.29,536.531 L 2296.3,539.211 L 2292.56,540.65 L 2288.61,541.302 L 2254.8,541.339 L 2248.82,542.519 L 2067.75,542.519 L 2062.95,551.942 L 2056.31,560.964 L 2048.88,568.243 L 2039.72,574.69 L 2029.61,579.52 L 2018.84,582.597 L 2008.51,583.808 L 1997.32,583.305 L 1984.84,580.458 L 1973.14,575.288 L 1962.63,567.985 L 1953.21,558.187 L 1946.32,547.404 L 1941.39,534.735 L 1939.18,522.13 z " style="fill-opacity:1.000000;fill:rgb(56,92,42);stroke:rgb(0,0,0);stroke-width:2"/></g>
<g fill-rule="evenodd"><path d="M 2053.15,3024.02 L 2053.17,2896.43 L 2054.01,2887.66 L 2056.31,2878.34 L 2060,2869.47 L 2064.99,2861.27 L 2071.18,2853.92 L 2079.05,2847.12 L 2087.22,2842.07 L 2096.83,2838.07 L 2106.17,2835.83 L 2116.14,2835.04 L 2128.48,2836.26 L 2139.97,2839.72 L 2150.6,2845.3 L 2160.54,2853.35 L 2168.21,2862.58 L 2174.3,2873.83 L 2177.83,2885.3 L 2179.13,2898.03 L 2179.11,3025.62 L 2178.28,3034.38 L 2175.98,3043.71 L 2172.29,3052.58 L 2167.29,3060.78 L 2161.11,3068.13 L 2153.23,3074.93 L 2145.06,3079.98 L 2135.46,3083.97 L 2126.12,3086.21 L 2116.14,3087.01 L 2103.8,3085.79 L 2092.31,3082.33 L 2081.69,3076.75 L 2071.74,3068.7 L 2064.07,3059.47 L 2057.98,3048.21 L 2054.45,3036.75 L 2053.15,3024.02 z " style="fill-opacity:1.000000;fill:rgb(236,176,59);stroke:rgb(0,0,0);stroke-width:2"/></g>
<g fill-rule="evenodd"><path d="M 2053.15,1498.03 L 2053.17,1370.45 L 2054.01,1361.68 L 2056.31,1352.35 L 2060,1343.49 L 2064.99,1335.28 L 2071.18,1327.93 L 2079.05,1321.13 L 2087.94,1315.72 L 2096.83,1312.09 L 2106.17,1309.85 L 2116.14,1309.06 L 2128.48,1310.28 L 2139.97,1313.74 L 2150.6,1319.31 L 2160.54,1327.36 L 2168.21,1336.59 L 2174.3,1347.85 L 2177.83,1359.32 L 2179.13,1372.05 L 2179.11,1499.63 L 2178.28,1508.4 L 2175.98,1517.73 L 2172.29,1526.59 L 2167.29,1534.8 L 2161.11,1542.15 L 2153.23,1548.95 L 2144.35,1554.36 L 2135.46,1557.99 L 2126.12,1560.23 L 2116.14,1561.02 L 2103.8,1559.8 L 2092.31,1556.34 L 2081.69,1550.77 L 2071.74,1542.72 L 2064.07,1533.48 L 2057.98,1522.23 L 2054.45,1510.76 L 2053.15,1498.03 z " style="fill-opacity:1.000000;fill:rgb(251,50,175);stroke:rgb(0,0,0);stroke-width:2"/></g>
<g fill-rule="evenodd"><path d="M 2253.15,3024.02 L 2253.17,2896.43 L 2254.01,2887.66 L 2256.31,2878.34 L 2260,2869.47 L 2264.99,2861.27 L 2271.18,2853.92 L 2279.05,2847.12 L 2287.22,2842.07 L 2296.83,2838.07 L 2306.17,2835.83 L 2316.14,2835.04 L 2328.48,2836.26 L 2339.97,2839.72 L 2350.6,2845.3 L 2360.54,2853.35 L 2368.21,2862.58 L 2374.3,2873.83 L 2377.83,2885.3 L 2379.13,2898.03 L 2379.11,3025.62 L 2378.28,3034.38 L 2375.98,3043.71 L 2372.29,3052.58 L 2367.29,3060.78 L 2361.11,3068.13 L 2353.23,3074.93 L 2345.06,3079.98 L 2335.46,3083.97 L 2326.12,3086.21 L 2316.14,3087.01 L 2303.8,3085.79 L 2292.31,3082.33 L 2281.69,3076.75 L 2271.74,3068.7 L 2264.07,3059.47 L 2257.98,3048.21 L 2254.45,3036.75 L 2253.15,3024.02 z " style="fill-opacity:1.000000;fill:rgb(60,84,236);stroke:rgb(0,0,0);stroke-width:2"/></g>
<g fill-rule="evenodd"><path d="M 2253.15,1498.03 L 2253.17,1370.45 L 2254.01,1361.68 L 2256.31,1352.35 L 2260,1343.49 L 2264.99,1335.28 L 2271.18,1327.93 L 2279.05,1321.13 L 2287.94,1315.72 L 2296.83,1312.09 L 2306.17,1309.85 L 2316.14,1309.06 L 2328.48,1310.28 L 2339.97,1313.74 L 2350.6,1319.31 L 2360.54,1327.36 L 2368.21,1336.59 L 2374.3,1347.85 L 2377.83,1359.32 L 2379.13,1372.05 L 2379.11,1499.63 L 2378.28,1508.4 L 2375.98,1517.73 L 2372.29,1526.59 L 2367.29,1534.8 L 2361.11,1542.15 L 2353.23,1548.95 L 2344.35,1554.36 L 2335.46,1557.99 L 2326.12,1560.23 L 2316.14,1561.02 L 2303.8,1559.8 L 2292.31,1556.34 L 2281.69,1550.77 L 2271.74,1542.72 L 2264.07,1533.48 L 2257.98,1522.23 L 2254.45,1510.76 L 2253.15,1498.03 z " style="fill-opacity:1.000000;fill:rgb(24,219,92);stroke:rgb(0,0,0);stroke-width:2"/></g>
<g fill-rule="evenodd"><path d="M 2383.86,748.031 L 2384.45,743.261 L 2386.17,738.774 L 2388.93,734.84 L 2392.57,731.692 L 2397.61,729.261 L 2402.34,728.383 L 2453.16,728.351 L 2460.2,729.807 L 2465.65,733.155 L 2470.13,738.774 L 2472.29,745.628 L 2472.44,786.982 L 2565.38,879.921 L 2609.62,879.921 L 2633.71,855.936 L 2637.67,853.56 L 2642.16,852.437 L 2857.07,852.38 L 2862.33,853.559 L 2866.87,856.44 L 2900.89,890.856 L 2902.62,894.299 L 2903.52,898.832 L 2903.54,937.52 L 2913.39,937.52 L 2913.39,1057.6 L 2862.2,1057.6 L 2862.2,937.52 L 2872.05,937.52 L 2872.05,906.128 L 2849.78,883.857 L 2650.22,883.857 L 2549.21,984.868 L 2549.21,1145.05 L 2595.1,1190.94 L 2816.93,1190.94 L 2823.14,1192.22 L 2826.57,1194.24 L 2829.38,1197.05 L 2831.4,1200.48 L 2832.6,1205.1 L 2832.68,1271.04 L 2881.25,1319.6 L 2890.84,1314.36 L 2901.46,1310.79 L 2912.54,1309.16 L 2922.94,1309.42 L 2933.15,1311.4 L 2943.63,1315.37 L 2952.58,1320.67 L 2961.11,1327.93 L 2967.76,1335.93 L 2973,1344.92 L 2976.9,1355.42 L 2978.81,1365.65 L 2979.09,1500.43 L 2978.4,1507.61 L 2976.9,1514.66 L 2974.6,1521.49 L 2971.16,1528.71 L 2967.29,1534.8 L 2962.76,1540.4 L 2957.61,1545.45 L 2951.26,1550.32 L 2939.23,1556.64 L 2926.12,1560.23 L 2912.54,1560.92 L 2899.13,1558.68 L 2886.51,1553.62 L 2875.28,1545.97 L 2865.94,1536.09 L 2858.95,1524.43 L 2854.79,1512.33 L 2853.19,1500.43 L 2853.15,1371.25 L 2853.66,1364.06 L 2854.98,1356.97 L 2857.1,1350.08 L 2860.2,1343.1 L 2805.79,1288.69 L 2802.69,1284.29 L 2801.18,1277.56 L 2801.18,1222.44 L 2585.51,1222.14 L 2581.85,1220.93 L 2578.01,1218.36 L 2520.37,1160.32 L 2518.39,1156.15 L 2517.71,1151.57 L 2517.71,978.345 L 2518.19,974.518 L 2519.57,970.921 L 2521.79,967.769 L 2578.12,911.417 L 2557.31,911.341 L 2553.55,910.496 L 2549.48,908.318 L 2472.44,831.524 L 2472.42,847.26 L 2471.13,853.524 L 2469.32,857.099 L 2466.24,860.795 L 2463.06,863.23 L 2459.45,864.97 L 2453.16,866.138 L 2402.34,866.105 L 2396.1,864.681 L 2390.06,860.795 L 2385.81,854.998 L 2384.45,851.228 L 2383.87,847.26 L 2383.86,748.031 z " style="fill-opacity:1.000000;fill:rgb(2,26,254);stroke:rgb(0,0,0);stroke-width:2"/></g>
<g fill-rule="evenodd"><path d="M 2453.15,3024.02 L 2453.17,2896.43 L 2454.01,2887.66 L 2456.31,2878.34 L 2460,2869.47 L 2464.99,2861.27 L 2471.18,2853.92 L 2479.05,2847.12 L 2487.22,2842.07 L 2496.83,2838.07 L 2506.17,2835.83 L 2516.14,2835.04 L 2528.48,2836.26 L 2539.97,2839.72 L 2550.6,2845.3 L 2560.54,2853.35 L 2568.21,2862.58 L 2574.3,2873.83 L 2577.83,2885.3 L 2579.13,2898.03 L 2579.11,3025.62 L 2578.28,3034.38 L 2575.98,3043.71 L 2572.29,3052.58 L 2567.29,3060.78 L 2561.11,3068.13 L 2553.23,3074.93 L 2545.06,3079.98 L 2535.46,3083.97 L 2526.12,3086.21 L 2516.14,3087.01 L 2503.8,3085.79 L 2492.31,3082.33 L 2481.69,3076.75 L 2471.74,3068.7 L 2464.07,3059.47 L 2457.98,3048.21 L 2454.45,3036.75 L 2453.15,3024.02 z " style="fill-opacity:1.000000;fill:rgb(67,251,250);stroke:rgb(0,0,0);stroke-width:2"/></g>
<g fill-rule="evenodd"><path d="M 2453.15,1498.03 L 2453.17,1370.45 L 2454.01,1361.68 L 2456.31,1352.35 L 2460,1343.49 L 2464.99,1335.28 L 2471.18,1327.93 L 2479.05,1321.13 L 2487.94,1315.72 L 2496.83,1312.09 L 2506.17,1309.85 L 2516.14,1309.06 L 2528.48,1310.28 L 2539.97,1313.74 L 2550.6,1319.31 L 2560.54,1327.36 L 2568.21,1336.59 L 2574.3,1347.85 L 2577.83,1359.32 L 2579.13,1372.05 L 2579.11,1499.63 L 2578.28,1508.4 L 2575.98,1517.73 L 2572.29,1526.59 L 2567.29,1534.8 L 2561.11,1542.15 L 2553.23,1548.95 L 2544.35,1554.36 L 2535.46,1557.99 L 2526.12,1560.23 L 2516.14,1561.02 L 2503.8,1559.8 L 2492.31,1556.34 L 2481.69,1550.77 L 2471.74,1542.72 L 2464.07,1533.48 L 2457.98,1522.23 L 2454.45,1510.76 L 2453.15,1498.03 z " style="fill-opacity:1.000000;fill:rgb(170,58,251);stroke:rgb(0,0,0);stroke-width:2"/></g>
<g fill-rule="evenodd"><path d="M 2602.96,2198.29 L 2602.97,2105.39 L 2604.1,2099.9 L 2607.64,2094.58 L 2612.27,2091.42 L 2618.51,2090.04 L 2711.82,2090.05 L 2716.54,2090.97 L 2721.39,2093.77 L 2725.33,2098.8 L 2726.45,2101.81 L 2726.96,2105.79 L 2726.94,2199.1 L 2725.66,2204.55 L 2722.56,2209.21 L 2717.29,2212.82 L 2711.21,2214.04 L 2617.7,2214.01 L 2612.27,2212.66 L 2607.64,2209.5 L 2604.1,2204.18 L 2602.96,2198.29 z " style="fill-opacity:1.000000;fill:rgb(41,209,230);stroke:rgb(0,0,0);stroke-width:2"/></g>
<g fill-rule="evenodd"><path d="M 2602.96,1752.04 L 2604.12,1740.09 L 2607.57,1728.59 L 2613.16,1717.97 L 2620.7,1708.63 L 2629.89,1700.91 L 2640.4,1695.11 L 2651.83,1691.44 L 2664.56,1690.04 L 2676.52,1691.13 L 2688.04,1694.49 L 2699.36,1700.46 L 2708.66,1708.06 L 2716.32,1717.3 L 2722.05,1727.85 L 2725.64,1739.31 L 2726.96,1752.04 L 2725.8,1763.99 L 2722.36,1775.49 L 2716.76,1786.11 L 2709.22,1795.45 L 2700.03,1803.17 L 2689.52,1808.97 L 2678.09,1812.63 L 2665.36,1814.04 L 2653.41,1812.95 L 2641.88,1809.58 L 2630.56,1803.62 L 2621.26,1796.02 L 2613.61,1786.78 L 2607.87,1776.23 L 2604.28,1764.77 L 2602.96,1752.04 z " style="fill-opacity:1.000000;fill:rgb(5,60,124);stroke:rgb(0,0,0);stroke-width:2"/></g>
<g fill-rule="evenodd"><path d="M 2604.33,1153.54 L 2604.35,1054.32 L 2605.64,1048.05 L 2609.4,1041.93 L 2612.38,1039.24 L 2615.84,1037.21 L 2622.81,1035.47 L 2673.63,1035.44 L 2679.92,1036.61 L 2684.21,1038.78 L 2687.84,1041.93 L 2690.6,1045.86 L 2692.33,1050.35 L 2692.91,1055.12 L 2692.91,1088.58 L 2744.26,1088.58 L 2772.05,1060.8 L 2772.05,1057.6 L 2762.2,1057.6 L 2762.2,937.52 L 2813.39,937.52 L 2813.39,1057.6 L 2803.54,1057.6 L 2803.54,1060.8 L 3070.93,1328.19 L 3076.51,1323.08 L 3082.36,1318.88 L 3088.66,1315.37 L 3095.31,1312.6 L 3102.24,1310.61 L 3109.34,1309.42 L 3116.54,1309.06 L 3123.74,1309.51 L 3130.83,1310.79 L 3137.73,1312.87 L 3144.35,1315.72 L 3150.6,1319.31 L 3156.39,1323.59 L 3161.66,1328.51 L 3166.34,1333.99 L 3170.76,1340.67 L 3173.99,1347.11 L 3176.46,1353.88 L 3178.14,1360.89 L 3179.05,1368.84 L 3179.09,1500.43 L 3177.67,1511.55 L 3174.6,1521.49 L 3169.95,1530.79 L 3163.29,1539.8 L 3153.23,1548.95 L 3141.45,1555.72 L 3128.48,1559.8 L 3115.74,1561.02 L 3102.24,1559.47 L 3089.38,1555.06 L 3077.77,1547.99 L 3067.94,1538.59 L 3062.34,1530.79 L 3057.98,1522.23 L 3054.79,1512.33 L 3053.33,1502.83 L 3053.15,1371.25 L 3053.66,1364.06 L 3055.02,1356.82 L 2787.79,1089.59 L 2761.36,1116 L 2755.36,1119.4 L 2750.79,1120.08 L 2692.91,1120.08 L 2692.51,1157.53 L 2691.3,1161.35 L 2688.87,1165.5 L 2685.5,1168.93 L 2681.41,1171.45 L 2677.61,1172.73 L 2673.63,1173.22 L 2622.81,1173.19 L 2616.58,1171.77 L 2611.12,1168.42 L 2608.38,1165.5 L 2606.28,1162.08 L 2604.92,1158.31 L 2604.33,1153.54 z " style="fill-opacity:1.000000;fill:rgb(148,117,216);stroke:rgb(0,0,0);stroke-width:2"/></g>
<g fill-rule="evenodd"><path d="M 2853.15,3024.02 L 2853.17,2896.43 L 2854.01,2887.66 L 2856.31,2878.34 L 2860,2869.47 L 2864.99,2861.27 L 2871.18,2853.92 L 2879.05,2847.12 L 2887.22,2842.07 L 2896.83,2838.07 L 2906.17,2835.83 L 2916.14,2835.04 L 2928.48,2836.26 L 2939.97,2839.72 L 2950.6,2845.3 L 2960.54,2853.35 L 2968.21,2862.58 L 2974.3,2873.83 L 2977.83,2885.3 L 2979.13,2898.03 L 2979.11,3025.62 L 2978.28,3034.38 L 2975.98,3043.71 L 2972.29,3052.58 L 2967.29,3060.78 L 2961.11,3068.13 L 2953.23,3074.93 L 2945.06,3079.98 L 2935.46,3083.97 L 2926.12,3086.21 L 2916.14,3087.01 L 2903.8,3085.79 L 2892.31,3082.33 L 2881.69,3076.75 L 2871.74,3068.7 L 2864.07,3059.47 L 2857.98,3048.21 L 2854.45,3036.75 L 2853.15,3024.02 z " style="fill-opacity:1.000000;fill:rgb(190,97,137);stroke:rgb(0,0,0);stroke-width:2"/></g>
<g fill-rule="evenodd"><path d="M 2962.2,1057.6 L 2962.2,937.52 L 3013.39,937.52 L 3013.39,1057.6 L 3003.54,1057.6 L 3003.54,1071.82 L 3130.54,1198.82 L 3226.38,1198.82 L 3230.2,1199.29 L 3234.47,1201.06 L 3237.51,1203.43 L 3326.24,1292.18 L 3328.46,1295.33 L 3330.01,1299.68 L 3330.31,1310.67 L 3342.18,1314.69 L 3352.58,1320.67 L 3361.66,1328.51 L 3369.1,1337.93 L 3373,1344.92 L 3375.98,1352.35 L 3377.99,1360.1 L 3379.01,1368.04 L 3379.01,1502.03 L 3376.9,1514.66 L 3371.92,1527.31 L 3364.85,1537.97 L 3355.15,1547.49 L 3348.56,1552.04 L 3341.45,1555.72 L 3333.92,1558.46 L 3326.12,1560.23 L 3318.15,1560.99 L 3310.94,1560.81 L 3303.02,1559.64 L 3295.31,1557.48 L 3288.66,1554.71 L 3281.69,1550.77 L 3275.28,1545.97 L 3269.53,1540.4 L 3264.53,1534.14 L 3260.36,1527.31 L 3257.1,1519.99 L 3254.79,1512.33 L 3253.56,1505.23 L 3253.15,1498.03 L 3253.15,1371.25 L 3254.62,1358.53 L 3256.83,1350.84 L 3260,1343.49 L 3264.07,1336.59 L 3269.53,1329.68 L 3275.89,1323.59 L 3283.04,1318.45 L 3290.84,1314.36 L 3298.82,1311.48 L 3298.82,1309.28 L 3219.85,1230.31 L 3123.24,1230.3 L 3118.71,1229.39 L 3115.27,1227.66 L 2976.13,1088.92 L 2973.56,1085.08 L 2972.22,1080.66 L 2972.05,1057.6 L 2962.2,1057.6 z " style="fill-opacity:1.000000;fill:rgb(249,92,187);stroke:rgb(0,0,0);stroke-width:2"/></g>
<g fill-rule="evenodd"><path d="M 3053.15,3024.02 L 3053.17,2896.43 L 3054.01,2887.66 L 3056.31,2878.34 L 3060,2869.47 L 3064.99,2861.27 L 3071.18,2853.92 L 3079.05,2847.12 L 3087.22,2842.07 L 3096.83,2838.07 L 3106.17,2835.83 L 3116.14,2835.04 L 3128.48,2836.26 L 3139.97,2839.72 L 3150.6,2845.3 L 3160.54,2853.35 L 3168.21,2862.58 L 3174.3,2873.83 L 3177.83,2885.3 L 3179.13,2898.03 L 3179.11,3025.62 L 3178.28,3034.38 L 3175.98,3043.71 L 3172.29,3052.58 L 3167.29,3060.78 L 3161.11,3068.13 L 3153.23,3074.93 L 3145.06,3079.98 L 3135.46,3083.97 L 3126.12,3086.21 L 3116.14,3087.01 L 3103.8,3085.79 L 3092.31,3082.33 L 3081.69,3076.75 L 3071.74,3068.7 L 3064.07,3059.47 L 3057.98,3048.21 L 3054.45,3036.75 L 3053.15,3024.02 z " style="fill-opacity:1.000000;fill:rgb(168,153,15);stroke:rgb(0,0,0);stroke-width:2"/></g>
<g fill-rule="evenodd"><path d="M 3062.2,1057.6 L 3062.2,937.52 L 3113.39,937.52 L 3113.39,981.811 L 3184.89,981.811 L 3221.54,945.163 L 3226.65,941.749 L 3232.68,940.551 L 3302.36,940.551 L 3302.62,933.416 L 3304.31,928.073 L 3307.44,923.422 L 3312.44,919.434 L 3316.89,917.617 L 3320.84,916.966 L 3343.7,916.929 L 3343.7,887.007 L 3344.49,882.104 L 3344.49,832.677 L 3308.65,832.673 L 3303.9,831.989 L 3299.45,830.172 L 3294.99,826.769 L 3291.68,822.249 L 3289.96,817.763 L 3289.37,812.992 L 3289.78,757.823 L 3291.68,752.554 L 3294.99,748.034 L 3299.45,744.631 L 3303.9,742.814 L 3309.06,742.126 L 3412.62,742.163 L 3417.35,743.04 L 3421.03,744.631 L 3424.9,747.472 L 3427.98,751.168 L 3430.3,756.265 L 3431.1,761.811 L 3431.09,813.795 L 3430.3,818.538 L 3427.98,823.635 L 3425.48,826.769 L 3422.4,829.332 L 3418.86,831.217 L 3415.01,832.346 L 3375.98,832.677 L 3375.98,906.693 L 3375.2,911.591 L 3375.2,916.929 L 3400.44,917.26 L 3407.15,919.84 L 3411.99,924.029 L 3415.22,929.547 L 3416.54,936.614 L 3416.47,977.589 L 3415.22,983.051 L 3412.86,987.437 L 3525.7,1100.28 L 3528.07,1103.32 L 3529.64,1106.85 L 3530.31,1111.42 L 3530.31,1310.67 L 3540.71,1314.04 L 3549.92,1318.88 L 3558.21,1325.16 L 3565.36,1332.73 L 3571.16,1341.36 L 3575.46,1350.84 L 3578.14,1360.89 L 3579.13,1371.25 L 3579.13,1498.83 L 3578.63,1506.02 L 3577.3,1513.11 L 3574.9,1520.74 L 3571.54,1528.01 L 3567.29,1534.8 L 3561.66,1541.57 L 3555.77,1546.99 L 3549.24,1551.63 L 3542.18,1555.39 L 3533.92,1558.46 L 3526.91,1560.1 L 3519.75,1560.92 L 3506.17,1560.23 L 3499.13,1558.68 L 3492.31,1556.34 L 3480.36,1549.87 L 3474.67,1545.45 L 3469.53,1540.4 L 3461.52,1529.41 L 3458.29,1522.97 L 3455.83,1516.2 L 3453.33,1502.83 L 3453.15,1371.25 L 3454.79,1357.75 L 3457.1,1350.08 L 3460.74,1342.07 L 3464.99,1335.28 L 3470.62,1328.51 L 3476.51,1323.08 L 3483.72,1318.04 L 3490.84,1314.36 L 3498.82,1311.48 L 3498.82,1117.94 L 3376.55,995.669 L 3321.65,995.665 L 3316.12,994.755 L 3309.77,991.375 L 3305.07,985.942 L 3302.77,979.972 L 3302.36,972.047 L 3239.2,972.047 L 3201.99,1009.23 L 3198.84,1011.45 L 3194.49,1013 L 3113.39,1013.31 L 3113.39,1057.6 L 3062.2,1057.6 z " style="fill-opacity:1.000000;fill:rgb(149,177,235);stroke:rgb(0,0,0);stroke-width:2"/></g>
<g fill-rule="evenodd"><path d="M 3062.2,630.512 L 3062.2,510.433 L 3072.05,510.433 L 3072.22,362.644 L 3073.56,358.222 L 3076.13,354.379 L 3098.87,331.638 L 3104.14,328.479 L 3109.44,327.559 L 3767.63,327.559 L 3771.06,317.187 L 3776.27,307.276 L 3783.07,298.374 L 3791.26,290.731 L 3799.91,284.948 L 3810.1,280.301 L 3820.92,277.418 L 3832.08,276.381 L 3841.66,276.984 L 3851.83,279.177 L 3861.54,282.919 L 3870.54,288.121 L 3878.05,294.109 L 3885.13,301.734 L 3890.94,310.364 L 3895.34,319.79 L 3898.92,333.728 L 3899.56,340.905 L 3899.37,348.908 L 3898.38,356.045 L 3896.39,363.799 L 3893.49,371.259 L 3890.13,377.635 L 3886.11,383.613 L 3880.91,389.704 L 3875.65,394.621 L 3869.21,399.384 L 3862.97,402.987 L 3855.63,406.177 L 3848.74,408.28 L 3840.87,409.733 L 3828.87,410.128 L 3817,408.375 L 3805.64,404.531 L 3794.48,398.266 L 3785.28,390.562 L 3777.6,381.34 L 3771.7,370.895 L 3767.63,359.055 L 3588.58,359.055 L 3588.58,645.052 L 3730.93,787.402 L 3806.32,787.438 L 3813.3,789.18 L 3819.18,793.31 L 3822.85,798.546 L 3824.74,805.482 L 3824.74,859.872 L 3823.49,865.335 L 3820.76,870.225 L 3816.75,874.146 L 3811.81,876.781 L 3805.52,877.949 L 3702.35,877.949 L 3696.07,876.781 L 3689.86,873.145 L 3685.38,867.525 L 3683.22,860.671 L 3683.07,807.087 L 3683.48,803.099 L 3685.02,798.546 L 3687.62,794.502 L 3690.6,791.609 L 3561.7,662.71 L 3558.6,658.308 L 3557.08,651.575 L 3557.08,359.055 L 3115.97,359.055 L 3103.54,371.478 L 3103.54,510.433 L 3113.39,510.433 L 3113.39,630.512 L 3062.2,630.512 z " style="fill-opacity:1.000000;fill:rgb(241,179,5);stroke:rgb(0,0,0);stroke-width:2"/></g>
<g fill-rule="evenodd"><path d="M 3079.48,1100.97 L 3079.87,1095.48 L 3083.17,1091.08 L 3088.32,1089.16 L 3115.87,1089.13 L 3123.25,1087.96 L 3132.15,1083.43 L 3139.21,1076.36 L 3143.75,1067.46 L 3144.92,1060.08 L 3144.92,1054.6 L 3146.47,1049.33 L 3150.63,1045.72 L 3154.68,1044.84 L 3197.64,1044.84 L 3209.67,1041.62 L 3220.45,1035.39 L 3249.4,1006.44 L 3254.23,1003.8 L 3256.31,1003.58 L 3273.33,1003.58 L 3277.63,1004.58 L 3280.91,1007.05 L 3290.4,1016.78 L 3294.32,1019.34 L 3297.16,1024.05 L 3297.01,1029.54 L 3293.91,1034.09 L 3285.17,1039.58 L 3275.41,1049.34 L 3268.16,1061.09 L 3263.82,1074.2 L 3262.99,1086.22 L 3302.36,1086.22 L 3303.67,1079.15 L 3307.44,1073.03 L 3313.15,1068.66 L 3320.04,1066.64 L 3397.25,1066.54 L 3402.01,1067.22 L 3405.75,1068.66 L 3409.74,1071.34 L 3412.49,1074.26 L 3414.92,1078.41 L 3416.27,1083.02 L 3416.54,1125.59 L 3415.95,1130.36 L 3414.59,1134.13 L 3411.99,1138.18 L 3408.49,1141.47 L 3404.29,1143.82 L 3398.05,1145.24 L 3379.13,1145.28 L 3379.13,1184.64 L 3400.78,1184.64 L 3408.87,1183.82 L 3421.98,1179.48 L 3433.73,1172.23 L 3443.49,1162.47 L 3449.21,1153.19 L 3453.3,1149.51 L 3458.73,1148.63 L 3463.77,1150.82 L 3466.83,1155.39 L 3467.28,1158.32 L 3467.28,1285.79 L 3465.73,1291.07 L 3463.04,1293.84 L 3455.49,1299.01 L 3443.11,1311.4 L 3433.2,1325.85 L 3425.64,1343.94 L 3422.93,1348.72 L 3418.05,1351.27 L 3412.57,1350.79 L 3408.23,1347.42 L 3399.08,1325.85 L 3389.17,1311.4 L 3376.79,1299.01 L 3362.28,1289.08 L 3359.31,1285.83 L 3352.4,1273.72 L 3255.41,1176.73 L 3244.63,1170.5 L 3232.6,1167.28 L 3147.64,1167.28 L 3142.36,1165.73 L 3082.12,1105.8 L 3079.48,1100.97M 3262.99,1125.59 L 3263.82,1137.61 L 3268.16,1150.72 L 3275.41,1162.47 L 3285.17,1172.23 L 3296.92,1179.48 L 3310.02,1183.82 L 3318.11,1184.64 L 3339.76,1184.64 L 3339.76,1145.28 L 3320.84,1145.24 L 3316.89,1144.59 L 3313.15,1143.15 L 3308.56,1139.93 L 3305.07,1135.55 L 3302.95,1130.36 L 3302.36,1125.59 L 3262.99,1125.59 z " style="fill-opacity:1.000000;fill:rgb(239,247,0);stroke:rgb(0,0,0);stroke-width:2"/></g>
<g fill-rule="evenodd"><path d="M 3253.15,3024.02 L 3253.17,2896.43 L 3254.01,2887.66 L 3256.31,2878.34 L 3260,2869.47 L 3264.99,2861.27 L 3271.18,2853.92 L 3279.05,2847.12 L 3287.22,2842.07 L 3296.83,2838.07 L 3306.17,2835.83 L 3316.14,2835.04 L 3328.48,2836.26 L 3339.97,2839.72 L 3350.6,2845.3 L 3360.54,2853.35 L 3368.21,2862.58 L 3374.3,2873.83 L 3377.83,2885.3 L 3379.13,2898.03 L 3379.11,3025.62 L 3378.28,3034.38 L 3375.98,3043.71 L 3372.29,3052.58 L 3367.29,3060.78 L 3361.11,3068.13 L 3353.23,3074.93 L 3345.06,3079.98 L 3335.46,3083.97 L 3326.12,3086.21 L 3316.14,3087.01 L 3303.8,3085.79 L 3292.31,3082.33 L 3281.69,3076.75 L 3271.74,3068.7 L 3264.07,3059.47 L 3257.98,3048.21 L 3254.45,3036.75 L 3253.15,3024.02 z " style="fill-opacity:1.000000;fill:rgb(233,161,58);stroke:rgb(0,0,0);stroke-width:2"/></g>
<g fill-rule="evenodd"><path d="M 3453.15,3024.02 L 3453.17,2896.43 L 3454.01,2887.66 L 3456.31,2878.34 L 3460,2869.47 L 3464.99,2861.27 L 3471.18,2853.92 L 3479.05,2847.12 L 3487.22,2842.07 L 3496.83,2838.07 L 3506.17,2835.83 L 3516.14,2835.04 L 3528.48,2836.26 L 3539.97,2839.72 L 3550.6,2845.3 L 3560.54,2853.35 L 3568.21,2862.58 L 3574.3,2873.83 L 3577.83,2885.3 L 3579.13,2898.03 L 3579.11,3025.62 L 3578.28,3034.38 L 3575.98,3043.71 L 3572.29,3052.58 L 3567.29,3060.78 L 3561.11,3068.13 L 3553.23,3074.93 L 3545.06,3079.98 L 3535.46,3083.97 L 3526.12,3086.21 L 3516.14,3087.01 L 3503.8,3085.79 L 3492.31,3082.33 L 3481.69,3076.75 L 3471.74,3068.7 L 3464.07,3059.47 L 3457.98,3048.21 L 3454.45,3036.75 L 3453.15,3024.02 z " style="fill-opacity:1.000000;fill:rgb(229,202,11);stroke:rgb(0,0,0);stroke-width:2"/></g>
<g fill-rule="evenodd"><path d="M 3599.78,3069.51 L 3606.15,3054.18 L 3608.9,3042.49 L 3611.5,3037.82 L 3653.15,2996.17 L 3653.15,2850.79 L 3653.45,2847.72 L 3655.8,2842.04 L 3660.15,2837.69 L 3665.83,2835.34 L 3668.9,2835.04 L 3763.39,2835.04 L 3766.46,2835.34 L 3772.13,2837.69 L 3776.48,2842.04 L 3778.83,2847.72 L 3779.13,2850.79 L 3779.13,2996.18 L 3820.78,3037.82 L 3823.38,3042.49 L 3826.13,3054.18 L 3831.77,3066.96 L 3832.48,3072.41 L 3830.22,3077.3 L 3825.59,3080.27 L 3822.84,3080.67 L 3811.99,3080.67 L 3806.71,3079.12 L 3774.42,3047.14 L 3771.7,3053.71 L 3764.83,3063.98 L 3756.1,3072.71 L 3745.84,3079.57 L 3734.43,3084.29 L 3722.32,3086.7 L 3709.97,3086.7 L 3697.86,3084.29 L 3686.45,3079.57 L 3676.18,3072.71 L 3667.45,3063.98 L 3660.59,3053.71 L 3657.87,3047.14 L 3627.19,3077.81 L 3623.04,3080.27 L 3620.29,3080.67 L 3609.44,3080.67 L 3604.16,3079.12 L 3600.56,3074.96 L 3599.78,3069.51 z " style="fill-opacity:1.000000;fill:rgb(203,208,72);stroke:rgb(0,0,0);stroke-width:2"/></g>
<g fill-rule="evenodd"><path d="M 3853.15,3024.02 L 3853.17,2896.43 L 3854.01,2887.66 L 3856.31,2878.34 L 3860,2869.47 L 3864.99,2861.27 L 3871.18,2853.92 L 3879.05,2847.12 L 3887.22,2842.07 L 3896.83,2838.07 L 3906.17,2835.83 L 3916.14,2835.04 L 3928.48,2836.26 L 3939.97,2839.72 L 3950.6,2845.3 L 3960.54,2853.35 L 3968.21,2862.58 L 3974.3,2873.83 L 3977.83,2885.3 L 3979.13,2898.03 L 3979.11,3025.62 L 3978.28,3034.38 L 3975.98,3043.71 L 3972.29,3052.58 L 3967.29,3060.78 L 3961.11,3068.13 L 3953.23,3074.93 L 3945.06,3079.98 L 3935.46,3083.97 L 3926.12,3086.21 L 3916.14,3087.01 L 3903.8,3085.79 L 3892.31,3082.33 L 3881.69,3076.75 L 3871.74,3068.7 L 3864.07,3059.47 L 3857.98,3048.21 L 3854.45,3036.75 L 3853.15,3024.02 z " style="fill-opacity:1.000000;fill:rgb(71,100,189);stroke:rgb(0,0,0);stroke-width:2"/></g>
<g fill-rule="evenodd"><path d="M 3853.15,1498.03 L 3853.17,1370.45 L 3854.01,1361.68 L 3856.31,1352.35 L 3860,1343.49 L 3864.99,1335.28 L 3871.18,1327.93 L 3879.05,1321.13 L 3887.94,1315.72 L 3896.83,1312.09 L 3906.17,1309.85 L 3916.14,1309.06 L 3928.48,1310.28 L 3939.97,1313.74 L 3950.6,1319.31 L 3960.54,1327.36 L 3968.21,1336.59 L 3974.3,1347.85 L 3977.83,1359.32 L 3979.13,1372.05 L 3979.11,1499.63 L 3978.28,1508.4 L 3975.98,1517.73 L 3972.29,1526.59 L 3967.29,1534.8 L 3961.11,1542.15 L 3953.23,1548.95 L 3944.35,1554.36 L 3935.46,1557.99 L 3926.12,1560.23 L 3916.14,1561.02 L 3903.8,1559.8 L 3892.31,1556.34 L 3881.69,1550.77 L 3871.74,1542.72 L 3864.07,1533.48 L 3857.98,1522.23 L 3854.45,1510.76 L 3853.15,1498.03 z " style="fill-opacity:1.000000;fill:rgb(31,35,30);stroke:rgb(0,0,0);stroke-width:2"/></g>
<g fill-rule="evenodd"><path d="M 4053.15,3024.02 L 4053.17,2896.43 L 4054.01,2887.66 L 4056.31,2878.34 L 4060,2869.47 L 4064.99,2861.27 L 4071.18,2853.92 L 4079.05,2847.12 L 4087.22,2842.07 L 4096.83,2838.07 L 4106.17,2835.83 L 4116.14,2835.04 L 4128.48,2836.26 L 4139.97,2839.72 L 4150.6,2845.3 L 4160.54,2853.35 L 4168.21,2862.58 L 4174.3,2873.83 L 4177.83,2885.3 L 4179.13,2898.03 L 4179.11,3025.62 L 4178.28,3034.38 L 4175.98,3043.71 L 4172.29,3052.58 L 4167.29,3060.78 L 4161.11,3068.13 L 4153.23,3074.93 L 4145.06,3079.98 L 4135.46,3083.97 L 4126.12,3086.21 L 4116.14,3087.01 L 4103.8,3085.79 L 4092.31,3082.33 L 4081.69,3076.75 L 4071.74,3068.7 L 4064.07,3059.47 L 4057.98,3048.21 L 4054.45,3036.75 L 4053.15,3024.02 z " style="fill-opacity:1.000000;fill:rgb(168,28,123);stroke:rgb(0,0,0);stroke-width:2"/></g>
<g fill-rule="evenodd"><path d="M 4053.15,1498.03 L 4053.17,1370.45 L 4054.01,1361.68 L 4056.31,1352.35 L 4060,1343.49 L 4064.99,1335.28 L 4071.18,1327.93 L 4079.05,1321.13 L 4087.94,1315.72 L 4096.83,1312.09 L 4106.17,1309.85 L 4116.14,1309.06 L 4128.48,1310.28 L 4139.97,1313.74 L 4150.6,1319.31 L 4160.54,1327.36 L 4168.21,1336.59 L 4174.3,1347.85 L 4177.83,1359.32 L 4179.13,1372.05 L 4179.11,1499.63 L 4178.28,1508.4 L 4175.98,1517.73 L 4172.29,1526.59 L 4167.29,1534.8 L 4161.11,1542.15 L 4153.23,1548.95 L 4144.35,1554.36 L 4135.46,1557.99 L 4126.12,1560.23 L 4116.14,1561.02 L 4103.8,1559.8 L 4092.31,1556.34 L 4081.69,1550.77 L 4071.74,1542.72 L 4064.07,1533.48 L 4057.98,1522.23 L 4054.45,1510.76 L 4053.15,1498.03 z " style="fill-opacity:1.000000;fill:rgb(100,197,20);stroke:rgb(0,0,0);stroke-width:2"/></g>
</svg>
