<?xml version="1.0" standalone="no"?>
<!DOCTYPE svg PUBLIC "-//W3C//DTD SVG 1.1//EN"
"http://www.w3.org/Graphics/SVG/1.1/DTD/svg11.dtd">
<svg width="190.945" height="125.04" viewBox="0 0 3978.03 2605" version="1.1"
xmlns="http://www.w3.org/2000/svg"
xmlns:xlink="http://www.w3.org/1999/xlink">
<g fill-rule="evenodd"><path d="M 0,2605 L 0,9.09495e-13 L 3978.03,9.09495e-13 L 3978.03,2605 L 0,2605 z " style="fill-opacity:0.200000;fill:rgb(103,198,105);"/></g>
<polyline points="22.0833,1056.93 22.0833,797.084 155.943,797.084 155.943,1056.93 22.0833,1056.93" style="stroke:rgb(103,198,105);stroke-width:39.370079;fill:none;stroke-opacity:0.5;stroke-linecap:round;stroke-linejoin:round;;fill:none"/>
<polyline points="22.0833,1056.93 22.0833,797.084 155.943,797.084 155.943,1056.93 22.0833,1056.93" style="stroke:rgb(0,0,0);stroke-width:1px;fill:none;stroke-opacity:1;stroke-linecap:round;stroke-linejoin:round;;fill:none"/>
<polyline points="222.083,1056.93 222.083,797.084 355.943,797.084 355.943,1056.93 222.083,1056.93" style="stroke:rgb(103,198,105);stroke-width:39.370079;fill:none;stroke-opacity:0.5;stroke-linecap:round;stroke-linejoin:round;;fill:none"/>
<polyline points="222.083,1056.93 222.083,797.084 355.943,797.084 355.943,1056.93 222.083,1056.93" style="stroke:rgb(0,0,0);stroke-width:1px;fill:none;stroke-opacity:1;stroke-linecap:round;stroke-linejoin:round;;fill:none"/>
<polyline points="422.083,1056.93 422.083,797.084 555.941,797.084 555.941,1056.93 422.083,1056.93" style="stroke:rgb(103,198,105);stroke-width:39.370079;fill:none;stroke-opacity:0.5;stroke-linecap:round;stroke-linejoin:round;;fill:none"/>
<polyline points="422.083,1056.93 422.083,797.084 555.941,797.084 555.941,1056.93 422.083,1056.93" style="stroke:rgb(0,0,0);stroke-width:1px;fill:none;stroke-opacity:1;stroke-linecap:round;stroke-linejoin:round;;fill:none"/>
<polyline points="622.083,1056.93 622.083,797.084 755.943,797.084 755.943,1056.93 622.083,1056.93" style="stroke:rgb(103,198,105);stroke-width:39.370079;fill:none;stroke-opacity:0.5;stroke-linecap:round;stroke-linejoin:round;;fill:none"/>
<polyline points="622.083,1056.93 622.083,797.084 755.943,797.084 755.943,1056.93 622.083,1056.93" style="stroke:rgb(0,0,0);stroke-width:1px;fill:none;stroke-opacity:1;stroke-linecap:round;stroke-linejoin:round;;fill:none"/>
<polyline points="822.083,1056.93 822.083,797.084 955.943,797.084 955.943,1056.93 822.083,1056.93" style="stroke:rgb(103,198,105);stroke-width:39.370079;fill:none;stroke-opacity:0.5;stroke-linecap:round;stroke-linejoin:round;;fill:none"/>
<polyline points="822.083,1056.93 822.083,797.084 955.943,797.084 955.943,1056.93 822.083,1056.93" style="stroke:rgb(0,0,0);stroke-width:1px;fill:none;stroke-opacity:1;stroke-linecap:round;stroke-linejoin:round;;fill:none"/>
<polyline points="1022.08,1056.93 1022.08,797.084 1155.94,797.084 1155.94,1056.93 1022.08,1056.93" style="stroke:rgb(103,198,105);stroke-width:39.370079;fill:none;stroke-opacity:0.5;stroke-linecap:round;stroke-linejoin:round;;fill:none"/>
<polyline points="1022.08,1056.93 1022.08,797.084 1155.94,797.084 1155.94,1056.93 1022.08,1056.93" style="stroke:rgb(0,0,0);stroke-width:1px;fill:none;stroke-opacity:1;stroke-linecap:round;stroke-linejoin:round;;fill:none"/>
<polyline points="1222.08,1056.93 1222.08,797.084 1355.94,797.084 1355.94,1056.93 1222.08,1056.93" style="stroke:rgb(103,198,105);stroke-width:39.370079;fill:none;stroke-opacity:0.5;stroke-linecap:round;stroke-linejoin:round;;fill:none"/>
<polyline points="1222.08,1056.93 1222.08,797.084 1355.94,797.084 1355.94,1056.93 1222.08,1056.93" style="stroke:rgb(0,0,0);stroke-width:1px;fill:none;stroke-opacity:1;stroke-linecap:round;stroke-linejoin:round;;fill:none"/>
<polyline points="1422.08,1056.93 1422.08,797.084 1555.94,797.084 1555.94,1056.93 1422.08,1056.93" style="stroke:rgb(103,198,105);stroke-width:39.370079;fill:none;stroke-opacity:0.5;stroke-linecap:round;stroke-linejoin:round;;fill:none"/>
<polyline points="1422.08,1056.93 1422.08,797.084 1555.94,797.084 1555.94,1056.93 1422.08,1056.93" style="stroke:rgb(0,0,0);stroke-width:1px;fill:none;stroke-opacity:1;stroke-linecap:round;stroke-linejoin:round;;fill:none"/>
<polyline points="1622.08,1056.93 1622.08,797.084 1755.94,797.084 1755.94,1056.93 1622.08,1056.93" style="stroke:rgb(103,198,105);stroke-width:39.370079;fill:none;stroke-opacity:0.5;stroke-linecap:round;stroke-linejoin:round;;fill:none"/>
<polyline points="1622.08,1056.93 1622.08,797.084 1755.94,797.084 1755.94,1056.93 1622.08,1056.93" style="stroke:rgb(0,0,0);stroke-width:1px;fill:none;stroke-opacity:1;stroke-linecap:round;stroke-linejoin:round;;fill:none"/>
<polyline points="1822.08,1056.93 1822.08,797.084 1955.94,797.084 1955.94,1056.93 1822.08,1056.93" style="stroke:rgb(103,198,105);stroke-width:39.370079;fill:none;stroke-opacity:0.5;stroke-linecap:round;stroke-linejoin:round;;fill:none"/>
<polyline points="1822.08,1056.93 1822.08,797.084 1955.94,797.084 1955.94,1056.93 1822.08,1056.93" style="stroke:rgb(0,0,0);stroke-width:1px;fill:none;stroke-opacity:1;stroke-linecap:round;stroke-linejoin:round;;fill:none"/>
<polyline points="2166.59,644.708 2166.8,645.41 2215.68,645.38 2215.66,547.206 2166.7,547.216 2166.59,644.708" style="stroke:rgb(103,198,105);stroke-width:39.370079;fill:none;stroke-opacity:0.5;stroke-linecap:round;stroke-linejoin:round;;fill:none"/>
<polyline points="2166.59,644.708 2166.8,645.41 2215.68,645.38 2215.66,547.206 2166.7,547.216 2166.59,644.708" style="stroke:rgb(0,0,0);stroke-width:1px;fill:none;stroke-opacity:1;stroke-linecap:round;stroke-linejoin:round;;fill:none"/>
<polyline points="1942.18,301.4 1942.29,203.908 1991.25,203.898 1991.27,302.072 1942.39,302.102 1942.18,301.4" style="stroke:rgb(103,198,105);stroke-width:39.370079;fill:none;stroke-opacity:0.5;stroke-linecap:round;stroke-linejoin:round;;fill:none"/>
<polyline points="1942.18,301.4 1942.29,203.908 1991.25,203.898 1991.27,302.072 1942.39,302.102 1942.18,301.4" style="stroke:rgb(0,0,0);stroke-width:1px;fill:none;stroke-opacity:1;stroke-linecap:round;stroke-linejoin:round;;fill:none"/>
<polyline points="2172.5,301.4 2172.6,203.908 2221.56,203.898 2221.58,302.072 2172.7,302.102 2172.5,301.4" style="stroke:rgb(103,198,105);stroke-width:39.370079;fill:none;stroke-opacity:0.5;stroke-linecap:round;stroke-linejoin:round;;fill:none"/>
<polyline points="2172.5,301.4 2172.6,203.908 2221.56,203.898 2221.58,302.072 2172.7,302.102 2172.5,301.4" style="stroke:rgb(0,0,0);stroke-width:1px;fill:none;stroke-opacity:1;stroke-linecap:round;stroke-linejoin:round;;fill:none"/>
<polyline points="2554.76,102.794 2554.76,22.0836 2566.57,22.0836 2566.57,102.794 2554.76,102.794" style="stroke:rgb(103,198,105);stroke-width:39.370079;fill:none;stroke-opacity:0.5;stroke-linecap:round;stroke-linejoin:round;;fill:none"/>
<polyline points="2554.76,102.794 2554.76,22.0836 2566.57,22.0836 2566.57,102.794 2554.76,102.794" style="stroke:rgb(0,0,0);stroke-width:1px;fill:none;stroke-opacity:1;stroke-linecap:round;stroke-linejoin:round;;fill:none"/>
<polyline points="2654.76,102.794 2654.76,22.0836 2666.57,22.0836 2666.57,102.794 2654.76,102.794" style="stroke:rgb(103,198,105);stroke-width:39.370079;fill:none;stroke-opacity:0.5;stroke-linecap:round;stroke-linejoin:round;;fill:none"/>
<polyline points="2654.76,102.794 2654.76,22.0836 2666.57,22.0836 2666.57,102.794 2654.76,102.794" style="stroke:rgb(0,0,0);stroke-width:1px;fill:none;stroke-opacity:1;stroke-linecap:round;stroke-linejoin:round;;fill:none"/>
<polyline points="2754.76,102.794 2754.76,22.0836 2766.57,22.0836 2766.57,102.794 2754.76,102.794" style="stroke:rgb(103,198,105);stroke-width:39.370079;fill:none;stroke-opacity:0.5;stroke-linecap:round;stroke-linejoin:round;;fill:none"/>
<polyline points="2754.76,102.794 2754.76,22.0836 2766.57,22.0836 2766.57,102.794 2754.76,102.794" style="stroke:rgb(0,0,0);stroke-width:1px;fill:none;stroke-opacity:1;stroke-linecap:round;stroke-linejoin:round;;fill:none"/>
<polyline points="2854.76,102.794 2854.76,22.0836 2866.57,22.0836 2866.57,102.794 2854.76,102.794" style="stroke:rgb(103,198,105);stroke-width:39.370079;fill:none;stroke-opacity:0.5;stroke-linecap:round;stroke-linejoin:round;;fill:none"/>
<polyline points="2854.76,102.794 2854.76,22.0836 2866.57,22.0836 2866.57,102.794 2854.76,102.794" style="stroke:rgb(0,0,0);stroke-width:1px;fill:none;stroke-opacity:1;stroke-linecap:round;stroke-linejoin:round;;fill:none"/>
<polyline points="2554.76,529.88 2566.57,529.88 2566.57,449.172 2554.76,449.172 2554.76,529.88" style="stroke:rgb(103,198,105);stroke-width:39.370079;fill:none;stroke-opacity:0.5;stroke-linecap:round;stroke-linejoin:round;;fill:none"/>
<polyline points="2554.76,529.88 2566.57,529.88 2566.57,449.172 2554.76,449.172 2554.76,529.88" style="stroke:rgb(0,0,0);stroke-width:1px;fill:none;stroke-opacity:1;stroke-linecap:round;stroke-linejoin:round;;fill:none"/>
<polyline points="2654.76,529.88 2666.57,529.88 2666.57,449.172 2654.76,449.172 2654.76,529.88" style="stroke:rgb(103,198,105);stroke-width:39.370079;fill:none;stroke-opacity:0.5;stroke-linecap:round;stroke-linejoin:round;;fill:none"/>
<polyline points="2654.76,529.88 2666.57,529.88 2666.57,449.172 2654.76,449.172 2654.76,529.88" style="stroke:rgb(0,0,0);stroke-width:1px;fill:none;stroke-opacity:1;stroke-linecap:round;stroke-linejoin:round;;fill:none"/>
<polyline points="2754.76,529.88 2766.57,529.88 2766.57,449.172 2754.76,449.172 2754.76,529.88" style="stroke:rgb(103,198,105);stroke-width:39.370079;fill:none;stroke-opacity:0.5;stroke-linecap:round;stroke-linejoin:round;;fill:none"/>
<polyline points="2754.76,529.88 2766.57,529.88 2766.57,449.172 2754.76,449.172 2754.76,529.88" style="stroke:rgb(0,0,0);stroke-width:1px;fill:none;stroke-opacity:1;stroke-linecap:round;stroke-linejoin:round;;fill:none"/>
<polyline points="2854.76,529.88 2866.57,529.88 2866.57,449.172 2854.76,449.172 2854.76,529.88" style="stroke:rgb(103,198,105);stroke-width:39.370079;fill:none;stroke-opacity:0.5;stroke-linecap:round;stroke-linejoin:round;;fill:none"/>
<polyline points="2854.76,529.88 2866.57,529.88 2866.57,449.172 2854.76,449.172 2854.76,529.88" style="stroke:rgb(0,0,0);stroke-width:1px;fill:none;stroke-opacity:1;stroke-linecap:round;stroke-linejoin:round;;fill:none"/>
<polyline points="3094.98,467.818 3169.58,467.822 3169.59,428.706 3095.04,428.712 3094.98,467.818" style="stroke:rgb(103,198,105);stroke-width:39.370079;fill:none;stroke-opacity:0.5;stroke-linecap:round;stroke-linejoin:round;;fill:none"/>
<polyline points="3094.98,467.818 3169.58,467.822 3169.59,428.706 3095.04,428.712 3094.98,467.818" style="stroke:rgb(0,0,0);stroke-width:1px;fill:none;stroke-opacity:1;stroke-linecap:round;stroke-linejoin:round;;fill:none"/>
<polyline points="3094.98,617.424 3169.58,617.428 3169.59,578.312 3095.04,578.318 3094.98,617.424" style="stroke:rgb(103,198,105);stroke-width:39.370079;fill:none;stroke-opacity:0.5;stroke-linecap:round;stroke-linejoin:round;;fill:none"/>
<polyline points="3094.98,617.424 3169.58,617.428 3169.59,578.312 3095.04,578.318 3094.98,617.424" style="stroke:rgb(0,0,0);stroke-width:1px;fill:none;stroke-opacity:1;stroke-linecap:round;stroke-linejoin:round;;fill:none"/>
<polyline points="3822.08,1056.93 3955.94,1056.93 3955.94,797.084 3822.08,797.084 3822.08,1056.93" style="stroke:rgb(103,198,105);stroke-width:39.370079;fill:none;stroke-opacity:0.5;stroke-linecap:round;stroke-linejoin:round;;fill:none"/>
<polyline points="3822.08,1056.93 3955.94,1056.93 3955.94,797.084 3822.08,797.084 3822.08,1056.93" style="stroke:rgb(0,0,0);stroke-width:1px;fill:none;stroke-opacity:1;stroke-linecap:round;stroke-linejoin:round;;fill:none"/>
<polyline points="3622.08,1056.93 3755.94,1056.93 3755.94,797.084 3622.08,797.084 3622.08,1056.93" style="stroke:rgb(103,198,105);stroke-width:39.370079;fill:none;stroke-opacity:0.5;stroke-linecap:round;stroke-linejoin:round;;fill:none"/>
<polyline points="3622.08,1056.93 3755.94,1056.93 3755.94,797.084 3622.08,797.084 3622.08,1056.93" style="stroke:rgb(0,0,0);stroke-width:1px;fill:none;stroke-opacity:1;stroke-linecap:round;stroke-linejoin:round;;fill:none"/>
<polyline points="3422.08,1056.93 3555.94,1056.93 3555.94,797.084 3422.08,797.084 3422.08,1056.93" style="stroke:rgb(103,198,105);stroke-width:39.370079;fill:none;stroke-opacity:0.5;stroke-linecap:round;stroke-linejoin:round;;fill:none"/>
<polyline points="3422.08,1056.93 3555.94,1056.93 3555.94,797.084 3422.08,797.084 3422.08,1056.93" style="stroke:rgb(0,0,0);stroke-width:1px;fill:none;stroke-opacity:1;stroke-linecap:round;stroke-linejoin:round;;fill:none"/>
<polyline points="3222.08,1056.93 3355.94,1056.93 3355.94,797.084 3222.08,797.084 3222.08,1056.93" style="stroke:rgb(103,198,105);stroke-width:39.370079;fill:none;stroke-opacity:0.5;stroke-linecap:round;stroke-linejoin:round;;fill:none"/>
<polyline points="3222.08,1056.93 3355.94,1056.93 3355.94,797.084 3222.08,797.084 3222.08,1056.93" style="stroke:rgb(0,0,0);stroke-width:1px;fill:none;stroke-opacity:1;stroke-linecap:round;stroke-linejoin:round;;fill:none"/>
<polyline points="3022.08,1056.93 3155.94,1056.93 3155.94,797.084 3022.08,797.084 3022.08,1056.93" style="stroke:rgb(103,198,105);stroke-width:39.370079;fill:none;stroke-opacity:0.5;stroke-linecap:round;stroke-linejoin:round;;fill:none"/>
<polyline points="3022.08,1056.93 3155.94,1056.93 3155.94,797.084 3022.08,797.084 3022.08,1056.93" style="stroke:rgb(0,0,0);stroke-width:1px;fill:none;stroke-opacity:1;stroke-linecap:round;stroke-linejoin:round;;fill:none"/>
<polyline points="2822.08,1056.93 2955.94,1056.93 2955.94,797.084 2822.08,797.084 2822.08,1056.93" style="stroke:rgb(103,198,105);stroke-width:39.370079;fill:none;stroke-opacity:0.5;stroke-linecap:round;stroke-linejoin:round;;fill:none"/>
<polyline points="2822.08,1056.93 2955.94,1056.93 2955.94,797.084 2822.08,797.084 2822.08,1056.93" style="stroke:rgb(0,0,0);stroke-width:1px;fill:none;stroke-opacity:1;stroke-linecap:round;stroke-linejoin:round;;fill:none"/>
<polyline points="2622.08,1056.93 2622.08,797.084 2755.94,797.084 2755.94,1056.93 2622.08,1056.93" style="stroke:rgb(103,198,105);stroke-width:39.370079;fill:none;stroke-opacity:0.5;stroke-linecap:round;stroke-linejoin:round;;fill:none"/>
<polyline points="2622.08,1056.93 2622.08,797.084 2755.94,797.084 2755.94,1056.93 2622.08,1056.93" style="stroke:rgb(0,0,0);stroke-width:1px;fill:none;stroke-opacity:1;stroke-linecap:round;stroke-linejoin:round;;fill:none"/>
<polyline points="2396.91,644.708 2397.01,547.216 2445.97,547.206 2445.99,645.38 2397.11,645.41 2396.91,644.708" style="stroke:rgb(103,198,105);stroke-width:39.370079;fill:none;stroke-opacity:0.5;stroke-linecap:round;stroke-linejoin:round;;fill:none"/>
<polyline points="2396.91,644.708 2397.01,547.216 2445.97,547.206 2445.99,645.38 2397.11,645.41 2396.91,644.708" style="stroke:rgb(0,0,0);stroke-width:1px;fill:none;stroke-opacity:1;stroke-linecap:round;stroke-linejoin:round;;fill:none"/>
<polyline points="2422.08,1056.93 2422.08,797.084 2555.94,797.084 2555.94,1056.93 2422.08,1056.93" style="stroke:rgb(103,198,105);stroke-width:39.370079;fill:none;stroke-opacity:0.5;stroke-linecap:round;stroke-linejoin:round;;fill:none"/>
<polyline points="2422.08,1056.93 2422.08,797.084 2555.94,797.084 2555.94,1056.93 2422.08,1056.93" style="stroke:rgb(0,0,0);stroke-width:1px;fill:none;stroke-opacity:1;stroke-linecap:round;stroke-linejoin:round;;fill:none"/>
<polyline points="2395.54,1243.94 2395.77,1248.37 2396.45,1252.69 2397.58,1256.98 2398.89,1260.51 2400.51,1263.9 2402.84,1267.75 2405.05,1270.72 2408.03,1274 2411.33,1276.96 2414.31,1279.15 2418.12,1281.42 2422.09,1283.26 2426.29,1284.69 2429.89,1285.54 2434.35,1286.15 2438.04,1286.3 2442.47,1286.04 2446.79,1285.34 2451.07,1284.17 2454.53,1282.86 2458.56,1280.87 2461.7,1278.92 2465.27,1276.19 2468.03,1273.62 2470.54,1270.82 2473.16,1267.24 2475.41,1263.42 2476.96,1260.06 2478.44,1255.81 2479.32,1252.22 2479.96,1247.76 2480.12,1244.07 2479.9,1239.64 2479.22,1235.32 2478.09,1231.03 2476.78,1227.5 2475.15,1224.11 2472.83,1220.26 2470.62,1217.29 2467.64,1214.01 2464.33,1211.05 2461.35,1208.86 2457.54,1206.59 2453.57,1204.76 2449.38,1203.32 2445.78,1202.47 2441.32,1201.86 2437.62,1201.71 2433.2,1201.97 2428.88,1202.68 2424.6,1203.84 2421.14,1205.15 2417.11,1207.14 2413.96,1209.09 2410.39,1211.83 2407.64,1214.39 2405.13,1217.19 2402.5,1220.77 2400.26,1224.59 2398.71,1227.95 2397.22,1232.2 2396.35,1235.79 2395.71,1240.25 2395.54,1243.94" style="stroke:rgb(103,198,105);stroke-width:39.370079;fill:none;stroke-opacity:0.5;stroke-linecap:round;stroke-linejoin:round;;fill:none"/>
<polyline points="2395.54,1243.94 2395.77,1248.37 2396.45,1252.69 2397.58,1256.98 2398.89,1260.51 2400.51,1263.9 2402.84,1267.75 2405.05,1270.72 2408.03,1274 2411.33,1276.96 2414.31,1279.15 2418.12,1281.42 2422.09,1283.26 2426.29,1284.69 2429.89,1285.54 2434.35,1286.15 2438.04,1286.3 2442.47,1286.04 2446.79,1285.34 2451.07,1284.17 2454.53,1282.86 2458.56,1280.87 2461.7,1278.92 2465.27,1276.19 2468.03,1273.62 2470.54,1270.82 2473.16,1267.24 2475.41,1263.42 2476.96,1260.06 2478.44,1255.81 2479.32,1252.22 2479.96,1247.76 2480.12,1244.07 2479.9,1239.64 2479.22,1235.32 2478.09,1231.03 2476.78,1227.5 2475.15,1224.11 2472.83,1220.26 2470.62,1217.29 2467.64,1214.01 2464.33,1211.05 2461.35,1208.86 2457.54,1206.59 2453.57,1204.76 2449.38,1203.32 2445.78,1202.47 2441.32,1201.86 2437.62,1201.71 2433.2,1201.97 2428.88,1202.68 2424.6,1203.84 2421.14,1205.15 2417.11,1207.14 2413.96,1209.09 2410.39,1211.83 2407.64,1214.39 2405.13,1217.19 2402.5,1220.77 2400.26,1224.59 2398.71,1227.95 2397.22,1232.2 2396.35,1235.79 2395.71,1240.25 2395.54,1243.94" style="stroke:rgb(0,0,0);stroke-width:1px;fill:none;stroke-opacity:1;stroke-linecap:round;stroke-linejoin:round;;fill:none"/>
<polyline points="2222.08,1056.93 2355.94,1056.93 2355.94,797.084 2222.08,797.084 2222.08,1056.93" style="stroke:rgb(103,198,105);stroke-width:39.370079;fill:none;stroke-opacity:0.5;stroke-linecap:round;stroke-linejoin:round;;fill:none"/>
<polyline points="2222.08,1056.93 2355.94,1056.93 2355.94,797.084 2222.08,797.084 2222.08,1056.93" style="stroke:rgb(0,0,0);stroke-width:1px;fill:none;stroke-opacity:1;stroke-linecap:round;stroke-linejoin:round;;fill:none"/>
<polyline points="2022.08,1056.93 2155.94,1056.93 2155.94,797.084 2022.08,797.084 2022.08,1056.93" style="stroke:rgb(103,198,105);stroke-width:39.370079;fill:none;stroke-opacity:0.5;stroke-linecap:round;stroke-linejoin:round;;fill:none"/>
<polyline points="2022.08,1056.93 2155.94,1056.93 2155.94,797.084 2022.08,797.084 2022.08,1056.93" style="stroke:rgb(0,0,0);stroke-width:1px;fill:none;stroke-opacity:1;stroke-linecap:round;stroke-linejoin:round;;fill:none"/>
<polyline points="2395.54,1443.94 2395.71,1440.25 2396.35,1435.79 2397.22,1432.2 2398.71,1427.95 2400.26,1424.59 2402.5,1420.77 2405.13,1417.19 2407.64,1414.39 2410.39,1411.83 2413.96,1409.09 2417.11,1407.14 2421.08,1405.18 2425.24,1403.63 2428.82,1402.69 2433.2,1401.97 2437.62,1401.71 2441.32,1401.86 2445.78,1402.47 2449.38,1403.32 2453.57,1404.76 2457.54,1406.59 2461.35,1408.86 2464.33,1411.05 2467.64,1414.01 2470.62,1417.29 2472.83,1420.26 2475.15,1424.11 2476.78,1427.5 2478.09,1431.03 2479.22,1435.32 2479.9,1439.64 2480.12,1444.07 2479.96,1447.76 2479.32,1452.22 2478.44,1455.81 2476.96,1460.06 2475.41,1463.42 2473.16,1467.24 2470.54,1470.82 2468.03,1473.62 2465.27,1476.19 2461.7,1478.92 2458.56,1480.87 2454.58,1482.84 2450.42,1484.38 2446.85,1485.33 2442.47,1486.04 2438.04,1486.3 2434.35,1486.15 2429.95,1485.55 2425.64,1484.5 2422.15,1483.28 2418.12,1481.42 2414.31,1479.15 2411.33,1476.96 2408.03,1474 2405.05,1470.72 2402.84,1467.75 2400.51,1463.9 2398.89,1460.51 2397.58,1456.98 2396.45,1452.69 2395.77,1448.37 2395.54,1443.94" style="stroke:rgb(103,198,105);stroke-width:39.370079;fill:none;stroke-opacity:0.5;stroke-linecap:round;stroke-linejoin:round;;fill:none"/>
<polyline points="2395.54,1443.94 2395.71,1440.25 2396.35,1435.79 2397.22,1432.2 2398.71,1427.95 2400.26,1424.59 2402.5,1420.77 2405.13,1417.19 2407.64,1414.39 2410.39,1411.83 2413.96,1409.09 2417.11,1407.14 2421.08,1405.18 2425.24,1403.63 2428.82,1402.69 2433.2,1401.97 2437.62,1401.71 2441.32,1401.86 2445.78,1402.47 2449.38,1403.32 2453.57,1404.76 2457.54,1406.59 2461.35,1408.86 2464.33,1411.05 2467.64,1414.01 2470.62,1417.29 2472.83,1420.26 2475.15,1424.11 2476.78,1427.5 2478.09,1431.03 2479.22,1435.32 2479.9,1439.64 2480.12,1444.07 2479.96,1447.76 2479.32,1452.22 2478.44,1455.81 2476.96,1460.06 2475.41,1463.42 2473.16,1467.24 2470.54,1470.82 2468.03,1473.62 2465.27,1476.19 2461.7,1478.92 2458.56,1480.87 2454.58,1482.84 2450.42,1484.38 2446.85,1485.33 2442.47,1486.04 2438.04,1486.3 2434.35,1486.15 2429.95,1485.55 2425.64,1484.5 2422.15,1483.28 2418.12,1481.42 2414.31,1479.15 2411.33,1476.96 2408.03,1474 2405.05,1470.72 2402.84,1467.75 2400.51,1463.9 2398.89,1460.51 2397.58,1456.98 2396.45,1452.69 2395.77,1448.37 2395.54,1443.94" style="stroke:rgb(0,0,0);stroke-width:1px;fill:none;stroke-opacity:1;stroke-linecap:round;stroke-linejoin:round;;fill:none"/>
<polyline points="2395.52,1686.29 2395.52,1601.69 2480.15,1601.7 2480.13,1686.32 2395.52,1686.29" style="stroke:rgb(103,198,105);stroke-width:39.370079;fill:none;stroke-opacity:0.5;stroke-linecap:round;stroke-linejoin:round;;fill:none"/>
<polyline points="2395.52,1686.29 2395.52,1601.69 2480.15,1601.7 2480.13,1686.32 2395.52,1686.29" style="stroke:rgb(0,0,0);stroke-width:1px;fill:none;stroke-opacity:1;stroke-linecap:round;stroke-linejoin:round;;fill:none"/>
<polyline points="1083.5,1921.37 1083.65,1922.91 1084.26,1924.43 1085.25,1925.46 1087.01,1926.12 1157.43,1926.21 1159.85,1925.79 1161.24,1924.78 1161.85,1923.81 1162.19,1922.37 1162.23,1851.95 1161.98,1850.13 1161.49,1849.17 1159.96,1847.9 1158.22,1847.5 1088.09,1847.49 1085.67,1847.99 1084.54,1848.87 1083.92,1849.82 1083.59,1851.1 1083.5,1921.37" style="stroke:rgb(103,198,105);stroke-width:39.370079;fill:none;stroke-opacity:0.5;stroke-linecap:round;stroke-linejoin:round;;fill:none"/>
<polyline points="1083.5,1921.37 1083.65,1922.91 1084.26,1924.43 1085.25,1925.46 1087.01,1926.12 1157.43,1926.21 1159.85,1925.79 1161.24,1924.78 1161.85,1923.81 1162.19,1922.37 1162.23,1851.95 1161.98,1850.13 1161.49,1849.17 1159.96,1847.9 1158.22,1847.5 1088.09,1847.49 1085.67,1847.99 1084.54,1848.87 1083.92,1849.82 1083.59,1851.1 1083.5,1921.37" style="stroke:rgb(0,0,0);stroke-width:1px;fill:none;stroke-opacity:1;stroke-linecap:round;stroke-linejoin:round;;fill:none"/>
<polyline points="886.651,1921.37 886.797,1922.91 887.411,1924.43 888.395,1925.46 890.157,1926.12 960.581,1926.21 963.003,1925.79 964.393,1924.78 965.003,1923.81 965.337,1922.37 965.377,1851.95 965.129,1850.13 964.633,1849.17 963.111,1847.9 961.367,1847.5 891.239,1847.49 888.819,1847.99 887.691,1848.87 887.065,1849.82 886.733,1851.1 886.651,1921.37" style="stroke:rgb(103,198,105);stroke-width:39.370079;fill:none;stroke-opacity:0.5;stroke-linecap:round;stroke-linejoin:round;;fill:none"/>
<polyline points="886.651,1921.37 886.797,1922.91 887.411,1924.43 888.395,1925.46 890.157,1926.12 960.581,1926.21 963.003,1925.79 964.393,1924.78 965.003,1923.81 965.337,1922.37 965.377,1851.95 965.129,1850.13 964.633,1849.17 963.111,1847.9 961.367,1847.5 891.239,1847.49 888.819,1847.99 887.691,1848.87 887.065,1849.82 886.733,1851.1 886.651,1921.37" style="stroke:rgb(0,0,0);stroke-width:1px;fill:none;stroke-opacity:1;stroke-linecap:round;stroke-linejoin:round;;fill:none"/>
<polyline points="689.799,1921.37 689.945,1922.91 690.561,1924.43 691.545,1925.46 693.307,1926.12 763.731,1926.21 766.151,1925.79 767.543,1924.78 768.153,1923.81 768.487,1922.37 768.527,1851.95 768.275,1850.13 767.783,1849.17 766.261,1847.9 764.517,1847.5 694.387,1847.49 691.969,1847.99 690.841,1848.87 690.215,1849.82 689.883,1851.1 689.799,1921.37" style="stroke:rgb(103,198,105);stroke-width:39.370079;fill:none;stroke-opacity:0.5;stroke-linecap:round;stroke-linejoin:round;;fill:none"/>
<polyline points="689.799,1921.37 689.945,1922.91 690.561,1924.43 691.545,1925.46 693.307,1926.12 763.731,1926.21 766.151,1925.79 767.543,1924.78 768.153,1923.81 768.487,1922.37 768.527,1851.95 768.275,1850.13 767.783,1849.17 766.261,1847.9 764.517,1847.5 694.387,1847.49 691.969,1847.99 690.841,1848.87 690.215,1849.82 689.883,1851.1 689.799,1921.37" style="stroke:rgb(0,0,0);stroke-width:1px;fill:none;stroke-opacity:1;stroke-linecap:round;stroke-linejoin:round;;fill:none"/>
<polyline points="300.473,1498.14 300.711,1502.38 301.769,1506.48 303.609,1510.3 306.159,1513.69 309.321,1516.52 313.313,1518.82 317.635,1520.22 322.631,1520.71 353.699,1520.69 357.495,1520.29 360.713,1519.44 363.759,1518.1 366.683,1516.23 368.647,1514.55 370.479,1512.53 373.159,1508.22 374.199,1505.55 375.141,1500.57 375.161,1497.84 374.287,1492.84 373.309,1490.22 372.041,1487.81 370.479,1485.58 368.647,1483.56 364.565,1480.43 360.147,1478.45 355.633,1477.54 322.363,1477.41 318.259,1477.78 313.743,1479.1 309.819,1481.24 307.903,1482.73 304.583,1486.35 302.467,1489.94 301.667,1491.91 301.065,1493.94 300.473,1498.14" style="stroke:rgb(103,198,105);stroke-width:39.370079;fill:none;stroke-opacity:0.5;stroke-linecap:round;stroke-linejoin:round;;fill:none"/>
<polyline points="300.473,1498.14 300.711,1502.38 301.769,1506.48 303.609,1510.3 306.159,1513.69 309.321,1516.52 313.313,1518.82 317.635,1520.22 322.631,1520.71 353.699,1520.69 357.495,1520.29 360.713,1519.44 363.759,1518.1 366.683,1516.23 368.647,1514.55 370.479,1512.53 373.159,1508.22 374.199,1505.55 375.141,1500.57 375.161,1497.84 374.287,1492.84 373.309,1490.22 372.041,1487.81 370.479,1485.58 368.647,1483.56 364.565,1480.43 360.147,1478.45 355.633,1477.54 322.363,1477.41 318.259,1477.78 313.743,1479.1 309.819,1481.24 307.903,1482.73 304.583,1486.35 302.467,1489.94 301.667,1491.91 301.065,1493.94 300.473,1498.14" style="stroke:rgb(0,0,0);stroke-width:1px;fill:none;stroke-opacity:1;stroke-linecap:round;stroke-linejoin:round;;fill:none"/>
<polyline points="48.0933,1475.75 48.1893,1473.3 49.0773,1468.71 50.1193,1465.91 51.6633,1462.98 53.3233,1460.64 55.2993,1458.47 57.5273,1456.57 59.9753,1454.96 62.5533,1453.69 65.7373,1452.61 68.1833,1452.11 71.5493,1451.82 126.087,1451.81 130.259,1452.12 133.743,1452.9 136.437,1453.9 138.707,1455.06 141.183,1456.73 143.391,1458.66 145.379,1460.89 146.841,1462.98 148.251,1465.61 149.323,1468.4 149.951,1470.87 150.337,1473.83 150.355,1476.76 150.001,1479.73 149.401,1482.21 148.361,1485.01 147.007,1487.61 145.247,1490.15 142.183,1493.33 138.529,1495.91 136.339,1497.02 132.357,1498.37 126.521,1499.05 71.6033,1499.04 67.9753,1498.71 64.6993,1497.96 62.5473,1497.19 58.8773,1495.25 55.3293,1492.44 52.2013,1488.73 49.9153,1484.52 48.5893,1480.25 48.0933,1475.75" style="stroke:rgb(103,198,105);stroke-width:39.370079;fill:none;stroke-opacity:0.5;stroke-linecap:round;stroke-linejoin:round;;fill:none"/>
<polyline points="48.0933,1475.75 48.1893,1473.3 49.0773,1468.71 50.1193,1465.91 51.6633,1462.98 53.3233,1460.64 55.2993,1458.47 57.5273,1456.57 59.9753,1454.96 62.5533,1453.69 65.7373,1452.61 68.1833,1452.11 71.5493,1451.82 126.087,1451.81 130.259,1452.12 133.743,1452.9 136.437,1453.9 138.707,1455.06 141.183,1456.73 143.391,1458.66 145.379,1460.89 146.841,1462.98 148.251,1465.61 149.323,1468.4 149.951,1470.87 150.337,1473.83 150.355,1476.76 150.001,1479.73 149.401,1482.21 148.361,1485.01 147.007,1487.61 145.247,1490.15 142.183,1493.33 138.529,1495.91 136.339,1497.02 132.357,1498.37 126.521,1499.05 71.6033,1499.04 67.9753,1498.71 64.6993,1497.96 62.5473,1497.19 58.8773,1495.25 55.3293,1492.44 52.2013,1488.73 49.9153,1484.52 48.5893,1480.25 48.0933,1475.75" style="stroke:rgb(0,0,0);stroke-width:1px;fill:none;stroke-opacity:1;stroke-linecap:round;stroke-linejoin:round;;fill:none"/>
<polyline points="36.2593,1645.78 36.3413,1575.51 36.6713,1574.23 37.4033,1573.15 38.5853,1572.34 40.8453,1571.9 110.973,1571.91 112.717,1572.31 114.241,1573.58 114.895,1575.15 114.983,1576.02 114.943,1646.78 114.609,1648.22 113.999,1649.18 112.609,1650.2 110.187,1650.63 39.7653,1650.53 38.0033,1649.88 37.0173,1648.84 36.4033,1647.32 36.2593,1645.78" style="stroke:rgb(103,198,105);stroke-width:39.370079;fill:none;stroke-opacity:0.5;stroke-linecap:round;stroke-linejoin:round;;fill:none"/>
<polyline points="36.2593,1645.78 36.3413,1575.51 36.6713,1574.23 37.4033,1573.15 38.5853,1572.34 40.8453,1571.9 110.973,1571.91 112.717,1572.31 114.241,1573.58 114.895,1575.15 114.983,1576.02 114.943,1646.78 114.609,1648.22 113.999,1649.18 112.609,1650.2 110.187,1650.63 39.7653,1650.53 38.0033,1649.88 37.0173,1648.84 36.4033,1647.32 36.2593,1645.78" style="stroke:rgb(0,0,0);stroke-width:1px;fill:none;stroke-opacity:1;stroke-linecap:round;stroke-linejoin:round;;fill:none"/>
<polyline points="36.2593,1803.26 36.3413,1732.99 36.6713,1731.71 37.2973,1730.76 38.8533,1729.69 40.8453,1729.37 110.973,1729.39 112.717,1729.79 114.205,1731.03 114.895,1732.63 114.983,1733.5 114.943,1804.26 114.609,1805.7 113.999,1806.67 112.609,1807.68 110.187,1808.11 39.7653,1808.01 38.0033,1807.35 37.0173,1806.32 36.4033,1804.8 36.2593,1803.26" style="stroke:rgb(103,198,105);stroke-width:39.370079;fill:none;stroke-opacity:0.5;stroke-linecap:round;stroke-linejoin:round;;fill:none"/>
<polyline points="36.2593,1803.26 36.3413,1732.99 36.6713,1731.71 37.2973,1730.76 38.8533,1729.69 40.8453,1729.37 110.973,1729.39 112.717,1729.79 114.205,1731.03 114.895,1732.63 114.983,1733.5 114.943,1804.26 114.609,1805.7 113.999,1806.67 112.609,1807.68 110.187,1808.11 39.7653,1808.01 38.0033,1807.35 37.0173,1806.32 36.4033,1804.8 36.2593,1803.26" style="stroke:rgb(0,0,0);stroke-width:1px;fill:none;stroke-opacity:1;stroke-linecap:round;stroke-linejoin:round;;fill:none"/>
<polyline points="48.0933,1904.89 48.1893,1902.43 49.0773,1897.84 50.1373,1894.99 51.4913,1892.39 53.1253,1890.03 55.3413,1887.57 57.5273,1885.71 59.9753,1884.1 62.5533,1882.83 65.7373,1881.74 68.1833,1881.24 71.5493,1880.95 126.087,1880.94 130.259,1881.25 133.797,1882.04 136.091,1882.88 138.753,1884.23 141.183,1885.87 143.433,1887.83 145.143,1889.73 146.867,1892.16 148.251,1894.75 149.323,1897.53 149.951,1900.01 150.337,1902.97 150.355,1905.89 150.001,1908.86 149.401,1911.34 148.361,1914.14 147.007,1916.74 145.247,1919.29 142.429,1922.26 138.713,1924.94 134.603,1926.84 132.669,1927.42 130.427,1927.87 126.521,1928.18 71.6033,1928.18 67.9753,1927.85 62.8953,1926.46 58.5613,1924.17 55.3293,1921.57 52.2013,1917.87 50.0393,1913.95 48.5813,1909.33 48.0933,1904.89" style="stroke:rgb(103,198,105);stroke-width:39.370079;fill:none;stroke-opacity:0.5;stroke-linecap:round;stroke-linejoin:round;;fill:none"/>
<polyline points="48.0933,1904.89 48.1893,1902.43 49.0773,1897.84 50.1373,1894.99 51.4913,1892.39 53.1253,1890.03 55.3413,1887.57 57.5273,1885.71 59.9753,1884.1 62.5533,1882.83 65.7373,1881.74 68.1833,1881.24 71.5493,1880.95 126.087,1880.94 130.259,1881.25 133.797,1882.04 136.091,1882.88 138.753,1884.23 141.183,1885.87 143.433,1887.83 145.143,1889.73 146.867,1892.16 148.251,1894.75 149.323,1897.53 149.951,1900.01 150.337,1902.97 150.355,1905.89 150.001,1908.86 149.401,1911.34 148.361,1914.14 147.007,1916.74 145.247,1919.29 142.429,1922.26 138.713,1924.94 134.603,1926.84 132.669,1927.42 130.427,1927.87 126.521,1928.18 71.6033,1928.18 67.9753,1927.85 62.8953,1926.46 58.5613,1924.17 55.3293,1921.57 52.2013,1917.87 50.0393,1913.95 48.5813,1909.33 48.0933,1904.89" style="stroke:rgb(0,0,0);stroke-width:1px;fill:none;stroke-opacity:1;stroke-linecap:round;stroke-linejoin:round;;fill:none"/>
<polyline points="296.101,1724.52 296.245,1726.06 296.859,1727.58 297.845,1728.62 299.607,1729.27 370.029,1729.37 372.453,1728.94 373.843,1727.92 374.451,1726.96 374.787,1725.52 374.825,1654.76 374.737,1653.89 374.047,1652.29 372.559,1651.05 370.815,1650.65 300.689,1650.64 298.695,1650.95 297.139,1652.02 296.513,1652.97 296.183,1654.25 296.101,1724.52" style="stroke:rgb(103,198,105);stroke-width:39.370079;fill:none;stroke-opacity:0.5;stroke-linecap:round;stroke-linejoin:round;;fill:none"/>
<polyline points="296.101,1724.52 296.245,1726.06 296.859,1727.58 297.845,1728.62 299.607,1729.27 370.029,1729.37 372.453,1728.94 373.843,1727.92 374.451,1726.96 374.787,1725.52 374.825,1654.76 374.737,1653.89 374.047,1652.29 372.559,1651.05 370.815,1650.65 300.689,1650.64 298.695,1650.95 297.139,1652.02 296.513,1652.97 296.183,1654.25 296.101,1724.52" style="stroke:rgb(0,0,0);stroke-width:1px;fill:none;stroke-opacity:1;stroke-linecap:round;stroke-linejoin:round;;fill:none"/>
<polyline points="300.473,1880.03 301.065,1875.83 301.667,1873.8 303.421,1870.01 304.807,1867.94 308.183,1864.37 309.761,1863.17 313.743,1860.99 318.259,1859.67 322.363,1859.3 355.633,1859.43 360.147,1860.34 364.565,1862.32 368.647,1865.44 370.479,1867.46 372.041,1869.7 373.309,1872.11 374.287,1874.73 375.169,1879.8 375.169,1882.09 374.835,1884.86 374.173,1887.5 372.081,1892.13 370.479,1894.42 368.647,1896.44 366.683,1898.12 363.759,1899.99 360.713,1901.33 357.495,1902.18 353.699,1902.58 322.631,1902.6 317.205,1902.01 313.313,1900.71 309.321,1898.41 306.159,1895.58 303.609,1892.19 301.769,1888.37 300.711,1884.26 300.473,1880.03" style="stroke:rgb(103,198,105);stroke-width:39.370079;fill:none;stroke-opacity:0.5;stroke-linecap:round;stroke-linejoin:round;;fill:none"/>
<polyline points="300.473,1880.03 301.065,1875.83 301.667,1873.8 303.421,1870.01 304.807,1867.94 308.183,1864.37 309.761,1863.17 313.743,1860.99 318.259,1859.67 322.363,1859.3 355.633,1859.43 360.147,1860.34 364.565,1862.32 368.647,1865.44 370.479,1867.46 372.041,1869.7 373.309,1872.11 374.287,1874.73 375.169,1879.8 375.169,1882.09 374.835,1884.86 374.173,1887.5 372.081,1892.13 370.479,1894.42 368.647,1896.44 366.683,1898.12 363.759,1899.99 360.713,1901.33 357.495,1902.18 353.699,1902.58 322.631,1902.6 317.205,1902.01 313.313,1900.71 309.321,1898.41 306.159,1895.58 303.609,1892.19 301.769,1888.37 300.711,1884.26 300.473,1880.03" style="stroke:rgb(0,0,0);stroke-width:1px;fill:none;stroke-opacity:1;stroke-linecap:round;stroke-linejoin:round;;fill:none"/>
<polyline points="22.0833,2582.91 155.943,2582.91 155.943,2323.07 22.0833,2323.07 22.0833,2582.91" style="stroke:rgb(103,198,105);stroke-width:39.370079;fill:none;stroke-opacity:0.5;stroke-linecap:round;stroke-linejoin:round;;fill:none"/>
<polyline points="22.0833,2582.91 155.943,2582.91 155.943,2323.07 22.0833,2323.07 22.0833,2582.91" style="stroke:rgb(0,0,0);stroke-width:1px;fill:none;stroke-opacity:1;stroke-linecap:round;stroke-linejoin:round;;fill:none"/>
<polyline points="222.083,2582.91 355.943,2582.91 355.943,2323.07 222.083,2323.07 222.083,2582.91" style="stroke:rgb(103,198,105);stroke-width:39.370079;fill:none;stroke-opacity:0.5;stroke-linecap:round;stroke-linejoin:round;;fill:none"/>
<polyline points="222.083,2582.91 355.943,2582.91 355.943,2323.07 222.083,2323.07 222.083,2582.91" style="stroke:rgb(0,0,0);stroke-width:1px;fill:none;stroke-opacity:1;stroke-linecap:round;stroke-linejoin:round;;fill:none"/>
<polyline points="422.083,2582.91 555.941,2582.91 555.941,2323.07 422.083,2323.07 422.083,2582.91" style="stroke:rgb(103,198,105);stroke-width:39.370079;fill:none;stroke-opacity:0.5;stroke-linecap:round;stroke-linejoin:round;;fill:none"/>
<polyline points="422.083,2582.91 555.941,2582.91 555.941,2323.07 422.083,2323.07 422.083,2582.91" style="stroke:rgb(0,0,0);stroke-width:1px;fill:none;stroke-opacity:1;stroke-linecap:round;stroke-linejoin:round;;fill:none"/>
<polyline points="622.083,2582.91 755.943,2582.91 755.943,2323.07 622.083,2323.07 622.083,2582.91" style="stroke:rgb(103,198,105);stroke-width:39.370079;fill:none;stroke-opacity:0.5;stroke-linecap:round;stroke-linejoin:round;;fill:none"/>
<polyline points="622.083,2582.91 755.943,2582.91 755.943,2323.07 622.083,2323.07 622.083,2582.91" style="stroke:rgb(0,0,0);stroke-width:1px;fill:none;stroke-opacity:1;stroke-linecap:round;stroke-linejoin:round;;fill:none"/>
<polyline points="822.083,2582.91 955.943,2582.91 955.943,2323.07 822.083,2323.07 822.083,2582.91" style="stroke:rgb(103,198,105);stroke-width:39.370079;fill:none;stroke-opacity:0.5;stroke-linecap:round;stroke-linejoin:round;;fill:none"/>
<polyline points="822.083,2582.91 955.943,2582.91 955.943,2323.07 822.083,2323.07 822.083,2582.91" style="stroke:rgb(0,0,0);stroke-width:1px;fill:none;stroke-opacity:1;stroke-linecap:round;stroke-linejoin:round;;fill:none"/>
<polyline points="1022.08,2582.91 1155.94,2582.91 1155.94,2323.07 1022.08,2323.07 1022.08,2582.91" style="stroke:rgb(103,198,105);stroke-width:39.370079;fill:none;stroke-opacity:0.5;stroke-linecap:round;stroke-linejoin:round;;fill:none"/>
<polyline points="1022.08,2582.91 1155.94,2582.91 1155.94,2323.07 1022.08,2323.07 1022.08,2582.91" style="stroke:rgb(0,0,0);stroke-width:1px;fill:none;stroke-opacity:1;stroke-linecap:round;stroke-linejoin:round;;fill:none"/>
<polyline points="1222.08,2582.91 1355.94,2582.91 1355.94,2323.07 1222.08,2323.07 1222.08,2582.91" style="stroke:rgb(103,198,105);stroke-width:39.370079;fill:none;stroke-opacity:0.5;stroke-linecap:round;stroke-linejoin:round;;fill:none"/>
<polyline points="1222.08,2582.91 1355.94,2582.91 1355.94,2323.07 1222.08,2323.07 1222.08,2582.91" style="stroke:rgb(0,0,0);stroke-width:1px;fill:none;stroke-opacity:1;stroke-linecap:round;stroke-linejoin:round;;fill:none"/>
<polyline points="1422.08,2582.91 1555.94,2582.91 1555.94,2323.07 1422.08,2323.07 1422.08,2582.91" style="stroke:rgb(103,198,105);stroke-width:39.370079;fill:none;stroke-opacity:0.5;stroke-linecap:round;stroke-linejoin:round;;fill:none"/>
<polyline points="1422.08,2582.91 1555.94,2582.91 1555.94,2323.07 1422.08,2323.07 1422.08,2582.91" style="stroke:rgb(0,0,0);stroke-width:1px;fill:none;stroke-opacity:1;stroke-linecap:round;stroke-linejoin:round;;fill:none"/>
<polyline points="1622.08,2582.91 1755.94,2582.91 1755.94,2323.07 1622.08,2323.07 1622.08,2582.91" style="stroke:rgb(103,198,105);stroke-width:39.370079;fill:none;stroke-opacity:0.5;stroke-linecap:round;stroke-linejoin:round;;fill:none"/>
<polyline points="1622.08,2582.91 1755.94,2582.91 1755.94,2323.07 1622.08,2323.07 1622.08,2582.91" style="stroke:rgb(0,0,0);stroke-width:1px;fill:none;stroke-opacity:1;stroke-linecap:round;stroke-linejoin:round;;fill:none"/>
<polyline points="1822.08,2582.91 1822.08,2323.07 1955.94,2323.07 1955.94,2582.91 1822.08,2582.91" style="stroke:rgb(103,198,105);stroke-width:39.370079;fill:none;stroke-opacity:0.5;stroke-linecap:round;stroke-linejoin:round;;fill:none"/>
<polyline points="1822.08,2582.91 1822.08,2323.07 1955.94,2323.07 1955.94,2582.91 1822.08,2582.91" style="stroke:rgb(0,0,0);stroke-width:1px;fill:none;stroke-opacity:1;stroke-linecap:round;stroke-linejoin:round;;fill:none"/>
<polyline points="2022.08,2582.91 2022.08,2323.07 2155.94,2323.07 2155.94,2582.91 2022.08,2582.91" style="stroke:rgb(103,198,105);stroke-width:39.370079;fill:none;stroke-opacity:0.5;stroke-linecap:round;stroke-linejoin:round;;fill:none"/>
<polyline points="2022.08,2582.91 2022.08,2323.07 2155.94,2323.07 2155.94,2582.91 2022.08,2582.91" style="stroke:rgb(0,0,0);stroke-width:1px;fill:none;stroke-opacity:1;stroke-linecap:round;stroke-linejoin:round;;fill:none"/>
<polyline points="2222.08,2582.91 2222.08,2323.07 2355.94,2323.07 2355.94,2582.91 2222.08,2582.91" style="stroke:rgb(103,198,105);stroke-width:39.370079;fill:none;stroke-opacity:0.5;stroke-linecap:round;stroke-linejoin:round;;fill:none"/>
<polyline points="2222.08,2582.91 2222.08,2323.07 2355.94,2323.07 2355.94,2582.91 2222.08,2582.91" style="stroke:rgb(0,0,0);stroke-width:1px;fill:none;stroke-opacity:1;stroke-linecap:round;stroke-linejoin:round;;fill:none"/>
<polyline points="2422.08,2582.91 2422.08,2323.07 2555.94,2323.07 2555.94,2582.91 2422.08,2582.91" style="stroke:rgb(103,198,105);stroke-width:39.370079;fill:none;stroke-opacity:0.5;stroke-linecap:round;stroke-linejoin:round;;fill:none"/>
<polyline points="2422.08,2582.91 2422.08,2323.07 2555.94,2323.07 2555.94,2582.91 2422.08,2582.91" style="stroke:rgb(0,0,0);stroke-width:1px;fill:none;stroke-opacity:1;stroke-linecap:round;stroke-linejoin:round;;fill:none"/>
<polyline points="2622.08,2582.91 2622.08,2323.07 2755.94,2323.07 2755.94,2582.91 2622.08,2582.91" style="stroke:rgb(103,198,105);stroke-width:39.370079;fill:none;stroke-opacity:0.5;stroke-linecap:round;stroke-linejoin:round;;fill:none"/>
<polyline points="2622.08,2582.91 2622.08,2323.07 2755.94,2323.07 2755.94,2582.91 2622.08,2582.91" style="stroke:rgb(0,0,0);stroke-width:1px;fill:none;stroke-opacity:1;stroke-linecap:round;stroke-linejoin:round;;fill:none"/>
<polyline points="2822.08,2582.91 2822.08,2323.07 2955.94,2323.07 2955.94,2582.91 2822.08,2582.91" style="stroke:rgb(103,198,105);stroke-width:39.370079;fill:none;stroke-opacity:0.5;stroke-linecap:round;stroke-linejoin:round;;fill:none"/>
<polyline points="2822.08,2582.91 2822.08,2323.07 2955.94,2323.07 2955.94,2582.91 2822.08,2582.91" style="stroke:rgb(0,0,0);stroke-width:1px;fill:none;stroke-opacity:1;stroke-linecap:round;stroke-linejoin:round;;fill:none"/>
<polyline points="3022.08,2582.91 3022.08,2323.07 3155.94,2323.07 3155.94,2582.91 3022.08,2582.91" style="stroke:rgb(103,198,105);stroke-width:39.370079;fill:none;stroke-opacity:0.5;stroke-linecap:round;stroke-linejoin:round;;fill:none"/>
<polyline points="3022.08,2582.91 3022.08,2323.07 3155.94,2323.07 3155.94,2582.91 3022.08,2582.91" style="stroke:rgb(0,0,0);stroke-width:1px;fill:none;stroke-opacity:1;stroke-linecap:round;stroke-linejoin:round;;fill:none"/>
<polyline points="3222.08,2582.91 3222.08,2323.07 3355.94,2323.07 3355.94,2582.91 3222.08,2582.91" style="stroke:rgb(103,198,105);stroke-width:39.370079;fill:none;stroke-opacity:0.5;stroke-linecap:round;stroke-linejoin:round;;fill:none"/>
<polyline points="3222.08,2582.91 3222.08,2323.07 3355.94,2323.07 3355.94,2582.91 3222.08,2582.91" style="stroke:rgb(0,0,0);stroke-width:1px;fill:none;stroke-opacity:1;stroke-linecap:round;stroke-linejoin:round;;fill:none"/>
<polyline points="3422.08,2582.91 3422.08,2323.07 3555.94,2323.07 3555.94,2582.91 3422.08,2582.91" style="stroke:rgb(103,198,105);stroke-width:39.370079;fill:none;stroke-opacity:0.5;stroke-linecap:round;stroke-linejoin:round;;fill:none"/>
<polyline points="3422.08,2582.91 3422.08,2323.07 3555.94,2323.07 3555.94,2582.91 3422.08,2582.91" style="stroke:rgb(0,0,0);stroke-width:1px;fill:none;stroke-opacity:1;stroke-linecap:round;stroke-linejoin:round;;fill:none"/>
<polyline points="3622.08,2582.91 3622.08,2323.07 3755.94,2323.07 3755.94,2582.91 3622.08,2582.91" style="stroke:rgb(103,198,105);stroke-width:39.370079;fill:none;stroke-opacity:0.5;stroke-linecap:round;stroke-linejoin:round;;fill:none"/>
<polyline points="3622.08,2582.91 3622.08,2323.07 3755.94,2323.07 3755.94,2582.91 3622.08,2582.91" style="stroke:rgb(0,0,0);stroke-width:1px;fill:none;stroke-opacity:1;stroke-linecap:round;stroke-linejoin:round;;fill:none"/>
<polyline points="3822.08,2582.91 3822.08,2323.07 3955.94,2323.07 3955.94,2582.91 3822.08,2582.91" style="stroke:rgb(103,198,105);stroke-width:39.370079;fill:none;stroke-opacity:0.5;stroke-linecap:round;stroke-linejoin:round;;fill:none"/>
<polyline points="3822.08,2582.91 3822.08,2323.07 3955.94,2323.07 3955.94,2582.91 3822.08,2582.91" style="stroke:rgb(0,0,0);stroke-width:1px;fill:none;stroke-opacity:1;stroke-linecap:round;stroke-linejoin:round;;fill:none"/>
<g fill-rule="evenodd"><path d="M 0,9.09495e-13 L 3978.03,9.09495e-13 L 3978.03,2605 L 0,2605 L 0,9.09495e-13M 2.4,2602.6 L 175.628,2602.6 L 175.628,2303.38 L 2.4,2303.38 L 2.4,2602.6M 2.4,1076.61 L 175.628,1076.61 L 175.628,777.4 L 2.4,777.4 L 2.4,1076.61M 16.5732,1804.17 L 16.9842,1808.56 L 18.3522,1813.17 L 20.6242,1817.4 L 23.7061,1821.09 L 26.8018,1823.63 L 30.2829,1825.61 L 34.0492,1826.98 L 37.9922,1827.69 L 111.262,1827.79 L 116.038,1827.26 L 120.608,1825.78 L 124.783,1823.4 L 128.391,1820.22 L 130.854,1817.07 L 132.749,1813.53 L 134.019,1809.73 L 134.629,1805.77 L 134.67,1732.5 L 134.344,1729.31 L 133.817,1726.97 L 132.063,1722.49 L 130.854,1720.41 L 128.926,1717.85 L 125.428,1714.55 L 122.053,1712.4 L 119.12,1711.1 L 115.251,1710.06 L 112.064,1709.7 L 39.5936,1709.69 L 34.8272,1710.3 L 31.0167,1711.54 L 26.8018,1713.85 L 23.1412,1716.96 L 20.6242,1720.08 L 18.6702,1723.58 L 17.3354,1727.35 L 16.6583,1731.3 L 16.5732,1804.17M 16.5732,1646.69 L 16.9842,1651.08 L 18.3522,1655.68 L 20.6242,1659.92 L 23.7061,1663.61 L 26.8018,1666.15 L 30.2829,1668.13 L 34.0492,1669.5 L 37.9922,1670.21 L 111.262,1670.31 L 116.038,1669.78 L 120.608,1668.3 L 124.783,1665.92 L 128.391,1662.74 L 130.854,1659.58 L 132.749,1656.05 L 134.019,1652.25 L 134.629,1648.29 L 134.67,1575.02 L 134.344,1571.83 L 133.817,1569.49 L 132.063,1565.01 L 130.405,1562.27 L 128.926,1560.37 L 125.428,1557.07 L 122.053,1554.92 L 119.12,1553.62 L 115.251,1552.58 L 112.064,1552.22 L 39.5936,1552.21 L 34.8272,1552.82 L 30.2829,1554.38 L 26.1488,1556.83 L 23.1412,1559.48 L 20.6242,1562.6 L 18.6702,1566.1 L 17.3354,1569.87 L 16.6583,1573.82 L 16.5732,1646.69M 28.387,1905.05 L 28.608,1908.96 L 29.2771,1913.31 L 30.3846,1917.58 L 31.9189,1921.7 L 33.6284,1925.22 L 35.9225,1928.98 L 38.5862,1932.49 L 41.5921,1935.7 L 44.5261,1938.29 L 47.6821,1940.61 L 51.4656,1942.86 L 55.4581,1944.71 L 59.1492,1946.02 L 64.8683,1947.33 L 70.7126,1947.86 L 127.299,1947.87 L 133.149,1947.41 L 137.466,1946.54 L 141.212,1945.41 L 145.284,1943.73 L 148.745,1941.91 L 152.423,1939.49 L 155.471,1937.03 L 158.285,1934.31 L 160.842,1931.35 L 163.9,1926.92 L 166.386,1922.15 L 168.261,1917.11 L 169.411,1912.35 L 170.047,1907.01 L 170.017,1901.63 L 169.32,1896.3 L 168.116,1891.56 L 166.184,1886.53 L 163.645,1881.79 L 160.537,1877.4 L 157.259,1873.77 L 153.205,1870.23 L 148.745,1867.22 L 143.946,1864.79 L 139.352,1863.11 L 133.149,1861.72 L 126.809,1861.26 L 70.7126,1861.27 L 65.352,1861.72 L 60.5614,1862.71 L 55.0055,1864.6 L 50.1792,1866.98 L 45.685,1869.94 L 41.5921,1873.43 L 37.6588,1877.78 L 34.6008,1882.21 L 32.1151,1886.98 L 30.2402,1892.02 L 29.181,1896.3 L 28.5611,1900.66 L 28.387,1905.05M 28.387,1475.92 L 28.608,1479.83 L 29.2771,1484.18 L 30.2402,1487.97 L 31.7278,1492.12 L 33.6284,1496.09 L 35.9225,1499.85 L 38.5862,1503.35 L 41.5921,1506.57 L 44.5261,1509.16 L 48.0909,1511.74 L 51.4656,1513.73 L 55.0055,1515.4 L 59.1492,1516.88 L 64.8683,1518.2 L 70.7126,1518.73 L 127.299,1518.74 L 133.149,1518.27 L 136.991,1517.52 L 140.749,1516.43 L 144.394,1515.01 L 148.322,1513.02 L 152.027,1510.64 L 155.102,1508.22 L 158.285,1505.18 L 160.842,1502.21 L 163.9,1497.79 L 166.386,1493.02 L 168.261,1487.97 L 169.411,1483.22 L 170.047,1477.88 L 170.017,1472.5 L 169.32,1467.16 L 168.116,1462.42 L 166.184,1457.4 L 163.645,1452.66 L 160.842,1448.65 L 157.259,1444.64 L 153.205,1441.1 L 148.745,1438.09 L 144.394,1435.86 L 139.352,1433.98 L 133.149,1432.59 L 126.809,1432.12 L 70.7126,1432.14 L 65.352,1432.59 L 60.5614,1433.58 L 55.0055,1435.47 L 50.1792,1437.85 L 45.685,1440.8 L 41.5921,1444.29 L 37.9637,1448.27 L 34.8558,1452.66 L 32.1151,1457.85 L 30.2402,1462.89 L 29.181,1467.16 L 28.5611,1471.52 L 28.387,1475.92M 202.4,2602.6 L 375.628,2602.6 L 375.628,2303.38 L 202.4,2303.38 L 202.4,2602.6M 202.4,1076.61 L 375.628,1076.61 L 375.628,777.4 L 202.4,777.4 L 202.4,1076.61M 276.416,1725.43 L 276.827,1729.82 L 278.195,1734.42 L 280.467,1738.66 L 283.549,1742.35 L 286.644,1744.89 L 290.125,1746.87 L 293.892,1748.24 L 297.835,1748.95 L 371.105,1749.05 L 375.881,1748.52 L 380.451,1747.04 L 384.626,1744.66 L 388.233,1741.48 L 390.697,1738.33 L 392.591,1734.79 L 393.862,1730.99 L 394.472,1727.03 L 394.512,1653.76 L 394.186,1650.57 L 393.659,1648.23 L 391.906,1643.75 L 390.697,1641.67 L 388.768,1639.11 L 385.271,1635.81 L 381.895,1633.66 L 378.962,1632.36 L 375.094,1631.32 L 371.906,1630.96 L 299.436,1630.95 L 294.67,1631.56 L 290.859,1632.8 L 286.644,1635.11 L 282.984,1638.22 L 280.467,1641.34 L 278.513,1644.84 L 277.178,1648.61 L 276.501,1652.56 L 276.416,1725.43M 280.783,1879.2 L 280.811,1883.26 L 281.237,1887.3 L 282.057,1891.27 L 283.262,1895.14 L 284.84,1898.88 L 286.778,1902.44 L 289.055,1905.8 L 291.651,1908.92 L 294.539,1911.77 L 297.693,1914.32 L 301.082,1916.55 L 305.201,1918.68 L 308.98,1920.15 L 312.886,1921.25 L 317.457,1922.02 L 322.085,1922.28 L 354.74,1922.27 L 361.076,1921.6 L 367.234,1919.96 L 373.068,1917.4 L 378.439,1913.97 L 382.399,1910.58 L 385.901,1906.72 L 388.888,1902.44 L 391.074,1898.36 L 392.967,1893.5 L 394.234,1888.44 L 394.855,1883.26 L 394.855,1878.63 L 394.234,1873.45 L 393.14,1868.94 L 391.314,1864.06 L 388.888,1859.44 L 385.901,1855.17 L 382.399,1851.31 L 378.439,1847.91 L 374.584,1845.34 L 370.466,1843.21 L 366.135,1841.56 L 361.646,1840.4 L 357.056,1839.75 L 321.505,1839.61 L 315.161,1840.19 L 310.641,1841.22 L 306.265,1842.75 L 302.598,1844.49 L 298.639,1846.9 L 295.415,1849.36 L 292.046,1852.54 L 289.055,1856.09 L 286.48,1859.94 L 284.592,1863.53 L 283.066,1867.29 L 281.916,1871.18 L 281.152,1875.16 L 280.783,1879.2M 280.783,1497.31 L 280.811,1501.37 L 281.237,1505.41 L 282.057,1509.38 L 283.262,1513.25 L 284.84,1516.99 L 286.778,1520.55 L 289.055,1523.91 L 291.651,1527.03 L 294.539,1529.88 L 297.693,1532.43 L 301.082,1534.66 L 305.201,1536.79 L 308.98,1538.26 L 313.452,1539.48 L 317.457,1540.13 L 322.085,1540.39 L 354.74,1540.38 L 361.076,1539.71 L 367.234,1538.07 L 373.068,1535.51 L 378.439,1532.08 L 382.399,1528.69 L 385.901,1524.83 L 388.888,1520.55 L 391.074,1516.47 L 392.967,1511.61 L 394.125,1507.12 L 394.818,1501.95 L 394.855,1496.74 L 394.234,1491.56 L 393.14,1487.05 L 391.314,1482.17 L 388.888,1477.55 L 385.901,1473.28 L 382.399,1469.42 L 378.439,1466.02 L 374.584,1463.45 L 370.466,1461.32 L 366.135,1459.67 L 361.646,1458.51 L 357.056,1457.86 L 321.505,1457.72 L 315.161,1458.3 L 310.641,1459.33 L 306.265,1460.86 L 302.598,1462.6 L 298.639,1465.01 L 294.974,1467.85 L 291.651,1471.08 L 288.71,1474.66 L 286.48,1478.05 L 284.592,1481.64 L 283.066,1485.4 L 281.916,1489.29 L 281.152,1493.27 L 280.783,1497.31M 402.4,2602.6 L 575.628,2602.6 L 575.628,2303.38 L 402.4,2303.38 L 402.4,2602.6M 402.4,1076.61 L 575.628,1076.61 L 575.628,777.4 L 402.4,777.4 L 402.4,1076.61M 602.4,2602.6 L 775.628,2602.6 L 775.628,2303.38 L 602.4,2303.38 L 602.4,2602.6M 602.4,1076.61 L 775.628,1076.61 L 775.628,777.4 L 602.4,777.4 L 602.4,1076.61M 670.117,1922.28 L 670.527,1926.67 L 671.896,1931.28 L 674.167,1935.51 L 677.249,1939.2 L 680.345,1941.74 L 683.826,1943.72 L 687.592,1945.09 L 691.536,1945.8 L 764.805,1945.9 L 769.581,1945.37 L 774.152,1943.89 L 778.327,1941.51 L 781.934,1938.33 L 784.398,1935.18 L 786.292,1931.64 L 787.562,1927.85 L 788.172,1923.89 L 788.213,1850.61 L 787.562,1845.85 L 786.877,1843.55 L 785.606,1840.6 L 783.948,1837.86 L 782.469,1835.96 L 778.972,1832.66 L 775.596,1830.51 L 772.663,1829.21 L 768.794,1828.17 L 765.607,1827.81 L 693.137,1827.8 L 688.371,1828.41 L 683.826,1829.97 L 680.345,1831.96 L 676.685,1835.07 L 674.167,1838.19 L 672.214,1841.69 L 670.879,1845.46 L 670.202,1849.41 L 670.117,1922.28M 802.4,2602.6 L 975.628,2602.6 L 975.628,2303.38 L 802.4,2303.38 L 802.4,2602.6M 802.4,1076.61 L 975.628,1076.61 L 975.628,777.4 L 802.4,777.4 L 802.4,1076.61M 866.967,1922.28 L 867.378,1926.67 L 868.746,1931.28 L 871.018,1935.51 L 874.1,1939.2 L 877.196,1941.74 L 880.677,1943.72 L 884.443,1945.09 L 888.386,1945.8 L 961.656,1945.9 L 966.432,1945.37 L 971.002,1943.89 L 975.177,1941.51 L 978.784,1938.33 L 981.248,1935.18 L 983.142,1931.64 L 984.413,1927.85 L 985.023,1923.89 L 985.064,1850.61 L 984.413,1845.85 L 983.728,1843.55 L 982.457,1840.6 L 980.799,1837.86 L 979.319,1835.96 L 975.822,1832.66 L 972.446,1830.51 L 969.513,1829.21 L 965.645,1828.17 L 962.458,1827.81 L 889.987,1827.8 L 885.221,1828.41 L 880.677,1829.97 L 877.196,1831.96 L 873.535,1835.07 L 871.018,1838.19 L 869.064,1841.69 L 867.729,1845.46 L 867.052,1849.41 L 866.967,1922.28M 1002.4,2602.6 L 1175.63,2602.6 L 1175.63,2303.38 L 1002.4,2303.38 L 1002.4,2602.6M 1002.4,1076.61 L 1175.63,1076.61 L 1175.63,777.4 L 1002.4,777.4 L 1002.4,1076.61M 1063.82,1922.28 L 1064.23,1926.67 L 1065.6,1931.28 L 1067.87,1935.51 L 1070.95,1939.2 L 1074.05,1941.74 L 1077.53,1943.72 L 1081.29,1945.09 L 1085.24,1945.8 L 1158.51,1945.9 L 1163.28,1945.37 L 1167.85,1943.89 L 1172.03,1941.51 L 1175.63,1938.33 L 1178.1,1935.18 L 1179.99,1931.64 L 1181.26,1927.85 L 1181.87,1923.89 L 1181.91,1850.61 L 1181.26,1845.85 L 1180.58,1843.55 L 1179.31,1840.6 L 1177.65,1837.86 L 1176.17,1835.96 L 1172.67,1832.66 L 1169.3,1830.51 L 1166.36,1829.21 L 1162.5,1828.17 L 1159.31,1827.81 L 1086.84,1827.8 L 1082.07,1828.41 L 1077.53,1829.97 L 1074.05,1831.96 L 1070.39,1835.07 L 1067.87,1838.19 L 1065.91,1841.69 L 1064.58,1845.46 L 1063.9,1849.41 L 1063.82,1922.28M 1202.4,2602.6 L 1375.63,2602.6 L 1375.63,2303.38 L 1202.4,2303.38 L 1202.4,2602.6M 1202.4,1076.61 L 1375.63,1076.61 L 1375.63,777.4 L 1202.4,777.4 L 1202.4,1076.61M 1402.4,2602.6 L 1575.63,2602.6 L 1575.63,2303.38 L 1402.4,2303.38 L 1402.4,2602.6M 1402.4,1076.61 L 1575.63,1076.61 L 1575.63,777.4 L 1402.4,777.4 L 1402.4,1076.61M 1602.4,2602.6 L 1775.63,2602.6 L 1775.63,2303.38 L 1602.4,2303.38 L 1602.4,2602.6M 1602.4,1076.61 L 1775.63,1076.61 L 1775.63,777.4 L 1602.4,777.4 L 1602.4,1076.61M 1802.4,2602.6 L 1975.63,2602.6 L 1975.63,2303.38 L 1802.4,2303.38 L 1802.4,2602.6M 1802.4,1076.61 L 1975.63,1076.61 L 1975.63,777.4 L 1802.4,777.4 L 1802.4,1076.61M 1922.5,303.006 L 1923.28,307.749 L 1924.79,311.46 L 1927.55,315.395 L 1931.19,318.543 L 1935.47,320.716 L 1940.16,321.786 L 1992.58,321.851 L 1997.31,320.974 L 2000.28,319.761 L 2002.35,318.543 L 2005.99,315.395 L 2008.75,311.46 L 2010.47,306.974 L 2011.05,303.006 L 2011.05,202.975 L 2010.26,198.232 L 2008.75,194.521 L 2005.99,190.586 L 2002.35,187.438 L 1998.07,185.265 L 1993.38,184.195 L 1941.76,184.097 L 1937,184.781 L 1933.26,186.22 L 1931.19,187.438 L 1928.68,189.439 L 1925.6,193.135 L 1923.52,197.466 L 1922.54,202.173 L 1922.5,303.006M 2002.4,2602.6 L 2175.63,2602.6 L 2175.63,2303.38 L 2002.4,2303.38 L 2002.4,2602.6M 2002.4,1076.61 L 2175.63,1076.61 L 2175.63,777.4 L 2002.4,777.4 L 2002.4,1076.61M 2146.9,646.313 L 2147.69,651.056 L 2149.2,654.768 L 2151.96,658.702 L 2155.6,661.85 L 2159.88,664.023 L 2164.57,665.093 L 2216.99,665.158 L 2221.72,664.281 L 2224.69,663.068 L 2226.76,661.85 L 2230.4,658.702 L 2233.16,654.768 L 2234.88,650.281 L 2235.45,646.313 L 2235.45,546.282 L 2234.67,541.539 L 2233.16,537.828 L 2230.4,533.893 L 2226.76,530.745 L 2222.48,528.572 L 2217.79,527.502 L 2166.17,527.404 L 2161.41,528.088 L 2157.67,529.527 L 2155.6,530.745 L 2153.09,532.746 L 2150.01,536.443 L 2147.93,540.773 L 2146.95,545.481 L 2146.9,646.313M 2152.81,303.006 L 2153.59,307.749 L 2155.11,311.46 L 2157.87,315.395 L 2161.5,318.543 L 2165.79,320.716 L 2170.47,321.786 L 2222.9,321.851 L 2227.62,320.974 L 2230.59,319.761 L 2232.67,318.543 L 2236.3,315.395 L 2239.06,311.46 L 2240.79,306.974 L 2241.36,303.006 L 2241.36,202.975 L 2240.58,198.232 L 2239.06,194.521 L 2236.3,190.586 L 2232.67,187.438 L 2228.38,185.265 L 2223.7,184.195 L 2172.08,184.097 L 2167.32,184.781 L 2163.58,186.22 L 2161.5,187.438 L 2158.99,189.439 L 2155.92,193.135 L 2153.83,197.466 L 2152.86,202.173 L 2152.81,303.006M 2202.4,2602.6 L 2375.63,2602.6 L 2375.63,2303.38 L 2202.4,2303.38 L 2202.4,2602.6M 2202.4,1076.61 L 2375.63,1076.61 L 2375.63,777.4 L 2202.4,777.4 L 2202.4,1076.61M 2375.83,1690.26 L 2376.08,1693.06 L 2376.97,1696.15 L 2378.47,1698.99 L 2380.52,1701.46 L 2383.02,1703.48 L 2385.14,1704.63 L 2388.19,1705.64 L 2390.58,1705.97 L 2484.09,1706.01 L 2487.08,1705.72 L 2490.16,1704.79 L 2492.98,1703.25 L 2495.43,1701.18 L 2497.41,1698.65 L 2498.54,1696.52 L 2499.32,1694.24 L 2499.81,1691.06 L 2499.83,1597.75 L 2499.32,1593.78 L 2498.2,1590.77 L 2496.49,1588.05 L 2494.26,1585.73 L 2492.3,1584.32 L 2489.41,1582.93 L 2487.08,1582.29 L 2484.69,1582.02 L 2391.38,1582.01 L 2388.19,1582.38 L 2385.14,1583.38 L 2382.36,1584.99 L 2380.52,1586.55 L 2378.47,1589.03 L 2376.97,1591.87 L 2376.25,1594.17 L 2375.84,1597.35 L 2375.83,1690.26M 2375.83,1444.01 L 2376.16,1450.41 L 2377.15,1456.74 L 2378.79,1462.94 L 2380.75,1468.19 L 2383.17,1473.25 L 2386.48,1478.74 L 2389.83,1483.24 L 2394.13,1487.99 L 2398.91,1492.26 L 2403.43,1495.59 L 2408.94,1498.86 L 2414.76,1501.55 L 2420.05,1503.4 L 2426.28,1504.92 L 2432.63,1505.79 L 2438.23,1506.01 L 2444.63,1505.63 L 2450.96,1504.6 L 2456.38,1503.17 L 2462.39,1500.94 L 2468.14,1498.1 L 2472.9,1495.14 L 2477.99,1491.24 L 2482.1,1487.42 L 2485.84,1483.24 L 2489.63,1478.08 L 2492.87,1472.55 L 2495.23,1467.45 L 2497.34,1461.4 L 2498.67,1455.95 L 2499.58,1449.61 L 2499.83,1444.01 L 2499.5,1437.61 L 2498.51,1431.27 L 2496.87,1425.08 L 2494.92,1419.82 L 2492.5,1414.76 L 2489.19,1409.27 L 2485.84,1404.77 L 2481.53,1400.02 L 2476.76,1395.75 L 2472.24,1392.43 L 2466.73,1389.15 L 2460.91,1386.46 L 2454.85,1384.39 L 2449.39,1383.09 L 2443.04,1382.23 L 2437.43,1382.01 L 2431.03,1382.38 L 2424.71,1383.41 L 2419.28,1384.85 L 2413.28,1387.08 L 2407.53,1389.92 L 2402.77,1392.88 L 2397.67,1396.77 L 2393.57,1400.59 L 2389.83,1404.77 L 2386.03,1409.94 L 2382.79,1415.47 L 2380.44,1420.56 L 2378.32,1426.61 L 2377,1432.06 L 2376.09,1438.4 L 2375.83,1444.01M 2375.83,1244.01 L 2376.16,1250.41 L 2377.15,1256.74 L 2378.79,1262.94 L 2380.75,1268.19 L 2383.17,1273.25 L 2386.48,1278.74 L 2389.83,1283.24 L 2394.13,1287.99 L 2398.91,1292.26 L 2403.43,1295.59 L 2408.94,1298.86 L 2414.76,1301.55 L 2420.82,1303.63 L 2426.28,1304.92 L 2432.63,1305.79 L 2438.23,1306.01 L 2444.63,1305.63 L 2450.96,1304.6 L 2457.14,1302.92 L 2462.39,1300.94 L 2468.14,1298.1 L 2472.9,1295.14 L 2477.99,1291.24 L 2482.1,1287.42 L 2485.84,1283.24 L 2489.63,1278.08 L 2492.87,1272.55 L 2495.23,1267.45 L 2497.34,1261.4 L 2498.67,1255.95 L 2499.58,1249.61 L 2499.83,1244.01 L 2499.5,1237.61 L 2498.51,1231.27 L 2496.87,1225.08 L 2494.92,1219.82 L 2492.5,1214.76 L 2489.19,1209.27 L 2485.84,1204.77 L 2481.53,1200.02 L 2476.76,1195.75 L 2472.24,1192.43 L 2466.73,1189.15 L 2460.91,1186.46 L 2454.85,1184.39 L 2449.39,1183.09 L 2443.04,1182.23 L 2437.43,1182.01 L 2431.03,1182.38 L 2424.71,1183.41 L 2418.52,1185.09 L 2413.28,1187.08 L 2407.53,1189.92 L 2402.77,1192.88 L 2397.67,1196.77 L 2393.57,1200.59 L 2389.83,1204.77 L 2386.03,1209.94 L 2382.79,1215.47 L 2380.44,1220.56 L 2378.32,1226.61 L 2377,1232.06 L 2376.09,1238.4 L 2375.83,1244.01M 2377.22,646.313 L 2378,651.056 L 2379.52,654.768 L 2382.28,658.702 L 2385.91,661.85 L 2390.2,664.023 L 2394.88,665.093 L 2447.3,665.158 L 2452.03,664.281 L 2455,663.068 L 2457.08,661.85 L 2460.71,658.702 L 2463.47,654.768 L 2465.2,650.281 L 2465.77,646.313 L 2465.77,546.282 L 2464.99,541.539 L 2463.47,537.828 L 2460.71,533.893 L 2457.08,530.745 L 2452.79,528.572 L 2448.11,527.502 L 2396.49,527.404 L 2391.73,528.088 L 2387.99,529.527 L 2385.91,530.745 L 2383.4,532.746 L 2380.33,536.443 L 2378.24,540.773 L 2377.27,545.481 L 2377.22,646.313M 2402.4,2602.6 L 2575.63,2602.6 L 2575.63,2303.38 L 2402.4,2303.38 L 2402.4,2602.6M 2402.4,1076.61 L 2575.63,1076.61 L 2575.63,777.4 L 2402.4,777.4 L 2402.4,1076.61M 2535.08,549.565 L 2586.26,549.565 L 2586.26,429.487 L 2535.08,429.487 L 2535.08,549.565M 2535.08,122.479 L 2586.26,122.479 L 2586.26,2.4 L 2535.08,2.4 L 2535.08,122.479M 2602.4,2602.6 L 2775.63,2602.6 L 2775.63,2303.38 L 2602.4,2303.38 L 2602.4,2602.6M 2602.4,1076.61 L 2775.63,1076.61 L 2775.63,777.4 L 2602.4,777.4 L 2602.4,1076.61M 2635.08,549.565 L 2686.26,549.565 L 2686.26,429.487 L 2635.08,429.487 L 2635.08,549.565M 2635.08,122.479 L 2686.26,122.479 L 2686.26,2.4 L 2635.08,2.4 L 2635.08,122.479M 2735.08,549.565 L 2786.26,549.565 L 2786.26,429.487 L 2735.08,429.487 L 2735.08,549.565M 2735.08,122.479 L 2786.26,122.479 L 2786.26,2.4 L 2735.08,2.4 L 2735.08,122.479M 2802.4,2602.6 L 2975.63,2602.6 L 2975.63,2303.38 L 2802.4,2303.38 L 2802.4,2602.6M 2802.4,1076.61 L 2975.63,1076.61 L 2975.63,777.4 L 2802.4,777.4 L 2802.4,1076.61M 2835.08,549.565 L 2886.26,549.565 L 2886.26,429.487 L 2835.08,429.487 L 2835.08,549.565M 2835.08,122.479 L 2886.26,122.479 L 2886.26,2.4 L 2835.08,2.4 L 2835.08,122.479M 3002.4,2602.6 L 3175.63,2602.6 L 3175.63,2303.38 L 3002.4,2303.38 L 3002.4,2602.6M 3002.4,1076.61 L 3175.63,1076.61 L 3175.63,777.4 L 3002.4,777.4 L 3002.4,1076.61M 3075.3,619.162 L 3075.82,622.328 L 3076.55,624.624 L 3077.94,627.516 L 3079.28,629.514 L 3082.03,632.434 L 3086.02,635.115 L 3089.76,636.554 L 3093.72,637.206 L 3170.12,637.238 L 3174.88,636.554 L 3179.33,634.738 L 3183.21,631.896 L 3186.28,628.2 L 3188.37,623.869 L 3189.26,619.961 L 3189.39,577.384 L 3188.61,572.641 L 3186.7,568.229 L 3183.78,564.411 L 3180.03,561.414 L 3175.65,559.417 L 3170.93,558.539 L 3094.52,558.506 L 3089.76,559.191 L 3085.31,561.007 L 3081.43,563.849 L 3078.36,567.545 L 3076.27,571.876 L 3075.3,576.583 L 3075.3,619.162M 3075.3,469.556 L 3075.82,472.722 L 3076.55,475.018 L 3077.94,477.909 L 3079.28,479.908 L 3082.03,482.828 L 3086.02,485.509 L 3089.76,486.948 L 3093.72,487.599 L 3170.12,487.632 L 3174.88,486.948 L 3179.33,485.131 L 3183.21,482.29 L 3186.28,478.594 L 3188.37,474.263 L 3189.26,470.355 L 3189.39,427.778 L 3188.61,423.035 L 3186.7,418.623 L 3183.78,414.804 L 3180.03,411.807 L 3175.65,409.811 L 3170.93,408.933 L 3094.52,408.9 L 3089.76,409.584 L 3085.31,411.401 L 3081.43,414.242 L 3078.36,417.939 L 3076.27,422.269 L 3075.3,426.977 L 3075.3,469.556M 3202.4,2602.6 L 3375.63,2602.6 L 3375.63,2303.38 L 3202.4,2303.38 L 3202.4,2602.6M 3202.4,1076.61 L 3375.63,1076.61 L 3375.63,777.4 L 3202.4,777.4 L 3202.4,1076.61M 3402.4,2602.6 L 3575.63,2602.6 L 3575.63,2303.38 L 3402.4,2303.38 L 3402.4,2602.6M 3402.4,1076.61 L 3575.63,1076.61 L 3575.63,777.4 L 3402.4,777.4 L 3402.4,1076.61M 3602.4,2602.6 L 3775.63,2602.6 L 3775.63,2303.38 L 3602.4,2303.38 L 3602.4,2602.6M 3602.4,1076.61 L 3775.63,1076.61 L 3775.63,777.4 L 3602.4,777.4 L 3602.4,1076.61M 3802.4,2602.6 L 3975.63,2602.6 L 3975.63,2303.38 L 3802.4,2303.38 L 3802.4,2602.6M 3802.4,1076.61 L 3975.63,1076.61 L 3975.63,777.4 L 3802.4,777.4 L 3802.4,1076.61 z " style="fill-opacity:1.000000;fill:rgb(103,198,105);stroke:rgb(0,0,0);stroke-width:2"/></g>
</svg>
