<?xml version="1.0" standalone="no"?>
<!DOCTYPE svg PUBLIC "-//W3C//DTD SVG 1.1//EN"
"http://www.w3.org/Graphics/SVG/1.1/DTD/svg11.dtd">
<svg width="210.52" height="155.528" viewBox="0 0 4385.83 3240.16" version="1.1"
xmlns="http://www.w3.org/2000/svg"
xmlns:xlink="http://www.w3.org/1999/xlink">
<g fill-rule="evenodd"><path d="M 9.09495e-13,3240.16 L 9.09495e-13,-9.09495e-13 L 4385.83,-9.09495e-13 L 4385.83,3240.16 L 9.09495e-13,3240.16 z " style="fill-opacity:0.200000;fill:rgb(103,198,105);"/></g>
<polyline points="61.0208,970.579 64.9588,3120.19 64.9648,3120.98 64.9828,3121.78 65.0108,3122.58 65.0508,3123.38 65.1008,3124.18 65.1628,3124.97 65.2328,3125.77 65.3168,3126.56 65.4088,3127.36 65.5128,3128.15 65.6268,3128.94 65.7528,3129.73 65.8888,3130.51 66.0348,3131.3 66.1928,3132.08 66.3588,3132.86 66.5368,3133.64 66.7268,3134.42 66.9248,3135.19 67.1348,3135.96 67.3548,3136.73 67.5848,3137.49 67.8268,3138.26 68.0768,3139.01 68.3388,3139.77 68.6108,3140.52 68.8908,3141.27 69.1828,3142.01 69.4848,3142.75 69.7968,3143.49 70.1188,3144.22 70.4488,3144.94 70.7908,3145.67 71.1428,3146.38 71.5028,3147.1 71.8728,3147.8 72.2528,3148.51 72.6428,3149.2 73.0408,3149.9 73.4488,3150.58 73.8668,3151.26 74.2928,3151.94 74.7268,3152.61 75.1728,3153.27 75.6248,3153.93 76.0888,3154.58 76.5588,3155.23 77.0388,3155.87 77.5268,3156.5 78.0248,3157.12 78.5288,3157.74 79.0428,3158.35 79.5648,3158.96 80.0948,3159.56 80.6328,3160.15 81.1788,3160.73 81.7328,3161.31 82.2928,3161.87 82.8628,3162.43 83.4388,3162.99 84.0228,3163.53 84.6148,3164.07 85.2128,3164.6 85.8188,3165.12 86.4328,3165.63 87.0508,3166.13 87.6788,3166.63 88.3108,3167.12 88.9508,3167.6 89.5968,3168.07 90.2488,3168.53 90.9068,3168.98 91.5708,3169.42 92.2408,3169.86 92.9188,3170.28 93.5988,3170.7 94.2868,3171.1 94.9808,3171.5 95.6788,3171.89 96.3808,3172.27 97.0908,3172.64 97.8028,3173 98.5208,3173.35 99.2448,3173.69 99.9708,3174.02 100.703,3174.34 101.439,3174.65 102.179,3174.95 102.923,3175.24 103.671,3175.52 104.423,3175.79 105.179,3176.05 105.937,3176.3 106.699,3176.54 107.465,3176.77 108.233,3176.98 109.005,3177.19 109.779,3177.39 110.555,3177.58 111.333,3177.75 112.115,3177.92 112.899,3178.08 113.683,3178.22 114.471,3178.36 115.261,3178.48 116.051,3178.59 116.843,3178.7 117.637,3178.79 118.431,3178.87 119.227,3178.94 120.023,3179 120.821,3179.05 121.619,3179.08 122.417,3179.11 123.215,3179.13 124.015,3179.13 4265.75,3179.13 4266.54,3179.13 4267.34,3179.11 4268.14,3179.08 4268.94,3179.05 4269.73,3179 4270.53,3178.94 4271.32,3178.87 4272.12,3178.79 4272.91,3178.7 4273.7,3178.59 4274.49,3178.48 4275.28,3178.36 4276.07,3178.22 4276.85,3178.08 4277.64,3177.92 4278.42,3177.76 4279.2,3177.58 4279.97,3177.39 4280.75,3177.2 4281.52,3176.99 4282.28,3176.77 4283.05,3176.54 4283.81,3176.3 4284.57,3176.05 4285.32,3175.79 4286.08,3175.52 4286.82,3175.24 4287.57,3174.95 4288.31,3174.65 4289.04,3174.34 4289.77,3174.02 4290.5,3173.69 4291.22,3173.35 4291.94,3173 4292.65,3172.64 4293.36,3172.28 4294.07,3171.9 4294.76,3171.51 4295.46,3171.11 4296.14,3170.71 4296.82,3170.29 4297.5,3169.87 4298.17,3169.43 4298.84,3168.99 4299.49,3168.54 4300.15,3168.08 4300.79,3167.61 4301.43,3167.13 4302.06,3166.64 4302.69,3166.15 4303.31,3165.65 4303.92,3165.13 4304.53,3164.61 4305.13,3164.09 4305.72,3163.55 4306.3,3163 4306.88,3162.45 4307.45,3161.89 4308.01,3161.33 4308.56,3160.75 4309.11,3160.17 4309.64,3159.58 4310.17,3158.98 4310.7,3158.38 4311.21,3157.77 4311.72,3157.15 4312.21,3156.52 4312.7,3155.89 4313.18,3155.25 4313.65,3154.61 4314.11,3153.96 4314.57,3153.3 4315.01,3152.64 4315.45,3151.97 4315.87,3151.29 4316.29,3150.61 4316.7,3149.93 4317.1,3149.24 4317.49,3148.54 4317.87,3147.84 4318.24,3147.13 4318.6,3146.42 4318.95,3145.7 4319.29,3144.98 4319.62,3144.25 4319.95,3143.52 4320.26,3142.79 4320.56,3142.05 4320.85,3141.31 4321.13,3140.56 4321.41,3139.81 4321.67,3139.06 4321.92,3138.3 4322.16,3137.54 4322.39,3136.77 4322.61,3136.01 4322.82,3135.24 4323.02,3134.46 4323.21,3133.69 4323.39,3132.91 4323.56,3132.13 4323.72,3131.35 4323.86,3130.56 4324,3129.77 4324.12,3128.99 4324.24,3128.2 4324.34,3127.4 4324.44,3126.61 4324.52,3125.82 4324.59,3125.02 4324.65,3124.23 4324.7,3123.43 4324.74,3122.63 4324.77,3121.84 4324.79,3121.04 4324.8,3120.24 4324.8,3119.44 4320.86,2754.08 4320.85,2753.28 4320.82,2752.48 4320.79,2751.68 4320.74,2750.88 4320.68,2750.08 4320.61,2749.29 4320.53,2748.49 4320.44,2747.69 4320.34,2746.9 4320.23,2746.1 4320.11,2745.31 4319.98,2744.52 4319.83,2743.73 4319.68,2742.95 4319.51,2742.16 4319.34,2741.38 4319.15,2740.6 4318.96,2739.83 4318.75,2739.05 4318.53,2738.28 4318.3,2737.51 4318.06,2736.75 4317.81,2735.99 4317.56,2735.23 4317.29,2734.48 4317.01,2733.73 4316.72,2732.98 4316.42,2732.24 4316.11,2731.5 4315.79,2730.76 4315.46,2730.03 4315.12,2729.31 4314.77,2728.59 4314.41,2727.87 4314.04,2727.16 4313.66,2726.45 4313.27,2725.75 4312.87,2725.06 4312.47,2724.37 4312.05,2723.68 4311.62,2723 4311.19,2722.33 4310.75,2721.66 4310.29,2721 4309.83,2720.35 4309.36,2719.7 4308.88,2719.06 4308.39,2718.42 4307.9,2717.8 4307.39,2717.17 4306.88,2716.56 4306.36,2715.95 4305.83,2715.35 4305.29,2714.76 4304.74,2714.17 4304.19,2713.59 4303.63,2713.02 4303.06,2712.46 4302.48,2711.9 4301.89,2711.35 4301.3,2710.81 4300.7,2710.28 4300.1,2709.76 4299.48,2709.24 4298.86,2708.74 4298.24,2708.24 4297.6,2707.75 4296.96,2707.27 4296.31,2706.8 4295.66,2706.33 4295,2705.88 4294.34,2705.43 4293.66,2704.99 4292.99,2704.57 4292.3,2704.15 4291.61,2703.74 4290.92,2703.34 4290.22,2702.95 4289.52,2702.57 4288.81,2702.2 4288.09,2701.84 4287.37,2701.49 4286.65,2701.14 4285.92,2700.81 4285.18,2700.49 4284.45,2700.18 4283.7,2699.87 4282.96,2699.58 4282.21,2699.3 4281.45,2699.03 4280.7,2698.77 4279.94,2698.52 4279.17,2698.28 4278.41,2698.05 4277.64,2697.83 4276.86,2697.62 4276.09,2697.42 4275.31,2697.23 4274.53,2697.05 4273.74,2696.88 4272.96,2696.73 4272.17,2696.58 4271.38,2696.45 4270.59,2696.32 4269.8,2696.21 4269,2696.11 4268.21,2696.01 4267.41,2695.93 4266.61,2695.86 4265.81,2695.8 4265.01,2695.75 4264.21,2695.71 4263.41,2695.69 4262.61,2695.67 4261.81,2695.67 3612.2,2695.67 3612.2,1695.67 4261.81,1695.67 4262.61,1695.66 4263.41,1695.64 4264.21,1695.62 4265.01,1695.58 4265.8,1695.53 4266.6,1695.47 4267.4,1695.4 4268.19,1695.32 4268.99,1695.23 4269.78,1695.13 4270.57,1695.01 4271.36,1694.89 4272.15,1694.75 4272.94,1694.61 4273.72,1694.45 4274.5,1694.29 4275.28,1694.11 4276.06,1693.92 4276.84,1693.72 4277.61,1693.51 4278.38,1693.29 4279.14,1693.06 4279.91,1692.82 4280.67,1692.57 4281.42,1692.31 4282.17,1692.04 4282.92,1691.76 4283.67,1691.47 4284.41,1691.17 4285.15,1690.86 4285.88,1690.54 4286.61,1690.21 4287.33,1689.87 4288.05,1689.52 4288.76,1689.16 4289.47,1688.79 4290.17,1688.41 4290.87,1688.02 4291.57,1687.62 4292.26,1687.21 4292.94,1686.8 4293.61,1686.37 4294.29,1685.93 4294.95,1685.49 4295.61,1685.04 4296.26,1684.57 4296.91,1684.1 4297.55,1683.62 4298.18,1683.14 4298.81,1682.64 4299.43,1682.13 4300.04,1681.62 4300.65,1681.1 4301.25,1680.57 4301.84,1680.03 4302.42,1679.48 4303,1678.93 4303.57,1678.37 4304.13,1677.8 4304.68,1677.22 4305.23,1676.64 4305.77,1676.05 4306.3,1675.45 4306.82,1674.84 4307.33,1674.23 4307.84,1673.61 4308.33,1672.98 4308.82,1672.35 4309.3,1671.71 4309.77,1671.06 4310.24,1670.41 4310.69,1669.75 4311.13,1669.09 4311.57,1668.42 4311.99,1667.74 4312.41,1667.06 4312.82,1666.37 4313.22,1665.68 4313.61,1664.98 4313.98,1664.27 4314.35,1663.56 4314.71,1662.85 4315.07,1662.13 4315.41,1661.41 4315.74,1660.68 4316.06,1659.95 4316.37,1659.21 4316.67,1658.47 4316.96,1657.72 4317.24,1656.98 4317.51,1656.22 4317.77,1655.47 4318.02,1654.71 4318.26,1653.95 4318.49,1653.18 4318.71,1652.41 4318.92,1651.64 4319.12,1650.86 4319.31,1650.09 4319.48,1649.31 4319.65,1648.52 4319.81,1647.74 4319.95,1646.95 4320.09,1646.17 4320.21,1645.38 4320.32,1644.58 4320.43,1643.79 4320.52,1643 4320.6,1642.2 4320.67,1641.4 4320.73,1640.61 4320.78,1639.81 4320.82,1639.01 4320.84,1638.21 4320.86,1637.41 4320.86,1636.61 4320.86,120.079 4320.86,119.279 4320.84,118.479 4320.82,117.679 4320.78,116.881 4320.73,116.083 4320.67,115.285 4320.6,114.489 4320.52,113.693 4320.43,112.899 4320.32,112.105 4320.21,111.313 4320.09,110.523 4319.95,109.735 4319.81,108.949 4319.65,108.165 4319.48,107.383 4319.31,106.603 4319.12,105.825 4318.92,105.051 4318.71,104.279 4318.49,103.511 4318.26,102.743 4318.02,101.981 4317.77,101.221 4317.51,100.465 4317.24,99.7127 4316.96,98.9647 4316.67,98.2187 4316.37,97.4787 4316.06,96.7407 4315.74,96.0087 4315.41,95.2807 4315.07,94.5567 4314.71,93.8387 4314.35,93.1247 4313.98,92.4167 4313.61,91.7127 4313.22,91.0127 4312.82,90.3187 4312.41,89.6307 4311.99,88.9487 4311.57,88.2727 4311.13,87.6007 4310.69,86.9367 4310.24,86.2787 4309.77,85.6247 4309.3,84.9787 4308.82,84.3387 4308.33,83.7067 4307.84,83.0787 4307.33,82.4587 4306.82,81.8467 4306.3,81.2407 4305.77,80.6407 4305.23,80.0507 4304.68,79.4647 4304.13,78.8887 4303.57,78.3187 4303,77.7587 4302.42,77.2047 4301.84,76.6587 4301.25,76.1207 4300.65,75.5907 4300.04,75.0687 4299.43,74.5547 4298.81,74.0487 4298.18,73.5527 4297.55,73.0647 4296.91,72.5847 4296.26,72.1147 4295.61,71.6507 4294.95,71.1987 4294.29,70.7547 4293.61,70.3187 4292.94,69.8927 4292.26,69.4767 4291.57,69.0687 4290.87,68.6707 4290.17,68.2807 4289.47,67.9027 4288.76,67.5327 4288.05,67.1727 4287.33,66.8207 4286.61,66.4807 4285.88,66.1507 4285.15,65.8287 4284.41,65.5187 4283.67,65.2167 4282.92,64.9267 4282.17,64.6447 4281.42,64.3747 4280.67,64.1147 4279.91,63.8647 4279.14,63.6247 4278.38,63.3947 4277.61,63.1747 4276.84,62.9667 4276.06,62.7687 4275.28,62.5807 4274.5,62.4027 4273.72,62.2367 4272.94,62.0807 4272.15,61.9347 4271.36,61.8007 4270.57,61.6767 4269.78,61.5627 4268.99,61.4607 4268.19,61.3687 4267.4,61.2867 4266.6,61.2167 4265.8,61.1587 4265.01,61.1087 4264.21,61.0707 4263.41,61.0447 4262.61,61.0287 4261.81,61.0227 1816.93,61.0227 1816.13,61.0287 1815.33,61.0447 1814.54,61.0707 1813.74,61.1087 1812.94,61.1567 1812.15,61.2167 1811.35,61.2867 1810.56,61.3667 1809.77,61.4587 1808.98,61.5607 1808.19,61.6727 1807.4,61.7967 1806.61,61.9307 1805.83,62.0747 1805.05,62.2287 1804.27,62.3947 1803.49,62.5707 1802.72,62.7587 1801.94,62.9547 1801.17,63.1627 1800.41,63.3807 1799.64,63.6087 1798.88,63.8467 1798.12,64.0967 1797.37,64.3547 1796.62,64.6247 1795.87,64.9027 1795.13,65.1927 1794.39,65.4927 1793.66,65.8007 1792.93,66.1207 1792.2,66.4487 1791.48,66.7887 1790.76,67.1367 1790.05,67.4947 1789.34,67.8627 1788.64,68.2387 1787.94,68.6267 1787.25,69.0227 1786.56,69.4267 1785.88,69.8427 1785.21,70.2647 1784.54,70.6987 1783.87,71.1407 1783.21,71.5907 1782.56,72.0507 1781.92,72.5187 1781.28,72.9967 1780.65,73.4807 1780.02,73.9747 1779.4,74.4787 1778.79,74.9887 1778.18,75.5087 1777.59,76.0347 1776.99,76.5707 1776.41,77.1127 1775.83,77.6647 1775.27,78.2227 1774.7,78.7887 1774.15,79.3627 1773.6,79.9447 1773.07,80.5327 1772.54,81.1287 1772.02,81.7307 1771.5,82.3407 1771,82.9587 1770.5,83.5807 1770.01,84.2107 1769.53,84.8487 1769.06,85.4907 1768.6,86.1407 1768.14,86.7967 1767.7,87.4587 1767.26,88.1247 1766.84,88.7987 1766.42,89.4787 1766.01,90.1627 1765.61,90.8527 1765.22,91.5487 1764.84,92.2487 1764.47,92.9547 1764.11,93.6667 1763.76,94.3807 1763.41,95.1007 1763.08,95.8267 1762.76,96.5547 1762.45,97.2887 1762.14,98.0267 1761.85,98.7687 1761.57,99.5147 1761.3,100.263 1761.03,101.017 1760.78,101.773 1760.54,102.533 1760.31,103.295 1760.09,104.061 1759.87,104.831 1759.67,105.601 1759.48,106.375 1759.3,107.153 1759.13,107.931 1758.98,108.713 1758.83,109.497 1758.69,110.283 1758.56,111.069 1758.45,111.859 1758.34,112.649 1758.25,113.439 1758.16,114.233 1758.09,115.027 1758.03,115.821 1757.97,116.617 1757.93,117.413 1757.9,118.211 1757.88,119.007 1757.87,119.805 1754.21,911.415 120.077,911.415 119.275,911.421 118.475,911.437 117.675,911.463 116.875,911.501 116.075,911.551 115.277,911.611 114.481,911.681 113.683,911.761 112.889,911.853 112.095,911.957 111.301,912.071 110.511,912.195 109.721,912.329 108.935,912.475 108.149,912.631 107.367,912.799 106.585,912.977 105.807,913.165 105.031,913.363 104.259,913.573 103.489,913.793 102.723,914.023 101.959,914.263 101.199,914.513 100.441,914.775 99.6888,915.045 98.9388,915.327 98.1928,915.619 97.4508,915.921 96.7148,916.233 95.9808,916.553 95.2528,916.885 94.5288,917.227 93.8088,917.579 93.0948,917.939 92.3848,918.309 91.6788,918.691 90.9808,919.079 90.2868,919.479 89.5968,919.887 88.9148,920.305 88.2368,920.733 87.5668,921.169 86.9008,921.613 86.2408,922.069 85.5888,922.531 84.9428,923.003 84.3008,923.483 83.6688,923.973 83.0408,924.471 82.4208,924.977 81.8068,925.491 81.2008,926.015 80.6028,926.545 80.0108,927.085 79.4248,927.633 78.8488,928.187 78.2788,928.749 77.7168,929.321 77.1628,929.899 76.6168,930.483 76.0788,931.077 75.5488,931.677 75.0268,932.285 74.5148,932.899 74.0088,933.519 73.5128,934.147 73.0248,934.781 72.5448,935.423 72.0748,936.071 71.6128,936.725 71.1588,937.385 70.7148,938.051 70.2808,938.723 69.8548,939.401 69.4368,940.085 69.0308,940.773 68.6328,941.469 68.2448,942.169 67.8648,942.875 67.4948,943.585 67.1368,944.299 66.7868,945.019 66.4468,945.745 66.1148,946.473 65.7948,947.207 65.4848,947.945 65.1848,948.687 64.8948,949.433 64.6148,950.183 64.3448,950.937 64.0848,951.695 63.8348,952.455 63.5968,953.219 63.3668,953.987 63.1488,954.757 62.9408,955.531 62.7448,956.307 62.5568,957.085 62.3808,957.865 62.2168,958.649 62.0608,959.435 61.9168,960.223 61.7828,961.011 61.6608,961.803 61.5488,962.595 61.4468,963.389 61.3568,964.185 61.2768,964.981 61.2068,965.779 61.1488,966.577 61.1008,967.377 61.0648,968.177 61.0388,968.977 61.0248,969.777 61.0208,970.579" style="stroke:rgb(103,198,105);stroke-width:118.110236;fill:none;stroke-opacity:0.5;stroke-linecap:round;stroke-linejoin:round;;fill:none"/>
<polyline points="61.0208,970.579 64.9588,3120.19 64.9648,3120.98 64.9828,3121.78 65.0108,3122.58 65.0508,3123.38 65.1008,3124.18 65.1628,3124.97 65.2328,3125.77 65.3168,3126.56 65.4088,3127.36 65.5128,3128.15 65.6268,3128.94 65.7528,3129.73 65.8888,3130.51 66.0348,3131.3 66.1928,3132.08 66.3588,3132.86 66.5368,3133.64 66.7268,3134.42 66.9248,3135.19 67.1348,3135.96 67.3548,3136.73 67.5848,3137.49 67.8268,3138.26 68.0768,3139.01 68.3388,3139.77 68.6108,3140.52 68.8908,3141.27 69.1828,3142.01 69.4848,3142.75 69.7968,3143.49 70.1188,3144.22 70.4488,3144.94 70.7908,3145.67 71.1428,3146.38 71.5028,3147.1 71.8728,3147.8 72.2528,3148.51 72.6428,3149.2 73.0408,3149.9 73.4488,3150.58 73.8668,3151.26 74.2928,3151.94 74.7268,3152.61 75.1728,3153.27 75.6248,3153.93 76.0888,3154.58 76.5588,3155.23 77.0388,3155.87 77.5268,3156.5 78.0248,3157.12 78.5288,3157.74 79.0428,3158.35 79.5648,3158.96 80.0948,3159.56 80.6328,3160.15 81.1788,3160.73 81.7328,3161.31 82.2928,3161.87 82.8628,3162.43 83.4388,3162.99 84.0228,3163.53 84.6148,3164.07 85.2128,3164.6 85.8188,3165.12 86.4328,3165.63 87.0508,3166.13 87.6788,3166.63 88.3108,3167.12 88.9508,3167.6 89.5968,3168.07 90.2488,3168.53 90.9068,3168.98 91.5708,3169.42 92.2408,3169.86 92.9188,3170.28 93.5988,3170.7 94.2868,3171.1 94.9808,3171.5 95.6788,3171.89 96.3808,3172.27 97.0908,3172.64 97.8028,3173 98.5208,3173.35 99.2448,3173.69 99.9708,3174.02 100.703,3174.34 101.439,3174.65 102.179,3174.95 102.923,3175.24 103.671,3175.52 104.423,3175.79 105.179,3176.05 105.937,3176.3 106.699,3176.54 107.465,3176.77 108.233,3176.98 109.005,3177.19 109.779,3177.39 110.555,3177.58 111.333,3177.75 112.115,3177.92 112.899,3178.08 113.683,3178.22 114.471,3178.36 115.261,3178.48 116.051,3178.59 116.843,3178.7 117.637,3178.79 118.431,3178.87 119.227,3178.94 120.023,3179 120.821,3179.05 121.619,3179.08 122.417,3179.11 123.215,3179.13 124.015,3179.13 4265.75,3179.13 4266.54,3179.13 4267.34,3179.11 4268.14,3179.08 4268.94,3179.05 4269.73,3179 4270.53,3178.94 4271.32,3178.87 4272.12,3178.79 4272.91,3178.7 4273.7,3178.59 4274.49,3178.48 4275.28,3178.36 4276.07,3178.22 4276.85,3178.08 4277.64,3177.92 4278.42,3177.76 4279.2,3177.58 4279.97,3177.39 4280.75,3177.2 4281.52,3176.99 4282.28,3176.77 4283.05,3176.54 4283.81,3176.3 4284.57,3176.05 4285.32,3175.79 4286.08,3175.52 4286.82,3175.24 4287.57,3174.95 4288.31,3174.65 4289.04,3174.34 4289.77,3174.02 4290.5,3173.69 4291.22,3173.35 4291.94,3173 4292.65,3172.64 4293.36,3172.28 4294.07,3171.9 4294.76,3171.51 4295.46,3171.11 4296.14,3170.71 4296.82,3170.29 4297.5,3169.87 4298.17,3169.43 4298.84,3168.99 4299.49,3168.54 4300.15,3168.08 4300.79,3167.61 4301.43,3167.13 4302.06,3166.64 4302.69,3166.15 4303.31,3165.65 4303.92,3165.13 4304.53,3164.61 4305.13,3164.09 4305.72,3163.55 4306.3,3163 4306.88,3162.45 4307.45,3161.89 4308.01,3161.33 4308.56,3160.75 4309.11,3160.17 4309.64,3159.58 4310.17,3158.98 4310.7,3158.38 4311.21,3157.77 4311.72,3157.15 4312.21,3156.52 4312.7,3155.89 4313.18,3155.25 4313.65,3154.61 4314.11,3153.96 4314.57,3153.3 4315.01,3152.64 4315.45,3151.97 4315.87,3151.29 4316.29,3150.61 4316.7,3149.93 4317.1,3149.24 4317.49,3148.54 4317.87,3147.84 4318.24,3147.13 4318.6,3146.42 4318.95,3145.7 4319.29,3144.98 4319.62,3144.25 4319.95,3143.52 4320.26,3142.79 4320.56,3142.05 4320.85,3141.31 4321.13,3140.56 4321.41,3139.81 4321.67,3139.06 4321.92,3138.3 4322.16,3137.54 4322.39,3136.77 4322.61,3136.01 4322.82,3135.24 4323.02,3134.46 4323.21,3133.69 4323.39,3132.91 4323.56,3132.13 4323.72,3131.35 4323.86,3130.56 4324,3129.77 4324.12,3128.99 4324.24,3128.2 4324.34,3127.4 4324.44,3126.61 4324.52,3125.82 4324.59,3125.02 4324.65,3124.23 4324.7,3123.43 4324.74,3122.63 4324.77,3121.84 4324.79,3121.04 4324.8,3120.24 4324.8,3119.44 4320.86,2754.08 4320.85,2753.28 4320.82,2752.48 4320.79,2751.68 4320.74,2750.88 4320.68,2750.08 4320.61,2749.29 4320.53,2748.49 4320.44,2747.69 4320.34,2746.9 4320.23,2746.1 4320.11,2745.31 4319.98,2744.52 4319.83,2743.73 4319.68,2742.95 4319.51,2742.16 4319.34,2741.38 4319.15,2740.6 4318.96,2739.83 4318.75,2739.05 4318.53,2738.28 4318.3,2737.51 4318.06,2736.75 4317.81,2735.99 4317.56,2735.23 4317.29,2734.48 4317.01,2733.73 4316.72,2732.98 4316.42,2732.24 4316.11,2731.5 4315.79,2730.76 4315.46,2730.03 4315.12,2729.31 4314.77,2728.59 4314.41,2727.87 4314.04,2727.16 4313.66,2726.45 4313.27,2725.75 4312.87,2725.06 4312.47,2724.37 4312.05,2723.68 4311.62,2723 4311.19,2722.33 4310.75,2721.66 4310.29,2721 4309.83,2720.35 4309.36,2719.7 4308.88,2719.06 4308.39,2718.42 4307.9,2717.8 4307.39,2717.17 4306.88,2716.56 4306.36,2715.95 4305.83,2715.35 4305.29,2714.76 4304.74,2714.17 4304.19,2713.59 4303.63,2713.02 4303.06,2712.46 4302.48,2711.9 4301.89,2711.35 4301.3,2710.81 4300.7,2710.28 4300.1,2709.76 4299.48,2709.24 4298.86,2708.74 4298.24,2708.24 4297.6,2707.75 4296.96,2707.27 4296.31,2706.8 4295.66,2706.33 4295,2705.88 4294.34,2705.43 4293.66,2704.99 4292.99,2704.57 4292.3,2704.15 4291.61,2703.74 4290.92,2703.34 4290.22,2702.95 4289.52,2702.57 4288.81,2702.2 4288.09,2701.84 4287.37,2701.49 4286.65,2701.14 4285.92,2700.81 4285.18,2700.49 4284.45,2700.18 4283.7,2699.87 4282.96,2699.58 4282.21,2699.3 4281.45,2699.03 4280.7,2698.77 4279.94,2698.52 4279.17,2698.28 4278.41,2698.05 4277.64,2697.83 4276.86,2697.62 4276.09,2697.42 4275.31,2697.23 4274.53,2697.05 4273.74,2696.88 4272.96,2696.73 4272.17,2696.58 4271.38,2696.45 4270.59,2696.32 4269.8,2696.21 4269,2696.11 4268.21,2696.01 4267.41,2695.93 4266.61,2695.86 4265.81,2695.8 4265.01,2695.75 4264.21,2695.71 4263.41,2695.69 4262.61,2695.67 4261.81,2695.67 3612.2,2695.67 3612.2,1695.67 4261.81,1695.67 4262.61,1695.66 4263.41,1695.64 4264.21,1695.62 4265.01,1695.58 4265.8,1695.53 4266.6,1695.47 4267.4,1695.4 4268.19,1695.32 4268.99,1695.23 4269.78,1695.13 4270.57,1695.01 4271.36,1694.89 4272.15,1694.75 4272.94,1694.61 4273.72,1694.45 4274.5,1694.29 4275.28,1694.11 4276.06,1693.92 4276.84,1693.72 4277.61,1693.51 4278.38,1693.29 4279.14,1693.06 4279.91,1692.82 4280.67,1692.57 4281.42,1692.31 4282.17,1692.04 4282.92,1691.76 4283.67,1691.47 4284.41,1691.17 4285.15,1690.86 4285.88,1690.54 4286.61,1690.21 4287.33,1689.87 4288.05,1689.52 4288.76,1689.16 4289.47,1688.79 4290.17,1688.41 4290.87,1688.02 4291.57,1687.62 4292.26,1687.21 4292.94,1686.8 4293.61,1686.37 4294.29,1685.93 4294.95,1685.49 4295.61,1685.04 4296.26,1684.57 4296.91,1684.1 4297.55,1683.62 4298.18,1683.14 4298.81,1682.64 4299.43,1682.13 4300.04,1681.62 4300.65,1681.1 4301.25,1680.57 4301.84,1680.03 4302.42,1679.48 4303,1678.93 4303.57,1678.37 4304.13,1677.8 4304.68,1677.22 4305.23,1676.64 4305.77,1676.05 4306.3,1675.45 4306.82,1674.84 4307.33,1674.23 4307.84,1673.61 4308.33,1672.98 4308.82,1672.35 4309.3,1671.71 4309.77,1671.06 4310.24,1670.41 4310.69,1669.75 4311.13,1669.09 4311.57,1668.42 4311.99,1667.74 4312.41,1667.06 4312.82,1666.37 4313.22,1665.68 4313.61,1664.98 4313.98,1664.27 4314.35,1663.56 4314.71,1662.85 4315.07,1662.13 4315.41,1661.41 4315.74,1660.68 4316.06,1659.95 4316.37,1659.21 4316.67,1658.47 4316.96,1657.72 4317.24,1656.98 4317.51,1656.22 4317.77,1655.47 4318.02,1654.71 4318.26,1653.95 4318.49,1653.18 4318.71,1652.41 4318.92,1651.64 4319.12,1650.86 4319.31,1650.09 4319.48,1649.31 4319.65,1648.52 4319.81,1647.74 4319.95,1646.95 4320.09,1646.17 4320.21,1645.38 4320.32,1644.58 4320.43,1643.79 4320.52,1643 4320.6,1642.2 4320.67,1641.4 4320.73,1640.61 4320.78,1639.81 4320.82,1639.01 4320.84,1638.21 4320.86,1637.41 4320.86,1636.61 4320.86,120.079 4320.86,119.279 4320.84,118.479 4320.82,117.679 4320.78,116.881 4320.73,116.083 4320.67,115.285 4320.6,114.489 4320.52,113.693 4320.43,112.899 4320.32,112.105 4320.21,111.313 4320.09,110.523 4319.95,109.735 4319.81,108.949 4319.65,108.165 4319.48,107.383 4319.31,106.603 4319.12,105.825 4318.92,105.051 4318.71,104.279 4318.49,103.511 4318.26,102.743 4318.02,101.981 4317.77,101.221 4317.51,100.465 4317.24,99.7127 4316.96,98.9647 4316.67,98.2187 4316.37,97.4787 4316.06,96.7407 4315.74,96.0087 4315.41,95.2807 4315.07,94.5567 4314.71,93.8387 4314.35,93.1247 4313.98,92.4167 4313.61,91.7127 4313.22,91.0127 4312.82,90.3187 4312.41,89.6307 4311.99,88.9487 4311.57,88.2727 4311.13,87.6007 4310.69,86.9367 4310.24,86.2787 4309.77,85.6247 4309.3,84.9787 4308.82,84.3387 4308.33,83.7067 4307.84,83.0787 4307.33,82.4587 4306.82,81.8467 4306.3,81.2407 4305.77,80.6407 4305.23,80.0507 4304.68,79.4647 4304.13,78.8887 4303.57,78.3187 4303,77.7587 4302.42,77.2047 4301.84,76.6587 4301.25,76.1207 4300.65,75.5907 4300.04,75.0687 4299.43,74.5547 4298.81,74.0487 4298.18,73.5527 4297.55,73.0647 4296.91,72.5847 4296.26,72.1147 4295.61,71.6507 4294.95,71.1987 4294.29,70.7547 4293.61,70.3187 4292.94,69.8927 4292.26,69.4767 4291.57,69.0687 4290.87,68.6707 4290.17,68.2807 4289.47,67.9027 4288.76,67.5327 4288.05,67.1727 4287.33,66.8207 4286.61,66.4807 4285.88,66.1507 4285.15,65.8287 4284.41,65.5187 4283.67,65.2167 4282.92,64.9267 4282.17,64.6447 4281.42,64.3747 4280.67,64.1147 4279.91,63.8647 4279.14,63.6247 4278.38,63.3947 4277.61,63.1747 4276.84,62.9667 4276.06,62.7687 4275.28,62.5807 4274.5,62.4027 4273.72,62.2367 4272.94,62.0807 4272.15,61.9347 4271.36,61.8007 4270.57,61.6767 4269.78,61.5627 4268.99,61.4607 4268.19,61.3687 4267.4,61.2867 4266.6,61.2167 4265.8,61.1587 4265.01,61.1087 4264.21,61.0707 4263.41,61.0447 4262.61,61.0287 4261.81,61.0227 1816.93,61.0227 1816.13,61.0287 1815.33,61.0447 1814.54,61.0707 1813.74,61.1087 1812.94,61.1567 1812.15,61.2167 1811.35,61.2867 1810.56,61.3667 1809.77,61.4587 1808.98,61.5607 1808.19,61.6727 1807.4,61.7967 1806.61,61.9307 1805.83,62.0747 1805.05,62.2287 1804.27,62.3947 1803.49,62.5707 1802.72,62.7587 1801.94,62.9547 1801.17,63.1627 1800.41,63.3807 1799.64,63.6087 1798.88,63.8467 1798.12,64.0967 1797.37,64.3547 1796.62,64.6247 1795.87,64.9027 1795.13,65.1927 1794.39,65.4927 1793.66,65.8007 1792.93,66.1207 1792.2,66.4487 1791.48,66.7887 1790.76,67.1367 1790.05,67.4947 1789.34,67.8627 1788.64,68.2387 1787.94,68.6267 1787.25,69.0227 1786.56,69.4267 1785.88,69.8427 1785.21,70.2647 1784.54,70.6987 1783.87,71.1407 1783.21,71.5907 1782.56,72.0507 1781.92,72.5187 1781.28,72.9967 1780.65,73.4807 1780.02,73.9747 1779.4,74.4787 1778.79,74.9887 1778.18,75.5087 1777.59,76.0347 1776.99,76.5707 1776.41,77.1127 1775.83,77.6647 1775.27,78.2227 1774.7,78.7887 1774.15,79.3627 1773.6,79.9447 1773.07,80.5327 1772.54,81.1287 1772.02,81.7307 1771.5,82.3407 1771,82.9587 1770.5,83.5807 1770.01,84.2107 1769.53,84.8487 1769.06,85.4907 1768.6,86.1407 1768.14,86.7967 1767.7,87.4587 1767.26,88.1247 1766.84,88.7987 1766.42,89.4787 1766.01,90.1627 1765.61,90.8527 1765.22,91.5487 1764.84,92.2487 1764.47,92.9547 1764.11,93.6667 1763.76,94.3807 1763.41,95.1007 1763.08,95.8267 1762.76,96.5547 1762.45,97.2887 1762.14,98.0267 1761.85,98.7687 1761.57,99.5147 1761.3,100.263 1761.03,101.017 1760.78,101.773 1760.54,102.533 1760.31,103.295 1760.09,104.061 1759.87,104.831 1759.67,105.601 1759.48,106.375 1759.3,107.153 1759.13,107.931 1758.98,108.713 1758.83,109.497 1758.69,110.283 1758.56,111.069 1758.45,111.859 1758.34,112.649 1758.25,113.439 1758.16,114.233 1758.09,115.027 1758.03,115.821 1757.97,116.617 1757.93,117.413 1757.9,118.211 1757.88,119.007 1757.87,119.805 1754.21,911.415 120.077,911.415 119.275,911.421 118.475,911.437 117.675,911.463 116.875,911.501 116.075,911.551 115.277,911.611 114.481,911.681 113.683,911.761 112.889,911.853 112.095,911.957 111.301,912.071 110.511,912.195 109.721,912.329 108.935,912.475 108.149,912.631 107.367,912.799 106.585,912.977 105.807,913.165 105.031,913.363 104.259,913.573 103.489,913.793 102.723,914.023 101.959,914.263 101.199,914.513 100.441,914.775 99.6888,915.045 98.9388,915.327 98.1928,915.619 97.4508,915.921 96.7148,916.233 95.9808,916.553 95.2528,916.885 94.5288,917.227 93.8088,917.579 93.0948,917.939 92.3848,918.309 91.6788,918.691 90.9808,919.079 90.2868,919.479 89.5968,919.887 88.9148,920.305 88.2368,920.733 87.5668,921.169 86.9008,921.613 86.2408,922.069 85.5888,922.531 84.9428,923.003 84.3008,923.483 83.6688,923.973 83.0408,924.471 82.4208,924.977 81.8068,925.491 81.2008,926.015 80.6028,926.545 80.0108,927.085 79.4248,927.633 78.8488,928.187 78.2788,928.749 77.7168,929.321 77.1628,929.899 76.6168,930.483 76.0788,931.077 75.5488,931.677 75.0268,932.285 74.5148,932.899 74.0088,933.519 73.5128,934.147 73.0248,934.781 72.5448,935.423 72.0748,936.071 71.6128,936.725 71.1588,937.385 70.7148,938.051 70.2808,938.723 69.8548,939.401 69.4368,940.085 69.0308,940.773 68.6328,941.469 68.2448,942.169 67.8648,942.875 67.4948,943.585 67.1368,944.299 66.7868,945.019 66.4468,945.745 66.1148,946.473 65.7948,947.207 65.4848,947.945 65.1848,948.687 64.8948,949.433 64.6148,950.183 64.3448,950.937 64.0848,951.695 63.8348,952.455 63.5968,953.219 63.3668,953.987 63.1488,954.757 62.9408,955.531 62.7448,956.307 62.5568,957.085 62.3808,957.865 62.2168,958.649 62.0608,959.435 61.9168,960.223 61.7828,961.011 61.6608,961.803 61.5488,962.595 61.4468,963.389 61.3568,964.185 61.2768,964.981 61.2068,965.779 61.1488,966.577 61.1008,967.377 61.0648,968.177 61.0388,968.977 61.0248,969.777 61.0208,970.579" style="stroke:rgb(0,0,0);stroke-width:1px;fill:none;stroke-opacity:1;stroke-linecap:round;stroke-linejoin:round;;fill:none"/>
<g fill-rule="evenodd"><path d="M 120.077,970.471 L 1812.99,970.471 L 1816.93,120.079 L 4261.81,120.079 L 4261.81,1636.61 L 3553.15,1636.61 L 3553.15,2754.72 L 4261.81,2754.72 L 4265.75,3120.08 L 124.015,3120.08 L 120.077,970.471 z " style="fill-opacity:1.000000;fill:rgb(103,198,105);stroke:rgb(0,0,0);stroke-width:2"/></g>
</svg>
