<?xml version="1.0" standalone="no"?>
<!DOCTYPE svg PUBLIC "-//W3C//DTD SVG 1.1//EN"
"http://www.w3.org/Graphics/SVG/1.1/DTD/svg11.dtd">
<svg width="190.945" height="138.958" viewBox="0 0 3978.03 2894.96" version="1.1"
xmlns="http://www.w3.org/2000/svg"
xmlns:xlink="http://www.w3.org/1999/xlink">
<polyline points="1985.49,302.802 1985.61,264.338 1986.47,264.214 2059.86,264.246 2060.13,264.29 2060.21,264.344 2060.21,303.17 2060.15,303.448 2059.27,303.576 1986.08,303.544 1985.6,303.454 1985.49,302.802" style="stroke:rgb(103,198,105);stroke-width:39.370079;fill:none;stroke-opacity:0.5;stroke-linecap:round;stroke-linejoin:round;;fill:none"/>
<polyline points="1985.49,302.802 1985.61,264.338 1986.47,264.214 2059.86,264.246 2060.13,264.29 2060.21,264.344 2060.21,303.17 2060.15,303.448 2059.27,303.576 1986.08,303.544 1985.6,303.454 1985.49,302.802" style="stroke:rgb(0,0,0);stroke-width:1px;fill:none;stroke-opacity:1;stroke-linecap:round;stroke-linejoin:round;;fill:none"/>
<polyline points="1985.49,153.196 1985.61,114.732 1986.47,114.608 2059.86,114.64 2060.13,114.684 2060.21,114.736 2060.21,153.564 2060.15,153.842 2059.27,153.968 1986.08,153.938 1985.6,153.848 1985.49,153.196" style="stroke:rgb(103,198,105);stroke-width:39.370079;fill:none;stroke-opacity:0.5;stroke-linecap:round;stroke-linejoin:round;;fill:none"/>
<polyline points="1985.49,153.196 1985.61,114.732 1986.47,114.608 2059.86,114.64 2060.13,114.684 2060.21,114.736 2060.21,153.564 2060.15,153.842 2059.27,153.968 1986.08,153.938 1985.6,153.848 1985.49,153.196" style="stroke:rgb(0,0,0);stroke-width:1px;fill:none;stroke-opacity:1;stroke-linecap:round;stroke-linejoin:round;;fill:none"/>
<polyline points="1946.12,627.58 1946.17,530.372 1946.22,530.088 1947.09,529.964 1995.08,530.056 1995.18,530.08 1995.3,530.764 1995.3,627.778 1995.24,628.158 1995.21,628.254 1994.72,628.344 1946.33,628.284 1946.23,628.262 1946.12,627.58" style="stroke:rgb(103,198,105);stroke-width:39.370079;fill:none;stroke-opacity:0.5;stroke-linecap:round;stroke-linejoin:round;;fill:none"/>
<polyline points="1946.12,627.58 1946.17,530.372 1946.22,530.088 1947.09,529.964 1995.08,530.056 1995.18,530.08 1995.3,530.764 1995.3,627.778 1995.24,628.158 1995.21,628.254 1994.72,628.344 1946.33,628.284 1946.23,628.262 1946.12,627.58" style="stroke:rgb(0,0,0);stroke-width:1px;fill:none;stroke-opacity:1;stroke-linecap:round;stroke-linejoin:round;;fill:none"/>
<polyline points="300.473,2169.99 300.667,2167.88 301.065,2165.79 301.667,2163.76 302.467,2161.79 303.421,2159.97 304.807,2157.9 306.371,2156.05 308.183,2154.33 309.761,2153.13 311.951,2151.8 313.743,2150.95 316.097,2150.13 318.259,2149.63 322.363,2149.26 355.633,2149.39 357.799,2149.7 360.147,2150.3 362.411,2151.17 364.565,2152.28 366.525,2153.59 368.647,2155.41 370.479,2157.43 372.041,2159.66 373.309,2162.07 374.287,2164.69 374.827,2166.91 375.169,2169.76 375.169,2172.05 374.835,2174.82 374.173,2177.47 373.159,2180.07 372.081,2182.09 370.479,2184.38 368.647,2186.4 366.683,2188.08 363.759,2189.95 360.713,2191.29 357.495,2192.14 353.699,2192.54 322.631,2192.56 319.663,2192.39 317.205,2191.97 315.227,2191.42 313.313,2190.67 311.037,2189.49 309.321,2188.37 307.671,2187.03 306.159,2185.54 304.801,2183.91 303.609,2182.15 302.597,2180.29 301.769,2178.33 301.139,2176.31 300.711,2174.23 300.489,2172.12 300.473,2169.99" style="stroke:rgb(103,198,105);stroke-width:39.370079;fill:none;stroke-opacity:0.5;stroke-linecap:round;stroke-linejoin:round;;fill:none"/>
<polyline points="300.473,2169.99 300.667,2167.88 301.065,2165.79 301.667,2163.76 302.467,2161.79 303.421,2159.97 304.807,2157.9 306.371,2156.05 308.183,2154.33 309.761,2153.13 311.951,2151.8 313.743,2150.95 316.097,2150.13 318.259,2149.63 322.363,2149.26 355.633,2149.39 357.799,2149.7 360.147,2150.3 362.411,2151.17 364.565,2152.28 366.525,2153.59 368.647,2155.41 370.479,2157.43 372.041,2159.66 373.309,2162.07 374.287,2164.69 374.827,2166.91 375.169,2169.76 375.169,2172.05 374.835,2174.82 374.173,2177.47 373.159,2180.07 372.081,2182.09 370.479,2184.38 368.647,2186.4 366.683,2188.08 363.759,2189.95 360.713,2191.29 357.495,2192.14 353.699,2192.54 322.631,2192.56 319.663,2192.39 317.205,2191.97 315.227,2191.42 313.313,2190.67 311.037,2189.49 309.321,2188.37 307.671,2187.03 306.159,2185.54 304.801,2183.91 303.609,2182.15 302.597,2180.29 301.769,2178.33 301.139,2176.31 300.711,2174.23 300.489,2172.12 300.473,2169.99" style="stroke:rgb(0,0,0);stroke-width:1px;fill:none;stroke-opacity:1;stroke-linecap:round;stroke-linejoin:round;;fill:none"/>
<polyline points="48.0933,2194.85 48.1893,2192.39 48.5273,2190.02 49.0773,2187.8 50.1373,2184.95 51.4913,2182.35 53.1253,2179.99 55.3413,2177.53 57.5273,2175.67 59.9753,2174.06 62.5533,2172.79 65.7373,2171.7 68.1833,2171.2 71.5493,2170.91 126.087,2170.9 130.259,2171.21 133.797,2172 136.091,2172.84 138.753,2174.19 141.183,2175.83 143.433,2177.79 145.143,2179.69 146.867,2182.12 148.251,2184.71 149.323,2187.49 149.951,2189.97 150.337,2192.93 150.355,2195.86 150.001,2198.82 149.401,2201.3 148.361,2204.1 147.007,2206.7 145.247,2209.25 143.963,2210.74 142.429,2212.22 140.811,2213.52 138.713,2214.9 136.925,2215.85 134.603,2216.8 132.669,2217.38 130.427,2217.83 126.521,2218.14 71.6033,2218.14 67.9753,2217.81 64.6453,2217.04 62.8953,2216.42 60.6693,2215.39 58.5613,2214.13 56.8853,2212.91 55.3293,2211.53 53.6533,2209.74 52.2013,2207.83 50.9213,2205.73 50.0393,2203.91 49.1833,2201.61 48.5813,2199.29 48.2073,2196.87 48.0933,2194.85" style="stroke:rgb(103,198,105);stroke-width:39.370079;fill:none;stroke-opacity:0.5;stroke-linecap:round;stroke-linejoin:round;;fill:none"/>
<polyline points="48.0933,2194.85 48.1893,2192.39 48.5273,2190.02 49.0773,2187.8 50.1373,2184.95 51.4913,2182.35 53.1253,2179.99 55.3413,2177.53 57.5273,2175.67 59.9753,2174.06 62.5533,2172.79 65.7373,2171.7 68.1833,2171.2 71.5493,2170.91 126.087,2170.9 130.259,2171.21 133.797,2172 136.091,2172.84 138.753,2174.19 141.183,2175.83 143.433,2177.79 145.143,2179.69 146.867,2182.12 148.251,2184.71 149.323,2187.49 149.951,2189.97 150.337,2192.93 150.355,2195.86 150.001,2198.82 149.401,2201.3 148.361,2204.1 147.007,2206.7 145.247,2209.25 143.963,2210.74 142.429,2212.22 140.811,2213.52 138.713,2214.9 136.925,2215.85 134.603,2216.8 132.669,2217.38 130.427,2217.83 126.521,2218.14 71.6033,2218.14 67.9753,2217.81 64.6453,2217.04 62.8953,2216.42 60.6693,2215.39 58.5613,2214.13 56.8853,2212.91 55.3293,2211.53 53.6533,2209.74 52.2013,2207.83 50.9213,2205.73 50.0393,2203.91 49.1833,2201.61 48.5813,2199.29 48.2073,2196.87 48.0933,2194.85" style="stroke:rgb(0,0,0);stroke-width:1px;fill:none;stroke-opacity:1;stroke-linecap:round;stroke-linejoin:round;;fill:none"/>
<polyline points="689.801,2211.33 689.945,2212.87 690.191,2213.7 690.561,2214.39 691.169,2215.12 691.545,2215.43 692.115,2215.75 692.731,2215.97 693.307,2216.08 763.731,2216.18 765.411,2215.99 766.153,2215.75 766.831,2215.36 767.543,2214.74 767.843,2214.35 768.153,2213.77 768.361,2213.15 768.487,2212.33 768.527,2141.91 768.277,2140.09 768.063,2139.59 767.783,2139.13 766.813,2138.22 766.261,2137.86 766.085,2137.78 765.127,2137.53 764.517,2137.46 694.389,2137.45 692.865,2137.64 691.969,2137.95 691.691,2138.11 690.841,2138.83 690.535,2139.21 690.215,2139.78 689.997,2140.4 689.883,2141.06 689.801,2211.33" style="stroke:rgb(103,198,105);stroke-width:39.370079;fill:none;stroke-opacity:0.5;stroke-linecap:round;stroke-linejoin:round;;fill:none"/>
<polyline points="689.801,2211.33 689.945,2212.87 690.191,2213.7 690.561,2214.39 691.169,2215.12 691.545,2215.43 692.115,2215.75 692.731,2215.97 693.307,2216.08 763.731,2216.18 765.411,2215.99 766.153,2215.75 766.831,2215.36 767.543,2214.74 767.843,2214.35 768.153,2213.77 768.361,2213.15 768.487,2212.33 768.527,2141.91 768.277,2140.09 768.063,2139.59 767.783,2139.13 766.813,2138.22 766.261,2137.86 766.085,2137.78 765.127,2137.53 764.517,2137.46 694.389,2137.45 692.865,2137.64 691.969,2137.95 691.691,2138.11 690.841,2138.83 690.535,2139.21 690.215,2139.78 689.997,2140.4 689.883,2141.06 689.801,2211.33" style="stroke:rgb(0,0,0);stroke-width:1px;fill:none;stroke-opacity:1;stroke-linecap:round;stroke-linejoin:round;;fill:none"/>
<polyline points="886.651,2211.33 886.797,2212.87 887.043,2213.7 887.411,2214.39 888.019,2215.12 888.395,2215.43 888.965,2215.75 889.581,2215.97 890.157,2216.08 960.581,2216.18 962.261,2215.99 963.003,2215.75 963.681,2215.36 964.393,2214.74 964.693,2214.35 965.003,2213.77 965.211,2213.15 965.337,2212.33 965.377,2141.91 965.129,2140.09 964.913,2139.59 964.633,2139.13 963.663,2138.22 963.111,2137.86 962.935,2137.78 961.977,2137.53 961.367,2137.46 891.239,2137.45 889.717,2137.64 888.819,2137.95 888.543,2138.11 887.691,2138.83 887.385,2139.21 887.065,2139.78 886.847,2140.4 886.733,2141.06 886.651,2211.33" style="stroke:rgb(103,198,105);stroke-width:39.370079;fill:none;stroke-opacity:0.5;stroke-linecap:round;stroke-linejoin:round;;fill:none"/>
<polyline points="886.651,2211.33 886.797,2212.87 887.043,2213.7 887.411,2214.39 888.019,2215.12 888.395,2215.43 888.965,2215.75 889.581,2215.97 890.157,2216.08 960.581,2216.18 962.261,2215.99 963.003,2215.75 963.681,2215.36 964.393,2214.74 964.693,2214.35 965.003,2213.77 965.211,2213.15 965.337,2212.33 965.377,2141.91 965.129,2140.09 964.913,2139.59 964.633,2139.13 963.663,2138.22 963.111,2137.86 962.935,2137.78 961.977,2137.53 961.367,2137.46 891.239,2137.45 889.717,2137.64 888.819,2137.95 888.543,2138.11 887.691,2138.83 887.385,2139.21 887.065,2139.78 886.847,2140.4 886.733,2141.06 886.651,2211.33" style="stroke:rgb(0,0,0);stroke-width:1px;fill:none;stroke-opacity:1;stroke-linecap:round;stroke-linejoin:round;;fill:none"/>
<polyline points="422.083,2872.87 422.083,2613.03 555.943,2613.03 555.943,2872.87 422.083,2872.87" style="stroke:rgb(103,198,105);stroke-width:39.370079;fill:none;stroke-opacity:0.5;stroke-linecap:round;stroke-linejoin:round;;fill:none"/>
<polyline points="422.083,2872.87 422.083,2613.03 555.943,2613.03 555.943,2872.87 422.083,2872.87" style="stroke:rgb(0,0,0);stroke-width:1px;fill:none;stroke-opacity:1;stroke-linecap:round;stroke-linejoin:round;;fill:none"/>
<polyline points="222.083,2872.87 222.083,2613.03 355.943,2613.03 355.943,2872.87 222.083,2872.87" style="stroke:rgb(103,198,105);stroke-width:39.370079;fill:none;stroke-opacity:0.5;stroke-linecap:round;stroke-linejoin:round;;fill:none"/>
<polyline points="222.083,2872.87 222.083,2613.03 355.943,2613.03 355.943,2872.87 222.083,2872.87" style="stroke:rgb(0,0,0);stroke-width:1px;fill:none;stroke-opacity:1;stroke-linecap:round;stroke-linejoin:round;;fill:none"/>
<polyline points="22.0833,2872.87 155.943,2872.87 155.943,2613.03 22.0833,2613.03 22.0833,2872.87" style="stroke:rgb(103,198,105);stroke-width:39.370079;fill:none;stroke-opacity:0.5;stroke-linecap:round;stroke-linejoin:round;;fill:none"/>
<polyline points="22.0833,2872.87 155.943,2872.87 155.943,2613.03 22.0833,2613.03 22.0833,2872.87" style="stroke:rgb(0,0,0);stroke-width:1px;fill:none;stroke-opacity:1;stroke-linecap:round;stroke-linejoin:round;;fill:none"/>
<polyline points="622.083,2872.87 622.083,2613.03 755.943,2613.03 755.943,2872.87 622.083,2872.87" style="stroke:rgb(103,198,105);stroke-width:39.370079;fill:none;stroke-opacity:0.5;stroke-linecap:round;stroke-linejoin:round;;fill:none"/>
<polyline points="622.083,2872.87 622.083,2613.03 755.943,2613.03 755.943,2872.87 622.083,2872.87" style="stroke:rgb(0,0,0);stroke-width:1px;fill:none;stroke-opacity:1;stroke-linecap:round;stroke-linejoin:round;;fill:none"/>
<polyline points="822.083,2872.87 955.943,2872.87 955.943,2613.03 822.083,2613.03 822.083,2872.87" style="stroke:rgb(103,198,105);stroke-width:39.370079;fill:none;stroke-opacity:0.5;stroke-linecap:round;stroke-linejoin:round;;fill:none"/>
<polyline points="822.083,2872.87 955.943,2872.87 955.943,2613.03 822.083,2613.03 822.083,2872.87" style="stroke:rgb(0,0,0);stroke-width:1px;fill:none;stroke-opacity:1;stroke-linecap:round;stroke-linejoin:round;;fill:none"/>
<polyline points="36.2593,2093.22 36.3413,2022.95 36.4533,2022.29 36.6713,2021.67 36.9913,2021.1 37.2973,2020.72 38.0193,2020.11 38.8533,2019.65 39.1553,2019.55 40.8453,2019.34 110.973,2019.35 111.583,2019.42 112.541,2019.67 112.717,2019.75 113.269,2020.11 114.205,2020.99 114.329,2021.15 114.895,2022.59 114.983,2023.46 114.943,2094.22 114.817,2095.04 114.609,2095.66 114.299,2096.24 113.999,2096.63 113.287,2097.25 112.609,2097.64 111.867,2097.88 110.187,2098.07 39.7653,2097.97 39.1893,2097.86 38.5713,2097.64 38.0033,2097.32 37.6253,2097.01 37.0173,2096.28 36.6493,2095.59 36.4033,2094.76 36.2593,2093.22" style="stroke:rgb(103,198,105);stroke-width:39.370079;fill:none;stroke-opacity:0.5;stroke-linecap:round;stroke-linejoin:round;;fill:none"/>
<polyline points="36.2593,2093.22 36.3413,2022.95 36.4533,2022.29 36.6713,2021.67 36.9913,2021.1 37.2973,2020.72 38.0193,2020.11 38.8533,2019.65 39.1553,2019.55 40.8453,2019.34 110.973,2019.35 111.583,2019.42 112.541,2019.67 112.717,2019.75 113.269,2020.11 114.205,2020.99 114.329,2021.15 114.895,2022.59 114.983,2023.46 114.943,2094.22 114.817,2095.04 114.609,2095.66 114.299,2096.24 113.999,2096.63 113.287,2097.25 112.609,2097.64 111.867,2097.88 110.187,2098.07 39.7653,2097.97 39.1893,2097.86 38.5713,2097.64 38.0033,2097.32 37.6253,2097.01 37.0173,2096.28 36.6493,2095.59 36.4033,2094.76 36.2593,2093.22" style="stroke:rgb(0,0,0);stroke-width:1px;fill:none;stroke-opacity:1;stroke-linecap:round;stroke-linejoin:round;;fill:none"/>
<polyline points="36.2593,1935.74 36.3413,1865.47 36.4533,1864.81 36.6713,1864.19 36.9913,1863.62 37.4033,1863.11 37.7693,1862.79 38.5853,1862.3 39.3233,1862.05 40.8453,1861.86 110.973,1861.87 111.583,1861.94 112.541,1862.19 112.717,1862.27 113.269,1862.63 114.241,1863.54 114.347,1863.72 114.895,1865.11 114.983,1865.98 114.943,1936.74 114.817,1937.56 114.609,1938.18 114.299,1938.76 113.999,1939.14 113.287,1939.77 112.609,1940.16 111.867,1940.4 110.187,1940.59 39.7653,1940.49 39.1893,1940.38 38.5713,1940.16 38.0033,1939.84 37.6253,1939.53 37.0173,1938.8 36.6493,1938.11 36.4033,1937.28 36.2593,1935.74" style="stroke:rgb(103,198,105);stroke-width:39.370079;fill:none;stroke-opacity:0.5;stroke-linecap:round;stroke-linejoin:round;;fill:none"/>
<polyline points="36.2593,1935.74 36.3413,1865.47 36.4533,1864.81 36.6713,1864.19 36.9913,1863.62 37.4033,1863.11 37.7693,1862.79 38.5853,1862.3 39.3233,1862.05 40.8453,1861.86 110.973,1861.87 111.583,1861.94 112.541,1862.19 112.717,1862.27 113.269,1862.63 114.241,1863.54 114.347,1863.72 114.895,1865.11 114.983,1865.98 114.943,1936.74 114.817,1937.56 114.609,1938.18 114.299,1938.76 113.999,1939.14 113.287,1939.77 112.609,1940.16 111.867,1940.4 110.187,1940.59 39.7653,1940.49 39.1893,1940.38 38.5713,1940.16 38.0033,1939.84 37.6253,1939.53 37.0173,1938.8 36.6493,1938.11 36.4033,1937.28 36.2593,1935.74" style="stroke:rgb(0,0,0);stroke-width:1px;fill:none;stroke-opacity:1;stroke-linecap:round;stroke-linejoin:round;;fill:none"/>
<polyline points="296.101,2014.48 296.245,2016.02 296.491,2016.85 296.859,2017.54 297.469,2018.27 297.845,2018.58 298.415,2018.9 299.031,2019.12 299.607,2019.23 370.029,2019.33 371.711,2019.14 372.453,2018.9 373.131,2018.51 373.843,2017.89 374.141,2017.5 374.451,2016.92 374.659,2016.3 374.787,2015.48 374.825,1944.72 374.737,1943.85 374.171,1942.41 374.047,1942.25 373.111,1941.37 372.559,1941.01 372.383,1940.93 371.425,1940.68 370.815,1940.61 300.689,1940.6 298.997,1940.81 298.695,1940.91 297.863,1941.37 297.139,1941.98 296.833,1942.36 296.513,1942.93 296.295,1943.55 296.183,1944.21 296.101,2014.48" style="stroke:rgb(103,198,105);stroke-width:39.370079;fill:none;stroke-opacity:0.5;stroke-linecap:round;stroke-linejoin:round;;fill:none"/>
<polyline points="296.101,2014.48 296.245,2016.02 296.491,2016.85 296.859,2017.54 297.469,2018.27 297.845,2018.58 298.415,2018.9 299.031,2019.12 299.607,2019.23 370.029,2019.33 371.711,2019.14 372.453,2018.9 373.131,2018.51 373.843,2017.89 374.141,2017.5 374.451,2016.92 374.659,2016.3 374.787,2015.48 374.825,1944.72 374.737,1943.85 374.171,1942.41 374.047,1942.25 373.111,1941.37 372.559,1941.01 372.383,1940.93 371.425,1940.68 370.815,1940.61 300.689,1940.6 298.997,1940.81 298.695,1940.91 297.863,1941.37 297.139,1941.98 296.833,1942.36 296.513,1942.93 296.295,1943.55 296.183,1944.21 296.101,2014.48" style="stroke:rgb(0,0,0);stroke-width:1px;fill:none;stroke-opacity:1;stroke-linecap:round;stroke-linejoin:round;;fill:none"/>
<polyline points="48.0933,1765.71 48.1893,1763.26 48.5273,1760.89 49.0773,1758.67 50.1193,1755.87 51.6633,1752.94 53.3233,1750.6 55.2993,1748.43 57.5273,1746.53 59.9753,1744.92 62.5533,1743.65 65.7373,1742.57 68.1833,1742.07 71.5493,1741.78 126.087,1741.77 130.259,1742.08 133.743,1742.86 136.437,1743.86 138.707,1745.02 141.183,1746.69 143.391,1748.62 145.379,1750.85 146.841,1752.94 148.251,1755.57 149.323,1758.36 149.951,1760.83 150.337,1763.79 150.355,1766.72 150.001,1769.69 149.401,1772.17 148.361,1774.97 147.007,1777.57 145.247,1780.11 143.999,1781.56 142.183,1783.29 140.595,1784.54 138.529,1785.87 136.339,1786.98 134.405,1787.74 132.357,1788.33 130.481,1788.7 126.521,1789.01 71.6033,1789 67.9753,1788.67 64.6993,1787.92 62.5473,1787.15 60.6673,1786.26 58.8773,1785.21 56.8433,1783.74 55.3293,1782.4 53.6533,1780.6 52.2013,1778.69 50.9513,1776.65 49.9153,1774.48 49.0853,1772.17 48.5893,1770.21 48.2073,1767.73 48.0933,1765.71" style="stroke:rgb(103,198,105);stroke-width:39.370079;fill:none;stroke-opacity:0.5;stroke-linecap:round;stroke-linejoin:round;;fill:none"/>
<polyline points="48.0933,1765.71 48.1893,1763.26 48.5273,1760.89 49.0773,1758.67 50.1193,1755.87 51.6633,1752.94 53.3233,1750.6 55.2993,1748.43 57.5273,1746.53 59.9753,1744.92 62.5533,1743.65 65.7373,1742.57 68.1833,1742.07 71.5493,1741.78 126.087,1741.77 130.259,1742.08 133.743,1742.86 136.437,1743.86 138.707,1745.02 141.183,1746.69 143.391,1748.62 145.379,1750.85 146.841,1752.94 148.251,1755.57 149.323,1758.36 149.951,1760.83 150.337,1763.79 150.355,1766.72 150.001,1769.69 149.401,1772.17 148.361,1774.97 147.007,1777.57 145.247,1780.11 143.999,1781.56 142.183,1783.29 140.595,1784.54 138.529,1785.87 136.339,1786.98 134.405,1787.74 132.357,1788.33 130.481,1788.7 126.521,1789.01 71.6033,1789 67.9753,1788.67 64.6993,1787.92 62.5473,1787.15 60.6673,1786.26 58.8773,1785.21 56.8433,1783.74 55.3293,1782.4 53.6533,1780.6 52.2013,1778.69 50.9513,1776.65 49.9153,1774.48 49.0853,1772.17 48.5893,1770.21 48.2073,1767.73 48.0933,1765.71" style="stroke:rgb(0,0,0);stroke-width:1px;fill:none;stroke-opacity:1;stroke-linecap:round;stroke-linejoin:round;;fill:none"/>
<polyline points="300.473,1788.1 300.667,1785.99 301.065,1783.9 301.667,1781.87 302.467,1779.9 303.453,1778.02 304.583,1776.31 306.165,1774.38 307.903,1772.69 309.819,1771.2 311.951,1769.91 313.743,1769.06 316.097,1768.24 318.259,1767.74 322.363,1767.37 355.633,1767.5 357.799,1767.81 360.147,1768.41 362.411,1769.28 364.565,1770.39 366.525,1771.7 368.647,1773.52 370.479,1775.54 372.041,1777.77 373.309,1780.18 374.287,1782.8 374.827,1785.03 375.161,1787.8 375.141,1790.53 374.769,1793.3 374.199,1795.51 373.159,1798.18 372.081,1800.2 370.479,1802.49 368.647,1804.51 366.683,1806.19 363.759,1808.06 360.713,1809.4 357.495,1810.25 353.699,1810.65 322.631,1810.67 319.593,1810.5 317.635,1810.18 315.163,1809.5 313.313,1808.78 311.037,1807.6 309.321,1806.48 307.671,1805.14 306.159,1803.65 304.801,1802.02 303.609,1800.26 302.597,1798.4 301.769,1796.44 301.139,1794.42 300.711,1792.34 300.489,1790.23 300.473,1788.1" style="stroke:rgb(103,198,105);stroke-width:39.370079;fill:none;stroke-opacity:0.5;stroke-linecap:round;stroke-linejoin:round;;fill:none"/>
<polyline points="300.473,1788.1 300.667,1785.99 301.065,1783.9 301.667,1781.87 302.467,1779.9 303.453,1778.02 304.583,1776.31 306.165,1774.38 307.903,1772.69 309.819,1771.2 311.951,1769.91 313.743,1769.06 316.097,1768.24 318.259,1767.74 322.363,1767.37 355.633,1767.5 357.799,1767.81 360.147,1768.41 362.411,1769.28 364.565,1770.39 366.525,1771.7 368.647,1773.52 370.479,1775.54 372.041,1777.77 373.309,1780.18 374.287,1782.8 374.827,1785.03 375.161,1787.8 375.141,1790.53 374.769,1793.3 374.199,1795.51 373.159,1798.18 372.081,1800.2 370.479,1802.49 368.647,1804.51 366.683,1806.19 363.759,1808.06 360.713,1809.4 357.495,1810.25 353.699,1810.65 322.631,1810.67 319.593,1810.5 317.635,1810.18 315.163,1809.5 313.313,1808.78 311.037,1807.6 309.321,1806.48 307.671,1805.14 306.159,1803.65 304.801,1802.02 303.609,1800.26 302.597,1798.4 301.769,1796.44 301.139,1794.42 300.711,1792.34 300.489,1790.23 300.473,1788.1" style="stroke:rgb(0,0,0);stroke-width:1px;fill:none;stroke-opacity:1;stroke-linecap:round;stroke-linejoin:round;;fill:none"/>
<polyline points="1083.5,2211.33 1083.65,2212.87 1083.89,2213.7 1084.26,2214.39 1084.87,2215.12 1085.25,2215.43 1085.82,2215.75 1086.43,2215.97 1087.01,2216.08 1157.43,2216.18 1159.11,2215.99 1159.85,2215.75 1160.53,2215.36 1161.24,2214.74 1161.54,2214.35 1161.85,2213.77 1162.06,2213.15 1162.19,2212.33 1162.23,2141.91 1161.98,2140.09 1161.77,2139.59 1161.49,2139.13 1160.51,2138.22 1159.96,2137.86 1159.79,2137.78 1158.83,2137.53 1158.22,2137.46 1088.09,2137.45 1086.57,2137.64 1085.67,2137.95 1085.39,2138.11 1084.54,2138.83 1084.24,2139.21 1083.92,2139.78 1083.7,2140.4 1083.59,2141.06 1083.5,2211.33" style="stroke:rgb(103,198,105);stroke-width:39.370079;fill:none;stroke-opacity:0.5;stroke-linecap:round;stroke-linejoin:round;;fill:none"/>
<polyline points="1083.5,2211.33 1083.65,2212.87 1083.89,2213.7 1084.26,2214.39 1084.87,2215.12 1085.25,2215.43 1085.82,2215.75 1086.43,2215.97 1087.01,2216.08 1157.43,2216.18 1159.11,2215.99 1159.85,2215.75 1160.53,2215.36 1161.24,2214.74 1161.54,2214.35 1161.85,2213.77 1162.06,2213.15 1162.19,2212.33 1162.23,2141.91 1161.98,2140.09 1161.77,2139.59 1161.49,2139.13 1160.51,2138.22 1159.96,2137.86 1159.79,2137.78 1158.83,2137.53 1158.22,2137.46 1088.09,2137.45 1086.57,2137.64 1085.67,2137.95 1085.39,2138.11 1084.54,2138.83 1084.24,2139.21 1083.92,2139.78 1083.7,2140.4 1083.59,2141.06 1083.5,2211.33" style="stroke:rgb(0,0,0);stroke-width:1px;fill:none;stroke-opacity:1;stroke-linecap:round;stroke-linejoin:round;;fill:none"/>
<polyline points="1422.08,2872.87 1422.08,2613.03 1555.94,2613.03 1555.94,2872.87 1422.08,2872.87" style="stroke:rgb(103,198,105);stroke-width:39.370079;fill:none;stroke-opacity:0.5;stroke-linecap:round;stroke-linejoin:round;;fill:none"/>
<polyline points="1422.08,2872.87 1422.08,2613.03 1555.94,2613.03 1555.94,2872.87 1422.08,2872.87" style="stroke:rgb(0,0,0);stroke-width:1px;fill:none;stroke-opacity:1;stroke-linecap:round;stroke-linejoin:round;;fill:none"/>
<polyline points="1222.08,2872.87 1222.08,2613.03 1355.94,2613.03 1355.94,2872.87 1222.08,2872.87" style="stroke:rgb(103,198,105);stroke-width:39.370079;fill:none;stroke-opacity:0.5;stroke-linecap:round;stroke-linejoin:round;;fill:none"/>
<polyline points="1222.08,2872.87 1222.08,2613.03 1355.94,2613.03 1355.94,2872.87 1222.08,2872.87" style="stroke:rgb(0,0,0);stroke-width:1px;fill:none;stroke-opacity:1;stroke-linecap:round;stroke-linejoin:round;;fill:none"/>
<polyline points="1022.08,2872.87 1155.94,2872.87 1155.94,2613.03 1022.08,2613.03 1022.08,2872.87" style="stroke:rgb(103,198,105);stroke-width:39.370079;fill:none;stroke-opacity:0.5;stroke-linecap:round;stroke-linejoin:round;;fill:none"/>
<polyline points="1022.08,2872.87 1155.94,2872.87 1155.94,2613.03 1022.08,2613.03 1022.08,2872.87" style="stroke:rgb(0,0,0);stroke-width:1px;fill:none;stroke-opacity:1;stroke-linecap:round;stroke-linejoin:round;;fill:none"/>
<polyline points="1622.08,2872.87 1622.08,2613.03 1755.94,2613.03 1755.94,2872.87 1622.08,2872.87" style="stroke:rgb(103,198,105);stroke-width:39.370079;fill:none;stroke-opacity:0.5;stroke-linecap:round;stroke-linejoin:round;;fill:none"/>
<polyline points="1622.08,2872.87 1622.08,2613.03 1755.94,2613.03 1755.94,2872.87 1622.08,2872.87" style="stroke:rgb(0,0,0);stroke-width:1px;fill:none;stroke-opacity:1;stroke-linecap:round;stroke-linejoin:round;;fill:none"/>
<polyline points="1822.08,2872.87 1955.94,2872.87 1955.94,2613.03 1822.08,2613.03 1822.08,2872.87" style="stroke:rgb(103,198,105);stroke-width:39.370079;fill:none;stroke-opacity:0.5;stroke-linecap:round;stroke-linejoin:round;;fill:none"/>
<polyline points="1822.08,2872.87 1955.94,2872.87 1955.94,2613.03 1822.08,2613.03 1822.08,2872.87" style="stroke:rgb(0,0,0);stroke-width:1px;fill:none;stroke-opacity:1;stroke-linecap:round;stroke-linejoin:round;;fill:none"/>
<polyline points="422.083,1346.89 422.083,1087.04 555.943,1087.04 555.943,1346.89 422.083,1346.89" style="stroke:rgb(103,198,105);stroke-width:39.370079;fill:none;stroke-opacity:0.5;stroke-linecap:round;stroke-linejoin:round;;fill:none"/>
<polyline points="422.083,1346.89 422.083,1087.04 555.943,1087.04 555.943,1346.89 422.083,1346.89" style="stroke:rgb(0,0,0);stroke-width:1px;fill:none;stroke-opacity:1;stroke-linecap:round;stroke-linejoin:round;;fill:none"/>
<polyline points="22.0833,1346.89 22.0833,1087.04 155.943,1087.04 155.943,1346.89 22.0833,1346.89" style="stroke:rgb(103,198,105);stroke-width:39.370079;fill:none;stroke-opacity:0.5;stroke-linecap:round;stroke-linejoin:round;;fill:none"/>
<polyline points="22.0833,1346.89 22.0833,1087.04 155.943,1087.04 155.943,1346.89 22.0833,1346.89" style="stroke:rgb(0,0,0);stroke-width:1px;fill:none;stroke-opacity:1;stroke-linecap:round;stroke-linejoin:round;;fill:none"/>
<polyline points="222.083,1346.89 222.083,1087.04 355.943,1087.04 355.943,1346.89 222.083,1346.89" style="stroke:rgb(103,198,105);stroke-width:39.370079;fill:none;stroke-opacity:0.5;stroke-linecap:round;stroke-linejoin:round;;fill:none"/>
<polyline points="222.083,1346.89 222.083,1087.04 355.943,1087.04 355.943,1346.89 222.083,1346.89" style="stroke:rgb(0,0,0);stroke-width:1px;fill:none;stroke-opacity:1;stroke-linecap:round;stroke-linejoin:round;;fill:none"/>
<polyline points="622.083,1346.89 622.083,1087.04 755.943,1087.04 755.943,1346.89 622.083,1346.89" style="stroke:rgb(103,198,105);stroke-width:39.370079;fill:none;stroke-opacity:0.5;stroke-linecap:round;stroke-linejoin:round;;fill:none"/>
<polyline points="622.083,1346.89 622.083,1087.04 755.943,1087.04 755.943,1346.89 622.083,1346.89" style="stroke:rgb(0,0,0);stroke-width:1px;fill:none;stroke-opacity:1;stroke-linecap:round;stroke-linejoin:round;;fill:none"/>
<polyline points="822.083,1346.89 822.083,1087.04 955.943,1087.04 955.943,1346.89 822.083,1346.89" style="stroke:rgb(103,198,105);stroke-width:39.370079;fill:none;stroke-opacity:0.5;stroke-linecap:round;stroke-linejoin:round;;fill:none"/>
<polyline points="822.083,1346.89 822.083,1087.04 955.943,1087.04 955.943,1346.89 822.083,1346.89" style="stroke:rgb(0,0,0);stroke-width:1px;fill:none;stroke-opacity:1;stroke-linecap:round;stroke-linejoin:round;;fill:none"/>
<polyline points="1422.08,1346.89 1422.08,1087.04 1555.94,1087.04 1555.94,1346.89 1422.08,1346.89" style="stroke:rgb(103,198,105);stroke-width:39.370079;fill:none;stroke-opacity:0.5;stroke-linecap:round;stroke-linejoin:round;;fill:none"/>
<polyline points="1422.08,1346.89 1422.08,1087.04 1555.94,1087.04 1555.94,1346.89 1422.08,1346.89" style="stroke:rgb(0,0,0);stroke-width:1px;fill:none;stroke-opacity:1;stroke-linecap:round;stroke-linejoin:round;;fill:none"/>
<polyline points="1022.08,1346.89 1022.08,1087.04 1155.94,1087.04 1155.94,1346.89 1022.08,1346.89" style="stroke:rgb(103,198,105);stroke-width:39.370079;fill:none;stroke-opacity:0.5;stroke-linecap:round;stroke-linejoin:round;;fill:none"/>
<polyline points="1022.08,1346.89 1022.08,1087.04 1155.94,1087.04 1155.94,1346.89 1022.08,1346.89" style="stroke:rgb(0,0,0);stroke-width:1px;fill:none;stroke-opacity:1;stroke-linecap:round;stroke-linejoin:round;;fill:none"/>
<polyline points="1222.08,1346.89 1222.08,1087.04 1355.94,1087.04 1355.94,1346.89 1222.08,1346.89" style="stroke:rgb(103,198,105);stroke-width:39.370079;fill:none;stroke-opacity:0.5;stroke-linecap:round;stroke-linejoin:round;;fill:none"/>
<polyline points="1222.08,1346.89 1222.08,1087.04 1355.94,1087.04 1355.94,1346.89 1222.08,1346.89" style="stroke:rgb(0,0,0);stroke-width:1px;fill:none;stroke-opacity:1;stroke-linecap:round;stroke-linejoin:round;;fill:none"/>
<polyline points="1622.08,1346.89 1622.08,1087.04 1755.94,1087.04 1755.94,1346.89 1622.08,1346.89" style="stroke:rgb(103,198,105);stroke-width:39.370079;fill:none;stroke-opacity:0.5;stroke-linecap:round;stroke-linejoin:round;;fill:none"/>
<polyline points="1622.08,1346.89 1622.08,1087.04 1755.94,1087.04 1755.94,1346.89 1622.08,1346.89" style="stroke:rgb(0,0,0);stroke-width:1px;fill:none;stroke-opacity:1;stroke-linecap:round;stroke-linejoin:round;;fill:none"/>
<polyline points="1822.08,1346.89 1822.08,1087.04 1955.94,1087.04 1955.94,1346.89 1822.08,1346.89" style="stroke:rgb(103,198,105);stroke-width:39.370079;fill:none;stroke-opacity:0.5;stroke-linecap:round;stroke-linejoin:round;;fill:none"/>
<polyline points="1822.08,1346.89 1822.08,1087.04 1955.94,1087.04 1955.94,1346.89 1822.08,1346.89" style="stroke:rgb(0,0,0);stroke-width:1px;fill:none;stroke-opacity:1;stroke-linecap:round;stroke-linejoin:round;;fill:none"/>
<polyline points="1713.84,1006.54 1713.96,958.236 1714.82,958.112 1811.83,958.144 1812.01,958.174 1812.17,958.236 1812.19,958.254 1812.22,958.502 1812.18,1007.13 1812.15,1007.18 1811.24,1007.32 1714.43,1007.28 1713.95,1007.19 1713.84,1006.54" style="stroke:rgb(103,198,105);stroke-width:39.370079;fill:none;stroke-opacity:0.5;stroke-linecap:round;stroke-linejoin:round;;fill:none"/>
<polyline points="1713.84,1006.54 1713.96,958.236 1714.82,958.112 1811.83,958.144 1812.01,958.174 1812.17,958.236 1812.19,958.254 1812.22,958.502 1812.18,1007.13 1812.15,1007.18 1811.24,1007.32 1714.43,1007.28 1713.95,1007.19 1713.84,1006.54" style="stroke:rgb(0,0,0);stroke-width:1px;fill:none;stroke-opacity:1;stroke-linecap:round;stroke-linejoin:round;;fill:none"/>
<polyline points="1713.84,776.222 1713.96,727.92 1714.82,727.796 1811.83,727.828 1812.01,727.858 1812.17,727.922 1812.19,727.94 1812.22,728.186 1812.18,776.812 1812.15,776.87 1811.24,777 1714.43,776.968 1713.95,776.88 1713.84,776.222" style="stroke:rgb(103,198,105);stroke-width:39.370079;fill:none;stroke-opacity:0.5;stroke-linecap:round;stroke-linejoin:round;;fill:none"/>
<polyline points="1713.84,776.222 1713.96,727.92 1714.82,727.796 1811.83,727.828 1812.01,727.858 1812.17,727.922 1812.19,727.94 1812.22,728.186 1812.18,776.812 1812.15,776.87 1811.24,777 1714.43,776.968 1713.95,776.88 1713.84,776.222" style="stroke:rgb(0,0,0);stroke-width:1px;fill:none;stroke-opacity:1;stroke-linecap:round;stroke-linejoin:round;;fill:none"/>
<polyline points="2422.08,2872.87 2422.08,2613.03 2555.94,2613.03 2555.94,2872.87 2422.08,2872.87" style="stroke:rgb(103,198,105);stroke-width:39.370079;fill:none;stroke-opacity:0.5;stroke-linecap:round;stroke-linejoin:round;;fill:none"/>
<polyline points="2422.08,2872.87 2422.08,2613.03 2555.94,2613.03 2555.94,2872.87 2422.08,2872.87" style="stroke:rgb(0,0,0);stroke-width:1px;fill:none;stroke-opacity:1;stroke-linecap:round;stroke-linejoin:round;;fill:none"/>
<polyline points="2222.08,2872.87 2222.08,2613.03 2355.94,2613.03 2355.94,2872.87 2222.08,2872.87" style="stroke:rgb(103,198,105);stroke-width:39.370079;fill:none;stroke-opacity:0.5;stroke-linecap:round;stroke-linejoin:round;;fill:none"/>
<polyline points="2222.08,2872.87 2222.08,2613.03 2355.94,2613.03 2355.94,2872.87 2222.08,2872.87" style="stroke:rgb(0,0,0);stroke-width:1px;fill:none;stroke-opacity:1;stroke-linecap:round;stroke-linejoin:round;;fill:none"/>
<polyline points="2022.08,2872.87 2155.94,2872.87 2155.94,2613.03 2022.08,2613.03 2022.08,2872.87" style="stroke:rgb(103,198,105);stroke-width:39.370079;fill:none;stroke-opacity:0.5;stroke-linecap:round;stroke-linejoin:round;;fill:none"/>
<polyline points="2022.08,2872.87 2155.94,2872.87 2155.94,2613.03 2022.08,2613.03 2022.08,2872.87" style="stroke:rgb(0,0,0);stroke-width:1px;fill:none;stroke-opacity:1;stroke-linecap:round;stroke-linejoin:round;;fill:none"/>
<polyline points="2622.08,2872.87 2622.08,2613.03 2755.94,2613.03 2755.94,2872.87 2622.08,2872.87" style="stroke:rgb(103,198,105);stroke-width:39.370079;fill:none;stroke-opacity:0.5;stroke-linecap:round;stroke-linejoin:round;;fill:none"/>
<polyline points="2622.08,2872.87 2622.08,2613.03 2755.94,2613.03 2755.94,2872.87 2622.08,2872.87" style="stroke:rgb(0,0,0);stroke-width:1px;fill:none;stroke-opacity:1;stroke-linecap:round;stroke-linejoin:round;;fill:none"/>
<polyline points="2822.08,2872.87 2955.94,2872.87 2955.94,2613.03 2822.08,2613.03 2822.08,2872.87" style="stroke:rgb(103,198,105);stroke-width:39.370079;fill:none;stroke-opacity:0.5;stroke-linecap:round;stroke-linejoin:round;;fill:none"/>
<polyline points="2822.08,2872.87 2955.94,2872.87 2955.94,2613.03 2822.08,2613.03 2822.08,2872.87" style="stroke:rgb(0,0,0);stroke-width:1px;fill:none;stroke-opacity:1;stroke-linecap:round;stroke-linejoin:round;;fill:none"/>
<polyline points="2395.52,1976.25 2480.13,1976.28 2480.15,1891.66 2395.52,1891.65 2395.52,1976.25" style="stroke:rgb(103,198,105);stroke-width:39.370079;fill:none;stroke-opacity:0.5;stroke-linecap:round;stroke-linejoin:round;;fill:none"/>
<polyline points="2395.52,1976.25 2480.13,1976.28 2480.15,1891.66 2395.52,1891.65 2395.52,1976.25" style="stroke:rgb(0,0,0);stroke-width:1px;fill:none;stroke-opacity:1;stroke-linecap:round;stroke-linejoin:round;;fill:none"/>
<polyline points="2395.54,1733.9 2395.71,1730.21 2396.35,1725.75 2397.22,1722.16 2398.71,1717.91 2400.26,1714.55 2402.5,1710.73 2405.13,1707.15 2407.64,1704.35 2410.39,1701.79 2413.96,1699.05 2417.11,1697.1 2421.08,1695.14 2425.24,1693.59 2428.82,1692.65 2433.2,1691.93 2437.62,1691.67 2441.32,1691.82 2445.78,1692.43 2449.38,1693.28 2453.57,1694.72 2457.54,1696.55 2461.35,1698.82 2464.33,1701.01 2467.64,1703.97 2470.62,1707.25 2472.83,1710.22 2475.15,1714.07 2476.78,1717.46 2478.09,1720.99 2479.22,1725.28 2479.9,1729.6 2480.12,1734.03 2479.96,1737.72 2479.32,1742.18 2478.44,1745.77 2476.96,1750.02 2475.41,1753.38 2473.16,1757.2 2470.54,1760.78 2468.03,1763.58 2465.27,1766.15 2461.7,1768.88 2458.56,1770.83 2454.58,1772.8 2450.42,1774.34 2446.85,1775.29 2442.47,1776 2438.04,1776.26 2434.35,1776.11 2429.95,1775.51 2425.64,1774.46 2422.15,1773.24 2418.12,1771.38 2414.31,1769.11 2411.33,1766.92 2408.03,1763.96 2405.05,1760.68 2402.84,1757.71 2400.51,1753.86 2398.89,1750.47 2397.58,1746.94 2396.45,1742.65 2395.77,1738.33 2395.54,1733.9" style="stroke:rgb(103,198,105);stroke-width:39.370079;fill:none;stroke-opacity:0.5;stroke-linecap:round;stroke-linejoin:round;;fill:none"/>
<polyline points="2395.54,1733.9 2395.71,1730.21 2396.35,1725.75 2397.22,1722.16 2398.71,1717.91 2400.26,1714.55 2402.5,1710.73 2405.13,1707.15 2407.64,1704.35 2410.39,1701.79 2413.96,1699.05 2417.11,1697.1 2421.08,1695.14 2425.24,1693.59 2428.82,1692.65 2433.2,1691.93 2437.62,1691.67 2441.32,1691.82 2445.78,1692.43 2449.38,1693.28 2453.57,1694.72 2457.54,1696.55 2461.35,1698.82 2464.33,1701.01 2467.64,1703.97 2470.62,1707.25 2472.83,1710.22 2475.15,1714.07 2476.78,1717.46 2478.09,1720.99 2479.22,1725.28 2479.9,1729.6 2480.12,1734.03 2479.96,1737.72 2479.32,1742.18 2478.44,1745.77 2476.96,1750.02 2475.41,1753.38 2473.16,1757.2 2470.54,1760.78 2468.03,1763.58 2465.27,1766.15 2461.7,1768.88 2458.56,1770.83 2454.58,1772.8 2450.42,1774.34 2446.85,1775.29 2442.47,1776 2438.04,1776.26 2434.35,1776.11 2429.95,1775.51 2425.64,1774.46 2422.15,1773.24 2418.12,1771.38 2414.31,1769.11 2411.33,1766.92 2408.03,1763.96 2405.05,1760.68 2402.84,1757.71 2400.51,1753.86 2398.89,1750.47 2397.58,1746.94 2396.45,1742.65 2395.77,1738.33 2395.54,1733.9" style="stroke:rgb(0,0,0);stroke-width:1px;fill:none;stroke-opacity:1;stroke-linecap:round;stroke-linejoin:round;;fill:none"/>
<polyline points="2395.54,1533.9 2395.71,1530.21 2396.35,1525.75 2397.22,1522.16 2398.71,1517.91 2400.26,1514.55 2402.5,1510.73 2405.13,1507.15 2407.64,1504.35 2410.39,1501.79 2413.96,1499.05 2417.11,1497.1 2421.14,1495.11 2424.6,1493.8 2428.88,1492.64 2433.2,1491.93 2437.62,1491.67 2441.32,1491.82 2445.78,1492.43 2449.38,1493.28 2453.57,1494.72 2457.54,1496.55 2461.35,1498.82 2464.33,1501.01 2467.64,1503.97 2470.62,1507.25 2472.83,1510.22 2475.15,1514.07 2476.78,1517.46 2478.09,1520.99 2479.22,1525.28 2479.9,1529.6 2480.12,1534.03 2479.96,1537.72 2479.32,1542.18 2478.44,1545.77 2476.96,1550.02 2475.41,1553.38 2473.16,1557.2 2470.54,1560.78 2468.03,1563.58 2465.27,1566.15 2461.7,1568.88 2458.56,1570.83 2454.53,1572.82 2451.07,1574.13 2446.79,1575.3 2442.47,1576 2438.04,1576.26 2434.35,1576.11 2429.89,1575.5 2426.29,1574.65 2422.09,1573.22 2418.12,1571.38 2414.31,1569.11 2411.33,1566.92 2408.03,1563.96 2405.05,1560.68 2402.84,1557.71 2400.51,1553.86 2398.89,1550.47 2397.58,1546.94 2396.45,1542.65 2395.77,1538.33 2395.54,1533.9" style="stroke:rgb(103,198,105);stroke-width:39.370079;fill:none;stroke-opacity:0.5;stroke-linecap:round;stroke-linejoin:round;;fill:none"/>
<polyline points="2395.54,1533.9 2395.71,1530.21 2396.35,1525.75 2397.22,1522.16 2398.71,1517.91 2400.26,1514.55 2402.5,1510.73 2405.13,1507.15 2407.64,1504.35 2410.39,1501.79 2413.96,1499.05 2417.11,1497.1 2421.14,1495.11 2424.6,1493.8 2428.88,1492.64 2433.2,1491.93 2437.62,1491.67 2441.32,1491.82 2445.78,1492.43 2449.38,1493.28 2453.57,1494.72 2457.54,1496.55 2461.35,1498.82 2464.33,1501.01 2467.64,1503.97 2470.62,1507.25 2472.83,1510.22 2475.15,1514.07 2476.78,1517.46 2478.09,1520.99 2479.22,1525.28 2479.9,1529.6 2480.12,1534.03 2479.96,1537.72 2479.32,1542.18 2478.44,1545.77 2476.96,1550.02 2475.41,1553.38 2473.16,1557.2 2470.54,1560.78 2468.03,1563.58 2465.27,1566.15 2461.7,1568.88 2458.56,1570.83 2454.53,1572.82 2451.07,1574.13 2446.79,1575.3 2442.47,1576 2438.04,1576.26 2434.35,1576.11 2429.89,1575.5 2426.29,1574.65 2422.09,1573.22 2418.12,1571.38 2414.31,1569.11 2411.33,1566.92 2408.03,1563.96 2405.05,1560.68 2402.84,1557.71 2400.51,1553.86 2398.89,1550.47 2397.58,1546.94 2396.45,1542.65 2395.77,1538.33 2395.54,1533.9" style="stroke:rgb(0,0,0);stroke-width:1px;fill:none;stroke-opacity:1;stroke-linecap:round;stroke-linejoin:round;;fill:none"/>
<polyline points="3422.08,2872.87 3422.08,2613.03 3555.94,2613.03 3555.94,2872.87 3422.08,2872.87" style="stroke:rgb(103,198,105);stroke-width:39.370079;fill:none;stroke-opacity:0.5;stroke-linecap:round;stroke-linejoin:round;;fill:none"/>
<polyline points="3422.08,2872.87 3422.08,2613.03 3555.94,2613.03 3555.94,2872.87 3422.08,2872.87" style="stroke:rgb(0,0,0);stroke-width:1px;fill:none;stroke-opacity:1;stroke-linecap:round;stroke-linejoin:round;;fill:none"/>
<polyline points="3222.08,2872.87 3222.08,2613.03 3355.94,2613.03 3355.94,2872.87 3222.08,2872.87" style="stroke:rgb(103,198,105);stroke-width:39.370079;fill:none;stroke-opacity:0.5;stroke-linecap:round;stroke-linejoin:round;;fill:none"/>
<polyline points="3222.08,2872.87 3222.08,2613.03 3355.94,2613.03 3355.94,2872.87 3222.08,2872.87" style="stroke:rgb(0,0,0);stroke-width:1px;fill:none;stroke-opacity:1;stroke-linecap:round;stroke-linejoin:round;;fill:none"/>
<polyline points="3022.08,2872.87 3155.94,2872.87 3155.94,2613.03 3022.08,2613.03 3022.08,2872.87" style="stroke:rgb(103,198,105);stroke-width:39.370079;fill:none;stroke-opacity:0.5;stroke-linecap:round;stroke-linejoin:round;;fill:none"/>
<polyline points="3022.08,2872.87 3155.94,2872.87 3155.94,2613.03 3022.08,2613.03 3022.08,2872.87" style="stroke:rgb(0,0,0);stroke-width:1px;fill:none;stroke-opacity:1;stroke-linecap:round;stroke-linejoin:round;;fill:none"/>
<polyline points="3622.08,2872.87 3622.08,2613.03 3755.94,2613.03 3755.94,2872.87 3622.08,2872.87" style="stroke:rgb(103,198,105);stroke-width:39.370079;fill:none;stroke-opacity:0.5;stroke-linecap:round;stroke-linejoin:round;;fill:none"/>
<polyline points="3622.08,2872.87 3622.08,2613.03 3755.94,2613.03 3755.94,2872.87 3622.08,2872.87" style="stroke:rgb(0,0,0);stroke-width:1px;fill:none;stroke-opacity:1;stroke-linecap:round;stroke-linejoin:round;;fill:none"/>
<polyline points="3822.08,2872.87 3955.94,2872.87 3955.94,2613.03 3822.08,2613.03 3822.08,2872.87" style="stroke:rgb(103,198,105);stroke-width:39.370079;fill:none;stroke-opacity:0.5;stroke-linecap:round;stroke-linejoin:round;;fill:none"/>
<polyline points="3822.08,2872.87 3955.94,2872.87 3955.94,2613.03 3822.08,2613.03 3822.08,2872.87" style="stroke:rgb(0,0,0);stroke-width:1px;fill:none;stroke-opacity:1;stroke-linecap:round;stroke-linejoin:round;;fill:none"/>
<polyline points="2422.08,1346.89 2422.08,1087.04 2555.94,1087.04 2555.94,1346.89 2422.08,1346.89" style="stroke:rgb(103,198,105);stroke-width:39.370079;fill:none;stroke-opacity:0.5;stroke-linecap:round;stroke-linejoin:round;;fill:none"/>
<polyline points="2422.08,1346.89 2422.08,1087.04 2555.94,1087.04 2555.94,1346.89 2422.08,1346.89" style="stroke:rgb(0,0,0);stroke-width:1px;fill:none;stroke-opacity:1;stroke-linecap:round;stroke-linejoin:round;;fill:none"/>
<polyline points="2022.08,1346.89 2022.08,1087.04 2155.94,1087.04 2155.94,1346.89 2022.08,1346.89" style="stroke:rgb(103,198,105);stroke-width:39.370079;fill:none;stroke-opacity:0.5;stroke-linecap:round;stroke-linejoin:round;;fill:none"/>
<polyline points="2022.08,1346.89 2022.08,1087.04 2155.94,1087.04 2155.94,1346.89 2022.08,1346.89" style="stroke:rgb(0,0,0);stroke-width:1px;fill:none;stroke-opacity:1;stroke-linecap:round;stroke-linejoin:round;;fill:none"/>
<polyline points="2222.08,1346.89 2222.08,1087.04 2355.94,1087.04 2355.94,1346.89 2222.08,1346.89" style="stroke:rgb(103,198,105);stroke-width:39.370079;fill:none;stroke-opacity:0.5;stroke-linecap:round;stroke-linejoin:round;;fill:none"/>
<polyline points="2222.08,1346.89 2222.08,1087.04 2355.94,1087.04 2355.94,1346.89 2222.08,1346.89" style="stroke:rgb(0,0,0);stroke-width:1px;fill:none;stroke-opacity:1;stroke-linecap:round;stroke-linejoin:round;;fill:none"/>
<polyline points="2166.59,934.668 2166.64,837.46 2166.7,837.176 2167.56,837.052 2215.55,837.142 2215.66,837.166 2215.77,837.852 2215.77,934.864 2215.71,935.244 2215.68,935.34 2215.19,935.43 2166.8,935.37 2166.7,935.348 2166.59,934.668" style="stroke:rgb(103,198,105);stroke-width:39.370079;fill:none;stroke-opacity:0.5;stroke-linecap:round;stroke-linejoin:round;;fill:none"/>
<polyline points="2166.59,934.668 2166.64,837.46 2166.7,837.176 2167.56,837.052 2215.55,837.142 2215.66,837.166 2215.77,837.852 2215.77,934.864 2215.71,935.244 2215.68,935.34 2215.19,935.43 2166.8,935.37 2166.7,935.348 2166.59,934.668" style="stroke:rgb(0,0,0);stroke-width:1px;fill:none;stroke-opacity:1;stroke-linecap:round;stroke-linejoin:round;;fill:none"/>
<polyline points="2396.91,934.668 2396.95,837.46 2397.01,837.176 2397.88,837.052 2445.87,837.142 2445.97,837.166 2446.08,837.852 2446.08,934.864 2446.03,935.244 2445.99,935.34 2445.5,935.43 2397.11,935.37 2397.02,935.348 2396.91,934.668" style="stroke:rgb(103,198,105);stroke-width:39.370079;fill:none;stroke-opacity:0.5;stroke-linecap:round;stroke-linejoin:round;;fill:none"/>
<polyline points="2396.91,934.668 2396.95,837.46 2397.01,837.176 2397.88,837.052 2445.87,837.142 2445.97,837.166 2446.08,837.852 2446.08,934.864 2446.03,935.244 2445.99,935.34 2445.5,935.43 2397.11,935.37 2397.02,935.348 2396.91,934.668" style="stroke:rgb(0,0,0);stroke-width:1px;fill:none;stroke-opacity:1;stroke-linecap:round;stroke-linejoin:round;;fill:none"/>
<polyline points="2622.08,1346.89 2622.08,1087.04 2755.94,1087.04 2755.94,1346.89 2622.08,1346.89" style="stroke:rgb(103,198,105);stroke-width:39.370079;fill:none;stroke-opacity:0.5;stroke-linecap:round;stroke-linejoin:round;;fill:none"/>
<polyline points="2622.08,1346.89 2622.08,1087.04 2755.94,1087.04 2755.94,1346.89 2622.08,1346.89" style="stroke:rgb(0,0,0);stroke-width:1px;fill:none;stroke-opacity:1;stroke-linecap:round;stroke-linejoin:round;;fill:none"/>
<polyline points="2822.08,1346.89 2822.08,1087.04 2955.94,1087.04 2955.94,1346.89 2822.08,1346.89" style="stroke:rgb(103,198,105);stroke-width:39.370079;fill:none;stroke-opacity:0.5;stroke-linecap:round;stroke-linejoin:round;;fill:none"/>
<polyline points="2822.08,1346.89 2822.08,1087.04 2955.94,1087.04 2955.94,1346.89 2822.08,1346.89" style="stroke:rgb(0,0,0);stroke-width:1px;fill:none;stroke-opacity:1;stroke-linecap:round;stroke-linejoin:round;;fill:none"/>
<polyline points="2754.76,819.84 2754.76,739.132 2766.57,739.132 2766.57,819.84 2754.76,819.84" style="stroke:rgb(103,198,105);stroke-width:39.370079;fill:none;stroke-opacity:0.5;stroke-linecap:round;stroke-linejoin:round;;fill:none"/>
<polyline points="2754.76,819.84 2754.76,739.132 2766.57,739.132 2766.57,819.84 2754.76,819.84" style="stroke:rgb(0,0,0);stroke-width:1px;fill:none;stroke-opacity:1;stroke-linecap:round;stroke-linejoin:round;;fill:none"/>
<polyline points="2554.76,819.84 2554.76,739.132 2566.57,739.132 2566.57,819.84 2554.76,819.84" style="stroke:rgb(103,198,105);stroke-width:39.370079;fill:none;stroke-opacity:0.5;stroke-linecap:round;stroke-linejoin:round;;fill:none"/>
<polyline points="2554.76,819.84 2554.76,739.132 2566.57,739.132 2566.57,819.84 2554.76,819.84" style="stroke:rgb(0,0,0);stroke-width:1px;fill:none;stroke-opacity:1;stroke-linecap:round;stroke-linejoin:round;;fill:none"/>
<polyline points="2654.76,819.84 2654.76,739.132 2666.57,739.132 2666.57,819.84 2654.76,819.84" style="stroke:rgb(103,198,105);stroke-width:39.370079;fill:none;stroke-opacity:0.5;stroke-linecap:round;stroke-linejoin:round;;fill:none"/>
<polyline points="2654.76,819.84 2654.76,739.132 2666.57,739.132 2666.57,819.84 2654.76,819.84" style="stroke:rgb(0,0,0);stroke-width:1px;fill:none;stroke-opacity:1;stroke-linecap:round;stroke-linejoin:round;;fill:none"/>
<polyline points="2854.76,819.84 2854.76,739.132 2866.57,739.132 2866.57,819.84 2854.76,819.84" style="stroke:rgb(103,198,105);stroke-width:39.370079;fill:none;stroke-opacity:0.5;stroke-linecap:round;stroke-linejoin:round;;fill:none"/>
<polyline points="2854.76,819.84 2854.76,739.132 2866.57,739.132 2866.57,819.84 2854.76,819.84" style="stroke:rgb(0,0,0);stroke-width:1px;fill:none;stroke-opacity:1;stroke-linecap:round;stroke-linejoin:round;;fill:none"/>
<polyline points="2294.53,356.73 2365.39,356.73 2365.39,329.17 2294.53,329.17 2294.53,356.73" style="stroke:rgb(103,198,105);stroke-width:39.370079;fill:none;stroke-opacity:0.5;stroke-linecap:round;stroke-linejoin:round;;fill:none"/>
<polyline points="2294.53,356.73 2365.39,356.73 2365.39,329.17 2294.53,329.17 2294.53,356.73" style="stroke:rgb(0,0,0);stroke-width:1px;fill:none;stroke-opacity:1;stroke-linecap:round;stroke-linejoin:round;;fill:none"/>
<polyline points="2176.43,627.58 2176.48,530.372 2176.54,530.088 2177.4,529.964 2225.4,530.056 2225.5,530.08 2225.61,530.764 2225.61,627.778 2225.56,628.158 2225.52,628.254 2225.03,628.344 2176.64,628.284 2176.54,628.262 2176.43,627.58" style="stroke:rgb(103,198,105);stroke-width:39.370079;fill:none;stroke-opacity:0.5;stroke-linecap:round;stroke-linejoin:round;;fill:none"/>
<polyline points="2176.43,627.58 2176.48,530.372 2176.54,530.088 2177.4,529.964 2225.4,530.056 2225.5,530.08 2225.61,530.764 2225.61,627.778 2225.56,628.158 2225.52,628.254 2225.03,628.344 2176.64,628.284 2176.54,628.262 2176.43,627.58" style="stroke:rgb(0,0,0);stroke-width:1px;fill:none;stroke-opacity:1;stroke-linecap:round;stroke-linejoin:round;;fill:none"/>
<polyline points="2294.53,49.6423 2294.53,22.0843 2365.39,22.0843 2365.39,49.6423 2294.53,49.6423" style="stroke:rgb(103,198,105);stroke-width:39.370079;fill:none;stroke-opacity:0.5;stroke-linecap:round;stroke-linejoin:round;;fill:none"/>
<polyline points="2294.53,49.6423 2294.53,22.0843 2365.39,22.0843 2365.39,49.6423 2294.53,49.6423" style="stroke:rgb(0,0,0);stroke-width:1px;fill:none;stroke-opacity:1;stroke-linecap:round;stroke-linejoin:round;;fill:none"/>
<polyline points="2854.76,392.754 2866.57,392.754 2866.57,312.044 2854.76,312.044 2854.76,392.754" style="stroke:rgb(103,198,105);stroke-width:39.370079;fill:none;stroke-opacity:0.5;stroke-linecap:round;stroke-linejoin:round;;fill:none"/>
<polyline points="2854.76,392.754 2866.57,392.754 2866.57,312.044 2854.76,312.044 2854.76,392.754" style="stroke:rgb(0,0,0);stroke-width:1px;fill:none;stroke-opacity:1;stroke-linecap:round;stroke-linejoin:round;;fill:none"/>
<polyline points="2754.76,392.754 2766.57,392.754 2766.57,312.044 2754.76,312.044 2754.76,392.754" style="stroke:rgb(103,198,105);stroke-width:39.370079;fill:none;stroke-opacity:0.5;stroke-linecap:round;stroke-linejoin:round;;fill:none"/>
<polyline points="2754.76,392.754 2766.57,392.754 2766.57,312.044 2754.76,312.044 2754.76,392.754" style="stroke:rgb(0,0,0);stroke-width:1px;fill:none;stroke-opacity:1;stroke-linecap:round;stroke-linejoin:round;;fill:none"/>
<polyline points="2654.76,392.754 2666.57,392.754 2666.57,312.044 2654.76,312.044 2654.76,392.754" style="stroke:rgb(103,198,105);stroke-width:39.370079;fill:none;stroke-opacity:0.5;stroke-linecap:round;stroke-linejoin:round;;fill:none"/>
<polyline points="2654.76,392.754 2666.57,392.754 2666.57,312.044 2654.76,312.044 2654.76,392.754" style="stroke:rgb(0,0,0);stroke-width:1px;fill:none;stroke-opacity:1;stroke-linecap:round;stroke-linejoin:round;;fill:none"/>
<polyline points="2554.76,392.754 2566.57,392.754 2566.57,312.044 2554.76,312.044 2554.76,392.754" style="stroke:rgb(103,198,105);stroke-width:39.370079;fill:none;stroke-opacity:0.5;stroke-linecap:round;stroke-linejoin:round;;fill:none"/>
<polyline points="2554.76,392.754 2566.57,392.754 2566.57,312.044 2554.76,312.044 2554.76,392.754" style="stroke:rgb(0,0,0);stroke-width:1px;fill:none;stroke-opacity:1;stroke-linecap:round;stroke-linejoin:round;;fill:none"/>
<polyline points="3475.65,872.084 3475.69,821.716 3475.75,821.428 3476.63,821.3 3577.38,821.332 3577.86,821.422 3577.97,822.08 3577.85,872.348 3576.99,872.472 3476.24,872.442 3475.7,872.342 3475.67,872.308 3475.65,872.084" style="stroke:rgb(103,198,105);stroke-width:39.370079;fill:none;stroke-opacity:0.5;stroke-linecap:round;stroke-linejoin:round;;fill:none"/>
<polyline points="3475.65,872.084 3475.69,821.716 3475.75,821.428 3476.63,821.3 3577.38,821.332 3577.86,821.422 3577.97,822.08 3577.85,872.348 3576.99,872.472 3476.24,872.442 3475.7,872.342 3475.67,872.308 3475.65,872.084" style="stroke:rgb(0,0,0);stroke-width:1px;fill:none;stroke-opacity:1;stroke-linecap:round;stroke-linejoin:round;;fill:none"/>
<polyline points="3422.08,1346.89 3422.08,1087.04 3555.94,1087.04 3555.94,1346.89 3422.08,1346.89" style="stroke:rgb(103,198,105);stroke-width:39.370079;fill:none;stroke-opacity:0.5;stroke-linecap:round;stroke-linejoin:round;;fill:none"/>
<polyline points="3422.08,1346.89 3422.08,1087.04 3555.94,1087.04 3555.94,1346.89 3422.08,1346.89" style="stroke:rgb(0,0,0);stroke-width:1px;fill:none;stroke-opacity:1;stroke-linecap:round;stroke-linejoin:round;;fill:none"/>
<polyline points="3022.08,1346.89 3022.08,1087.04 3155.94,1087.04 3155.94,1346.89 3022.08,1346.89" style="stroke:rgb(103,198,105);stroke-width:39.370079;fill:none;stroke-opacity:0.5;stroke-linecap:round;stroke-linejoin:round;;fill:none"/>
<polyline points="3022.08,1346.89 3022.08,1087.04 3155.94,1087.04 3155.94,1346.89 3022.08,1346.89" style="stroke:rgb(0,0,0);stroke-width:1px;fill:none;stroke-opacity:1;stroke-linecap:round;stroke-linejoin:round;;fill:none"/>
<polyline points="3222.08,1346.89 3222.08,1087.04 3355.94,1087.04 3355.94,1346.89 3222.08,1346.89" style="stroke:rgb(103,198,105);stroke-width:39.370079;fill:none;stroke-opacity:0.5;stroke-linecap:round;stroke-linejoin:round;;fill:none"/>
<polyline points="3222.08,1346.89 3222.08,1087.04 3355.94,1087.04 3355.94,1346.89 3222.08,1346.89" style="stroke:rgb(0,0,0);stroke-width:1px;fill:none;stroke-opacity:1;stroke-linecap:round;stroke-linejoin:round;;fill:none"/>
<polyline points="3094.98,907.384 3094.98,868.558 3095.04,868.278 3095.92,868.152 3169.11,868.182 3169.59,868.272 3169.7,868.924 3169.58,907.388 3168.72,907.512 3095.33,907.48 3095.06,907.438 3094.98,907.384" style="stroke:rgb(103,198,105);stroke-width:39.370079;fill:none;stroke-opacity:0.5;stroke-linecap:round;stroke-linejoin:round;;fill:none"/>
<polyline points="3094.98,907.384 3094.98,868.558 3095.04,868.278 3095.92,868.152 3169.11,868.182 3169.59,868.272 3169.7,868.924 3169.58,907.388 3168.72,907.512 3095.33,907.48 3095.06,907.438 3094.98,907.384" style="stroke:rgb(0,0,0);stroke-width:1px;fill:none;stroke-opacity:1;stroke-linecap:round;stroke-linejoin:round;;fill:none"/>
<polyline points="3094.98,757.778 3094.98,718.95 3095.04,718.672 3095.92,718.546 3169.11,718.576 3169.59,718.666 3169.7,719.318 3169.58,757.782 3168.72,757.906 3095.33,757.874 3095.06,757.83 3094.98,757.778" style="stroke:rgb(103,198,105);stroke-width:39.370079;fill:none;stroke-opacity:0.5;stroke-linecap:round;stroke-linejoin:round;;fill:none"/>
<polyline points="3094.98,757.778 3094.98,718.95 3095.04,718.672 3095.92,718.546 3169.11,718.576 3169.59,718.666 3169.7,719.318 3169.58,757.782 3168.72,757.906 3095.33,757.874 3095.06,757.83 3094.98,757.778" style="stroke:rgb(0,0,0);stroke-width:1px;fill:none;stroke-opacity:1;stroke-linecap:round;stroke-linejoin:round;;fill:none"/>
<polyline points="3622.08,1346.89 3622.08,1087.04 3755.94,1087.04 3755.94,1346.89 3622.08,1346.89" style="stroke:rgb(103,198,105);stroke-width:39.370079;fill:none;stroke-opacity:0.5;stroke-linecap:round;stroke-linejoin:round;;fill:none"/>
<polyline points="3622.08,1346.89 3622.08,1087.04 3755.94,1087.04 3755.94,1346.89 3622.08,1346.89" style="stroke:rgb(0,0,0);stroke-width:1px;fill:none;stroke-opacity:1;stroke-linecap:round;stroke-linejoin:round;;fill:none"/>
<polyline points="3822.08,1346.89 3822.08,1087.04 3955.94,1087.04 3955.94,1346.89 3822.08,1346.89" style="stroke:rgb(103,198,105);stroke-width:39.370079;fill:none;stroke-opacity:0.5;stroke-linecap:round;stroke-linejoin:round;;fill:none"/>
<polyline points="3822.08,1346.89 3822.08,1087.04 3955.94,1087.04 3955.94,1346.89 3822.08,1346.89" style="stroke:rgb(0,0,0);stroke-width:1px;fill:none;stroke-opacity:1;stroke-linecap:round;stroke-linejoin:round;;fill:none"/>
<polyline points="3475.65,639.8 3475.69,589.432 3475.75,589.144 3476.63,589.018 3577.38,589.05 3577.86,589.138 3577.97,589.796 3577.85,640.066 3576.99,640.19 3476.24,640.158 3475.7,640.058 3475.67,640.024 3475.65,639.8" style="stroke:rgb(103,198,105);stroke-width:39.370079;fill:none;stroke-opacity:0.5;stroke-linecap:round;stroke-linejoin:round;;fill:none"/>
<polyline points="3475.65,639.8 3475.69,589.432 3475.75,589.144 3476.63,589.018 3577.38,589.05 3577.86,589.138 3577.97,589.796 3577.85,640.066 3576.99,640.19 3476.24,640.158 3475.7,640.058 3475.67,640.024 3475.65,639.8" style="stroke:rgb(0,0,0);stroke-width:1px;fill:none;stroke-opacity:1;stroke-linecap:round;stroke-linejoin:round;;fill:none"/>
<polyline points="3081.95,361.852 3082.06,362.51 3082.54,362.598 3183.29,362.63 3184.17,362.504 3184.23,362.216 3184.27,311.848 3184.24,311.624 3184.21,311.59 3183.68,311.49 3082.93,311.458 3082.07,311.582 3081.95,361.852" style="stroke:rgb(103,198,105);stroke-width:39.370079;fill:none;stroke-opacity:0.5;stroke-linecap:round;stroke-linejoin:round;;fill:none"/>
<polyline points="3081.95,361.852 3082.06,362.51 3082.54,362.598 3183.29,362.63 3184.17,362.504 3184.23,362.216 3184.27,311.848 3184.24,311.624 3184.21,311.59 3183.68,311.49 3082.93,311.458 3082.07,311.582 3081.95,361.852" style="stroke:rgb(0,0,0);stroke-width:1px;fill:none;stroke-opacity:1;stroke-linecap:round;stroke-linejoin:round;;fill:none"/>
<polyline points="3081.95,594.136 3082.07,543.866 3082.93,543.742 3183.68,543.774 3184.21,543.874 3184.24,543.908 3184.27,544.132 3184.23,594.5 3184.17,594.788 3183.29,594.914 3082.54,594.882 3082.06,594.792 3081.95,594.136" style="stroke:rgb(103,198,105);stroke-width:39.370079;fill:none;stroke-opacity:0.5;stroke-linecap:round;stroke-linejoin:round;;fill:none"/>
<polyline points="3081.95,594.136 3082.07,543.866 3082.93,543.742 3183.68,543.774 3184.21,543.874 3184.24,543.908 3184.27,544.132 3184.23,594.5 3184.17,594.788 3183.29,594.914 3082.54,594.882 3082.06,594.792 3081.95,594.136" style="stroke:rgb(0,0,0);stroke-width:1px;fill:none;stroke-opacity:1;stroke-linecap:round;stroke-linejoin:round;;fill:none"/>
</svg>
