<?xml version="1.0" standalone="no"?>
<!DOCTYPE svg PUBLIC "-//W3C//DTD SVG 1.1//EN"
"http://www.w3.org/Graphics/SVG/1.1/DTD/svg11.dtd">
<svg width="190.945" height="125.04" viewBox="0 0 3978.03 2605" version="1.1"
xmlns="http://www.w3.org/2000/svg"
xmlns:xlink="http://www.w3.org/1999/xlink">
<polyline points="22.0833,1056.93 22.0833,797.084 155.943,797.084 155.943,1056.93 22.0833,1056.93" style="stroke:rgb(103,198,105);stroke-width:39.370079;fill:none;stroke-opacity:0.5;stroke-linecap:round;stroke-linejoin:round;;fill:none"/>
<polyline points="22.0833,1056.93 22.0833,797.084 155.943,797.084 155.943,1056.93 22.0833,1056.93" style="stroke:rgb(0,0,0);stroke-width:1px;fill:none;stroke-opacity:1;stroke-linecap:round;stroke-linejoin:round;;fill:none"/>
<polyline points="222.083,1056.93 222.083,797.084 355.943,797.084 355.943,1056.93 222.083,1056.93" style="stroke:rgb(103,198,105);stroke-width:39.370079;fill:none;stroke-opacity:0.5;stroke-linecap:round;stroke-linejoin:round;;fill:none"/>
<polyline points="222.083,1056.93 222.083,797.084 355.943,797.084 355.943,1056.93 222.083,1056.93" style="stroke:rgb(0,0,0);stroke-width:1px;fill:none;stroke-opacity:1;stroke-linecap:round;stroke-linejoin:round;;fill:none"/>
<polyline points="422.083,1056.93 422.083,797.084 555.941,797.084 555.941,1056.93 422.083,1056.93" style="stroke:rgb(103,198,105);stroke-width:39.370079;fill:none;stroke-opacity:0.5;stroke-linecap:round;stroke-linejoin:round;;fill:none"/>
<polyline points="422.083,1056.93 422.083,797.084 555.941,797.084 555.941,1056.93 422.083,1056.93" style="stroke:rgb(0,0,0);stroke-width:1px;fill:none;stroke-opacity:1;stroke-linecap:round;stroke-linejoin:round;;fill:none"/>
<polyline points="622.083,1056.93 622.083,797.084 755.943,797.084 755.943,1056.93 622.083,1056.93" style="stroke:rgb(103,198,105);stroke-width:39.370079;fill:none;stroke-opacity:0.5;stroke-linecap:round;stroke-linejoin:round;;fill:none"/>
<polyline points="622.083,1056.93 622.083,797.084 755.943,797.084 755.943,1056.93 622.083,1056.93" style="stroke:rgb(0,0,0);stroke-width:1px;fill:none;stroke-opacity:1;stroke-linecap:round;stroke-linejoin:round;;fill:none"/>
<polyline points="822.083,1056.93 822.083,797.084 955.943,797.084 955.943,1056.93 822.083,1056.93" style="stroke:rgb(103,198,105);stroke-width:39.370079;fill:none;stroke-opacity:0.5;stroke-linecap:round;stroke-linejoin:round;;fill:none"/>
<polyline points="822.083,1056.93 822.083,797.084 955.943,797.084 955.943,1056.93 822.083,1056.93" style="stroke:rgb(0,0,0);stroke-width:1px;fill:none;stroke-opacity:1;stroke-linecap:round;stroke-linejoin:round;;fill:none"/>
<polyline points="1022.08,1056.93 1022.08,797.084 1155.94,797.084 1155.94,1056.93 1022.08,1056.93" style="stroke:rgb(103,198,105);stroke-width:39.370079;fill:none;stroke-opacity:0.5;stroke-linecap:round;stroke-linejoin:round;;fill:none"/>
<polyline points="1022.08,1056.93 1022.08,797.084 1155.94,797.084 1155.94,1056.93 1022.08,1056.93" style="stroke:rgb(0,0,0);stroke-width:1px;fill:none;stroke-opacity:1;stroke-linecap:round;stroke-linejoin:round;;fill:none"/>
<polyline points="1222.08,1056.93 1222.08,797.084 1355.94,797.084 1355.94,1056.93 1222.08,1056.93" style="stroke:rgb(103,198,105);stroke-width:39.370079;fill:none;stroke-opacity:0.5;stroke-linecap:round;stroke-linejoin:round;;fill:none"/>
<polyline points="1222.08,1056.93 1222.08,797.084 1355.94,797.084 1355.94,1056.93 1222.08,1056.93" style="stroke:rgb(0,0,0);stroke-width:1px;fill:none;stroke-opacity:1;stroke-linecap:round;stroke-linejoin:round;;fill:none"/>
<polyline points="1422.08,1056.93 1422.08,797.084 1555.94,797.084 1555.94,1056.93 1422.08,1056.93" style="stroke:rgb(103,198,105);stroke-width:39.370079;fill:none;stroke-opacity:0.5;stroke-linecap:round;stroke-linejoin:round;;fill:none"/>
<polyline points="1422.08,1056.93 1422.08,797.084 1555.94,797.084 1555.94,1056.93 1422.08,1056.93" style="stroke:rgb(0,0,0);stroke-width:1px;fill:none;stroke-opacity:1;stroke-linecap:round;stroke-linejoin:round;;fill:none"/>
<polyline points="1622.08,1056.93 1622.08,797.084 1755.94,797.084 1755.94,1056.93 1622.08,1056.93" style="stroke:rgb(103,198,105);stroke-width:39.370079;fill:none;stroke-opacity:0.5;stroke-linecap:round;stroke-linejoin:round;;fill:none"/>
<polyline points="1622.08,1056.93 1622.08,797.084 1755.94,797.084 1755.94,1056.93 1622.08,1056.93" style="stroke:rgb(0,0,0);stroke-width:1px;fill:none;stroke-opacity:1;stroke-linecap:round;stroke-linejoin:round;;fill:none"/>
<polyline points="1822.08,1056.93 1822.08,797.084 1955.94,797.084 1955.94,1056.93 1822.08,1056.93" style="stroke:rgb(103,198,105);stroke-width:39.370079;fill:none;stroke-opacity:0.5;stroke-linecap:round;stroke-linejoin:round;;fill:none"/>
<polyline points="1822.08,1056.93 1822.08,797.084 1955.94,797.084 1955.94,1056.93 1822.08,1056.93" style="stroke:rgb(0,0,0);stroke-width:1px;fill:none;stroke-opacity:1;stroke-linecap:round;stroke-linejoin:round;;fill:none"/>
<polyline points="2166.59,644.708 2166.8,645.41 2215.68,645.38 2215.66,547.206 2166.7,547.216 2166.59,644.708" style="stroke:rgb(103,198,105);stroke-width:39.370079;fill:none;stroke-opacity:0.5;stroke-linecap:round;stroke-linejoin:round;;fill:none"/>
<polyline points="2166.59,644.708 2166.8,645.41 2215.68,645.38 2215.66,547.206 2166.7,547.216 2166.59,644.708" style="stroke:rgb(0,0,0);stroke-width:1px;fill:none;stroke-opacity:1;stroke-linecap:round;stroke-linejoin:round;;fill:none"/>
<polyline points="1942.18,301.4 1942.29,203.908 1991.25,203.898 1991.27,302.072 1942.39,302.102 1942.18,301.4" style="stroke:rgb(103,198,105);stroke-width:39.370079;fill:none;stroke-opacity:0.5;stroke-linecap:round;stroke-linejoin:round;;fill:none"/>
<polyline points="1942.18,301.4 1942.29,203.908 1991.25,203.898 1991.27,302.072 1942.39,302.102 1942.18,301.4" style="stroke:rgb(0,0,0);stroke-width:1px;fill:none;stroke-opacity:1;stroke-linecap:round;stroke-linejoin:round;;fill:none"/>
<polyline points="2172.5,301.4 2172.6,203.908 2221.56,203.898 2221.58,302.072 2172.7,302.102 2172.5,301.4" style="stroke:rgb(103,198,105);stroke-width:39.370079;fill:none;stroke-opacity:0.5;stroke-linecap:round;stroke-linejoin:round;;fill:none"/>
<polyline points="2172.5,301.4 2172.6,203.908 2221.56,203.898 2221.58,302.072 2172.7,302.102 2172.5,301.4" style="stroke:rgb(0,0,0);stroke-width:1px;fill:none;stroke-opacity:1;stroke-linecap:round;stroke-linejoin:round;;fill:none"/>
<polyline points="2554.76,102.794 2554.76,22.0836 2566.57,22.0836 2566.57,102.794 2554.76,102.794" style="stroke:rgb(103,198,105);stroke-width:39.370079;fill:none;stroke-opacity:0.5;stroke-linecap:round;stroke-linejoin:round;;fill:none"/>
<polyline points="2554.76,102.794 2554.76,22.0836 2566.57,22.0836 2566.57,102.794 2554.76,102.794" style="stroke:rgb(0,0,0);stroke-width:1px;fill:none;stroke-opacity:1;stroke-linecap:round;stroke-linejoin:round;;fill:none"/>
<polyline points="2654.76,102.794 2654.76,22.0836 2666.57,22.0836 2666.57,102.794 2654.76,102.794" style="stroke:rgb(103,198,105);stroke-width:39.370079;fill:none;stroke-opacity:0.5;stroke-linecap:round;stroke-linejoin:round;;fill:none"/>
<polyline points="2654.76,102.794 2654.76,22.0836 2666.57,22.0836 2666.57,102.794 2654.76,102.794" style="stroke:rgb(0,0,0);stroke-width:1px;fill:none;stroke-opacity:1;stroke-linecap:round;stroke-linejoin:round;;fill:none"/>
<polyline points="2754.76,102.794 2754.76,22.0836 2766.57,22.0836 2766.57,102.794 2754.76,102.794" style="stroke:rgb(103,198,105);stroke-width:39.370079;fill:none;stroke-opacity:0.5;stroke-linecap:round;stroke-linejoin:round;;fill:none"/>
<polyline points="2754.76,102.794 2754.76,22.0836 2766.57,22.0836 2766.57,102.794 2754.76,102.794" style="stroke:rgb(0,0,0);stroke-width:1px;fill:none;stroke-opacity:1;stroke-linecap:round;stroke-linejoin:round;;fill:none"/>
<polyline points="2854.76,102.794 2854.76,22.0836 2866.57,22.0836 2866.57,102.794 2854.76,102.794" style="stroke:rgb(103,198,105);stroke-width:39.370079;fill:none;stroke-opacity:0.5;stroke-linecap:round;stroke-linejoin:round;;fill:none"/>
<polyline points="2854.76,102.794 2854.76,22.0836 2866.57,22.0836 2866.57,102.794 2854.76,102.794" style="stroke:rgb(0,0,0);stroke-width:1px;fill:none;stroke-opacity:1;stroke-linecap:round;stroke-linejoin:round;;fill:none"/>
<polyline points="2554.76,529.88 2566.57,529.88 2566.57,449.172 2554.76,449.172 2554.76,529.88" style="stroke:rgb(103,198,105);stroke-width:39.370079;fill:none;stroke-opacity:0.5;stroke-linecap:round;stroke-linejoin:round;;fill:none"/>
<polyline points="2554.76,529.88 2566.57,529.88 2566.57,449.172 2554.76,449.172 2554.76,529.88" style="stroke:rgb(0,0,0);stroke-width:1px;fill:none;stroke-opacity:1;stroke-linecap:round;stroke-linejoin:round;;fill:none"/>
<polyline points="2654.76,529.88 2666.57,529.88 2666.57,449.172 2654.76,449.172 2654.76,529.88" style="stroke:rgb(103,198,105);stroke-width:39.370079;fill:none;stroke-opacity:0.5;stroke-linecap:round;stroke-linejoin:round;;fill:none"/>
<polyline points="2654.76,529.88 2666.57,529.88 2666.57,449.172 2654.76,449.172 2654.76,529.88" style="stroke:rgb(0,0,0);stroke-width:1px;fill:none;stroke-opacity:1;stroke-linecap:round;stroke-linejoin:round;;fill:none"/>
<polyline points="2754.76,529.88 2766.57,529.88 2766.57,449.172 2754.76,449.172 2754.76,529.88" style="stroke:rgb(103,198,105);stroke-width:39.370079;fill:none;stroke-opacity:0.5;stroke-linecap:round;stroke-linejoin:round;;fill:none"/>
<polyline points="2754.76,529.88 2766.57,529.88 2766.57,449.172 2754.76,449.172 2754.76,529.88" style="stroke:rgb(0,0,0);stroke-width:1px;fill:none;stroke-opacity:1;stroke-linecap:round;stroke-linejoin:round;;fill:none"/>
<polyline points="2854.76,529.88 2866.57,529.88 2866.57,449.172 2854.76,449.172 2854.76,529.88" style="stroke:rgb(103,198,105);stroke-width:39.370079;fill:none;stroke-opacity:0.5;stroke-linecap:round;stroke-linejoin:round;;fill:none"/>
<polyline points="2854.76,529.88 2866.57,529.88 2866.57,449.172 2854.76,449.172 2854.76,529.88" style="stroke:rgb(0,0,0);stroke-width:1px;fill:none;stroke-opacity:1;stroke-linecap:round;stroke-linejoin:round;;fill:none"/>
<polyline points="3094.98,467.818 3169.58,467.822 3169.59,428.706 3095.04,428.712 3094.98,467.818" style="stroke:rgb(103,198,105);stroke-width:39.370079;fill:none;stroke-opacity:0.5;stroke-linecap:round;stroke-linejoin:round;;fill:none"/>
<polyline points="3094.98,467.818 3169.58,467.822 3169.59,428.706 3095.04,428.712 3094.98,467.818" style="stroke:rgb(0,0,0);stroke-width:1px;fill:none;stroke-opacity:1;stroke-linecap:round;stroke-linejoin:round;;fill:none"/>
<polyline points="3094.98,617.424 3169.58,617.428 3169.59,578.312 3095.04,578.318 3094.98,617.424" style="stroke:rgb(103,198,105);stroke-width:39.370079;fill:none;stroke-opacity:0.5;stroke-linecap:round;stroke-linejoin:round;;fill:none"/>
<polyline points="3094.98,617.424 3169.58,617.428 3169.59,578.312 3095.04,578.318 3094.98,617.424" style="stroke:rgb(0,0,0);stroke-width:1px;fill:none;stroke-opacity:1;stroke-linecap:round;stroke-linejoin:round;;fill:none"/>
<polyline points="3822.08,1056.93 3955.94,1056.93 3955.94,797.084 3822.08,797.084 3822.08,1056.93" style="stroke:rgb(103,198,105);stroke-width:39.370079;fill:none;stroke-opacity:0.5;stroke-linecap:round;stroke-linejoin:round;;fill:none"/>
<polyline points="3822.08,1056.93 3955.94,1056.93 3955.94,797.084 3822.08,797.084 3822.08,1056.93" style="stroke:rgb(0,0,0);stroke-width:1px;fill:none;stroke-opacity:1;stroke-linecap:round;stroke-linejoin:round;;fill:none"/>
<polyline points="3622.08,1056.93 3755.94,1056.93 3755.94,797.084 3622.08,797.084 3622.08,1056.93" style="stroke:rgb(103,198,105);stroke-width:39.370079;fill:none;stroke-opacity:0.5;stroke-linecap:round;stroke-linejoin:round;;fill:none"/>
<polyline points="3622.08,1056.93 3755.94,1056.93 3755.94,797.084 3622.08,797.084 3622.08,1056.93" style="stroke:rgb(0,0,0);stroke-width:1px;fill:none;stroke-opacity:1;stroke-linecap:round;stroke-linejoin:round;;fill:none"/>
<polyline points="3422.08,1056.93 3555.94,1056.93 3555.94,797.084 3422.08,797.084 3422.08,1056.93" style="stroke:rgb(103,198,105);stroke-width:39.370079;fill:none;stroke-opacity:0.5;stroke-linecap:round;stroke-linejoin:round;;fill:none"/>
<polyline points="3422.08,1056.93 3555.94,1056.93 3555.94,797.084 3422.08,797.084 3422.08,1056.93" style="stroke:rgb(0,0,0);stroke-width:1px;fill:none;stroke-opacity:1;stroke-linecap:round;stroke-linejoin:round;;fill:none"/>
<polyline points="3222.08,1056.93 3355.94,1056.93 3355.94,797.084 3222.08,797.084 3222.08,1056.93" style="stroke:rgb(103,198,105);stroke-width:39.370079;fill:none;stroke-opacity:0.5;stroke-linecap:round;stroke-linejoin:round;;fill:none"/>
<polyline points="3222.08,1056.93 3355.94,1056.93 3355.94,797.084 3222.08,797.084 3222.08,1056.93" style="stroke:rgb(0,0,0);stroke-width:1px;fill:none;stroke-opacity:1;stroke-linecap:round;stroke-linejoin:round;;fill:none"/>
<polyline points="3022.08,1056.93 3155.94,1056.93 3155.94,797.084 3022.08,797.084 3022.08,1056.93" style="stroke:rgb(103,198,105);stroke-width:39.370079;fill:none;stroke-opacity:0.5;stroke-linecap:round;stroke-linejoin:round;;fill:none"/>
<polyline points="3022.08,1056.93 3155.94,1056.93 3155.94,797.084 3022.08,797.084 3022.08,1056.93" style="stroke:rgb(0,0,0);stroke-width:1px;fill:none;stroke-opacity:1;stroke-linecap:round;stroke-linejoin:round;;fill:none"/>
<polyline points="2822.08,1056.93 2955.94,1056.93 2955.94,797.084 2822.08,797.084 2822.08,1056.93" style="stroke:rgb(103,198,105);stroke-width:39.370079;fill:none;stroke-opacity:0.5;stroke-linecap:round;stroke-linejoin:round;;fill:none"/>
<polyline points="2822.08,1056.93 2955.94,1056.93 2955.94,797.084 2822.08,797.084 2822.08,1056.93" style="stroke:rgb(0,0,0);stroke-width:1px;fill:none;stroke-opacity:1;stroke-linecap:round;stroke-linejoin:round;;fill:none"/>
<polyline points="2622.08,1056.93 2622.08,797.084 2755.94,797.084 2755.94,1056.93 2622.08,1056.93" style="stroke:rgb(103,198,105);stroke-width:39.370079;fill:none;stroke-opacity:0.5;stroke-linecap:round;stroke-linejoin:round;;fill:none"/>
<polyline points="2622.08,1056.93 2622.08,797.084 2755.94,797.084 2755.94,1056.93 2622.08,1056.93" style="stroke:rgb(0,0,0);stroke-width:1px;fill:none;stroke-opacity:1;stroke-linecap:round;stroke-linejoin:round;;fill:none"/>
<polyline points="2396.91,644.708 2397.01,547.216 2445.97,547.206 2445.99,645.38 2397.11,645.41 2396.91,644.708" style="stroke:rgb(103,198,105);stroke-width:39.370079;fill:none;stroke-opacity:0.5;stroke-linecap:round;stroke-linejoin:round;;fill:none"/>
<polyline points="2396.91,644.708 2397.01,547.216 2445.97,547.206 2445.99,645.38 2397.11,645.41 2396.91,644.708" style="stroke:rgb(0,0,0);stroke-width:1px;fill:none;stroke-opacity:1;stroke-linecap:round;stroke-linejoin:round;;fill:none"/>
<polyline points="2422.08,1056.93 2422.08,797.084 2555.94,797.084 2555.94,1056.93 2422.08,1056.93" style="stroke:rgb(103,198,105);stroke-width:39.370079;fill:none;stroke-opacity:0.5;stroke-linecap:round;stroke-linejoin:round;;fill:none"/>
<polyline points="2422.08,1056.93 2422.08,797.084 2555.94,797.084 2555.94,1056.93 2422.08,1056.93" style="stroke:rgb(0,0,0);stroke-width:1px;fill:none;stroke-opacity:1;stroke-linecap:round;stroke-linejoin:round;;fill:none"/>
<polyline points="2395.54,1243.94 2395.77,1248.37 2396.45,1252.69 2397.58,1256.98 2398.89,1260.51 2400.51,1263.9 2402.84,1267.75 2405.05,1270.72 2408.03,1274 2411.33,1276.96 2414.31,1279.15 2418.12,1281.42 2422.09,1283.26 2426.29,1284.69 2429.89,1285.54 2434.35,1286.15 2438.04,1286.3 2442.47,1286.04 2446.79,1285.34 2451.07,1284.17 2454.53,1282.86 2458.56,1280.87 2461.7,1278.92 2465.27,1276.19 2468.03,1273.62 2470.54,1270.82 2473.16,1267.24 2475.41,1263.42 2476.96,1260.06 2478.44,1255.81 2479.32,1252.22 2479.96,1247.76 2480.12,1244.07 2479.9,1239.64 2479.22,1235.32 2478.09,1231.03 2476.78,1227.5 2475.15,1224.11 2472.83,1220.26 2470.62,1217.29 2467.64,1214.01 2464.33,1211.05 2461.35,1208.86 2457.54,1206.59 2453.57,1204.76 2449.38,1203.32 2445.78,1202.47 2441.32,1201.86 2437.62,1201.71 2433.2,1201.97 2428.88,1202.68 2424.6,1203.84 2421.14,1205.15 2417.11,1207.14 2413.96,1209.09 2410.39,1211.83 2407.64,1214.39 2405.13,1217.19 2402.5,1220.77 2400.26,1224.59 2398.71,1227.95 2397.22,1232.2 2396.35,1235.79 2395.71,1240.25 2395.54,1243.94" style="stroke:rgb(103,198,105);stroke-width:39.370079;fill:none;stroke-opacity:0.5;stroke-linecap:round;stroke-linejoin:round;;fill:none"/>
<polyline points="2395.54,1243.94 2395.77,1248.37 2396.45,1252.69 2397.58,1256.98 2398.89,1260.51 2400.51,1263.9 2402.84,1267.75 2405.05,1270.72 2408.03,1274 2411.33,1276.96 2414.31,1279.15 2418.12,1281.42 2422.09,1283.26 2426.29,1284.69 2429.89,1285.54 2434.35,1286.15 2438.04,1286.3 2442.47,1286.04 2446.79,1285.34 2451.07,1284.17 2454.53,1282.86 2458.56,1280.87 2461.7,1278.92 2465.27,1276.19 2468.03,1273.62 2470.54,1270.82 2473.16,1267.24 2475.41,1263.42 2476.96,1260.06 2478.44,1255.81 2479.32,1252.22 2479.96,1247.76 2480.12,1244.07 2479.9,1239.64 2479.22,1235.32 2478.09,1231.03 2476.78,1227.5 2475.15,1224.11 2472.83,1220.26 2470.62,1217.29 2467.64,1214.01 2464.33,1211.05 2461.35,1208.86 2457.54,1206.59 2453.57,1204.76 2449.38,1203.32 2445.78,1202.47 2441.32,1201.86 2437.62,1201.71 2433.2,1201.97 2428.88,1202.68 2424.6,1203.84 2421.14,1205.15 2417.11,1207.14 2413.96,1209.09 2410.39,1211.83 2407.64,1214.39 2405.13,1217.19 2402.5,1220.77 2400.26,1224.59 2398.71,1227.95 2397.22,1232.2 2396.35,1235.79 2395.71,1240.25 2395.54,1243.94" style="stroke:rgb(0,0,0);stroke-width:1px;fill:none;stroke-opacity:1;stroke-linecap:round;stroke-linejoin:round;;fill:none"/>
<polyline points="2222.08,1056.93 2355.94,1056.93 2355.94,797.084 2222.08,797.084 2222.08,1056.93" style="stroke:rgb(103,198,105);stroke-width:39.370079;fill:none;stroke-opacity:0.5;stroke-linecap:round;stroke-linejoin:round;;fill:none"/>
<polyline points="2222.08,1056.93 2355.94,1056.93 2355.94,797.084 2222.08,797.084 2222.08,1056.93" style="stroke:rgb(0,0,0);stroke-width:1px;fill:none;stroke-opacity:1;stroke-linecap:round;stroke-linejoin:round;;fill:none"/>
<polyline points="2022.08,1056.93 2155.94,1056.93 2155.94,797.084 2022.08,797.084 2022.08,1056.93" style="stroke:rgb(103,198,105);stroke-width:39.370079;fill:none;stroke-opacity:0.5;stroke-linecap:round;stroke-linejoin:round;;fill:none"/>
<polyline points="2022.08,1056.93 2155.94,1056.93 2155.94,797.084 2022.08,797.084 2022.08,1056.93" style="stroke:rgb(0,0,0);stroke-width:1px;fill:none;stroke-opacity:1;stroke-linecap:round;stroke-linejoin:round;;fill:none"/>
<polyline points="2395.54,1443.94 2395.71,1440.25 2396.35,1435.79 2397.22,1432.2 2398.71,1427.95 2400.26,1424.59 2402.5,1420.77 2405.13,1417.19 2407.64,1414.39 2410.39,1411.83 2413.96,1409.09 2417.11,1407.14 2421.08,1405.18 2425.24,1403.63 2428.82,1402.69 2433.2,1401.97 2437.62,1401.71 2441.32,1401.86 2445.78,1402.47 2449.38,1403.32 2453.57,1404.76 2457.54,1406.59 2461.35,1408.86 2464.33,1411.05 2467.64,1414.01 2470.62,1417.29 2472.83,1420.26 2475.15,1424.11 2476.78,1427.5 2478.09,1431.03 2479.22,1435.32 2479.9,1439.64 2480.12,1444.07 2479.96,1447.76 2479.32,1452.22 2478.44,1455.81 2476.96,1460.06 2475.41,1463.42 2473.16,1467.24 2470.54,1470.82 2468.03,1473.62 2465.27,1476.19 2461.7,1478.92 2458.56,1480.87 2454.58,1482.84 2450.42,1484.38 2446.85,1485.33 2442.47,1486.04 2438.04,1486.3 2434.35,1486.15 2429.95,1485.55 2425.64,1484.5 2422.15,1483.28 2418.12,1481.42 2414.31,1479.15 2411.33,1476.96 2408.03,1474 2405.05,1470.72 2402.84,1467.75 2400.51,1463.9 2398.89,1460.51 2397.58,1456.98 2396.45,1452.69 2395.77,1448.37 2395.54,1443.94" style="stroke:rgb(103,198,105);stroke-width:39.370079;fill:none;stroke-opacity:0.5;stroke-linecap:round;stroke-linejoin:round;;fill:none"/>
<polyline points="2395.54,1443.94 2395.71,1440.25 2396.35,1435.79 2397.22,1432.2 2398.71,1427.95 2400.26,1424.59 2402.5,1420.77 2405.13,1417.19 2407.64,1414.39 2410.39,1411.83 2413.96,1409.09 2417.11,1407.14 2421.08,1405.18 2425.24,1403.63 2428.82,1402.69 2433.2,1401.97 2437.62,1401.71 2441.32,1401.86 2445.78,1402.47 2449.38,1403.32 2453.57,1404.76 2457.54,1406.59 2461.35,1408.86 2464.33,1411.05 2467.64,1414.01 2470.62,1417.29 2472.83,1420.26 2475.15,1424.11 2476.78,1427.5 2478.09,1431.03 2479.22,1435.32 2479.9,1439.64 2480.12,1444.07 2479.96,1447.76 2479.32,1452.22 2478.44,1455.81 2476.96,1460.06 2475.41,1463.42 2473.16,1467.24 2470.54,1470.82 2468.03,1473.62 2465.27,1476.19 2461.7,1478.92 2458.56,1480.87 2454.58,1482.84 2450.42,1484.38 2446.85,1485.33 2442.47,1486.04 2438.04,1486.3 2434.35,1486.15 2429.95,1485.55 2425.64,1484.5 2422.15,1483.28 2418.12,1481.42 2414.31,1479.15 2411.33,1476.96 2408.03,1474 2405.05,1470.72 2402.84,1467.75 2400.51,1463.9 2398.89,1460.51 2397.58,1456.98 2396.45,1452.69 2395.77,1448.37 2395.54,1443.94" style="stroke:rgb(0,0,0);stroke-width:1px;fill:none;stroke-opacity:1;stroke-linecap:round;stroke-linejoin:round;;fill:none"/>
<polyline points="2395.52,1686.29 2395.52,1601.69 2480.15,1601.7 2480.13,1686.32 2395.52,1686.29" style="stroke:rgb(103,198,105);stroke-width:39.370079;fill:none;stroke-opacity:0.5;stroke-linecap:round;stroke-linejoin:round;;fill:none"/>
<polyline points="2395.52,1686.29 2395.52,1601.69 2480.15,1601.7 2480.13,1686.32 2395.52,1686.29" style="stroke:rgb(0,0,0);stroke-width:1px;fill:none;stroke-opacity:1;stroke-linecap:round;stroke-linejoin:round;;fill:none"/>
<polyline points="1083.5,1921.37 1083.65,1922.91 1084.26,1924.43 1085.25,1925.46 1087.01,1926.12 1157.43,1926.21 1159.85,1925.79 1161.24,1924.78 1161.85,1923.81 1162.19,1922.37 1162.23,1851.95 1161.98,1850.13 1161.49,1849.17 1159.96,1847.9 1158.22,1847.5 1088.09,1847.49 1085.67,1847.99 1084.54,1848.87 1083.92,1849.82 1083.59,1851.1 1083.5,1921.37" style="stroke:rgb(103,198,105);stroke-width:39.370079;fill:none;stroke-opacity:0.5;stroke-linecap:round;stroke-linejoin:round;;fill:none"/>
<polyline points="1083.5,1921.37 1083.65,1922.91 1084.26,1924.43 1085.25,1925.46 1087.01,1926.12 1157.43,1926.21 1159.85,1925.79 1161.24,1924.78 1161.85,1923.81 1162.19,1922.37 1162.23,1851.95 1161.98,1850.13 1161.49,1849.17 1159.96,1847.9 1158.22,1847.5 1088.09,1847.49 1085.67,1847.99 1084.54,1848.87 1083.92,1849.82 1083.59,1851.1 1083.5,1921.37" style="stroke:rgb(0,0,0);stroke-width:1px;fill:none;stroke-opacity:1;stroke-linecap:round;stroke-linejoin:round;;fill:none"/>
<polyline points="886.651,1921.37 886.797,1922.91 887.411,1924.43 888.395,1925.46 890.157,1926.12 960.581,1926.21 963.003,1925.79 964.393,1924.78 965.003,1923.81 965.337,1922.37 965.377,1851.95 965.129,1850.13 964.633,1849.17 963.111,1847.9 961.367,1847.5 891.239,1847.49 888.819,1847.99 887.691,1848.87 887.065,1849.82 886.733,1851.1 886.651,1921.37" style="stroke:rgb(103,198,105);stroke-width:39.370079;fill:none;stroke-opacity:0.5;stroke-linecap:round;stroke-linejoin:round;;fill:none"/>
<polyline points="886.651,1921.37 886.797,1922.91 887.411,1924.43 888.395,1925.46 890.157,1926.12 960.581,1926.21 963.003,1925.79 964.393,1924.78 965.003,1923.81 965.337,1922.37 965.377,1851.95 965.129,1850.13 964.633,1849.17 963.111,1847.9 961.367,1847.5 891.239,1847.49 888.819,1847.99 887.691,1848.87 887.065,1849.82 886.733,1851.1 886.651,1921.37" style="stroke:rgb(0,0,0);stroke-width:1px;fill:none;stroke-opacity:1;stroke-linecap:round;stroke-linejoin:round;;fill:none"/>
<polyline points="689.799,1921.37 689.945,1922.91 690.561,1924.43 691.545,1925.46 693.307,1926.12 763.731,1926.21 766.151,1925.79 767.543,1924.78 768.153,1923.81 768.487,1922.37 768.527,1851.95 768.275,1850.13 767.783,1849.17 766.261,1847.9 764.517,1847.5 694.387,1847.49 691.969,1847.99 690.841,1848.87 690.215,1849.82 689.883,1851.1 689.799,1921.37" style="stroke:rgb(103,198,105);stroke-width:39.370079;fill:none;stroke-opacity:0.5;stroke-linecap:round;stroke-linejoin:round;;fill:none"/>
<polyline points="689.799,1921.37 689.945,1922.91 690.561,1924.43 691.545,1925.46 693.307,1926.12 763.731,1926.21 766.151,1925.79 767.543,1924.78 768.153,1923.81 768.487,1922.37 768.527,1851.95 768.275,1850.13 767.783,1849.17 766.261,1847.9 764.517,1847.5 694.387,1847.49 691.969,1847.99 690.841,1848.87 690.215,1849.82 689.883,1851.1 689.799,1921.37" style="stroke:rgb(0,0,0);stroke-width:1px;fill:none;stroke-opacity:1;stroke-linecap:round;stroke-linejoin:round;;fill:none"/>
<polyline points="300.473,1498.14 300.711,1502.38 301.769,1506.48 303.609,1510.3 306.159,1513.69 309.321,1516.52 313.313,1518.82 317.635,1520.22 322.631,1520.71 353.699,1520.69 357.495,1520.29 360.713,1519.44 363.759,1518.1 366.683,1516.23 368.647,1514.55 370.479,1512.53 373.159,1508.22 374.199,1505.55 375.141,1500.57 375.161,1497.84 374.287,1492.84 373.309,1490.22 372.041,1487.81 370.479,1485.58 368.647,1483.56 364.565,1480.43 360.147,1478.45 355.633,1477.54 322.363,1477.41 318.259,1477.78 313.743,1479.1 309.819,1481.24 307.903,1482.73 304.583,1486.35 302.467,1489.94 301.667,1491.91 301.065,1493.94 300.473,1498.14" style="stroke:rgb(103,198,105);stroke-width:39.370079;fill:none;stroke-opacity:0.5;stroke-linecap:round;stroke-linejoin:round;;fill:none"/>
<polyline points="300.473,1498.14 300.711,1502.38 301.769,1506.48 303.609,1510.3 306.159,1513.69 309.321,1516.52 313.313,1518.82 317.635,1520.22 322.631,1520.71 353.699,1520.69 357.495,1520.29 360.713,1519.44 363.759,1518.1 366.683,1516.23 368.647,1514.55 370.479,1512.53 373.159,1508.22 374.199,1505.55 375.141,1500.57 375.161,1497.84 374.287,1492.84 373.309,1490.22 372.041,1487.81 370.479,1485.58 368.647,1483.56 364.565,1480.43 360.147,1478.45 355.633,1477.54 322.363,1477.41 318.259,1477.78 313.743,1479.1 309.819,1481.24 307.903,1482.73 304.583,1486.35 302.467,1489.94 301.667,1491.91 301.065,1493.94 300.473,1498.14" style="stroke:rgb(0,0,0);stroke-width:1px;fill:none;stroke-opacity:1;stroke-linecap:round;stroke-linejoin:round;;fill:none"/>
<polyline points="48.0933,1475.75 48.1893,1473.3 49.0773,1468.71 50.1193,1465.91 51.6633,1462.98 53.3233,1460.64 55.2993,1458.47 57.5273,1456.57 59.9753,1454.96 62.5533,1453.69 65.7373,1452.61 68.1833,1452.11 71.5493,1451.82 126.087,1451.81 130.259,1452.12 133.743,1452.9 136.437,1453.9 138.707,1455.06 141.183,1456.73 143.391,1458.66 145.379,1460.89 146.841,1462.98 148.251,1465.61 149.323,1468.4 149.951,1470.87 150.337,1473.83 150.355,1476.76 150.001,1479.73 149.401,1482.21 148.361,1485.01 147.007,1487.61 145.247,1490.15 142.183,1493.33 138.529,1495.91 136.339,1497.02 132.357,1498.37 126.521,1499.05 71.6033,1499.04 67.9753,1498.71 64.6993,1497.96 62.5473,1497.19 58.8773,1495.25 55.3293,1492.44 52.2013,1488.73 49.9153,1484.52 48.5893,1480.25 48.0933,1475.75" style="stroke:rgb(103,198,105);stroke-width:39.370079;fill:none;stroke-opacity:0.5;stroke-linecap:round;stroke-linejoin:round;;fill:none"/>
<polyline points="48.0933,1475.75 48.1893,1473.3 49.0773,1468.71 50.1193,1465.91 51.6633,1462.98 53.3233,1460.64 55.2993,1458.47 57.5273,1456.57 59.9753,1454.96 62.5533,1453.69 65.7373,1452.61 68.1833,1452.11 71.5493,1451.82 126.087,1451.81 130.259,1452.12 133.743,1452.9 136.437,1453.9 138.707,1455.06 141.183,1456.73 143.391,1458.66 145.379,1460.89 146.841,1462.98 148.251,1465.61 149.323,1468.4 149.951,1470.87 150.337,1473.83 150.355,1476.76 150.001,1479.73 149.401,1482.21 148.361,1485.01 147.007,1487.61 145.247,1490.15 142.183,1493.33 138.529,1495.91 136.339,1497.02 132.357,1498.37 126.521,1499.05 71.6033,1499.04 67.9753,1498.71 64.6993,1497.96 62.5473,1497.19 58.8773,1495.25 55.3293,1492.44 52.2013,1488.73 49.9153,1484.52 48.5893,1480.25 48.0933,1475.75" style="stroke:rgb(0,0,0);stroke-width:1px;fill:none;stroke-opacity:1;stroke-linecap:round;stroke-linejoin:round;;fill:none"/>
<polyline points="36.2593,1645.78 36.3413,1575.51 36.6713,1574.23 37.4033,1573.15 38.5853,1572.34 40.8453,1571.9 110.973,1571.91 112.717,1572.31 114.241,1573.58 114.895,1575.15 114.983,1576.02 114.943,1646.78 114.609,1648.22 113.999,1649.18 112.609,1650.2 110.187,1650.63 39.7653,1650.53 38.0033,1649.88 37.0173,1648.84 36.4033,1647.32 36.2593,1645.78" style="stroke:rgb(103,198,105);stroke-width:39.370079;fill:none;stroke-opacity:0.5;stroke-linecap:round;stroke-linejoin:round;;fill:none"/>
<polyline points="36.2593,1645.78 36.3413,1575.51 36.6713,1574.23 37.4033,1573.15 38.5853,1572.34 40.8453,1571.9 110.973,1571.91 112.717,1572.31 114.241,1573.58 114.895,1575.15 114.983,1576.02 114.943,1646.78 114.609,1648.22 113.999,1649.18 112.609,1650.2 110.187,1650.63 39.7653,1650.53 38.0033,1649.88 37.0173,1648.84 36.4033,1647.32 36.2593,1645.78" style="stroke:rgb(0,0,0);stroke-width:1px;fill:none;stroke-opacity:1;stroke-linecap:round;stroke-linejoin:round;;fill:none"/>
<polyline points="36.2593,1803.26 36.3413,1732.99 36.6713,1731.71 37.2973,1730.76 38.8533,1729.69 40.8453,1729.37 110.973,1729.39 112.717,1729.79 114.205,1731.03 114.895,1732.63 114.983,1733.5 114.943,1804.26 114.609,1805.7 113.999,1806.67 112.609,1807.68 110.187,1808.11 39.7653,1808.01 38.0033,1807.35 37.0173,1806.32 36.4033,1804.8 36.2593,1803.26" style="stroke:rgb(103,198,105);stroke-width:39.370079;fill:none;stroke-opacity:0.5;stroke-linecap:round;stroke-linejoin:round;;fill:none"/>
<polyline points="36.2593,1803.26 36.3413,1732.99 36.6713,1731.71 37.2973,1730.76 38.8533,1729.69 40.8453,1729.37 110.973,1729.39 112.717,1729.79 114.205,1731.03 114.895,1732.63 114.983,1733.5 114.943,1804.26 114.609,1805.7 113.999,1806.67 112.609,1807.68 110.187,1808.11 39.7653,1808.01 38.0033,1807.35 37.0173,1806.32 36.4033,1804.8 36.2593,1803.26" style="stroke:rgb(0,0,0);stroke-width:1px;fill:none;stroke-opacity:1;stroke-linecap:round;stroke-linejoin:round;;fill:none"/>
<polyline points="48.0933,1904.89 48.1893,1902.43 49.0773,1897.84 50.1373,1894.99 51.4913,1892.39 53.1253,1890.03 55.3413,1887.57 57.5273,1885.71 59.9753,1884.1 62.5533,1882.83 65.7373,1881.74 68.1833,1881.24 71.5493,1880.95 126.087,1880.94 130.259,1881.25 133.797,1882.04 136.091,1882.88 138.753,1884.23 141.183,1885.87 143.433,1887.83 145.143,1889.73 146.867,1892.16 148.251,1894.75 149.323,1897.53 149.951,1900.01 150.337,1902.97 150.355,1905.89 150.001,1908.86 149.401,1911.34 148.361,1914.14 147.007,1916.74 145.247,1919.29 142.429,1922.26 138.713,1924.94 134.603,1926.84 132.669,1927.42 130.427,1927.87 126.521,1928.18 71.6033,1928.18 67.9753,1927.85 62.8953,1926.46 58.5613,1924.17 55.3293,1921.57 52.2013,1917.87 50.0393,1913.95 48.5813,1909.33 48.0933,1904.89" style="stroke:rgb(103,198,105);stroke-width:39.370079;fill:none;stroke-opacity:0.5;stroke-linecap:round;stroke-linejoin:round;;fill:none"/>
<polyline points="48.0933,1904.89 48.1893,1902.43 49.0773,1897.84 50.1373,1894.99 51.4913,1892.39 53.1253,1890.03 55.3413,1887.57 57.5273,1885.71 59.9753,1884.1 62.5533,1882.83 65.7373,1881.74 68.1833,1881.24 71.5493,1880.95 126.087,1880.94 130.259,1881.25 133.797,1882.04 136.091,1882.88 138.753,1884.23 141.183,1885.87 143.433,1887.83 145.143,1889.73 146.867,1892.16 148.251,1894.75 149.323,1897.53 149.951,1900.01 150.337,1902.97 150.355,1905.89 150.001,1908.86 149.401,1911.34 148.361,1914.14 147.007,1916.74 145.247,1919.29 142.429,1922.26 138.713,1924.94 134.603,1926.84 132.669,1927.42 130.427,1927.87 126.521,1928.18 71.6033,1928.18 67.9753,1927.85 62.8953,1926.46 58.5613,1924.17 55.3293,1921.57 52.2013,1917.87 50.0393,1913.95 48.5813,1909.33 48.0933,1904.89" style="stroke:rgb(0,0,0);stroke-width:1px;fill:none;stroke-opacity:1;stroke-linecap:round;stroke-linejoin:round;;fill:none"/>
<polyline points="296.101,1724.52 296.245,1726.06 296.859,1727.58 297.845,1728.62 299.607,1729.27 370.029,1729.37 372.453,1728.94 373.843,1727.92 374.451,1726.96 374.787,1725.52 374.825,1654.76 374.737,1653.89 374.047,1652.29 372.559,1651.05 370.815,1650.65 300.689,1650.64 298.695,1650.95 297.139,1652.02 296.513,1652.97 296.183,1654.25 296.101,1724.52" style="stroke:rgb(103,198,105);stroke-width:39.370079;fill:none;stroke-opacity:0.5;stroke-linecap:round;stroke-linejoin:round;;fill:none"/>
<polyline points="296.101,1724.52 296.245,1726.06 296.859,1727.58 297.845,1728.62 299.607,1729.27 370.029,1729.37 372.453,1728.94 373.843,1727.92 374.451,1726.96 374.787,1725.52 374.825,1654.76 374.737,1653.89 374.047,1652.29 372.559,1651.05 370.815,1650.65 300.689,1650.64 298.695,1650.95 297.139,1652.02 296.513,1652.97 296.183,1654.25 296.101,1724.52" style="stroke:rgb(0,0,0);stroke-width:1px;fill:none;stroke-opacity:1;stroke-linecap:round;stroke-linejoin:round;;fill:none"/>
<polyline points="300.473,1880.03 301.065,1875.83 301.667,1873.8 303.421,1870.01 304.807,1867.94 308.183,1864.37 309.761,1863.17 313.743,1860.99 318.259,1859.67 322.363,1859.3 355.633,1859.43 360.147,1860.34 364.565,1862.32 368.647,1865.44 370.479,1867.46 372.041,1869.7 373.309,1872.11 374.287,1874.73 375.169,1879.8 375.169,1882.09 374.835,1884.86 374.173,1887.5 372.081,1892.13 370.479,1894.42 368.647,1896.44 366.683,1898.12 363.759,1899.99 360.713,1901.33 357.495,1902.18 353.699,1902.58 322.631,1902.6 317.205,1902.01 313.313,1900.71 309.321,1898.41 306.159,1895.58 303.609,1892.19 301.769,1888.37 300.711,1884.26 300.473,1880.03" style="stroke:rgb(103,198,105);stroke-width:39.370079;fill:none;stroke-opacity:0.5;stroke-linecap:round;stroke-linejoin:round;;fill:none"/>
<polyline points="300.473,1880.03 301.065,1875.83 301.667,1873.8 303.421,1870.01 304.807,1867.94 308.183,1864.37 309.761,1863.17 313.743,1860.99 318.259,1859.67 322.363,1859.3 355.633,1859.43 360.147,1860.34 364.565,1862.32 368.647,1865.44 370.479,1867.46 372.041,1869.7 373.309,1872.11 374.287,1874.73 375.169,1879.8 375.169,1882.09 374.835,1884.86 374.173,1887.5 372.081,1892.13 370.479,1894.42 368.647,1896.44 366.683,1898.12 363.759,1899.99 360.713,1901.33 357.495,1902.18 353.699,1902.58 322.631,1902.6 317.205,1902.01 313.313,1900.71 309.321,1898.41 306.159,1895.58 303.609,1892.19 301.769,1888.37 300.711,1884.26 300.473,1880.03" style="stroke:rgb(0,0,0);stroke-width:1px;fill:none;stroke-opacity:1;stroke-linecap:round;stroke-linejoin:round;;fill:none"/>
<polyline points="22.0833,2582.91 155.943,2582.91 155.943,2323.07 22.0833,2323.07 22.0833,2582.91" style="stroke:rgb(103,198,105);stroke-width:39.370079;fill:none;stroke-opacity:0.5;stroke-linecap:round;stroke-linejoin:round;;fill:none"/>
<polyline points="22.0833,2582.91 155.943,2582.91 155.943,2323.07 22.0833,2323.07 22.0833,2582.91" style="stroke:rgb(0,0,0);stroke-width:1px;fill:none;stroke-opacity:1;stroke-linecap:round;stroke-linejoin:round;;fill:none"/>
<polyline points="222.083,2582.91 355.943,2582.91 355.943,2323.07 222.083,2323.07 222.083,2582.91" style="stroke:rgb(103,198,105);stroke-width:39.370079;fill:none;stroke-opacity:0.5;stroke-linecap:round;stroke-linejoin:round;;fill:none"/>
<polyline points="222.083,2582.91 355.943,2582.91 355.943,2323.07 222.083,2323.07 222.083,2582.91" style="stroke:rgb(0,0,0);stroke-width:1px;fill:none;stroke-opacity:1;stroke-linecap:round;stroke-linejoin:round;;fill:none"/>
<polyline points="422.083,2582.91 555.941,2582.91 555.941,2323.07 422.083,2323.07 422.083,2582.91" style="stroke:rgb(103,198,105);stroke-width:39.370079;fill:none;stroke-opacity:0.5;stroke-linecap:round;stroke-linejoin:round;;fill:none"/>
<polyline points="422.083,2582.91 555.941,2582.91 555.941,2323.07 422.083,2323.07 422.083,2582.91" style="stroke:rgb(0,0,0);stroke-width:1px;fill:none;stroke-opacity:1;stroke-linecap:round;stroke-linejoin:round;;fill:none"/>
<polyline points="622.083,2582.91 755.943,2582.91 755.943,2323.07 622.083,2323.07 622.083,2582.91" style="stroke:rgb(103,198,105);stroke-width:39.370079;fill:none;stroke-opacity:0.5;stroke-linecap:round;stroke-linejoin:round;;fill:none"/>
<polyline points="622.083,2582.91 755.943,2582.91 755.943,2323.07 622.083,2323.07 622.083,2582.91" style="stroke:rgb(0,0,0);stroke-width:1px;fill:none;stroke-opacity:1;stroke-linecap:round;stroke-linejoin:round;;fill:none"/>
<polyline points="822.083,2582.91 955.943,2582.91 955.943,2323.07 822.083,2323.07 822.083,2582.91" style="stroke:rgb(103,198,105);stroke-width:39.370079;fill:none;stroke-opacity:0.5;stroke-linecap:round;stroke-linejoin:round;;fill:none"/>
<polyline points="822.083,2582.91 955.943,2582.91 955.943,2323.07 822.083,2323.07 822.083,2582.91" style="stroke:rgb(0,0,0);stroke-width:1px;fill:none;stroke-opacity:1;stroke-linecap:round;stroke-linejoin:round;;fill:none"/>
<polyline points="1022.08,2582.91 1155.94,2582.91 1155.94,2323.07 1022.08,2323.07 1022.08,2582.91" style="stroke:rgb(103,198,105);stroke-width:39.370079;fill:none;stroke-opacity:0.5;stroke-linecap:round;stroke-linejoin:round;;fill:none"/>
<polyline points="1022.08,2582.91 1155.94,2582.91 1155.94,2323.07 1022.08,2323.07 1022.08,2582.91" style="stroke:rgb(0,0,0);stroke-width:1px;fill:none;stroke-opacity:1;stroke-linecap:round;stroke-linejoin:round;;fill:none"/>
<polyline points="1222.08,2582.91 1355.94,2582.91 1355.94,2323.07 1222.08,2323.07 1222.08,2582.91" style="stroke:rgb(103,198,105);stroke-width:39.370079;fill:none;stroke-opacity:0.5;stroke-linecap:round;stroke-linejoin:round;;fill:none"/>
<polyline points="1222.08,2582.91 1355.94,2582.91 1355.94,2323.07 1222.08,2323.07 1222.08,2582.91" style="stroke:rgb(0,0,0);stroke-width:1px;fill:none;stroke-opacity:1;stroke-linecap:round;stroke-linejoin:round;;fill:none"/>
<polyline points="1422.08,2582.91 1555.94,2582.91 1555.94,2323.07 1422.08,2323.07 1422.08,2582.91" style="stroke:rgb(103,198,105);stroke-width:39.370079;fill:none;stroke-opacity:0.5;stroke-linecap:round;stroke-linejoin:round;;fill:none"/>
<polyline points="1422.08,2582.91 1555.94,2582.91 1555.94,2323.07 1422.08,2323.07 1422.08,2582.91" style="stroke:rgb(0,0,0);stroke-width:1px;fill:none;stroke-opacity:1;stroke-linecap:round;stroke-linejoin:round;;fill:none"/>
<polyline points="1622.08,2582.91 1755.94,2582.91 1755.94,2323.07 1622.08,2323.07 1622.08,2582.91" style="stroke:rgb(103,198,105);stroke-width:39.370079;fill:none;stroke-opacity:0.5;stroke-linecap:round;stroke-linejoin:round;;fill:none"/>
<polyline points="1622.08,2582.91 1755.94,2582.91 1755.94,2323.07 1622.08,2323.07 1622.08,2582.91" style="stroke:rgb(0,0,0);stroke-width:1px;fill:none;stroke-opacity:1;stroke-linecap:round;stroke-linejoin:round;;fill:none"/>
<polyline points="1822.08,2582.91 1822.08,2323.07 1955.94,2323.07 1955.94,2582.91 1822.08,2582.91" style="stroke:rgb(103,198,105);stroke-width:39.370079;fill:none;stroke-opacity:0.5;stroke-linecap:round;stroke-linejoin:round;;fill:none"/>
<polyline points="1822.08,2582.91 1822.08,2323.07 1955.94,2323.07 1955.94,2582.91 1822.08,2582.91" style="stroke:rgb(0,0,0);stroke-width:1px;fill:none;stroke-opacity:1;stroke-linecap:round;stroke-linejoin:round;;fill:none"/>
<polyline points="2022.08,2582.91 2022.08,2323.07 2155.94,2323.07 2155.94,2582.91 2022.08,2582.91" style="stroke:rgb(103,198,105);stroke-width:39.370079;fill:none;stroke-opacity:0.5;stroke-linecap:round;stroke-linejoin:round;;fill:none"/>
<polyline points="2022.08,2582.91 2022.08,2323.07 2155.94,2323.07 2155.94,2582.91 2022.08,2582.91" style="stroke:rgb(0,0,0);stroke-width:1px;fill:none;stroke-opacity:1;stroke-linecap:round;stroke-linejoin:round;;fill:none"/>
<polyline points="2222.08,2582.91 2222.08,2323.07 2355.94,2323.07 2355.94,2582.91 2222.08,2582.91" style="stroke:rgb(103,198,105);stroke-width:39.370079;fill:none;stroke-opacity:0.5;stroke-linecap:round;stroke-linejoin:round;;fill:none"/>
<polyline points="2222.08,2582.91 2222.08,2323.07 2355.94,2323.07 2355.94,2582.91 2222.08,2582.91" style="stroke:rgb(0,0,0);stroke-width:1px;fill:none;stroke-opacity:1;stroke-linecap:round;stroke-linejoin:round;;fill:none"/>
<polyline points="2422.08,2582.91 2422.08,2323.07 2555.94,2323.07 2555.94,2582.91 2422.08,2582.91" style="stroke:rgb(103,198,105);stroke-width:39.370079;fill:none;stroke-opacity:0.5;stroke-linecap:round;stroke-linejoin:round;;fill:none"/>
<polyline points="2422.08,2582.91 2422.08,2323.07 2555.94,2323.07 2555.94,2582.91 2422.08,2582.91" style="stroke:rgb(0,0,0);stroke-width:1px;fill:none;stroke-opacity:1;stroke-linecap:round;stroke-linejoin:round;;fill:none"/>
<polyline points="2622.08,2582.91 2622.08,2323.07 2755.94,2323.07 2755.94,2582.91 2622.08,2582.91" style="stroke:rgb(103,198,105);stroke-width:39.370079;fill:none;stroke-opacity:0.5;stroke-linecap:round;stroke-linejoin:round;;fill:none"/>
<polyline points="2622.08,2582.91 2622.08,2323.07 2755.94,2323.07 2755.94,2582.91 2622.08,2582.91" style="stroke:rgb(0,0,0);stroke-width:1px;fill:none;stroke-opacity:1;stroke-linecap:round;stroke-linejoin:round;;fill:none"/>
<polyline points="2822.08,2582.91 2822.08,2323.07 2955.94,2323.07 2955.94,2582.91 2822.08,2582.91" style="stroke:rgb(103,198,105);stroke-width:39.370079;fill:none;stroke-opacity:0.5;stroke-linecap:round;stroke-linejoin:round;;fill:none"/>
<polyline points="2822.08,2582.91 2822.08,2323.07 2955.94,2323.07 2955.94,2582.91 2822.08,2582.91" style="stroke:rgb(0,0,0);stroke-width:1px;fill:none;stroke-opacity:1;stroke-linecap:round;stroke-linejoin:round;;fill:none"/>
<polyline points="3022.08,2582.91 3022.08,2323.07 3155.94,2323.07 3155.94,2582.91 3022.08,2582.91" style="stroke:rgb(103,198,105);stroke-width:39.370079;fill:none;stroke-opacity:0.5;stroke-linecap:round;stroke-linejoin:round;;fill:none"/>
<polyline points="3022.08,2582.91 3022.08,2323.07 3155.94,2323.07 3155.94,2582.91 3022.08,2582.91" style="stroke:rgb(0,0,0);stroke-width:1px;fill:none;stroke-opacity:1;stroke-linecap:round;stroke-linejoin:round;;fill:none"/>
<polyline points="3222.08,2582.91 3222.08,2323.07 3355.94,2323.07 3355.94,2582.91 3222.08,2582.91" style="stroke:rgb(103,198,105);stroke-width:39.370079;fill:none;stroke-opacity:0.5;stroke-linecap:round;stroke-linejoin:round;;fill:none"/>
<polyline points="3222.08,2582.91 3222.08,2323.07 3355.94,2323.07 3355.94,2582.91 3222.08,2582.91" style="stroke:rgb(0,0,0);stroke-width:1px;fill:none;stroke-opacity:1;stroke-linecap:round;stroke-linejoin:round;;fill:none"/>
<polyline points="3422.08,2582.91 3422.08,2323.07 3555.94,2323.07 3555.94,2582.91 3422.08,2582.91" style="stroke:rgb(103,198,105);stroke-width:39.370079;fill:none;stroke-opacity:0.5;stroke-linecap:round;stroke-linejoin:round;;fill:none"/>
<polyline points="3422.08,2582.91 3422.08,2323.07 3555.94,2323.07 3555.94,2582.91 3422.08,2582.91" style="stroke:rgb(0,0,0);stroke-width:1px;fill:none;stroke-opacity:1;stroke-linecap:round;stroke-linejoin:round;;fill:none"/>
<polyline points="3622.08,2582.91 3622.08,2323.07 3755.94,2323.07 3755.94,2582.91 3622.08,2582.91" style="stroke:rgb(103,198,105);stroke-width:39.370079;fill:none;stroke-opacity:0.5;stroke-linecap:round;stroke-linejoin:round;;fill:none"/>
<polyline points="3622.08,2582.91 3622.08,2323.07 3755.94,2323.07 3755.94,2582.91 3622.08,2582.91" style="stroke:rgb(0,0,0);stroke-width:1px;fill:none;stroke-opacity:1;stroke-linecap:round;stroke-linejoin:round;;fill:none"/>
<polyline points="3822.08,2582.91 3822.08,2323.07 3955.94,2323.07 3955.94,2582.91 3822.08,2582.91" style="stroke:rgb(103,198,105);stroke-width:39.370079;fill:none;stroke-opacity:0.5;stroke-linecap:round;stroke-linejoin:round;;fill:none"/>
<polyline points="3822.08,2582.91 3822.08,2323.07 3955.94,2323.07 3955.94,2582.91 3822.08,2582.91" style="stroke:rgb(0,0,0);stroke-width:1px;fill:none;stroke-opacity:1;stroke-linecap:round;stroke-linejoin:round;;fill:none"/>
</svg>
