<?xml version="1.0" standalone="no"?>
<!DOCTYPE svg PUBLIC "-//W3C//DTD SVG 1.1//EN"
"http://www.w3.org/Graphics/SVG/1.1/DTD/svg11.dtd">
<svg width="190.945" height="138.958" viewBox="0 0 3978.03 2894.96" version="1.1"
xmlns="http://www.w3.org/2000/svg"
xmlns:xlink="http://www.w3.org/1999/xlink">
<polyline points="22.0833,1346.89 22.0833,1087.04 155.943,1087.04 155.943,1346.89 22.0833,1346.89" style="stroke:rgb(103,198,105);stroke-width:39.370079;fill:none;stroke-opacity:0.5;stroke-linecap:round;stroke-linejoin:round;;fill:none"/>
<polyline points="22.0833,1346.89 22.0833,1087.04 155.943,1087.04 155.943,1346.89 22.0833,1346.89" style="stroke:rgb(0,0,0);stroke-width:1px;fill:none;stroke-opacity:1;stroke-linecap:round;stroke-linejoin:round;;fill:none"/>
<polyline points="222.083,1346.89 222.083,1087.04 355.943,1087.04 355.943,1346.89 222.083,1346.89" style="stroke:rgb(103,198,105);stroke-width:39.370079;fill:none;stroke-opacity:0.5;stroke-linecap:round;stroke-linejoin:round;;fill:none"/>
<polyline points="222.083,1346.89 222.083,1087.04 355.943,1087.04 355.943,1346.89 222.083,1346.89" style="stroke:rgb(0,0,0);stroke-width:1px;fill:none;stroke-opacity:1;stroke-linecap:round;stroke-linejoin:round;;fill:none"/>
<polyline points="422.083,1346.89 422.083,1087.04 555.941,1087.04 555.941,1346.89 422.083,1346.89" style="stroke:rgb(103,198,105);stroke-width:39.370079;fill:none;stroke-opacity:0.5;stroke-linecap:round;stroke-linejoin:round;;fill:none"/>
<polyline points="422.083,1346.89 422.083,1087.04 555.941,1087.04 555.941,1346.89 422.083,1346.89" style="stroke:rgb(0,0,0);stroke-width:1px;fill:none;stroke-opacity:1;stroke-linecap:round;stroke-linejoin:round;;fill:none"/>
<polyline points="622.083,1346.89 622.083,1087.04 755.943,1087.04 755.943,1346.89 622.083,1346.89" style="stroke:rgb(103,198,105);stroke-width:39.370079;fill:none;stroke-opacity:0.5;stroke-linecap:round;stroke-linejoin:round;;fill:none"/>
<polyline points="622.083,1346.89 622.083,1087.04 755.943,1087.04 755.943,1346.89 622.083,1346.89" style="stroke:rgb(0,0,0);stroke-width:1px;fill:none;stroke-opacity:1;stroke-linecap:round;stroke-linejoin:round;;fill:none"/>
<polyline points="822.083,1346.89 822.083,1087.04 955.943,1087.04 955.943,1346.89 822.083,1346.89" style="stroke:rgb(103,198,105);stroke-width:39.370079;fill:none;stroke-opacity:0.5;stroke-linecap:round;stroke-linejoin:round;;fill:none"/>
<polyline points="822.083,1346.89 822.083,1087.04 955.943,1087.04 955.943,1346.89 822.083,1346.89" style="stroke:rgb(0,0,0);stroke-width:1px;fill:none;stroke-opacity:1;stroke-linecap:round;stroke-linejoin:round;;fill:none"/>
<polyline points="1022.08,1346.89 1155.94,1346.89 1155.94,1087.04 1022.08,1087.04 1022.08,1346.89" style="stroke:rgb(103,198,105);stroke-width:39.370079;fill:none;stroke-opacity:0.5;stroke-linecap:round;stroke-linejoin:round;;fill:none"/>
<polyline points="1022.08,1346.89 1155.94,1346.89 1155.94,1087.04 1022.08,1087.04 1022.08,1346.89" style="stroke:rgb(0,0,0);stroke-width:1px;fill:none;stroke-opacity:1;stroke-linecap:round;stroke-linejoin:round;;fill:none"/>
<polyline points="1222.08,1346.89 1222.08,1087.04 1355.94,1087.04 1355.94,1346.89 1222.08,1346.89" style="stroke:rgb(103,198,105);stroke-width:39.370079;fill:none;stroke-opacity:0.5;stroke-linecap:round;stroke-linejoin:round;;fill:none"/>
<polyline points="1222.08,1346.89 1222.08,1087.04 1355.94,1087.04 1355.94,1346.89 1222.08,1346.89" style="stroke:rgb(0,0,0);stroke-width:1px;fill:none;stroke-opacity:1;stroke-linecap:round;stroke-linejoin:round;;fill:none"/>
<polyline points="1422.08,1346.89 1422.08,1087.04 1555.94,1087.04 1555.94,1346.89 1422.08,1346.89" style="stroke:rgb(103,198,105);stroke-width:39.370079;fill:none;stroke-opacity:0.5;stroke-linecap:round;stroke-linejoin:round;;fill:none"/>
<polyline points="1422.08,1346.89 1422.08,1087.04 1555.94,1087.04 1555.94,1346.89 1422.08,1346.89" style="stroke:rgb(0,0,0);stroke-width:1px;fill:none;stroke-opacity:1;stroke-linecap:round;stroke-linejoin:round;;fill:none"/>
<polyline points="1622.08,1346.89 1622.08,1087.04 1755.94,1087.04 1755.94,1346.89 1622.08,1346.89" style="stroke:rgb(103,198,105);stroke-width:39.370079;fill:none;stroke-opacity:0.5;stroke-linecap:round;stroke-linejoin:round;;fill:none"/>
<polyline points="1622.08,1346.89 1622.08,1087.04 1755.94,1087.04 1755.94,1346.89 1622.08,1346.89" style="stroke:rgb(0,0,0);stroke-width:1px;fill:none;stroke-opacity:1;stroke-linecap:round;stroke-linejoin:round;;fill:none"/>
<polyline points="1713.84,1006.54 1713.96,958.236 1812.19,958.254 1812.15,1007.18 1714.43,1007.28 1713.95,1007.19 1713.84,1006.54" style="stroke:rgb(103,198,105);stroke-width:39.370079;fill:none;stroke-opacity:0.5;stroke-linecap:round;stroke-linejoin:round;;fill:none"/>
<polyline points="1713.84,1006.54 1713.96,958.236 1812.19,958.254 1812.15,1007.18 1714.43,1007.28 1713.95,1007.19 1713.84,1006.54" style="stroke:rgb(0,0,0);stroke-width:1px;fill:none;stroke-opacity:1;stroke-linecap:round;stroke-linejoin:round;;fill:none"/>
<polyline points="1713.84,776.222 1713.96,727.92 1812.19,727.94 1812.15,776.87 1714.43,776.968 1713.95,776.88 1713.84,776.222" style="stroke:rgb(103,198,105);stroke-width:39.370079;fill:none;stroke-opacity:0.5;stroke-linecap:round;stroke-linejoin:round;;fill:none"/>
<polyline points="1713.84,776.222 1713.96,727.92 1812.19,727.94 1812.15,776.87 1714.43,776.968 1713.95,776.88 1713.84,776.222" style="stroke:rgb(0,0,0);stroke-width:1px;fill:none;stroke-opacity:1;stroke-linecap:round;stroke-linejoin:round;;fill:none"/>
<polyline points="1946.12,627.58 1946.33,628.284 1995.21,628.254 1995.18,530.08 1946.22,530.088 1946.12,627.58" style="stroke:rgb(103,198,105);stroke-width:39.370079;fill:none;stroke-opacity:0.5;stroke-linecap:round;stroke-linejoin:round;;fill:none"/>
<polyline points="1946.12,627.58 1946.33,628.284 1995.21,628.254 1995.18,530.08 1946.22,530.088 1946.12,627.58" style="stroke:rgb(0,0,0);stroke-width:1px;fill:none;stroke-opacity:1;stroke-linecap:round;stroke-linejoin:round;;fill:none"/>
<polyline points="2176.43,627.58 2176.64,628.284 2225.52,628.254 2225.5,530.08 2176.54,530.088 2176.43,627.58" style="stroke:rgb(103,198,105);stroke-width:39.370079;fill:none;stroke-opacity:0.5;stroke-linecap:round;stroke-linejoin:round;;fill:none"/>
<polyline points="2176.43,627.58 2176.64,628.284 2225.52,628.254 2225.5,530.08 2176.54,530.088 2176.43,627.58" style="stroke:rgb(0,0,0);stroke-width:1px;fill:none;stroke-opacity:1;stroke-linecap:round;stroke-linejoin:round;;fill:none"/>
<polyline points="2166.59,934.668 2166.8,935.37 2215.68,935.34 2215.66,837.166 2166.7,837.176 2166.59,934.668" style="stroke:rgb(103,198,105);stroke-width:39.370079;fill:none;stroke-opacity:0.5;stroke-linecap:round;stroke-linejoin:round;;fill:none"/>
<polyline points="2166.59,934.668 2166.8,935.37 2215.68,935.34 2215.66,837.166 2166.7,837.176 2166.59,934.668" style="stroke:rgb(0,0,0);stroke-width:1px;fill:none;stroke-opacity:1;stroke-linecap:round;stroke-linejoin:round;;fill:none"/>
<polyline points="2396.91,934.668 2397.11,935.37 2445.99,935.34 2445.97,837.166 2397.01,837.176 2396.91,934.668" style="stroke:rgb(103,198,105);stroke-width:39.370079;fill:none;stroke-opacity:0.5;stroke-linecap:round;stroke-linejoin:round;;fill:none"/>
<polyline points="2396.91,934.668 2397.11,935.37 2445.99,935.34 2445.97,837.166 2397.01,837.176 2396.91,934.668" style="stroke:rgb(0,0,0);stroke-width:1px;fill:none;stroke-opacity:1;stroke-linecap:round;stroke-linejoin:round;;fill:none"/>
<polyline points="2554.76,819.84 2566.57,819.84 2566.57,739.132 2554.76,739.132 2554.76,819.84" style="stroke:rgb(103,198,105);stroke-width:39.370079;fill:none;stroke-opacity:0.5;stroke-linecap:round;stroke-linejoin:round;;fill:none"/>
<polyline points="2554.76,819.84 2566.57,819.84 2566.57,739.132 2554.76,739.132 2554.76,819.84" style="stroke:rgb(0,0,0);stroke-width:1px;fill:none;stroke-opacity:1;stroke-linecap:round;stroke-linejoin:round;;fill:none"/>
<polyline points="2654.76,819.84 2666.57,819.84 2666.57,739.132 2654.76,739.132 2654.76,819.84" style="stroke:rgb(103,198,105);stroke-width:39.370079;fill:none;stroke-opacity:0.5;stroke-linecap:round;stroke-linejoin:round;;fill:none"/>
<polyline points="2654.76,819.84 2666.57,819.84 2666.57,739.132 2654.76,739.132 2654.76,819.84" style="stroke:rgb(0,0,0);stroke-width:1px;fill:none;stroke-opacity:1;stroke-linecap:round;stroke-linejoin:round;;fill:none"/>
<polyline points="2754.76,819.84 2766.57,819.84 2766.57,739.132 2754.76,739.132 2754.76,819.84" style="stroke:rgb(103,198,105);stroke-width:39.370079;fill:none;stroke-opacity:0.5;stroke-linecap:round;stroke-linejoin:round;;fill:none"/>
<polyline points="2754.76,819.84 2766.57,819.84 2766.57,739.132 2754.76,739.132 2754.76,819.84" style="stroke:rgb(0,0,0);stroke-width:1px;fill:none;stroke-opacity:1;stroke-linecap:round;stroke-linejoin:round;;fill:none"/>
<polyline points="2854.76,819.84 2866.57,819.84 2866.57,739.132 2854.76,739.132 2854.76,819.84" style="stroke:rgb(103,198,105);stroke-width:39.370079;fill:none;stroke-opacity:0.5;stroke-linecap:round;stroke-linejoin:round;;fill:none"/>
<polyline points="2854.76,819.84 2866.57,819.84 2866.57,739.132 2854.76,739.132 2854.76,819.84" style="stroke:rgb(0,0,0);stroke-width:1px;fill:none;stroke-opacity:1;stroke-linecap:round;stroke-linejoin:round;;fill:none"/>
<polyline points="2294.53,356.73 2365.39,356.73 2365.39,329.17 2294.53,329.17 2294.53,356.73" style="stroke:rgb(103,198,105);stroke-width:39.370079;fill:none;stroke-opacity:0.5;stroke-linecap:round;stroke-linejoin:round;;fill:none"/>
<polyline points="2294.53,356.73 2365.39,356.73 2365.39,329.17 2294.53,329.17 2294.53,356.73" style="stroke:rgb(0,0,0);stroke-width:1px;fill:none;stroke-opacity:1;stroke-linecap:round;stroke-linejoin:round;;fill:none"/>
<polyline points="1985.49,302.802 1985.6,303.454 1986.08,303.544 2060.15,303.448 2060.21,264.344 1985.61,264.338 1985.49,302.802" style="stroke:rgb(103,198,105);stroke-width:39.370079;fill:none;stroke-opacity:0.5;stroke-linecap:round;stroke-linejoin:round;;fill:none"/>
<polyline points="1985.49,302.802 1985.6,303.454 1986.08,303.544 2060.15,303.448 2060.21,264.344 1985.61,264.338 1985.49,302.802" style="stroke:rgb(0,0,0);stroke-width:1px;fill:none;stroke-opacity:1;stroke-linecap:round;stroke-linejoin:round;;fill:none"/>
<polyline points="1985.49,153.196 1985.6,153.848 1986.08,153.938 2060.15,153.842 2060.21,114.736 1985.61,114.732 1985.49,153.196" style="stroke:rgb(103,198,105);stroke-width:39.370079;fill:none;stroke-opacity:0.5;stroke-linecap:round;stroke-linejoin:round;;fill:none"/>
<polyline points="1985.49,153.196 1985.6,153.848 1986.08,153.938 2060.15,153.842 2060.21,114.736 1985.61,114.732 1985.49,153.196" style="stroke:rgb(0,0,0);stroke-width:1px;fill:none;stroke-opacity:1;stroke-linecap:round;stroke-linejoin:round;;fill:none"/>
<polyline points="2294.53,49.6423 2365.39,49.6423 2365.39,22.0843 2294.53,22.0843 2294.53,49.6423" style="stroke:rgb(103,198,105);stroke-width:39.370079;fill:none;stroke-opacity:0.5;stroke-linecap:round;stroke-linejoin:round;;fill:none"/>
<polyline points="2294.53,49.6423 2365.39,49.6423 2365.39,22.0843 2294.53,22.0843 2294.53,49.6423" style="stroke:rgb(0,0,0);stroke-width:1px;fill:none;stroke-opacity:1;stroke-linecap:round;stroke-linejoin:round;;fill:none"/>
<polyline points="2554.76,392.754 2554.76,312.044 2566.57,312.044 2566.57,392.754 2554.76,392.754" style="stroke:rgb(103,198,105);stroke-width:39.370079;fill:none;stroke-opacity:0.5;stroke-linecap:round;stroke-linejoin:round;;fill:none"/>
<polyline points="2554.76,392.754 2554.76,312.044 2566.57,312.044 2566.57,392.754 2554.76,392.754" style="stroke:rgb(0,0,0);stroke-width:1px;fill:none;stroke-opacity:1;stroke-linecap:round;stroke-linejoin:round;;fill:none"/>
<polyline points="2654.76,392.754 2654.76,312.044 2666.57,312.044 2666.57,392.754 2654.76,392.754" style="stroke:rgb(103,198,105);stroke-width:39.370079;fill:none;stroke-opacity:0.5;stroke-linecap:round;stroke-linejoin:round;;fill:none"/>
<polyline points="2654.76,392.754 2654.76,312.044 2666.57,312.044 2666.57,392.754 2654.76,392.754" style="stroke:rgb(0,0,0);stroke-width:1px;fill:none;stroke-opacity:1;stroke-linecap:round;stroke-linejoin:round;;fill:none"/>
<polyline points="2754.76,392.754 2754.76,312.044 2766.57,312.044 2766.57,392.754 2754.76,392.754" style="stroke:rgb(103,198,105);stroke-width:39.370079;fill:none;stroke-opacity:0.5;stroke-linecap:round;stroke-linejoin:round;;fill:none"/>
<polyline points="2754.76,392.754 2754.76,312.044 2766.57,312.044 2766.57,392.754 2754.76,392.754" style="stroke:rgb(0,0,0);stroke-width:1px;fill:none;stroke-opacity:1;stroke-linecap:round;stroke-linejoin:round;;fill:none"/>
<polyline points="2854.76,392.754 2854.76,312.044 2866.57,312.044 2866.57,392.754 2854.76,392.754" style="stroke:rgb(103,198,105);stroke-width:39.370079;fill:none;stroke-opacity:0.5;stroke-linecap:round;stroke-linejoin:round;;fill:none"/>
<polyline points="2854.76,392.754 2854.76,312.044 2866.57,312.044 2866.57,392.754 2854.76,392.754" style="stroke:rgb(0,0,0);stroke-width:1px;fill:none;stroke-opacity:1;stroke-linecap:round;stroke-linejoin:round;;fill:none"/>
<polyline points="3081.95,361.852 3082.06,362.51 3082.54,362.598 3184.17,362.504 3184.24,311.624 3082.07,311.582 3081.95,361.852" style="stroke:rgb(103,198,105);stroke-width:39.370079;fill:none;stroke-opacity:0.5;stroke-linecap:round;stroke-linejoin:round;;fill:none"/>
<polyline points="3081.95,361.852 3082.06,362.51 3082.54,362.598 3184.17,362.504 3184.24,311.624 3082.07,311.582 3081.95,361.852" style="stroke:rgb(0,0,0);stroke-width:1px;fill:none;stroke-opacity:1;stroke-linecap:round;stroke-linejoin:round;;fill:none"/>
<polyline points="3081.95,594.136 3082.07,543.866 3184.24,543.908 3184.17,594.788 3082.54,594.882 3082.06,594.792 3081.95,594.136" style="stroke:rgb(103,198,105);stroke-width:39.370079;fill:none;stroke-opacity:0.5;stroke-linecap:round;stroke-linejoin:round;;fill:none"/>
<polyline points="3081.95,594.136 3082.07,543.866 3184.24,543.908 3184.17,594.788 3082.54,594.882 3082.06,594.792 3081.95,594.136" style="stroke:rgb(0,0,0);stroke-width:1px;fill:none;stroke-opacity:1;stroke-linecap:round;stroke-linejoin:round;;fill:none"/>
<polyline points="3094.98,757.778 3169.58,757.782 3169.59,718.666 3095.04,718.672 3094.98,757.778" style="stroke:rgb(103,198,105);stroke-width:39.370079;fill:none;stroke-opacity:0.5;stroke-linecap:round;stroke-linejoin:round;;fill:none"/>
<polyline points="3094.98,757.778 3169.58,757.782 3169.59,718.666 3095.04,718.672 3094.98,757.778" style="stroke:rgb(0,0,0);stroke-width:1px;fill:none;stroke-opacity:1;stroke-linecap:round;stroke-linejoin:round;;fill:none"/>
<polyline points="3094.98,907.384 3169.58,907.388 3169.59,868.272 3095.04,868.278 3094.98,907.384" style="stroke:rgb(103,198,105);stroke-width:39.370079;fill:none;stroke-opacity:0.5;stroke-linecap:round;stroke-linejoin:round;;fill:none"/>
<polyline points="3094.98,907.384 3169.58,907.388 3169.59,868.272 3095.04,868.278 3094.98,907.384" style="stroke:rgb(0,0,0);stroke-width:1px;fill:none;stroke-opacity:1;stroke-linecap:round;stroke-linejoin:round;;fill:none"/>
<polyline points="3475.65,639.8 3475.75,589.144 3577.86,589.138 3577.85,640.066 3476.24,640.158 3475.7,640.058 3475.65,639.8" style="stroke:rgb(103,198,105);stroke-width:39.370079;fill:none;stroke-opacity:0.5;stroke-linecap:round;stroke-linejoin:round;;fill:none"/>
<polyline points="3475.65,639.8 3475.75,589.144 3577.86,589.138 3577.85,640.066 3476.24,640.158 3475.7,640.058 3475.65,639.8" style="stroke:rgb(0,0,0);stroke-width:1px;fill:none;stroke-opacity:1;stroke-linecap:round;stroke-linejoin:round;;fill:none"/>
<polyline points="3475.65,872.084 3475.75,821.428 3577.86,821.422 3577.85,872.348 3476.24,872.442 3475.7,872.342 3475.65,872.084" style="stroke:rgb(103,198,105);stroke-width:39.370079;fill:none;stroke-opacity:0.5;stroke-linecap:round;stroke-linejoin:round;;fill:none"/>
<polyline points="3475.65,872.084 3475.75,821.428 3577.86,821.422 3577.85,872.348 3476.24,872.442 3475.7,872.342 3475.65,872.084" style="stroke:rgb(0,0,0);stroke-width:1px;fill:none;stroke-opacity:1;stroke-linecap:round;stroke-linejoin:round;;fill:none"/>
<polyline points="3822.08,1346.89 3955.94,1346.89 3955.94,1087.04 3822.08,1087.04 3822.08,1346.89" style="stroke:rgb(103,198,105);stroke-width:39.370079;fill:none;stroke-opacity:0.5;stroke-linecap:round;stroke-linejoin:round;;fill:none"/>
<polyline points="3822.08,1346.89 3955.94,1346.89 3955.94,1087.04 3822.08,1087.04 3822.08,1346.89" style="stroke:rgb(0,0,0);stroke-width:1px;fill:none;stroke-opacity:1;stroke-linecap:round;stroke-linejoin:round;;fill:none"/>
<polyline points="3622.08,1346.89 3755.94,1346.89 3755.94,1087.04 3622.08,1087.04 3622.08,1346.89" style="stroke:rgb(103,198,105);stroke-width:39.370079;fill:none;stroke-opacity:0.5;stroke-linecap:round;stroke-linejoin:round;;fill:none"/>
<polyline points="3622.08,1346.89 3755.94,1346.89 3755.94,1087.04 3622.08,1087.04 3622.08,1346.89" style="stroke:rgb(0,0,0);stroke-width:1px;fill:none;stroke-opacity:1;stroke-linecap:round;stroke-linejoin:round;;fill:none"/>
<polyline points="3422.08,1346.89 3555.94,1346.89 3555.94,1087.04 3422.08,1087.04 3422.08,1346.89" style="stroke:rgb(103,198,105);stroke-width:39.370079;fill:none;stroke-opacity:0.5;stroke-linecap:round;stroke-linejoin:round;;fill:none"/>
<polyline points="3422.08,1346.89 3555.94,1346.89 3555.94,1087.04 3422.08,1087.04 3422.08,1346.89" style="stroke:rgb(0,0,0);stroke-width:1px;fill:none;stroke-opacity:1;stroke-linecap:round;stroke-linejoin:round;;fill:none"/>
<polyline points="3222.08,1346.89 3355.94,1346.89 3355.94,1087.04 3222.08,1087.04 3222.08,1346.89" style="stroke:rgb(103,198,105);stroke-width:39.370079;fill:none;stroke-opacity:0.5;stroke-linecap:round;stroke-linejoin:round;;fill:none"/>
<polyline points="3222.08,1346.89 3355.94,1346.89 3355.94,1087.04 3222.08,1087.04 3222.08,1346.89" style="stroke:rgb(0,0,0);stroke-width:1px;fill:none;stroke-opacity:1;stroke-linecap:round;stroke-linejoin:round;;fill:none"/>
<polyline points="3022.08,1346.89 3155.94,1346.89 3155.94,1087.04 3022.08,1087.04 3022.08,1346.89" style="stroke:rgb(103,198,105);stroke-width:39.370079;fill:none;stroke-opacity:0.5;stroke-linecap:round;stroke-linejoin:round;;fill:none"/>
<polyline points="3022.08,1346.89 3155.94,1346.89 3155.94,1087.04 3022.08,1087.04 3022.08,1346.89" style="stroke:rgb(0,0,0);stroke-width:1px;fill:none;stroke-opacity:1;stroke-linecap:round;stroke-linejoin:round;;fill:none"/>
<polyline points="2822.08,1346.89 2955.94,1346.89 2955.94,1087.04 2822.08,1087.04 2822.08,1346.89" style="stroke:rgb(103,198,105);stroke-width:39.370079;fill:none;stroke-opacity:0.5;stroke-linecap:round;stroke-linejoin:round;;fill:none"/>
<polyline points="2822.08,1346.89 2955.94,1346.89 2955.94,1087.04 2822.08,1087.04 2822.08,1346.89" style="stroke:rgb(0,0,0);stroke-width:1px;fill:none;stroke-opacity:1;stroke-linecap:round;stroke-linejoin:round;;fill:none"/>
<polyline points="2622.08,1346.89 2755.94,1346.89 2755.94,1087.04 2622.08,1087.04 2622.08,1346.89" style="stroke:rgb(103,198,105);stroke-width:39.370079;fill:none;stroke-opacity:0.5;stroke-linecap:round;stroke-linejoin:round;;fill:none"/>
<polyline points="2622.08,1346.89 2755.94,1346.89 2755.94,1087.04 2622.08,1087.04 2622.08,1346.89" style="stroke:rgb(0,0,0);stroke-width:1px;fill:none;stroke-opacity:1;stroke-linecap:round;stroke-linejoin:round;;fill:none"/>
<polyline points="2422.08,1346.89 2555.94,1346.89 2555.94,1087.04 2422.08,1087.04 2422.08,1346.89" style="stroke:rgb(103,198,105);stroke-width:39.370079;fill:none;stroke-opacity:0.5;stroke-linecap:round;stroke-linejoin:round;;fill:none"/>
<polyline points="2422.08,1346.89 2555.94,1346.89 2555.94,1087.04 2422.08,1087.04 2422.08,1346.89" style="stroke:rgb(0,0,0);stroke-width:1px;fill:none;stroke-opacity:1;stroke-linecap:round;stroke-linejoin:round;;fill:none"/>
<polyline points="2395.54,1533.9 2395.77,1538.33 2396.45,1542.65 2397.58,1546.94 2398.89,1550.47 2400.51,1553.86 2402.84,1557.71 2405.05,1560.68 2408.03,1563.96 2411.33,1566.92 2414.31,1569.11 2418.12,1571.38 2422.09,1573.22 2426.29,1574.65 2429.89,1575.5 2434.35,1576.11 2438.04,1576.26 2442.47,1576 2446.79,1575.3 2451.07,1574.13 2454.53,1572.82 2458.56,1570.83 2461.7,1568.88 2465.27,1566.15 2468.03,1563.58 2470.54,1560.78 2473.16,1557.2 2475.41,1553.38 2476.96,1550.02 2478.44,1545.77 2479.32,1542.18 2479.96,1537.72 2480.12,1534.03 2479.9,1529.6 2479.22,1525.28 2478.09,1520.99 2476.78,1517.46 2475.15,1514.07 2472.83,1510.22 2470.62,1507.25 2467.64,1503.97 2464.33,1501.01 2461.35,1498.82 2457.54,1496.55 2453.57,1494.72 2449.38,1493.28 2445.78,1492.43 2441.32,1491.82 2437.62,1491.67 2433.2,1491.93 2428.88,1492.64 2424.6,1493.8 2421.14,1495.11 2417.11,1497.1 2413.96,1499.05 2410.39,1501.79 2407.64,1504.35 2405.13,1507.15 2402.5,1510.73 2400.26,1514.55 2398.71,1517.91 2397.22,1522.16 2396.35,1525.75 2395.71,1530.21 2395.54,1533.9" style="stroke:rgb(103,198,105);stroke-width:39.370079;fill:none;stroke-opacity:0.5;stroke-linecap:round;stroke-linejoin:round;;fill:none"/>
<polyline points="2395.54,1533.9 2395.77,1538.33 2396.45,1542.65 2397.58,1546.94 2398.89,1550.47 2400.51,1553.86 2402.84,1557.71 2405.05,1560.68 2408.03,1563.96 2411.33,1566.92 2414.31,1569.11 2418.12,1571.38 2422.09,1573.22 2426.29,1574.65 2429.89,1575.5 2434.35,1576.11 2438.04,1576.26 2442.47,1576 2446.79,1575.3 2451.07,1574.13 2454.53,1572.82 2458.56,1570.83 2461.7,1568.88 2465.27,1566.15 2468.03,1563.58 2470.54,1560.78 2473.16,1557.2 2475.41,1553.38 2476.96,1550.02 2478.44,1545.77 2479.32,1542.18 2479.96,1537.72 2480.12,1534.03 2479.9,1529.6 2479.22,1525.28 2478.09,1520.99 2476.78,1517.46 2475.15,1514.07 2472.83,1510.22 2470.62,1507.25 2467.64,1503.97 2464.33,1501.01 2461.35,1498.82 2457.54,1496.55 2453.57,1494.72 2449.38,1493.28 2445.78,1492.43 2441.32,1491.82 2437.62,1491.67 2433.2,1491.93 2428.88,1492.64 2424.6,1493.8 2421.14,1495.11 2417.11,1497.1 2413.96,1499.05 2410.39,1501.79 2407.64,1504.35 2405.13,1507.15 2402.5,1510.73 2400.26,1514.55 2398.71,1517.91 2397.22,1522.16 2396.35,1525.75 2395.71,1530.21 2395.54,1533.9" style="stroke:rgb(0,0,0);stroke-width:1px;fill:none;stroke-opacity:1;stroke-linecap:round;stroke-linejoin:round;;fill:none"/>
<polyline points="2395.54,1733.9 2395.71,1730.21 2396.35,1725.75 2397.22,1722.16 2398.71,1717.91 2400.26,1714.55 2402.5,1710.73 2405.13,1707.15 2407.64,1704.35 2410.39,1701.79 2413.96,1699.05 2417.11,1697.1 2421.08,1695.14 2425.24,1693.59 2428.82,1692.65 2433.2,1691.93 2437.62,1691.67 2441.32,1691.82 2445.78,1692.43 2449.38,1693.28 2453.57,1694.72 2457.54,1696.55 2461.35,1698.82 2464.33,1701.01 2467.64,1703.97 2470.62,1707.25 2472.83,1710.22 2475.15,1714.07 2476.78,1717.46 2478.09,1720.99 2479.22,1725.28 2479.9,1729.6 2480.12,1734.03 2479.96,1737.72 2479.32,1742.18 2478.44,1745.77 2476.96,1750.02 2475.41,1753.38 2473.16,1757.2 2470.54,1760.78 2468.03,1763.58 2465.27,1766.15 2461.7,1768.88 2458.56,1770.83 2454.58,1772.8 2450.42,1774.34 2446.85,1775.29 2442.47,1776 2438.04,1776.26 2434.35,1776.11 2429.95,1775.51 2425.64,1774.46 2422.15,1773.24 2418.12,1771.38 2414.31,1769.11 2411.33,1766.92 2408.03,1763.96 2405.05,1760.68 2402.84,1757.71 2400.51,1753.86 2398.89,1750.47 2397.58,1746.94 2396.45,1742.65 2395.77,1738.33 2395.54,1733.9" style="stroke:rgb(103,198,105);stroke-width:39.370079;fill:none;stroke-opacity:0.5;stroke-linecap:round;stroke-linejoin:round;;fill:none"/>
<polyline points="2395.54,1733.9 2395.71,1730.21 2396.35,1725.75 2397.22,1722.16 2398.71,1717.91 2400.26,1714.55 2402.5,1710.73 2405.13,1707.15 2407.64,1704.35 2410.39,1701.79 2413.96,1699.05 2417.11,1697.1 2421.08,1695.14 2425.24,1693.59 2428.82,1692.65 2433.2,1691.93 2437.62,1691.67 2441.32,1691.82 2445.78,1692.43 2449.38,1693.28 2453.57,1694.72 2457.54,1696.55 2461.35,1698.82 2464.33,1701.01 2467.64,1703.97 2470.62,1707.25 2472.83,1710.22 2475.15,1714.07 2476.78,1717.46 2478.09,1720.99 2479.22,1725.28 2479.9,1729.6 2480.12,1734.03 2479.96,1737.72 2479.32,1742.18 2478.44,1745.77 2476.96,1750.02 2475.41,1753.38 2473.16,1757.2 2470.54,1760.78 2468.03,1763.58 2465.27,1766.15 2461.7,1768.88 2458.56,1770.83 2454.58,1772.8 2450.42,1774.34 2446.85,1775.29 2442.47,1776 2438.04,1776.26 2434.35,1776.11 2429.95,1775.51 2425.64,1774.46 2422.15,1773.24 2418.12,1771.38 2414.31,1769.11 2411.33,1766.92 2408.03,1763.96 2405.05,1760.68 2402.84,1757.71 2400.51,1753.86 2398.89,1750.47 2397.58,1746.94 2396.45,1742.65 2395.77,1738.33 2395.54,1733.9" style="stroke:rgb(0,0,0);stroke-width:1px;fill:none;stroke-opacity:1;stroke-linecap:round;stroke-linejoin:round;;fill:none"/>
<polyline points="2395.52,1976.25 2395.52,1891.65 2480.15,1891.66 2480.13,1976.28 2395.52,1976.25" style="stroke:rgb(103,198,105);stroke-width:39.370079;fill:none;stroke-opacity:0.5;stroke-linecap:round;stroke-linejoin:round;;fill:none"/>
<polyline points="2395.52,1976.25 2395.52,1891.65 2480.15,1891.66 2480.13,1976.28 2395.52,1976.25" style="stroke:rgb(0,0,0);stroke-width:1px;fill:none;stroke-opacity:1;stroke-linecap:round;stroke-linejoin:round;;fill:none"/>
<polyline points="2222.08,1346.89 2355.94,1346.89 2355.94,1087.04 2222.08,1087.04 2222.08,1346.89" style="stroke:rgb(103,198,105);stroke-width:39.370079;fill:none;stroke-opacity:0.5;stroke-linecap:round;stroke-linejoin:round;;fill:none"/>
<polyline points="2222.08,1346.89 2355.94,1346.89 2355.94,1087.04 2222.08,1087.04 2222.08,1346.89" style="stroke:rgb(0,0,0);stroke-width:1px;fill:none;stroke-opacity:1;stroke-linecap:round;stroke-linejoin:round;;fill:none"/>
<polyline points="2022.08,1346.89 2155.94,1346.89 2155.94,1087.04 2022.08,1087.04 2022.08,1346.89" style="stroke:rgb(103,198,105);stroke-width:39.370079;fill:none;stroke-opacity:0.5;stroke-linecap:round;stroke-linejoin:round;;fill:none"/>
<polyline points="2022.08,1346.89 2155.94,1346.89 2155.94,1087.04 2022.08,1087.04 2022.08,1346.89" style="stroke:rgb(0,0,0);stroke-width:1px;fill:none;stroke-opacity:1;stroke-linecap:round;stroke-linejoin:round;;fill:none"/>
<polyline points="1822.08,1346.89 1822.08,1087.04 1955.94,1087.04 1955.94,1346.89 1822.08,1346.89" style="stroke:rgb(103,198,105);stroke-width:39.370079;fill:none;stroke-opacity:0.5;stroke-linecap:round;stroke-linejoin:round;;fill:none"/>
<polyline points="1822.08,1346.89 1822.08,1087.04 1955.94,1087.04 1955.94,1346.89 1822.08,1346.89" style="stroke:rgb(0,0,0);stroke-width:1px;fill:none;stroke-opacity:1;stroke-linecap:round;stroke-linejoin:round;;fill:none"/>
<polyline points="1083.5,2211.33 1083.65,2212.87 1084.26,2214.39 1085.25,2215.42 1087.01,2216.08 1157.43,2216.17 1159.85,2215.75 1161.24,2214.74 1161.85,2213.77 1162.19,2212.33 1162.23,2141.91 1161.98,2140.09 1161.49,2139.13 1159.96,2137.86 1158.22,2137.46 1088.09,2137.45 1085.67,2137.95 1084.54,2138.83 1083.92,2139.78 1083.59,2141.06 1083.5,2211.33" style="stroke:rgb(103,198,105);stroke-width:39.370079;fill:none;stroke-opacity:0.5;stroke-linecap:round;stroke-linejoin:round;;fill:none"/>
<polyline points="1083.5,2211.33 1083.65,2212.87 1084.26,2214.39 1085.25,2215.42 1087.01,2216.08 1157.43,2216.17 1159.85,2215.75 1161.24,2214.74 1161.85,2213.77 1162.19,2212.33 1162.23,2141.91 1161.98,2140.09 1161.49,2139.13 1159.96,2137.86 1158.22,2137.46 1088.09,2137.45 1085.67,2137.95 1084.54,2138.83 1083.92,2139.78 1083.59,2141.06 1083.5,2211.33" style="stroke:rgb(0,0,0);stroke-width:1px;fill:none;stroke-opacity:1;stroke-linecap:round;stroke-linejoin:round;;fill:none"/>
<polyline points="886.651,2211.33 886.797,2212.87 887.411,2214.39 888.395,2215.42 890.157,2216.08 960.581,2216.17 963.003,2215.75 964.393,2214.74 965.003,2213.77 965.337,2212.33 965.377,2141.91 965.129,2140.09 964.633,2139.13 963.111,2137.86 961.367,2137.46 891.239,2137.45 888.819,2137.95 887.691,2138.83 887.065,2139.78 886.733,2141.06 886.651,2211.33" style="stroke:rgb(103,198,105);stroke-width:39.370079;fill:none;stroke-opacity:0.5;stroke-linecap:round;stroke-linejoin:round;;fill:none"/>
<polyline points="886.651,2211.33 886.797,2212.87 887.411,2214.39 888.395,2215.42 890.157,2216.08 960.581,2216.17 963.003,2215.75 964.393,2214.74 965.003,2213.77 965.337,2212.33 965.377,2141.91 965.129,2140.09 964.633,2139.13 963.111,2137.86 961.367,2137.46 891.239,2137.45 888.819,2137.95 887.691,2138.83 887.065,2139.78 886.733,2141.06 886.651,2211.33" style="stroke:rgb(0,0,0);stroke-width:1px;fill:none;stroke-opacity:1;stroke-linecap:round;stroke-linejoin:round;;fill:none"/>
<polyline points="300.473,1788.1 300.711,1792.34 301.769,1796.44 303.609,1800.26 306.159,1803.65 309.321,1806.48 313.313,1808.78 317.635,1810.18 322.631,1810.67 353.699,1810.65 357.495,1810.25 360.713,1809.4 363.759,1808.06 366.683,1806.19 368.647,1804.51 370.479,1802.49 373.159,1798.18 374.199,1795.51 375.141,1790.53 375.161,1787.8 374.287,1782.8 373.309,1780.18 372.041,1777.77 370.479,1775.54 368.647,1773.52 364.565,1770.39 360.147,1768.41 355.633,1767.5 322.363,1767.37 318.259,1767.74 313.743,1769.06 309.819,1771.2 307.903,1772.69 304.583,1776.31 302.467,1779.9 301.667,1781.87 301.065,1783.9 300.473,1788.1" style="stroke:rgb(103,198,105);stroke-width:39.370079;fill:none;stroke-opacity:0.5;stroke-linecap:round;stroke-linejoin:round;;fill:none"/>
<polyline points="300.473,1788.1 300.711,1792.34 301.769,1796.44 303.609,1800.26 306.159,1803.65 309.321,1806.48 313.313,1808.78 317.635,1810.18 322.631,1810.67 353.699,1810.65 357.495,1810.25 360.713,1809.4 363.759,1808.06 366.683,1806.19 368.647,1804.51 370.479,1802.49 373.159,1798.18 374.199,1795.51 375.141,1790.53 375.161,1787.8 374.287,1782.8 373.309,1780.18 372.041,1777.77 370.479,1775.54 368.647,1773.52 364.565,1770.39 360.147,1768.41 355.633,1767.5 322.363,1767.37 318.259,1767.74 313.743,1769.06 309.819,1771.2 307.903,1772.69 304.583,1776.31 302.467,1779.9 301.667,1781.87 301.065,1783.9 300.473,1788.1" style="stroke:rgb(0,0,0);stroke-width:1px;fill:none;stroke-opacity:1;stroke-linecap:round;stroke-linejoin:round;;fill:none"/>
<polyline points="48.0933,1765.71 48.1893,1763.26 49.0773,1758.67 50.1193,1755.87 51.6633,1752.94 53.3233,1750.6 55.2993,1748.43 57.5273,1746.53 59.9753,1744.92 62.5533,1743.65 65.7373,1742.57 68.1833,1742.07 71.5493,1741.78 126.087,1741.77 130.259,1742.08 133.743,1742.86 136.437,1743.86 138.707,1745.02 141.183,1746.69 143.391,1748.62 145.379,1750.85 146.841,1752.94 148.251,1755.57 149.323,1758.36 149.951,1760.83 150.337,1763.79 150.355,1766.72 150.001,1769.69 149.401,1772.17 148.361,1774.97 147.007,1777.57 145.247,1780.11 142.183,1783.29 138.529,1785.87 136.339,1786.98 132.357,1788.33 126.521,1789.01 71.6033,1789 67.9753,1788.67 64.6993,1787.92 62.5473,1787.15 58.8773,1785.21 55.3293,1782.4 52.2013,1778.69 49.9153,1774.48 48.5893,1770.21 48.0933,1765.71" style="stroke:rgb(103,198,105);stroke-width:39.370079;fill:none;stroke-opacity:0.5;stroke-linecap:round;stroke-linejoin:round;;fill:none"/>
<polyline points="48.0933,1765.71 48.1893,1763.26 49.0773,1758.67 50.1193,1755.87 51.6633,1752.94 53.3233,1750.6 55.2993,1748.43 57.5273,1746.53 59.9753,1744.92 62.5533,1743.65 65.7373,1742.57 68.1833,1742.07 71.5493,1741.78 126.087,1741.77 130.259,1742.08 133.743,1742.86 136.437,1743.86 138.707,1745.02 141.183,1746.69 143.391,1748.62 145.379,1750.85 146.841,1752.94 148.251,1755.57 149.323,1758.36 149.951,1760.83 150.337,1763.79 150.355,1766.72 150.001,1769.69 149.401,1772.17 148.361,1774.97 147.007,1777.57 145.247,1780.11 142.183,1783.29 138.529,1785.87 136.339,1786.98 132.357,1788.33 126.521,1789.01 71.6033,1789 67.9753,1788.67 64.6993,1787.92 62.5473,1787.15 58.8773,1785.21 55.3293,1782.4 52.2013,1778.69 49.9153,1774.48 48.5893,1770.21 48.0933,1765.71" style="stroke:rgb(0,0,0);stroke-width:1px;fill:none;stroke-opacity:1;stroke-linecap:round;stroke-linejoin:round;;fill:none"/>
<polyline points="36.2593,1935.74 36.3413,1865.47 36.6713,1864.19 37.4033,1863.11 38.5853,1862.3 40.8453,1861.86 110.973,1861.87 112.717,1862.27 114.241,1863.54 114.895,1865.11 114.983,1865.98 114.943,1936.74 114.609,1938.18 113.999,1939.14 112.609,1940.16 110.187,1940.59 39.7653,1940.49 38.0033,1939.84 37.0173,1938.8 36.4033,1937.28 36.2593,1935.74" style="stroke:rgb(103,198,105);stroke-width:39.370079;fill:none;stroke-opacity:0.5;stroke-linecap:round;stroke-linejoin:round;;fill:none"/>
<polyline points="36.2593,1935.74 36.3413,1865.47 36.6713,1864.19 37.4033,1863.11 38.5853,1862.3 40.8453,1861.86 110.973,1861.87 112.717,1862.27 114.241,1863.54 114.895,1865.11 114.983,1865.98 114.943,1936.74 114.609,1938.18 113.999,1939.14 112.609,1940.16 110.187,1940.59 39.7653,1940.49 38.0033,1939.84 37.0173,1938.8 36.4033,1937.28 36.2593,1935.74" style="stroke:rgb(0,0,0);stroke-width:1px;fill:none;stroke-opacity:1;stroke-linecap:round;stroke-linejoin:round;;fill:none"/>
<polyline points="36.2593,2093.22 36.3413,2022.95 36.6713,2021.67 37.2973,2020.72 38.8533,2019.65 40.8453,2019.33 110.973,2019.35 112.717,2019.75 114.205,2020.99 114.895,2022.59 114.983,2023.46 114.943,2094.22 114.609,2095.66 113.999,2096.63 112.609,2097.64 110.187,2098.07 39.7653,2097.97 38.0033,2097.31 37.0173,2096.28 36.4033,2094.76 36.2593,2093.22" style="stroke:rgb(103,198,105);stroke-width:39.370079;fill:none;stroke-opacity:0.5;stroke-linecap:round;stroke-linejoin:round;;fill:none"/>
<polyline points="36.2593,2093.22 36.3413,2022.95 36.6713,2021.67 37.2973,2020.72 38.8533,2019.65 40.8453,2019.33 110.973,2019.35 112.717,2019.75 114.205,2020.99 114.895,2022.59 114.983,2023.46 114.943,2094.22 114.609,2095.66 113.999,2096.63 112.609,2097.64 110.187,2098.07 39.7653,2097.97 38.0033,2097.31 37.0173,2096.28 36.4033,2094.76 36.2593,2093.22" style="stroke:rgb(0,0,0);stroke-width:1px;fill:none;stroke-opacity:1;stroke-linecap:round;stroke-linejoin:round;;fill:none"/>
<polyline points="48.0933,2194.85 48.1893,2192.39 49.0773,2187.8 50.1373,2184.95 51.4913,2182.35 53.1253,2179.99 55.3413,2177.53 57.5273,2175.67 59.9753,2174.06 62.5533,2172.79 65.7373,2171.7 68.1833,2171.2 71.5493,2170.91 126.087,2170.9 130.259,2171.21 133.797,2172 136.091,2172.84 138.753,2174.19 141.183,2175.83 143.433,2177.79 145.143,2179.69 146.867,2182.12 148.251,2184.71 149.323,2187.49 149.951,2189.97 150.337,2192.93 150.355,2195.85 150.001,2198.82 149.401,2201.3 148.361,2204.1 147.007,2206.7 145.247,2209.25 142.429,2212.22 138.713,2214.9 134.603,2216.8 132.669,2217.38 130.427,2217.83 126.521,2218.14 71.6033,2218.14 67.9753,2217.81 62.8953,2216.42 58.5613,2214.13 55.3293,2211.53 52.2013,2207.83 50.0393,2203.91 48.5813,2199.29 48.0933,2194.85" style="stroke:rgb(103,198,105);stroke-width:39.370079;fill:none;stroke-opacity:0.5;stroke-linecap:round;stroke-linejoin:round;;fill:none"/>
<polyline points="48.0933,2194.85 48.1893,2192.39 49.0773,2187.8 50.1373,2184.95 51.4913,2182.35 53.1253,2179.99 55.3413,2177.53 57.5273,2175.67 59.9753,2174.06 62.5533,2172.79 65.7373,2171.7 68.1833,2171.2 71.5493,2170.91 126.087,2170.9 130.259,2171.21 133.797,2172 136.091,2172.84 138.753,2174.19 141.183,2175.83 143.433,2177.79 145.143,2179.69 146.867,2182.12 148.251,2184.71 149.323,2187.49 149.951,2189.97 150.337,2192.93 150.355,2195.85 150.001,2198.82 149.401,2201.3 148.361,2204.1 147.007,2206.7 145.247,2209.25 142.429,2212.22 138.713,2214.9 134.603,2216.8 132.669,2217.38 130.427,2217.83 126.521,2218.14 71.6033,2218.14 67.9753,2217.81 62.8953,2216.42 58.5613,2214.13 55.3293,2211.53 52.2013,2207.83 50.0393,2203.91 48.5813,2199.29 48.0933,2194.85" style="stroke:rgb(0,0,0);stroke-width:1px;fill:none;stroke-opacity:1;stroke-linecap:round;stroke-linejoin:round;;fill:none"/>
<polyline points="296.101,2014.48 296.183,1944.21 296.513,1942.93 297.139,1941.98 298.695,1940.91 300.689,1940.6 370.815,1940.61 372.559,1941.01 374.047,1942.25 374.737,1943.85 374.825,1944.72 374.787,2015.48 374.451,2016.92 373.843,2017.88 372.453,2018.9 370.029,2019.33 299.607,2019.23 297.845,2018.58 296.859,2017.54 296.245,2016.02 296.101,2014.48" style="stroke:rgb(103,198,105);stroke-width:39.370079;fill:none;stroke-opacity:0.5;stroke-linecap:round;stroke-linejoin:round;;fill:none"/>
<polyline points="296.101,2014.48 296.183,1944.21 296.513,1942.93 297.139,1941.98 298.695,1940.91 300.689,1940.6 370.815,1940.61 372.559,1941.01 374.047,1942.25 374.737,1943.85 374.825,1944.72 374.787,2015.48 374.451,2016.92 373.843,2017.88 372.453,2018.9 370.029,2019.33 299.607,2019.23 297.845,2018.58 296.859,2017.54 296.245,2016.02 296.101,2014.48" style="stroke:rgb(0,0,0);stroke-width:1px;fill:none;stroke-opacity:1;stroke-linecap:round;stroke-linejoin:round;;fill:none"/>
<polyline points="300.473,2169.99 300.711,2174.22 301.769,2178.33 303.609,2182.15 306.159,2185.54 309.321,2188.37 313.313,2190.67 317.205,2191.97 322.631,2192.56 353.699,2192.54 357.495,2192.14 360.713,2191.29 363.759,2189.95 366.683,2188.08 368.647,2186.4 370.479,2184.38 372.081,2182.09 374.173,2177.46 374.835,2174.82 375.169,2172.05 375.169,2169.76 374.287,2164.69 373.309,2162.07 372.041,2159.66 370.479,2157.42 368.647,2155.4 364.565,2152.28 360.147,2150.3 355.633,2149.39 322.363,2149.26 318.259,2149.63 313.743,2150.95 309.761,2153.13 308.183,2154.33 304.807,2157.9 303.421,2159.97 301.667,2163.76 301.065,2165.79 300.473,2169.99" style="stroke:rgb(103,198,105);stroke-width:39.370079;fill:none;stroke-opacity:0.5;stroke-linecap:round;stroke-linejoin:round;;fill:none"/>
<polyline points="300.473,2169.99 300.711,2174.22 301.769,2178.33 303.609,2182.15 306.159,2185.54 309.321,2188.37 313.313,2190.67 317.205,2191.97 322.631,2192.56 353.699,2192.54 357.495,2192.14 360.713,2191.29 363.759,2189.95 366.683,2188.08 368.647,2186.4 370.479,2184.38 372.081,2182.09 374.173,2177.46 374.835,2174.82 375.169,2172.05 375.169,2169.76 374.287,2164.69 373.309,2162.07 372.041,2159.66 370.479,2157.42 368.647,2155.4 364.565,2152.28 360.147,2150.3 355.633,2149.39 322.363,2149.26 318.259,2149.63 313.743,2150.95 309.761,2153.13 308.183,2154.33 304.807,2157.9 303.421,2159.97 301.667,2163.76 301.065,2165.79 300.473,2169.99" style="stroke:rgb(0,0,0);stroke-width:1px;fill:none;stroke-opacity:1;stroke-linecap:round;stroke-linejoin:round;;fill:none"/>
<polyline points="689.799,2211.33 689.945,2212.87 690.561,2214.39 691.545,2215.42 693.307,2216.08 763.731,2216.17 766.151,2215.75 767.543,2214.74 768.153,2213.77 768.487,2212.33 768.527,2141.91 768.275,2140.09 767.783,2139.13 766.261,2137.86 764.517,2137.46 694.387,2137.45 691.969,2137.95 690.841,2138.83 690.215,2139.78 689.883,2141.06 689.799,2211.33" style="stroke:rgb(103,198,105);stroke-width:39.370079;fill:none;stroke-opacity:0.5;stroke-linecap:round;stroke-linejoin:round;;fill:none"/>
<polyline points="689.799,2211.33 689.945,2212.87 690.561,2214.39 691.545,2215.42 693.307,2216.08 763.731,2216.17 766.151,2215.75 767.543,2214.74 768.153,2213.77 768.487,2212.33 768.527,2141.91 768.275,2140.09 767.783,2139.13 766.261,2137.86 764.517,2137.46 694.387,2137.45 691.969,2137.95 690.841,2138.83 690.215,2139.78 689.883,2141.06 689.799,2211.33" style="stroke:rgb(0,0,0);stroke-width:1px;fill:none;stroke-opacity:1;stroke-linecap:round;stroke-linejoin:round;;fill:none"/>
<polyline points="22.0833,2872.87 155.943,2872.87 155.943,2613.03 22.0833,2613.03 22.0833,2872.87" style="stroke:rgb(103,198,105);stroke-width:39.370079;fill:none;stroke-opacity:0.5;stroke-linecap:round;stroke-linejoin:round;;fill:none"/>
<polyline points="22.0833,2872.87 155.943,2872.87 155.943,2613.03 22.0833,2613.03 22.0833,2872.87" style="stroke:rgb(0,0,0);stroke-width:1px;fill:none;stroke-opacity:1;stroke-linecap:round;stroke-linejoin:round;;fill:none"/>
<polyline points="222.083,2872.87 355.943,2872.87 355.943,2613.03 222.083,2613.03 222.083,2872.87" style="stroke:rgb(103,198,105);stroke-width:39.370079;fill:none;stroke-opacity:0.5;stroke-linecap:round;stroke-linejoin:round;;fill:none"/>
<polyline points="222.083,2872.87 355.943,2872.87 355.943,2613.03 222.083,2613.03 222.083,2872.87" style="stroke:rgb(0,0,0);stroke-width:1px;fill:none;stroke-opacity:1;stroke-linecap:round;stroke-linejoin:round;;fill:none"/>
<polyline points="422.083,2872.87 555.941,2872.87 555.941,2613.03 422.083,2613.03 422.083,2872.87" style="stroke:rgb(103,198,105);stroke-width:39.370079;fill:none;stroke-opacity:0.5;stroke-linecap:round;stroke-linejoin:round;;fill:none"/>
<polyline points="422.083,2872.87 555.941,2872.87 555.941,2613.03 422.083,2613.03 422.083,2872.87" style="stroke:rgb(0,0,0);stroke-width:1px;fill:none;stroke-opacity:1;stroke-linecap:round;stroke-linejoin:round;;fill:none"/>
<polyline points="622.083,2872.87 755.943,2872.87 755.943,2613.03 622.083,2613.03 622.083,2872.87" style="stroke:rgb(103,198,105);stroke-width:39.370079;fill:none;stroke-opacity:0.5;stroke-linecap:round;stroke-linejoin:round;;fill:none"/>
<polyline points="622.083,2872.87 755.943,2872.87 755.943,2613.03 622.083,2613.03 622.083,2872.87" style="stroke:rgb(0,0,0);stroke-width:1px;fill:none;stroke-opacity:1;stroke-linecap:round;stroke-linejoin:round;;fill:none"/>
<polyline points="822.083,2872.87 955.943,2872.87 955.943,2613.03 822.083,2613.03 822.083,2872.87" style="stroke:rgb(103,198,105);stroke-width:39.370079;fill:none;stroke-opacity:0.5;stroke-linecap:round;stroke-linejoin:round;;fill:none"/>
<polyline points="822.083,2872.87 955.943,2872.87 955.943,2613.03 822.083,2613.03 822.083,2872.87" style="stroke:rgb(0,0,0);stroke-width:1px;fill:none;stroke-opacity:1;stroke-linecap:round;stroke-linejoin:round;;fill:none"/>
<polyline points="1022.08,2872.87 1155.94,2872.87 1155.94,2613.03 1022.08,2613.03 1022.08,2872.87" style="stroke:rgb(103,198,105);stroke-width:39.370079;fill:none;stroke-opacity:0.5;stroke-linecap:round;stroke-linejoin:round;;fill:none"/>
<polyline points="1022.08,2872.87 1155.94,2872.87 1155.94,2613.03 1022.08,2613.03 1022.08,2872.87" style="stroke:rgb(0,0,0);stroke-width:1px;fill:none;stroke-opacity:1;stroke-linecap:round;stroke-linejoin:round;;fill:none"/>
<polyline points="1222.08,2872.87 1355.94,2872.87 1355.94,2613.03 1222.08,2613.03 1222.08,2872.87" style="stroke:rgb(103,198,105);stroke-width:39.370079;fill:none;stroke-opacity:0.5;stroke-linecap:round;stroke-linejoin:round;;fill:none"/>
<polyline points="1222.08,2872.87 1355.94,2872.87 1355.94,2613.03 1222.08,2613.03 1222.08,2872.87" style="stroke:rgb(0,0,0);stroke-width:1px;fill:none;stroke-opacity:1;stroke-linecap:round;stroke-linejoin:round;;fill:none"/>
<polyline points="1422.08,2872.87 1555.94,2872.87 1555.94,2613.03 1422.08,2613.03 1422.08,2872.87" style="stroke:rgb(103,198,105);stroke-width:39.370079;fill:none;stroke-opacity:0.5;stroke-linecap:round;stroke-linejoin:round;;fill:none"/>
<polyline points="1422.08,2872.87 1555.94,2872.87 1555.94,2613.03 1422.08,2613.03 1422.08,2872.87" style="stroke:rgb(0,0,0);stroke-width:1px;fill:none;stroke-opacity:1;stroke-linecap:round;stroke-linejoin:round;;fill:none"/>
<polyline points="1622.08,2872.87 1622.08,2613.03 1755.94,2613.03 1755.94,2872.87 1622.08,2872.87" style="stroke:rgb(103,198,105);stroke-width:39.370079;fill:none;stroke-opacity:0.5;stroke-linecap:round;stroke-linejoin:round;;fill:none"/>
<polyline points="1622.08,2872.87 1622.08,2613.03 1755.94,2613.03 1755.94,2872.87 1622.08,2872.87" style="stroke:rgb(0,0,0);stroke-width:1px;fill:none;stroke-opacity:1;stroke-linecap:round;stroke-linejoin:round;;fill:none"/>
<polyline points="1822.08,2872.87 1822.08,2613.03 1955.94,2613.03 1955.94,2872.87 1822.08,2872.87" style="stroke:rgb(103,198,105);stroke-width:39.370079;fill:none;stroke-opacity:0.5;stroke-linecap:round;stroke-linejoin:round;;fill:none"/>
<polyline points="1822.08,2872.87 1822.08,2613.03 1955.94,2613.03 1955.94,2872.87 1822.08,2872.87" style="stroke:rgb(0,0,0);stroke-width:1px;fill:none;stroke-opacity:1;stroke-linecap:round;stroke-linejoin:round;;fill:none"/>
<polyline points="2022.08,2872.87 2022.08,2613.03 2155.94,2613.03 2155.94,2872.87 2022.08,2872.87" style="stroke:rgb(103,198,105);stroke-width:39.370079;fill:none;stroke-opacity:0.5;stroke-linecap:round;stroke-linejoin:round;;fill:none"/>
<polyline points="2022.08,2872.87 2022.08,2613.03 2155.94,2613.03 2155.94,2872.87 2022.08,2872.87" style="stroke:rgb(0,0,0);stroke-width:1px;fill:none;stroke-opacity:1;stroke-linecap:round;stroke-linejoin:round;;fill:none"/>
<polyline points="2222.08,2872.87 2222.08,2613.03 2355.94,2613.03 2355.94,2872.87 2222.08,2872.87" style="stroke:rgb(103,198,105);stroke-width:39.370079;fill:none;stroke-opacity:0.5;stroke-linecap:round;stroke-linejoin:round;;fill:none"/>
<polyline points="2222.08,2872.87 2222.08,2613.03 2355.94,2613.03 2355.94,2872.87 2222.08,2872.87" style="stroke:rgb(0,0,0);stroke-width:1px;fill:none;stroke-opacity:1;stroke-linecap:round;stroke-linejoin:round;;fill:none"/>
<polyline points="2422.08,2872.87 2422.08,2613.03 2555.94,2613.03 2555.94,2872.87 2422.08,2872.87" style="stroke:rgb(103,198,105);stroke-width:39.370079;fill:none;stroke-opacity:0.5;stroke-linecap:round;stroke-linejoin:round;;fill:none"/>
<polyline points="2422.08,2872.87 2422.08,2613.03 2555.94,2613.03 2555.94,2872.87 2422.08,2872.87" style="stroke:rgb(0,0,0);stroke-width:1px;fill:none;stroke-opacity:1;stroke-linecap:round;stroke-linejoin:round;;fill:none"/>
<polyline points="2622.08,2872.87 2622.08,2613.03 2755.94,2613.03 2755.94,2872.87 2622.08,2872.87" style="stroke:rgb(103,198,105);stroke-width:39.370079;fill:none;stroke-opacity:0.5;stroke-linecap:round;stroke-linejoin:round;;fill:none"/>
<polyline points="2622.08,2872.87 2622.08,2613.03 2755.94,2613.03 2755.94,2872.87 2622.08,2872.87" style="stroke:rgb(0,0,0);stroke-width:1px;fill:none;stroke-opacity:1;stroke-linecap:round;stroke-linejoin:round;;fill:none"/>
<polyline points="2822.08,2872.87 2822.08,2613.03 2955.94,2613.03 2955.94,2872.87 2822.08,2872.87" style="stroke:rgb(103,198,105);stroke-width:39.370079;fill:none;stroke-opacity:0.5;stroke-linecap:round;stroke-linejoin:round;;fill:none"/>
<polyline points="2822.08,2872.87 2822.08,2613.03 2955.94,2613.03 2955.94,2872.87 2822.08,2872.87" style="stroke:rgb(0,0,0);stroke-width:1px;fill:none;stroke-opacity:1;stroke-linecap:round;stroke-linejoin:round;;fill:none"/>
<polyline points="3022.08,2872.87 3022.08,2613.03 3155.94,2613.03 3155.94,2872.87 3022.08,2872.87" style="stroke:rgb(103,198,105);stroke-width:39.370079;fill:none;stroke-opacity:0.5;stroke-linecap:round;stroke-linejoin:round;;fill:none"/>
<polyline points="3022.08,2872.87 3022.08,2613.03 3155.94,2613.03 3155.94,2872.87 3022.08,2872.87" style="stroke:rgb(0,0,0);stroke-width:1px;fill:none;stroke-opacity:1;stroke-linecap:round;stroke-linejoin:round;;fill:none"/>
<polyline points="3222.08,2872.87 3222.08,2613.03 3355.94,2613.03 3355.94,2872.87 3222.08,2872.87" style="stroke:rgb(103,198,105);stroke-width:39.370079;fill:none;stroke-opacity:0.5;stroke-linecap:round;stroke-linejoin:round;;fill:none"/>
<polyline points="3222.08,2872.87 3222.08,2613.03 3355.94,2613.03 3355.94,2872.87 3222.08,2872.87" style="stroke:rgb(0,0,0);stroke-width:1px;fill:none;stroke-opacity:1;stroke-linecap:round;stroke-linejoin:round;;fill:none"/>
<polyline points="3422.08,2872.87 3422.08,2613.03 3555.94,2613.03 3555.94,2872.87 3422.08,2872.87" style="stroke:rgb(103,198,105);stroke-width:39.370079;fill:none;stroke-opacity:0.5;stroke-linecap:round;stroke-linejoin:round;;fill:none"/>
<polyline points="3422.08,2872.87 3422.08,2613.03 3555.94,2613.03 3555.94,2872.87 3422.08,2872.87" style="stroke:rgb(0,0,0);stroke-width:1px;fill:none;stroke-opacity:1;stroke-linecap:round;stroke-linejoin:round;;fill:none"/>
<polyline points="3622.08,2872.87 3622.08,2613.03 3755.94,2613.03 3755.94,2872.87 3622.08,2872.87" style="stroke:rgb(103,198,105);stroke-width:39.370079;fill:none;stroke-opacity:0.5;stroke-linecap:round;stroke-linejoin:round;;fill:none"/>
<polyline points="3622.08,2872.87 3622.08,2613.03 3755.94,2613.03 3755.94,2872.87 3622.08,2872.87" style="stroke:rgb(0,0,0);stroke-width:1px;fill:none;stroke-opacity:1;stroke-linecap:round;stroke-linejoin:round;;fill:none"/>
<polyline points="3822.08,2872.87 3822.08,2613.03 3955.94,2613.03 3955.94,2872.87 3822.08,2872.87" style="stroke:rgb(103,198,105);stroke-width:39.370079;fill:none;stroke-opacity:0.5;stroke-linecap:round;stroke-linejoin:round;;fill:none"/>
<polyline points="3822.08,2872.87 3822.08,2613.03 3955.94,2613.03 3955.94,2872.87 3822.08,2872.87" style="stroke:rgb(0,0,0);stroke-width:1px;fill:none;stroke-opacity:1;stroke-linecap:round;stroke-linejoin:round;;fill:none"/>
</svg>
