<?xml version="1.0" standalone="no"?>
<!DOCTYPE svg PUBLIC "-//W3C//DTD SVG 1.1//EN"
"http://www.w3.org/Graphics/SVG/1.1/DTD/svg11.dtd">
<svg width="190.945" height="125.04" viewBox="0 0 3978.03 2605" version="1.1"
xmlns="http://www.w3.org/2000/svg"
xmlns:xlink="http://www.w3.org/1999/xlink">
<polyline points="1942.18,301.4 1942.23,204.192 1942.29,203.908 1943.15,203.784 1991.14,203.876 1991.25,203.898 1991.36,204.584 1991.36,301.598 1991.31,301.976 1991.27,302.072 1990.78,302.164 1942.39,302.102 1942.29,302.08 1942.18,301.4" style="stroke:rgb(103,198,105);stroke-width:39.370079;fill:none;stroke-opacity:0.5;stroke-linecap:round;stroke-linejoin:round;;fill:none"/>
<polyline points="1942.18,301.4 1942.23,204.192 1942.29,203.908 1943.15,203.784 1991.14,203.876 1991.25,203.898 1991.36,204.584 1991.36,301.598 1991.31,301.976 1991.27,302.072 1990.78,302.164 1942.39,302.102 1942.29,302.08 1942.18,301.4" style="stroke:rgb(0,0,0);stroke-width:1px;fill:none;stroke-opacity:1;stroke-linecap:round;stroke-linejoin:round;;fill:none"/>
<polyline points="422.083,2582.91 422.083,2323.07 555.943,2323.07 555.943,2582.91 422.083,2582.91" style="stroke:rgb(103,198,105);stroke-width:39.370079;fill:none;stroke-opacity:0.5;stroke-linecap:round;stroke-linejoin:round;;fill:none"/>
<polyline points="422.083,2582.91 422.083,2323.07 555.943,2323.07 555.943,2582.91 422.083,2582.91" style="stroke:rgb(0,0,0);stroke-width:1px;fill:none;stroke-opacity:1;stroke-linecap:round;stroke-linejoin:round;;fill:none"/>
<polyline points="222.083,2582.91 222.083,2323.07 355.943,2323.07 355.943,2582.91 222.083,2582.91" style="stroke:rgb(103,198,105);stroke-width:39.370079;fill:none;stroke-opacity:0.5;stroke-linecap:round;stroke-linejoin:round;;fill:none"/>
<polyline points="222.083,2582.91 222.083,2323.07 355.943,2323.07 355.943,2582.91 222.083,2582.91" style="stroke:rgb(0,0,0);stroke-width:1px;fill:none;stroke-opacity:1;stroke-linecap:round;stroke-linejoin:round;;fill:none"/>
<polyline points="22.0833,2582.91 155.943,2582.91 155.943,2323.07 22.0833,2323.07 22.0833,2582.91" style="stroke:rgb(103,198,105);stroke-width:39.370079;fill:none;stroke-opacity:0.5;stroke-linecap:round;stroke-linejoin:round;;fill:none"/>
<polyline points="22.0833,2582.91 155.943,2582.91 155.943,2323.07 22.0833,2323.07 22.0833,2582.91" style="stroke:rgb(0,0,0);stroke-width:1px;fill:none;stroke-opacity:1;stroke-linecap:round;stroke-linejoin:round;;fill:none"/>
<polyline points="622.083,2582.91 622.083,2323.07 755.943,2323.07 755.943,2582.91 622.083,2582.91" style="stroke:rgb(103,198,105);stroke-width:39.370079;fill:none;stroke-opacity:0.5;stroke-linecap:round;stroke-linejoin:round;;fill:none"/>
<polyline points="622.083,2582.91 622.083,2323.07 755.943,2323.07 755.943,2582.91 622.083,2582.91" style="stroke:rgb(0,0,0);stroke-width:1px;fill:none;stroke-opacity:1;stroke-linecap:round;stroke-linejoin:round;;fill:none"/>
<polyline points="822.083,2582.91 955.943,2582.91 955.943,2323.07 822.083,2323.07 822.083,2582.91" style="stroke:rgb(103,198,105);stroke-width:39.370079;fill:none;stroke-opacity:0.5;stroke-linecap:round;stroke-linejoin:round;;fill:none"/>
<polyline points="822.083,2582.91 955.943,2582.91 955.943,2323.07 822.083,2323.07 822.083,2582.91" style="stroke:rgb(0,0,0);stroke-width:1px;fill:none;stroke-opacity:1;stroke-linecap:round;stroke-linejoin:round;;fill:none"/>
<polyline points="36.2593,1645.78 36.4033,1647.32 36.6493,1648.15 37.0173,1648.84 37.6253,1649.57 38.0033,1649.88 38.5713,1650.2 39.1893,1650.42 39.7653,1650.53 110.187,1650.63 111.867,1650.44 112.609,1650.2 113.287,1649.81 113.999,1649.18 114.299,1648.8 114.609,1648.22 114.817,1647.6 114.943,1646.78 114.983,1576.02 114.895,1575.15 114.347,1573.76 114.241,1573.58 113.269,1572.67 112.717,1572.31 112.541,1572.23 111.583,1571.98 110.973,1571.91 40.8453,1571.9 39.3233,1572.09 38.5853,1572.34 37.7693,1572.83 37.4033,1573.15 36.9913,1573.66 36.6713,1574.23 36.4533,1574.85 36.3413,1575.51 36.2593,1645.78" style="stroke:rgb(103,198,105);stroke-width:39.370079;fill:none;stroke-opacity:0.5;stroke-linecap:round;stroke-linejoin:round;;fill:none"/>
<polyline points="36.2593,1645.78 36.4033,1647.32 36.6493,1648.15 37.0173,1648.84 37.6253,1649.57 38.0033,1649.88 38.5713,1650.2 39.1893,1650.42 39.7653,1650.53 110.187,1650.63 111.867,1650.44 112.609,1650.2 113.287,1649.81 113.999,1649.18 114.299,1648.8 114.609,1648.22 114.817,1647.6 114.943,1646.78 114.983,1576.02 114.895,1575.15 114.347,1573.76 114.241,1573.58 113.269,1572.67 112.717,1572.31 112.541,1572.23 111.583,1571.98 110.973,1571.91 40.8453,1571.9 39.3233,1572.09 38.5853,1572.34 37.7693,1572.83 37.4033,1573.15 36.9913,1573.66 36.6713,1574.23 36.4533,1574.85 36.3413,1575.51 36.2593,1645.78" style="stroke:rgb(0,0,0);stroke-width:1px;fill:none;stroke-opacity:1;stroke-linecap:round;stroke-linejoin:round;;fill:none"/>
<polyline points="36.2593,1803.26 36.4033,1804.8 36.6493,1805.63 37.0173,1806.32 37.6253,1807.05 38.0033,1807.36 38.5713,1807.68 39.1893,1807.9 39.7653,1808.01 110.187,1808.11 111.867,1807.92 112.609,1807.68 113.287,1807.29 113.999,1806.67 114.299,1806.28 114.609,1805.7 114.817,1805.08 114.943,1804.26 114.983,1733.5 114.895,1732.63 114.329,1731.19 114.205,1731.03 113.269,1730.15 112.717,1729.79 112.541,1729.71 111.583,1729.46 110.973,1729.39 40.8453,1729.38 39.1553,1729.59 38.8533,1729.69 38.0193,1730.15 37.2973,1730.76 36.9913,1731.14 36.6713,1731.71 36.4533,1732.33 36.3413,1732.99 36.2593,1803.26" style="stroke:rgb(103,198,105);stroke-width:39.370079;fill:none;stroke-opacity:0.5;stroke-linecap:round;stroke-linejoin:round;;fill:none"/>
<polyline points="36.2593,1803.26 36.4033,1804.8 36.6493,1805.63 37.0173,1806.32 37.6253,1807.05 38.0033,1807.36 38.5713,1807.68 39.1893,1807.9 39.7653,1808.01 110.187,1808.11 111.867,1807.92 112.609,1807.68 113.287,1807.29 113.999,1806.67 114.299,1806.28 114.609,1805.7 114.817,1805.08 114.943,1804.26 114.983,1733.5 114.895,1732.63 114.329,1731.19 114.205,1731.03 113.269,1730.15 112.717,1729.79 112.541,1729.71 111.583,1729.46 110.973,1729.39 40.8453,1729.38 39.1553,1729.59 38.8533,1729.69 38.0193,1730.15 37.2973,1730.76 36.9913,1731.14 36.6713,1731.71 36.4533,1732.33 36.3413,1732.99 36.2593,1803.26" style="stroke:rgb(0,0,0);stroke-width:1px;fill:none;stroke-opacity:1;stroke-linecap:round;stroke-linejoin:round;;fill:none"/>
<polyline points="48.0933,1904.89 48.1893,1902.43 48.5273,1900.06 49.0773,1897.84 50.1373,1894.99 51.4913,1892.39 53.1253,1890.03 55.3413,1887.57 57.5273,1885.71 59.9753,1884.1 62.5533,1882.83 65.7373,1881.74 68.1833,1881.24 71.5493,1880.95 126.087,1880.94 130.259,1881.25 133.797,1882.04 136.091,1882.88 138.753,1884.23 141.183,1885.87 143.433,1887.83 145.143,1889.73 146.867,1892.16 148.251,1894.75 149.323,1897.53 149.951,1900.01 150.337,1902.97 150.355,1905.9 150.001,1908.86 149.401,1911.34 148.361,1914.14 147.007,1916.74 145.247,1919.29 143.963,1920.78 142.429,1922.26 140.811,1923.56 138.713,1924.94 136.925,1925.89 134.603,1926.84 132.669,1927.42 130.427,1927.87 126.521,1928.18 71.6033,1928.18 67.9753,1927.85 64.6453,1927.08 62.8953,1926.46 60.6693,1925.43 58.5613,1924.17 56.8853,1922.95 55.3293,1921.57 53.6533,1919.78 52.2013,1917.87 50.9213,1915.77 50.0393,1913.95 49.1833,1911.65 48.5813,1909.33 48.2073,1906.91 48.0933,1904.89" style="stroke:rgb(103,198,105);stroke-width:39.370079;fill:none;stroke-opacity:0.5;stroke-linecap:round;stroke-linejoin:round;;fill:none"/>
<polyline points="48.0933,1904.89 48.1893,1902.43 48.5273,1900.06 49.0773,1897.84 50.1373,1894.99 51.4913,1892.39 53.1253,1890.03 55.3413,1887.57 57.5273,1885.71 59.9753,1884.1 62.5533,1882.83 65.7373,1881.74 68.1833,1881.24 71.5493,1880.95 126.087,1880.94 130.259,1881.25 133.797,1882.04 136.091,1882.88 138.753,1884.23 141.183,1885.87 143.433,1887.83 145.143,1889.73 146.867,1892.16 148.251,1894.75 149.323,1897.53 149.951,1900.01 150.337,1902.97 150.355,1905.9 150.001,1908.86 149.401,1911.34 148.361,1914.14 147.007,1916.74 145.247,1919.29 143.963,1920.78 142.429,1922.26 140.811,1923.56 138.713,1924.94 136.925,1925.89 134.603,1926.84 132.669,1927.42 130.427,1927.87 126.521,1928.18 71.6033,1928.18 67.9753,1927.85 64.6453,1927.08 62.8953,1926.46 60.6693,1925.43 58.5613,1924.17 56.8853,1922.95 55.3293,1921.57 53.6533,1919.78 52.2013,1917.87 50.9213,1915.77 50.0393,1913.95 49.1833,1911.65 48.5813,1909.33 48.2073,1906.91 48.0933,1904.89" style="stroke:rgb(0,0,0);stroke-width:1px;fill:none;stroke-opacity:1;stroke-linecap:round;stroke-linejoin:round;;fill:none"/>
<polyline points="300.473,1880.03 300.667,1877.92 301.065,1875.83 301.667,1873.8 302.467,1871.83 303.421,1870.01 304.807,1867.94 306.371,1866.09 308.183,1864.37 309.761,1863.17 311.951,1861.84 313.743,1860.99 316.097,1860.17 318.259,1859.67 322.363,1859.3 355.633,1859.43 357.799,1859.74 360.147,1860.34 362.411,1861.21 364.565,1862.32 366.525,1863.63 368.647,1865.45 370.479,1867.47 372.041,1869.7 373.309,1872.11 374.287,1874.73 374.827,1876.95 375.169,1879.8 375.169,1882.09 374.835,1884.86 374.173,1887.51 373.159,1890.11 372.081,1892.13 370.479,1894.42 368.647,1896.44 366.683,1898.12 363.759,1899.99 360.713,1901.33 357.495,1902.18 353.699,1902.58 322.631,1902.6 319.663,1902.43 317.205,1902.01 315.227,1901.46 313.313,1900.71 311.037,1899.53 309.321,1898.41 307.671,1897.07 306.159,1895.58 304.801,1893.95 303.609,1892.19 302.597,1890.33 301.769,1888.37 301.139,1886.35 300.711,1884.27 300.489,1882.16 300.473,1880.03" style="stroke:rgb(103,198,105);stroke-width:39.370079;fill:none;stroke-opacity:0.5;stroke-linecap:round;stroke-linejoin:round;;fill:none"/>
<polyline points="300.473,1880.03 300.667,1877.92 301.065,1875.83 301.667,1873.8 302.467,1871.83 303.421,1870.01 304.807,1867.94 306.371,1866.09 308.183,1864.37 309.761,1863.17 311.951,1861.84 313.743,1860.99 316.097,1860.17 318.259,1859.67 322.363,1859.3 355.633,1859.43 357.799,1859.74 360.147,1860.34 362.411,1861.21 364.565,1862.32 366.525,1863.63 368.647,1865.45 370.479,1867.47 372.041,1869.7 373.309,1872.11 374.287,1874.73 374.827,1876.95 375.169,1879.8 375.169,1882.09 374.835,1884.86 374.173,1887.51 373.159,1890.11 372.081,1892.13 370.479,1894.42 368.647,1896.44 366.683,1898.12 363.759,1899.99 360.713,1901.33 357.495,1902.18 353.699,1902.58 322.631,1902.6 319.663,1902.43 317.205,1902.01 315.227,1901.46 313.313,1900.71 311.037,1899.53 309.321,1898.41 307.671,1897.07 306.159,1895.58 304.801,1893.95 303.609,1892.19 302.597,1890.33 301.769,1888.37 301.139,1886.35 300.711,1884.27 300.489,1882.16 300.473,1880.03" style="stroke:rgb(0,0,0);stroke-width:1px;fill:none;stroke-opacity:1;stroke-linecap:round;stroke-linejoin:round;;fill:none"/>
<polyline points="296.101,1724.52 296.183,1654.25 296.295,1653.59 296.513,1652.97 296.833,1652.4 297.139,1652.02 297.863,1651.41 298.695,1650.95 298.997,1650.85 300.689,1650.64 370.815,1650.65 371.425,1650.72 372.383,1650.97 372.559,1651.05 373.111,1651.41 374.047,1652.29 374.171,1652.45 374.737,1653.89 374.825,1654.76 374.787,1725.52 374.659,1726.34 374.451,1726.96 374.141,1727.54 373.843,1727.93 373.131,1728.55 372.453,1728.94 371.711,1729.18 370.029,1729.37 299.607,1729.27 299.031,1729.16 298.415,1728.94 297.845,1728.62 297.469,1728.31 296.859,1727.58 296.491,1726.89 296.245,1726.06 296.101,1724.52" style="stroke:rgb(103,198,105);stroke-width:39.370079;fill:none;stroke-opacity:0.5;stroke-linecap:round;stroke-linejoin:round;;fill:none"/>
<polyline points="296.101,1724.52 296.183,1654.25 296.295,1653.59 296.513,1652.97 296.833,1652.4 297.139,1652.02 297.863,1651.41 298.695,1650.95 298.997,1650.85 300.689,1650.64 370.815,1650.65 371.425,1650.72 372.383,1650.97 372.559,1651.05 373.111,1651.41 374.047,1652.29 374.171,1652.45 374.737,1653.89 374.825,1654.76 374.787,1725.52 374.659,1726.34 374.451,1726.96 374.141,1727.54 373.843,1727.93 373.131,1728.55 372.453,1728.94 371.711,1729.18 370.029,1729.37 299.607,1729.27 299.031,1729.16 298.415,1728.94 297.845,1728.62 297.469,1728.31 296.859,1727.58 296.491,1726.89 296.245,1726.06 296.101,1724.52" style="stroke:rgb(0,0,0);stroke-width:1px;fill:none;stroke-opacity:1;stroke-linecap:round;stroke-linejoin:round;;fill:none"/>
<polyline points="48.0933,1475.75 48.1893,1473.3 48.5273,1470.93 49.0773,1468.71 50.1193,1465.91 51.6633,1462.98 53.3233,1460.64 55.2993,1458.47 57.5273,1456.57 59.9753,1454.96 62.5533,1453.69 65.7373,1452.61 68.1833,1452.11 71.5493,1451.82 126.087,1451.81 130.259,1452.12 133.743,1452.9 136.437,1453.9 138.707,1455.06 141.183,1456.73 143.391,1458.66 145.379,1460.89 146.841,1462.98 148.251,1465.61 149.323,1468.4 149.951,1470.87 150.337,1473.83 150.355,1476.76 150.001,1479.73 149.401,1482.21 148.361,1485.01 147.007,1487.61 145.247,1490.15 143.999,1491.6 142.183,1493.33 140.595,1494.58 138.529,1495.91 136.339,1497.02 134.405,1497.78 132.357,1498.37 130.481,1498.74 126.521,1499.05 71.6033,1499.04 67.9753,1498.71 64.6993,1497.96 62.5473,1497.19 60.6673,1496.3 58.8773,1495.25 56.8433,1493.78 55.3293,1492.44 53.6533,1490.64 52.2013,1488.73 50.9513,1486.69 49.9153,1484.52 49.0853,1482.21 48.5893,1480.25 48.2073,1477.77 48.0933,1475.75" style="stroke:rgb(103,198,105);stroke-width:39.370079;fill:none;stroke-opacity:0.5;stroke-linecap:round;stroke-linejoin:round;;fill:none"/>
<polyline points="48.0933,1475.75 48.1893,1473.3 48.5273,1470.93 49.0773,1468.71 50.1193,1465.91 51.6633,1462.98 53.3233,1460.64 55.2993,1458.47 57.5273,1456.57 59.9753,1454.96 62.5533,1453.69 65.7373,1452.61 68.1833,1452.11 71.5493,1451.82 126.087,1451.81 130.259,1452.12 133.743,1452.9 136.437,1453.9 138.707,1455.06 141.183,1456.73 143.391,1458.66 145.379,1460.89 146.841,1462.98 148.251,1465.61 149.323,1468.4 149.951,1470.87 150.337,1473.83 150.355,1476.76 150.001,1479.73 149.401,1482.21 148.361,1485.01 147.007,1487.61 145.247,1490.15 143.999,1491.6 142.183,1493.33 140.595,1494.58 138.529,1495.91 136.339,1497.02 134.405,1497.78 132.357,1498.37 130.481,1498.74 126.521,1499.05 71.6033,1499.04 67.9753,1498.71 64.6993,1497.96 62.5473,1497.19 60.6673,1496.3 58.8773,1495.25 56.8433,1493.78 55.3293,1492.44 53.6533,1490.64 52.2013,1488.73 50.9513,1486.69 49.9153,1484.52 49.0853,1482.21 48.5893,1480.25 48.2073,1477.77 48.0933,1475.75" style="stroke:rgb(0,0,0);stroke-width:1px;fill:none;stroke-opacity:1;stroke-linecap:round;stroke-linejoin:round;;fill:none"/>
<polyline points="300.473,1498.14 300.667,1496.03 301.065,1493.94 301.667,1491.91 302.467,1489.94 303.453,1488.06 304.583,1486.35 306.165,1484.42 307.903,1482.73 309.819,1481.24 311.951,1479.95 313.743,1479.1 316.097,1478.28 318.259,1477.78 322.363,1477.41 355.633,1477.54 357.799,1477.85 360.147,1478.45 362.411,1479.32 364.565,1480.43 366.525,1481.74 368.647,1483.56 370.479,1485.58 372.041,1487.81 373.309,1490.22 374.287,1492.84 374.827,1495.07 375.161,1497.84 375.141,1500.57 374.769,1503.34 374.199,1505.55 373.159,1508.22 372.081,1510.24 370.479,1512.53 368.647,1514.55 366.683,1516.23 363.759,1518.1 360.713,1519.44 357.495,1520.29 353.699,1520.69 322.631,1520.71 319.593,1520.54 317.635,1520.22 315.163,1519.54 313.313,1518.82 311.037,1517.64 309.321,1516.52 307.671,1515.18 306.159,1513.69 304.801,1512.06 303.609,1510.3 302.597,1508.44 301.769,1506.48 301.139,1504.46 300.711,1502.38 300.489,1500.27 300.473,1498.14" style="stroke:rgb(103,198,105);stroke-width:39.370079;fill:none;stroke-opacity:0.5;stroke-linecap:round;stroke-linejoin:round;;fill:none"/>
<polyline points="300.473,1498.14 300.667,1496.03 301.065,1493.94 301.667,1491.91 302.467,1489.94 303.453,1488.06 304.583,1486.35 306.165,1484.42 307.903,1482.73 309.819,1481.24 311.951,1479.95 313.743,1479.1 316.097,1478.28 318.259,1477.78 322.363,1477.41 355.633,1477.54 357.799,1477.85 360.147,1478.45 362.411,1479.32 364.565,1480.43 366.525,1481.74 368.647,1483.56 370.479,1485.58 372.041,1487.81 373.309,1490.22 374.287,1492.84 374.827,1495.07 375.161,1497.84 375.141,1500.57 374.769,1503.34 374.199,1505.55 373.159,1508.22 372.081,1510.24 370.479,1512.53 368.647,1514.55 366.683,1516.23 363.759,1518.1 360.713,1519.44 357.495,1520.29 353.699,1520.69 322.631,1520.71 319.593,1520.54 317.635,1520.22 315.163,1519.54 313.313,1518.82 311.037,1517.64 309.321,1516.52 307.671,1515.18 306.159,1513.69 304.801,1512.06 303.609,1510.3 302.597,1508.44 301.769,1506.48 301.139,1504.46 300.711,1502.38 300.489,1500.27 300.473,1498.14" style="stroke:rgb(0,0,0);stroke-width:1px;fill:none;stroke-opacity:1;stroke-linecap:round;stroke-linejoin:round;;fill:none"/>
<polyline points="689.801,1921.37 689.883,1851.1 689.997,1850.44 690.215,1849.82 690.535,1849.25 690.841,1848.87 691.691,1848.15 691.969,1847.99 692.865,1847.68 694.389,1847.49 764.517,1847.5 765.127,1847.57 766.085,1847.82 766.261,1847.9 766.813,1848.26 767.783,1849.17 768.063,1849.63 768.277,1850.13 768.527,1851.95 768.487,1922.37 768.361,1923.19 768.153,1923.81 767.843,1924.39 767.543,1924.78 766.831,1925.4 766.153,1925.79 765.411,1926.03 763.731,1926.22 693.307,1926.12 692.731,1926.01 692.115,1925.79 691.545,1925.47 691.169,1925.16 690.561,1924.43 690.191,1923.74 689.945,1922.91 689.801,1921.37" style="stroke:rgb(103,198,105);stroke-width:39.370079;fill:none;stroke-opacity:0.5;stroke-linecap:round;stroke-linejoin:round;;fill:none"/>
<polyline points="689.801,1921.37 689.883,1851.1 689.997,1850.44 690.215,1849.82 690.535,1849.25 690.841,1848.87 691.691,1848.15 691.969,1847.99 692.865,1847.68 694.389,1847.49 764.517,1847.5 765.127,1847.57 766.085,1847.82 766.261,1847.9 766.813,1848.26 767.783,1849.17 768.063,1849.63 768.277,1850.13 768.527,1851.95 768.487,1922.37 768.361,1923.19 768.153,1923.81 767.843,1924.39 767.543,1924.78 766.831,1925.4 766.153,1925.79 765.411,1926.03 763.731,1926.22 693.307,1926.12 692.731,1926.01 692.115,1925.79 691.545,1925.47 691.169,1925.16 690.561,1924.43 690.191,1923.74 689.945,1922.91 689.801,1921.37" style="stroke:rgb(0,0,0);stroke-width:1px;fill:none;stroke-opacity:1;stroke-linecap:round;stroke-linejoin:round;;fill:none"/>
<polyline points="886.651,1921.37 886.797,1922.91 887.043,1923.74 887.411,1924.43 888.019,1925.16 888.395,1925.47 888.965,1925.79 889.581,1926.01 890.157,1926.12 960.581,1926.22 962.261,1926.03 963.003,1925.79 963.681,1925.4 964.393,1924.78 964.693,1924.39 965.003,1923.81 965.211,1923.19 965.337,1922.37 965.377,1851.95 965.129,1850.13 964.913,1849.63 964.633,1849.17 963.663,1848.26 963.111,1847.9 962.935,1847.82 961.977,1847.57 961.367,1847.5 891.239,1847.49 889.717,1847.68 888.819,1847.99 888.543,1848.15 887.691,1848.87 887.385,1849.25 887.065,1849.82 886.847,1850.44 886.733,1851.1 886.651,1921.37" style="stroke:rgb(103,198,105);stroke-width:39.370079;fill:none;stroke-opacity:0.5;stroke-linecap:round;stroke-linejoin:round;;fill:none"/>
<polyline points="886.651,1921.37 886.797,1922.91 887.043,1923.74 887.411,1924.43 888.019,1925.16 888.395,1925.47 888.965,1925.79 889.581,1926.01 890.157,1926.12 960.581,1926.22 962.261,1926.03 963.003,1925.79 963.681,1925.4 964.393,1924.78 964.693,1924.39 965.003,1923.81 965.211,1923.19 965.337,1922.37 965.377,1851.95 965.129,1850.13 964.913,1849.63 964.633,1849.17 963.663,1848.26 963.111,1847.9 962.935,1847.82 961.977,1847.57 961.367,1847.5 891.239,1847.49 889.717,1847.68 888.819,1847.99 888.543,1848.15 887.691,1848.87 887.385,1849.25 887.065,1849.82 886.847,1850.44 886.733,1851.1 886.651,1921.37" style="stroke:rgb(0,0,0);stroke-width:1px;fill:none;stroke-opacity:1;stroke-linecap:round;stroke-linejoin:round;;fill:none"/>
<polyline points="1422.08,2582.91 1422.08,2323.07 1555.94,2323.07 1555.94,2582.91 1422.08,2582.91" style="stroke:rgb(103,198,105);stroke-width:39.370079;fill:none;stroke-opacity:0.5;stroke-linecap:round;stroke-linejoin:round;;fill:none"/>
<polyline points="1422.08,2582.91 1422.08,2323.07 1555.94,2323.07 1555.94,2582.91 1422.08,2582.91" style="stroke:rgb(0,0,0);stroke-width:1px;fill:none;stroke-opacity:1;stroke-linecap:round;stroke-linejoin:round;;fill:none"/>
<polyline points="1222.08,2582.91 1222.08,2323.07 1355.94,2323.07 1355.94,2582.91 1222.08,2582.91" style="stroke:rgb(103,198,105);stroke-width:39.370079;fill:none;stroke-opacity:0.5;stroke-linecap:round;stroke-linejoin:round;;fill:none"/>
<polyline points="1222.08,2582.91 1222.08,2323.07 1355.94,2323.07 1355.94,2582.91 1222.08,2582.91" style="stroke:rgb(0,0,0);stroke-width:1px;fill:none;stroke-opacity:1;stroke-linecap:round;stroke-linejoin:round;;fill:none"/>
<polyline points="1022.08,2582.91 1155.94,2582.91 1155.94,2323.07 1022.08,2323.07 1022.08,2582.91" style="stroke:rgb(103,198,105);stroke-width:39.370079;fill:none;stroke-opacity:0.5;stroke-linecap:round;stroke-linejoin:round;;fill:none"/>
<polyline points="1022.08,2582.91 1155.94,2582.91 1155.94,2323.07 1022.08,2323.07 1022.08,2582.91" style="stroke:rgb(0,0,0);stroke-width:1px;fill:none;stroke-opacity:1;stroke-linecap:round;stroke-linejoin:round;;fill:none"/>
<polyline points="1622.08,2582.91 1622.08,2323.07 1755.94,2323.07 1755.94,2582.91 1622.08,2582.91" style="stroke:rgb(103,198,105);stroke-width:39.370079;fill:none;stroke-opacity:0.5;stroke-linecap:round;stroke-linejoin:round;;fill:none"/>
<polyline points="1622.08,2582.91 1622.08,2323.07 1755.94,2323.07 1755.94,2582.91 1622.08,2582.91" style="stroke:rgb(0,0,0);stroke-width:1px;fill:none;stroke-opacity:1;stroke-linecap:round;stroke-linejoin:round;;fill:none"/>
<polyline points="1822.08,2582.91 1955.94,2582.91 1955.94,2323.07 1822.08,2323.07 1822.08,2582.91" style="stroke:rgb(103,198,105);stroke-width:39.370079;fill:none;stroke-opacity:0.5;stroke-linecap:round;stroke-linejoin:round;;fill:none"/>
<polyline points="1822.08,2582.91 1955.94,2582.91 1955.94,2323.07 1822.08,2323.07 1822.08,2582.91" style="stroke:rgb(0,0,0);stroke-width:1px;fill:none;stroke-opacity:1;stroke-linecap:round;stroke-linejoin:round;;fill:none"/>
<polyline points="1083.5,1921.37 1083.59,1851.1 1083.7,1850.44 1083.92,1849.82 1084.24,1849.25 1084.54,1848.87 1085.39,1848.15 1085.67,1847.99 1086.57,1847.68 1088.09,1847.49 1158.22,1847.5 1158.83,1847.57 1159.79,1847.82 1159.96,1847.9 1160.51,1848.26 1161.49,1849.17 1161.77,1849.63 1161.98,1850.13 1162.23,1851.95 1162.19,1922.37 1162.06,1923.19 1161.85,1923.81 1161.54,1924.39 1161.24,1924.78 1160.53,1925.4 1159.85,1925.79 1159.11,1926.03 1157.43,1926.22 1087.01,1926.12 1086.43,1926.01 1085.82,1925.79 1085.25,1925.47 1084.87,1925.16 1084.26,1924.43 1083.89,1923.74 1083.65,1922.91 1083.5,1921.37" style="stroke:rgb(103,198,105);stroke-width:39.370079;fill:none;stroke-opacity:0.5;stroke-linecap:round;stroke-linejoin:round;;fill:none"/>
<polyline points="1083.5,1921.37 1083.59,1851.1 1083.7,1850.44 1083.92,1849.82 1084.24,1849.25 1084.54,1848.87 1085.39,1848.15 1085.67,1847.99 1086.57,1847.68 1088.09,1847.49 1158.22,1847.5 1158.83,1847.57 1159.79,1847.82 1159.96,1847.9 1160.51,1848.26 1161.49,1849.17 1161.77,1849.63 1161.98,1850.13 1162.23,1851.95 1162.19,1922.37 1162.06,1923.19 1161.85,1923.81 1161.54,1924.39 1161.24,1924.78 1160.53,1925.4 1159.85,1925.79 1159.11,1926.03 1157.43,1926.22 1087.01,1926.12 1086.43,1926.01 1085.82,1925.79 1085.25,1925.47 1084.87,1925.16 1084.26,1924.43 1083.89,1923.74 1083.65,1922.91 1083.5,1921.37" style="stroke:rgb(0,0,0);stroke-width:1px;fill:none;stroke-opacity:1;stroke-linecap:round;stroke-linejoin:round;;fill:none"/>
<polyline points="422.083,1056.93 422.083,797.084 555.943,797.084 555.943,1056.93 422.083,1056.93" style="stroke:rgb(103,198,105);stroke-width:39.370079;fill:none;stroke-opacity:0.5;stroke-linecap:round;stroke-linejoin:round;;fill:none"/>
<polyline points="422.083,1056.93 422.083,797.084 555.943,797.084 555.943,1056.93 422.083,1056.93" style="stroke:rgb(0,0,0);stroke-width:1px;fill:none;stroke-opacity:1;stroke-linecap:round;stroke-linejoin:round;;fill:none"/>
<polyline points="22.0833,1056.93 155.943,1056.93 155.943,797.084 22.0833,797.084 22.0833,1056.93" style="stroke:rgb(103,198,105);stroke-width:39.370079;fill:none;stroke-opacity:0.5;stroke-linecap:round;stroke-linejoin:round;;fill:none"/>
<polyline points="22.0833,1056.93 155.943,1056.93 155.943,797.084 22.0833,797.084 22.0833,1056.93" style="stroke:rgb(0,0,0);stroke-width:1px;fill:none;stroke-opacity:1;stroke-linecap:round;stroke-linejoin:round;;fill:none"/>
<polyline points="222.083,1056.93 355.943,1056.93 355.943,797.084 222.083,797.084 222.083,1056.93" style="stroke:rgb(103,198,105);stroke-width:39.370079;fill:none;stroke-opacity:0.5;stroke-linecap:round;stroke-linejoin:round;;fill:none"/>
<polyline points="222.083,1056.93 355.943,1056.93 355.943,797.084 222.083,797.084 222.083,1056.93" style="stroke:rgb(0,0,0);stroke-width:1px;fill:none;stroke-opacity:1;stroke-linecap:round;stroke-linejoin:round;;fill:none"/>
<polyline points="622.083,1056.93 755.943,1056.93 755.943,797.084 622.083,797.084 622.083,1056.93" style="stroke:rgb(103,198,105);stroke-width:39.370079;fill:none;stroke-opacity:0.5;stroke-linecap:round;stroke-linejoin:round;;fill:none"/>
<polyline points="622.083,1056.93 755.943,1056.93 755.943,797.084 622.083,797.084 622.083,1056.93" style="stroke:rgb(0,0,0);stroke-width:1px;fill:none;stroke-opacity:1;stroke-linecap:round;stroke-linejoin:round;;fill:none"/>
<polyline points="822.083,1056.93 955.943,1056.93 955.943,797.084 822.083,797.084 822.083,1056.93" style="stroke:rgb(103,198,105);stroke-width:39.370079;fill:none;stroke-opacity:0.5;stroke-linecap:round;stroke-linejoin:round;;fill:none"/>
<polyline points="822.083,1056.93 955.943,1056.93 955.943,797.084 822.083,797.084 822.083,1056.93" style="stroke:rgb(0,0,0);stroke-width:1px;fill:none;stroke-opacity:1;stroke-linecap:round;stroke-linejoin:round;;fill:none"/>
<polyline points="1422.08,1056.93 1422.08,797.084 1555.94,797.084 1555.94,1056.93 1422.08,1056.93" style="stroke:rgb(103,198,105);stroke-width:39.370079;fill:none;stroke-opacity:0.5;stroke-linecap:round;stroke-linejoin:round;;fill:none"/>
<polyline points="1422.08,1056.93 1422.08,797.084 1555.94,797.084 1555.94,1056.93 1422.08,1056.93" style="stroke:rgb(0,0,0);stroke-width:1px;fill:none;stroke-opacity:1;stroke-linecap:round;stroke-linejoin:round;;fill:none"/>
<polyline points="1022.08,1056.93 1155.94,1056.93 1155.94,797.084 1022.08,797.084 1022.08,1056.93" style="stroke:rgb(103,198,105);stroke-width:39.370079;fill:none;stroke-opacity:0.5;stroke-linecap:round;stroke-linejoin:round;;fill:none"/>
<polyline points="1022.08,1056.93 1155.94,1056.93 1155.94,797.084 1022.08,797.084 1022.08,1056.93" style="stroke:rgb(0,0,0);stroke-width:1px;fill:none;stroke-opacity:1;stroke-linecap:round;stroke-linejoin:round;;fill:none"/>
<polyline points="1222.08,1056.93 1355.94,1056.93 1355.94,797.084 1222.08,797.084 1222.08,1056.93" style="stroke:rgb(103,198,105);stroke-width:39.370079;fill:none;stroke-opacity:0.5;stroke-linecap:round;stroke-linejoin:round;;fill:none"/>
<polyline points="1222.08,1056.93 1355.94,1056.93 1355.94,797.084 1222.08,797.084 1222.08,1056.93" style="stroke:rgb(0,0,0);stroke-width:1px;fill:none;stroke-opacity:1;stroke-linecap:round;stroke-linejoin:round;;fill:none"/>
<polyline points="1622.08,1056.93 1755.94,1056.93 1755.94,797.084 1622.08,797.084 1622.08,1056.93" style="stroke:rgb(103,198,105);stroke-width:39.370079;fill:none;stroke-opacity:0.5;stroke-linecap:round;stroke-linejoin:round;;fill:none"/>
<polyline points="1622.08,1056.93 1755.94,1056.93 1755.94,797.084 1622.08,797.084 1622.08,1056.93" style="stroke:rgb(0,0,0);stroke-width:1px;fill:none;stroke-opacity:1;stroke-linecap:round;stroke-linejoin:round;;fill:none"/>
<polyline points="1822.08,1056.93 1955.94,1056.93 1955.94,797.084 1822.08,797.084 1822.08,1056.93" style="stroke:rgb(103,198,105);stroke-width:39.370079;fill:none;stroke-opacity:0.5;stroke-linecap:round;stroke-linejoin:round;;fill:none"/>
<polyline points="1822.08,1056.93 1955.94,1056.93 1955.94,797.084 1822.08,797.084 1822.08,1056.93" style="stroke:rgb(0,0,0);stroke-width:1px;fill:none;stroke-opacity:1;stroke-linecap:round;stroke-linejoin:round;;fill:none"/>
<polyline points="2422.08,2582.91 2422.08,2323.07 2555.94,2323.07 2555.94,2582.91 2422.08,2582.91" style="stroke:rgb(103,198,105);stroke-width:39.370079;fill:none;stroke-opacity:0.5;stroke-linecap:round;stroke-linejoin:round;;fill:none"/>
<polyline points="2422.08,2582.91 2422.08,2323.07 2555.94,2323.07 2555.94,2582.91 2422.08,2582.91" style="stroke:rgb(0,0,0);stroke-width:1px;fill:none;stroke-opacity:1;stroke-linecap:round;stroke-linejoin:round;;fill:none"/>
<polyline points="2222.08,2582.91 2222.08,2323.07 2355.94,2323.07 2355.94,2582.91 2222.08,2582.91" style="stroke:rgb(103,198,105);stroke-width:39.370079;fill:none;stroke-opacity:0.5;stroke-linecap:round;stroke-linejoin:round;;fill:none"/>
<polyline points="2222.08,2582.91 2222.08,2323.07 2355.94,2323.07 2355.94,2582.91 2222.08,2582.91" style="stroke:rgb(0,0,0);stroke-width:1px;fill:none;stroke-opacity:1;stroke-linecap:round;stroke-linejoin:round;;fill:none"/>
<polyline points="2022.08,2582.91 2155.94,2582.91 2155.94,2323.07 2022.08,2323.07 2022.08,2582.91" style="stroke:rgb(103,198,105);stroke-width:39.370079;fill:none;stroke-opacity:0.5;stroke-linecap:round;stroke-linejoin:round;;fill:none"/>
<polyline points="2022.08,2582.91 2155.94,2582.91 2155.94,2323.07 2022.08,2323.07 2022.08,2582.91" style="stroke:rgb(0,0,0);stroke-width:1px;fill:none;stroke-opacity:1;stroke-linecap:round;stroke-linejoin:round;;fill:none"/>
<polyline points="2622.08,2582.91 2622.08,2323.07 2755.94,2323.07 2755.94,2582.91 2622.08,2582.91" style="stroke:rgb(103,198,105);stroke-width:39.370079;fill:none;stroke-opacity:0.5;stroke-linecap:round;stroke-linejoin:round;;fill:none"/>
<polyline points="2622.08,2582.91 2622.08,2323.07 2755.94,2323.07 2755.94,2582.91 2622.08,2582.91" style="stroke:rgb(0,0,0);stroke-width:1px;fill:none;stroke-opacity:1;stroke-linecap:round;stroke-linejoin:round;;fill:none"/>
<polyline points="2822.08,2582.91 2955.94,2582.91 2955.94,2323.07 2822.08,2323.07 2822.08,2582.91" style="stroke:rgb(103,198,105);stroke-width:39.370079;fill:none;stroke-opacity:0.5;stroke-linecap:round;stroke-linejoin:round;;fill:none"/>
<polyline points="2822.08,2582.91 2955.94,2582.91 2955.94,2323.07 2822.08,2323.07 2822.08,2582.91" style="stroke:rgb(0,0,0);stroke-width:1px;fill:none;stroke-opacity:1;stroke-linecap:round;stroke-linejoin:round;;fill:none"/>
<polyline points="2395.52,1686.29 2480.13,1686.32 2480.15,1601.7 2395.52,1601.69 2395.52,1686.29" style="stroke:rgb(103,198,105);stroke-width:39.370079;fill:none;stroke-opacity:0.5;stroke-linecap:round;stroke-linejoin:round;;fill:none"/>
<polyline points="2395.52,1686.29 2480.13,1686.32 2480.15,1601.7 2395.52,1601.69 2395.52,1686.29" style="stroke:rgb(0,0,0);stroke-width:1px;fill:none;stroke-opacity:1;stroke-linecap:round;stroke-linejoin:round;;fill:none"/>
<polyline points="2395.54,1443.94 2395.71,1440.25 2396.35,1435.79 2397.22,1432.2 2398.71,1427.95 2400.26,1424.59 2402.5,1420.77 2405.13,1417.19 2407.64,1414.39 2410.39,1411.83 2413.96,1409.09 2417.11,1407.14 2421.08,1405.18 2425.24,1403.63 2428.82,1402.69 2433.2,1401.97 2437.62,1401.71 2441.32,1401.86 2445.78,1402.47 2449.38,1403.32 2453.57,1404.76 2457.54,1406.59 2461.35,1408.86 2464.33,1411.05 2467.64,1414.01 2470.62,1417.29 2472.83,1420.26 2475.15,1424.11 2476.78,1427.5 2478.09,1431.03 2479.22,1435.32 2479.9,1439.64 2480.12,1444.07 2479.96,1447.76 2479.32,1452.22 2478.44,1455.81 2476.96,1460.06 2475.41,1463.42 2473.16,1467.24 2470.54,1470.82 2468.03,1473.62 2465.27,1476.19 2461.7,1478.92 2458.56,1480.87 2454.58,1482.84 2450.42,1484.38 2446.85,1485.33 2442.47,1486.04 2438.04,1486.3 2434.35,1486.15 2429.95,1485.55 2425.64,1484.5 2422.15,1483.28 2418.12,1481.42 2414.31,1479.15 2411.33,1476.96 2408.03,1474 2405.05,1470.72 2402.84,1467.75 2400.51,1463.9 2398.89,1460.51 2397.58,1456.98 2396.45,1452.69 2395.77,1448.37 2395.54,1443.94" style="stroke:rgb(103,198,105);stroke-width:39.370079;fill:none;stroke-opacity:0.5;stroke-linecap:round;stroke-linejoin:round;;fill:none"/>
<polyline points="2395.54,1443.94 2395.71,1440.25 2396.35,1435.79 2397.22,1432.2 2398.71,1427.95 2400.26,1424.59 2402.5,1420.77 2405.13,1417.19 2407.64,1414.39 2410.39,1411.83 2413.96,1409.09 2417.11,1407.14 2421.08,1405.18 2425.24,1403.63 2428.82,1402.69 2433.2,1401.97 2437.62,1401.71 2441.32,1401.86 2445.78,1402.47 2449.38,1403.32 2453.57,1404.76 2457.54,1406.59 2461.35,1408.86 2464.33,1411.05 2467.64,1414.01 2470.62,1417.29 2472.83,1420.26 2475.15,1424.11 2476.78,1427.5 2478.09,1431.03 2479.22,1435.32 2479.9,1439.64 2480.12,1444.07 2479.96,1447.76 2479.32,1452.22 2478.44,1455.81 2476.96,1460.06 2475.41,1463.42 2473.16,1467.24 2470.54,1470.82 2468.03,1473.62 2465.27,1476.19 2461.7,1478.92 2458.56,1480.87 2454.58,1482.84 2450.42,1484.38 2446.85,1485.33 2442.47,1486.04 2438.04,1486.3 2434.35,1486.15 2429.95,1485.55 2425.64,1484.5 2422.15,1483.28 2418.12,1481.42 2414.31,1479.15 2411.33,1476.96 2408.03,1474 2405.05,1470.72 2402.84,1467.75 2400.51,1463.9 2398.89,1460.51 2397.58,1456.98 2396.45,1452.69 2395.77,1448.37 2395.54,1443.94" style="stroke:rgb(0,0,0);stroke-width:1px;fill:none;stroke-opacity:1;stroke-linecap:round;stroke-linejoin:round;;fill:none"/>
<polyline points="3422.08,2582.91 3422.08,2323.07 3555.94,2323.07 3555.94,2582.91 3422.08,2582.91" style="stroke:rgb(103,198,105);stroke-width:39.370079;fill:none;stroke-opacity:0.5;stroke-linecap:round;stroke-linejoin:round;;fill:none"/>
<polyline points="3422.08,2582.91 3422.08,2323.07 3555.94,2323.07 3555.94,2582.91 3422.08,2582.91" style="stroke:rgb(0,0,0);stroke-width:1px;fill:none;stroke-opacity:1;stroke-linecap:round;stroke-linejoin:round;;fill:none"/>
<polyline points="3222.08,2582.91 3222.08,2323.07 3355.94,2323.07 3355.94,2582.91 3222.08,2582.91" style="stroke:rgb(103,198,105);stroke-width:39.370079;fill:none;stroke-opacity:0.5;stroke-linecap:round;stroke-linejoin:round;;fill:none"/>
<polyline points="3222.08,2582.91 3222.08,2323.07 3355.94,2323.07 3355.94,2582.91 3222.08,2582.91" style="stroke:rgb(0,0,0);stroke-width:1px;fill:none;stroke-opacity:1;stroke-linecap:round;stroke-linejoin:round;;fill:none"/>
<polyline points="3022.08,2582.91 3155.94,2582.91 3155.94,2323.07 3022.08,2323.07 3022.08,2582.91" style="stroke:rgb(103,198,105);stroke-width:39.370079;fill:none;stroke-opacity:0.5;stroke-linecap:round;stroke-linejoin:round;;fill:none"/>
<polyline points="3022.08,2582.91 3155.94,2582.91 3155.94,2323.07 3022.08,2323.07 3022.08,2582.91" style="stroke:rgb(0,0,0);stroke-width:1px;fill:none;stroke-opacity:1;stroke-linecap:round;stroke-linejoin:round;;fill:none"/>
<polyline points="3622.08,2582.91 3622.08,2323.07 3755.94,2323.07 3755.94,2582.91 3622.08,2582.91" style="stroke:rgb(103,198,105);stroke-width:39.370079;fill:none;stroke-opacity:0.5;stroke-linecap:round;stroke-linejoin:round;;fill:none"/>
<polyline points="3622.08,2582.91 3622.08,2323.07 3755.94,2323.07 3755.94,2582.91 3622.08,2582.91" style="stroke:rgb(0,0,0);stroke-width:1px;fill:none;stroke-opacity:1;stroke-linecap:round;stroke-linejoin:round;;fill:none"/>
<polyline points="3822.08,2582.91 3955.94,2582.91 3955.94,2323.07 3822.08,2323.07 3822.08,2582.91" style="stroke:rgb(103,198,105);stroke-width:39.370079;fill:none;stroke-opacity:0.5;stroke-linecap:round;stroke-linejoin:round;;fill:none"/>
<polyline points="3822.08,2582.91 3955.94,2582.91 3955.94,2323.07 3822.08,2323.07 3822.08,2582.91" style="stroke:rgb(0,0,0);stroke-width:1px;fill:none;stroke-opacity:1;stroke-linecap:round;stroke-linejoin:round;;fill:none"/>
<polyline points="2166.59,644.708 2166.64,547.5 2166.7,547.216 2167.56,547.092 2215.55,547.182 2215.66,547.206 2215.77,547.892 2215.77,644.904 2215.71,645.284 2215.68,645.38 2215.19,645.47 2166.8,645.41 2166.7,645.388 2166.59,644.708" style="stroke:rgb(103,198,105);stroke-width:39.370079;fill:none;stroke-opacity:0.5;stroke-linecap:round;stroke-linejoin:round;;fill:none"/>
<polyline points="2166.59,644.708 2166.64,547.5 2166.7,547.216 2167.56,547.092 2215.55,547.182 2215.66,547.206 2215.77,547.892 2215.77,644.904 2215.71,645.284 2215.68,645.38 2215.19,645.47 2166.8,645.41 2166.7,645.388 2166.59,644.708" style="stroke:rgb(0,0,0);stroke-width:1px;fill:none;stroke-opacity:1;stroke-linecap:round;stroke-linejoin:round;;fill:none"/>
<polyline points="2396.91,644.708 2396.95,547.5 2397.01,547.216 2397.88,547.092 2445.87,547.182 2445.97,547.206 2446.08,547.892 2446.08,644.904 2446.03,645.284 2445.99,645.38 2445.5,645.47 2397.11,645.41 2397.02,645.388 2396.91,644.708" style="stroke:rgb(103,198,105);stroke-width:39.370079;fill:none;stroke-opacity:0.5;stroke-linecap:round;stroke-linejoin:round;;fill:none"/>
<polyline points="2396.91,644.708 2396.95,547.5 2397.01,547.216 2397.88,547.092 2445.87,547.182 2445.97,547.206 2446.08,547.892 2446.08,644.904 2446.03,645.284 2445.99,645.38 2445.5,645.47 2397.11,645.41 2397.02,645.388 2396.91,644.708" style="stroke:rgb(0,0,0);stroke-width:1px;fill:none;stroke-opacity:1;stroke-linecap:round;stroke-linejoin:round;;fill:none"/>
<polyline points="2422.08,1056.93 2555.94,1056.93 2555.94,797.084 2422.08,797.084 2422.08,1056.93" style="stroke:rgb(103,198,105);stroke-width:39.370079;fill:none;stroke-opacity:0.5;stroke-linecap:round;stroke-linejoin:round;;fill:none"/>
<polyline points="2422.08,1056.93 2555.94,1056.93 2555.94,797.084 2422.08,797.084 2422.08,1056.93" style="stroke:rgb(0,0,0);stroke-width:1px;fill:none;stroke-opacity:1;stroke-linecap:round;stroke-linejoin:round;;fill:none"/>
<polyline points="2022.08,1056.93 2155.94,1056.93 2155.94,797.084 2022.08,797.084 2022.08,1056.93" style="stroke:rgb(103,198,105);stroke-width:39.370079;fill:none;stroke-opacity:0.5;stroke-linecap:round;stroke-linejoin:round;;fill:none"/>
<polyline points="2022.08,1056.93 2155.94,1056.93 2155.94,797.084 2022.08,797.084 2022.08,1056.93" style="stroke:rgb(0,0,0);stroke-width:1px;fill:none;stroke-opacity:1;stroke-linecap:round;stroke-linejoin:round;;fill:none"/>
<polyline points="2222.08,1056.93 2355.94,1056.93 2355.94,797.084 2222.08,797.084 2222.08,1056.93" style="stroke:rgb(103,198,105);stroke-width:39.370079;fill:none;stroke-opacity:0.5;stroke-linecap:round;stroke-linejoin:round;;fill:none"/>
<polyline points="2222.08,1056.93 2355.94,1056.93 2355.94,797.084 2222.08,797.084 2222.08,1056.93" style="stroke:rgb(0,0,0);stroke-width:1px;fill:none;stroke-opacity:1;stroke-linecap:round;stroke-linejoin:round;;fill:none"/>
<polyline points="2395.54,1243.94 2395.71,1240.25 2396.35,1235.79 2397.22,1232.2 2398.71,1227.95 2400.26,1224.59 2402.5,1220.77 2405.13,1217.19 2407.64,1214.39 2410.39,1211.83 2413.96,1209.09 2417.11,1207.14 2421.14,1205.15 2424.6,1203.84 2428.88,1202.68 2433.2,1201.97 2437.62,1201.71 2441.32,1201.86 2445.78,1202.47 2449.38,1203.32 2453.57,1204.76 2457.54,1206.59 2461.35,1208.86 2464.33,1211.05 2467.64,1214.01 2470.62,1217.29 2472.83,1220.26 2475.15,1224.11 2476.78,1227.5 2478.09,1231.03 2479.22,1235.32 2479.9,1239.64 2480.12,1244.07 2479.96,1247.76 2479.32,1252.22 2478.44,1255.81 2476.96,1260.06 2475.41,1263.42 2473.16,1267.24 2470.54,1270.82 2468.03,1273.62 2465.27,1276.19 2461.7,1278.92 2458.56,1280.87 2454.53,1282.86 2451.07,1284.17 2446.79,1285.34 2442.47,1286.04 2438.04,1286.3 2434.35,1286.15 2429.89,1285.54 2426.29,1284.69 2422.09,1283.26 2418.12,1281.42 2414.31,1279.15 2411.33,1276.96 2408.03,1274 2405.05,1270.72 2402.84,1267.75 2400.51,1263.9 2398.89,1260.51 2397.58,1256.98 2396.45,1252.69 2395.77,1248.37 2395.54,1243.94" style="stroke:rgb(103,198,105);stroke-width:39.370079;fill:none;stroke-opacity:0.5;stroke-linecap:round;stroke-linejoin:round;;fill:none"/>
<polyline points="2395.54,1243.94 2395.71,1240.25 2396.35,1235.79 2397.22,1232.2 2398.71,1227.95 2400.26,1224.59 2402.5,1220.77 2405.13,1217.19 2407.64,1214.39 2410.39,1211.83 2413.96,1209.09 2417.11,1207.14 2421.14,1205.15 2424.6,1203.84 2428.88,1202.68 2433.2,1201.97 2437.62,1201.71 2441.32,1201.86 2445.78,1202.47 2449.38,1203.32 2453.57,1204.76 2457.54,1206.59 2461.35,1208.86 2464.33,1211.05 2467.64,1214.01 2470.62,1217.29 2472.83,1220.26 2475.15,1224.11 2476.78,1227.5 2478.09,1231.03 2479.22,1235.32 2479.9,1239.64 2480.12,1244.07 2479.96,1247.76 2479.32,1252.22 2478.44,1255.81 2476.96,1260.06 2475.41,1263.42 2473.16,1267.24 2470.54,1270.82 2468.03,1273.62 2465.27,1276.19 2461.7,1278.92 2458.56,1280.87 2454.53,1282.86 2451.07,1284.17 2446.79,1285.34 2442.47,1286.04 2438.04,1286.3 2434.35,1286.15 2429.89,1285.54 2426.29,1284.69 2422.09,1283.26 2418.12,1281.42 2414.31,1279.15 2411.33,1276.96 2408.03,1274 2405.05,1270.72 2402.84,1267.75 2400.51,1263.9 2398.89,1260.51 2397.58,1256.98 2396.45,1252.69 2395.77,1248.37 2395.54,1243.94" style="stroke:rgb(0,0,0);stroke-width:1px;fill:none;stroke-opacity:1;stroke-linecap:round;stroke-linejoin:round;;fill:none"/>
<polyline points="2622.08,1056.93 2755.94,1056.93 2755.94,797.084 2622.08,797.084 2622.08,1056.93" style="stroke:rgb(103,198,105);stroke-width:39.370079;fill:none;stroke-opacity:0.5;stroke-linecap:round;stroke-linejoin:round;;fill:none"/>
<polyline points="2622.08,1056.93 2755.94,1056.93 2755.94,797.084 2622.08,797.084 2622.08,1056.93" style="stroke:rgb(0,0,0);stroke-width:1px;fill:none;stroke-opacity:1;stroke-linecap:round;stroke-linejoin:round;;fill:none"/>
<polyline points="2822.08,1056.93 2955.94,1056.93 2955.94,797.084 2822.08,797.084 2822.08,1056.93" style="stroke:rgb(103,198,105);stroke-width:39.370079;fill:none;stroke-opacity:0.5;stroke-linecap:round;stroke-linejoin:round;;fill:none"/>
<polyline points="2822.08,1056.93 2955.94,1056.93 2955.94,797.084 2822.08,797.084 2822.08,1056.93" style="stroke:rgb(0,0,0);stroke-width:1px;fill:none;stroke-opacity:1;stroke-linecap:round;stroke-linejoin:round;;fill:none"/>
<polyline points="2172.5,301.4 2172.54,204.192 2172.6,203.908 2173.47,203.784 2221.46,203.876 2221.56,203.898 2221.67,204.584 2221.67,301.598 2221.62,301.976 2221.58,302.072 2221.1,302.164 2172.7,302.102 2172.61,302.08 2172.5,301.4" style="stroke:rgb(103,198,105);stroke-width:39.370079;fill:none;stroke-opacity:0.5;stroke-linecap:round;stroke-linejoin:round;;fill:none"/>
<polyline points="2172.5,301.4 2172.54,204.192 2172.6,203.908 2173.47,203.784 2221.46,203.876 2221.56,203.898 2221.67,204.584 2221.67,301.598 2221.62,301.976 2221.58,302.072 2221.1,302.164 2172.7,302.102 2172.61,302.08 2172.5,301.4" style="stroke:rgb(0,0,0);stroke-width:1px;fill:none;stroke-opacity:1;stroke-linecap:round;stroke-linejoin:round;;fill:none"/>
<polyline points="2754.76,529.88 2754.76,449.172 2766.57,449.172 2766.57,529.88 2754.76,529.88" style="stroke:rgb(103,198,105);stroke-width:39.370079;fill:none;stroke-opacity:0.5;stroke-linecap:round;stroke-linejoin:round;;fill:none"/>
<polyline points="2754.76,529.88 2754.76,449.172 2766.57,449.172 2766.57,529.88 2754.76,529.88" style="stroke:rgb(0,0,0);stroke-width:1px;fill:none;stroke-opacity:1;stroke-linecap:round;stroke-linejoin:round;;fill:none"/>
<polyline points="2554.76,529.88 2566.57,529.88 2566.57,449.172 2554.76,449.172 2554.76,529.88" style="stroke:rgb(103,198,105);stroke-width:39.370079;fill:none;stroke-opacity:0.5;stroke-linecap:round;stroke-linejoin:round;;fill:none"/>
<polyline points="2554.76,529.88 2566.57,529.88 2566.57,449.172 2554.76,449.172 2554.76,529.88" style="stroke:rgb(0,0,0);stroke-width:1px;fill:none;stroke-opacity:1;stroke-linecap:round;stroke-linejoin:round;;fill:none"/>
<polyline points="2654.76,529.88 2666.57,529.88 2666.57,449.172 2654.76,449.172 2654.76,529.88" style="stroke:rgb(103,198,105);stroke-width:39.370079;fill:none;stroke-opacity:0.5;stroke-linecap:round;stroke-linejoin:round;;fill:none"/>
<polyline points="2654.76,529.88 2666.57,529.88 2666.57,449.172 2654.76,449.172 2654.76,529.88" style="stroke:rgb(0,0,0);stroke-width:1px;fill:none;stroke-opacity:1;stroke-linecap:round;stroke-linejoin:round;;fill:none"/>
<polyline points="2854.76,529.88 2866.57,529.88 2866.57,449.172 2854.76,449.172 2854.76,529.88" style="stroke:rgb(103,198,105);stroke-width:39.370079;fill:none;stroke-opacity:0.5;stroke-linecap:round;stroke-linejoin:round;;fill:none"/>
<polyline points="2854.76,529.88 2866.57,529.88 2866.57,449.172 2854.76,449.172 2854.76,529.88" style="stroke:rgb(0,0,0);stroke-width:1px;fill:none;stroke-opacity:1;stroke-linecap:round;stroke-linejoin:round;;fill:none"/>
<polyline points="2754.76,102.794 2754.76,22.0836 2766.57,22.0836 2766.57,102.794 2754.76,102.794" style="stroke:rgb(103,198,105);stroke-width:39.370079;fill:none;stroke-opacity:0.5;stroke-linecap:round;stroke-linejoin:round;;fill:none"/>
<polyline points="2754.76,102.794 2754.76,22.0836 2766.57,22.0836 2766.57,102.794 2754.76,102.794" style="stroke:rgb(0,0,0);stroke-width:1px;fill:none;stroke-opacity:1;stroke-linecap:round;stroke-linejoin:round;;fill:none"/>
<polyline points="2554.76,102.794 2554.76,22.0836 2566.57,22.0836 2566.57,102.794 2554.76,102.794" style="stroke:rgb(103,198,105);stroke-width:39.370079;fill:none;stroke-opacity:0.5;stroke-linecap:round;stroke-linejoin:round;;fill:none"/>
<polyline points="2554.76,102.794 2554.76,22.0836 2566.57,22.0836 2566.57,102.794 2554.76,102.794" style="stroke:rgb(0,0,0);stroke-width:1px;fill:none;stroke-opacity:1;stroke-linecap:round;stroke-linejoin:round;;fill:none"/>
<polyline points="2654.76,102.794 2654.76,22.0836 2666.57,22.0836 2666.57,102.794 2654.76,102.794" style="stroke:rgb(103,198,105);stroke-width:39.370079;fill:none;stroke-opacity:0.5;stroke-linecap:round;stroke-linejoin:round;;fill:none"/>
<polyline points="2654.76,102.794 2654.76,22.0836 2666.57,22.0836 2666.57,102.794 2654.76,102.794" style="stroke:rgb(0,0,0);stroke-width:1px;fill:none;stroke-opacity:1;stroke-linecap:round;stroke-linejoin:round;;fill:none"/>
<polyline points="2854.76,102.794 2854.76,22.0836 2866.57,22.0836 2866.57,102.794 2854.76,102.794" style="stroke:rgb(103,198,105);stroke-width:39.370079;fill:none;stroke-opacity:0.5;stroke-linecap:round;stroke-linejoin:round;;fill:none"/>
<polyline points="2854.76,102.794 2854.76,22.0836 2866.57,22.0836 2866.57,102.794 2854.76,102.794" style="stroke:rgb(0,0,0);stroke-width:1px;fill:none;stroke-opacity:1;stroke-linecap:round;stroke-linejoin:round;;fill:none"/>
<polyline points="3422.08,1056.93 3422.08,797.084 3555.94,797.084 3555.94,1056.93 3422.08,1056.93" style="stroke:rgb(103,198,105);stroke-width:39.370079;fill:none;stroke-opacity:0.5;stroke-linecap:round;stroke-linejoin:round;;fill:none"/>
<polyline points="3422.08,1056.93 3422.08,797.084 3555.94,797.084 3555.94,1056.93 3422.08,1056.93" style="stroke:rgb(0,0,0);stroke-width:1px;fill:none;stroke-opacity:1;stroke-linecap:round;stroke-linejoin:round;;fill:none"/>
<polyline points="3022.08,1056.93 3155.94,1056.93 3155.94,797.084 3022.08,797.084 3022.08,1056.93" style="stroke:rgb(103,198,105);stroke-width:39.370079;fill:none;stroke-opacity:0.5;stroke-linecap:round;stroke-linejoin:round;;fill:none"/>
<polyline points="3022.08,1056.93 3155.94,1056.93 3155.94,797.084 3022.08,797.084 3022.08,1056.93" style="stroke:rgb(0,0,0);stroke-width:1px;fill:none;stroke-opacity:1;stroke-linecap:round;stroke-linejoin:round;;fill:none"/>
<polyline points="3222.08,1056.93 3355.94,1056.93 3355.94,797.084 3222.08,797.084 3222.08,1056.93" style="stroke:rgb(103,198,105);stroke-width:39.370079;fill:none;stroke-opacity:0.5;stroke-linecap:round;stroke-linejoin:round;;fill:none"/>
<polyline points="3222.08,1056.93 3355.94,1056.93 3355.94,797.084 3222.08,797.084 3222.08,1056.93" style="stroke:rgb(0,0,0);stroke-width:1px;fill:none;stroke-opacity:1;stroke-linecap:round;stroke-linejoin:round;;fill:none"/>
<polyline points="3622.08,1056.93 3755.94,1056.93 3755.94,797.084 3622.08,797.084 3622.08,1056.93" style="stroke:rgb(103,198,105);stroke-width:39.370079;fill:none;stroke-opacity:0.5;stroke-linecap:round;stroke-linejoin:round;;fill:none"/>
<polyline points="3622.08,1056.93 3755.94,1056.93 3755.94,797.084 3622.08,797.084 3622.08,1056.93" style="stroke:rgb(0,0,0);stroke-width:1px;fill:none;stroke-opacity:1;stroke-linecap:round;stroke-linejoin:round;;fill:none"/>
<polyline points="3822.08,1056.93 3955.94,1056.93 3955.94,797.084 3822.08,797.084 3822.08,1056.93" style="stroke:rgb(103,198,105);stroke-width:39.370079;fill:none;stroke-opacity:0.5;stroke-linecap:round;stroke-linejoin:round;;fill:none"/>
<polyline points="3822.08,1056.93 3955.94,1056.93 3955.94,797.084 3822.08,797.084 3822.08,1056.93" style="stroke:rgb(0,0,0);stroke-width:1px;fill:none;stroke-opacity:1;stroke-linecap:round;stroke-linejoin:round;;fill:none"/>
<polyline points="3094.98,617.424 3094.98,578.598 3095.04,578.318 3095.92,578.192 3169.11,578.222 3169.59,578.312 3169.7,578.964 3169.58,617.428 3168.72,617.552 3095.33,617.52 3095.06,617.478 3094.98,617.424" style="stroke:rgb(103,198,105);stroke-width:39.370079;fill:none;stroke-opacity:0.5;stroke-linecap:round;stroke-linejoin:round;;fill:none"/>
<polyline points="3094.98,617.424 3094.98,578.598 3095.04,578.318 3095.92,578.192 3169.11,578.222 3169.59,578.312 3169.7,578.964 3169.58,617.428 3168.72,617.552 3095.33,617.52 3095.06,617.478 3094.98,617.424" style="stroke:rgb(0,0,0);stroke-width:1px;fill:none;stroke-opacity:1;stroke-linecap:round;stroke-linejoin:round;;fill:none"/>
<polyline points="3094.98,467.818 3094.98,428.99 3095.04,428.712 3095.92,428.586 3169.11,428.616 3169.59,428.706 3169.7,429.358 3169.58,467.822 3168.72,467.946 3095.33,467.914 3095.06,467.87 3094.98,467.818" style="stroke:rgb(103,198,105);stroke-width:39.370079;fill:none;stroke-opacity:0.5;stroke-linecap:round;stroke-linejoin:round;;fill:none"/>
<polyline points="3094.98,467.818 3094.98,428.99 3095.04,428.712 3095.92,428.586 3169.11,428.616 3169.59,428.706 3169.7,429.358 3169.58,467.822 3168.72,467.946 3095.33,467.914 3095.06,467.87 3094.98,467.818" style="stroke:rgb(0,0,0);stroke-width:1px;fill:none;stroke-opacity:1;stroke-linecap:round;stroke-linejoin:round;;fill:none"/>
</svg>
