G04 #@! TF.GenerationSoftware,KiCad,Pcbnew,9.0.3+dfsg-1*
G04 #@! TF.CreationDate,2026-02-05T23:25:24+01:00*
G04 #@! TF.ProjectId,NFC_harness_V0,4e46435f-6861-4726-9e65-73735f56302e,rev?*
G04 #@! TF.SameCoordinates,Original*
G04 #@! TF.FileFunction,Copper,L1,Top*
G04 #@! TF.FilePolarity,Positive*
%FSLAX46Y46*%
G04 Gerber Fmt 4.6, Leading zero omitted, Abs format (unit mm)*
G04 Created by KiCad (PCBNEW 9.0.3+dfsg-1) date 2026-02-05 23:25:24*
%MOMM*%
%LPD*%
G01*
G04 APERTURE LIST*
G04 Aperture macros list*
%AMRoundRect*
0 Rectangle with rounded corners*
0 $1 Rounding radius*
0 $2 $3 $4 $5 $6 $7 $8 $9 X,Y pos of 4 corners*
0 Add a 4 corners polygon primitive as box body*
4,1,4,$2,$3,$4,$5,$6,$7,$8,$9,$2,$3,0*
0 Add four circle primitives for the rounded corners*
1,1,$1+$1,$2,$3*
1,1,$1+$1,$4,$5*
1,1,$1+$1,$6,$7*
1,1,$1+$1,$8,$9*
0 Add four rect primitives between the rounded corners*
20,1,$1+$1,$2,$3,$4,$5,0*
20,1,$1+$1,$4,$5,$6,$7,0*
20,1,$1+$1,$6,$7,$8,$9,0*
20,1,$1+$1,$8,$9,$2,$3,0*%
%AMFreePoly0*
4,1,37,0.000000,0.796148,0.078414,0.796148,0.232228,0.765552,0.377117,0.705537,0.507515,0.618408,0.618408,0.507515,0.705537,0.377117,0.765552,0.232228,0.796148,0.078414,0.796148,-0.078414,0.765552,-0.232228,0.705537,-0.377117,0.618408,-0.507515,0.507515,-0.618408,0.377117,-0.705537,0.232228,-0.765552,0.078414,-0.796148,0.000000,-0.796148,0.000000,-0.800000,-2.200000,-0.800000,
-2.203843,-0.796157,-2.239018,-0.796157,-2.311114,-0.766294,-2.366294,-0.711114,-2.396157,-0.639018,-2.396157,-0.603843,-2.400000,-0.600000,-2.400000,0.600000,-2.396157,0.603843,-2.396157,0.639018,-2.366294,0.711114,-2.311114,0.766294,-2.239018,0.796157,-2.203843,0.796157,-2.200000,0.800000,0.000000,0.800000,0.000000,0.796148,0.000000,0.796148,$1*%
%AMFreePoly1*
4,1,37,0.603843,0.796157,0.639018,0.796157,0.711114,0.766294,0.766294,0.711114,0.796157,0.639018,0.796157,0.603843,0.800000,0.600000,0.800000,-0.600000,0.796157,-0.603843,0.796157,-0.639018,0.766294,-0.711114,0.711114,-0.766294,0.639018,-0.796157,0.603843,-0.796157,0.600000,-0.800000,-1.600000,-0.800000,-1.600000,-0.796148,-1.678414,-0.796148,-1.832228,-0.765552,-1.977117,-0.705537,
-2.107515,-0.618408,-2.218408,-0.507515,-2.305537,-0.377117,-2.365552,-0.232228,-2.396148,-0.078414,-2.396148,0.078414,-2.365552,0.232228,-2.305537,0.377117,-2.218408,0.507515,-2.107515,0.618408,-1.977117,0.705537,-1.832228,0.765552,-1.678414,0.796148,-1.600000,0.796148,-1.600000,0.800000,0.600000,0.800000,0.603843,0.796157,0.603843,0.796157,$1*%
%AMFreePoly2*
4,1,37,1.600000,0.796148,1.678414,0.796148,1.832228,0.765552,1.977117,0.705537,2.107515,0.618408,2.218408,0.507515,2.305537,0.377117,2.365552,0.232228,2.396148,0.078414,2.396148,-0.078414,2.365552,-0.232228,2.305537,-0.377117,2.218408,-0.507515,2.107515,-0.618408,1.977117,-0.705537,1.832228,-0.765552,1.678414,-0.796148,1.600000,-0.796148,1.600000,-0.800000,-0.600000,-0.800000,
-0.603843,-0.796157,-0.639018,-0.796157,-0.711114,-0.766294,-0.766294,-0.711114,-0.796157,-0.639018,-0.796157,-0.603843,-0.800000,-0.600000,-0.800000,0.600000,-0.796157,0.603843,-0.796157,0.639018,-0.766294,0.711114,-0.711114,0.766294,-0.639018,0.796157,-0.603843,0.796157,-0.600000,0.800000,1.600000,0.800000,1.600000,0.796148,1.600000,0.796148,$1*%
G04 Aperture macros list end*
G04 #@! TA.AperFunction,SMDPad,CuDef*
%ADD10RoundRect,0.250000X-0.312500X-0.625000X0.312500X-0.625000X0.312500X0.625000X-0.312500X0.625000X0*%
G04 #@! TD*
G04 #@! TA.AperFunction,SMDPad,CuDef*
%ADD11RoundRect,0.250000X-0.650000X0.325000X-0.650000X-0.325000X0.650000X-0.325000X0.650000X0.325000X0*%
G04 #@! TD*
G04 #@! TA.AperFunction,SMDPad,CuDef*
%ADD12RoundRect,0.250000X0.625000X-0.312500X0.625000X0.312500X-0.625000X0.312500X-0.625000X-0.312500X0*%
G04 #@! TD*
G04 #@! TA.AperFunction,ComponentPad*
%ADD13R,1.700000X1.700000*%
G04 #@! TD*
G04 #@! TA.AperFunction,ComponentPad*
%ADD14C,1.700000*%
G04 #@! TD*
G04 #@! TA.AperFunction,ComponentPad*
%ADD15O,1.700000X1.700000*%
G04 #@! TD*
G04 #@! TA.AperFunction,SMDPad,CuDef*
%ADD16RoundRect,0.250000X0.475000X-0.250000X0.475000X0.250000X-0.475000X0.250000X-0.475000X-0.250000X0*%
G04 #@! TD*
G04 #@! TA.AperFunction,SMDPad,CuDef*
%ADD17RoundRect,0.250000X0.650000X-0.325000X0.650000X0.325000X-0.650000X0.325000X-0.650000X-0.325000X0*%
G04 #@! TD*
G04 #@! TA.AperFunction,SMDPad,CuDef*
%ADD18RoundRect,0.250000X-0.475000X0.250000X-0.475000X-0.250000X0.475000X-0.250000X0.475000X0.250000X0*%
G04 #@! TD*
G04 #@! TA.AperFunction,SMDPad,CuDef*
%ADD19R,1.400000X0.850000*%
G04 #@! TD*
G04 #@! TA.AperFunction,SMDPad,CuDef*
%ADD20R,0.650000X1.525000*%
G04 #@! TD*
G04 #@! TA.AperFunction,SMDPad,CuDef*
%ADD21O,1.800000X1.100000*%
G04 #@! TD*
G04 #@! TA.AperFunction,SMDPad,CuDef*
%ADD22O,1.450000X1.050000*%
G04 #@! TD*
G04 #@! TA.AperFunction,SMDPad,CuDef*
%ADD23FreePoly0,90.000000*%
G04 #@! TD*
G04 #@! TA.AperFunction,SMDPad,CuDef*
%ADD24RoundRect,0.800000X0.000010X-0.800000X0.000010X0.800000X-0.000010X0.800000X-0.000010X-0.800000X0*%
G04 #@! TD*
G04 #@! TA.AperFunction,SMDPad,CuDef*
%ADD25FreePoly1,90.000000*%
G04 #@! TD*
G04 #@! TA.AperFunction,SMDPad,CuDef*
%ADD26FreePoly2,90.000000*%
G04 #@! TD*
G04 #@! TA.AperFunction,SMDPad,CuDef*
%ADD27RoundRect,0.200000X0.587400X-0.587400X0.587400X0.587400X-0.587400X0.587400X-0.587400X-0.587400X0*%
G04 #@! TD*
G04 #@! TA.AperFunction,SMDPad,CuDef*
%ADD28C,1.574800*%
G04 #@! TD*
G04 #@! TA.AperFunction,SMDPad,CuDef*
%ADD29RoundRect,0.300000X0.450000X-0.450000X0.450000X0.450000X-0.450000X0.450000X-0.450000X-0.450000X0*%
G04 #@! TD*
G04 #@! TA.AperFunction,Conductor*
%ADD30C,0.400000*%
G04 #@! TD*
G04 APERTURE END LIST*
D10*
X123937500Y-88900000D03*
X126862500Y-88900000D03*
D11*
X140900000Y-85450000D03*
X140900000Y-88400000D03*
D12*
X118500000Y-90125000D03*
X118500000Y-87200000D03*
D13*
X141900000Y-81775000D03*
D14*
X141900000Y-79235000D03*
D13*
X118700000Y-78900000D03*
D15*
X118700000Y-81440000D03*
D16*
X121800000Y-81250000D03*
X121800000Y-79350000D03*
D17*
X135900000Y-84875000D03*
X135900000Y-81925000D03*
D10*
X121137500Y-85000000D03*
X124062500Y-85000000D03*
D18*
X135890000Y-87020000D03*
X135890000Y-88920000D03*
D19*
X125700000Y-78100000D03*
X125700000Y-82000000D03*
D20*
X132440000Y-82120000D03*
X131170000Y-82120000D03*
X129900000Y-82120000D03*
X128630000Y-82120000D03*
X128630000Y-87544000D03*
X129900000Y-87544000D03*
X131170000Y-87544000D03*
X132440000Y-87544000D03*
D21*
X97370000Y-105515000D03*
D22*
X100400000Y-105215000D03*
X100400000Y-100365000D03*
D21*
X97370000Y-100065000D03*
D23*
X97240000Y-111680000D03*
D24*
X99780000Y-112480000D03*
D25*
X102320000Y-111680000D03*
D24*
X104860000Y-112480000D03*
X107400000Y-112480000D03*
X109940000Y-112480000D03*
X112480000Y-112480000D03*
D25*
X115020000Y-111680000D03*
D24*
X117560000Y-112480000D03*
X120100000Y-112480000D03*
X122640000Y-112480000D03*
X125180000Y-112480000D03*
D25*
X127720000Y-111680000D03*
D24*
X130260000Y-112480000D03*
X132800000Y-112480000D03*
X135340000Y-112480000D03*
X137880000Y-112480000D03*
D25*
X140420000Y-111680000D03*
D24*
X142960000Y-112480000D03*
X145500000Y-112480000D03*
X145500000Y-93100000D03*
X142960000Y-93100000D03*
D26*
X140420000Y-93900000D03*
D24*
X137880000Y-93100000D03*
X135340000Y-93100000D03*
X132800000Y-93100000D03*
X130260000Y-93100000D03*
D26*
X127720000Y-93900000D03*
D24*
X125180000Y-93100000D03*
X122640000Y-93100000D03*
X120100000Y-93100000D03*
X117560000Y-93100000D03*
D26*
X115020000Y-93900000D03*
D24*
X112480000Y-93100000D03*
X109940000Y-93100000D03*
X107400000Y-93100000D03*
X104860000Y-93100000D03*
D26*
X102320000Y-93900000D03*
D24*
X99780000Y-93100000D03*
X97240000Y-93100000D03*
D27*
X127070000Y-102205900D03*
D28*
X127070000Y-99665900D03*
X127070000Y-97125900D03*
D29*
X100370000Y-102790000D03*
X97070000Y-101790000D03*
X97070000Y-103790000D03*
X105370000Y-105290000D03*
X107870000Y-105290000D03*
X110370000Y-105290000D03*
D30*
X132440000Y-82120000D02*
X132440000Y-79509942D01*
X138600000Y-83150000D02*
X138600000Y-79235000D01*
X140900000Y-85450000D02*
X138600000Y-83150000D01*
X138600000Y-79235000D02*
X141900000Y-79235000D01*
X132440000Y-79509942D02*
X132714942Y-79235000D01*
X132714942Y-79235000D02*
X138600000Y-79235000D01*
X135900000Y-86390000D02*
X135890000Y-86400000D01*
X134280000Y-87020000D02*
X135890000Y-87020000D01*
X135900000Y-84875000D02*
X135900000Y-86390000D01*
X135890000Y-87020000D02*
X135890000Y-86400000D01*
X137860000Y-88990000D02*
X137860000Y-93870000D01*
X135890000Y-86400000D02*
X135890000Y-86140000D01*
X132440000Y-87544000D02*
X133756000Y-87544000D01*
X135890000Y-87020000D02*
X137860000Y-88990000D01*
X133756000Y-87544000D02*
X134280000Y-87020000D01*
X128630000Y-88430000D02*
X128630000Y-87544000D01*
X132780000Y-93870000D02*
X132780000Y-92580000D01*
X128160000Y-88900000D02*
X126862500Y-88900000D01*
X132780000Y-92580000D02*
X128630000Y-88430000D01*
X128630000Y-88430000D02*
X128160000Y-88900000D01*
X129900000Y-86300000D02*
X129900000Y-87544000D01*
X129000000Y-91100000D02*
X129000000Y-90200000D01*
X125722500Y-86250000D02*
X126450000Y-86250000D01*
X124012500Y-84540000D02*
X125722500Y-86250000D01*
X130240000Y-93870000D02*
X130240000Y-92340000D01*
X126800000Y-85900000D02*
X129500000Y-85900000D01*
X125400000Y-87300000D02*
X126450000Y-86250000D01*
X129500000Y-85900000D02*
X129900000Y-86300000D01*
X130240000Y-92140000D02*
X130240000Y-93870000D01*
X126100000Y-90200000D02*
X125400000Y-89500000D01*
X126450000Y-86250000D02*
X126800000Y-85900000D01*
X129000000Y-90200000D02*
X126100000Y-90200000D01*
X130240000Y-92340000D02*
X129000000Y-91100000D01*
X125400000Y-89500000D02*
X125400000Y-87300000D01*
X131170000Y-87544000D02*
X131170000Y-88570000D01*
X131170000Y-88570000D02*
X132900000Y-90300000D01*
X134200000Y-90300000D02*
X135320000Y-91420000D01*
X135320000Y-91420000D02*
X135320000Y-93870000D01*
X132900000Y-90300000D02*
X134200000Y-90300000D01*
X122457500Y-87420000D02*
X121087500Y-87420000D01*
X123937500Y-88900000D02*
X122457500Y-87420000D01*
X121087500Y-87420000D02*
X121087500Y-84540000D01*
X107700000Y-93550000D02*
X107380000Y-93870000D01*
X121087500Y-87420000D02*
X119807500Y-88700000D01*
X107700000Y-88700000D02*
X107700000Y-93550000D01*
X119807500Y-88700000D02*
X107700000Y-88700000D01*
X125700000Y-78100000D02*
X123050000Y-78100000D01*
X118900000Y-79025000D02*
X121775000Y-79025000D01*
X123050000Y-78100000D02*
X121800000Y-79350000D01*
X131170000Y-82120000D02*
X131170000Y-78870000D01*
X121775000Y-79025000D02*
X122100000Y-79350000D01*
X131170000Y-78870000D02*
X130400000Y-78100000D01*
X130400000Y-78100000D02*
X125700000Y-78100000D01*
X129900000Y-80300000D02*
X129300000Y-79700000D01*
X129900000Y-82120000D02*
X129900000Y-80300000D01*
X121800000Y-81250000D02*
X124950000Y-81250000D01*
X124950000Y-81250000D02*
X125700000Y-82000000D01*
X127200000Y-79700000D02*
X125700000Y-81200000D01*
X129300000Y-79700000D02*
X127200000Y-79700000D01*
X121785000Y-81565000D02*
X122100000Y-81250000D01*
X125700000Y-81200000D02*
X125700000Y-82000000D01*
X118900000Y-81565000D02*
X121785000Y-81565000D01*
G04 #@! TA.AperFunction,Conductor*
G36*
X122224442Y-88040185D02*
G01*
X122245084Y-88056819D01*
X122938181Y-88749916D01*
X122971666Y-88811239D01*
X122974500Y-88837597D01*
X122974500Y-89590701D01*
X122977401Y-89627567D01*
X122977402Y-89627573D01*
X123023254Y-89785393D01*
X123023255Y-89785396D01*
X123106917Y-89926862D01*
X123106923Y-89926870D01*
X123223129Y-90043076D01*
X123223133Y-90043079D01*
X123223135Y-90043081D01*
X123364602Y-90126744D01*
X123406224Y-90138836D01*
X123522426Y-90172597D01*
X123522429Y-90172597D01*
X123522431Y-90172598D01*
X123559306Y-90175500D01*
X123559314Y-90175500D01*
X124315686Y-90175500D01*
X124315694Y-90175500D01*
X124352569Y-90172598D01*
X124352571Y-90172597D01*
X124352573Y-90172597D01*
X124394191Y-90160505D01*
X124510398Y-90126744D01*
X124651865Y-90043081D01*
X124768081Y-89926865D01*
X124768084Y-89926858D01*
X124772861Y-89920702D01*
X124775421Y-89922687D01*
X124782359Y-89916197D01*
X124796999Y-89896641D01*
X124807422Y-89892753D01*
X124815546Y-89885154D01*
X124839575Y-89880760D01*
X124862463Y-89872224D01*
X124873333Y-89874588D01*
X124884276Y-89872588D01*
X124906865Y-89881882D01*
X124930736Y-89887075D01*
X124944466Y-89897354D01*
X124948890Y-89899174D01*
X124958981Y-89908217D01*
X125031284Y-89980520D01*
X125031286Y-89980521D01*
X125038356Y-89987591D01*
X125615139Y-90564374D01*
X125615149Y-90564385D01*
X125619479Y-90568715D01*
X125619480Y-90568716D01*
X125731284Y-90680520D01*
X125731286Y-90680521D01*
X125731290Y-90680524D01*
X125863101Y-90756624D01*
X125868216Y-90759577D01*
X125980019Y-90789534D01*
X126020942Y-90800500D01*
X126020943Y-90800500D01*
X127326704Y-90800500D01*
X127393743Y-90820185D01*
X127439498Y-90872989D01*
X127449442Y-90942147D01*
X127420417Y-91005703D01*
X127362699Y-91043161D01*
X127293387Y-91064185D01*
X127147801Y-91124490D01*
X127060498Y-91171155D01*
X127060478Y-91171167D01*
X126929469Y-91258704D01*
X126929463Y-91258708D01*
X126852935Y-91321514D01*
X126741515Y-91432934D01*
X126678709Y-91509463D01*
X126678700Y-91509475D01*
X126600325Y-91626772D01*
X126600325Y-91626773D01*
X127896776Y-92923224D01*
X129048905Y-94075354D01*
X129081930Y-94134645D01*
X129116854Y-94283135D01*
X129116860Y-94283151D01*
X129206722Y-94486671D01*
X129206723Y-94486672D01*
X129236294Y-94529840D01*
X129242596Y-94539039D01*
X129242599Y-94539043D01*
X129332457Y-94670220D01*
X129332462Y-94670226D01*
X129489773Y-94827537D01*
X129489779Y-94827542D01*
X129673329Y-94953277D01*
X129673330Y-94953277D01*
X129673331Y-94953278D01*
X129766317Y-94994335D01*
X129876857Y-95043143D01*
X129876861Y-95043144D01*
X129876864Y-95043145D01*
X130093422Y-95094079D01*
X130093427Y-95094079D01*
X130093433Y-95094081D01*
X130144808Y-95097647D01*
X130185904Y-95100500D01*
X130185908Y-95100500D01*
X130334096Y-95100500D01*
X130371082Y-95097932D01*
X130426567Y-95094081D01*
X130426573Y-95094079D01*
X130426577Y-95094079D01*
X130643135Y-95043145D01*
X130643135Y-95043144D01*
X130643143Y-95043143D01*
X130846671Y-94953277D01*
X131030221Y-94827542D01*
X131187542Y-94670221D01*
X131313277Y-94486671D01*
X131403143Y-94283143D01*
X131409294Y-94256992D01*
X131443804Y-94196240D01*
X131505681Y-94163790D01*
X131575279Y-94169945D01*
X131630501Y-94212749D01*
X131650706Y-94256992D01*
X131656854Y-94283135D01*
X131656860Y-94283151D01*
X131746721Y-94486668D01*
X131872457Y-94670220D01*
X131872462Y-94670226D01*
X132029773Y-94827537D01*
X132029779Y-94827542D01*
X132213329Y-94953277D01*
X132213330Y-94953277D01*
X132213331Y-94953278D01*
X132306317Y-94994335D01*
X132416857Y-95043143D01*
X132416861Y-95043144D01*
X132416864Y-95043145D01*
X132633422Y-95094079D01*
X132633427Y-95094079D01*
X132633433Y-95094081D01*
X132684808Y-95097647D01*
X132725904Y-95100500D01*
X132725908Y-95100500D01*
X132874096Y-95100500D01*
X132911082Y-95097932D01*
X132966567Y-95094081D01*
X132966573Y-95094079D01*
X132966577Y-95094079D01*
X133183135Y-95043145D01*
X133183135Y-95043144D01*
X133183143Y-95043143D01*
X133386671Y-94953277D01*
X133570221Y-94827542D01*
X133727542Y-94670221D01*
X133853277Y-94486671D01*
X133943143Y-94283143D01*
X133949294Y-94256992D01*
X133983804Y-94196240D01*
X134045681Y-94163790D01*
X134115279Y-94169945D01*
X134170501Y-94212749D01*
X134190706Y-94256992D01*
X134196854Y-94283135D01*
X134196860Y-94283151D01*
X134286721Y-94486668D01*
X134412457Y-94670220D01*
X134412462Y-94670226D01*
X134569773Y-94827537D01*
X134569779Y-94827542D01*
X134753329Y-94953277D01*
X134753330Y-94953277D01*
X134753331Y-94953278D01*
X134846317Y-94994335D01*
X134956857Y-95043143D01*
X134956861Y-95043144D01*
X134956864Y-95043145D01*
X135173422Y-95094079D01*
X135173427Y-95094079D01*
X135173433Y-95094081D01*
X135224808Y-95097647D01*
X135265904Y-95100500D01*
X135265908Y-95100500D01*
X135414096Y-95100500D01*
X135451082Y-95097932D01*
X135506567Y-95094081D01*
X135506573Y-95094079D01*
X135506577Y-95094079D01*
X135723135Y-95043145D01*
X135723135Y-95043144D01*
X135723143Y-95043143D01*
X135926671Y-94953277D01*
X136110221Y-94827542D01*
X136267542Y-94670221D01*
X136393277Y-94486671D01*
X136483143Y-94283143D01*
X136489294Y-94256992D01*
X136523804Y-94196240D01*
X136585681Y-94163790D01*
X136655279Y-94169945D01*
X136710501Y-94212749D01*
X136730706Y-94256992D01*
X136736854Y-94283135D01*
X136736860Y-94283151D01*
X136826721Y-94486668D01*
X136952457Y-94670220D01*
X136952462Y-94670226D01*
X137109773Y-94827537D01*
X137109779Y-94827542D01*
X137293329Y-94953277D01*
X137426087Y-95011895D01*
X137479462Y-95056980D01*
X137499990Y-95123766D01*
X137500000Y-95125329D01*
X137500000Y-110454671D01*
X137480315Y-110521710D01*
X137427511Y-110567465D01*
X137426168Y-110568068D01*
X137293334Y-110626721D01*
X137293327Y-110626724D01*
X137109779Y-110752457D01*
X137109773Y-110752462D01*
X136952462Y-110909773D01*
X136952457Y-110909779D01*
X136826721Y-111093331D01*
X136736860Y-111296848D01*
X136736854Y-111296864D01*
X136730706Y-111323007D01*
X136696195Y-111383759D01*
X136634318Y-111416209D01*
X136564720Y-111410054D01*
X136509498Y-111367249D01*
X136489294Y-111323007D01*
X136483145Y-111296864D01*
X136483144Y-111296861D01*
X136483143Y-111296857D01*
X136393277Y-111093329D01*
X136267542Y-110909779D01*
X136267537Y-110909773D01*
X136110226Y-110752462D01*
X136110220Y-110752457D01*
X135926668Y-110626721D01*
X135723151Y-110536860D01*
X135723135Y-110536854D01*
X135506577Y-110485920D01*
X135506561Y-110485918D01*
X135414096Y-110479500D01*
X135414092Y-110479500D01*
X135265908Y-110479500D01*
X135265904Y-110479500D01*
X135173438Y-110485918D01*
X135173422Y-110485920D01*
X134956864Y-110536854D01*
X134956848Y-110536860D01*
X134753331Y-110626721D01*
X134569779Y-110752457D01*
X134569773Y-110752462D01*
X134412462Y-110909773D01*
X134412457Y-110909779D01*
X134286721Y-111093331D01*
X134196860Y-111296848D01*
X134196854Y-111296864D01*
X134190706Y-111323007D01*
X134156195Y-111383759D01*
X134094318Y-111416209D01*
X134024720Y-111410054D01*
X133969498Y-111367249D01*
X133949294Y-111323007D01*
X133943145Y-111296864D01*
X133943144Y-111296861D01*
X133943143Y-111296857D01*
X133853277Y-111093329D01*
X133727542Y-110909779D01*
X133727537Y-110909773D01*
X133570226Y-110752462D01*
X133570220Y-110752457D01*
X133386668Y-110626721D01*
X133183151Y-110536860D01*
X133183135Y-110536854D01*
X132966577Y-110485920D01*
X132966561Y-110485918D01*
X132874096Y-110479500D01*
X132874092Y-110479500D01*
X132725908Y-110479500D01*
X132725904Y-110479500D01*
X132633438Y-110485918D01*
X132633422Y-110485920D01*
X132416864Y-110536854D01*
X132416848Y-110536860D01*
X132213331Y-110626721D01*
X132029779Y-110752457D01*
X132029773Y-110752462D01*
X131872462Y-110909773D01*
X131872457Y-110909779D01*
X131746721Y-111093331D01*
X131656860Y-111296848D01*
X131656854Y-111296864D01*
X131650706Y-111323007D01*
X131616195Y-111383759D01*
X131554318Y-111416209D01*
X131484720Y-111410054D01*
X131429498Y-111367249D01*
X131409294Y-111323007D01*
X131403145Y-111296864D01*
X131403144Y-111296861D01*
X131403143Y-111296857D01*
X131313277Y-111093329D01*
X131187542Y-110909779D01*
X131187537Y-110909773D01*
X131030226Y-110752462D01*
X131030220Y-110752457D01*
X130846668Y-110626721D01*
X130643151Y-110536860D01*
X130643135Y-110536854D01*
X130426577Y-110485920D01*
X130426561Y-110485918D01*
X130334096Y-110479500D01*
X130334092Y-110479500D01*
X130185908Y-110479500D01*
X130185904Y-110479500D01*
X130093438Y-110485918D01*
X130093422Y-110485920D01*
X129876864Y-110536854D01*
X129876848Y-110536860D01*
X129673331Y-110626721D01*
X129489779Y-110752457D01*
X129489773Y-110752462D01*
X129332462Y-110909773D01*
X129332457Y-110909779D01*
X129206721Y-111093331D01*
X129116860Y-111296848D01*
X129116854Y-111296864D01*
X129081930Y-111445354D01*
X129048905Y-111504645D01*
X128073552Y-112479999D01*
X128073552Y-112480000D01*
X129048904Y-113455352D01*
X129081929Y-113514643D01*
X129116854Y-113663135D01*
X129116860Y-113663151D01*
X129188506Y-113825414D01*
X129192944Y-113859311D01*
X129197810Y-113893147D01*
X129197472Y-113893886D01*
X129197578Y-113894692D01*
X129182993Y-113925590D01*
X129168785Y-113956703D01*
X129168100Y-113957142D01*
X129167754Y-113957877D01*
X129138776Y-113975987D01*
X129110007Y-113994477D01*
X129108951Y-113994628D01*
X129108505Y-113994908D01*
X129075072Y-113999500D01*
X128937311Y-113999500D01*
X128870272Y-113979815D01*
X128849630Y-113963181D01*
X127720000Y-112833552D01*
X126590369Y-113963181D01*
X126563441Y-113977884D01*
X126537623Y-113994477D01*
X126531422Y-113995368D01*
X126529046Y-113996666D01*
X126502688Y-113999500D01*
X126364928Y-113999500D01*
X126297889Y-113979815D01*
X126252134Y-113927011D01*
X126242190Y-113857853D01*
X126251494Y-113825414D01*
X126323139Y-113663151D01*
X126323143Y-113663143D01*
X126358070Y-113514643D01*
X126391095Y-113455352D01*
X127366448Y-112480000D01*
X127366448Y-112479999D01*
X126391094Y-111504645D01*
X126358069Y-111445353D01*
X126323145Y-111296866D01*
X126323143Y-111296857D01*
X126233277Y-111093329D01*
X126203694Y-111050143D01*
X126203694Y-111050142D01*
X126197390Y-111040940D01*
X126197389Y-111040939D01*
X126107542Y-110909779D01*
X126107537Y-110909773D01*
X126103416Y-110905652D01*
X126434346Y-110905652D01*
X126484061Y-110930540D01*
X126510109Y-110932403D01*
X126554456Y-110960904D01*
X127719999Y-112126447D01*
X128885542Y-110960905D01*
X128946865Y-110927420D01*
X128951607Y-110927759D01*
X129000129Y-110900129D01*
X128986559Y-110846961D01*
X128956118Y-110773471D01*
X128956106Y-110773443D01*
X128932781Y-110724690D01*
X128932778Y-110724685D01*
X128846641Y-110609621D01*
X128846638Y-110609617D01*
X128790376Y-110553356D01*
X128790359Y-110553340D01*
X128750157Y-110517229D01*
X128626545Y-110443888D01*
X128626538Y-110443884D01*
X128553067Y-110413452D01*
X128553064Y-110413451D01*
X128502053Y-110395455D01*
X128359780Y-110375000D01*
X127080214Y-110375000D01*
X127026237Y-110377893D01*
X127026235Y-110377893D01*
X126886969Y-110413438D01*
X126886957Y-110413442D01*
X126813471Y-110443881D01*
X126813443Y-110443893D01*
X126764690Y-110467218D01*
X126764685Y-110467221D01*
X126649621Y-110553358D01*
X126649617Y-110553361D01*
X126593356Y-110609623D01*
X126593340Y-110609640D01*
X126557229Y-110649842D01*
X126483888Y-110773454D01*
X126483884Y-110773461D01*
X126453452Y-110846932D01*
X126453442Y-110846957D01*
X126435458Y-110897935D01*
X126435455Y-110897945D01*
X126434346Y-110905652D01*
X126103416Y-110905652D01*
X125950226Y-110752462D01*
X125950220Y-110752457D01*
X125766668Y-110626721D01*
X125563151Y-110536860D01*
X125563135Y-110536854D01*
X125346577Y-110485920D01*
X125346561Y-110485918D01*
X125254096Y-110479500D01*
X125254092Y-110479500D01*
X125105908Y-110479500D01*
X125105904Y-110479500D01*
X125013438Y-110485918D01*
X125013422Y-110485920D01*
X124796864Y-110536854D01*
X124796848Y-110536860D01*
X124593331Y-110626721D01*
X124409779Y-110752457D01*
X124409773Y-110752462D01*
X124252462Y-110909773D01*
X124252457Y-110909779D01*
X124126721Y-111093331D01*
X124036860Y-111296848D01*
X124036854Y-111296864D01*
X124030706Y-111323007D01*
X123996195Y-111383759D01*
X123934318Y-111416209D01*
X123864720Y-111410054D01*
X123809498Y-111367249D01*
X123789294Y-111323007D01*
X123783145Y-111296864D01*
X123783144Y-111296861D01*
X123783143Y-111296857D01*
X123693277Y-111093329D01*
X123567542Y-110909779D01*
X123567537Y-110909773D01*
X123410226Y-110752462D01*
X123410220Y-110752457D01*
X123226668Y-110626721D01*
X123023151Y-110536860D01*
X123023135Y-110536854D01*
X122806577Y-110485920D01*
X122806561Y-110485918D01*
X122714096Y-110479500D01*
X122714092Y-110479500D01*
X122565908Y-110479500D01*
X122565904Y-110479500D01*
X122473438Y-110485918D01*
X122473422Y-110485920D01*
X122256864Y-110536854D01*
X122256848Y-110536860D01*
X122053331Y-110626721D01*
X121869779Y-110752457D01*
X121869773Y-110752462D01*
X121712462Y-110909773D01*
X121712457Y-110909779D01*
X121586721Y-111093331D01*
X121496860Y-111296848D01*
X121496854Y-111296864D01*
X121490706Y-111323007D01*
X121456195Y-111383759D01*
X121394318Y-111416209D01*
X121324720Y-111410054D01*
X121269498Y-111367249D01*
X121249294Y-111323007D01*
X121243145Y-111296864D01*
X121243144Y-111296861D01*
X121243143Y-111296857D01*
X121153277Y-111093329D01*
X121027542Y-110909779D01*
X121027537Y-110909773D01*
X120870226Y-110752462D01*
X120870220Y-110752457D01*
X120686668Y-110626721D01*
X120483151Y-110536860D01*
X120483135Y-110536854D01*
X120266577Y-110485920D01*
X120266561Y-110485918D01*
X120174096Y-110479500D01*
X120174092Y-110479500D01*
X120025908Y-110479500D01*
X120025904Y-110479500D01*
X119933438Y-110485918D01*
X119933422Y-110485920D01*
X119716864Y-110536854D01*
X119716848Y-110536860D01*
X119513331Y-110626721D01*
X119329779Y-110752457D01*
X119329773Y-110752462D01*
X119172462Y-110909773D01*
X119172457Y-110909779D01*
X119046721Y-111093331D01*
X118956860Y-111296848D01*
X118956854Y-111296864D01*
X118950706Y-111323007D01*
X118916195Y-111383759D01*
X118854318Y-111416209D01*
X118784720Y-111410054D01*
X118729498Y-111367249D01*
X118709294Y-111323007D01*
X118703145Y-111296864D01*
X118703144Y-111296861D01*
X118703143Y-111296857D01*
X118613277Y-111093329D01*
X118487542Y-110909779D01*
X118487537Y-110909773D01*
X118330226Y-110752462D01*
X118330220Y-110752457D01*
X118146668Y-110626721D01*
X117943151Y-110536860D01*
X117943135Y-110536854D01*
X117726577Y-110485920D01*
X117726561Y-110485918D01*
X117634096Y-110479500D01*
X117634092Y-110479500D01*
X117485908Y-110479500D01*
X117485904Y-110479500D01*
X117393438Y-110485918D01*
X117393422Y-110485920D01*
X117176864Y-110536854D01*
X117176848Y-110536860D01*
X116973331Y-110626721D01*
X116789779Y-110752457D01*
X116789773Y-110752462D01*
X116632462Y-110909773D01*
X116632457Y-110909779D01*
X116506721Y-111093331D01*
X116416860Y-111296848D01*
X116416854Y-111296864D01*
X116381930Y-111445354D01*
X116348905Y-111504645D01*
X115373552Y-112479999D01*
X115373552Y-112480000D01*
X116348904Y-113455352D01*
X116381929Y-113514643D01*
X116416854Y-113663135D01*
X116416860Y-113663151D01*
X116488506Y-113825414D01*
X116492944Y-113859311D01*
X116497810Y-113893147D01*
X116497472Y-113893886D01*
X116497578Y-113894692D01*
X116482993Y-113925590D01*
X116468785Y-113956703D01*
X116468100Y-113957142D01*
X116467754Y-113957877D01*
X116438776Y-113975987D01*
X116410007Y-113994477D01*
X116408951Y-113994628D01*
X116408505Y-113994908D01*
X116375072Y-113999500D01*
X116237311Y-113999500D01*
X116170272Y-113979815D01*
X116149630Y-113963181D01*
X115020000Y-112833552D01*
X113890369Y-113963181D01*
X113863441Y-113977884D01*
X113837623Y-113994477D01*
X113831422Y-113995368D01*
X113829046Y-113996666D01*
X113802688Y-113999500D01*
X113664928Y-113999500D01*
X113597889Y-113979815D01*
X113552134Y-113927011D01*
X113542190Y-113857853D01*
X113551494Y-113825414D01*
X113623139Y-113663151D01*
X113623143Y-113663143D01*
X113658070Y-113514643D01*
X113691095Y-113455352D01*
X114666448Y-112480000D01*
X114666448Y-112479999D01*
X113691094Y-111504645D01*
X113658069Y-111445353D01*
X113623145Y-111296866D01*
X113623143Y-111296857D01*
X113533277Y-111093329D01*
X113503694Y-111050143D01*
X113503694Y-111050142D01*
X113497390Y-111040940D01*
X113497389Y-111040939D01*
X113407542Y-110909779D01*
X113407537Y-110909773D01*
X113403416Y-110905652D01*
X113734346Y-110905652D01*
X113784061Y-110930540D01*
X113810109Y-110932403D01*
X113854456Y-110960904D01*
X115019999Y-112126447D01*
X116185542Y-110960905D01*
X116246865Y-110927420D01*
X116251607Y-110927759D01*
X116300129Y-110900129D01*
X116286559Y-110846961D01*
X116256118Y-110773471D01*
X116256106Y-110773443D01*
X116232781Y-110724690D01*
X116232778Y-110724685D01*
X116146641Y-110609621D01*
X116146638Y-110609617D01*
X116090376Y-110553356D01*
X116090359Y-110553340D01*
X116050157Y-110517229D01*
X115926545Y-110443888D01*
X115926538Y-110443884D01*
X115853067Y-110413452D01*
X115853064Y-110413451D01*
X115802053Y-110395455D01*
X115659780Y-110375000D01*
X114380214Y-110375000D01*
X114326237Y-110377893D01*
X114326235Y-110377893D01*
X114186969Y-110413438D01*
X114186957Y-110413442D01*
X114113471Y-110443881D01*
X114113443Y-110443893D01*
X114064690Y-110467218D01*
X114064685Y-110467221D01*
X113949621Y-110553358D01*
X113949617Y-110553361D01*
X113893356Y-110609623D01*
X113893340Y-110609640D01*
X113857229Y-110649842D01*
X113783888Y-110773454D01*
X113783884Y-110773461D01*
X113753452Y-110846932D01*
X113753442Y-110846957D01*
X113735458Y-110897935D01*
X113735455Y-110897945D01*
X113734346Y-110905652D01*
X113403416Y-110905652D01*
X113250226Y-110752462D01*
X113250220Y-110752457D01*
X113066668Y-110626721D01*
X112863151Y-110536860D01*
X112863135Y-110536854D01*
X112646577Y-110485920D01*
X112646561Y-110485918D01*
X112554096Y-110479500D01*
X112554092Y-110479500D01*
X112405908Y-110479500D01*
X112405904Y-110479500D01*
X112313438Y-110485918D01*
X112313422Y-110485920D01*
X112096864Y-110536854D01*
X112096848Y-110536860D01*
X111893331Y-110626721D01*
X111709779Y-110752457D01*
X111709773Y-110752462D01*
X111552462Y-110909773D01*
X111552457Y-110909779D01*
X111426721Y-111093331D01*
X111336860Y-111296848D01*
X111336854Y-111296864D01*
X111330706Y-111323007D01*
X111296195Y-111383759D01*
X111234318Y-111416209D01*
X111164720Y-111410054D01*
X111109498Y-111367249D01*
X111089294Y-111323007D01*
X111083145Y-111296864D01*
X111083144Y-111296861D01*
X111083143Y-111296857D01*
X110993277Y-111093329D01*
X110867542Y-110909779D01*
X110867537Y-110909773D01*
X110710226Y-110752462D01*
X110710220Y-110752457D01*
X110526668Y-110626721D01*
X110323151Y-110536860D01*
X110323135Y-110536854D01*
X110106577Y-110485920D01*
X110106561Y-110485918D01*
X110014096Y-110479500D01*
X110014092Y-110479500D01*
X109865908Y-110479500D01*
X109865904Y-110479500D01*
X109773438Y-110485918D01*
X109773422Y-110485920D01*
X109556864Y-110536854D01*
X109556848Y-110536860D01*
X109353331Y-110626721D01*
X109169779Y-110752457D01*
X109169773Y-110752462D01*
X109012462Y-110909773D01*
X109012457Y-110909779D01*
X108886721Y-111093331D01*
X108796860Y-111296848D01*
X108796854Y-111296864D01*
X108790706Y-111323007D01*
X108756195Y-111383759D01*
X108694318Y-111416209D01*
X108624720Y-111410054D01*
X108569498Y-111367249D01*
X108549294Y-111323007D01*
X108543145Y-111296864D01*
X108543144Y-111296861D01*
X108543143Y-111296857D01*
X108453277Y-111093329D01*
X108327542Y-110909779D01*
X108327537Y-110909773D01*
X108170226Y-110752462D01*
X108170220Y-110752457D01*
X107986668Y-110626721D01*
X107783151Y-110536860D01*
X107783135Y-110536854D01*
X107566577Y-110485920D01*
X107566561Y-110485918D01*
X107474096Y-110479500D01*
X107474092Y-110479500D01*
X107325908Y-110479500D01*
X107325904Y-110479500D01*
X107233438Y-110485918D01*
X107233422Y-110485920D01*
X107016864Y-110536854D01*
X107016848Y-110536860D01*
X106813331Y-110626721D01*
X106629779Y-110752457D01*
X106629773Y-110752462D01*
X106472462Y-110909773D01*
X106472457Y-110909779D01*
X106346721Y-111093331D01*
X106256860Y-111296848D01*
X106256854Y-111296864D01*
X106250706Y-111323007D01*
X106216195Y-111383759D01*
X106154318Y-111416209D01*
X106084720Y-111410054D01*
X106029498Y-111367249D01*
X106009294Y-111323007D01*
X106003145Y-111296864D01*
X106003144Y-111296861D01*
X106003143Y-111296857D01*
X105913277Y-111093329D01*
X105787542Y-110909779D01*
X105787537Y-110909773D01*
X105630226Y-110752462D01*
X105630220Y-110752457D01*
X105446668Y-110626721D01*
X105243151Y-110536860D01*
X105243135Y-110536854D01*
X105026577Y-110485920D01*
X105026561Y-110485918D01*
X104934096Y-110479500D01*
X104934092Y-110479500D01*
X104785908Y-110479500D01*
X104785904Y-110479500D01*
X104693438Y-110485918D01*
X104693422Y-110485920D01*
X104476864Y-110536854D01*
X104476848Y-110536860D01*
X104273331Y-110626721D01*
X104089779Y-110752457D01*
X104089773Y-110752462D01*
X103932462Y-110909773D01*
X103932457Y-110909779D01*
X103806721Y-111093331D01*
X103716860Y-111296848D01*
X103716854Y-111296864D01*
X103681930Y-111445354D01*
X103648905Y-111504645D01*
X102673552Y-112479999D01*
X102673552Y-112480000D01*
X103648904Y-113455352D01*
X103681929Y-113514643D01*
X103716854Y-113663135D01*
X103716860Y-113663151D01*
X103788506Y-113825414D01*
X103792944Y-113859311D01*
X103797810Y-113893147D01*
X103797472Y-113893886D01*
X103797578Y-113894692D01*
X103782993Y-113925590D01*
X103768785Y-113956703D01*
X103768100Y-113957142D01*
X103767754Y-113957877D01*
X103738776Y-113975987D01*
X103710007Y-113994477D01*
X103708951Y-113994628D01*
X103708505Y-113994908D01*
X103675072Y-113999500D01*
X103537311Y-113999500D01*
X103470272Y-113979815D01*
X103449630Y-113963181D01*
X102320000Y-112833552D01*
X101190369Y-113963181D01*
X101163441Y-113977884D01*
X101137623Y-113994477D01*
X101131422Y-113995368D01*
X101129046Y-113996666D01*
X101102688Y-113999500D01*
X100964928Y-113999500D01*
X100897889Y-113979815D01*
X100852134Y-113927011D01*
X100842190Y-113857853D01*
X100851494Y-113825414D01*
X100923139Y-113663151D01*
X100923143Y-113663143D01*
X100958070Y-113514643D01*
X100991095Y-113455352D01*
X101966448Y-112480000D01*
X101966448Y-112479999D01*
X100991094Y-111504645D01*
X100958069Y-111445353D01*
X100923145Y-111296866D01*
X100923143Y-111296857D01*
X100833277Y-111093329D01*
X100803694Y-111050143D01*
X100803694Y-111050142D01*
X100797390Y-111040940D01*
X100797389Y-111040939D01*
X100707542Y-110909779D01*
X100707537Y-110909773D01*
X100703416Y-110905652D01*
X101034346Y-110905652D01*
X101084061Y-110930540D01*
X101110109Y-110932403D01*
X101154456Y-110960904D01*
X102319999Y-112126447D01*
X103485542Y-110960905D01*
X103546865Y-110927420D01*
X103551607Y-110927759D01*
X103600129Y-110900129D01*
X103586559Y-110846961D01*
X103556118Y-110773471D01*
X103556106Y-110773443D01*
X103532781Y-110724690D01*
X103532778Y-110724685D01*
X103446641Y-110609621D01*
X103446638Y-110609617D01*
X103390376Y-110553356D01*
X103390359Y-110553340D01*
X103350157Y-110517229D01*
X103226545Y-110443888D01*
X103226538Y-110443884D01*
X103153067Y-110413452D01*
X103153064Y-110413451D01*
X103102053Y-110395455D01*
X102959780Y-110375000D01*
X101680214Y-110375000D01*
X101626237Y-110377893D01*
X101626235Y-110377893D01*
X101486969Y-110413438D01*
X101486957Y-110413442D01*
X101413471Y-110443881D01*
X101413443Y-110443893D01*
X101364690Y-110467218D01*
X101364685Y-110467221D01*
X101249621Y-110553358D01*
X101249617Y-110553361D01*
X101193356Y-110609623D01*
X101193340Y-110609640D01*
X101157229Y-110649842D01*
X101083888Y-110773454D01*
X101083884Y-110773461D01*
X101053452Y-110846932D01*
X101053442Y-110846957D01*
X101035458Y-110897935D01*
X101035455Y-110897945D01*
X101034346Y-110905652D01*
X100703416Y-110905652D01*
X100550226Y-110752462D01*
X100550220Y-110752457D01*
X100366668Y-110626721D01*
X100163151Y-110536860D01*
X100163135Y-110536854D01*
X99946577Y-110485920D01*
X99946561Y-110485918D01*
X99854096Y-110479500D01*
X99854092Y-110479500D01*
X99705908Y-110479500D01*
X99705904Y-110479500D01*
X99613438Y-110485918D01*
X99613422Y-110485920D01*
X99396864Y-110536854D01*
X99396848Y-110536860D01*
X99193331Y-110626721D01*
X99009779Y-110752457D01*
X99009773Y-110752462D01*
X98852462Y-110909773D01*
X98852457Y-110909779D01*
X98726721Y-111093331D01*
X98636860Y-111296848D01*
X98636855Y-111296862D01*
X98632638Y-111314793D01*
X98598127Y-111375545D01*
X98536249Y-111407994D01*
X98466651Y-111401839D01*
X98411430Y-111359033D01*
X98393271Y-111322396D01*
X98383889Y-111291467D01*
X98366225Y-111248824D01*
X98323584Y-111145879D01*
X98286112Y-111075774D01*
X98268986Y-111050143D01*
X98198574Y-110944763D01*
X98198567Y-110944753D01*
X98198562Y-110944746D01*
X98148133Y-110883298D01*
X98148132Y-110883297D01*
X98148128Y-110883292D01*
X98036707Y-110771871D01*
X97975259Y-110721442D01*
X97975236Y-110721425D01*
X97844242Y-110633898D01*
X97844231Y-110633891D01*
X97844226Y-110633888D01*
X97774121Y-110596416D01*
X97628535Y-110536111D01*
X97581060Y-110521710D01*
X97552459Y-110513034D01*
X97552454Y-110513033D01*
X97552451Y-110513032D01*
X97488930Y-110500397D01*
X97397901Y-110482291D01*
X97397895Y-110482290D01*
X97397888Y-110482289D01*
X97335787Y-110476173D01*
X97318793Y-110474500D01*
X97161207Y-110474500D01*
X97142167Y-110476375D01*
X97082113Y-110482289D01*
X97082108Y-110482289D01*
X96927548Y-110513032D01*
X96851464Y-110536111D01*
X96705878Y-110596416D01*
X96635777Y-110633886D01*
X96635757Y-110633898D01*
X96504763Y-110721425D01*
X96504740Y-110721442D01*
X96443292Y-110771871D01*
X96331871Y-110883292D01*
X96281442Y-110944740D01*
X96281425Y-110944763D01*
X96193898Y-111075757D01*
X96193886Y-111075777D01*
X96156416Y-111145878D01*
X96096111Y-111291464D01*
X96073032Y-111367548D01*
X96042289Y-111522108D01*
X96042289Y-111522113D01*
X96034500Y-111601208D01*
X96034500Y-113875500D01*
X96014815Y-113942539D01*
X95962011Y-113988294D01*
X95910500Y-113999500D01*
X95423357Y-113999500D01*
X95356318Y-113979815D01*
X95310563Y-113927011D01*
X95299357Y-113875727D01*
X95299340Y-113866671D01*
X95290361Y-108963991D01*
X95276295Y-101283386D01*
X95919500Y-101283386D01*
X95919500Y-102296613D01*
X95925913Y-102367192D01*
X95976522Y-102529606D01*
X96064530Y-102675188D01*
X96091661Y-102702319D01*
X96125146Y-102763642D01*
X96120162Y-102833334D01*
X96091661Y-102877681D01*
X96064531Y-102904810D01*
X96064530Y-102904811D01*
X95976522Y-103050393D01*
X95925913Y-103212807D01*
X95919500Y-103283386D01*
X95919500Y-104296613D01*
X95925913Y-104367192D01*
X95925913Y-104367194D01*
X95925914Y-104367196D01*
X95976522Y-104529606D01*
X96063012Y-104672678D01*
X96064530Y-104675188D01*
X96184813Y-104795471D01*
X96196859Y-104802753D01*
X96244047Y-104854280D01*
X96255887Y-104923139D01*
X96235814Y-104977761D01*
X96177680Y-105064764D01*
X96177676Y-105064771D01*
X96106027Y-105237748D01*
X96106025Y-105237756D01*
X96069500Y-105421379D01*
X96069500Y-105608620D01*
X96106025Y-105792243D01*
X96106027Y-105792251D01*
X96177676Y-105965228D01*
X96177681Y-105965237D01*
X96281697Y-106120907D01*
X96281700Y-106120911D01*
X96414088Y-106253299D01*
X96414092Y-106253302D01*
X96569762Y-106357318D01*
X96569768Y-106357321D01*
X96569769Y-106357322D01*
X96742749Y-106428973D01*
X96926379Y-106465499D01*
X96926383Y-106465500D01*
X96926384Y-106465500D01*
X97813617Y-106465500D01*
X97813618Y-106465499D01*
X97997251Y-106428973D01*
X98170231Y-106357322D01*
X98325908Y-106253302D01*
X98458302Y-106120908D01*
X98562322Y-105965231D01*
X98633973Y-105792251D01*
X98670500Y-105608616D01*
X98670500Y-105421384D01*
X98647580Y-105306156D01*
X99274499Y-105306156D01*
X99310065Y-105484952D01*
X99310068Y-105484962D01*
X99379831Y-105653387D01*
X99379833Y-105653391D01*
X99481113Y-105804967D01*
X99481119Y-105804975D01*
X99610024Y-105933880D01*
X99610032Y-105933886D01*
X99761608Y-106035166D01*
X99761612Y-106035168D01*
X99930037Y-106104931D01*
X99930042Y-106104933D01*
X99930046Y-106104933D01*
X99930047Y-106104934D01*
X100108843Y-106140500D01*
X100108846Y-106140500D01*
X100691156Y-106140500D01*
X100811445Y-106116572D01*
X100869958Y-106104933D01*
X101038389Y-106035167D01*
X101038391Y-106035166D01*
X101143056Y-105965231D01*
X101189972Y-105933883D01*
X101318883Y-105804972D01*
X101420167Y-105653389D01*
X101438713Y-105608616D01*
X101489931Y-105484962D01*
X101489933Y-105484958D01*
X101525500Y-105306154D01*
X101525500Y-105123846D01*
X101525500Y-105123843D01*
X101489934Y-104945047D01*
X101489933Y-104945046D01*
X101489933Y-104945042D01*
X101475042Y-104909092D01*
X101441464Y-104828026D01*
X101422973Y-104783384D01*
X104219500Y-104783384D01*
X104219500Y-105796616D01*
X104220260Y-105804975D01*
X104225913Y-105867192D01*
X104225913Y-105867194D01*
X104225914Y-105867196D01*
X104246693Y-105933880D01*
X104276522Y-106029606D01*
X104364530Y-106175188D01*
X104484811Y-106295469D01*
X104484813Y-106295470D01*
X104484815Y-106295472D01*
X104630394Y-106383478D01*
X104792804Y-106434086D01*
X104863384Y-106440500D01*
X104863387Y-106440500D01*
X105876613Y-106440500D01*
X105876616Y-106440500D01*
X105947196Y-106434086D01*
X106109606Y-106383478D01*
X106255185Y-106295472D01*
X106375472Y-106175185D01*
X106463478Y-106029606D01*
X106501615Y-105907217D01*
X106540352Y-105849070D01*
X106604377Y-105821096D01*
X106673362Y-105832177D01*
X106725405Y-105878796D01*
X106738384Y-105907215D01*
X106776522Y-106029606D01*
X106831718Y-106120911D01*
X106864530Y-106175188D01*
X106984811Y-106295469D01*
X106984813Y-106295470D01*
X106984815Y-106295472D01*
X107130394Y-106383478D01*
X107292804Y-106434086D01*
X107363384Y-106440500D01*
X107363387Y-106440500D01*
X108376613Y-106440500D01*
X108376616Y-106440500D01*
X108447196Y-106434086D01*
X108609606Y-106383478D01*
X108755185Y-106295472D01*
X108875472Y-106175185D01*
X108963478Y-106029606D01*
X109001615Y-105907217D01*
X109040352Y-105849070D01*
X109104377Y-105821096D01*
X109173362Y-105832177D01*
X109225405Y-105878796D01*
X109238384Y-105907215D01*
X109276522Y-106029606D01*
X109331718Y-106120911D01*
X109364530Y-106175188D01*
X109484811Y-106295469D01*
X109484813Y-106295470D01*
X109484815Y-106295472D01*
X109630394Y-106383478D01*
X109792804Y-106434086D01*
X109863384Y-106440500D01*
X109863387Y-106440500D01*
X110876613Y-106440500D01*
X110876616Y-106440500D01*
X110947196Y-106434086D01*
X111109606Y-106383478D01*
X111255185Y-106295472D01*
X111375472Y-106175185D01*
X111463478Y-106029606D01*
X111514086Y-105867196D01*
X111520500Y-105796616D01*
X111520500Y-104783384D01*
X111514086Y-104712804D01*
X111463478Y-104550394D01*
X111375472Y-104404815D01*
X111375470Y-104404813D01*
X111375469Y-104404811D01*
X111255188Y-104284530D01*
X111109606Y-104196522D01*
X110947196Y-104145914D01*
X110947194Y-104145913D01*
X110947192Y-104145913D01*
X110897778Y-104141423D01*
X110876616Y-104139500D01*
X109863384Y-104139500D01*
X109844145Y-104141248D01*
X109792807Y-104145913D01*
X109630393Y-104196522D01*
X109484811Y-104284530D01*
X109364530Y-104404811D01*
X109276522Y-104550393D01*
X109276522Y-104550394D01*
X109238384Y-104672782D01*
X109199648Y-104730929D01*
X109135623Y-104758903D01*
X109066638Y-104747822D01*
X109014595Y-104701203D01*
X109001615Y-104672784D01*
X108963478Y-104550394D01*
X108875472Y-104404815D01*
X108875470Y-104404813D01*
X108875469Y-104404811D01*
X108755188Y-104284530D01*
X108609606Y-104196522D01*
X108447196Y-104145914D01*
X108447194Y-104145913D01*
X108447192Y-104145913D01*
X108397778Y-104141423D01*
X108376616Y-104139500D01*
X107363384Y-104139500D01*
X107344145Y-104141248D01*
X107292807Y-104145913D01*
X107130393Y-104196522D01*
X106984811Y-104284530D01*
X106864530Y-104404811D01*
X106776522Y-104550393D01*
X106776522Y-104550394D01*
X106738384Y-104672782D01*
X106699648Y-104730929D01*
X106635623Y-104758903D01*
X106566638Y-104747822D01*
X106514595Y-104701203D01*
X106501615Y-104672784D01*
X106463478Y-104550394D01*
X106375472Y-104404815D01*
X106375470Y-104404813D01*
X106375469Y-104404811D01*
X106255188Y-104284530D01*
X106109606Y-104196522D01*
X105947196Y-104145914D01*
X105947194Y-104145913D01*
X105947192Y-104145913D01*
X105897778Y-104141423D01*
X105876616Y-104139500D01*
X104863384Y-104139500D01*
X104844145Y-104141248D01*
X104792807Y-104145913D01*
X104630393Y-104196522D01*
X104484811Y-104284530D01*
X104364530Y-104404811D01*
X104276522Y-104550393D01*
X104225913Y-104712807D01*
X104221725Y-104758903D01*
X104219500Y-104783384D01*
X101422973Y-104783384D01*
X101420168Y-104776612D01*
X101420166Y-104776608D01*
X101318886Y-104625032D01*
X101318880Y-104625024D01*
X101189975Y-104496119D01*
X101189967Y-104496113D01*
X101038391Y-104394833D01*
X101038387Y-104394831D01*
X100869962Y-104325068D01*
X100869952Y-104325065D01*
X100691156Y-104289500D01*
X100691154Y-104289500D01*
X100108846Y-104289500D01*
X100108844Y-104289500D01*
X99930047Y-104325065D01*
X99930037Y-104325068D01*
X99761612Y-104394831D01*
X99761608Y-104394833D01*
X99610032Y-104496113D01*
X99610024Y-104496119D01*
X99481119Y-104625024D01*
X99481113Y-104625032D01*
X99379833Y-104776608D01*
X99379831Y-104776612D01*
X99310068Y-104945037D01*
X99310065Y-104945047D01*
X99274500Y-105123843D01*
X99274500Y-105123846D01*
X99274500Y-105306154D01*
X99274500Y-105306156D01*
X99274499Y-105306156D01*
X98647580Y-105306156D01*
X98633973Y-105237749D01*
X98562322Y-105064769D01*
X98562319Y-105064764D01*
X98562318Y-105064762D01*
X98458302Y-104909092D01*
X98458299Y-104909088D01*
X98325908Y-104776697D01*
X98202347Y-104694137D01*
X98157542Y-104640525D01*
X98148835Y-104571200D01*
X98161441Y-104536913D01*
X98160400Y-104536445D01*
X98163473Y-104529613D01*
X98163478Y-104529606D01*
X98214086Y-104367196D01*
X98220500Y-104296616D01*
X98220500Y-103283384D01*
X98214086Y-103212804D01*
X98163478Y-103050394D01*
X98075472Y-102904815D01*
X98048337Y-102877680D01*
X98014853Y-102816360D01*
X98019837Y-102746668D01*
X98048337Y-102702319D01*
X98075472Y-102675185D01*
X98163478Y-102529606D01*
X98214086Y-102367196D01*
X98220500Y-102296616D01*
X98220500Y-102283386D01*
X99219500Y-102283386D01*
X99219500Y-103296613D01*
X99225913Y-103367192D01*
X99225913Y-103367194D01*
X99225914Y-103367196D01*
X99234204Y-103393799D01*
X99276522Y-103529606D01*
X99364530Y-103675188D01*
X99484811Y-103795469D01*
X99484813Y-103795470D01*
X99484815Y-103795472D01*
X99630394Y-103883478D01*
X99792804Y-103934086D01*
X99863384Y-103940500D01*
X99863387Y-103940500D01*
X100876613Y-103940500D01*
X100876616Y-103940500D01*
X100947196Y-103934086D01*
X101109606Y-103883478D01*
X101255185Y-103795472D01*
X101375472Y-103675185D01*
X101463478Y-103529606D01*
X101514086Y-103367196D01*
X101520500Y-103296616D01*
X101520500Y-102283384D01*
X101514086Y-102212804D01*
X101463478Y-102050394D01*
X101375472Y-101904815D01*
X101375470Y-101904813D01*
X101375469Y-101904811D01*
X101255188Y-101784530D01*
X101109606Y-101696522D01*
X100947196Y-101645914D01*
X100876616Y-101639500D01*
X99863384Y-101639500D01*
X99844145Y-101641248D01*
X99792807Y-101645913D01*
X99630393Y-101696522D01*
X99484811Y-101784530D01*
X99364530Y-101904811D01*
X99276522Y-102050393D01*
X99225913Y-102212807D01*
X99219500Y-102283386D01*
X98220500Y-102283386D01*
X98220500Y-101579145D01*
X125882100Y-101579145D01*
X125882100Y-102832663D01*
X125897553Y-102950053D01*
X125897556Y-102950062D01*
X125939114Y-103050393D01*
X125958064Y-103096141D01*
X126054318Y-103221582D01*
X126179759Y-103317836D01*
X126325838Y-103378344D01*
X126443239Y-103393800D01*
X127696760Y-103393799D01*
X127696763Y-103393799D01*
X127814153Y-103378346D01*
X127814157Y-103378344D01*
X127814162Y-103378344D01*
X127960241Y-103317836D01*
X128085682Y-103221582D01*
X128181936Y-103096141D01*
X128242444Y-102950062D01*
X128257900Y-102832661D01*
X128257899Y-101579140D01*
X128257899Y-101579139D01*
X128257899Y-101579136D01*
X128242446Y-101461746D01*
X128242444Y-101461739D01*
X128242444Y-101461738D01*
X128181936Y-101315659D01*
X128085682Y-101190218D01*
X127960241Y-101093964D01*
X127935903Y-101083883D01*
X127917454Y-101076241D01*
X127814162Y-101033456D01*
X127802853Y-101031967D01*
X127739326Y-101023603D01*
X127675430Y-100995336D01*
X127636960Y-100937011D01*
X127636129Y-100867146D01*
X127673202Y-100807923D01*
X127699220Y-100790178D01*
X127744747Y-100766981D01*
X127744751Y-100766979D01*
X127786899Y-100736354D01*
X127786900Y-100736354D01*
X127070000Y-100019454D01*
X126353099Y-100736353D01*
X126353099Y-100736354D01*
X126395254Y-100766982D01*
X126440782Y-100790180D01*
X126491578Y-100838155D01*
X126508373Y-100905975D01*
X126485836Y-100972110D01*
X126431121Y-101015562D01*
X126400671Y-101023604D01*
X126325846Y-101033454D01*
X126325837Y-101033456D01*
X126179760Y-101093963D01*
X126054318Y-101190218D01*
X125958063Y-101315660D01*
X125897556Y-101461737D01*
X125897555Y-101461739D01*
X125882101Y-101579129D01*
X125882101Y-101579136D01*
X125882100Y-101579145D01*
X98220500Y-101579145D01*
X98220500Y-101283384D01*
X98214086Y-101212804D01*
X98163478Y-101050394D01*
X98163475Y-101050389D01*
X98160400Y-101043555D01*
X98162364Y-101042670D01*
X98147286Y-100985556D01*
X98168805Y-100919083D01*
X98202349Y-100885862D01*
X98318992Y-100807923D01*
X98325908Y-100803302D01*
X98458302Y-100670908D01*
X98562322Y-100515231D01*
X98586792Y-100456156D01*
X99274499Y-100456156D01*
X99310065Y-100634952D01*
X99310068Y-100634962D01*
X99379831Y-100803387D01*
X99379833Y-100803391D01*
X99481113Y-100954967D01*
X99481119Y-100954975D01*
X99610024Y-101083880D01*
X99610032Y-101083886D01*
X99761608Y-101185166D01*
X99761612Y-101185168D01*
X99930037Y-101254931D01*
X99930042Y-101254933D01*
X99930046Y-101254933D01*
X99930047Y-101254934D01*
X100108843Y-101290500D01*
X100108846Y-101290500D01*
X100691156Y-101290500D01*
X100811445Y-101266572D01*
X100869958Y-101254933D01*
X101038389Y-101185167D01*
X101038391Y-101185166D01*
X101113672Y-101134864D01*
X101189972Y-101083883D01*
X101318883Y-100954972D01*
X101396937Y-100838155D01*
X101420166Y-100803391D01*
X101420168Y-100803387D01*
X101447958Y-100736295D01*
X101489933Y-100634958D01*
X101501572Y-100576445D01*
X101525500Y-100456156D01*
X101525500Y-100273843D01*
X101489934Y-100095047D01*
X101489933Y-100095046D01*
X101489933Y-100095042D01*
X101458624Y-100019454D01*
X101420168Y-99926612D01*
X101420166Y-99926608D01*
X101318886Y-99775032D01*
X101318880Y-99775024D01*
X101189975Y-99646119D01*
X101189967Y-99646113D01*
X101067943Y-99564579D01*
X125782600Y-99564579D01*
X125782600Y-99767220D01*
X125814299Y-99967363D01*
X125876921Y-100160092D01*
X125968916Y-100340644D01*
X125999545Y-100382799D01*
X125999546Y-100382800D01*
X126716446Y-99665900D01*
X126716446Y-99665899D01*
X127423554Y-99665899D01*
X127423554Y-99665900D01*
X128140453Y-100382800D01*
X128140454Y-100382799D01*
X128171079Y-100340651D01*
X128171081Y-100340647D01*
X128263078Y-100160092D01*
X128325700Y-99967363D01*
X128357400Y-99767220D01*
X128357400Y-99564579D01*
X128325700Y-99364436D01*
X128263078Y-99171707D01*
X128171082Y-98991154D01*
X128140453Y-98948999D01*
X127423554Y-99665899D01*
X126716446Y-99665899D01*
X125999545Y-98948998D01*
X125999544Y-98948999D01*
X125968919Y-98991150D01*
X125876921Y-99171707D01*
X125814299Y-99364436D01*
X125782600Y-99564579D01*
X101067943Y-99564579D01*
X101038391Y-99544833D01*
X101038387Y-99544831D01*
X100869962Y-99475068D01*
X100869952Y-99475065D01*
X100691156Y-99439500D01*
X100691154Y-99439500D01*
X100108846Y-99439500D01*
X100108844Y-99439500D01*
X99930047Y-99475065D01*
X99930037Y-99475068D01*
X99761612Y-99544831D01*
X99761608Y-99544833D01*
X99610032Y-99646113D01*
X99610024Y-99646119D01*
X99481119Y-99775024D01*
X99481113Y-99775032D01*
X99379833Y-99926608D01*
X99379831Y-99926612D01*
X99310068Y-100095037D01*
X99310065Y-100095047D01*
X99274500Y-100273843D01*
X99274500Y-100273846D01*
X99274500Y-100456154D01*
X99274500Y-100456156D01*
X99274499Y-100456156D01*
X98586792Y-100456156D01*
X98633973Y-100342251D01*
X98670500Y-100158616D01*
X98670500Y-99971384D01*
X98633973Y-99787749D01*
X98562322Y-99614769D01*
X98562321Y-99614768D01*
X98562318Y-99614762D01*
X98458302Y-99459092D01*
X98458299Y-99459088D01*
X98325911Y-99326700D01*
X98325907Y-99326697D01*
X98170237Y-99222681D01*
X98170228Y-99222676D01*
X97997251Y-99151027D01*
X97997243Y-99151025D01*
X97813620Y-99114500D01*
X97813616Y-99114500D01*
X96926384Y-99114500D01*
X96926379Y-99114500D01*
X96742756Y-99151025D01*
X96742748Y-99151027D01*
X96569771Y-99222676D01*
X96569762Y-99222681D01*
X96414092Y-99326697D01*
X96414088Y-99326700D01*
X96281700Y-99459088D01*
X96281697Y-99459092D01*
X96177681Y-99614762D01*
X96177676Y-99614771D01*
X96106027Y-99787748D01*
X96106025Y-99787756D01*
X96069500Y-99971379D01*
X96069500Y-100158620D01*
X96106025Y-100342243D01*
X96106027Y-100342251D01*
X96177676Y-100515228D01*
X96177681Y-100515237D01*
X96235813Y-100602237D01*
X96256691Y-100668915D01*
X96238206Y-100736295D01*
X96196867Y-100777241D01*
X96184816Y-100784526D01*
X96184810Y-100784531D01*
X96064530Y-100904811D01*
X95976522Y-101050393D01*
X95925913Y-101212807D01*
X95919500Y-101283386D01*
X95276295Y-101283386D01*
X95276290Y-101280801D01*
X95268509Y-97032410D01*
X125882100Y-97032410D01*
X125882100Y-97219389D01*
X125911350Y-97404067D01*
X125969131Y-97581899D01*
X126054017Y-97748495D01*
X126163921Y-97899765D01*
X126296135Y-98031979D01*
X126447405Y-98141883D01*
X126530705Y-98184326D01*
X126614006Y-98226771D01*
X126618498Y-98228631D01*
X126617705Y-98230544D01*
X126668216Y-98265040D01*
X126695452Y-98329383D01*
X126683577Y-98398236D01*
X126636363Y-98449739D01*
X126610589Y-98461519D01*
X126575808Y-98472820D01*
X126395250Y-98564819D01*
X126353099Y-98595444D01*
X126353098Y-98595445D01*
X127070000Y-99312346D01*
X127070001Y-99312346D01*
X127786900Y-98595446D01*
X127786899Y-98595445D01*
X127744744Y-98564816D01*
X127564190Y-98472819D01*
X127529411Y-98461519D01*
X127471736Y-98422081D01*
X127444539Y-98357722D01*
X127456454Y-98288876D01*
X127503699Y-98237401D01*
X127521728Y-98229176D01*
X127521502Y-98228631D01*
X127525993Y-98226771D01*
X127525995Y-98226770D01*
X127692595Y-98141883D01*
X127843865Y-98031979D01*
X127976079Y-97899765D01*
X128085983Y-97748495D01*
X128170870Y-97581895D01*
X128228650Y-97404067D01*
X128257900Y-97219390D01*
X128257900Y-97032410D01*
X128228650Y-96847733D01*
X128170870Y-96669905D01*
X128170868Y-96669902D01*
X128170868Y-96669900D01*
X128085982Y-96503304D01*
X127976079Y-96352035D01*
X127843865Y-96219821D01*
X127692595Y-96109917D01*
X127525999Y-96025031D01*
X127348167Y-95967250D01*
X127163490Y-95938000D01*
X126976510Y-95938000D01*
X126884171Y-95952625D01*
X126791832Y-95967250D01*
X126614000Y-96025031D01*
X126447404Y-96109917D01*
X126377783Y-96160500D01*
X126296135Y-96219821D01*
X126296133Y-96219823D01*
X126296132Y-96219823D01*
X126163923Y-96352032D01*
X126163923Y-96352033D01*
X126163921Y-96352035D01*
X126116721Y-96416999D01*
X126054017Y-96503304D01*
X125969131Y-96669900D01*
X125911350Y-96847732D01*
X125882100Y-97032410D01*
X95268509Y-97032410D01*
X95268500Y-97027765D01*
X95259706Y-92225904D01*
X96039500Y-92225904D01*
X96039500Y-93974095D01*
X96045918Y-94066561D01*
X96045920Y-94066577D01*
X96096854Y-94283135D01*
X96096860Y-94283151D01*
X96186721Y-94486668D01*
X96312457Y-94670220D01*
X96312462Y-94670226D01*
X96469773Y-94827537D01*
X96469779Y-94827542D01*
X96653329Y-94953277D01*
X96653330Y-94953277D01*
X96653331Y-94953278D01*
X96746317Y-94994335D01*
X96856857Y-95043143D01*
X96856861Y-95043144D01*
X96856864Y-95043145D01*
X97073422Y-95094079D01*
X97073427Y-95094079D01*
X97073433Y-95094081D01*
X97124808Y-95097647D01*
X97165904Y-95100500D01*
X97165908Y-95100500D01*
X97314096Y-95100500D01*
X97351082Y-95097932D01*
X97406567Y-95094081D01*
X97406573Y-95094079D01*
X97406577Y-95094079D01*
X97623135Y-95043145D01*
X97623135Y-95043144D01*
X97623143Y-95043143D01*
X97826671Y-94953277D01*
X98010221Y-94827542D01*
X98167542Y-94670221D01*
X98293277Y-94486671D01*
X98383143Y-94283143D01*
X98389294Y-94256992D01*
X98423804Y-94196240D01*
X98485681Y-94163790D01*
X98555279Y-94169945D01*
X98610501Y-94212749D01*
X98630706Y-94256992D01*
X98636854Y-94283135D01*
X98636860Y-94283151D01*
X98726721Y-94486668D01*
X98852457Y-94670220D01*
X98852462Y-94670226D01*
X99009773Y-94827537D01*
X99009779Y-94827542D01*
X99193329Y-94953277D01*
X99193330Y-94953277D01*
X99193331Y-94953278D01*
X99286317Y-94994335D01*
X99396857Y-95043143D01*
X99396861Y-95043144D01*
X99396864Y-95043145D01*
X99613422Y-95094079D01*
X99613427Y-95094079D01*
X99613433Y-95094081D01*
X99664808Y-95097647D01*
X99705904Y-95100500D01*
X99705908Y-95100500D01*
X99854096Y-95100500D01*
X99891082Y-95097932D01*
X99946567Y-95094081D01*
X99946573Y-95094079D01*
X99946577Y-95094079D01*
X100163135Y-95043145D01*
X100163135Y-95043144D01*
X100163143Y-95043143D01*
X100366671Y-94953277D01*
X100550221Y-94827542D01*
X100697894Y-94679869D01*
X101039869Y-94679869D01*
X101053437Y-94733027D01*
X101053443Y-94733044D01*
X101083881Y-94806528D01*
X101083893Y-94806556D01*
X101107218Y-94855309D01*
X101107221Y-94855314D01*
X101193358Y-94970378D01*
X101193361Y-94970382D01*
X101249623Y-95026643D01*
X101249640Y-95026659D01*
X101289842Y-95062770D01*
X101413454Y-95136111D01*
X101413461Y-95136115D01*
X101486932Y-95166547D01*
X101486935Y-95166548D01*
X101537946Y-95184544D01*
X101680219Y-95204999D01*
X101680221Y-95205000D01*
X102959786Y-95205000D01*
X103013762Y-95202106D01*
X103013764Y-95202106D01*
X103153030Y-95166561D01*
X103153042Y-95166557D01*
X103226528Y-95136118D01*
X103226556Y-95136106D01*
X103275309Y-95112781D01*
X103275314Y-95112778D01*
X103390378Y-95026641D01*
X103390382Y-95026638D01*
X103446643Y-94970376D01*
X103446659Y-94970359D01*
X103482770Y-94930157D01*
X103556111Y-94806545D01*
X103556115Y-94806538D01*
X103586547Y-94733067D01*
X103586556Y-94733043D01*
X103604543Y-94682057D01*
X103605651Y-94674347D01*
X103555918Y-94649454D01*
X103529881Y-94647591D01*
X103485541Y-94619093D01*
X102320000Y-93453552D01*
X101154457Y-94619095D01*
X101093134Y-94652580D01*
X101088389Y-94652240D01*
X101039869Y-94679869D01*
X100697894Y-94679869D01*
X100707542Y-94670221D01*
X100833277Y-94486671D01*
X100923143Y-94283143D01*
X100958069Y-94134645D01*
X100991094Y-94075354D01*
X101966448Y-93100000D01*
X101966448Y-93099999D01*
X100991094Y-92124645D01*
X100958069Y-92065353D01*
X100923145Y-91916866D01*
X100923143Y-91916857D01*
X100833277Y-91713329D01*
X100833277Y-91713328D01*
X100833275Y-91713325D01*
X100800069Y-91664851D01*
X100800067Y-91664849D01*
X100773984Y-91626773D01*
X100773983Y-91626772D01*
X101200325Y-91626772D01*
X101200325Y-91626773D01*
X102320000Y-92746448D01*
X102320001Y-92746448D01*
X103439673Y-91626773D01*
X103439673Y-91626772D01*
X103361295Y-91509470D01*
X103361290Y-91509463D01*
X103298485Y-91432935D01*
X103187064Y-91321514D01*
X103110536Y-91258708D01*
X103110530Y-91258704D01*
X102979521Y-91171167D01*
X102979501Y-91171155D01*
X102892198Y-91124490D01*
X102746612Y-91064185D01*
X102651864Y-91035444D01*
X102497300Y-91004701D01*
X102398790Y-90995000D01*
X102241210Y-90995000D01*
X102142700Y-91004701D01*
X102142697Y-91004701D01*
X101988135Y-91035444D01*
X101893387Y-91064185D01*
X101747801Y-91124490D01*
X101660498Y-91171155D01*
X101660478Y-91171167D01*
X101529469Y-91258704D01*
X101529463Y-91258708D01*
X101452935Y-91321514D01*
X101341515Y-91432934D01*
X101278709Y-91509463D01*
X101278700Y-91509475D01*
X101200325Y-91626772D01*
X100773983Y-91626772D01*
X100707542Y-91529779D01*
X100707537Y-91529773D01*
X100550226Y-91372462D01*
X100550220Y-91372457D01*
X100366668Y-91246721D01*
X100163151Y-91156860D01*
X100163135Y-91156854D01*
X99946577Y-91105920D01*
X99946561Y-91105918D01*
X99854096Y-91099500D01*
X99854092Y-91099500D01*
X99705908Y-91099500D01*
X99705904Y-91099500D01*
X99613438Y-91105918D01*
X99613422Y-91105920D01*
X99396864Y-91156854D01*
X99396848Y-91156860D01*
X99193331Y-91246721D01*
X99009779Y-91372457D01*
X99009773Y-91372462D01*
X98852462Y-91529773D01*
X98852457Y-91529779D01*
X98726721Y-91713331D01*
X98636860Y-91916848D01*
X98636854Y-91916864D01*
X98630706Y-91943007D01*
X98596195Y-92003759D01*
X98534318Y-92036209D01*
X98464720Y-92030054D01*
X98409498Y-91987249D01*
X98389294Y-91943007D01*
X98383145Y-91916864D01*
X98383144Y-91916861D01*
X98383143Y-91916857D01*
X98293277Y-91713329D01*
X98167542Y-91529779D01*
X98167537Y-91529773D01*
X98010226Y-91372462D01*
X98010220Y-91372457D01*
X97826668Y-91246721D01*
X97623151Y-91156860D01*
X97623135Y-91156854D01*
X97406577Y-91105920D01*
X97406561Y-91105918D01*
X97314096Y-91099500D01*
X97314092Y-91099500D01*
X97165908Y-91099500D01*
X97165904Y-91099500D01*
X97073438Y-91105918D01*
X97073422Y-91105920D01*
X96856864Y-91156854D01*
X96856848Y-91156860D01*
X96653331Y-91246721D01*
X96469779Y-91372457D01*
X96469773Y-91372462D01*
X96312462Y-91529773D01*
X96312457Y-91529779D01*
X96186721Y-91713331D01*
X96096860Y-91916848D01*
X96096854Y-91916864D01*
X96045920Y-92133422D01*
X96045918Y-92133438D01*
X96039500Y-92225904D01*
X95259706Y-92225904D01*
X95259702Y-92223986D01*
X95252560Y-88324227D01*
X95272122Y-88257152D01*
X95324842Y-88211300D01*
X95376560Y-88200000D01*
X107080503Y-88200000D01*
X107147542Y-88219685D01*
X107193297Y-88272489D01*
X107203241Y-88341647D01*
X107187890Y-88386000D01*
X107140424Y-88468213D01*
X107140423Y-88468216D01*
X107099500Y-88620943D01*
X107099500Y-91039938D01*
X107079815Y-91106977D01*
X107027011Y-91152732D01*
X107019325Y-91155766D01*
X106813331Y-91246721D01*
X106629779Y-91372457D01*
X106629773Y-91372462D01*
X106472462Y-91529773D01*
X106472457Y-91529779D01*
X106346721Y-91713331D01*
X106256860Y-91916848D01*
X106256854Y-91916864D01*
X106250706Y-91943007D01*
X106216195Y-92003759D01*
X106154318Y-92036209D01*
X106084720Y-92030054D01*
X106029498Y-91987249D01*
X106009294Y-91943007D01*
X106003145Y-91916864D01*
X106003144Y-91916861D01*
X106003143Y-91916857D01*
X105913277Y-91713329D01*
X105787542Y-91529779D01*
X105787537Y-91529773D01*
X105630226Y-91372462D01*
X105630220Y-91372457D01*
X105446668Y-91246721D01*
X105243151Y-91156860D01*
X105243135Y-91156854D01*
X105026577Y-91105920D01*
X105026561Y-91105918D01*
X104934096Y-91099500D01*
X104934092Y-91099500D01*
X104785908Y-91099500D01*
X104785904Y-91099500D01*
X104693438Y-91105918D01*
X104693422Y-91105920D01*
X104476864Y-91156854D01*
X104476848Y-91156860D01*
X104273331Y-91246721D01*
X104089779Y-91372457D01*
X104089773Y-91372462D01*
X103932462Y-91529773D01*
X103932457Y-91529779D01*
X103806721Y-91713331D01*
X103716860Y-91916848D01*
X103716854Y-91916864D01*
X103681930Y-92065354D01*
X103648905Y-92124645D01*
X102673552Y-93099999D01*
X102673552Y-93100001D01*
X103648905Y-94075354D01*
X103681930Y-94134645D01*
X103716854Y-94283135D01*
X103716860Y-94283151D01*
X103806722Y-94486671D01*
X103806723Y-94486672D01*
X103836294Y-94529840D01*
X103842596Y-94539039D01*
X103842599Y-94539043D01*
X103932457Y-94670220D01*
X103932462Y-94670226D01*
X104089773Y-94827537D01*
X104089779Y-94827542D01*
X104273329Y-94953277D01*
X104273330Y-94953277D01*
X104273331Y-94953278D01*
X104366317Y-94994335D01*
X104476857Y-95043143D01*
X104476861Y-95043144D01*
X104476864Y-95043145D01*
X104693422Y-95094079D01*
X104693427Y-95094079D01*
X104693433Y-95094081D01*
X104744808Y-95097647D01*
X104785904Y-95100500D01*
X104785908Y-95100500D01*
X104934096Y-95100500D01*
X104971082Y-95097932D01*
X105026567Y-95094081D01*
X105026573Y-95094079D01*
X105026577Y-95094079D01*
X105243135Y-95043145D01*
X105243135Y-95043144D01*
X105243143Y-95043143D01*
X105446671Y-94953277D01*
X105630221Y-94827542D01*
X105787542Y-94670221D01*
X105913277Y-94486671D01*
X106003143Y-94283143D01*
X106009294Y-94256992D01*
X106043804Y-94196240D01*
X106105681Y-94163790D01*
X106175279Y-94169945D01*
X106230501Y-94212749D01*
X106250706Y-94256992D01*
X106256854Y-94283135D01*
X106256860Y-94283151D01*
X106346721Y-94486668D01*
X106472457Y-94670220D01*
X106472462Y-94670226D01*
X106629773Y-94827537D01*
X106629779Y-94827542D01*
X106813329Y-94953277D01*
X106813330Y-94953277D01*
X106813331Y-94953278D01*
X106906317Y-94994335D01*
X107016857Y-95043143D01*
X107016861Y-95043144D01*
X107016864Y-95043145D01*
X107233422Y-95094079D01*
X107233427Y-95094079D01*
X107233433Y-95094081D01*
X107284808Y-95097647D01*
X107325904Y-95100500D01*
X107325908Y-95100500D01*
X107474096Y-95100500D01*
X107511082Y-95097932D01*
X107566567Y-95094081D01*
X107566573Y-95094079D01*
X107566577Y-95094079D01*
X107783135Y-95043145D01*
X107783135Y-95043144D01*
X107783143Y-95043143D01*
X107986671Y-94953277D01*
X108170221Y-94827542D01*
X108327542Y-94670221D01*
X108453277Y-94486671D01*
X108543143Y-94283143D01*
X108549294Y-94256992D01*
X108583804Y-94196240D01*
X108645681Y-94163790D01*
X108715279Y-94169945D01*
X108770501Y-94212749D01*
X108790706Y-94256992D01*
X108796854Y-94283135D01*
X108796860Y-94283151D01*
X108886721Y-94486668D01*
X109012457Y-94670220D01*
X109012462Y-94670226D01*
X109169773Y-94827537D01*
X109169779Y-94827542D01*
X109353329Y-94953277D01*
X109353330Y-94953277D01*
X109353331Y-94953278D01*
X109446317Y-94994335D01*
X109556857Y-95043143D01*
X109556861Y-95043144D01*
X109556864Y-95043145D01*
X109773422Y-95094079D01*
X109773427Y-95094079D01*
X109773433Y-95094081D01*
X109824808Y-95097647D01*
X109865904Y-95100500D01*
X109865908Y-95100500D01*
X110014096Y-95100500D01*
X110051082Y-95097932D01*
X110106567Y-95094081D01*
X110106573Y-95094079D01*
X110106577Y-95094079D01*
X110323135Y-95043145D01*
X110323135Y-95043144D01*
X110323143Y-95043143D01*
X110526671Y-94953277D01*
X110710221Y-94827542D01*
X110867542Y-94670221D01*
X110993277Y-94486671D01*
X111083143Y-94283143D01*
X111089294Y-94256992D01*
X111123804Y-94196240D01*
X111185681Y-94163790D01*
X111255279Y-94169945D01*
X111310501Y-94212749D01*
X111330706Y-94256992D01*
X111336854Y-94283135D01*
X111336860Y-94283151D01*
X111426721Y-94486668D01*
X111552457Y-94670220D01*
X111552462Y-94670226D01*
X111709773Y-94827537D01*
X111709779Y-94827542D01*
X111893329Y-94953277D01*
X111893330Y-94953277D01*
X111893331Y-94953278D01*
X111986317Y-94994335D01*
X112096857Y-95043143D01*
X112096861Y-95043144D01*
X112096864Y-95043145D01*
X112313422Y-95094079D01*
X112313427Y-95094079D01*
X112313433Y-95094081D01*
X112364808Y-95097647D01*
X112405904Y-95100500D01*
X112405908Y-95100500D01*
X112554096Y-95100500D01*
X112591082Y-95097932D01*
X112646567Y-95094081D01*
X112646573Y-95094079D01*
X112646577Y-95094079D01*
X112863135Y-95043145D01*
X112863135Y-95043144D01*
X112863143Y-95043143D01*
X113066671Y-94953277D01*
X113250221Y-94827542D01*
X113397894Y-94679869D01*
X113739869Y-94679869D01*
X113753437Y-94733027D01*
X113753443Y-94733044D01*
X113783881Y-94806528D01*
X113783893Y-94806556D01*
X113807218Y-94855309D01*
X113807221Y-94855314D01*
X113893358Y-94970378D01*
X113893361Y-94970382D01*
X113949623Y-95026643D01*
X113949640Y-95026659D01*
X113989842Y-95062770D01*
X114113454Y-95136111D01*
X114113461Y-95136115D01*
X114186932Y-95166547D01*
X114186935Y-95166548D01*
X114237946Y-95184544D01*
X114380219Y-95204999D01*
X114380221Y-95205000D01*
X115659786Y-95205000D01*
X115713762Y-95202106D01*
X115713764Y-95202106D01*
X115853030Y-95166561D01*
X115853042Y-95166557D01*
X115926528Y-95136118D01*
X115926556Y-95136106D01*
X115975309Y-95112781D01*
X115975314Y-95112778D01*
X116090378Y-95026641D01*
X116090382Y-95026638D01*
X116146643Y-94970376D01*
X116146659Y-94970359D01*
X116182770Y-94930157D01*
X116256111Y-94806545D01*
X116256115Y-94806538D01*
X116286547Y-94733067D01*
X116286556Y-94733043D01*
X116304543Y-94682057D01*
X116305651Y-94674347D01*
X116255918Y-94649454D01*
X116229881Y-94647591D01*
X116185541Y-94619093D01*
X115020000Y-93453552D01*
X113854457Y-94619095D01*
X113793134Y-94652580D01*
X113788389Y-94652240D01*
X113739869Y-94679869D01*
X113397894Y-94679869D01*
X113407542Y-94670221D01*
X113533277Y-94486671D01*
X113623143Y-94283143D01*
X113658069Y-94134645D01*
X113691094Y-94075354D01*
X114666448Y-93100000D01*
X114666448Y-93099999D01*
X115373552Y-93099999D01*
X115373552Y-93100001D01*
X116348905Y-94075354D01*
X116381930Y-94134645D01*
X116416854Y-94283135D01*
X116416860Y-94283151D01*
X116506722Y-94486671D01*
X116506723Y-94486672D01*
X116536292Y-94529838D01*
X116536294Y-94529840D01*
X116542596Y-94539039D01*
X116542599Y-94539043D01*
X116632457Y-94670220D01*
X116632462Y-94670226D01*
X116789773Y-94827537D01*
X116789779Y-94827542D01*
X116973329Y-94953277D01*
X116973330Y-94953277D01*
X116973331Y-94953278D01*
X117066317Y-94994335D01*
X117176857Y-95043143D01*
X117176861Y-95043144D01*
X117176864Y-95043145D01*
X117393422Y-95094079D01*
X117393427Y-95094079D01*
X117393433Y-95094081D01*
X117444808Y-95097647D01*
X117485904Y-95100500D01*
X117485908Y-95100500D01*
X117634096Y-95100500D01*
X117671082Y-95097932D01*
X117726567Y-95094081D01*
X117726573Y-95094079D01*
X117726577Y-95094079D01*
X117943135Y-95043145D01*
X117943135Y-95043144D01*
X117943143Y-95043143D01*
X118146671Y-94953277D01*
X118330221Y-94827542D01*
X118487542Y-94670221D01*
X118613277Y-94486671D01*
X118703143Y-94283143D01*
X118709294Y-94256992D01*
X118743804Y-94196240D01*
X118805681Y-94163790D01*
X118875279Y-94169945D01*
X118930501Y-94212749D01*
X118950706Y-94256992D01*
X118956854Y-94283135D01*
X118956860Y-94283151D01*
X119046721Y-94486668D01*
X119172457Y-94670220D01*
X119172462Y-94670226D01*
X119329773Y-94827537D01*
X119329779Y-94827542D01*
X119513329Y-94953277D01*
X119513330Y-94953277D01*
X119513331Y-94953278D01*
X119606317Y-94994335D01*
X119716857Y-95043143D01*
X119716861Y-95043144D01*
X119716864Y-95043145D01*
X119933422Y-95094079D01*
X119933427Y-95094079D01*
X119933433Y-95094081D01*
X119984808Y-95097647D01*
X120025904Y-95100500D01*
X120025908Y-95100500D01*
X120174096Y-95100500D01*
X120211082Y-95097932D01*
X120266567Y-95094081D01*
X120266573Y-95094079D01*
X120266577Y-95094079D01*
X120483135Y-95043145D01*
X120483135Y-95043144D01*
X120483143Y-95043143D01*
X120686671Y-94953277D01*
X120870221Y-94827542D01*
X121027542Y-94670221D01*
X121153277Y-94486671D01*
X121243143Y-94283143D01*
X121249294Y-94256992D01*
X121283804Y-94196240D01*
X121345681Y-94163790D01*
X121415279Y-94169945D01*
X121470501Y-94212749D01*
X121490706Y-94256992D01*
X121496854Y-94283135D01*
X121496860Y-94283151D01*
X121586721Y-94486668D01*
X121712457Y-94670220D01*
X121712462Y-94670226D01*
X121869773Y-94827537D01*
X121869779Y-94827542D01*
X122053329Y-94953277D01*
X122053330Y-94953277D01*
X122053331Y-94953278D01*
X122146317Y-94994335D01*
X122256857Y-95043143D01*
X122256861Y-95043144D01*
X122256864Y-95043145D01*
X122473422Y-95094079D01*
X122473427Y-95094079D01*
X122473433Y-95094081D01*
X122524808Y-95097647D01*
X122565904Y-95100500D01*
X122565908Y-95100500D01*
X122714096Y-95100500D01*
X122751082Y-95097932D01*
X122806567Y-95094081D01*
X122806573Y-95094079D01*
X122806577Y-95094079D01*
X123023135Y-95043145D01*
X123023135Y-95043144D01*
X123023143Y-95043143D01*
X123226671Y-94953277D01*
X123410221Y-94827542D01*
X123567542Y-94670221D01*
X123693277Y-94486671D01*
X123783143Y-94283143D01*
X123789294Y-94256992D01*
X123823804Y-94196240D01*
X123885681Y-94163790D01*
X123955279Y-94169945D01*
X124010501Y-94212749D01*
X124030706Y-94256992D01*
X124036854Y-94283135D01*
X124036860Y-94283151D01*
X124126721Y-94486668D01*
X124252457Y-94670220D01*
X124252462Y-94670226D01*
X124409773Y-94827537D01*
X124409779Y-94827542D01*
X124593329Y-94953277D01*
X124593330Y-94953277D01*
X124593331Y-94953278D01*
X124686317Y-94994335D01*
X124796857Y-95043143D01*
X124796861Y-95043144D01*
X124796864Y-95043145D01*
X125013422Y-95094079D01*
X125013427Y-95094079D01*
X125013433Y-95094081D01*
X125064808Y-95097647D01*
X125105904Y-95100500D01*
X125105908Y-95100500D01*
X125254096Y-95100500D01*
X125291082Y-95097932D01*
X125346567Y-95094081D01*
X125346573Y-95094079D01*
X125346577Y-95094079D01*
X125563135Y-95043145D01*
X125563135Y-95043144D01*
X125563143Y-95043143D01*
X125766671Y-94953277D01*
X125950221Y-94827542D01*
X126097894Y-94679869D01*
X126439869Y-94679869D01*
X126453437Y-94733027D01*
X126453443Y-94733044D01*
X126483881Y-94806528D01*
X126483893Y-94806556D01*
X126507218Y-94855309D01*
X126507221Y-94855314D01*
X126593358Y-94970378D01*
X126593361Y-94970382D01*
X126649623Y-95026643D01*
X126649640Y-95026659D01*
X126689842Y-95062770D01*
X126813454Y-95136111D01*
X126813461Y-95136115D01*
X126886932Y-95166547D01*
X126886935Y-95166548D01*
X126937946Y-95184544D01*
X127080219Y-95204999D01*
X127080221Y-95205000D01*
X128359786Y-95205000D01*
X128413762Y-95202106D01*
X128413764Y-95202106D01*
X128553030Y-95166561D01*
X128553042Y-95166557D01*
X128626528Y-95136118D01*
X128626556Y-95136106D01*
X128675309Y-95112781D01*
X128675314Y-95112778D01*
X128790378Y-95026641D01*
X128790382Y-95026638D01*
X128846643Y-94970376D01*
X128846659Y-94970359D01*
X128882770Y-94930157D01*
X128956111Y-94806545D01*
X128956115Y-94806538D01*
X128986547Y-94733067D01*
X128986556Y-94733043D01*
X129004543Y-94682057D01*
X129005651Y-94674347D01*
X128955918Y-94649454D01*
X128929881Y-94647591D01*
X128885541Y-94619093D01*
X127720000Y-93453552D01*
X126554457Y-94619095D01*
X126493134Y-94652580D01*
X126488389Y-94652240D01*
X126439869Y-94679869D01*
X126097894Y-94679869D01*
X126107542Y-94670221D01*
X126233277Y-94486671D01*
X126323143Y-94283143D01*
X126358069Y-94134645D01*
X126391094Y-94075354D01*
X127366448Y-93100000D01*
X127366448Y-93099999D01*
X126391094Y-92124645D01*
X126358069Y-92065353D01*
X126323145Y-91916866D01*
X126323143Y-91916857D01*
X126233277Y-91713329D01*
X126107542Y-91529779D01*
X126107537Y-91529773D01*
X125950226Y-91372462D01*
X125950220Y-91372457D01*
X125766668Y-91246721D01*
X125563151Y-91156860D01*
X125563135Y-91156854D01*
X125346577Y-91105920D01*
X125346561Y-91105918D01*
X125254096Y-91099500D01*
X125254092Y-91099500D01*
X125105908Y-91099500D01*
X125105904Y-91099500D01*
X125013438Y-91105918D01*
X125013422Y-91105920D01*
X124796864Y-91156854D01*
X124796848Y-91156860D01*
X124593331Y-91246721D01*
X124409779Y-91372457D01*
X124409773Y-91372462D01*
X124252462Y-91529773D01*
X124252457Y-91529779D01*
X124126721Y-91713331D01*
X124036860Y-91916848D01*
X124036854Y-91916864D01*
X124030706Y-91943007D01*
X123996195Y-92003759D01*
X123934318Y-92036209D01*
X123864720Y-92030054D01*
X123809498Y-91987249D01*
X123789294Y-91943007D01*
X123783145Y-91916864D01*
X123783144Y-91916861D01*
X123783143Y-91916857D01*
X123693277Y-91713329D01*
X123567542Y-91529779D01*
X123567537Y-91529773D01*
X123410226Y-91372462D01*
X123410220Y-91372457D01*
X123226668Y-91246721D01*
X123023151Y-91156860D01*
X123023135Y-91156854D01*
X122806577Y-91105920D01*
X122806561Y-91105918D01*
X122714096Y-91099500D01*
X122714092Y-91099500D01*
X122565908Y-91099500D01*
X122565904Y-91099500D01*
X122473438Y-91105918D01*
X122473422Y-91105920D01*
X122256864Y-91156854D01*
X122256848Y-91156860D01*
X122053331Y-91246721D01*
X121869779Y-91372457D01*
X121869773Y-91372462D01*
X121712462Y-91529773D01*
X121712457Y-91529779D01*
X121586721Y-91713331D01*
X121496860Y-91916848D01*
X121496854Y-91916864D01*
X121490706Y-91943007D01*
X121456195Y-92003759D01*
X121394318Y-92036209D01*
X121324720Y-92030054D01*
X121269498Y-91987249D01*
X121249294Y-91943007D01*
X121243145Y-91916864D01*
X121243144Y-91916861D01*
X121243143Y-91916857D01*
X121153277Y-91713329D01*
X121027542Y-91529779D01*
X121027537Y-91529773D01*
X120870226Y-91372462D01*
X120870220Y-91372457D01*
X120686668Y-91246721D01*
X120483151Y-91156860D01*
X120483135Y-91156854D01*
X120266577Y-91105920D01*
X120266561Y-91105918D01*
X120174096Y-91099500D01*
X120174092Y-91099500D01*
X120025908Y-91099500D01*
X120025904Y-91099500D01*
X119933438Y-91105918D01*
X119933419Y-91105921D01*
X119813489Y-91134128D01*
X119743724Y-91130315D01*
X119687095Y-91089389D01*
X119661582Y-91024344D01*
X119675285Y-90955831D01*
X119697421Y-90925739D01*
X119717316Y-90905844D01*
X119809356Y-90756624D01*
X119809358Y-90756619D01*
X119864505Y-90590197D01*
X119864506Y-90590190D01*
X119874999Y-90487486D01*
X119875000Y-90487473D01*
X119875000Y-90375000D01*
X118750000Y-90375000D01*
X118750000Y-91187499D01*
X119174972Y-91187499D01*
X119174981Y-91187498D01*
X119206648Y-91184263D01*
X119275341Y-91197032D01*
X119326226Y-91244911D01*
X119343148Y-91312701D01*
X119320733Y-91378878D01*
X119306934Y-91395302D01*
X119172457Y-91529779D01*
X119046721Y-91713331D01*
X118956860Y-91916848D01*
X118956854Y-91916864D01*
X118950706Y-91943007D01*
X118916195Y-92003759D01*
X118854318Y-92036209D01*
X118784720Y-92030054D01*
X118729498Y-91987249D01*
X118709294Y-91943007D01*
X118703145Y-91916864D01*
X118703144Y-91916861D01*
X118703143Y-91916857D01*
X118613277Y-91713329D01*
X118487542Y-91529779D01*
X118487537Y-91529773D01*
X118330226Y-91372462D01*
X118330218Y-91372455D01*
X118296039Y-91349042D01*
X118251857Y-91294916D01*
X118243951Y-91225495D01*
X118250000Y-91213218D01*
X118250000Y-90375000D01*
X117125001Y-90375000D01*
X117125001Y-90487486D01*
X117135494Y-90590197D01*
X117190641Y-90756619D01*
X117190643Y-90756624D01*
X117282684Y-90905845D01*
X117308331Y-90931492D01*
X117341816Y-90992815D01*
X117336832Y-91062507D01*
X117294960Y-91118440D01*
X117249040Y-91139879D01*
X117176864Y-91156854D01*
X117176848Y-91156860D01*
X116973331Y-91246721D01*
X116789779Y-91372457D01*
X116789773Y-91372462D01*
X116632462Y-91529773D01*
X116632457Y-91529779D01*
X116506721Y-91713331D01*
X116416860Y-91916848D01*
X116416854Y-91916864D01*
X116381930Y-92065354D01*
X116348905Y-92124645D01*
X115373552Y-93099999D01*
X114666448Y-93099999D01*
X113691094Y-92124645D01*
X113658069Y-92065353D01*
X113623145Y-91916866D01*
X113623143Y-91916857D01*
X113533277Y-91713329D01*
X113533277Y-91713328D01*
X113533275Y-91713325D01*
X113500069Y-91664851D01*
X113500067Y-91664849D01*
X113473984Y-91626773D01*
X113473983Y-91626772D01*
X113900325Y-91626772D01*
X113900325Y-91626773D01*
X115020000Y-92746448D01*
X115020001Y-92746448D01*
X116139673Y-91626773D01*
X116139673Y-91626772D01*
X116061295Y-91509470D01*
X116061290Y-91509463D01*
X115998485Y-91432935D01*
X115887064Y-91321514D01*
X115810536Y-91258708D01*
X115810530Y-91258704D01*
X115679521Y-91171167D01*
X115679501Y-91171155D01*
X115592198Y-91124490D01*
X115446612Y-91064185D01*
X115351864Y-91035444D01*
X115197300Y-91004701D01*
X115098790Y-90995000D01*
X114941210Y-90995000D01*
X114842700Y-91004701D01*
X114842697Y-91004701D01*
X114688135Y-91035444D01*
X114593387Y-91064185D01*
X114447801Y-91124490D01*
X114360498Y-91171155D01*
X114360478Y-91171167D01*
X114229469Y-91258704D01*
X114229463Y-91258708D01*
X114152935Y-91321514D01*
X114041515Y-91432934D01*
X113978709Y-91509463D01*
X113978700Y-91509475D01*
X113900325Y-91626772D01*
X113473983Y-91626772D01*
X113407542Y-91529779D01*
X113407537Y-91529773D01*
X113250226Y-91372462D01*
X113250220Y-91372457D01*
X113066668Y-91246721D01*
X112863151Y-91156860D01*
X112863135Y-91156854D01*
X112646577Y-91105920D01*
X112646561Y-91105918D01*
X112554096Y-91099500D01*
X112554092Y-91099500D01*
X112405908Y-91099500D01*
X112405904Y-91099500D01*
X112313438Y-91105918D01*
X112313422Y-91105920D01*
X112096864Y-91156854D01*
X112096848Y-91156860D01*
X111893331Y-91246721D01*
X111709779Y-91372457D01*
X111709773Y-91372462D01*
X111552462Y-91529773D01*
X111552457Y-91529779D01*
X111426721Y-91713331D01*
X111336860Y-91916848D01*
X111336854Y-91916864D01*
X111330706Y-91943007D01*
X111296195Y-92003759D01*
X111234318Y-92036209D01*
X111164720Y-92030054D01*
X111109498Y-91987249D01*
X111089294Y-91943007D01*
X111083145Y-91916864D01*
X111083144Y-91916861D01*
X111083143Y-91916857D01*
X110993277Y-91713329D01*
X110867542Y-91529779D01*
X110867537Y-91529773D01*
X110710226Y-91372462D01*
X110710220Y-91372457D01*
X110526668Y-91246721D01*
X110323151Y-91156860D01*
X110323135Y-91156854D01*
X110106577Y-91105920D01*
X110106561Y-91105918D01*
X110014096Y-91099500D01*
X110014092Y-91099500D01*
X109865908Y-91099500D01*
X109865904Y-91099500D01*
X109773438Y-91105918D01*
X109773422Y-91105920D01*
X109556864Y-91156854D01*
X109556848Y-91156860D01*
X109353331Y-91246721D01*
X109169779Y-91372457D01*
X109169773Y-91372462D01*
X109012462Y-91529773D01*
X109012457Y-91529779D01*
X108886721Y-91713331D01*
X108796860Y-91916848D01*
X108796854Y-91916864D01*
X108790706Y-91943007D01*
X108756195Y-92003759D01*
X108694318Y-92036209D01*
X108624720Y-92030054D01*
X108569498Y-91987249D01*
X108549294Y-91943007D01*
X108543145Y-91916864D01*
X108543144Y-91916861D01*
X108543143Y-91916857D01*
X108453277Y-91713329D01*
X108327542Y-91529779D01*
X108324302Y-91525049D01*
X108325803Y-91524020D01*
X108301417Y-91467490D01*
X108300500Y-91452440D01*
X108300500Y-89424500D01*
X108320185Y-89357461D01*
X108372989Y-89311706D01*
X108424500Y-89300500D01*
X117087436Y-89300500D01*
X117154475Y-89320185D01*
X117200230Y-89372989D01*
X117210174Y-89442147D01*
X117192973Y-89489600D01*
X117190643Y-89493376D01*
X117190641Y-89493380D01*
X117135494Y-89659802D01*
X117135493Y-89659809D01*
X117125000Y-89762513D01*
X117125000Y-89875000D01*
X119874999Y-89875000D01*
X119874999Y-89762528D01*
X119874998Y-89762513D01*
X119864505Y-89659802D01*
X119809358Y-89493380D01*
X119809354Y-89493371D01*
X119805654Y-89487373D01*
X119787212Y-89419981D01*
X119808133Y-89353317D01*
X119861774Y-89308546D01*
X119879097Y-89302499D01*
X119886553Y-89300501D01*
X119886557Y-89300501D01*
X120039285Y-89259577D01*
X120104742Y-89221785D01*
X120176216Y-89180520D01*
X120288020Y-89068716D01*
X120288020Y-89068714D01*
X120298224Y-89058511D01*
X120298227Y-89058506D01*
X121299916Y-88056819D01*
X121361239Y-88023334D01*
X121387597Y-88020500D01*
X122157403Y-88020500D01*
X122224442Y-88040185D01*
G37*
G04 #@! TD.AperFunction*
G04 #@! TA.AperFunction,Conductor*
G36*
X140640110Y-112362404D02*
G01*
X140684457Y-112390905D01*
X141748904Y-113455352D01*
X141781929Y-113514643D01*
X141816854Y-113663135D01*
X141816860Y-113663151D01*
X141888506Y-113825414D01*
X141892944Y-113859311D01*
X141897810Y-113893147D01*
X141897472Y-113893886D01*
X141897578Y-113894692D01*
X141882993Y-113925590D01*
X141868785Y-113956703D01*
X141868100Y-113957142D01*
X141867754Y-113957877D01*
X141838776Y-113975987D01*
X141810007Y-113994477D01*
X141808951Y-113994628D01*
X141808505Y-113994908D01*
X141775072Y-113999500D01*
X141637311Y-113999500D01*
X141570272Y-113979815D01*
X141549630Y-113963181D01*
X140420000Y-112833552D01*
X139290369Y-113963181D01*
X139263441Y-113977884D01*
X139237623Y-113994477D01*
X139231422Y-113995368D01*
X139229046Y-113996666D01*
X139202688Y-113999500D01*
X139064928Y-113999500D01*
X138997889Y-113979815D01*
X138952134Y-113927011D01*
X138942190Y-113857853D01*
X138951494Y-113825414D01*
X139023139Y-113663151D01*
X139023143Y-113663143D01*
X139058070Y-113514643D01*
X139091095Y-113455352D01*
X140155543Y-112390905D01*
X140216866Y-112357420D01*
X140286558Y-112362404D01*
X140330905Y-112390905D01*
X140420000Y-112480000D01*
X140509095Y-112390905D01*
X140570418Y-112357420D01*
X140640110Y-112362404D01*
G37*
G04 #@! TD.AperFunction*
G04 #@! TA.AperFunction,Conductor*
G36*
X145943039Y-76920185D02*
G01*
X145988794Y-76972989D01*
X146000000Y-77024500D01*
X146000000Y-91027793D01*
X145980315Y-91094832D01*
X145927511Y-91140587D01*
X145858353Y-91150531D01*
X145847610Y-91148499D01*
X145666577Y-91105920D01*
X145666561Y-91105918D01*
X145574096Y-91099500D01*
X145574092Y-91099500D01*
X145425908Y-91099500D01*
X145425904Y-91099500D01*
X145333438Y-91105918D01*
X145333422Y-91105920D01*
X145116864Y-91156854D01*
X145116848Y-91156860D01*
X144913331Y-91246721D01*
X144729779Y-91372457D01*
X144729773Y-91372462D01*
X144572462Y-91529773D01*
X144572457Y-91529779D01*
X144446721Y-91713331D01*
X144356860Y-91916848D01*
X144356854Y-91916864D01*
X144350706Y-91943007D01*
X144316195Y-92003759D01*
X144254318Y-92036209D01*
X144184720Y-92030054D01*
X144129498Y-91987249D01*
X144109294Y-91943007D01*
X144103145Y-91916864D01*
X144103144Y-91916861D01*
X144103143Y-91916857D01*
X144013277Y-91713329D01*
X143887542Y-91529779D01*
X143887537Y-91529773D01*
X143730226Y-91372462D01*
X143730220Y-91372457D01*
X143546668Y-91246721D01*
X143343151Y-91156860D01*
X143343135Y-91156854D01*
X143126577Y-91105920D01*
X143126561Y-91105918D01*
X143034096Y-91099500D01*
X143034092Y-91099500D01*
X142885908Y-91099500D01*
X142885904Y-91099500D01*
X142793438Y-91105918D01*
X142793422Y-91105920D01*
X142576864Y-91156854D01*
X142576848Y-91156860D01*
X142373331Y-91246721D01*
X142189779Y-91372457D01*
X142189773Y-91372462D01*
X142032462Y-91529773D01*
X142032457Y-91529779D01*
X141906721Y-91713331D01*
X141816860Y-91916848D01*
X141816854Y-91916864D01*
X141781930Y-92065354D01*
X141748905Y-92124645D01*
X140773552Y-93099999D01*
X140773552Y-93100001D01*
X141748905Y-94075354D01*
X141781930Y-94134645D01*
X141816854Y-94283135D01*
X141816860Y-94283151D01*
X141906722Y-94486671D01*
X141906723Y-94486672D01*
X141936294Y-94529840D01*
X141942596Y-94539039D01*
X141942599Y-94539043D01*
X142032457Y-94670220D01*
X142032462Y-94670226D01*
X142150555Y-94788319D01*
X142184040Y-94849642D01*
X142179056Y-94919334D01*
X142137184Y-94975267D01*
X142071720Y-94999684D01*
X142062874Y-95000000D01*
X141759086Y-95000000D01*
X141692047Y-94980315D01*
X141646292Y-94927511D01*
X141636348Y-94858353D01*
X141652442Y-94812731D01*
X141656111Y-94806545D01*
X141656115Y-94806538D01*
X141686547Y-94733067D01*
X141686556Y-94733043D01*
X141704543Y-94682057D01*
X141705651Y-94674347D01*
X141655918Y-94649454D01*
X141629881Y-94647591D01*
X141585541Y-94619093D01*
X140420000Y-93453552D01*
X139254457Y-94619095D01*
X139193134Y-94652580D01*
X139188389Y-94652240D01*
X139139869Y-94679869D01*
X139153437Y-94733027D01*
X139153443Y-94733044D01*
X139183881Y-94806528D01*
X139183887Y-94806541D01*
X139191514Y-94822483D01*
X139202690Y-94891453D01*
X139174804Y-94955517D01*
X139116710Y-94994335D01*
X139079657Y-95000000D01*
X138777126Y-95000000D01*
X138710087Y-94980315D01*
X138664332Y-94927511D01*
X138654388Y-94858353D01*
X138683413Y-94794797D01*
X138689445Y-94788319D01*
X138807537Y-94670226D01*
X138807542Y-94670221D01*
X138933277Y-94486671D01*
X139023143Y-94283143D01*
X139058069Y-94134645D01*
X139091094Y-94075354D01*
X140066448Y-93100000D01*
X140066448Y-93099999D01*
X139091094Y-92124645D01*
X139058069Y-92065353D01*
X139023145Y-91916866D01*
X139023143Y-91916857D01*
X138933277Y-91713329D01*
X138933277Y-91713328D01*
X138933275Y-91713325D01*
X138900069Y-91664851D01*
X138900067Y-91664849D01*
X138873984Y-91626773D01*
X138873983Y-91626772D01*
X139300325Y-91626772D01*
X139300325Y-91626773D01*
X140420000Y-92746448D01*
X140420001Y-92746448D01*
X141539673Y-91626773D01*
X141539673Y-91626772D01*
X141461295Y-91509470D01*
X141461290Y-91509463D01*
X141398485Y-91432935D01*
X141287064Y-91321514D01*
X141210536Y-91258708D01*
X141210530Y-91258704D01*
X141079521Y-91171167D01*
X141079501Y-91171155D01*
X140992198Y-91124490D01*
X140846612Y-91064185D01*
X140751864Y-91035444D01*
X140597300Y-91004701D01*
X140498790Y-90995000D01*
X140341210Y-90995000D01*
X140242700Y-91004701D01*
X140242697Y-91004701D01*
X140088135Y-91035444D01*
X139993387Y-91064185D01*
X139847801Y-91124490D01*
X139760498Y-91171155D01*
X139760478Y-91171167D01*
X139629469Y-91258704D01*
X139629463Y-91258708D01*
X139552935Y-91321514D01*
X139441515Y-91432934D01*
X139378709Y-91509463D01*
X139378700Y-91509475D01*
X139300325Y-91626772D01*
X138873983Y-91626772D01*
X138807542Y-91529779D01*
X138807537Y-91529773D01*
X138650226Y-91372462D01*
X138650220Y-91372457D01*
X138514423Y-91279434D01*
X138470240Y-91225307D01*
X138460500Y-91177134D01*
X138460500Y-89079060D01*
X138460501Y-89079047D01*
X138460501Y-88910944D01*
X138460501Y-88910943D01*
X138424071Y-88774986D01*
X139500001Y-88774986D01*
X139510494Y-88877697D01*
X139565641Y-89044119D01*
X139565643Y-89044124D01*
X139657684Y-89193345D01*
X139781654Y-89317315D01*
X139930875Y-89409356D01*
X139930880Y-89409358D01*
X140097302Y-89464505D01*
X140097309Y-89464506D01*
X140200019Y-89474999D01*
X140649999Y-89474999D01*
X141150000Y-89474999D01*
X141599972Y-89474999D01*
X141599986Y-89474998D01*
X141702697Y-89464505D01*
X141869119Y-89409358D01*
X141869124Y-89409356D01*
X142018345Y-89317315D01*
X142142315Y-89193345D01*
X142234356Y-89044124D01*
X142234358Y-89044119D01*
X142289505Y-88877697D01*
X142289506Y-88877690D01*
X142299999Y-88774986D01*
X142300000Y-88774973D01*
X142300000Y-88650000D01*
X141150000Y-88650000D01*
X141150000Y-89474999D01*
X140649999Y-89474999D01*
X140650000Y-89474998D01*
X140650000Y-88650000D01*
X139500001Y-88650000D01*
X139500001Y-88774986D01*
X138424071Y-88774986D01*
X138419577Y-88758216D01*
X138419576Y-88758214D01*
X138419574Y-88758209D01*
X138363242Y-88660639D01*
X138363240Y-88660637D01*
X138340520Y-88621284D01*
X137744249Y-88025013D01*
X139500000Y-88025013D01*
X139500000Y-88150000D01*
X140650000Y-88150000D01*
X141150000Y-88150000D01*
X142299999Y-88150000D01*
X142299999Y-88025028D01*
X142299998Y-88025013D01*
X142289505Y-87922302D01*
X142234358Y-87755880D01*
X142234356Y-87755875D01*
X142142315Y-87606654D01*
X142018345Y-87482684D01*
X141869124Y-87390643D01*
X141869119Y-87390641D01*
X141702697Y-87335494D01*
X141702690Y-87335493D01*
X141599986Y-87325000D01*
X141150000Y-87325000D01*
X141150000Y-88150000D01*
X140650000Y-88150000D01*
X140650000Y-87325000D01*
X140200028Y-87325000D01*
X140200012Y-87325001D01*
X140097302Y-87335494D01*
X139930880Y-87390641D01*
X139930875Y-87390643D01*
X139781654Y-87482684D01*
X139657684Y-87606654D01*
X139565643Y-87755875D01*
X139565641Y-87755880D01*
X139510494Y-87922302D01*
X139510493Y-87922309D01*
X139500000Y-88025013D01*
X137744249Y-88025013D01*
X137051819Y-87332583D01*
X137018334Y-87271260D01*
X137015500Y-87244902D01*
X137015500Y-86704313D01*
X137015499Y-86704298D01*
X137015273Y-86701430D01*
X137012598Y-86667431D01*
X137012222Y-86666137D01*
X136966745Y-86509606D01*
X136966744Y-86509603D01*
X136966744Y-86509602D01*
X136883081Y-86368135D01*
X136883079Y-86368133D01*
X136883076Y-86368129D01*
X136766870Y-86251923D01*
X136766862Y-86251917D01*
X136643173Y-86178768D01*
X136625398Y-86168256D01*
X136625397Y-86168255D01*
X136625396Y-86168255D01*
X136589903Y-86157943D01*
X136567488Y-86143627D01*
X136543297Y-86132580D01*
X136538498Y-86125113D01*
X136531018Y-86120336D01*
X136519901Y-86096174D01*
X136505523Y-86073802D01*
X136503666Y-86060891D01*
X136501813Y-86056863D01*
X136500500Y-86038867D01*
X136500500Y-85974190D01*
X136520185Y-85907151D01*
X136572989Y-85861396D01*
X136614773Y-85850572D01*
X136615688Y-85850500D01*
X136615694Y-85850500D01*
X136652569Y-85847598D01*
X136652571Y-85847597D01*
X136652573Y-85847597D01*
X136694191Y-85835505D01*
X136810398Y-85801744D01*
X136951865Y-85718081D01*
X137068081Y-85601865D01*
X137151744Y-85460398D01*
X137197598Y-85302569D01*
X137200500Y-85265694D01*
X137200500Y-84484306D01*
X137197598Y-84447431D01*
X137151744Y-84289602D01*
X137068081Y-84148135D01*
X137068079Y-84148133D01*
X137068076Y-84148129D01*
X136951870Y-84031923D01*
X136951862Y-84031917D01*
X136810396Y-83948255D01*
X136810393Y-83948254D01*
X136652573Y-83902402D01*
X136652567Y-83902401D01*
X136615701Y-83899500D01*
X136615694Y-83899500D01*
X135184306Y-83899500D01*
X135184298Y-83899500D01*
X135147432Y-83902401D01*
X135147426Y-83902402D01*
X134989606Y-83948254D01*
X134989603Y-83948255D01*
X134848137Y-84031917D01*
X134848129Y-84031923D01*
X134731923Y-84148129D01*
X134731917Y-84148137D01*
X134648255Y-84289603D01*
X134648254Y-84289606D01*
X134602402Y-84447426D01*
X134602401Y-84447432D01*
X134599500Y-84484298D01*
X134599500Y-85265701D01*
X134602401Y-85302567D01*
X134602402Y-85302573D01*
X134648254Y-85460393D01*
X134648255Y-85460396D01*
X134731917Y-85601862D01*
X134731923Y-85601870D01*
X134848129Y-85718076D01*
X134848133Y-85718079D01*
X134848135Y-85718081D01*
X134989602Y-85801744D01*
X135031224Y-85813836D01*
X135147426Y-85847597D01*
X135147429Y-85847597D01*
X135147431Y-85847598D01*
X135184306Y-85850500D01*
X135184312Y-85850500D01*
X135185227Y-85850572D01*
X135189072Y-85852037D01*
X135193147Y-85851452D01*
X135221450Y-85864377D01*
X135250515Y-85875455D01*
X135252957Y-85878766D01*
X135256703Y-85880477D01*
X135273527Y-85906656D01*
X135291987Y-85931685D01*
X135292888Y-85936782D01*
X135294477Y-85939255D01*
X135299500Y-85974190D01*
X135299500Y-86007297D01*
X135295275Y-86039391D01*
X135287790Y-86067325D01*
X135251425Y-86126985D01*
X135202611Y-86154307D01*
X135154605Y-86168254D01*
X135154603Y-86168255D01*
X135013137Y-86251917D01*
X135013129Y-86251923D01*
X134896919Y-86368133D01*
X134894309Y-86371499D01*
X134891591Y-86373461D01*
X134891402Y-86373651D01*
X134891371Y-86373620D01*
X134837667Y-86412407D01*
X134796329Y-86419500D01*
X134366669Y-86419500D01*
X134366653Y-86419499D01*
X134359057Y-86419499D01*
X134200943Y-86419499D01*
X134093587Y-86448265D01*
X134048210Y-86460424D01*
X134048209Y-86460425D01*
X133998096Y-86489359D01*
X133998095Y-86489360D01*
X133978800Y-86500500D01*
X133911285Y-86539479D01*
X133911282Y-86539481D01*
X133799478Y-86651286D01*
X133543584Y-86907181D01*
X133516656Y-86921884D01*
X133490838Y-86938477D01*
X133484637Y-86939368D01*
X133482261Y-86940666D01*
X133455903Y-86943500D01*
X133289499Y-86943500D01*
X133222460Y-86923815D01*
X133176705Y-86871011D01*
X133165499Y-86819500D01*
X133165499Y-86749982D01*
X133162417Y-86730520D01*
X133150646Y-86656196D01*
X133093050Y-86543158D01*
X133093046Y-86543154D01*
X133093045Y-86543152D01*
X133003347Y-86453454D01*
X133003344Y-86453452D01*
X133003342Y-86453450D01*
X132922791Y-86412407D01*
X132890301Y-86395852D01*
X132796524Y-86381000D01*
X132083482Y-86381000D01*
X132002519Y-86393823D01*
X131989696Y-86395854D01*
X131876658Y-86453450D01*
X131876656Y-86453451D01*
X131867963Y-86457881D01*
X131867194Y-86456373D01*
X131812072Y-86476038D01*
X131744019Y-86460209D01*
X131734117Y-86453846D01*
X131733344Y-86453452D01*
X131733342Y-86453450D01*
X131652791Y-86412407D01*
X131620301Y-86395852D01*
X131526524Y-86381000D01*
X130813482Y-86381000D01*
X130719696Y-86395854D01*
X130680793Y-86415676D01*
X130612124Y-86428571D01*
X130547384Y-86402293D01*
X130507128Y-86345186D01*
X130500500Y-86305190D01*
X130500500Y-86220945D01*
X130500500Y-86220943D01*
X130459577Y-86068216D01*
X130435703Y-86026865D01*
X130380524Y-85931290D01*
X130380521Y-85931286D01*
X130380520Y-85931284D01*
X130268716Y-85819480D01*
X130268715Y-85819479D01*
X130264385Y-85815149D01*
X130264374Y-85815139D01*
X129987590Y-85538355D01*
X129987588Y-85538352D01*
X129868717Y-85419481D01*
X129868716Y-85419480D01*
X129781904Y-85369360D01*
X129781904Y-85369359D01*
X129781900Y-85369358D01*
X129731785Y-85340423D01*
X129579057Y-85299499D01*
X129420943Y-85299499D01*
X129413347Y-85299499D01*
X129413331Y-85299500D01*
X126886670Y-85299500D01*
X126886654Y-85299499D01*
X126879058Y-85299499D01*
X126720943Y-85299499D01*
X126644579Y-85319961D01*
X126568214Y-85340423D01*
X126568209Y-85340426D01*
X126431290Y-85419475D01*
X126431282Y-85419481D01*
X126237583Y-85613181D01*
X126210655Y-85627884D01*
X126184837Y-85644477D01*
X126178636Y-85645368D01*
X126176260Y-85646666D01*
X126149902Y-85649500D01*
X126022597Y-85649500D01*
X125955558Y-85629815D01*
X125934916Y-85613181D01*
X125061819Y-84740084D01*
X125028334Y-84678761D01*
X125025500Y-84652403D01*
X125025500Y-84309313D01*
X125025499Y-84309298D01*
X125023949Y-84289606D01*
X125022598Y-84272431D01*
X124976744Y-84114602D01*
X124893081Y-83973135D01*
X124893079Y-83973133D01*
X124893076Y-83973129D01*
X124776870Y-83856923D01*
X124776862Y-83856917D01*
X124635396Y-83773255D01*
X124635393Y-83773254D01*
X124477573Y-83727402D01*
X124477567Y-83727401D01*
X124440701Y-83724500D01*
X124440694Y-83724500D01*
X123684306Y-83724500D01*
X123684298Y-83724500D01*
X123647432Y-83727401D01*
X123647426Y-83727402D01*
X123489606Y-83773254D01*
X123489603Y-83773255D01*
X123348137Y-83856917D01*
X123348129Y-83856923D01*
X123231923Y-83973129D01*
X123231917Y-83973137D01*
X123148255Y-84114603D01*
X123148254Y-84114606D01*
X123102402Y-84272426D01*
X123102401Y-84272432D01*
X123099500Y-84309298D01*
X123099500Y-85690701D01*
X123102401Y-85727567D01*
X123102402Y-85727573D01*
X123148254Y-85885393D01*
X123148255Y-85885396D01*
X123231917Y-86026862D01*
X123231923Y-86026870D01*
X123348129Y-86143076D01*
X123348133Y-86143079D01*
X123348135Y-86143081D01*
X123489602Y-86226744D01*
X123489609Y-86226746D01*
X123647426Y-86272597D01*
X123647429Y-86272597D01*
X123647431Y-86272598D01*
X123684306Y-86275500D01*
X123684314Y-86275500D01*
X124440686Y-86275500D01*
X124440694Y-86275500D01*
X124477569Y-86272598D01*
X124477571Y-86272597D01*
X124477573Y-86272597D01*
X124635392Y-86226746D01*
X124635392Y-86226745D01*
X124635398Y-86226744D01*
X124687467Y-86195949D01*
X124755188Y-86178768D01*
X124821451Y-86200928D01*
X124838267Y-86215002D01*
X125149333Y-86526068D01*
X125153670Y-86534012D01*
X125160919Y-86539438D01*
X125170155Y-86564200D01*
X125182818Y-86587391D01*
X125182172Y-86596419D01*
X125185336Y-86604902D01*
X125179719Y-86630721D01*
X125177834Y-86657083D01*
X125172014Y-86666137D01*
X125170484Y-86673175D01*
X125149334Y-86701430D01*
X125134141Y-86716623D01*
X125031286Y-86819478D01*
X125031285Y-86819478D01*
X125031284Y-86819479D01*
X124919481Y-86931282D01*
X124919479Y-86931285D01*
X124899499Y-86965892D01*
X124879518Y-87000501D01*
X124840423Y-87068215D01*
X124799499Y-87220943D01*
X124799499Y-87220945D01*
X124799499Y-87389046D01*
X124799500Y-87389059D01*
X124799500Y-87626835D01*
X124779815Y-87693874D01*
X124727011Y-87739629D01*
X124657853Y-87749573D01*
X124612379Y-87733567D01*
X124545261Y-87693874D01*
X124510398Y-87673256D01*
X124510397Y-87673255D01*
X124510396Y-87673255D01*
X124510393Y-87673254D01*
X124352573Y-87627402D01*
X124352567Y-87627401D01*
X124315701Y-87624500D01*
X124315694Y-87624500D01*
X123562597Y-87624500D01*
X123495558Y-87604815D01*
X123474916Y-87588181D01*
X122945090Y-87058355D01*
X122945088Y-87058352D01*
X122826217Y-86939481D01*
X122826216Y-86939480D01*
X122739404Y-86889360D01*
X122739404Y-86889359D01*
X122739400Y-86889358D01*
X122689285Y-86860423D01*
X122536557Y-86819499D01*
X122378443Y-86819499D01*
X122370847Y-86819499D01*
X122370831Y-86819500D01*
X121812000Y-86819500D01*
X121744961Y-86799815D01*
X121699206Y-86747011D01*
X121688000Y-86695500D01*
X121688000Y-86310718D01*
X121707685Y-86243679D01*
X121748880Y-86203986D01*
X121809300Y-86168254D01*
X121851865Y-86143081D01*
X121968081Y-86026865D01*
X122051744Y-85885398D01*
X122097598Y-85727569D01*
X122100500Y-85690694D01*
X122100500Y-84309306D01*
X122097598Y-84272431D01*
X122051744Y-84114602D01*
X121968081Y-83973135D01*
X121968079Y-83973133D01*
X121968076Y-83973129D01*
X121851870Y-83856923D01*
X121851862Y-83856917D01*
X121710396Y-83773255D01*
X121710393Y-83773254D01*
X121552573Y-83727402D01*
X121552567Y-83727401D01*
X121515701Y-83724500D01*
X121515694Y-83724500D01*
X120759306Y-83724500D01*
X120759298Y-83724500D01*
X120722432Y-83727401D01*
X120722426Y-83727402D01*
X120564606Y-83773254D01*
X120564603Y-83773255D01*
X120423137Y-83856917D01*
X120423129Y-83856923D01*
X120306923Y-83973129D01*
X120306917Y-83973137D01*
X120223255Y-84114603D01*
X120223254Y-84114606D01*
X120177402Y-84272426D01*
X120177401Y-84272432D01*
X120174500Y-84309298D01*
X120174500Y-85690701D01*
X120177401Y-85727567D01*
X120177402Y-85727573D01*
X120223254Y-85885393D01*
X120223255Y-85885396D01*
X120306917Y-86026862D01*
X120306923Y-86026870D01*
X120423129Y-86143076D01*
X120423131Y-86143077D01*
X120423135Y-86143081D01*
X120426115Y-86144843D01*
X120427974Y-86146834D01*
X120429298Y-86147861D01*
X120429132Y-86148074D01*
X120473800Y-86195905D01*
X120487000Y-86251578D01*
X120487000Y-87119902D01*
X120467315Y-87186941D01*
X120450681Y-87207583D01*
X120086681Y-87571583D01*
X120025358Y-87605068D01*
X119955666Y-87600084D01*
X119899733Y-87558212D01*
X119875316Y-87492748D01*
X119875000Y-87483902D01*
X119875000Y-87450000D01*
X117125001Y-87450000D01*
X117125001Y-87562486D01*
X117135494Y-87665197D01*
X117190641Y-87831619D01*
X117190643Y-87831624D01*
X117239235Y-87910403D01*
X117257675Y-87977796D01*
X117236752Y-88044459D01*
X117183110Y-88089229D01*
X117133696Y-88099500D01*
X116624000Y-88099500D01*
X116615314Y-88096949D01*
X116606353Y-88098238D01*
X116582312Y-88087259D01*
X116556961Y-88079815D01*
X116551033Y-88072974D01*
X116542797Y-88069213D01*
X116528507Y-88046978D01*
X116511206Y-88027011D01*
X116508918Y-88016496D01*
X116505023Y-88010435D01*
X116500000Y-87975500D01*
X116500000Y-87734048D01*
X116519685Y-87667009D01*
X116561999Y-87626662D01*
X116607314Y-87600500D01*
X116700500Y-87507314D01*
X116766392Y-87393186D01*
X116800500Y-87265892D01*
X116800500Y-86837513D01*
X117125000Y-86837513D01*
X117125000Y-86950000D01*
X118250000Y-86950000D01*
X118750000Y-86950000D01*
X119874999Y-86950000D01*
X119874999Y-86837528D01*
X119874998Y-86837513D01*
X119864505Y-86734802D01*
X119809358Y-86568380D01*
X119809356Y-86568375D01*
X119717315Y-86419154D01*
X119593345Y-86295184D01*
X119444124Y-86203143D01*
X119444119Y-86203141D01*
X119277697Y-86147994D01*
X119277690Y-86147993D01*
X119174986Y-86137500D01*
X118750000Y-86137500D01*
X118750000Y-86950000D01*
X118250000Y-86950000D01*
X118250000Y-86137500D01*
X117825028Y-86137500D01*
X117825012Y-86137501D01*
X117722302Y-86147994D01*
X117555880Y-86203141D01*
X117555875Y-86203143D01*
X117406654Y-86295184D01*
X117282684Y-86419154D01*
X117190643Y-86568375D01*
X117190641Y-86568380D01*
X117135494Y-86734802D01*
X117135493Y-86734809D01*
X117125000Y-86837513D01*
X116800500Y-86837513D01*
X116800500Y-82930344D01*
X127805000Y-82930344D01*
X127811401Y-82989872D01*
X127811403Y-82989879D01*
X127861645Y-83124586D01*
X127861649Y-83124593D01*
X127947809Y-83239687D01*
X127947812Y-83239690D01*
X128062906Y-83325850D01*
X128062913Y-83325854D01*
X128197620Y-83376096D01*
X128197627Y-83376098D01*
X128257155Y-83382499D01*
X128257172Y-83382500D01*
X128380000Y-83382500D01*
X128380000Y-82370000D01*
X127805000Y-82370000D01*
X127805000Y-82930344D01*
X116800500Y-82930344D01*
X116800500Y-78018475D01*
X117449500Y-78018475D01*
X117449500Y-79781517D01*
X117455513Y-79819480D01*
X117464354Y-79875304D01*
X117521950Y-79988342D01*
X117521952Y-79988344D01*
X117521954Y-79988347D01*
X117611652Y-80078045D01*
X117611654Y-80078046D01*
X117611658Y-80078050D01*
X117724694Y-80135645D01*
X117724698Y-80135647D01*
X117818475Y-80150499D01*
X117818481Y-80150500D01*
X117965735Y-80150499D01*
X118032772Y-80170183D01*
X118078527Y-80222987D01*
X118088471Y-80292145D01*
X118059446Y-80355701D01*
X118038619Y-80374816D01*
X117885360Y-80486167D01*
X117885351Y-80486174D01*
X117746174Y-80625351D01*
X117746174Y-80625352D01*
X117746172Y-80625354D01*
X117742931Y-80629815D01*
X117630476Y-80784594D01*
X117541117Y-80959970D01*
X117480290Y-81147173D01*
X117449500Y-81341577D01*
X117449500Y-81538422D01*
X117480290Y-81732826D01*
X117541117Y-81920029D01*
X117591078Y-82018082D01*
X117630476Y-82095405D01*
X117746172Y-82254646D01*
X117885354Y-82393828D01*
X118044595Y-82509524D01*
X118124625Y-82550301D01*
X118219970Y-82598882D01*
X118219972Y-82598882D01*
X118219975Y-82598884D01*
X118320317Y-82631487D01*
X118407173Y-82659709D01*
X118601578Y-82690500D01*
X118601583Y-82690500D01*
X118798422Y-82690500D01*
X118992826Y-82659709D01*
X119180025Y-82598884D01*
X119355405Y-82509524D01*
X119514646Y-82393828D01*
X119653828Y-82254646D01*
X119681461Y-82216613D01*
X119736791Y-82173948D01*
X119781778Y-82165500D01*
X121705939Y-82165500D01*
X121705943Y-82165501D01*
X121864057Y-82165501D01*
X121916223Y-82151522D01*
X121928569Y-82150745D01*
X121930751Y-82151239D01*
X121936367Y-82150500D01*
X122340686Y-82150500D01*
X122340694Y-82150500D01*
X122377569Y-82147598D01*
X122377571Y-82147597D01*
X122377573Y-82147597D01*
X122419191Y-82135505D01*
X122535398Y-82101744D01*
X122676865Y-82018081D01*
X122793081Y-81901865D01*
X122793081Y-81901863D01*
X122795691Y-81898501D01*
X122798408Y-81896538D01*
X122798598Y-81896349D01*
X122798628Y-81896379D01*
X122852333Y-81857593D01*
X122893671Y-81850500D01*
X124475500Y-81850500D01*
X124542539Y-81870185D01*
X124588294Y-81922989D01*
X124599500Y-81974500D01*
X124599500Y-82456517D01*
X124610292Y-82524657D01*
X124614354Y-82550304D01*
X124671950Y-82663342D01*
X124671952Y-82663344D01*
X124671954Y-82663347D01*
X124761652Y-82753045D01*
X124761654Y-82753046D01*
X124761658Y-82753050D01*
X124874694Y-82810645D01*
X124874698Y-82810647D01*
X124968475Y-82825499D01*
X124968481Y-82825500D01*
X126431518Y-82825499D01*
X126525304Y-82810646D01*
X126638342Y-82753050D01*
X126728050Y-82663342D01*
X126785646Y-82550304D01*
X126785646Y-82550302D01*
X126785647Y-82550301D01*
X126800500Y-82456524D01*
X126800500Y-82318638D01*
X126800499Y-81543482D01*
X126797572Y-81525000D01*
X126785646Y-81449696D01*
X126728050Y-81336658D01*
X126701047Y-81309655D01*
X127805000Y-81309655D01*
X127805000Y-81870000D01*
X128380000Y-81870000D01*
X128380000Y-80857500D01*
X128257155Y-80857500D01*
X128197627Y-80863901D01*
X128197620Y-80863903D01*
X128062913Y-80914145D01*
X128062906Y-80914149D01*
X127947812Y-81000309D01*
X127947809Y-81000312D01*
X127861649Y-81115406D01*
X127861645Y-81115413D01*
X127811403Y-81250120D01*
X127811401Y-81250127D01*
X127805000Y-81309655D01*
X126701047Y-81309655D01*
X126654003Y-81262611D01*
X126650382Y-81258262D01*
X126638653Y-81231180D01*
X126624509Y-81205278D01*
X126624923Y-81199480D01*
X126622614Y-81194148D01*
X126627387Y-81165025D01*
X126629493Y-81135586D01*
X126633144Y-81129904D01*
X126633916Y-81125198D01*
X126641762Y-81116495D01*
X126657991Y-81091242D01*
X127412416Y-80336819D01*
X127473739Y-80303334D01*
X127500097Y-80300500D01*
X128999903Y-80300500D01*
X129066942Y-80320185D01*
X129087584Y-80336819D01*
X129263181Y-80512416D01*
X129277884Y-80539343D01*
X129294477Y-80565162D01*
X129295368Y-80571362D01*
X129296666Y-80573739D01*
X129299500Y-80600097D01*
X129299500Y-80773750D01*
X129279815Y-80840789D01*
X129227011Y-80886544D01*
X129157853Y-80896488D01*
X129132167Y-80889932D01*
X129062379Y-80863903D01*
X129062372Y-80863901D01*
X129002844Y-80857500D01*
X128880000Y-80857500D01*
X128880000Y-83382500D01*
X129002828Y-83382500D01*
X129002844Y-83382499D01*
X129062372Y-83376098D01*
X129062379Y-83376096D01*
X129197086Y-83325854D01*
X129197089Y-83325852D01*
X129283448Y-83261204D01*
X129348912Y-83236786D01*
X129414054Y-83249985D01*
X129436072Y-83261204D01*
X129449696Y-83268146D01*
X129449698Y-83268147D01*
X129543475Y-83282999D01*
X129543481Y-83283000D01*
X130256518Y-83282999D01*
X130350304Y-83268146D01*
X130463342Y-83210550D01*
X130463343Y-83210548D01*
X130472037Y-83206119D01*
X130472805Y-83207627D01*
X130527916Y-83187962D01*
X130595970Y-83203784D01*
X130605880Y-83210153D01*
X130606656Y-83210548D01*
X130606658Y-83210550D01*
X130706072Y-83261204D01*
X130719698Y-83268147D01*
X130813475Y-83282999D01*
X130813481Y-83283000D01*
X131526518Y-83282999D01*
X131620304Y-83268146D01*
X131733342Y-83210550D01*
X131733343Y-83210548D01*
X131742037Y-83206119D01*
X131742805Y-83207627D01*
X131797916Y-83187962D01*
X131865970Y-83203784D01*
X131875880Y-83210153D01*
X131876656Y-83210548D01*
X131876658Y-83210550D01*
X131976072Y-83261204D01*
X131989698Y-83268147D01*
X132083475Y-83282999D01*
X132083481Y-83283000D01*
X132796518Y-83282999D01*
X132890304Y-83268146D01*
X133003342Y-83210550D01*
X133093050Y-83120842D01*
X133150646Y-83007804D01*
X133150646Y-83007802D01*
X133150647Y-83007801D01*
X133165499Y-82914024D01*
X133165500Y-82914019D01*
X133165500Y-82299986D01*
X134500001Y-82299986D01*
X134510494Y-82402697D01*
X134565641Y-82569119D01*
X134565643Y-82569124D01*
X134657684Y-82718345D01*
X134781654Y-82842315D01*
X134930875Y-82934356D01*
X134930880Y-82934358D01*
X135097302Y-82989505D01*
X135097309Y-82989506D01*
X135200019Y-82999999D01*
X135649999Y-82999999D01*
X136150000Y-82999999D01*
X136599972Y-82999999D01*
X136599986Y-82999998D01*
X136702697Y-82989505D01*
X136869119Y-82934358D01*
X136869124Y-82934356D01*
X137018345Y-82842315D01*
X137142315Y-82718345D01*
X137234356Y-82569124D01*
X137234358Y-82569119D01*
X137289505Y-82402697D01*
X137289506Y-82402690D01*
X137299999Y-82299986D01*
X137300000Y-82299973D01*
X137300000Y-82175000D01*
X136150000Y-82175000D01*
X136150000Y-82999999D01*
X135649999Y-82999999D01*
X135650000Y-82999998D01*
X135650000Y-82175000D01*
X134500001Y-82175000D01*
X134500001Y-82299986D01*
X133165500Y-82299986D01*
X133165499Y-81550013D01*
X134500000Y-81550013D01*
X134500000Y-81675000D01*
X135650000Y-81675000D01*
X136150000Y-81675000D01*
X137299999Y-81675000D01*
X137299999Y-81550028D01*
X137299998Y-81550013D01*
X137289505Y-81447302D01*
X137234358Y-81280880D01*
X137234356Y-81280875D01*
X137142315Y-81131654D01*
X137018345Y-81007684D01*
X136869124Y-80915643D01*
X136869119Y-80915641D01*
X136702697Y-80860494D01*
X136702690Y-80860493D01*
X136599986Y-80850000D01*
X136150000Y-80850000D01*
X136150000Y-81675000D01*
X135650000Y-81675000D01*
X135650000Y-80850000D01*
X135200028Y-80850000D01*
X135200012Y-80850001D01*
X135097302Y-80860494D01*
X134930880Y-80915641D01*
X134930875Y-80915643D01*
X134781654Y-81007684D01*
X134657684Y-81131654D01*
X134565643Y-81280875D01*
X134565641Y-81280880D01*
X134510494Y-81447302D01*
X134510493Y-81447309D01*
X134500000Y-81550013D01*
X133165499Y-81550013D01*
X133165499Y-81325982D01*
X133150646Y-81232196D01*
X133093050Y-81119158D01*
X133093046Y-81119154D01*
X133093045Y-81119152D01*
X133076819Y-81102926D01*
X133043334Y-81041603D01*
X133040500Y-81015245D01*
X133040500Y-79959500D01*
X133060185Y-79892461D01*
X133112989Y-79846706D01*
X133164500Y-79835500D01*
X137875500Y-79835500D01*
X137942539Y-79855185D01*
X137988294Y-79907989D01*
X137999500Y-79959500D01*
X137999500Y-83063330D01*
X137999499Y-83063348D01*
X137999499Y-83229054D01*
X137999498Y-83229054D01*
X138040423Y-83381785D01*
X138069358Y-83431900D01*
X138069359Y-83431904D01*
X138069360Y-83431904D01*
X138119479Y-83518714D01*
X138119481Y-83518717D01*
X138238349Y-83637585D01*
X138238355Y-83637590D01*
X139563497Y-84962732D01*
X139596982Y-85024055D01*
X139599213Y-85056852D01*
X139599596Y-85056868D01*
X139599500Y-85059313D01*
X139599500Y-85840701D01*
X139602401Y-85877567D01*
X139602402Y-85877573D01*
X139648254Y-86035393D01*
X139648255Y-86035396D01*
X139648256Y-86035398D01*
X139670968Y-86073802D01*
X139731917Y-86176862D01*
X139731923Y-86176870D01*
X139848129Y-86293076D01*
X139848133Y-86293079D01*
X139848135Y-86293081D01*
X139989602Y-86376744D01*
X140004251Y-86381000D01*
X140147426Y-86422597D01*
X140147429Y-86422597D01*
X140147431Y-86422598D01*
X140184306Y-86425500D01*
X140184314Y-86425500D01*
X141615686Y-86425500D01*
X141615694Y-86425500D01*
X141652569Y-86422598D01*
X141652571Y-86422597D01*
X141652573Y-86422597D01*
X141694191Y-86410505D01*
X141810398Y-86376744D01*
X141951865Y-86293081D01*
X142068081Y-86176865D01*
X142151744Y-86035398D01*
X142189147Y-85906656D01*
X142197597Y-85877573D01*
X142197598Y-85877567D01*
X142199653Y-85851452D01*
X142200500Y-85840694D01*
X142200500Y-85059306D01*
X142197598Y-85022431D01*
X142151744Y-84864602D01*
X142068081Y-84723135D01*
X142068079Y-84723133D01*
X142068076Y-84723129D01*
X141951870Y-84606923D01*
X141951862Y-84606917D01*
X141810396Y-84523255D01*
X141810393Y-84523254D01*
X141652573Y-84477402D01*
X141652567Y-84477401D01*
X141615701Y-84474500D01*
X141615694Y-84474500D01*
X140825097Y-84474500D01*
X140758058Y-84454815D01*
X140737416Y-84438181D01*
X139236819Y-82937584D01*
X139203334Y-82876261D01*
X139200500Y-82849903D01*
X139200500Y-79959500D01*
X139220185Y-79892461D01*
X139272989Y-79846706D01*
X139324500Y-79835500D01*
X140727404Y-79835500D01*
X140794443Y-79855185D01*
X140827722Y-79886614D01*
X140830475Y-79890403D01*
X140830476Y-79890405D01*
X140946172Y-80049646D01*
X140946174Y-80049648D01*
X141085354Y-80188828D01*
X141101671Y-80200683D01*
X141144336Y-80256013D01*
X141150314Y-80325627D01*
X141117707Y-80387421D01*
X141056868Y-80421778D01*
X141028784Y-80425000D01*
X141002155Y-80425000D01*
X140942627Y-80431401D01*
X140942620Y-80431403D01*
X140807913Y-80481645D01*
X140807906Y-80481649D01*
X140692812Y-80567809D01*
X140692809Y-80567812D01*
X140606649Y-80682906D01*
X140606645Y-80682913D01*
X140556403Y-80817620D01*
X140556401Y-80817627D01*
X140550000Y-80877155D01*
X140550000Y-81525000D01*
X141466988Y-81525000D01*
X141434075Y-81582007D01*
X141400000Y-81709174D01*
X141400000Y-81840826D01*
X141434075Y-81967993D01*
X141466988Y-82025000D01*
X140550000Y-82025000D01*
X140550000Y-82672844D01*
X140556401Y-82732372D01*
X140556403Y-82732379D01*
X140606645Y-82867086D01*
X140606649Y-82867093D01*
X140692809Y-82982187D01*
X140692812Y-82982190D01*
X140807906Y-83068350D01*
X140807913Y-83068354D01*
X140942620Y-83118596D01*
X140942627Y-83118598D01*
X141002155Y-83124999D01*
X141002172Y-83125000D01*
X141650000Y-83125000D01*
X141650000Y-82208012D01*
X141707007Y-82240925D01*
X141834174Y-82275000D01*
X141965826Y-82275000D01*
X142092993Y-82240925D01*
X142150000Y-82208012D01*
X142150000Y-83125000D01*
X142797828Y-83125000D01*
X142797844Y-83124999D01*
X142857372Y-83118598D01*
X142857379Y-83118596D01*
X142992086Y-83068354D01*
X142992093Y-83068350D01*
X143107187Y-82982190D01*
X143107190Y-82982187D01*
X143193350Y-82867093D01*
X143193354Y-82867086D01*
X143243596Y-82732379D01*
X143243598Y-82732372D01*
X143249999Y-82672844D01*
X143250000Y-82672827D01*
X143250000Y-82025000D01*
X142333012Y-82025000D01*
X142365925Y-81967993D01*
X142400000Y-81840826D01*
X142400000Y-81709174D01*
X142365925Y-81582007D01*
X142333012Y-81525000D01*
X143250000Y-81525000D01*
X143250000Y-80877172D01*
X143249999Y-80877155D01*
X143243598Y-80817627D01*
X143243596Y-80817620D01*
X143193354Y-80682913D01*
X143193350Y-80682906D01*
X143107190Y-80567812D01*
X143107187Y-80567809D01*
X142992093Y-80481649D01*
X142992086Y-80481645D01*
X142857379Y-80431403D01*
X142857372Y-80431401D01*
X142797844Y-80425000D01*
X142771216Y-80425000D01*
X142704177Y-80405315D01*
X142658422Y-80352511D01*
X142648478Y-80283353D01*
X142677503Y-80219797D01*
X142698329Y-80200683D01*
X142714646Y-80188828D01*
X142853828Y-80049646D01*
X142969524Y-79890405D01*
X143058884Y-79715025D01*
X143119709Y-79527826D01*
X143135063Y-79430885D01*
X143150500Y-79333422D01*
X143150500Y-79136577D01*
X143119709Y-78942173D01*
X143061603Y-78763343D01*
X143058884Y-78754975D01*
X143058882Y-78754972D01*
X143058882Y-78754970D01*
X142993194Y-78626051D01*
X142969524Y-78579595D01*
X142853828Y-78420354D01*
X142714646Y-78281172D01*
X142555405Y-78165476D01*
X142380029Y-78076117D01*
X142192826Y-78015290D01*
X141998422Y-77984500D01*
X141998417Y-77984500D01*
X141801583Y-77984500D01*
X141801578Y-77984500D01*
X141607173Y-78015290D01*
X141419970Y-78076117D01*
X141244594Y-78165476D01*
X141153741Y-78231485D01*
X141085354Y-78281172D01*
X141085352Y-78281174D01*
X141085351Y-78281174D01*
X140946174Y-78420351D01*
X140946174Y-78420352D01*
X140946172Y-78420354D01*
X140830477Y-78579594D01*
X140827722Y-78583386D01*
X140772392Y-78626051D01*
X140727404Y-78634500D01*
X132801612Y-78634500D01*
X132801596Y-78634499D01*
X132794000Y-78634499D01*
X132635885Y-78634499D01*
X132559521Y-78654961D01*
X132483156Y-78675423D01*
X132483151Y-78675426D01*
X132346232Y-78754475D01*
X132346224Y-78754481D01*
X131982181Y-79118525D01*
X131920858Y-79152010D01*
X131851166Y-79147026D01*
X131795233Y-79105154D01*
X131770816Y-79039690D01*
X131770500Y-79030844D01*
X131770500Y-78790945D01*
X131770500Y-78790943D01*
X131729577Y-78638216D01*
X131697921Y-78583386D01*
X131650524Y-78501290D01*
X131650521Y-78501286D01*
X131650520Y-78501284D01*
X131538716Y-78389480D01*
X131538715Y-78389479D01*
X131534385Y-78385149D01*
X131534374Y-78385139D01*
X130887590Y-77738355D01*
X130887588Y-77738352D01*
X130768717Y-77619481D01*
X130768716Y-77619480D01*
X130681904Y-77569360D01*
X130681904Y-77569359D01*
X130681900Y-77569358D01*
X130631785Y-77540423D01*
X130479057Y-77499499D01*
X130320943Y-77499499D01*
X130313347Y-77499499D01*
X130313331Y-77499500D01*
X126836057Y-77499500D01*
X126769018Y-77479815D01*
X126735793Y-77443093D01*
X126733786Y-77444552D01*
X126728050Y-77436657D01*
X126638347Y-77346954D01*
X126638344Y-77346952D01*
X126638342Y-77346950D01*
X126561517Y-77307805D01*
X126525301Y-77289352D01*
X126431524Y-77274500D01*
X124968482Y-77274500D01*
X124887519Y-77287323D01*
X124874696Y-77289354D01*
X124761658Y-77346950D01*
X124761657Y-77346951D01*
X124761652Y-77346954D01*
X124671950Y-77436657D01*
X124666214Y-77444552D01*
X124663940Y-77442899D01*
X124626454Y-77482591D01*
X124563943Y-77499500D01*
X123136669Y-77499500D01*
X123136653Y-77499499D01*
X123129057Y-77499499D01*
X122970943Y-77499499D01*
X122863587Y-77528265D01*
X122818210Y-77540424D01*
X122818209Y-77540425D01*
X122768096Y-77569359D01*
X122768095Y-77569360D01*
X122724689Y-77594420D01*
X122681285Y-77619479D01*
X122681282Y-77619481D01*
X121912584Y-78388180D01*
X121885658Y-78402882D01*
X121859839Y-78419476D01*
X121853636Y-78420367D01*
X121851261Y-78421665D01*
X121824904Y-78424499D01*
X121695943Y-78424499D01*
X121695939Y-78424499D01*
X121688332Y-78424500D01*
X121688331Y-78424499D01*
X121688331Y-78424500D01*
X120074499Y-78424500D01*
X120007460Y-78404815D01*
X119961705Y-78352011D01*
X119950499Y-78300500D01*
X119950499Y-78018482D01*
X119945117Y-77984500D01*
X119935646Y-77924696D01*
X119878050Y-77811658D01*
X119878046Y-77811654D01*
X119878045Y-77811652D01*
X119788347Y-77721954D01*
X119788344Y-77721952D01*
X119788342Y-77721950D01*
X119711517Y-77682805D01*
X119675301Y-77664352D01*
X119581524Y-77649500D01*
X117818482Y-77649500D01*
X117737519Y-77662323D01*
X117724696Y-77664354D01*
X117611658Y-77721950D01*
X117611657Y-77721951D01*
X117611652Y-77721954D01*
X117521954Y-77811652D01*
X117521951Y-77811657D01*
X117464352Y-77924698D01*
X117449500Y-78018475D01*
X116800500Y-78018475D01*
X116800500Y-77024500D01*
X116820185Y-76957461D01*
X116872989Y-76911706D01*
X116924500Y-76900500D01*
X145876000Y-76900500D01*
X145943039Y-76920185D01*
G37*
G04 #@! TD.AperFunction*
G04 #@! TA.AperFunction,Conductor*
G36*
X134823280Y-87628413D02*
G01*
X134850967Y-87633186D01*
X134859593Y-87639076D01*
X134863368Y-87640185D01*
X134869691Y-87645971D01*
X134880114Y-87653089D01*
X134892563Y-87664499D01*
X134896919Y-87671865D01*
X135013135Y-87788081D01*
X135053324Y-87811849D01*
X135062857Y-87820586D01*
X135098977Y-87880394D01*
X135097028Y-87950237D01*
X135057629Y-88007939D01*
X135044170Y-88017535D01*
X134946656Y-88077682D01*
X134822684Y-88201654D01*
X134730643Y-88350875D01*
X134730641Y-88350880D01*
X134675494Y-88517302D01*
X134675493Y-88517309D01*
X134665000Y-88620013D01*
X134665000Y-88670000D01*
X135766000Y-88670000D01*
X135833039Y-88689685D01*
X135878794Y-88742489D01*
X135890000Y-88794000D01*
X135890000Y-88920000D01*
X136016000Y-88920000D01*
X136083039Y-88939685D01*
X136128794Y-88992489D01*
X136140000Y-89044000D01*
X136140000Y-89919999D01*
X136414972Y-89919999D01*
X136414986Y-89919998D01*
X136517697Y-89909505D01*
X136684119Y-89854358D01*
X136684124Y-89854356D01*
X136833345Y-89762315D01*
X136957315Y-89638345D01*
X137029961Y-89520568D01*
X137081909Y-89473844D01*
X137150872Y-89462621D01*
X137214954Y-89490465D01*
X137253810Y-89548533D01*
X137259500Y-89585665D01*
X137259500Y-91204534D01*
X137239815Y-91271573D01*
X137205577Y-91306833D01*
X137109786Y-91372451D01*
X137109773Y-91372462D01*
X136952462Y-91529773D01*
X136952457Y-91529779D01*
X136826721Y-91713331D01*
X136736860Y-91916848D01*
X136736854Y-91916864D01*
X136730706Y-91943007D01*
X136696195Y-92003759D01*
X136634318Y-92036209D01*
X136564720Y-92030054D01*
X136509498Y-91987249D01*
X136489294Y-91943007D01*
X136483145Y-91916864D01*
X136483144Y-91916861D01*
X136483143Y-91916857D01*
X136393277Y-91713329D01*
X136267542Y-91529779D01*
X136267537Y-91529773D01*
X136110226Y-91372462D01*
X136110220Y-91372457D01*
X135926021Y-91246278D01*
X135888222Y-91205124D01*
X135880418Y-91191357D01*
X135879577Y-91188216D01*
X135879577Y-91188215D01*
X135828357Y-91099500D01*
X135800520Y-91051284D01*
X135688716Y-90939480D01*
X135688715Y-90939479D01*
X135684385Y-90935149D01*
X135684374Y-90935139D01*
X134687590Y-89938355D01*
X134687588Y-89938352D01*
X134568717Y-89819481D01*
X134568716Y-89819480D01*
X134481904Y-89769360D01*
X134481904Y-89769359D01*
X134481900Y-89769358D01*
X134431785Y-89740423D01*
X134279057Y-89699499D01*
X134120943Y-89699499D01*
X134113347Y-89699499D01*
X134113331Y-89699500D01*
X133200097Y-89699500D01*
X133133058Y-89679815D01*
X133112416Y-89663181D01*
X132669221Y-89219986D01*
X134665001Y-89219986D01*
X134675494Y-89322697D01*
X134730641Y-89489119D01*
X134730643Y-89489124D01*
X134822684Y-89638345D01*
X134946654Y-89762315D01*
X135095875Y-89854356D01*
X135095880Y-89854358D01*
X135262302Y-89909505D01*
X135262309Y-89909506D01*
X135365019Y-89919999D01*
X135639999Y-89919999D01*
X135640000Y-89919998D01*
X135640000Y-89170000D01*
X134665001Y-89170000D01*
X134665001Y-89219986D01*
X132669221Y-89219986D01*
X132367915Y-88918680D01*
X132334430Y-88857357D01*
X132339414Y-88787665D01*
X132381286Y-88731732D01*
X132446750Y-88707315D01*
X132455596Y-88706999D01*
X132796517Y-88706999D01*
X132796518Y-88706999D01*
X132890304Y-88692146D01*
X133003342Y-88634550D01*
X133093050Y-88544842D01*
X133150646Y-88431804D01*
X133150646Y-88431802D01*
X133150647Y-88431801D01*
X133165500Y-88338024D01*
X133165500Y-88268500D01*
X133185185Y-88201461D01*
X133237989Y-88155706D01*
X133289500Y-88144500D01*
X133669331Y-88144500D01*
X133669347Y-88144501D01*
X133676943Y-88144501D01*
X133835054Y-88144501D01*
X133835057Y-88144501D01*
X133987785Y-88103577D01*
X134061038Y-88061284D01*
X134124716Y-88024520D01*
X134236520Y-87912716D01*
X134236520Y-87912714D01*
X134246721Y-87902514D01*
X134246724Y-87902509D01*
X134492417Y-87656816D01*
X134553739Y-87623334D01*
X134580097Y-87620500D01*
X134796329Y-87620500D01*
X134823280Y-87628413D01*
G37*
G04 #@! TD.AperFunction*
M02*
