M48
; DRILL file {KiCad 9.0.3+dfsg-1} date 2026-01-08T15:21:52+0100
; FORMAT={-:-/ absolute / metric / decimal}
; #@! TF.CreationDate,2026-01-08T15:21:52+01:00
; #@! TF.GenerationSoftware,Kicad,Pcbnew,9.0.3+dfsg-1
; #@! TF.FileFunction,Plated,1,2,PTH
FMAT,2
METRIC
; #@! TA.AperFunction,Plated,PTH,ViaDrill
T1C0.800
; #@! TA.AperFunction,Plated,PTH,ComponentDrill
T2C1.000
%
G90
G05
T1
X85.0Y-85.25
X91.95Y-93.75
X95.0Y-88.0
X95.0Y-93.0
X99.3Y-95.6
X102.35Y-102.35
X104.8Y-91.3
X106.8Y-89.1
X106.9Y-96.6
X107.2Y-103.2
X118.65Y-108.2
T2
X87.3Y-85.025
X87.3Y-87.565
X92.75Y-96.675
X92.75Y-99.215
X104.0Y-95.46
X104.0Y-98.0
X104.0Y-100.54
X110.045Y-108.3
X110.585Y-101.6
X110.65Y-94.75
X112.585Y-108.3
X113.125Y-101.6
X113.19Y-94.75
X115.125Y-108.3
X118.0Y-87.46
X118.0Y-90.0
X118.0Y-92.54
M30
