G04 #@! TF.GenerationSoftware,KiCad,Pcbnew,9.0.3+dfsg-1*
G04 #@! TF.CreationDate,2026-02-05T22:47:57+01:00*
G04 #@! TF.ProjectId,NFC_harness_V0,4e46435f-6861-4726-9e65-73735f56302e,rev?*
G04 #@! TF.SameCoordinates,Original*
G04 #@! TF.FileFunction,Copper,L1,Top*
G04 #@! TF.FilePolarity,Positive*
%FSLAX46Y46*%
G04 Gerber Fmt 4.6, Leading zero omitted, Abs format (unit mm)*
G04 Created by KiCad (PCBNEW 9.0.3+dfsg-1) date 2026-02-05 22:47:57*
%MOMM*%
%LPD*%
G01*
G04 APERTURE LIST*
G04 Aperture macros list*
%AMRoundRect*
0 Rectangle with rounded corners*
0 $1 Rounding radius*
0 $2 $3 $4 $5 $6 $7 $8 $9 X,Y pos of 4 corners*
0 Add a 4 corners polygon primitive as box body*
4,1,4,$2,$3,$4,$5,$6,$7,$8,$9,$2,$3,0*
0 Add four circle primitives for the rounded corners*
1,1,$1+$1,$2,$3*
1,1,$1+$1,$4,$5*
1,1,$1+$1,$6,$7*
1,1,$1+$1,$8,$9*
0 Add four rect primitives between the rounded corners*
20,1,$1+$1,$2,$3,$4,$5,0*
20,1,$1+$1,$4,$5,$6,$7,0*
20,1,$1+$1,$6,$7,$8,$9,0*
20,1,$1+$1,$8,$9,$2,$3,0*%
%AMFreePoly0*
4,1,37,0.000000,0.796148,0.078414,0.796148,0.232228,0.765552,0.377117,0.705537,0.507515,0.618408,0.618408,0.507515,0.705537,0.377117,0.765552,0.232228,0.796148,0.078414,0.796148,-0.078414,0.765552,-0.232228,0.705537,-0.377117,0.618408,-0.507515,0.507515,-0.618408,0.377117,-0.705537,0.232228,-0.765552,0.078414,-0.796148,0.000000,-0.796148,0.000000,-0.800000,-2.200000,-0.800000,
-2.203843,-0.796157,-2.239018,-0.796157,-2.311114,-0.766294,-2.366294,-0.711114,-2.396157,-0.639018,-2.396157,-0.603843,-2.400000,-0.600000,-2.400000,0.600000,-2.396157,0.603843,-2.396157,0.639018,-2.366294,0.711114,-2.311114,0.766294,-2.239018,0.796157,-2.203843,0.796157,-2.200000,0.800000,0.000000,0.800000,0.000000,0.796148,0.000000,0.796148,$1*%
%AMFreePoly1*
4,1,37,0.603843,0.796157,0.639018,0.796157,0.711114,0.766294,0.766294,0.711114,0.796157,0.639018,0.796157,0.603843,0.800000,0.600000,0.800000,-0.600000,0.796157,-0.603843,0.796157,-0.639018,0.766294,-0.711114,0.711114,-0.766294,0.639018,-0.796157,0.603843,-0.796157,0.600000,-0.800000,-1.600000,-0.800000,-1.600000,-0.796148,-1.678414,-0.796148,-1.832228,-0.765552,-1.977117,-0.705537,
-2.107515,-0.618408,-2.218408,-0.507515,-2.305537,-0.377117,-2.365552,-0.232228,-2.396148,-0.078414,-2.396148,0.078414,-2.365552,0.232228,-2.305537,0.377117,-2.218408,0.507515,-2.107515,0.618408,-1.977117,0.705537,-1.832228,0.765552,-1.678414,0.796148,-1.600000,0.796148,-1.600000,0.800000,0.600000,0.800000,0.603843,0.796157,0.603843,0.796157,$1*%
%AMFreePoly2*
4,1,37,1.600000,0.796148,1.678414,0.796148,1.832228,0.765552,1.977117,0.705537,2.107515,0.618408,2.218408,0.507515,2.305537,0.377117,2.365552,0.232228,2.396148,0.078414,2.396148,-0.078414,2.365552,-0.232228,2.305537,-0.377117,2.218408,-0.507515,2.107515,-0.618408,1.977117,-0.705537,1.832228,-0.765552,1.678414,-0.796148,1.600000,-0.796148,1.600000,-0.800000,-0.600000,-0.800000,
-0.603843,-0.796157,-0.639018,-0.796157,-0.711114,-0.766294,-0.766294,-0.711114,-0.796157,-0.639018,-0.796157,-0.603843,-0.800000,-0.600000,-0.800000,0.600000,-0.796157,0.603843,-0.796157,0.639018,-0.766294,0.711114,-0.711114,0.766294,-0.639018,0.796157,-0.603843,0.796157,-0.600000,0.800000,1.600000,0.800000,1.600000,0.796148,1.600000,0.796148,$1*%
G04 Aperture macros list end*
G04 #@! TA.AperFunction,SMDPad,CuDef*
%ADD10RoundRect,0.250000X-0.312500X-0.625000X0.312500X-0.625000X0.312500X0.625000X-0.312500X0.625000X0*%
G04 #@! TD*
G04 #@! TA.AperFunction,ComponentPad*
%ADD11R,1.700000X1.700000*%
G04 #@! TD*
G04 #@! TA.AperFunction,ComponentPad*
%ADD12O,1.700000X1.700000*%
G04 #@! TD*
G04 #@! TA.AperFunction,SMDPad,CuDef*
%ADD13RoundRect,0.250000X-0.475000X0.250000X-0.475000X-0.250000X0.475000X-0.250000X0.475000X0.250000X0*%
G04 #@! TD*
G04 #@! TA.AperFunction,SMDPad,CuDef*
%ADD14R,0.650000X1.525000*%
G04 #@! TD*
G04 #@! TA.AperFunction,SMDPad,CuDef*
%ADD15O,1.800000X1.100000*%
G04 #@! TD*
G04 #@! TA.AperFunction,SMDPad,CuDef*
%ADD16O,1.450000X1.050000*%
G04 #@! TD*
G04 #@! TA.AperFunction,SMDPad,CuDef*
%ADD17FreePoly0,90.000000*%
G04 #@! TD*
G04 #@! TA.AperFunction,SMDPad,CuDef*
%ADD18RoundRect,0.800000X0.000010X-0.800000X0.000010X0.800000X-0.000010X0.800000X-0.000010X-0.800000X0*%
G04 #@! TD*
G04 #@! TA.AperFunction,SMDPad,CuDef*
%ADD19FreePoly1,90.000000*%
G04 #@! TD*
G04 #@! TA.AperFunction,SMDPad,CuDef*
%ADD20FreePoly2,90.000000*%
G04 #@! TD*
G04 #@! TA.AperFunction,SMDPad,CuDef*
%ADD21RoundRect,0.200000X0.587400X-0.587400X0.587400X0.587400X-0.587400X0.587400X-0.587400X-0.587400X0*%
G04 #@! TD*
G04 #@! TA.AperFunction,SMDPad,CuDef*
%ADD22C,1.574800*%
G04 #@! TD*
G04 #@! TA.AperFunction,SMDPad,CuDef*
%ADD23RoundRect,0.300000X0.450000X-0.450000X0.450000X0.450000X-0.450000X0.450000X-0.450000X-0.450000X0*%
G04 #@! TD*
G04 #@! TA.AperFunction,Conductor*
%ADD24C,0.400000*%
G04 #@! TD*
G04 APERTURE END LIST*
D10*
X123937500Y-88900000D03*
X126862500Y-88900000D03*
D11*
X131775000Y-79100000D03*
D12*
X129235000Y-79100000D03*
D10*
X121087500Y-84540000D03*
X124012500Y-84540000D03*
D13*
X135890000Y-87020000D03*
X135890000Y-88920000D03*
D14*
X132440000Y-82120000D03*
X131170000Y-82120000D03*
X129900000Y-82120000D03*
X128630000Y-82120000D03*
X128630000Y-87544000D03*
X129900000Y-87544000D03*
X131170000Y-87544000D03*
X132440000Y-87544000D03*
D15*
X97370000Y-105515000D03*
D16*
X100400000Y-105215000D03*
X100400000Y-100365000D03*
D15*
X97370000Y-100065000D03*
D17*
X97240000Y-111680000D03*
D18*
X99780000Y-112480000D03*
D19*
X102320000Y-111680000D03*
D18*
X104860000Y-112480000D03*
X107400000Y-112480000D03*
X109940000Y-112480000D03*
X112480000Y-112480000D03*
D19*
X115020000Y-111680000D03*
D18*
X117560000Y-112480000D03*
X120100000Y-112480000D03*
X122640000Y-112480000D03*
X125180000Y-112480000D03*
D19*
X127720000Y-111680000D03*
D18*
X130260000Y-112480000D03*
X132800000Y-112480000D03*
X135340000Y-112480000D03*
X137880000Y-112480000D03*
D19*
X140420000Y-111680000D03*
D18*
X142960000Y-112480000D03*
X145500000Y-112480000D03*
X145500000Y-93100000D03*
X142960000Y-93100000D03*
D20*
X140420000Y-93900000D03*
D18*
X137880000Y-93100000D03*
X135340000Y-93100000D03*
X132800000Y-93100000D03*
X130260000Y-93100000D03*
D20*
X127720000Y-93900000D03*
D18*
X125180000Y-93100000D03*
X122640000Y-93100000D03*
X120100000Y-93100000D03*
X117560000Y-93100000D03*
D20*
X115020000Y-93900000D03*
D18*
X112480000Y-93100000D03*
X109940000Y-93100000D03*
X107400000Y-93100000D03*
X104860000Y-93100000D03*
D20*
X102320000Y-93900000D03*
D18*
X99780000Y-93100000D03*
X97240000Y-93100000D03*
D21*
X127070000Y-102205900D03*
D22*
X127070000Y-99665900D03*
X127070000Y-97125900D03*
D23*
X100370000Y-102790000D03*
X97070000Y-101790000D03*
X97070000Y-103790000D03*
X105370000Y-105290000D03*
X107870000Y-105290000D03*
X110370000Y-105290000D03*
D24*
X134280000Y-87020000D02*
X135890000Y-87020000D01*
X137860000Y-88990000D02*
X137860000Y-93870000D01*
X132440000Y-87544000D02*
X133756000Y-87544000D01*
X135890000Y-87020000D02*
X137860000Y-88990000D01*
X133756000Y-87544000D02*
X134280000Y-87020000D01*
X128630000Y-88430000D02*
X128630000Y-87544000D01*
X129400000Y-89200000D02*
X128630000Y-88430000D01*
X128160000Y-88900000D02*
X126862500Y-88900000D01*
X132780000Y-93870000D02*
X132780000Y-91780000D01*
X128630000Y-88430000D02*
X128160000Y-88900000D01*
X132780000Y-91780000D02*
X130200000Y-89200000D01*
X130200000Y-89200000D02*
X129400000Y-89200000D01*
X129900000Y-86300000D02*
X129900000Y-87544000D01*
X125400000Y-87300000D02*
X126450000Y-86250000D01*
X130240000Y-93870000D02*
X130240000Y-92340000D01*
X125722500Y-86250000D02*
X126450000Y-86250000D01*
X124012500Y-84540000D02*
X125722500Y-86250000D01*
X126800000Y-85900000D02*
X129500000Y-85900000D01*
X125400000Y-90400000D02*
X125400000Y-87300000D01*
X125500000Y-90500000D02*
X125400000Y-90400000D01*
X130240000Y-92340000D02*
X128400000Y-90500000D01*
X129500000Y-85900000D02*
X129900000Y-86300000D01*
X130240000Y-92140000D02*
X130240000Y-93870000D01*
X128400000Y-90500000D02*
X125500000Y-90500000D01*
X126450000Y-86250000D02*
X126800000Y-85900000D01*
X131170000Y-87544000D02*
X131170000Y-88570000D01*
X131170000Y-88570000D02*
X132900000Y-90300000D01*
X134200000Y-90300000D02*
X135320000Y-91420000D01*
X135320000Y-91420000D02*
X135320000Y-93870000D01*
X132900000Y-90300000D02*
X134200000Y-90300000D01*
X122457500Y-87420000D02*
X121087500Y-87420000D01*
X123937500Y-88900000D02*
X122457500Y-87420000D01*
X107700000Y-93550000D02*
X107380000Y-93870000D01*
X121087500Y-87420000D02*
X121087500Y-84540000D01*
X121087500Y-87420000D02*
X118507500Y-90000000D01*
X118507500Y-90000000D02*
X107700000Y-90000000D01*
X107700000Y-90000000D02*
X107700000Y-93550000D01*
X131170000Y-79705000D02*
X131775000Y-79100000D01*
X131170000Y-82120000D02*
X131170000Y-79705000D01*
X129900000Y-79765000D02*
X129235000Y-79100000D01*
X129900000Y-82120000D02*
X129900000Y-79765000D01*
G04 #@! TA.AperFunction,Conductor*
G36*
X145943039Y-76920185D02*
G01*
X145988794Y-76972989D01*
X146000000Y-77024500D01*
X146000000Y-91027793D01*
X145980315Y-91094832D01*
X145927511Y-91140587D01*
X145858353Y-91150531D01*
X145847610Y-91148499D01*
X145666577Y-91105920D01*
X145666561Y-91105918D01*
X145574096Y-91099500D01*
X145574092Y-91099500D01*
X145425908Y-91099500D01*
X145425904Y-91099500D01*
X145333438Y-91105918D01*
X145333422Y-91105920D01*
X145116864Y-91156854D01*
X145116848Y-91156860D01*
X144913331Y-91246721D01*
X144729779Y-91372457D01*
X144729773Y-91372462D01*
X144572462Y-91529773D01*
X144572457Y-91529779D01*
X144446721Y-91713331D01*
X144356860Y-91916848D01*
X144356854Y-91916864D01*
X144350706Y-91943007D01*
X144316195Y-92003759D01*
X144254318Y-92036209D01*
X144184720Y-92030054D01*
X144129498Y-91987249D01*
X144109294Y-91943007D01*
X144103145Y-91916864D01*
X144103144Y-91916861D01*
X144103143Y-91916857D01*
X144013277Y-91713329D01*
X143887542Y-91529779D01*
X143887537Y-91529773D01*
X143730226Y-91372462D01*
X143730220Y-91372457D01*
X143546668Y-91246721D01*
X143343151Y-91156860D01*
X143343135Y-91156854D01*
X143126577Y-91105920D01*
X143126561Y-91105918D01*
X143034096Y-91099500D01*
X143034092Y-91099500D01*
X142885908Y-91099500D01*
X142885904Y-91099500D01*
X142793438Y-91105918D01*
X142793422Y-91105920D01*
X142576864Y-91156854D01*
X142576848Y-91156860D01*
X142373331Y-91246721D01*
X142189779Y-91372457D01*
X142189773Y-91372462D01*
X142032462Y-91529773D01*
X142032457Y-91529779D01*
X141906721Y-91713331D01*
X141816860Y-91916848D01*
X141816854Y-91916864D01*
X141781930Y-92065354D01*
X141748905Y-92124645D01*
X140773552Y-93099999D01*
X140773552Y-93100001D01*
X141748905Y-94075354D01*
X141781930Y-94134645D01*
X141816854Y-94283135D01*
X141816860Y-94283151D01*
X141906722Y-94486671D01*
X141906723Y-94486672D01*
X141936294Y-94529840D01*
X141942596Y-94539039D01*
X141942599Y-94539043D01*
X142032457Y-94670220D01*
X142032462Y-94670226D01*
X142150555Y-94788319D01*
X142184040Y-94849642D01*
X142179056Y-94919334D01*
X142137184Y-94975267D01*
X142071720Y-94999684D01*
X142062874Y-95000000D01*
X141759086Y-95000000D01*
X141692047Y-94980315D01*
X141646292Y-94927511D01*
X141636348Y-94858353D01*
X141652442Y-94812731D01*
X141656111Y-94806545D01*
X141656115Y-94806538D01*
X141686547Y-94733067D01*
X141686556Y-94733043D01*
X141704543Y-94682057D01*
X141705651Y-94674347D01*
X141655918Y-94649454D01*
X141629881Y-94647591D01*
X141585541Y-94619093D01*
X140420000Y-93453552D01*
X139254457Y-94619095D01*
X139193134Y-94652580D01*
X139188389Y-94652240D01*
X139139869Y-94679869D01*
X139153437Y-94733027D01*
X139153443Y-94733044D01*
X139183881Y-94806528D01*
X139183887Y-94806541D01*
X139191514Y-94822483D01*
X139202690Y-94891453D01*
X139174804Y-94955517D01*
X139116710Y-94994335D01*
X139079657Y-95000000D01*
X138777126Y-95000000D01*
X138710087Y-94980315D01*
X138664332Y-94927511D01*
X138654388Y-94858353D01*
X138683413Y-94794797D01*
X138689445Y-94788319D01*
X138807537Y-94670226D01*
X138807542Y-94670221D01*
X138933277Y-94486671D01*
X139023143Y-94283143D01*
X139058069Y-94134645D01*
X139091094Y-94075354D01*
X140066448Y-93100000D01*
X140066448Y-93099999D01*
X139091094Y-92124645D01*
X139058069Y-92065353D01*
X139023145Y-91916866D01*
X139023143Y-91916857D01*
X138933277Y-91713329D01*
X138933277Y-91713328D01*
X138933275Y-91713325D01*
X138900069Y-91664851D01*
X138900067Y-91664849D01*
X138873984Y-91626773D01*
X138873983Y-91626772D01*
X139300325Y-91626772D01*
X139300325Y-91626773D01*
X140420000Y-92746448D01*
X140420001Y-92746448D01*
X141539673Y-91626773D01*
X141539673Y-91626772D01*
X141461295Y-91509470D01*
X141461290Y-91509463D01*
X141398485Y-91432935D01*
X141287064Y-91321514D01*
X141210536Y-91258708D01*
X141210530Y-91258704D01*
X141079521Y-91171167D01*
X141079501Y-91171155D01*
X140992198Y-91124490D01*
X140846612Y-91064185D01*
X140751864Y-91035444D01*
X140597300Y-91004701D01*
X140498790Y-90995000D01*
X140341210Y-90995000D01*
X140242700Y-91004701D01*
X140242697Y-91004701D01*
X140088135Y-91035444D01*
X139993387Y-91064185D01*
X139847801Y-91124490D01*
X139760498Y-91171155D01*
X139760478Y-91171167D01*
X139629469Y-91258704D01*
X139629463Y-91258708D01*
X139552935Y-91321514D01*
X139441515Y-91432934D01*
X139378709Y-91509463D01*
X139378700Y-91509475D01*
X139300325Y-91626772D01*
X138873983Y-91626772D01*
X138807542Y-91529779D01*
X138807537Y-91529773D01*
X138650226Y-91372462D01*
X138650220Y-91372457D01*
X138514423Y-91279434D01*
X138470240Y-91225307D01*
X138460500Y-91177134D01*
X138460500Y-89079060D01*
X138460501Y-89079047D01*
X138460501Y-88910944D01*
X138446142Y-88857357D01*
X138419577Y-88758216D01*
X138381432Y-88692146D01*
X138340524Y-88621290D01*
X138340518Y-88621282D01*
X137051819Y-87332583D01*
X137018334Y-87271260D01*
X137015500Y-87244902D01*
X137015500Y-86704313D01*
X137015499Y-86704298D01*
X137015273Y-86701430D01*
X137012598Y-86667431D01*
X137012222Y-86666137D01*
X136966745Y-86509606D01*
X136966744Y-86509603D01*
X136966744Y-86509602D01*
X136883081Y-86368135D01*
X136883079Y-86368133D01*
X136883076Y-86368129D01*
X136766870Y-86251923D01*
X136766862Y-86251917D01*
X136625396Y-86168255D01*
X136625393Y-86168254D01*
X136467573Y-86122402D01*
X136467567Y-86122401D01*
X136430701Y-86119500D01*
X136430694Y-86119500D01*
X135349306Y-86119500D01*
X135349298Y-86119500D01*
X135312432Y-86122401D01*
X135312426Y-86122402D01*
X135154606Y-86168254D01*
X135154603Y-86168255D01*
X135013137Y-86251917D01*
X135013129Y-86251923D01*
X134896919Y-86368133D01*
X134894309Y-86371499D01*
X134891591Y-86373461D01*
X134891402Y-86373651D01*
X134891371Y-86373620D01*
X134837667Y-86412407D01*
X134796329Y-86419500D01*
X134366669Y-86419500D01*
X134366653Y-86419499D01*
X134359057Y-86419499D01*
X134200943Y-86419499D01*
X134093587Y-86448265D01*
X134048210Y-86460424D01*
X134048209Y-86460425D01*
X133998096Y-86489359D01*
X133998095Y-86489360D01*
X133978800Y-86500500D01*
X133911285Y-86539479D01*
X133911282Y-86539481D01*
X133799478Y-86651286D01*
X133543584Y-86907181D01*
X133516656Y-86921884D01*
X133490838Y-86938477D01*
X133484637Y-86939368D01*
X133482261Y-86940666D01*
X133455903Y-86943500D01*
X133289499Y-86943500D01*
X133222460Y-86923815D01*
X133176705Y-86871011D01*
X133165499Y-86819500D01*
X133165499Y-86749982D01*
X133162417Y-86730520D01*
X133150646Y-86656196D01*
X133093050Y-86543158D01*
X133093046Y-86543154D01*
X133093045Y-86543152D01*
X133003347Y-86453454D01*
X133003344Y-86453452D01*
X133003342Y-86453450D01*
X132922791Y-86412407D01*
X132890301Y-86395852D01*
X132796524Y-86381000D01*
X132083482Y-86381000D01*
X132002519Y-86393823D01*
X131989696Y-86395854D01*
X131876658Y-86453450D01*
X131876656Y-86453451D01*
X131867963Y-86457881D01*
X131867194Y-86456373D01*
X131812072Y-86476038D01*
X131744019Y-86460209D01*
X131734117Y-86453846D01*
X131733344Y-86453452D01*
X131733342Y-86453450D01*
X131652791Y-86412407D01*
X131620301Y-86395852D01*
X131526524Y-86381000D01*
X130813482Y-86381000D01*
X130719696Y-86395854D01*
X130680793Y-86415676D01*
X130612124Y-86428571D01*
X130547384Y-86402293D01*
X130507128Y-86345186D01*
X130500500Y-86305190D01*
X130500500Y-86220945D01*
X130500500Y-86220943D01*
X130459577Y-86068216D01*
X130459573Y-86068209D01*
X130380524Y-85931290D01*
X130380521Y-85931286D01*
X130380520Y-85931284D01*
X130268716Y-85819480D01*
X130268715Y-85819479D01*
X130264385Y-85815149D01*
X130264374Y-85815139D01*
X129987590Y-85538355D01*
X129987588Y-85538352D01*
X129868717Y-85419481D01*
X129868716Y-85419480D01*
X129781904Y-85369360D01*
X129781904Y-85369359D01*
X129781900Y-85369358D01*
X129731785Y-85340423D01*
X129579057Y-85299499D01*
X129420943Y-85299499D01*
X129413347Y-85299499D01*
X129413331Y-85299500D01*
X126886670Y-85299500D01*
X126886654Y-85299499D01*
X126879058Y-85299499D01*
X126720943Y-85299499D01*
X126644579Y-85319961D01*
X126568214Y-85340423D01*
X126568209Y-85340426D01*
X126431290Y-85419475D01*
X126431282Y-85419481D01*
X126237583Y-85613181D01*
X126210655Y-85627884D01*
X126184837Y-85644477D01*
X126178636Y-85645368D01*
X126176260Y-85646666D01*
X126149902Y-85649500D01*
X126022597Y-85649500D01*
X125955558Y-85629815D01*
X125934916Y-85613181D01*
X125011819Y-84690084D01*
X124978334Y-84628761D01*
X124975500Y-84602403D01*
X124975500Y-83849313D01*
X124975499Y-83849298D01*
X124972598Y-83812432D01*
X124972597Y-83812426D01*
X124926745Y-83654606D01*
X124926744Y-83654603D01*
X124926744Y-83654602D01*
X124843081Y-83513135D01*
X124843079Y-83513133D01*
X124843076Y-83513129D01*
X124726870Y-83396923D01*
X124726862Y-83396917D01*
X124585396Y-83313255D01*
X124585393Y-83313254D01*
X124427573Y-83267402D01*
X124427567Y-83267401D01*
X124390701Y-83264500D01*
X124390694Y-83264500D01*
X123634306Y-83264500D01*
X123634298Y-83264500D01*
X123597432Y-83267401D01*
X123597426Y-83267402D01*
X123439606Y-83313254D01*
X123439603Y-83313255D01*
X123298137Y-83396917D01*
X123298129Y-83396923D01*
X123181923Y-83513129D01*
X123181917Y-83513137D01*
X123098255Y-83654603D01*
X123098254Y-83654606D01*
X123052402Y-83812426D01*
X123052401Y-83812432D01*
X123049500Y-83849298D01*
X123049500Y-85230701D01*
X123052401Y-85267567D01*
X123052402Y-85267573D01*
X123098254Y-85425393D01*
X123098255Y-85425396D01*
X123181917Y-85566862D01*
X123181923Y-85566870D01*
X123298129Y-85683076D01*
X123298133Y-85683079D01*
X123298135Y-85683081D01*
X123439602Y-85766744D01*
X123481224Y-85778836D01*
X123597426Y-85812597D01*
X123597429Y-85812597D01*
X123597431Y-85812598D01*
X123634306Y-85815500D01*
X123634314Y-85815500D01*
X124387403Y-85815500D01*
X124454442Y-85835185D01*
X124475084Y-85851819D01*
X125149333Y-86526068D01*
X125153670Y-86534012D01*
X125160919Y-86539438D01*
X125170155Y-86564200D01*
X125182818Y-86587391D01*
X125182172Y-86596419D01*
X125185336Y-86604902D01*
X125179719Y-86630721D01*
X125177834Y-86657083D01*
X125172014Y-86666137D01*
X125170484Y-86673175D01*
X125149334Y-86701430D01*
X125134141Y-86716623D01*
X125031286Y-86819478D01*
X125031285Y-86819478D01*
X125031284Y-86819479D01*
X124919481Y-86931282D01*
X124919475Y-86931290D01*
X124876366Y-87005959D01*
X124876366Y-87005960D01*
X124840423Y-87068215D01*
X124799499Y-87220943D01*
X124799499Y-87220945D01*
X124799499Y-87389046D01*
X124799500Y-87389059D01*
X124799500Y-87626835D01*
X124779815Y-87693874D01*
X124727011Y-87739629D01*
X124657853Y-87749573D01*
X124612379Y-87733567D01*
X124545261Y-87693874D01*
X124510398Y-87673256D01*
X124510397Y-87673255D01*
X124510396Y-87673255D01*
X124510393Y-87673254D01*
X124352573Y-87627402D01*
X124352567Y-87627401D01*
X124315701Y-87624500D01*
X124315694Y-87624500D01*
X123562597Y-87624500D01*
X123495558Y-87604815D01*
X123474916Y-87588181D01*
X122945090Y-87058355D01*
X122945088Y-87058352D01*
X122826217Y-86939481D01*
X122826216Y-86939480D01*
X122739404Y-86889360D01*
X122739404Y-86889359D01*
X122739400Y-86889358D01*
X122689285Y-86860423D01*
X122536557Y-86819499D01*
X122378443Y-86819499D01*
X122370847Y-86819499D01*
X122370831Y-86819500D01*
X121812000Y-86819500D01*
X121744961Y-86799815D01*
X121699206Y-86747011D01*
X121688000Y-86695500D01*
X121688000Y-85821148D01*
X121707685Y-85754109D01*
X121748877Y-85714417D01*
X121801865Y-85683081D01*
X121918081Y-85566865D01*
X122001744Y-85425398D01*
X122047598Y-85267569D01*
X122050500Y-85230694D01*
X122050500Y-83849306D01*
X122047598Y-83812431D01*
X122001744Y-83654602D01*
X121918081Y-83513135D01*
X121918079Y-83513133D01*
X121918076Y-83513129D01*
X121801870Y-83396923D01*
X121801862Y-83396917D01*
X121660396Y-83313255D01*
X121660393Y-83313254D01*
X121502573Y-83267402D01*
X121502567Y-83267401D01*
X121465701Y-83264500D01*
X121465694Y-83264500D01*
X120709306Y-83264500D01*
X120709298Y-83264500D01*
X120672432Y-83267401D01*
X120672426Y-83267402D01*
X120514606Y-83313254D01*
X120514603Y-83313255D01*
X120373137Y-83396917D01*
X120373129Y-83396923D01*
X120256923Y-83513129D01*
X120256917Y-83513137D01*
X120173255Y-83654603D01*
X120173254Y-83654606D01*
X120127402Y-83812426D01*
X120127401Y-83812432D01*
X120124500Y-83849298D01*
X120124500Y-85230701D01*
X120127401Y-85267567D01*
X120127402Y-85267573D01*
X120173254Y-85425393D01*
X120173255Y-85425396D01*
X120256917Y-85566862D01*
X120256923Y-85566870D01*
X120373129Y-85683076D01*
X120373132Y-85683078D01*
X120373135Y-85683081D01*
X120426122Y-85714417D01*
X120473804Y-85765484D01*
X120487000Y-85821148D01*
X120487000Y-87119903D01*
X120467315Y-87186942D01*
X120450681Y-87207584D01*
X118295084Y-89363181D01*
X118233761Y-89396666D01*
X118207403Y-89399500D01*
X107620943Y-89399500D01*
X107468216Y-89440423D01*
X107468209Y-89440426D01*
X107331290Y-89519475D01*
X107331282Y-89519481D01*
X107219481Y-89631282D01*
X107219475Y-89631290D01*
X107140426Y-89768209D01*
X107140423Y-89768216D01*
X107099500Y-89920943D01*
X107099500Y-91039938D01*
X107079815Y-91106977D01*
X107027011Y-91152732D01*
X107019325Y-91155766D01*
X106813331Y-91246721D01*
X106629779Y-91372457D01*
X106629773Y-91372462D01*
X106472462Y-91529773D01*
X106472457Y-91529779D01*
X106346721Y-91713331D01*
X106256860Y-91916848D01*
X106256854Y-91916864D01*
X106250706Y-91943007D01*
X106216195Y-92003759D01*
X106154318Y-92036209D01*
X106084720Y-92030054D01*
X106029498Y-91987249D01*
X106009294Y-91943007D01*
X106003145Y-91916864D01*
X106003144Y-91916861D01*
X106003143Y-91916857D01*
X105913277Y-91713329D01*
X105787542Y-91529779D01*
X105787537Y-91529773D01*
X105630226Y-91372462D01*
X105630220Y-91372457D01*
X105446668Y-91246721D01*
X105243151Y-91156860D01*
X105243135Y-91156854D01*
X105026577Y-91105920D01*
X105026561Y-91105918D01*
X104934096Y-91099500D01*
X104934092Y-91099500D01*
X104785908Y-91099500D01*
X104785904Y-91099500D01*
X104693438Y-91105918D01*
X104693422Y-91105920D01*
X104476864Y-91156854D01*
X104476848Y-91156860D01*
X104273331Y-91246721D01*
X104089779Y-91372457D01*
X104089773Y-91372462D01*
X103932462Y-91529773D01*
X103932457Y-91529779D01*
X103806721Y-91713331D01*
X103716860Y-91916848D01*
X103716854Y-91916864D01*
X103681930Y-92065354D01*
X103648905Y-92124645D01*
X102673552Y-93099999D01*
X102673552Y-93100001D01*
X103648905Y-94075354D01*
X103681930Y-94134645D01*
X103716854Y-94283135D01*
X103716860Y-94283151D01*
X103806722Y-94486671D01*
X103806723Y-94486672D01*
X103836294Y-94529840D01*
X103842596Y-94539039D01*
X103842599Y-94539043D01*
X103932457Y-94670220D01*
X103932462Y-94670226D01*
X104089773Y-94827537D01*
X104089779Y-94827542D01*
X104273329Y-94953277D01*
X104273330Y-94953277D01*
X104273331Y-94953278D01*
X104366317Y-94994335D01*
X104476857Y-95043143D01*
X104476861Y-95043144D01*
X104476864Y-95043145D01*
X104693422Y-95094079D01*
X104693427Y-95094079D01*
X104693433Y-95094081D01*
X104744808Y-95097647D01*
X104785904Y-95100500D01*
X104785908Y-95100500D01*
X104934096Y-95100500D01*
X104971082Y-95097932D01*
X105026567Y-95094081D01*
X105026573Y-95094079D01*
X105026577Y-95094079D01*
X105243135Y-95043145D01*
X105243135Y-95043144D01*
X105243143Y-95043143D01*
X105446671Y-94953277D01*
X105630221Y-94827542D01*
X105787542Y-94670221D01*
X105913277Y-94486671D01*
X106003143Y-94283143D01*
X106009294Y-94256992D01*
X106043804Y-94196240D01*
X106105681Y-94163790D01*
X106175279Y-94169945D01*
X106230501Y-94212749D01*
X106250706Y-94256992D01*
X106256854Y-94283135D01*
X106256860Y-94283151D01*
X106346721Y-94486668D01*
X106472457Y-94670220D01*
X106472462Y-94670226D01*
X106629773Y-94827537D01*
X106629779Y-94827542D01*
X106813329Y-94953277D01*
X106813330Y-94953277D01*
X106813331Y-94953278D01*
X106906317Y-94994335D01*
X107016857Y-95043143D01*
X107016861Y-95043144D01*
X107016864Y-95043145D01*
X107233422Y-95094079D01*
X107233427Y-95094079D01*
X107233433Y-95094081D01*
X107284808Y-95097647D01*
X107325904Y-95100500D01*
X107325908Y-95100500D01*
X107474096Y-95100500D01*
X107511082Y-95097932D01*
X107566567Y-95094081D01*
X107566573Y-95094079D01*
X107566577Y-95094079D01*
X107783135Y-95043145D01*
X107783135Y-95043144D01*
X107783143Y-95043143D01*
X107986671Y-94953277D01*
X108170221Y-94827542D01*
X108327542Y-94670221D01*
X108453277Y-94486671D01*
X108543143Y-94283143D01*
X108549294Y-94256992D01*
X108583804Y-94196240D01*
X108645681Y-94163790D01*
X108715279Y-94169945D01*
X108770501Y-94212749D01*
X108790706Y-94256992D01*
X108796854Y-94283135D01*
X108796860Y-94283151D01*
X108886721Y-94486668D01*
X109012457Y-94670220D01*
X109012462Y-94670226D01*
X109169773Y-94827537D01*
X109169779Y-94827542D01*
X109353329Y-94953277D01*
X109353330Y-94953277D01*
X109353331Y-94953278D01*
X109446317Y-94994335D01*
X109556857Y-95043143D01*
X109556861Y-95043144D01*
X109556864Y-95043145D01*
X109773422Y-95094079D01*
X109773427Y-95094079D01*
X109773433Y-95094081D01*
X109824808Y-95097647D01*
X109865904Y-95100500D01*
X109865908Y-95100500D01*
X110014096Y-95100500D01*
X110051082Y-95097932D01*
X110106567Y-95094081D01*
X110106573Y-95094079D01*
X110106577Y-95094079D01*
X110323135Y-95043145D01*
X110323135Y-95043144D01*
X110323143Y-95043143D01*
X110526671Y-94953277D01*
X110710221Y-94827542D01*
X110867542Y-94670221D01*
X110993277Y-94486671D01*
X111083143Y-94283143D01*
X111089294Y-94256992D01*
X111123804Y-94196240D01*
X111185681Y-94163790D01*
X111255279Y-94169945D01*
X111310501Y-94212749D01*
X111330706Y-94256992D01*
X111336854Y-94283135D01*
X111336860Y-94283151D01*
X111426721Y-94486668D01*
X111552457Y-94670220D01*
X111552462Y-94670226D01*
X111709773Y-94827537D01*
X111709779Y-94827542D01*
X111893329Y-94953277D01*
X111893330Y-94953277D01*
X111893331Y-94953278D01*
X111986317Y-94994335D01*
X112096857Y-95043143D01*
X112096861Y-95043144D01*
X112096864Y-95043145D01*
X112313422Y-95094079D01*
X112313427Y-95094079D01*
X112313433Y-95094081D01*
X112364808Y-95097647D01*
X112405904Y-95100500D01*
X112405908Y-95100500D01*
X112554096Y-95100500D01*
X112591082Y-95097932D01*
X112646567Y-95094081D01*
X112646573Y-95094079D01*
X112646577Y-95094079D01*
X112863135Y-95043145D01*
X112863135Y-95043144D01*
X112863143Y-95043143D01*
X113066671Y-94953277D01*
X113250221Y-94827542D01*
X113397894Y-94679869D01*
X113739869Y-94679869D01*
X113753437Y-94733027D01*
X113753443Y-94733044D01*
X113783881Y-94806528D01*
X113783893Y-94806556D01*
X113807218Y-94855309D01*
X113807221Y-94855314D01*
X113893358Y-94970378D01*
X113893361Y-94970382D01*
X113949623Y-95026643D01*
X113949640Y-95026659D01*
X113989842Y-95062770D01*
X114113454Y-95136111D01*
X114113461Y-95136115D01*
X114186932Y-95166547D01*
X114186935Y-95166548D01*
X114237946Y-95184544D01*
X114380219Y-95204999D01*
X114380221Y-95205000D01*
X115659786Y-95205000D01*
X115713762Y-95202106D01*
X115713764Y-95202106D01*
X115853030Y-95166561D01*
X115853042Y-95166557D01*
X115926528Y-95136118D01*
X115926556Y-95136106D01*
X115975309Y-95112781D01*
X115975314Y-95112778D01*
X116090378Y-95026641D01*
X116090382Y-95026638D01*
X116146643Y-94970376D01*
X116146659Y-94970359D01*
X116182770Y-94930157D01*
X116256111Y-94806545D01*
X116256115Y-94806538D01*
X116286547Y-94733067D01*
X116286556Y-94733043D01*
X116304543Y-94682057D01*
X116305651Y-94674347D01*
X116255918Y-94649454D01*
X116229881Y-94647591D01*
X116185541Y-94619093D01*
X115020000Y-93453552D01*
X113854457Y-94619095D01*
X113793134Y-94652580D01*
X113788389Y-94652240D01*
X113739869Y-94679869D01*
X113397894Y-94679869D01*
X113407542Y-94670221D01*
X113533277Y-94486671D01*
X113623143Y-94283143D01*
X113658069Y-94134645D01*
X113691094Y-94075354D01*
X114666448Y-93100000D01*
X114666448Y-93099999D01*
X113691094Y-92124645D01*
X113658069Y-92065353D01*
X113623145Y-91916866D01*
X113623143Y-91916857D01*
X113533277Y-91713329D01*
X113533277Y-91713328D01*
X113533275Y-91713325D01*
X113500069Y-91664851D01*
X113500067Y-91664849D01*
X113473984Y-91626773D01*
X113473983Y-91626772D01*
X113900325Y-91626772D01*
X113900325Y-91626773D01*
X115020000Y-92746448D01*
X115020001Y-92746448D01*
X116139673Y-91626773D01*
X116139673Y-91626772D01*
X116061295Y-91509470D01*
X116061290Y-91509463D01*
X115998485Y-91432935D01*
X115887064Y-91321514D01*
X115810536Y-91258708D01*
X115810530Y-91258704D01*
X115679521Y-91171167D01*
X115679501Y-91171155D01*
X115592198Y-91124490D01*
X115446612Y-91064185D01*
X115351864Y-91035444D01*
X115197300Y-91004701D01*
X115098790Y-90995000D01*
X114941210Y-90995000D01*
X114842700Y-91004701D01*
X114842697Y-91004701D01*
X114688135Y-91035444D01*
X114593387Y-91064185D01*
X114447801Y-91124490D01*
X114360498Y-91171155D01*
X114360478Y-91171167D01*
X114229469Y-91258704D01*
X114229463Y-91258708D01*
X114152935Y-91321514D01*
X114041515Y-91432934D01*
X113978709Y-91509463D01*
X113978700Y-91509475D01*
X113900325Y-91626772D01*
X113473983Y-91626772D01*
X113407542Y-91529779D01*
X113407537Y-91529773D01*
X113250226Y-91372462D01*
X113250220Y-91372457D01*
X113066668Y-91246721D01*
X112863151Y-91156860D01*
X112863135Y-91156854D01*
X112646577Y-91105920D01*
X112646561Y-91105918D01*
X112554096Y-91099500D01*
X112554092Y-91099500D01*
X112405908Y-91099500D01*
X112405904Y-91099500D01*
X112313438Y-91105918D01*
X112313422Y-91105920D01*
X112096864Y-91156854D01*
X112096848Y-91156860D01*
X111893331Y-91246721D01*
X111709779Y-91372457D01*
X111709773Y-91372462D01*
X111552462Y-91529773D01*
X111552457Y-91529779D01*
X111426721Y-91713331D01*
X111336860Y-91916848D01*
X111336854Y-91916864D01*
X111330706Y-91943007D01*
X111296195Y-92003759D01*
X111234318Y-92036209D01*
X111164720Y-92030054D01*
X111109498Y-91987249D01*
X111089294Y-91943007D01*
X111083145Y-91916864D01*
X111083144Y-91916861D01*
X111083143Y-91916857D01*
X110993277Y-91713329D01*
X110867542Y-91529779D01*
X110867537Y-91529773D01*
X110710226Y-91372462D01*
X110710220Y-91372457D01*
X110526668Y-91246721D01*
X110323151Y-91156860D01*
X110323135Y-91156854D01*
X110106577Y-91105920D01*
X110106561Y-91105918D01*
X110014096Y-91099500D01*
X110014092Y-91099500D01*
X109865908Y-91099500D01*
X109865904Y-91099500D01*
X109773438Y-91105918D01*
X109773422Y-91105920D01*
X109556864Y-91156854D01*
X109556848Y-91156860D01*
X109353331Y-91246721D01*
X109169779Y-91372457D01*
X109169773Y-91372462D01*
X109012462Y-91529773D01*
X109012457Y-91529779D01*
X108886721Y-91713331D01*
X108796860Y-91916848D01*
X108796854Y-91916864D01*
X108790706Y-91943007D01*
X108756195Y-92003759D01*
X108694318Y-92036209D01*
X108624720Y-92030054D01*
X108569498Y-91987249D01*
X108549294Y-91943007D01*
X108543145Y-91916864D01*
X108543144Y-91916861D01*
X108543143Y-91916857D01*
X108453277Y-91713329D01*
X108327542Y-91529779D01*
X108324302Y-91525049D01*
X108325803Y-91524020D01*
X108301417Y-91467490D01*
X108300500Y-91452440D01*
X108300500Y-90724500D01*
X108320185Y-90657461D01*
X108372989Y-90611706D01*
X108424500Y-90600500D01*
X118420831Y-90600500D01*
X118420847Y-90600501D01*
X118428443Y-90600501D01*
X118586554Y-90600501D01*
X118586557Y-90600501D01*
X118739285Y-90559577D01*
X118789404Y-90530639D01*
X118876216Y-90480520D01*
X118988020Y-90368716D01*
X118988020Y-90368714D01*
X118998228Y-90358507D01*
X118998229Y-90358504D01*
X121299916Y-88056819D01*
X121361239Y-88023334D01*
X121387597Y-88020500D01*
X122157403Y-88020500D01*
X122224442Y-88040185D01*
X122245084Y-88056819D01*
X122938181Y-88749916D01*
X122971666Y-88811239D01*
X122974500Y-88837597D01*
X122974500Y-89590701D01*
X122977401Y-89627567D01*
X122977402Y-89627573D01*
X123023254Y-89785393D01*
X123023255Y-89785396D01*
X123023256Y-89785398D01*
X123043411Y-89819479D01*
X123106917Y-89926862D01*
X123106923Y-89926870D01*
X123223129Y-90043076D01*
X123223133Y-90043079D01*
X123223135Y-90043081D01*
X123364602Y-90126744D01*
X123380229Y-90131284D01*
X123522426Y-90172597D01*
X123522429Y-90172597D01*
X123522431Y-90172598D01*
X123559306Y-90175500D01*
X123559314Y-90175500D01*
X124315686Y-90175500D01*
X124315694Y-90175500D01*
X124352569Y-90172598D01*
X124352571Y-90172597D01*
X124352573Y-90172597D01*
X124394191Y-90160505D01*
X124510398Y-90126744D01*
X124612381Y-90066431D01*
X124618903Y-90064776D01*
X124623989Y-90060370D01*
X124652334Y-90056294D01*
X124680102Y-90049249D01*
X124686485Y-90051383D01*
X124693147Y-90050426D01*
X124719202Y-90062325D01*
X124746365Y-90071409D01*
X124750579Y-90076654D01*
X124756703Y-90079451D01*
X124772189Y-90103548D01*
X124790129Y-90125875D01*
X124791730Y-90133954D01*
X124794477Y-90138229D01*
X124799500Y-90173164D01*
X124799500Y-90313330D01*
X124799499Y-90313348D01*
X124799499Y-90479054D01*
X124799498Y-90479054D01*
X124813321Y-90530642D01*
X124840423Y-90631785D01*
X124855247Y-90657461D01*
X124869358Y-90681900D01*
X124869359Y-90681904D01*
X124869360Y-90681904D01*
X124919479Y-90768714D01*
X124919481Y-90768717D01*
X125052946Y-90902182D01*
X125086431Y-90963505D01*
X125081447Y-91033197D01*
X125039575Y-91089130D01*
X124993656Y-91110569D01*
X124796862Y-91156855D01*
X124796848Y-91156860D01*
X124593331Y-91246721D01*
X124409779Y-91372457D01*
X124409773Y-91372462D01*
X124252462Y-91529773D01*
X124252457Y-91529779D01*
X124126721Y-91713331D01*
X124036860Y-91916848D01*
X124036854Y-91916864D01*
X124030706Y-91943007D01*
X123996195Y-92003759D01*
X123934318Y-92036209D01*
X123864720Y-92030054D01*
X123809498Y-91987249D01*
X123789294Y-91943007D01*
X123783145Y-91916864D01*
X123783144Y-91916861D01*
X123783143Y-91916857D01*
X123693277Y-91713329D01*
X123567542Y-91529779D01*
X123567537Y-91529773D01*
X123410226Y-91372462D01*
X123410220Y-91372457D01*
X123226668Y-91246721D01*
X123023151Y-91156860D01*
X123023135Y-91156854D01*
X122806577Y-91105920D01*
X122806561Y-91105918D01*
X122714096Y-91099500D01*
X122714092Y-91099500D01*
X122565908Y-91099500D01*
X122565904Y-91099500D01*
X122473438Y-91105918D01*
X122473422Y-91105920D01*
X122256864Y-91156854D01*
X122256848Y-91156860D01*
X122053331Y-91246721D01*
X121869779Y-91372457D01*
X121869773Y-91372462D01*
X121712462Y-91529773D01*
X121712457Y-91529779D01*
X121586721Y-91713331D01*
X121496860Y-91916848D01*
X121496854Y-91916864D01*
X121490706Y-91943007D01*
X121456195Y-92003759D01*
X121394318Y-92036209D01*
X121324720Y-92030054D01*
X121269498Y-91987249D01*
X121249294Y-91943007D01*
X121243145Y-91916864D01*
X121243144Y-91916861D01*
X121243143Y-91916857D01*
X121153277Y-91713329D01*
X121027542Y-91529779D01*
X121027537Y-91529773D01*
X120870226Y-91372462D01*
X120870220Y-91372457D01*
X120686668Y-91246721D01*
X120483151Y-91156860D01*
X120483135Y-91156854D01*
X120266577Y-91105920D01*
X120266561Y-91105918D01*
X120174096Y-91099500D01*
X120174092Y-91099500D01*
X120025908Y-91099500D01*
X120025904Y-91099500D01*
X119933438Y-91105918D01*
X119933422Y-91105920D01*
X119716864Y-91156854D01*
X119716848Y-91156860D01*
X119513331Y-91246721D01*
X119329779Y-91372457D01*
X119329773Y-91372462D01*
X119172462Y-91529773D01*
X119172457Y-91529779D01*
X119046721Y-91713331D01*
X118956860Y-91916848D01*
X118956854Y-91916864D01*
X118950706Y-91943007D01*
X118916195Y-92003759D01*
X118854318Y-92036209D01*
X118784720Y-92030054D01*
X118729498Y-91987249D01*
X118709294Y-91943007D01*
X118703145Y-91916864D01*
X118703144Y-91916861D01*
X118703143Y-91916857D01*
X118613277Y-91713329D01*
X118487542Y-91529779D01*
X118487537Y-91529773D01*
X118330226Y-91372462D01*
X118330220Y-91372457D01*
X118146668Y-91246721D01*
X117943151Y-91156860D01*
X117943135Y-91156854D01*
X117726577Y-91105920D01*
X117726561Y-91105918D01*
X117634096Y-91099500D01*
X117634092Y-91099500D01*
X117485908Y-91099500D01*
X117485904Y-91099500D01*
X117393438Y-91105918D01*
X117393422Y-91105920D01*
X117176864Y-91156854D01*
X117176848Y-91156860D01*
X116973331Y-91246721D01*
X116789779Y-91372457D01*
X116789773Y-91372462D01*
X116632462Y-91529773D01*
X116632457Y-91529779D01*
X116506721Y-91713331D01*
X116416860Y-91916848D01*
X116416854Y-91916864D01*
X116381930Y-92065354D01*
X116348905Y-92124645D01*
X115373552Y-93099999D01*
X115373552Y-93100001D01*
X116348905Y-94075354D01*
X116381930Y-94134645D01*
X116416854Y-94283135D01*
X116416860Y-94283151D01*
X116506722Y-94486671D01*
X116506723Y-94486672D01*
X116536294Y-94529840D01*
X116542596Y-94539039D01*
X116542599Y-94539043D01*
X116632457Y-94670220D01*
X116632462Y-94670226D01*
X116789773Y-94827537D01*
X116789779Y-94827542D01*
X116973329Y-94953277D01*
X116973330Y-94953277D01*
X116973331Y-94953278D01*
X117066317Y-94994335D01*
X117176857Y-95043143D01*
X117176861Y-95043144D01*
X117176864Y-95043145D01*
X117393422Y-95094079D01*
X117393427Y-95094079D01*
X117393433Y-95094081D01*
X117444808Y-95097647D01*
X117485904Y-95100500D01*
X117485908Y-95100500D01*
X117634096Y-95100500D01*
X117671082Y-95097932D01*
X117726567Y-95094081D01*
X117726573Y-95094079D01*
X117726577Y-95094079D01*
X117943135Y-95043145D01*
X117943135Y-95043144D01*
X117943143Y-95043143D01*
X118146671Y-94953277D01*
X118330221Y-94827542D01*
X118487542Y-94670221D01*
X118613277Y-94486671D01*
X118703143Y-94283143D01*
X118709294Y-94256992D01*
X118743804Y-94196240D01*
X118805681Y-94163790D01*
X118875279Y-94169945D01*
X118930501Y-94212749D01*
X118950706Y-94256992D01*
X118956854Y-94283135D01*
X118956860Y-94283151D01*
X119046721Y-94486668D01*
X119172457Y-94670220D01*
X119172462Y-94670226D01*
X119329773Y-94827537D01*
X119329779Y-94827542D01*
X119513329Y-94953277D01*
X119513330Y-94953277D01*
X119513331Y-94953278D01*
X119606317Y-94994335D01*
X119716857Y-95043143D01*
X119716861Y-95043144D01*
X119716864Y-95043145D01*
X119933422Y-95094079D01*
X119933427Y-95094079D01*
X119933433Y-95094081D01*
X119984808Y-95097647D01*
X120025904Y-95100500D01*
X120025908Y-95100500D01*
X120174096Y-95100500D01*
X120211082Y-95097932D01*
X120266567Y-95094081D01*
X120266573Y-95094079D01*
X120266577Y-95094079D01*
X120483135Y-95043145D01*
X120483135Y-95043144D01*
X120483143Y-95043143D01*
X120686671Y-94953277D01*
X120870221Y-94827542D01*
X121027542Y-94670221D01*
X121153277Y-94486671D01*
X121243143Y-94283143D01*
X121249294Y-94256992D01*
X121283804Y-94196240D01*
X121345681Y-94163790D01*
X121415279Y-94169945D01*
X121470501Y-94212749D01*
X121490706Y-94256992D01*
X121496854Y-94283135D01*
X121496860Y-94283151D01*
X121586721Y-94486668D01*
X121712457Y-94670220D01*
X121712462Y-94670226D01*
X121869773Y-94827537D01*
X121869779Y-94827542D01*
X122053329Y-94953277D01*
X122053330Y-94953277D01*
X122053331Y-94953278D01*
X122146317Y-94994335D01*
X122256857Y-95043143D01*
X122256861Y-95043144D01*
X122256864Y-95043145D01*
X122473422Y-95094079D01*
X122473427Y-95094079D01*
X122473433Y-95094081D01*
X122524808Y-95097647D01*
X122565904Y-95100500D01*
X122565908Y-95100500D01*
X122714096Y-95100500D01*
X122751082Y-95097932D01*
X122806567Y-95094081D01*
X122806573Y-95094079D01*
X122806577Y-95094079D01*
X123023135Y-95043145D01*
X123023135Y-95043144D01*
X123023143Y-95043143D01*
X123226671Y-94953277D01*
X123410221Y-94827542D01*
X123567542Y-94670221D01*
X123693277Y-94486671D01*
X123783143Y-94283143D01*
X123789294Y-94256992D01*
X123823804Y-94196240D01*
X123885681Y-94163790D01*
X123955279Y-94169945D01*
X124010501Y-94212749D01*
X124030706Y-94256992D01*
X124036854Y-94283135D01*
X124036860Y-94283151D01*
X124126721Y-94486668D01*
X124252457Y-94670220D01*
X124252462Y-94670226D01*
X124409773Y-94827537D01*
X124409779Y-94827542D01*
X124593329Y-94953277D01*
X124593330Y-94953277D01*
X124593331Y-94953278D01*
X124686317Y-94994335D01*
X124796857Y-95043143D01*
X124796861Y-95043144D01*
X124796864Y-95043145D01*
X125013422Y-95094079D01*
X125013427Y-95094079D01*
X125013433Y-95094081D01*
X125064808Y-95097647D01*
X125105904Y-95100500D01*
X125105908Y-95100500D01*
X125254096Y-95100500D01*
X125291082Y-95097932D01*
X125346567Y-95094081D01*
X125346573Y-95094079D01*
X125346577Y-95094079D01*
X125563135Y-95043145D01*
X125563135Y-95043144D01*
X125563143Y-95043143D01*
X125766671Y-94953277D01*
X125950221Y-94827542D01*
X126097894Y-94679869D01*
X126439869Y-94679869D01*
X126453437Y-94733027D01*
X126453443Y-94733044D01*
X126483881Y-94806528D01*
X126483893Y-94806556D01*
X126507218Y-94855309D01*
X126507221Y-94855314D01*
X126593358Y-94970378D01*
X126593361Y-94970382D01*
X126649623Y-95026643D01*
X126649640Y-95026659D01*
X126689842Y-95062770D01*
X126813454Y-95136111D01*
X126813461Y-95136115D01*
X126886932Y-95166547D01*
X126886935Y-95166548D01*
X126937946Y-95184544D01*
X127080219Y-95204999D01*
X127080221Y-95205000D01*
X128359786Y-95205000D01*
X128413762Y-95202106D01*
X128413764Y-95202106D01*
X128553030Y-95166561D01*
X128553042Y-95166557D01*
X128626528Y-95136118D01*
X128626556Y-95136106D01*
X128675309Y-95112781D01*
X128675314Y-95112778D01*
X128790378Y-95026641D01*
X128790382Y-95026638D01*
X128846643Y-94970376D01*
X128846659Y-94970359D01*
X128882770Y-94930157D01*
X128956111Y-94806545D01*
X128956115Y-94806538D01*
X128986547Y-94733067D01*
X128986556Y-94733043D01*
X129004543Y-94682057D01*
X129005651Y-94674347D01*
X128955918Y-94649454D01*
X128929881Y-94647591D01*
X128885541Y-94619093D01*
X127720000Y-93453552D01*
X126554457Y-94619095D01*
X126493134Y-94652580D01*
X126488389Y-94652240D01*
X126439869Y-94679869D01*
X126097894Y-94679869D01*
X126107542Y-94670221D01*
X126233277Y-94486671D01*
X126323143Y-94283143D01*
X126358069Y-94134645D01*
X126391094Y-94075354D01*
X127366448Y-93100000D01*
X127366448Y-93099999D01*
X126391094Y-92124645D01*
X126358069Y-92065353D01*
X126323145Y-91916866D01*
X126323143Y-91916857D01*
X126233277Y-91713329D01*
X126107542Y-91529779D01*
X126107537Y-91529773D01*
X125950226Y-91372462D01*
X125950220Y-91372457D01*
X125883569Y-91326800D01*
X125839386Y-91272673D01*
X125831480Y-91203252D01*
X125862361Y-91140577D01*
X125922224Y-91104547D01*
X125953646Y-91100500D01*
X126775686Y-91100500D01*
X126842725Y-91120185D01*
X126888480Y-91172989D01*
X126898424Y-91242147D01*
X126869399Y-91305703D01*
X126854348Y-91320356D01*
X126852931Y-91321518D01*
X126741515Y-91432934D01*
X126678709Y-91509463D01*
X126678700Y-91509475D01*
X126600325Y-91626772D01*
X126600325Y-91626773D01*
X127896776Y-92923224D01*
X129048905Y-94075354D01*
X129081930Y-94134645D01*
X129116854Y-94283135D01*
X129116860Y-94283151D01*
X129206722Y-94486671D01*
X129206723Y-94486672D01*
X129236294Y-94529840D01*
X129242596Y-94539039D01*
X129242599Y-94539043D01*
X129332457Y-94670220D01*
X129332462Y-94670226D01*
X129489773Y-94827537D01*
X129489779Y-94827542D01*
X129673329Y-94953277D01*
X129673330Y-94953277D01*
X129673331Y-94953278D01*
X129766317Y-94994335D01*
X129876857Y-95043143D01*
X129876861Y-95043144D01*
X129876864Y-95043145D01*
X130093422Y-95094079D01*
X130093427Y-95094079D01*
X130093433Y-95094081D01*
X130144808Y-95097647D01*
X130185904Y-95100500D01*
X130185908Y-95100500D01*
X130334096Y-95100500D01*
X130371082Y-95097932D01*
X130426567Y-95094081D01*
X130426573Y-95094079D01*
X130426577Y-95094079D01*
X130643135Y-95043145D01*
X130643135Y-95043144D01*
X130643143Y-95043143D01*
X130846671Y-94953277D01*
X131030221Y-94827542D01*
X131187542Y-94670221D01*
X131313277Y-94486671D01*
X131403143Y-94283143D01*
X131409294Y-94256992D01*
X131443804Y-94196240D01*
X131505681Y-94163790D01*
X131575279Y-94169945D01*
X131630501Y-94212749D01*
X131650706Y-94256992D01*
X131656854Y-94283135D01*
X131656860Y-94283151D01*
X131746721Y-94486668D01*
X131872457Y-94670220D01*
X131872462Y-94670226D01*
X132029773Y-94827537D01*
X132029779Y-94827542D01*
X132213329Y-94953277D01*
X132213330Y-94953277D01*
X132213331Y-94953278D01*
X132306317Y-94994335D01*
X132416857Y-95043143D01*
X132416861Y-95043144D01*
X132416864Y-95043145D01*
X132633422Y-95094079D01*
X132633427Y-95094079D01*
X132633433Y-95094081D01*
X132684808Y-95097647D01*
X132725904Y-95100500D01*
X132725908Y-95100500D01*
X132874096Y-95100500D01*
X132911082Y-95097932D01*
X132966567Y-95094081D01*
X132966573Y-95094079D01*
X132966577Y-95094079D01*
X133183135Y-95043145D01*
X133183135Y-95043144D01*
X133183143Y-95043143D01*
X133386671Y-94953277D01*
X133570221Y-94827542D01*
X133727542Y-94670221D01*
X133853277Y-94486671D01*
X133943143Y-94283143D01*
X133949294Y-94256992D01*
X133983804Y-94196240D01*
X134045681Y-94163790D01*
X134115279Y-94169945D01*
X134170501Y-94212749D01*
X134190706Y-94256992D01*
X134196854Y-94283135D01*
X134196860Y-94283151D01*
X134286721Y-94486668D01*
X134412457Y-94670220D01*
X134412462Y-94670226D01*
X134569773Y-94827537D01*
X134569779Y-94827542D01*
X134753329Y-94953277D01*
X134753330Y-94953277D01*
X134753331Y-94953278D01*
X134846317Y-94994335D01*
X134956857Y-95043143D01*
X134956861Y-95043144D01*
X134956864Y-95043145D01*
X135173422Y-95094079D01*
X135173427Y-95094079D01*
X135173433Y-95094081D01*
X135224808Y-95097647D01*
X135265904Y-95100500D01*
X135265908Y-95100500D01*
X135414096Y-95100500D01*
X135451082Y-95097932D01*
X135506567Y-95094081D01*
X135506573Y-95094079D01*
X135506577Y-95094079D01*
X135723135Y-95043145D01*
X135723135Y-95043144D01*
X135723143Y-95043143D01*
X135926671Y-94953277D01*
X136110221Y-94827542D01*
X136267542Y-94670221D01*
X136393277Y-94486671D01*
X136483143Y-94283143D01*
X136489294Y-94256992D01*
X136523804Y-94196240D01*
X136585681Y-94163790D01*
X136655279Y-94169945D01*
X136710501Y-94212749D01*
X136730706Y-94256992D01*
X136736854Y-94283135D01*
X136736860Y-94283151D01*
X136826721Y-94486668D01*
X136952457Y-94670220D01*
X136952462Y-94670226D01*
X137109773Y-94827537D01*
X137109779Y-94827542D01*
X137293329Y-94953277D01*
X137426087Y-95011895D01*
X137479462Y-95056980D01*
X137499990Y-95123766D01*
X137500000Y-95125329D01*
X137500000Y-110454671D01*
X137480315Y-110521710D01*
X137427511Y-110567465D01*
X137426168Y-110568068D01*
X137293334Y-110626721D01*
X137293327Y-110626724D01*
X137109779Y-110752457D01*
X137109773Y-110752462D01*
X136952462Y-110909773D01*
X136952457Y-110909779D01*
X136826721Y-111093331D01*
X136736860Y-111296848D01*
X136736854Y-111296864D01*
X136730706Y-111323007D01*
X136696195Y-111383759D01*
X136634318Y-111416209D01*
X136564720Y-111410054D01*
X136509498Y-111367249D01*
X136489294Y-111323007D01*
X136483145Y-111296864D01*
X136483144Y-111296861D01*
X136483143Y-111296857D01*
X136393277Y-111093329D01*
X136267542Y-110909779D01*
X136267537Y-110909773D01*
X136110226Y-110752462D01*
X136110220Y-110752457D01*
X135926668Y-110626721D01*
X135723151Y-110536860D01*
X135723135Y-110536854D01*
X135506577Y-110485920D01*
X135506561Y-110485918D01*
X135414096Y-110479500D01*
X135414092Y-110479500D01*
X135265908Y-110479500D01*
X135265904Y-110479500D01*
X135173438Y-110485918D01*
X135173422Y-110485920D01*
X134956864Y-110536854D01*
X134956848Y-110536860D01*
X134753331Y-110626721D01*
X134569779Y-110752457D01*
X134569773Y-110752462D01*
X134412462Y-110909773D01*
X134412457Y-110909779D01*
X134286721Y-111093331D01*
X134196860Y-111296848D01*
X134196854Y-111296864D01*
X134190706Y-111323007D01*
X134156195Y-111383759D01*
X134094318Y-111416209D01*
X134024720Y-111410054D01*
X133969498Y-111367249D01*
X133949294Y-111323007D01*
X133943145Y-111296864D01*
X133943144Y-111296861D01*
X133943143Y-111296857D01*
X133853277Y-111093329D01*
X133727542Y-110909779D01*
X133727537Y-110909773D01*
X133570226Y-110752462D01*
X133570220Y-110752457D01*
X133386668Y-110626721D01*
X133183151Y-110536860D01*
X133183135Y-110536854D01*
X132966577Y-110485920D01*
X132966561Y-110485918D01*
X132874096Y-110479500D01*
X132874092Y-110479500D01*
X132725908Y-110479500D01*
X132725904Y-110479500D01*
X132633438Y-110485918D01*
X132633422Y-110485920D01*
X132416864Y-110536854D01*
X132416848Y-110536860D01*
X132213331Y-110626721D01*
X132029779Y-110752457D01*
X132029773Y-110752462D01*
X131872462Y-110909773D01*
X131872457Y-110909779D01*
X131746721Y-111093331D01*
X131656860Y-111296848D01*
X131656854Y-111296864D01*
X131650706Y-111323007D01*
X131616195Y-111383759D01*
X131554318Y-111416209D01*
X131484720Y-111410054D01*
X131429498Y-111367249D01*
X131409294Y-111323007D01*
X131403145Y-111296864D01*
X131403144Y-111296861D01*
X131403143Y-111296857D01*
X131313277Y-111093329D01*
X131187542Y-110909779D01*
X131187537Y-110909773D01*
X131030226Y-110752462D01*
X131030220Y-110752457D01*
X130846668Y-110626721D01*
X130643151Y-110536860D01*
X130643135Y-110536854D01*
X130426577Y-110485920D01*
X130426561Y-110485918D01*
X130334096Y-110479500D01*
X130334092Y-110479500D01*
X130185908Y-110479500D01*
X130185904Y-110479500D01*
X130093438Y-110485918D01*
X130093422Y-110485920D01*
X129876864Y-110536854D01*
X129876848Y-110536860D01*
X129673331Y-110626721D01*
X129489779Y-110752457D01*
X129489773Y-110752462D01*
X129332462Y-110909773D01*
X129332457Y-110909779D01*
X129206721Y-111093331D01*
X129116860Y-111296848D01*
X129116854Y-111296864D01*
X129081930Y-111445354D01*
X129048905Y-111504645D01*
X128073552Y-112479999D01*
X128073552Y-112480000D01*
X129048904Y-113455352D01*
X129081929Y-113514643D01*
X129116854Y-113663135D01*
X129116860Y-113663151D01*
X129188506Y-113825414D01*
X129192944Y-113859311D01*
X129197810Y-113893147D01*
X129197472Y-113893886D01*
X129197578Y-113894692D01*
X129182993Y-113925590D01*
X129168785Y-113956703D01*
X129168100Y-113957142D01*
X129167754Y-113957877D01*
X129138776Y-113975987D01*
X129110007Y-113994477D01*
X129108951Y-113994628D01*
X129108505Y-113994908D01*
X129075072Y-113999500D01*
X128937311Y-113999500D01*
X128870272Y-113979815D01*
X128849630Y-113963181D01*
X127720000Y-112833552D01*
X126590369Y-113963181D01*
X126563441Y-113977884D01*
X126537623Y-113994477D01*
X126531422Y-113995368D01*
X126529046Y-113996666D01*
X126502688Y-113999500D01*
X126364928Y-113999500D01*
X126297889Y-113979815D01*
X126252134Y-113927011D01*
X126242190Y-113857853D01*
X126251494Y-113825414D01*
X126323139Y-113663151D01*
X126323143Y-113663143D01*
X126358070Y-113514643D01*
X126391095Y-113455352D01*
X127366448Y-112480000D01*
X127366448Y-112479999D01*
X126391094Y-111504645D01*
X126358069Y-111445353D01*
X126323145Y-111296866D01*
X126323143Y-111296857D01*
X126233277Y-111093329D01*
X126203694Y-111050143D01*
X126203694Y-111050142D01*
X126197390Y-111040940D01*
X126197389Y-111040939D01*
X126107542Y-110909779D01*
X126107537Y-110909773D01*
X126103416Y-110905652D01*
X126434346Y-110905652D01*
X126484061Y-110930540D01*
X126510109Y-110932403D01*
X126554456Y-110960904D01*
X127719999Y-112126447D01*
X128885542Y-110960905D01*
X128946865Y-110927420D01*
X128951607Y-110927759D01*
X129000129Y-110900129D01*
X128986559Y-110846961D01*
X128956118Y-110773471D01*
X128956106Y-110773443D01*
X128932781Y-110724690D01*
X128932778Y-110724685D01*
X128846641Y-110609621D01*
X128846638Y-110609617D01*
X128790376Y-110553356D01*
X128790359Y-110553340D01*
X128750157Y-110517229D01*
X128626545Y-110443888D01*
X128626538Y-110443884D01*
X128553067Y-110413452D01*
X128553064Y-110413451D01*
X128502053Y-110395455D01*
X128359780Y-110375000D01*
X127080214Y-110375000D01*
X127026237Y-110377893D01*
X127026235Y-110377893D01*
X126886969Y-110413438D01*
X126886957Y-110413442D01*
X126813471Y-110443881D01*
X126813443Y-110443893D01*
X126764690Y-110467218D01*
X126764685Y-110467221D01*
X126649621Y-110553358D01*
X126649617Y-110553361D01*
X126593356Y-110609623D01*
X126593340Y-110609640D01*
X126557229Y-110649842D01*
X126483888Y-110773454D01*
X126483884Y-110773461D01*
X126453452Y-110846932D01*
X126453442Y-110846957D01*
X126435458Y-110897935D01*
X126435455Y-110897945D01*
X126434346Y-110905652D01*
X126103416Y-110905652D01*
X125950226Y-110752462D01*
X125950220Y-110752457D01*
X125766668Y-110626721D01*
X125563151Y-110536860D01*
X125563135Y-110536854D01*
X125346577Y-110485920D01*
X125346561Y-110485918D01*
X125254096Y-110479500D01*
X125254092Y-110479500D01*
X125105908Y-110479500D01*
X125105904Y-110479500D01*
X125013438Y-110485918D01*
X125013422Y-110485920D01*
X124796864Y-110536854D01*
X124796848Y-110536860D01*
X124593331Y-110626721D01*
X124409779Y-110752457D01*
X124409773Y-110752462D01*
X124252462Y-110909773D01*
X124252457Y-110909779D01*
X124126721Y-111093331D01*
X124036860Y-111296848D01*
X124036854Y-111296864D01*
X124030706Y-111323007D01*
X123996195Y-111383759D01*
X123934318Y-111416209D01*
X123864720Y-111410054D01*
X123809498Y-111367249D01*
X123789294Y-111323007D01*
X123783145Y-111296864D01*
X123783144Y-111296861D01*
X123783143Y-111296857D01*
X123693277Y-111093329D01*
X123567542Y-110909779D01*
X123567537Y-110909773D01*
X123410226Y-110752462D01*
X123410220Y-110752457D01*
X123226668Y-110626721D01*
X123023151Y-110536860D01*
X123023135Y-110536854D01*
X122806577Y-110485920D01*
X122806561Y-110485918D01*
X122714096Y-110479500D01*
X122714092Y-110479500D01*
X122565908Y-110479500D01*
X122565904Y-110479500D01*
X122473438Y-110485918D01*
X122473422Y-110485920D01*
X122256864Y-110536854D01*
X122256848Y-110536860D01*
X122053331Y-110626721D01*
X121869779Y-110752457D01*
X121869773Y-110752462D01*
X121712462Y-110909773D01*
X121712457Y-110909779D01*
X121586721Y-111093331D01*
X121496860Y-111296848D01*
X121496854Y-111296864D01*
X121490706Y-111323007D01*
X121456195Y-111383759D01*
X121394318Y-111416209D01*
X121324720Y-111410054D01*
X121269498Y-111367249D01*
X121249294Y-111323007D01*
X121243145Y-111296864D01*
X121243144Y-111296861D01*
X121243143Y-111296857D01*
X121153277Y-111093329D01*
X121027542Y-110909779D01*
X121027537Y-110909773D01*
X120870226Y-110752462D01*
X120870220Y-110752457D01*
X120686668Y-110626721D01*
X120483151Y-110536860D01*
X120483135Y-110536854D01*
X120266577Y-110485920D01*
X120266561Y-110485918D01*
X120174096Y-110479500D01*
X120174092Y-110479500D01*
X120025908Y-110479500D01*
X120025904Y-110479500D01*
X119933438Y-110485918D01*
X119933422Y-110485920D01*
X119716864Y-110536854D01*
X119716848Y-110536860D01*
X119513331Y-110626721D01*
X119329779Y-110752457D01*
X119329773Y-110752462D01*
X119172462Y-110909773D01*
X119172457Y-110909779D01*
X119046721Y-111093331D01*
X118956860Y-111296848D01*
X118956854Y-111296864D01*
X118950706Y-111323007D01*
X118916195Y-111383759D01*
X118854318Y-111416209D01*
X118784720Y-111410054D01*
X118729498Y-111367249D01*
X118709294Y-111323007D01*
X118703145Y-111296864D01*
X118703144Y-111296861D01*
X118703143Y-111296857D01*
X118613277Y-111093329D01*
X118487542Y-110909779D01*
X118487537Y-110909773D01*
X118330226Y-110752462D01*
X118330220Y-110752457D01*
X118146668Y-110626721D01*
X117943151Y-110536860D01*
X117943135Y-110536854D01*
X117726577Y-110485920D01*
X117726561Y-110485918D01*
X117634096Y-110479500D01*
X117634092Y-110479500D01*
X117485908Y-110479500D01*
X117485904Y-110479500D01*
X117393438Y-110485918D01*
X117393422Y-110485920D01*
X117176864Y-110536854D01*
X117176848Y-110536860D01*
X116973331Y-110626721D01*
X116789779Y-110752457D01*
X116789773Y-110752462D01*
X116632462Y-110909773D01*
X116632457Y-110909779D01*
X116506721Y-111093331D01*
X116416860Y-111296848D01*
X116416854Y-111296864D01*
X116381930Y-111445354D01*
X116348905Y-111504645D01*
X115373552Y-112479999D01*
X115373552Y-112480000D01*
X116348904Y-113455352D01*
X116381929Y-113514643D01*
X116416854Y-113663135D01*
X116416860Y-113663151D01*
X116488506Y-113825414D01*
X116492944Y-113859311D01*
X116497810Y-113893147D01*
X116497472Y-113893886D01*
X116497578Y-113894692D01*
X116482993Y-113925590D01*
X116468785Y-113956703D01*
X116468100Y-113957142D01*
X116467754Y-113957877D01*
X116438776Y-113975987D01*
X116410007Y-113994477D01*
X116408951Y-113994628D01*
X116408505Y-113994908D01*
X116375072Y-113999500D01*
X116237311Y-113999500D01*
X116170272Y-113979815D01*
X116149630Y-113963181D01*
X115020000Y-112833552D01*
X113890369Y-113963181D01*
X113863441Y-113977884D01*
X113837623Y-113994477D01*
X113831422Y-113995368D01*
X113829046Y-113996666D01*
X113802688Y-113999500D01*
X113664928Y-113999500D01*
X113597889Y-113979815D01*
X113552134Y-113927011D01*
X113542190Y-113857853D01*
X113551494Y-113825414D01*
X113623139Y-113663151D01*
X113623143Y-113663143D01*
X113658070Y-113514643D01*
X113691095Y-113455352D01*
X114666448Y-112480000D01*
X114666448Y-112479999D01*
X113691094Y-111504645D01*
X113658069Y-111445353D01*
X113623145Y-111296866D01*
X113623143Y-111296857D01*
X113533277Y-111093329D01*
X113503694Y-111050143D01*
X113503694Y-111050142D01*
X113497390Y-111040940D01*
X113497389Y-111040939D01*
X113407542Y-110909779D01*
X113407537Y-110909773D01*
X113403416Y-110905652D01*
X113734346Y-110905652D01*
X113784061Y-110930540D01*
X113810109Y-110932403D01*
X113854456Y-110960904D01*
X115019999Y-112126447D01*
X116185542Y-110960905D01*
X116246865Y-110927420D01*
X116251607Y-110927759D01*
X116300129Y-110900129D01*
X116286559Y-110846961D01*
X116256118Y-110773471D01*
X116256106Y-110773443D01*
X116232781Y-110724690D01*
X116232778Y-110724685D01*
X116146641Y-110609621D01*
X116146638Y-110609617D01*
X116090376Y-110553356D01*
X116090359Y-110553340D01*
X116050157Y-110517229D01*
X115926545Y-110443888D01*
X115926538Y-110443884D01*
X115853067Y-110413452D01*
X115853064Y-110413451D01*
X115802053Y-110395455D01*
X115659780Y-110375000D01*
X114380214Y-110375000D01*
X114326237Y-110377893D01*
X114326235Y-110377893D01*
X114186969Y-110413438D01*
X114186957Y-110413442D01*
X114113471Y-110443881D01*
X114113443Y-110443893D01*
X114064690Y-110467218D01*
X114064685Y-110467221D01*
X113949621Y-110553358D01*
X113949617Y-110553361D01*
X113893356Y-110609623D01*
X113893340Y-110609640D01*
X113857229Y-110649842D01*
X113783888Y-110773454D01*
X113783884Y-110773461D01*
X113753452Y-110846932D01*
X113753442Y-110846957D01*
X113735458Y-110897935D01*
X113735455Y-110897945D01*
X113734346Y-110905652D01*
X113403416Y-110905652D01*
X113250226Y-110752462D01*
X113250220Y-110752457D01*
X113066668Y-110626721D01*
X112863151Y-110536860D01*
X112863135Y-110536854D01*
X112646577Y-110485920D01*
X112646561Y-110485918D01*
X112554096Y-110479500D01*
X112554092Y-110479500D01*
X112405908Y-110479500D01*
X112405904Y-110479500D01*
X112313438Y-110485918D01*
X112313422Y-110485920D01*
X112096864Y-110536854D01*
X112096848Y-110536860D01*
X111893331Y-110626721D01*
X111709779Y-110752457D01*
X111709773Y-110752462D01*
X111552462Y-110909773D01*
X111552457Y-110909779D01*
X111426721Y-111093331D01*
X111336860Y-111296848D01*
X111336854Y-111296864D01*
X111330706Y-111323007D01*
X111296195Y-111383759D01*
X111234318Y-111416209D01*
X111164720Y-111410054D01*
X111109498Y-111367249D01*
X111089294Y-111323007D01*
X111083145Y-111296864D01*
X111083144Y-111296861D01*
X111083143Y-111296857D01*
X110993277Y-111093329D01*
X110867542Y-110909779D01*
X110867537Y-110909773D01*
X110710226Y-110752462D01*
X110710220Y-110752457D01*
X110526668Y-110626721D01*
X110323151Y-110536860D01*
X110323135Y-110536854D01*
X110106577Y-110485920D01*
X110106561Y-110485918D01*
X110014096Y-110479500D01*
X110014092Y-110479500D01*
X109865908Y-110479500D01*
X109865904Y-110479500D01*
X109773438Y-110485918D01*
X109773422Y-110485920D01*
X109556864Y-110536854D01*
X109556848Y-110536860D01*
X109353331Y-110626721D01*
X109169779Y-110752457D01*
X109169773Y-110752462D01*
X109012462Y-110909773D01*
X109012457Y-110909779D01*
X108886721Y-111093331D01*
X108796860Y-111296848D01*
X108796854Y-111296864D01*
X108790706Y-111323007D01*
X108756195Y-111383759D01*
X108694318Y-111416209D01*
X108624720Y-111410054D01*
X108569498Y-111367249D01*
X108549294Y-111323007D01*
X108543145Y-111296864D01*
X108543144Y-111296861D01*
X108543143Y-111296857D01*
X108453277Y-111093329D01*
X108327542Y-110909779D01*
X108327537Y-110909773D01*
X108170226Y-110752462D01*
X108170220Y-110752457D01*
X107986668Y-110626721D01*
X107783151Y-110536860D01*
X107783135Y-110536854D01*
X107566577Y-110485920D01*
X107566561Y-110485918D01*
X107474096Y-110479500D01*
X107474092Y-110479500D01*
X107325908Y-110479500D01*
X107325904Y-110479500D01*
X107233438Y-110485918D01*
X107233422Y-110485920D01*
X107016864Y-110536854D01*
X107016848Y-110536860D01*
X106813331Y-110626721D01*
X106629779Y-110752457D01*
X106629773Y-110752462D01*
X106472462Y-110909773D01*
X106472457Y-110909779D01*
X106346721Y-111093331D01*
X106256860Y-111296848D01*
X106256854Y-111296864D01*
X106250706Y-111323007D01*
X106216195Y-111383759D01*
X106154318Y-111416209D01*
X106084720Y-111410054D01*
X106029498Y-111367249D01*
X106009294Y-111323007D01*
X106003145Y-111296864D01*
X106003144Y-111296861D01*
X106003143Y-111296857D01*
X105913277Y-111093329D01*
X105787542Y-110909779D01*
X105787537Y-110909773D01*
X105630226Y-110752462D01*
X105630220Y-110752457D01*
X105446668Y-110626721D01*
X105243151Y-110536860D01*
X105243135Y-110536854D01*
X105026577Y-110485920D01*
X105026561Y-110485918D01*
X104934096Y-110479500D01*
X104934092Y-110479500D01*
X104785908Y-110479500D01*
X104785904Y-110479500D01*
X104693438Y-110485918D01*
X104693422Y-110485920D01*
X104476864Y-110536854D01*
X104476848Y-110536860D01*
X104273331Y-110626721D01*
X104089779Y-110752457D01*
X104089773Y-110752462D01*
X103932462Y-110909773D01*
X103932457Y-110909779D01*
X103806721Y-111093331D01*
X103716860Y-111296848D01*
X103716854Y-111296864D01*
X103681930Y-111445354D01*
X103648905Y-111504645D01*
X102673552Y-112479999D01*
X102673552Y-112480000D01*
X103648904Y-113455352D01*
X103681929Y-113514643D01*
X103716854Y-113663135D01*
X103716860Y-113663151D01*
X103788506Y-113825414D01*
X103792944Y-113859311D01*
X103797810Y-113893147D01*
X103797472Y-113893886D01*
X103797578Y-113894692D01*
X103782993Y-113925590D01*
X103768785Y-113956703D01*
X103768100Y-113957142D01*
X103767754Y-113957877D01*
X103738776Y-113975987D01*
X103710007Y-113994477D01*
X103708951Y-113994628D01*
X103708505Y-113994908D01*
X103675072Y-113999500D01*
X103537311Y-113999500D01*
X103470272Y-113979815D01*
X103449630Y-113963181D01*
X102320000Y-112833552D01*
X101190369Y-113963181D01*
X101163441Y-113977884D01*
X101137623Y-113994477D01*
X101131422Y-113995368D01*
X101129046Y-113996666D01*
X101102688Y-113999500D01*
X100964928Y-113999500D01*
X100897889Y-113979815D01*
X100852134Y-113927011D01*
X100842190Y-113857853D01*
X100851494Y-113825414D01*
X100923139Y-113663151D01*
X100923143Y-113663143D01*
X100958070Y-113514643D01*
X100991095Y-113455352D01*
X101966448Y-112480000D01*
X101966448Y-112479999D01*
X100991094Y-111504645D01*
X100958069Y-111445353D01*
X100923145Y-111296866D01*
X100923143Y-111296857D01*
X100833277Y-111093329D01*
X100803694Y-111050143D01*
X100803694Y-111050142D01*
X100797390Y-111040940D01*
X100797389Y-111040939D01*
X100707542Y-110909779D01*
X100707537Y-110909773D01*
X100703416Y-110905652D01*
X101034346Y-110905652D01*
X101084061Y-110930540D01*
X101110109Y-110932403D01*
X101154456Y-110960904D01*
X102319999Y-112126447D01*
X103485542Y-110960905D01*
X103546865Y-110927420D01*
X103551607Y-110927759D01*
X103600129Y-110900129D01*
X103586559Y-110846961D01*
X103556118Y-110773471D01*
X103556106Y-110773443D01*
X103532781Y-110724690D01*
X103532778Y-110724685D01*
X103446641Y-110609621D01*
X103446638Y-110609617D01*
X103390376Y-110553356D01*
X103390359Y-110553340D01*
X103350157Y-110517229D01*
X103226545Y-110443888D01*
X103226538Y-110443884D01*
X103153067Y-110413452D01*
X103153064Y-110413451D01*
X103102053Y-110395455D01*
X102959780Y-110375000D01*
X101680214Y-110375000D01*
X101626237Y-110377893D01*
X101626235Y-110377893D01*
X101486969Y-110413438D01*
X101486957Y-110413442D01*
X101413471Y-110443881D01*
X101413443Y-110443893D01*
X101364690Y-110467218D01*
X101364685Y-110467221D01*
X101249621Y-110553358D01*
X101249617Y-110553361D01*
X101193356Y-110609623D01*
X101193340Y-110609640D01*
X101157229Y-110649842D01*
X101083888Y-110773454D01*
X101083884Y-110773461D01*
X101053452Y-110846932D01*
X101053442Y-110846957D01*
X101035458Y-110897935D01*
X101035455Y-110897945D01*
X101034346Y-110905652D01*
X100703416Y-110905652D01*
X100550226Y-110752462D01*
X100550220Y-110752457D01*
X100366668Y-110626721D01*
X100163151Y-110536860D01*
X100163135Y-110536854D01*
X99946577Y-110485920D01*
X99946561Y-110485918D01*
X99854096Y-110479500D01*
X99854092Y-110479500D01*
X99705908Y-110479500D01*
X99705904Y-110479500D01*
X99613438Y-110485918D01*
X99613422Y-110485920D01*
X99396864Y-110536854D01*
X99396848Y-110536860D01*
X99193331Y-110626721D01*
X99009779Y-110752457D01*
X99009773Y-110752462D01*
X98852462Y-110909773D01*
X98852457Y-110909779D01*
X98726721Y-111093331D01*
X98636860Y-111296848D01*
X98636855Y-111296862D01*
X98632638Y-111314793D01*
X98598127Y-111375545D01*
X98536249Y-111407994D01*
X98466651Y-111401839D01*
X98411430Y-111359033D01*
X98393271Y-111322396D01*
X98383889Y-111291467D01*
X98366225Y-111248824D01*
X98323584Y-111145879D01*
X98286112Y-111075774D01*
X98268986Y-111050143D01*
X98198574Y-110944763D01*
X98198567Y-110944753D01*
X98198562Y-110944746D01*
X98148133Y-110883298D01*
X98148132Y-110883297D01*
X98148128Y-110883292D01*
X98036707Y-110771871D01*
X97975259Y-110721442D01*
X97975236Y-110721425D01*
X97844242Y-110633898D01*
X97844231Y-110633891D01*
X97844226Y-110633888D01*
X97774121Y-110596416D01*
X97628535Y-110536111D01*
X97581060Y-110521710D01*
X97552459Y-110513034D01*
X97552454Y-110513033D01*
X97552451Y-110513032D01*
X97488930Y-110500397D01*
X97397901Y-110482291D01*
X97397895Y-110482290D01*
X97397888Y-110482289D01*
X97335787Y-110476173D01*
X97318793Y-110474500D01*
X97161207Y-110474500D01*
X97142167Y-110476375D01*
X97082113Y-110482289D01*
X97082108Y-110482289D01*
X96927548Y-110513032D01*
X96851464Y-110536111D01*
X96705878Y-110596416D01*
X96635777Y-110633886D01*
X96635757Y-110633898D01*
X96504763Y-110721425D01*
X96504740Y-110721442D01*
X96443292Y-110771871D01*
X96331871Y-110883292D01*
X96281442Y-110944740D01*
X96281425Y-110944763D01*
X96193898Y-111075757D01*
X96193886Y-111075777D01*
X96156416Y-111145878D01*
X96096111Y-111291464D01*
X96073032Y-111367548D01*
X96042289Y-111522108D01*
X96042289Y-111522113D01*
X96034500Y-111601208D01*
X96034500Y-113875500D01*
X96014815Y-113942539D01*
X95962011Y-113988294D01*
X95910500Y-113999500D01*
X95423357Y-113999500D01*
X95356318Y-113979815D01*
X95310563Y-113927011D01*
X95299357Y-113875727D01*
X95299340Y-113866671D01*
X95290361Y-108963991D01*
X95276295Y-101283386D01*
X95919500Y-101283386D01*
X95919500Y-102296613D01*
X95925913Y-102367192D01*
X95976522Y-102529606D01*
X96064530Y-102675188D01*
X96091661Y-102702319D01*
X96125146Y-102763642D01*
X96120162Y-102833334D01*
X96091661Y-102877681D01*
X96064531Y-102904810D01*
X96064530Y-102904811D01*
X95976522Y-103050393D01*
X95925913Y-103212807D01*
X95919500Y-103283386D01*
X95919500Y-104296613D01*
X95925913Y-104367192D01*
X95925913Y-104367194D01*
X95925914Y-104367196D01*
X95976522Y-104529606D01*
X96063012Y-104672678D01*
X96064530Y-104675188D01*
X96184813Y-104795471D01*
X96196859Y-104802753D01*
X96244047Y-104854280D01*
X96255887Y-104923139D01*
X96235814Y-104977761D01*
X96177680Y-105064764D01*
X96177676Y-105064771D01*
X96106027Y-105237748D01*
X96106025Y-105237756D01*
X96069500Y-105421379D01*
X96069500Y-105608620D01*
X96106025Y-105792243D01*
X96106027Y-105792251D01*
X96177676Y-105965228D01*
X96177681Y-105965237D01*
X96281697Y-106120907D01*
X96281700Y-106120911D01*
X96414088Y-106253299D01*
X96414092Y-106253302D01*
X96569762Y-106357318D01*
X96569768Y-106357321D01*
X96569769Y-106357322D01*
X96742749Y-106428973D01*
X96926379Y-106465499D01*
X96926383Y-106465500D01*
X96926384Y-106465500D01*
X97813617Y-106465500D01*
X97813618Y-106465499D01*
X97997251Y-106428973D01*
X98170231Y-106357322D01*
X98325908Y-106253302D01*
X98458302Y-106120908D01*
X98562322Y-105965231D01*
X98633973Y-105792251D01*
X98670500Y-105608616D01*
X98670500Y-105421384D01*
X98647580Y-105306156D01*
X99274499Y-105306156D01*
X99310065Y-105484952D01*
X99310068Y-105484962D01*
X99379831Y-105653387D01*
X99379833Y-105653391D01*
X99481113Y-105804967D01*
X99481119Y-105804975D01*
X99610024Y-105933880D01*
X99610032Y-105933886D01*
X99761608Y-106035166D01*
X99761612Y-106035168D01*
X99930037Y-106104931D01*
X99930042Y-106104933D01*
X99930046Y-106104933D01*
X99930047Y-106104934D01*
X100108843Y-106140500D01*
X100108846Y-106140500D01*
X100691156Y-106140500D01*
X100811445Y-106116572D01*
X100869958Y-106104933D01*
X101038389Y-106035167D01*
X101038391Y-106035166D01*
X101143056Y-105965231D01*
X101189972Y-105933883D01*
X101318883Y-105804972D01*
X101420167Y-105653389D01*
X101438713Y-105608616D01*
X101489931Y-105484962D01*
X101489933Y-105484958D01*
X101525500Y-105306154D01*
X101525500Y-105123846D01*
X101525500Y-105123843D01*
X101489934Y-104945047D01*
X101489933Y-104945046D01*
X101489933Y-104945042D01*
X101475042Y-104909092D01*
X101441464Y-104828026D01*
X101422973Y-104783384D01*
X104219500Y-104783384D01*
X104219500Y-105796616D01*
X104220260Y-105804975D01*
X104225913Y-105867192D01*
X104225913Y-105867194D01*
X104225914Y-105867196D01*
X104246693Y-105933880D01*
X104276522Y-106029606D01*
X104364530Y-106175188D01*
X104484811Y-106295469D01*
X104484813Y-106295470D01*
X104484815Y-106295472D01*
X104630394Y-106383478D01*
X104792804Y-106434086D01*
X104863384Y-106440500D01*
X104863387Y-106440500D01*
X105876613Y-106440500D01*
X105876616Y-106440500D01*
X105947196Y-106434086D01*
X106109606Y-106383478D01*
X106255185Y-106295472D01*
X106375472Y-106175185D01*
X106463478Y-106029606D01*
X106501615Y-105907217D01*
X106540352Y-105849070D01*
X106604377Y-105821096D01*
X106673362Y-105832177D01*
X106725405Y-105878796D01*
X106738384Y-105907215D01*
X106776522Y-106029606D01*
X106831718Y-106120911D01*
X106864530Y-106175188D01*
X106984811Y-106295469D01*
X106984813Y-106295470D01*
X106984815Y-106295472D01*
X107130394Y-106383478D01*
X107292804Y-106434086D01*
X107363384Y-106440500D01*
X107363387Y-106440500D01*
X108376613Y-106440500D01*
X108376616Y-106440500D01*
X108447196Y-106434086D01*
X108609606Y-106383478D01*
X108755185Y-106295472D01*
X108875472Y-106175185D01*
X108963478Y-106029606D01*
X109001615Y-105907217D01*
X109040352Y-105849070D01*
X109104377Y-105821096D01*
X109173362Y-105832177D01*
X109225405Y-105878796D01*
X109238384Y-105907215D01*
X109276522Y-106029606D01*
X109331718Y-106120911D01*
X109364530Y-106175188D01*
X109484811Y-106295469D01*
X109484813Y-106295470D01*
X109484815Y-106295472D01*
X109630394Y-106383478D01*
X109792804Y-106434086D01*
X109863384Y-106440500D01*
X109863387Y-106440500D01*
X110876613Y-106440500D01*
X110876616Y-106440500D01*
X110947196Y-106434086D01*
X111109606Y-106383478D01*
X111255185Y-106295472D01*
X111375472Y-106175185D01*
X111463478Y-106029606D01*
X111514086Y-105867196D01*
X111520500Y-105796616D01*
X111520500Y-104783384D01*
X111514086Y-104712804D01*
X111463478Y-104550394D01*
X111375472Y-104404815D01*
X111375470Y-104404813D01*
X111375469Y-104404811D01*
X111255188Y-104284530D01*
X111109606Y-104196522D01*
X110947196Y-104145914D01*
X110947194Y-104145913D01*
X110947192Y-104145913D01*
X110897778Y-104141423D01*
X110876616Y-104139500D01*
X109863384Y-104139500D01*
X109844145Y-104141248D01*
X109792807Y-104145913D01*
X109630393Y-104196522D01*
X109484811Y-104284530D01*
X109364530Y-104404811D01*
X109276522Y-104550393D01*
X109276522Y-104550394D01*
X109238384Y-104672782D01*
X109199648Y-104730929D01*
X109135623Y-104758903D01*
X109066638Y-104747822D01*
X109014595Y-104701203D01*
X109001615Y-104672784D01*
X108963478Y-104550394D01*
X108875472Y-104404815D01*
X108875470Y-104404813D01*
X108875469Y-104404811D01*
X108755188Y-104284530D01*
X108609606Y-104196522D01*
X108447196Y-104145914D01*
X108447194Y-104145913D01*
X108447192Y-104145913D01*
X108397778Y-104141423D01*
X108376616Y-104139500D01*
X107363384Y-104139500D01*
X107344145Y-104141248D01*
X107292807Y-104145913D01*
X107130393Y-104196522D01*
X106984811Y-104284530D01*
X106864530Y-104404811D01*
X106776522Y-104550393D01*
X106776522Y-104550394D01*
X106738384Y-104672782D01*
X106699648Y-104730929D01*
X106635623Y-104758903D01*
X106566638Y-104747822D01*
X106514595Y-104701203D01*
X106501615Y-104672784D01*
X106463478Y-104550394D01*
X106375472Y-104404815D01*
X106375470Y-104404813D01*
X106375469Y-104404811D01*
X106255188Y-104284530D01*
X106109606Y-104196522D01*
X105947196Y-104145914D01*
X105947194Y-104145913D01*
X105947192Y-104145913D01*
X105897778Y-104141423D01*
X105876616Y-104139500D01*
X104863384Y-104139500D01*
X104844145Y-104141248D01*
X104792807Y-104145913D01*
X104630393Y-104196522D01*
X104484811Y-104284530D01*
X104364530Y-104404811D01*
X104276522Y-104550393D01*
X104225913Y-104712807D01*
X104221725Y-104758903D01*
X104219500Y-104783384D01*
X101422973Y-104783384D01*
X101420168Y-104776612D01*
X101420166Y-104776608D01*
X101318886Y-104625032D01*
X101318880Y-104625024D01*
X101189975Y-104496119D01*
X101189967Y-104496113D01*
X101038391Y-104394833D01*
X101038387Y-104394831D01*
X100869962Y-104325068D01*
X100869952Y-104325065D01*
X100691156Y-104289500D01*
X100691154Y-104289500D01*
X100108846Y-104289500D01*
X100108844Y-104289500D01*
X99930047Y-104325065D01*
X99930037Y-104325068D01*
X99761612Y-104394831D01*
X99761608Y-104394833D01*
X99610032Y-104496113D01*
X99610024Y-104496119D01*
X99481119Y-104625024D01*
X99481113Y-104625032D01*
X99379833Y-104776608D01*
X99379831Y-104776612D01*
X99310068Y-104945037D01*
X99310065Y-104945047D01*
X99274500Y-105123843D01*
X99274500Y-105123846D01*
X99274500Y-105306154D01*
X99274500Y-105306156D01*
X99274499Y-105306156D01*
X98647580Y-105306156D01*
X98633973Y-105237749D01*
X98562322Y-105064769D01*
X98562319Y-105064764D01*
X98562318Y-105064762D01*
X98458302Y-104909092D01*
X98458299Y-104909088D01*
X98325908Y-104776697D01*
X98202347Y-104694137D01*
X98157542Y-104640525D01*
X98148835Y-104571200D01*
X98161441Y-104536913D01*
X98160400Y-104536445D01*
X98163473Y-104529613D01*
X98163478Y-104529606D01*
X98214086Y-104367196D01*
X98220500Y-104296616D01*
X98220500Y-103283384D01*
X98214086Y-103212804D01*
X98163478Y-103050394D01*
X98075472Y-102904815D01*
X98048337Y-102877680D01*
X98014853Y-102816360D01*
X98019837Y-102746668D01*
X98048337Y-102702319D01*
X98075472Y-102675185D01*
X98163478Y-102529606D01*
X98214086Y-102367196D01*
X98220500Y-102296616D01*
X98220500Y-102283386D01*
X99219500Y-102283386D01*
X99219500Y-103296613D01*
X99225913Y-103367192D01*
X99225913Y-103367194D01*
X99225914Y-103367196D01*
X99234204Y-103393799D01*
X99276522Y-103529606D01*
X99364530Y-103675188D01*
X99484811Y-103795469D01*
X99484813Y-103795470D01*
X99484815Y-103795472D01*
X99630394Y-103883478D01*
X99792804Y-103934086D01*
X99863384Y-103940500D01*
X99863387Y-103940500D01*
X100876613Y-103940500D01*
X100876616Y-103940500D01*
X100947196Y-103934086D01*
X101109606Y-103883478D01*
X101255185Y-103795472D01*
X101375472Y-103675185D01*
X101463478Y-103529606D01*
X101514086Y-103367196D01*
X101520500Y-103296616D01*
X101520500Y-102283384D01*
X101514086Y-102212804D01*
X101463478Y-102050394D01*
X101375472Y-101904815D01*
X101375470Y-101904813D01*
X101375469Y-101904811D01*
X101255188Y-101784530D01*
X101109606Y-101696522D01*
X100947196Y-101645914D01*
X100876616Y-101639500D01*
X99863384Y-101639500D01*
X99844145Y-101641248D01*
X99792807Y-101645913D01*
X99630393Y-101696522D01*
X99484811Y-101784530D01*
X99364530Y-101904811D01*
X99276522Y-102050393D01*
X99225913Y-102212807D01*
X99219500Y-102283386D01*
X98220500Y-102283386D01*
X98220500Y-101579145D01*
X125882100Y-101579145D01*
X125882100Y-102832663D01*
X125897553Y-102950053D01*
X125897556Y-102950062D01*
X125939114Y-103050393D01*
X125958064Y-103096141D01*
X126054318Y-103221582D01*
X126179759Y-103317836D01*
X126325838Y-103378344D01*
X126443239Y-103393800D01*
X127696760Y-103393799D01*
X127696763Y-103393799D01*
X127814153Y-103378346D01*
X127814157Y-103378344D01*
X127814162Y-103378344D01*
X127960241Y-103317836D01*
X128085682Y-103221582D01*
X128181936Y-103096141D01*
X128242444Y-102950062D01*
X128257900Y-102832661D01*
X128257899Y-101579140D01*
X128257899Y-101579139D01*
X128257899Y-101579136D01*
X128242446Y-101461746D01*
X128242444Y-101461739D01*
X128242444Y-101461738D01*
X128181936Y-101315659D01*
X128085682Y-101190218D01*
X127960241Y-101093964D01*
X127935903Y-101083883D01*
X127917454Y-101076241D01*
X127814162Y-101033456D01*
X127802853Y-101031967D01*
X127739326Y-101023603D01*
X127675430Y-100995336D01*
X127636960Y-100937011D01*
X127636129Y-100867146D01*
X127673202Y-100807923D01*
X127699220Y-100790178D01*
X127744747Y-100766981D01*
X127744751Y-100766979D01*
X127786899Y-100736354D01*
X127786900Y-100736354D01*
X127070000Y-100019454D01*
X126353099Y-100736353D01*
X126353099Y-100736354D01*
X126395254Y-100766982D01*
X126440782Y-100790180D01*
X126491578Y-100838155D01*
X126508373Y-100905975D01*
X126485836Y-100972110D01*
X126431121Y-101015562D01*
X126400671Y-101023604D01*
X126325846Y-101033454D01*
X126325837Y-101033456D01*
X126179760Y-101093963D01*
X126054318Y-101190218D01*
X125958063Y-101315660D01*
X125897556Y-101461737D01*
X125897555Y-101461739D01*
X125882101Y-101579129D01*
X125882101Y-101579136D01*
X125882100Y-101579145D01*
X98220500Y-101579145D01*
X98220500Y-101283384D01*
X98214086Y-101212804D01*
X98163478Y-101050394D01*
X98163475Y-101050389D01*
X98160400Y-101043555D01*
X98162364Y-101042670D01*
X98147286Y-100985556D01*
X98168805Y-100919083D01*
X98202349Y-100885862D01*
X98318992Y-100807923D01*
X98325908Y-100803302D01*
X98458302Y-100670908D01*
X98562322Y-100515231D01*
X98586792Y-100456156D01*
X99274499Y-100456156D01*
X99310065Y-100634952D01*
X99310068Y-100634962D01*
X99379831Y-100803387D01*
X99379833Y-100803391D01*
X99481113Y-100954967D01*
X99481119Y-100954975D01*
X99610024Y-101083880D01*
X99610032Y-101083886D01*
X99761608Y-101185166D01*
X99761612Y-101185168D01*
X99930037Y-101254931D01*
X99930042Y-101254933D01*
X99930046Y-101254933D01*
X99930047Y-101254934D01*
X100108843Y-101290500D01*
X100108846Y-101290500D01*
X100691156Y-101290500D01*
X100811445Y-101266572D01*
X100869958Y-101254933D01*
X101038389Y-101185167D01*
X101038391Y-101185166D01*
X101113672Y-101134864D01*
X101189972Y-101083883D01*
X101318883Y-100954972D01*
X101396937Y-100838155D01*
X101420166Y-100803391D01*
X101420168Y-100803387D01*
X101447958Y-100736295D01*
X101489933Y-100634958D01*
X101501572Y-100576445D01*
X101525500Y-100456156D01*
X101525500Y-100273843D01*
X101489934Y-100095047D01*
X101489933Y-100095046D01*
X101489933Y-100095042D01*
X101458624Y-100019454D01*
X101420168Y-99926612D01*
X101420166Y-99926608D01*
X101318886Y-99775032D01*
X101318880Y-99775024D01*
X101189975Y-99646119D01*
X101189967Y-99646113D01*
X101067943Y-99564579D01*
X125782600Y-99564579D01*
X125782600Y-99767220D01*
X125814299Y-99967363D01*
X125876921Y-100160092D01*
X125968916Y-100340644D01*
X125999545Y-100382799D01*
X125999546Y-100382800D01*
X126716446Y-99665900D01*
X126716446Y-99665899D01*
X127423554Y-99665899D01*
X127423554Y-99665900D01*
X128140453Y-100382800D01*
X128140454Y-100382799D01*
X128171079Y-100340651D01*
X128171081Y-100340647D01*
X128263078Y-100160092D01*
X128325700Y-99967363D01*
X128357400Y-99767220D01*
X128357400Y-99564579D01*
X128325700Y-99364436D01*
X128263078Y-99171707D01*
X128171082Y-98991154D01*
X128140453Y-98948999D01*
X127423554Y-99665899D01*
X126716446Y-99665899D01*
X125999545Y-98948998D01*
X125999544Y-98948999D01*
X125968919Y-98991150D01*
X125876921Y-99171707D01*
X125814299Y-99364436D01*
X125782600Y-99564579D01*
X101067943Y-99564579D01*
X101038391Y-99544833D01*
X101038387Y-99544831D01*
X100869962Y-99475068D01*
X100869952Y-99475065D01*
X100691156Y-99439500D01*
X100691154Y-99439500D01*
X100108846Y-99439500D01*
X100108844Y-99439500D01*
X99930047Y-99475065D01*
X99930037Y-99475068D01*
X99761612Y-99544831D01*
X99761608Y-99544833D01*
X99610032Y-99646113D01*
X99610024Y-99646119D01*
X99481119Y-99775024D01*
X99481113Y-99775032D01*
X99379833Y-99926608D01*
X99379831Y-99926612D01*
X99310068Y-100095037D01*
X99310065Y-100095047D01*
X99274500Y-100273843D01*
X99274500Y-100273846D01*
X99274500Y-100456154D01*
X99274500Y-100456156D01*
X99274499Y-100456156D01*
X98586792Y-100456156D01*
X98633973Y-100342251D01*
X98670500Y-100158616D01*
X98670500Y-99971384D01*
X98633973Y-99787749D01*
X98562322Y-99614769D01*
X98562321Y-99614768D01*
X98562318Y-99614762D01*
X98458302Y-99459092D01*
X98458299Y-99459088D01*
X98325911Y-99326700D01*
X98325907Y-99326697D01*
X98170237Y-99222681D01*
X98170228Y-99222676D01*
X97997251Y-99151027D01*
X97997243Y-99151025D01*
X97813620Y-99114500D01*
X97813616Y-99114500D01*
X96926384Y-99114500D01*
X96926379Y-99114500D01*
X96742756Y-99151025D01*
X96742748Y-99151027D01*
X96569771Y-99222676D01*
X96569762Y-99222681D01*
X96414092Y-99326697D01*
X96414088Y-99326700D01*
X96281700Y-99459088D01*
X96281697Y-99459092D01*
X96177681Y-99614762D01*
X96177676Y-99614771D01*
X96106027Y-99787748D01*
X96106025Y-99787756D01*
X96069500Y-99971379D01*
X96069500Y-100158620D01*
X96106025Y-100342243D01*
X96106027Y-100342251D01*
X96177676Y-100515228D01*
X96177681Y-100515237D01*
X96235813Y-100602237D01*
X96256691Y-100668915D01*
X96238206Y-100736295D01*
X96196867Y-100777241D01*
X96184816Y-100784526D01*
X96184810Y-100784531D01*
X96064530Y-100904811D01*
X95976522Y-101050393D01*
X95925913Y-101212807D01*
X95919500Y-101283386D01*
X95276295Y-101283386D01*
X95276290Y-101280801D01*
X95268509Y-97032410D01*
X125882100Y-97032410D01*
X125882100Y-97219389D01*
X125911350Y-97404067D01*
X125969131Y-97581899D01*
X126054017Y-97748495D01*
X126163921Y-97899765D01*
X126296135Y-98031979D01*
X126447405Y-98141883D01*
X126530705Y-98184326D01*
X126614006Y-98226771D01*
X126618498Y-98228631D01*
X126617705Y-98230544D01*
X126668216Y-98265040D01*
X126695452Y-98329383D01*
X126683577Y-98398236D01*
X126636363Y-98449739D01*
X126610589Y-98461519D01*
X126575808Y-98472820D01*
X126395250Y-98564819D01*
X126353099Y-98595444D01*
X126353098Y-98595445D01*
X127070000Y-99312346D01*
X127070001Y-99312346D01*
X127786900Y-98595446D01*
X127786899Y-98595445D01*
X127744744Y-98564816D01*
X127564190Y-98472819D01*
X127529411Y-98461519D01*
X127471736Y-98422081D01*
X127444539Y-98357722D01*
X127456454Y-98288876D01*
X127503699Y-98237401D01*
X127521728Y-98229176D01*
X127521502Y-98228631D01*
X127525993Y-98226771D01*
X127525995Y-98226770D01*
X127692595Y-98141883D01*
X127843865Y-98031979D01*
X127976079Y-97899765D01*
X128085983Y-97748495D01*
X128170870Y-97581895D01*
X128228650Y-97404067D01*
X128257900Y-97219390D01*
X128257900Y-97032410D01*
X128228650Y-96847733D01*
X128170870Y-96669905D01*
X128170868Y-96669902D01*
X128170868Y-96669900D01*
X128085982Y-96503304D01*
X127976079Y-96352035D01*
X127843865Y-96219821D01*
X127692595Y-96109917D01*
X127525999Y-96025031D01*
X127348167Y-95967250D01*
X127163490Y-95938000D01*
X126976510Y-95938000D01*
X126884171Y-95952625D01*
X126791832Y-95967250D01*
X126614000Y-96025031D01*
X126447404Y-96109917D01*
X126377783Y-96160500D01*
X126296135Y-96219821D01*
X126296133Y-96219823D01*
X126296132Y-96219823D01*
X126163923Y-96352032D01*
X126163923Y-96352033D01*
X126163921Y-96352035D01*
X126116721Y-96416999D01*
X126054017Y-96503304D01*
X125969131Y-96669900D01*
X125911350Y-96847732D01*
X125882100Y-97032410D01*
X95268509Y-97032410D01*
X95268500Y-97027765D01*
X95259706Y-92225904D01*
X96039500Y-92225904D01*
X96039500Y-93974095D01*
X96045918Y-94066561D01*
X96045920Y-94066577D01*
X96096854Y-94283135D01*
X96096860Y-94283151D01*
X96186721Y-94486668D01*
X96312457Y-94670220D01*
X96312462Y-94670226D01*
X96469773Y-94827537D01*
X96469779Y-94827542D01*
X96653329Y-94953277D01*
X96653330Y-94953277D01*
X96653331Y-94953278D01*
X96746317Y-94994335D01*
X96856857Y-95043143D01*
X96856861Y-95043144D01*
X96856864Y-95043145D01*
X97073422Y-95094079D01*
X97073427Y-95094079D01*
X97073433Y-95094081D01*
X97124808Y-95097647D01*
X97165904Y-95100500D01*
X97165908Y-95100500D01*
X97314096Y-95100500D01*
X97351082Y-95097932D01*
X97406567Y-95094081D01*
X97406573Y-95094079D01*
X97406577Y-95094079D01*
X97623135Y-95043145D01*
X97623135Y-95043144D01*
X97623143Y-95043143D01*
X97826671Y-94953277D01*
X98010221Y-94827542D01*
X98167542Y-94670221D01*
X98293277Y-94486671D01*
X98383143Y-94283143D01*
X98389294Y-94256992D01*
X98423804Y-94196240D01*
X98485681Y-94163790D01*
X98555279Y-94169945D01*
X98610501Y-94212749D01*
X98630706Y-94256992D01*
X98636854Y-94283135D01*
X98636860Y-94283151D01*
X98726721Y-94486668D01*
X98852457Y-94670220D01*
X98852462Y-94670226D01*
X99009773Y-94827537D01*
X99009779Y-94827542D01*
X99193329Y-94953277D01*
X99193330Y-94953277D01*
X99193331Y-94953278D01*
X99286317Y-94994335D01*
X99396857Y-95043143D01*
X99396861Y-95043144D01*
X99396864Y-95043145D01*
X99613422Y-95094079D01*
X99613427Y-95094079D01*
X99613433Y-95094081D01*
X99664808Y-95097647D01*
X99705904Y-95100500D01*
X99705908Y-95100500D01*
X99854096Y-95100500D01*
X99891082Y-95097932D01*
X99946567Y-95094081D01*
X99946573Y-95094079D01*
X99946577Y-95094079D01*
X100163135Y-95043145D01*
X100163135Y-95043144D01*
X100163143Y-95043143D01*
X100366671Y-94953277D01*
X100550221Y-94827542D01*
X100697894Y-94679869D01*
X101039869Y-94679869D01*
X101053437Y-94733027D01*
X101053443Y-94733044D01*
X101083881Y-94806528D01*
X101083893Y-94806556D01*
X101107218Y-94855309D01*
X101107221Y-94855314D01*
X101193358Y-94970378D01*
X101193361Y-94970382D01*
X101249623Y-95026643D01*
X101249640Y-95026659D01*
X101289842Y-95062770D01*
X101413454Y-95136111D01*
X101413461Y-95136115D01*
X101486932Y-95166547D01*
X101486935Y-95166548D01*
X101537946Y-95184544D01*
X101680219Y-95204999D01*
X101680221Y-95205000D01*
X102959786Y-95205000D01*
X103013762Y-95202106D01*
X103013764Y-95202106D01*
X103153030Y-95166561D01*
X103153042Y-95166557D01*
X103226528Y-95136118D01*
X103226556Y-95136106D01*
X103275309Y-95112781D01*
X103275314Y-95112778D01*
X103390378Y-95026641D01*
X103390382Y-95026638D01*
X103446643Y-94970376D01*
X103446659Y-94970359D01*
X103482770Y-94930157D01*
X103556111Y-94806545D01*
X103556115Y-94806538D01*
X103586547Y-94733067D01*
X103586556Y-94733043D01*
X103604543Y-94682057D01*
X103605651Y-94674347D01*
X103555918Y-94649454D01*
X103529881Y-94647591D01*
X103485541Y-94619093D01*
X102320000Y-93453552D01*
X101154457Y-94619095D01*
X101093134Y-94652580D01*
X101088389Y-94652240D01*
X101039869Y-94679869D01*
X100697894Y-94679869D01*
X100707542Y-94670221D01*
X100833277Y-94486671D01*
X100923143Y-94283143D01*
X100958069Y-94134645D01*
X100991094Y-94075354D01*
X101966448Y-93100000D01*
X101966448Y-93099999D01*
X100991094Y-92124645D01*
X100958069Y-92065353D01*
X100923145Y-91916866D01*
X100923143Y-91916857D01*
X100833277Y-91713329D01*
X100833277Y-91713328D01*
X100833275Y-91713325D01*
X100800069Y-91664851D01*
X100800067Y-91664849D01*
X100773984Y-91626773D01*
X100773983Y-91626772D01*
X101200325Y-91626772D01*
X101200325Y-91626773D01*
X102320000Y-92746448D01*
X102320001Y-92746448D01*
X103439673Y-91626773D01*
X103439673Y-91626772D01*
X103361295Y-91509470D01*
X103361290Y-91509463D01*
X103298485Y-91432935D01*
X103187064Y-91321514D01*
X103110536Y-91258708D01*
X103110530Y-91258704D01*
X102979521Y-91171167D01*
X102979501Y-91171155D01*
X102892198Y-91124490D01*
X102746612Y-91064185D01*
X102651864Y-91035444D01*
X102497300Y-91004701D01*
X102398790Y-90995000D01*
X102241210Y-90995000D01*
X102142700Y-91004701D01*
X102142697Y-91004701D01*
X101988135Y-91035444D01*
X101893387Y-91064185D01*
X101747801Y-91124490D01*
X101660498Y-91171155D01*
X101660478Y-91171167D01*
X101529469Y-91258704D01*
X101529463Y-91258708D01*
X101452935Y-91321514D01*
X101341515Y-91432934D01*
X101278709Y-91509463D01*
X101278700Y-91509475D01*
X101200325Y-91626772D01*
X100773983Y-91626772D01*
X100707542Y-91529779D01*
X100707537Y-91529773D01*
X100550226Y-91372462D01*
X100550220Y-91372457D01*
X100366668Y-91246721D01*
X100163151Y-91156860D01*
X100163135Y-91156854D01*
X99946577Y-91105920D01*
X99946561Y-91105918D01*
X99854096Y-91099500D01*
X99854092Y-91099500D01*
X99705908Y-91099500D01*
X99705904Y-91099500D01*
X99613438Y-91105918D01*
X99613422Y-91105920D01*
X99396864Y-91156854D01*
X99396848Y-91156860D01*
X99193331Y-91246721D01*
X99009779Y-91372457D01*
X99009773Y-91372462D01*
X98852462Y-91529773D01*
X98852457Y-91529779D01*
X98726721Y-91713331D01*
X98636860Y-91916848D01*
X98636854Y-91916864D01*
X98630706Y-91943007D01*
X98596195Y-92003759D01*
X98534318Y-92036209D01*
X98464720Y-92030054D01*
X98409498Y-91987249D01*
X98389294Y-91943007D01*
X98383145Y-91916864D01*
X98383144Y-91916861D01*
X98383143Y-91916857D01*
X98293277Y-91713329D01*
X98167542Y-91529779D01*
X98167537Y-91529773D01*
X98010226Y-91372462D01*
X98010220Y-91372457D01*
X97826668Y-91246721D01*
X97623151Y-91156860D01*
X97623135Y-91156854D01*
X97406577Y-91105920D01*
X97406561Y-91105918D01*
X97314096Y-91099500D01*
X97314092Y-91099500D01*
X97165908Y-91099500D01*
X97165904Y-91099500D01*
X97073438Y-91105918D01*
X97073422Y-91105920D01*
X96856864Y-91156854D01*
X96856848Y-91156860D01*
X96653331Y-91246721D01*
X96469779Y-91372457D01*
X96469773Y-91372462D01*
X96312462Y-91529773D01*
X96312457Y-91529779D01*
X96186721Y-91713331D01*
X96096860Y-91916848D01*
X96096854Y-91916864D01*
X96045920Y-92133422D01*
X96045918Y-92133438D01*
X96039500Y-92225904D01*
X95259706Y-92225904D01*
X95259702Y-92223986D01*
X95252560Y-88324227D01*
X95272122Y-88257152D01*
X95324842Y-88211300D01*
X95376560Y-88200000D01*
X116500000Y-88200000D01*
X116500000Y-87734048D01*
X116519685Y-87667009D01*
X116561999Y-87626662D01*
X116607314Y-87600500D01*
X116700500Y-87507314D01*
X116766392Y-87393186D01*
X116800500Y-87265892D01*
X116800500Y-82930344D01*
X127805000Y-82930344D01*
X127811401Y-82989872D01*
X127811403Y-82989879D01*
X127861645Y-83124586D01*
X127861649Y-83124593D01*
X127947809Y-83239687D01*
X127947812Y-83239690D01*
X128062906Y-83325850D01*
X128062913Y-83325854D01*
X128197620Y-83376096D01*
X128197627Y-83376098D01*
X128257155Y-83382499D01*
X128257172Y-83382500D01*
X128380000Y-83382500D01*
X128380000Y-82370000D01*
X127805000Y-82370000D01*
X127805000Y-82930344D01*
X116800500Y-82930344D01*
X116800500Y-81309655D01*
X127805000Y-81309655D01*
X127805000Y-81870000D01*
X128380000Y-81870000D01*
X128380000Y-80857500D01*
X128257155Y-80857500D01*
X128197627Y-80863901D01*
X128197620Y-80863903D01*
X128062913Y-80914145D01*
X128062906Y-80914149D01*
X127947812Y-81000309D01*
X127947809Y-81000312D01*
X127861649Y-81115406D01*
X127861645Y-81115413D01*
X127811403Y-81250120D01*
X127811401Y-81250127D01*
X127805000Y-81309655D01*
X116800500Y-81309655D01*
X116800500Y-79001577D01*
X127984500Y-79001577D01*
X127984500Y-79198422D01*
X128015290Y-79392826D01*
X128076117Y-79580029D01*
X128165476Y-79755405D01*
X128281172Y-79914646D01*
X128420354Y-80053828D01*
X128579595Y-80169524D01*
X128662455Y-80211743D01*
X128754970Y-80258882D01*
X128754972Y-80258882D01*
X128754975Y-80258884D01*
X128813962Y-80278050D01*
X128942173Y-80319709D01*
X129136578Y-80350500D01*
X129136583Y-80350500D01*
X129175500Y-80350500D01*
X129242539Y-80370185D01*
X129288294Y-80422989D01*
X129299500Y-80474500D01*
X129299500Y-80773750D01*
X129279815Y-80840789D01*
X129227011Y-80886544D01*
X129157853Y-80896488D01*
X129132167Y-80889932D01*
X129062379Y-80863903D01*
X129062372Y-80863901D01*
X129002844Y-80857500D01*
X128880000Y-80857500D01*
X128880000Y-83382500D01*
X129002828Y-83382500D01*
X129002844Y-83382499D01*
X129062372Y-83376098D01*
X129062379Y-83376096D01*
X129197086Y-83325854D01*
X129197089Y-83325852D01*
X129283448Y-83261204D01*
X129348912Y-83236786D01*
X129414054Y-83249985D01*
X129448234Y-83267401D01*
X129449696Y-83268146D01*
X129449698Y-83268147D01*
X129543475Y-83282999D01*
X129543481Y-83283000D01*
X130256518Y-83282999D01*
X130350304Y-83268146D01*
X130463342Y-83210550D01*
X130463343Y-83210548D01*
X130472037Y-83206119D01*
X130472805Y-83207627D01*
X130527916Y-83187962D01*
X130595970Y-83203784D01*
X130605880Y-83210153D01*
X130606656Y-83210548D01*
X130606658Y-83210550D01*
X130706072Y-83261204D01*
X130719698Y-83268147D01*
X130813475Y-83282999D01*
X130813481Y-83283000D01*
X131526518Y-83282999D01*
X131620304Y-83268146D01*
X131733342Y-83210550D01*
X131733343Y-83210548D01*
X131742037Y-83206119D01*
X131742805Y-83207627D01*
X131797916Y-83187962D01*
X131865970Y-83203784D01*
X131875880Y-83210153D01*
X131876656Y-83210548D01*
X131876658Y-83210550D01*
X131976072Y-83261204D01*
X131989698Y-83268147D01*
X132083475Y-83282999D01*
X132083481Y-83283000D01*
X132796518Y-83282999D01*
X132890304Y-83268146D01*
X133003342Y-83210550D01*
X133093050Y-83120842D01*
X133150646Y-83007804D01*
X133150646Y-83007802D01*
X133150647Y-83007801D01*
X133165499Y-82914024D01*
X133165500Y-82914019D01*
X133165499Y-81325982D01*
X133150646Y-81232196D01*
X133093050Y-81119158D01*
X133093046Y-81119154D01*
X133093045Y-81119152D01*
X133003347Y-81029454D01*
X133003344Y-81029452D01*
X133003342Y-81029450D01*
X132926517Y-80990305D01*
X132890301Y-80971852D01*
X132796524Y-80957000D01*
X132083482Y-80957000D01*
X131989696Y-80971854D01*
X131950793Y-80991676D01*
X131882124Y-81004571D01*
X131817384Y-80978293D01*
X131777128Y-80921186D01*
X131770500Y-80881190D01*
X131770500Y-80474499D01*
X131790185Y-80407460D01*
X131842989Y-80361705D01*
X131894500Y-80350499D01*
X132656517Y-80350499D01*
X132656518Y-80350499D01*
X132750304Y-80335646D01*
X132863342Y-80278050D01*
X132953050Y-80188342D01*
X133010646Y-80075304D01*
X133010646Y-80075302D01*
X133010647Y-80075301D01*
X133025499Y-79981524D01*
X133025500Y-79981519D01*
X133025499Y-78218482D01*
X133010646Y-78124696D01*
X132953050Y-78011658D01*
X132953046Y-78011654D01*
X132953045Y-78011652D01*
X132863347Y-77921954D01*
X132863344Y-77921952D01*
X132863342Y-77921950D01*
X132781580Y-77880290D01*
X132750301Y-77864352D01*
X132656524Y-77849500D01*
X130893482Y-77849500D01*
X130812519Y-77862323D01*
X130799696Y-77864354D01*
X130686658Y-77921950D01*
X130686657Y-77921951D01*
X130686652Y-77921954D01*
X130596954Y-78011652D01*
X130596951Y-78011657D01*
X130539352Y-78124698D01*
X130524500Y-78218475D01*
X130524500Y-78365733D01*
X130504815Y-78432772D01*
X130452011Y-78478527D01*
X130382853Y-78488471D01*
X130319297Y-78459446D01*
X130300182Y-78438619D01*
X130295934Y-78432772D01*
X130188828Y-78285354D01*
X130049646Y-78146172D01*
X129890405Y-78030476D01*
X129715029Y-77941117D01*
X129527826Y-77880290D01*
X129333422Y-77849500D01*
X129333417Y-77849500D01*
X129136583Y-77849500D01*
X129136578Y-77849500D01*
X128942173Y-77880290D01*
X128754970Y-77941117D01*
X128579594Y-78030476D01*
X128488741Y-78096485D01*
X128420354Y-78146172D01*
X128420352Y-78146174D01*
X128420351Y-78146174D01*
X128281174Y-78285351D01*
X128281174Y-78285352D01*
X128281172Y-78285354D01*
X128231485Y-78353741D01*
X128165476Y-78444594D01*
X128076117Y-78619970D01*
X128015290Y-78807173D01*
X127984500Y-79001577D01*
X116800500Y-79001577D01*
X116800500Y-77024500D01*
X116820185Y-76957461D01*
X116872989Y-76911706D01*
X116924500Y-76900500D01*
X145876000Y-76900500D01*
X145943039Y-76920185D01*
G37*
G04 #@! TD.AperFunction*
G04 #@! TA.AperFunction,Conductor*
G36*
X140640110Y-112362404D02*
G01*
X140684457Y-112390905D01*
X141748904Y-113455352D01*
X141781929Y-113514643D01*
X141816854Y-113663135D01*
X141816860Y-113663151D01*
X141888506Y-113825414D01*
X141892944Y-113859311D01*
X141897810Y-113893147D01*
X141897472Y-113893886D01*
X141897578Y-113894692D01*
X141882993Y-113925590D01*
X141868785Y-113956703D01*
X141868100Y-113957142D01*
X141867754Y-113957877D01*
X141838776Y-113975987D01*
X141810007Y-113994477D01*
X141808951Y-113994628D01*
X141808505Y-113994908D01*
X141775072Y-113999500D01*
X141637311Y-113999500D01*
X141570272Y-113979815D01*
X141549630Y-113963181D01*
X140420000Y-112833552D01*
X139290369Y-113963181D01*
X139263441Y-113977884D01*
X139237623Y-113994477D01*
X139231422Y-113995368D01*
X139229046Y-113996666D01*
X139202688Y-113999500D01*
X139064928Y-113999500D01*
X138997889Y-113979815D01*
X138952134Y-113927011D01*
X138942190Y-113857853D01*
X138951494Y-113825414D01*
X139023139Y-113663151D01*
X139023143Y-113663143D01*
X139058070Y-113514643D01*
X139091095Y-113455352D01*
X140155543Y-112390905D01*
X140216866Y-112357420D01*
X140286558Y-112362404D01*
X140330905Y-112390905D01*
X140420000Y-112480000D01*
X140509095Y-112390905D01*
X140570418Y-112357420D01*
X140640110Y-112362404D01*
G37*
G04 #@! TD.AperFunction*
G04 #@! TA.AperFunction,Conductor*
G36*
X134823280Y-87628413D02*
G01*
X134850967Y-87633186D01*
X134859593Y-87639076D01*
X134863368Y-87640185D01*
X134869691Y-87645971D01*
X134880114Y-87653089D01*
X134892563Y-87664499D01*
X134896919Y-87671865D01*
X135013135Y-87788081D01*
X135053324Y-87811849D01*
X135062857Y-87820586D01*
X135098977Y-87880394D01*
X135097028Y-87950237D01*
X135057629Y-88007939D01*
X135044170Y-88017535D01*
X134946656Y-88077682D01*
X134822684Y-88201654D01*
X134730643Y-88350875D01*
X134730641Y-88350880D01*
X134675494Y-88517302D01*
X134675493Y-88517309D01*
X134665000Y-88620013D01*
X134665000Y-88670000D01*
X135766000Y-88670000D01*
X135833039Y-88689685D01*
X135878794Y-88742489D01*
X135890000Y-88794000D01*
X135890000Y-88920000D01*
X136016000Y-88920000D01*
X136083039Y-88939685D01*
X136128794Y-88992489D01*
X136140000Y-89044000D01*
X136140000Y-89919999D01*
X136414972Y-89919999D01*
X136414986Y-89919998D01*
X136517697Y-89909505D01*
X136684119Y-89854358D01*
X136684124Y-89854356D01*
X136833345Y-89762315D01*
X136957315Y-89638345D01*
X137029961Y-89520568D01*
X137081909Y-89473844D01*
X137150872Y-89462621D01*
X137214954Y-89490465D01*
X137253810Y-89548533D01*
X137259500Y-89585665D01*
X137259500Y-91204534D01*
X137239815Y-91271573D01*
X137205577Y-91306833D01*
X137109786Y-91372451D01*
X137109773Y-91372462D01*
X136952462Y-91529773D01*
X136952457Y-91529779D01*
X136826721Y-91713331D01*
X136736860Y-91916848D01*
X136736854Y-91916864D01*
X136730706Y-91943007D01*
X136696195Y-92003759D01*
X136634318Y-92036209D01*
X136564720Y-92030054D01*
X136509498Y-91987249D01*
X136489294Y-91943007D01*
X136483145Y-91916864D01*
X136483144Y-91916861D01*
X136483143Y-91916857D01*
X136393277Y-91713329D01*
X136267542Y-91529779D01*
X136267537Y-91529773D01*
X136110226Y-91372462D01*
X136110220Y-91372457D01*
X135926020Y-91246277D01*
X135888190Y-91205068D01*
X135880410Y-91191326D01*
X135879577Y-91188216D01*
X135879577Y-91188215D01*
X135832063Y-91105919D01*
X135800520Y-91051284D01*
X135688716Y-90939480D01*
X135688715Y-90939479D01*
X135684385Y-90935149D01*
X135684374Y-90935139D01*
X134687590Y-89938355D01*
X134687588Y-89938352D01*
X134568717Y-89819481D01*
X134568716Y-89819480D01*
X134464960Y-89759577D01*
X134464959Y-89759576D01*
X134431783Y-89740422D01*
X134375881Y-89725443D01*
X134279057Y-89699499D01*
X134120943Y-89699499D01*
X134113347Y-89699499D01*
X134113331Y-89699500D01*
X133200097Y-89699500D01*
X133133058Y-89679815D01*
X133112416Y-89663181D01*
X132669221Y-89219986D01*
X134665001Y-89219986D01*
X134675494Y-89322697D01*
X134730641Y-89489119D01*
X134730643Y-89489124D01*
X134822684Y-89638345D01*
X134946654Y-89762315D01*
X135095875Y-89854356D01*
X135095880Y-89854358D01*
X135262302Y-89909505D01*
X135262309Y-89909506D01*
X135365019Y-89919999D01*
X135639999Y-89919999D01*
X135640000Y-89919998D01*
X135640000Y-89170000D01*
X134665001Y-89170000D01*
X134665001Y-89219986D01*
X132669221Y-89219986D01*
X132367915Y-88918680D01*
X132334430Y-88857357D01*
X132339414Y-88787665D01*
X132381286Y-88731732D01*
X132446750Y-88707315D01*
X132455596Y-88706999D01*
X132796517Y-88706999D01*
X132796518Y-88706999D01*
X132890304Y-88692146D01*
X133003342Y-88634550D01*
X133093050Y-88544842D01*
X133150646Y-88431804D01*
X133150646Y-88431802D01*
X133150647Y-88431801D01*
X133165500Y-88338024D01*
X133165500Y-88268500D01*
X133185185Y-88201461D01*
X133237989Y-88155706D01*
X133289500Y-88144500D01*
X133669331Y-88144500D01*
X133669347Y-88144501D01*
X133676943Y-88144501D01*
X133835054Y-88144501D01*
X133835057Y-88144501D01*
X133987785Y-88103577D01*
X134061038Y-88061284D01*
X134124716Y-88024520D01*
X134236520Y-87912716D01*
X134236520Y-87912714D01*
X134246721Y-87902514D01*
X134246724Y-87902509D01*
X134492417Y-87656816D01*
X134553739Y-87623334D01*
X134580097Y-87620500D01*
X134796329Y-87620500D01*
X134823280Y-87628413D01*
G37*
G04 #@! TD.AperFunction*
M02*
