G04 #@! TF.GenerationSoftware,KiCad,Pcbnew,9.0.3+dfsg-1*
G04 #@! TF.CreationDate,2026-02-05T23:25:24+01:00*
G04 #@! TF.ProjectId,NFC_harness_V0,4e46435f-6861-4726-9e65-73735f56302e,rev?*
G04 #@! TF.SameCoordinates,Original*
G04 #@! TF.FileFunction,Paste,Top*
G04 #@! TF.FilePolarity,Positive*
%FSLAX46Y46*%
G04 Gerber Fmt 4.6, Leading zero omitted, Abs format (unit mm)*
G04 Created by KiCad (PCBNEW 9.0.3+dfsg-1) date 2026-02-05 23:25:24*
%MOMM*%
%LPD*%
G01*
G04 APERTURE LIST*
G04 Aperture macros list*
%AMRoundRect*
0 Rectangle with rounded corners*
0 $1 Rounding radius*
0 $2 $3 $4 $5 $6 $7 $8 $9 X,Y pos of 4 corners*
0 Add a 4 corners polygon primitive as box body*
4,1,4,$2,$3,$4,$5,$6,$7,$8,$9,$2,$3,0*
0 Add four circle primitives for the rounded corners*
1,1,$1+$1,$2,$3*
1,1,$1+$1,$4,$5*
1,1,$1+$1,$6,$7*
1,1,$1+$1,$8,$9*
0 Add four rect primitives between the rounded corners*
20,1,$1+$1,$2,$3,$4,$5,0*
20,1,$1+$1,$4,$5,$6,$7,0*
20,1,$1+$1,$6,$7,$8,$9,0*
20,1,$1+$1,$8,$9,$2,$3,0*%
G04 Aperture macros list end*
%ADD10RoundRect,0.250000X-0.312500X-0.625000X0.312500X-0.625000X0.312500X0.625000X-0.312500X0.625000X0*%
%ADD11RoundRect,0.250000X-0.650000X0.325000X-0.650000X-0.325000X0.650000X-0.325000X0.650000X0.325000X0*%
%ADD12RoundRect,0.250000X0.625000X-0.312500X0.625000X0.312500X-0.625000X0.312500X-0.625000X-0.312500X0*%
%ADD13RoundRect,0.250000X0.475000X-0.250000X0.475000X0.250000X-0.475000X0.250000X-0.475000X-0.250000X0*%
%ADD14RoundRect,0.250000X0.650000X-0.325000X0.650000X0.325000X-0.650000X0.325000X-0.650000X-0.325000X0*%
%ADD15RoundRect,0.250000X-0.475000X0.250000X-0.475000X-0.250000X0.475000X-0.250000X0.475000X0.250000X0*%
%ADD16R,1.400000X0.850000*%
%ADD17R,0.650000X1.525000*%
%ADD18R,2.200000X3.800000*%
%ADD19O,1.800000X1.100000*%
%ADD20O,1.450000X1.050000*%
%ADD21RoundRect,0.200000X0.587400X-0.587400X0.587400X0.587400X-0.587400X0.587400X-0.587400X-0.587400X0*%
%ADD22C,1.574800*%
%ADD23RoundRect,0.300000X0.450000X-0.450000X0.450000X0.450000X-0.450000X0.450000X-0.450000X-0.450000X0*%
G04 APERTURE END LIST*
D10*
X123937500Y-88900000D03*
X126862500Y-88900000D03*
D11*
X140900000Y-85450000D03*
X140900000Y-88400000D03*
D12*
X118500000Y-90125000D03*
X118500000Y-87200000D03*
D13*
X121800000Y-81250000D03*
X121800000Y-79350000D03*
D14*
X135900000Y-84875000D03*
X135900000Y-81925000D03*
D10*
X121137500Y-85000000D03*
X124062500Y-85000000D03*
D15*
X135890000Y-87020000D03*
X135890000Y-88920000D03*
D16*
X125700000Y-78100000D03*
X125700000Y-82000000D03*
D17*
X132440000Y-82120000D03*
X131170000Y-82120000D03*
X129900000Y-82120000D03*
X128630000Y-82120000D03*
X128630000Y-87544000D03*
X129900000Y-87544000D03*
X131170000Y-87544000D03*
X132440000Y-87544000D03*
D18*
X97240000Y-112480000D03*
X99780000Y-112480000D03*
X102320000Y-112480000D03*
X104860000Y-112480000D03*
X107400000Y-112480000D03*
X109940000Y-112480000D03*
X112480000Y-112480000D03*
X115020000Y-112480000D03*
X117560000Y-112480000D03*
X120100000Y-112480000D03*
X122640000Y-112480000D03*
X125180000Y-112480000D03*
X127720000Y-112480000D03*
X130260000Y-112480000D03*
X132800000Y-112480000D03*
X135340000Y-112480000D03*
X137880000Y-112480000D03*
X140420000Y-112480000D03*
X142960000Y-112480000D03*
X145500000Y-112480000D03*
D19*
X97370000Y-105515000D03*
D20*
X100400000Y-105215000D03*
X100400000Y-100365000D03*
D19*
X97370000Y-100065000D03*
D18*
X97240000Y-93100000D03*
X99780000Y-93100000D03*
X102320000Y-93100000D03*
X104860000Y-93100000D03*
X107400000Y-93100000D03*
X109940000Y-93100000D03*
X112480000Y-93100000D03*
X115020000Y-93100000D03*
X117560000Y-93100000D03*
X120100000Y-93100000D03*
X122640000Y-93100000D03*
X125180000Y-93100000D03*
X127720000Y-93100000D03*
X130260000Y-93100000D03*
X132800000Y-93100000D03*
X135340000Y-93100000D03*
X137880000Y-93100000D03*
X140420000Y-93100000D03*
X142960000Y-93100000D03*
X145500000Y-93100000D03*
D21*
X127070000Y-102205900D03*
D22*
X127070000Y-99665900D03*
X127070000Y-97125900D03*
D23*
X100370000Y-102790000D03*
X97070000Y-101790000D03*
X97070000Y-103790000D03*
X105370000Y-105290000D03*
X107870000Y-105290000D03*
X110370000Y-105290000D03*
M02*
