G04 #@! TF.GenerationSoftware,KiCad,Pcbnew,9.0.3+dfsg-1*
G04 #@! TF.CreationDate,2026-01-08T15:20:17+01:00*
G04 #@! TF.ProjectId,NFC_harness_V0,506c6179-6772-46f7-956e-6453656e7469,rev?*
G04 #@! TF.SameCoordinates,Original*
G04 #@! TF.FileFunction,Paste,Top*
G04 #@! TF.FilePolarity,Positive*
%FSLAX46Y46*%
G04 Gerber Fmt 4.6, Leading zero omitted, Abs format (unit mm)*
G04 Created by KiCad (PCBNEW 9.0.3+dfsg-1) date 2026-01-08 15:20:17*
%MOMM*%
%LPD*%
G01*
G04 APERTURE LIST*
G04 Aperture macros list*
%AMRoundRect*
0 Rectangle with rounded corners*
0 $1 Rounding radius*
0 $2 $3 $4 $5 $6 $7 $8 $9 X,Y pos of 4 corners*
0 Add a 4 corners polygon primitive as box body*
4,1,4,$2,$3,$4,$5,$6,$7,$8,$9,$2,$3,0*
0 Add four circle primitives for the rounded corners*
1,1,$1+$1,$2,$3*
1,1,$1+$1,$4,$5*
1,1,$1+$1,$6,$7*
1,1,$1+$1,$8,$9*
0 Add four rect primitives between the rounded corners*
20,1,$1+$1,$2,$3,$4,$5,0*
20,1,$1+$1,$4,$5,$6,$7,0*
20,1,$1+$1,$6,$7,$8,$9,0*
20,1,$1+$1,$8,$9,$2,$3,0*%
%AMFreePoly0*
4,1,11,1.015000,1.170000,0.435000,0.575000,0.435000,-0.575000,1.015000,-1.170000,1.015000,-1.945000,0.125000,-1.945000,-0.435000,-1.395000,-0.435000,1.395000,0.125000,1.945000,1.015000,1.945000,1.015000,1.170000,1.015000,1.170000,$1*%
%AMFreePoly1*
4,1,11,0.435000,1.395000,0.435000,-1.395000,-0.125000,-1.945000,-1.015000,-1.945000,-1.015000,-1.170000,-0.435000,-0.575000,-0.435000,0.575000,-1.015000,1.170000,-1.015000,1.945000,-0.125000,1.945000,0.435000,1.395000,0.435000,1.395000,$1*%
G04 Aperture macros list end*
%ADD10RoundRect,0.250000X-0.450000X0.262500X-0.450000X-0.262500X0.450000X-0.262500X0.450000X0.262500X0*%
%ADD11RoundRect,0.250000X-0.475000X0.250000X-0.475000X-0.250000X0.475000X-0.250000X0.475000X0.250000X0*%
%ADD12RoundRect,0.150000X0.150000X-0.512500X0.150000X0.512500X-0.150000X0.512500X-0.150000X-0.512500X0*%
%ADD13RoundRect,0.150000X-0.150000X0.587500X-0.150000X-0.587500X0.150000X-0.587500X0.150000X0.587500X0*%
%ADD14RoundRect,0.250000X-0.625000X0.375000X-0.625000X-0.375000X0.625000X-0.375000X0.625000X0.375000X0*%
%ADD15RoundRect,0.250000X-0.250000X-0.475000X0.250000X-0.475000X0.250000X0.475000X-0.250000X0.475000X0*%
%ADD16RoundRect,0.250000X-0.262500X-0.450000X0.262500X-0.450000X0.262500X0.450000X-0.262500X0.450000X0*%
%ADD17RoundRect,0.250000X0.650000X-0.325000X0.650000X0.325000X-0.650000X0.325000X-0.650000X-0.325000X0*%
%ADD18RoundRect,0.250000X0.450000X-0.262500X0.450000X0.262500X-0.450000X0.262500X-0.450000X-0.262500X0*%
%ADD19RoundRect,0.250000X0.375000X0.625000X-0.375000X0.625000X-0.375000X-0.625000X0.375000X-0.625000X0*%
%ADD20RoundRect,0.250000X0.250000X0.475000X-0.250000X0.475000X-0.250000X-0.475000X0.250000X-0.475000X0*%
%ADD21RoundRect,0.250000X0.262500X0.450000X-0.262500X0.450000X-0.262500X-0.450000X0.262500X-0.450000X0*%
%ADD22FreePoly0,90.000000*%
%ADD23FreePoly1,90.000000*%
%ADD24RoundRect,0.150000X-0.825000X-0.150000X0.825000X-0.150000X0.825000X0.150000X-0.825000X0.150000X0*%
G04 APERTURE END LIST*
D10*
X96050000Y-94937500D03*
X96050000Y-96762500D03*
D11*
X93900000Y-84150000D03*
X93900000Y-86050000D03*
D12*
X89950000Y-86737500D03*
X90900000Y-86737500D03*
X91850000Y-86737500D03*
X91850000Y-84462500D03*
X89950000Y-84462500D03*
D13*
X101450000Y-93562500D03*
X99550000Y-93562500D03*
X100500000Y-95437500D03*
D14*
X112600000Y-88800000D03*
X112600000Y-91600000D03*
D15*
X113050000Y-105500000D03*
X114950000Y-105500000D03*
D16*
X109087500Y-86400000D03*
X110912500Y-86400000D03*
D17*
X116300000Y-103575000D03*
X116300000Y-100625000D03*
D18*
X100500000Y-102412500D03*
X100500000Y-100587500D03*
D19*
X115900000Y-98500000D03*
X113100000Y-98500000D03*
D20*
X87750000Y-92400000D03*
X85850000Y-92400000D03*
D11*
X96200000Y-84150000D03*
X96200000Y-86050000D03*
D21*
X101412500Y-98500000D03*
X99587500Y-98500000D03*
D22*
X91600000Y-92165000D03*
D23*
X91600000Y-88635000D03*
D10*
X109600000Y-89400000D03*
X109600000Y-91225000D03*
D15*
X106850000Y-98700000D03*
X108750000Y-98700000D03*
D16*
X105187500Y-106750000D03*
X107012500Y-106750000D03*
D10*
X106800000Y-90675000D03*
X106800000Y-92500000D03*
D21*
X103112500Y-104400000D03*
X101287500Y-104400000D03*
D20*
X87750000Y-90400000D03*
X85850000Y-90400000D03*
D16*
X99587500Y-91000000D03*
X101412500Y-91000000D03*
D24*
X101300000Y-83815000D03*
X101300000Y-85085000D03*
X101300000Y-86355000D03*
X101300000Y-87625000D03*
X106250000Y-87625000D03*
X106250000Y-86355000D03*
X106250000Y-85085000D03*
X106250000Y-83815000D03*
M02*
